<svg xmlns="http://www.w3.org/2000/svg" xmlns:xlink="http://www.w3.org/1999/xlink" preserveAspectRatio="xMidYMid" width="182" height="24" viewBox="0 0 182 24">
  <defs>
    <style>
      .cls-1 {
        fill: #ff7373;
        fill-rule: evenodd;
      }
    </style>
  </defs>
  <path d="M178.000,24.000 L170.000,24.000 L166.000,24.000 L166.000,20.000 L166.000,12.000 L166.000,8.000 L170.000,8.000 L178.000,8.000 C180.209,8.000 182.000,9.791 182.000,12.000 L182.000,20.000 C182.000,22.209 180.209,24.000 178.000,24.000 ZM178.000,12.000 L170.000,12.000 L170.000,20.000 L178.000,20.000 L178.000,12.000 ZM162.000,24.000 L152.000,24.000 L150.000,24.000 C148.895,24.000 148.000,23.105 148.000,22.000 L148.000,20.000 L148.000,8.000 L152.000,8.000 L152.000,20.000 L164.000,20.000 L164.000,22.000 C164.000,23.105 163.105,24.000 162.000,24.000 ZM144.000,24.000 L134.000,24.000 L132.000,24.000 C130.895,24.000 130.000,23.105 130.000,22.000 L130.000,20.000 L130.000,12.000 L130.000,10.000 C130.000,8.895 130.895,8.000 132.000,8.000 L134.000,8.000 L144.000,8.000 C145.105,8.000 146.000,8.895 146.000,10.000 L146.000,12.000 L146.000,20.000 L146.000,22.000 C146.000,23.105 145.105,24.000 144.000,24.000 ZM142.000,12.000 L134.000,12.000 L134.000,20.000 L142.000,20.000 L142.000,12.000 ZM124.000,18.000 L116.000,18.000 L116.000,24.000 L112.000,24.000 L112.000,18.000 L112.000,14.000 L112.000,8.000 L116.000,8.000 L116.000,14.000 L124.000,14.000 L124.000,8.000 L128.000,8.000 L128.000,14.000 L128.000,16.000 L128.000,24.000 L124.000,24.000 L124.000,18.000 ZM14.000,6.000 L2.000,6.000 C0.895,6.000 0.000,5.105 0.000,4.000 L0.000,2.000 L0.000,0.000 L3.000,0.000 L4.000,2.000 L5.000,2.000 L6.000,0.000 L10.000,0.000 L11.000,2.000 L12.000,2.000 L13.000,0.000 L16.000,0.000 L16.000,2.000 L16.000,4.000 C16.000,5.105 15.105,6.000 14.000,6.000 Z" class="cls-1"/>
</svg>
