<svg xmlns="http://www.w3.org/2000/svg" xmlns:xlink="http://www.w3.org/1999/xlink" preserveAspectRatio="xMidYMid" width="110" height="16" viewBox="0 0 110 16">
  <defs>
    <style>
      .cls-1 {
        fill: #fff;
        fill-rule: evenodd;
      }
    </style>
  </defs>
  <path d="M108.000,6.000 C109.105,6.000 110.000,6.895 110.000,8.000 L110.000,14.000 C110.000,15.105 109.105,16.000 108.000,16.000 L94.000,16.000 L94.000,12.000 L106.000,12.000 L106.000,10.000 L96.000,10.000 C94.895,10.000 94.000,9.105 94.000,8.000 L94.000,2.000 C94.000,0.895 94.895,0.000 96.000,0.000 L110.000,0.000 L110.000,4.000 L98.000,4.000 L98.000,6.000 L108.000,6.000 ZM84.000,16.000 L80.000,16.000 L80.000,4.000 L74.000,4.000 C72.895,4.000 72.000,3.105 72.000,2.000 L72.000,0.000 L90.000,0.000 C91.105,0.000 92.000,0.895 92.000,2.000 L92.000,4.000 L84.000,4.000 L84.000,16.000 ZM65.000,16.000 L61.000,10.000 L58.000,10.000 L58.000,16.000 L54.000,16.000 L54.000,10.000 L54.000,6.000 L54.000,4.000 L54.000,0.000 L58.000,0.000 L68.000,0.000 C69.105,0.000 70.000,0.895 70.000,2.000 L70.000,4.000 L70.000,6.000 L70.000,8.000 C70.000,9.105 69.105,10.000 68.000,10.000 L66.000,10.000 L70.000,16.000 L65.000,16.000 ZM66.000,4.000 L58.000,4.000 L58.000,6.000 L66.000,6.000 L66.000,4.000 ZM50.000,16.000 L40.000,16.000 L38.000,16.000 C36.895,16.000 36.000,15.105 36.000,14.000 L36.000,12.000 L36.000,4.000 L36.000,2.000 C36.000,0.895 36.895,0.000 38.000,0.000 L40.000,0.000 L50.000,0.000 C51.105,0.000 52.000,0.895 52.000,2.000 L52.000,4.000 L52.000,12.000 L52.000,14.000 C52.000,15.105 51.105,16.000 50.000,16.000 ZM48.000,4.000 L40.000,4.000 L40.000,12.000 L48.000,12.000 L48.000,4.000 ZM32.000,10.000 L22.000,10.000 L22.000,16.000 L18.000,16.000 L18.000,10.000 L18.000,6.000 L18.000,4.000 L18.000,0.000 L22.000,0.000 L32.000,0.000 C33.105,0.000 34.000,0.895 34.000,2.000 L34.000,4.000 L34.000,6.000 L34.000,8.000 C34.000,9.105 33.105,10.000 32.000,10.000 ZM30.000,4.000 L22.000,4.000 L22.000,6.000 L30.000,6.000 L30.000,4.000 ZM14.000,16.000 L0.000,16.000 L0.000,12.000 L12.000,12.000 L12.000,10.000 L2.000,10.000 C0.895,10.000 0.000,9.105 0.000,8.000 L0.000,2.000 C0.000,0.895 0.895,0.000 2.000,0.000 L16.000,0.000 L16.000,4.000 L4.000,4.000 L4.000,6.000 L14.000,6.000 C15.105,6.000 16.000,6.895 16.000,8.000 L16.000,14.000 C16.000,15.105 15.105,16.000 14.000,16.000 Z" class="cls-1"/>
</svg>
