<svg xmlns="http://www.w3.org/2000/svg" width="1000" height="1000" viewBox="0 0 999.99999 999.99999"><g transform="translate(0 -52.362)"><flowRoot xml:space="preserve" style="line-height:125%" transform="translate(-1.43 50.934)" font-style="normal" font-weight="400" font-size="40" font-family="sans-serif" letter-spacing="0" word-spacing="0" fill="gray" fill-opacity="1" stroke="none" stroke-width="1" stroke-linecap="butt" stroke-linejoin="miter" stroke-opacity="1"><flowRegion><path d="M72.857-130H110v45.714H72.857z"/></flowRegion><flowPara>b</flowPara></flowRoot><flowRoot xml:space="preserve" style="line-height:125%" transform="translate(4.286 48.077)" font-style="normal" font-weight="400" font-size="40" font-family="sans-serif" letter-spacing="0" word-spacing="0" fill="gray" fill-opacity="1" stroke="none" stroke-width="1" stroke-linecap="butt" stroke-linejoin="miter" stroke-opacity="1"><flowRegion><path d="M191.43-130h30v52.857h-30z"/></flowRegion><flowPara>d</flowPara></flowRoot><text style="line-height:125%" x="234.286" y="-41.923" font-weight="400" font-size="40" font-family="sans-serif" letter-spacing="0" word-spacing="0" fill="gray"><tspan x="234.286" y="-41.923">e</tspan></text><text style="line-height:125%" x="281.429" y="-41.923" font-weight="400" font-size="40" font-family="sans-serif" letter-spacing="0" word-spacing="0" fill="gray"><tspan x="281.429" y="-41.923">f</tspan></text><text style="line-height:125%" x="334.286" y="-44.781" font-weight="400" font-size="40" font-family="sans-serif" letter-spacing="0" word-spacing="0" fill="gray"><tspan x="334.286" y="-44.781">g</tspan></text><text style="line-height:125%" x="412.857" y="-37.638" font-weight="400" font-size="40" font-family="sans-serif" letter-spacing="0" word-spacing="0" fill="gray"><tspan x="412.857" y="-37.638">h</tspan></text><text style="line-height:125%" x="497.143" y="-44.781" font-weight="400" font-size="40" font-family="sans-serif" letter-spacing="0" word-spacing="0" fill="gray"><tspan x="497.143" y="-44.781">i</tspan></text><text style="line-height:125%" x="557.143" y="-47.638" font-weight="400" font-size="40" font-family="sans-serif" letter-spacing="0" word-spacing="0" fill="gray"><tspan x="557.143" y="-47.638">j</tspan></text><text style="line-height:125%" x="608.571" y="-43.352" font-weight="400" font-size="40" font-family="sans-serif" letter-spacing="0" word-spacing="0" fill="gray"><tspan x="608.571" y="-43.352">k</tspan></text><text style="line-height:125%" x="680" y="-44.781" font-weight="400" font-size="40" font-family="sans-serif" letter-spacing="0" word-spacing="0" fill="gray"><tspan x="680" y="-44.781">l</tspan></text><text style="line-height:125%" x="724.286" y="-46.209" font-weight="400" font-size="40" font-family="sans-serif" letter-spacing="0" word-spacing="0" fill="gray"><tspan x="724.286" y="-46.209">m</tspan></text><text style="line-height:125%" x="794.286" y="-47.638" font-weight="400" font-size="40" font-family="sans-serif" letter-spacing="0" word-spacing="0" fill="gray"><tspan x="794.286" y="-47.638">n</tspan></text><text style="line-height:125%" x="864.286" y="-49.066" font-weight="400" font-size="40" font-family="sans-serif" letter-spacing="0" word-spacing="0" fill="gray"><tspan x="864.286" y="-49.066">o</tspan></text><text style="line-height:125%" x="935.714" y="-50.495" font-weight="400" font-size="40" font-family="sans-serif" letter-spacing="0" word-spacing="0" fill="gray"><tspan x="935.714" y="-50.495">p</tspan></text><text style="line-height:125%" x="-121.429" y="86.648" font-weight="400" font-size="40" font-family="sans-serif" letter-spacing="0" word-spacing="0" fill="gray"><tspan x="-121.429" y="86.648">q</tspan></text><text style="line-height:125%" x="-118.571" y="143.791" font-weight="400" font-size="40" font-family="sans-serif" letter-spacing="0" word-spacing="0" fill="gray"><tspan x="-118.571" y="143.791">r</tspan></text><text style="line-height:125%" x="-118.571" y="198.077" font-weight="400" font-size="40" font-family="sans-serif" letter-spacing="0" word-spacing="0" fill="gray"><tspan x="-118.571" y="198.077">s</tspan></text><text style="line-height:125%" x="-118.571" y="270.934" font-weight="400" font-size="40" font-family="sans-serif" letter-spacing="0" word-spacing="0" fill="gray"><tspan x="-118.571" y="270.934">t</tspan></text><path d="M202.29 19.802l-12.648-11.92 12.65-11.846c9.526-8.92 13.048-11.517 14.27-10.516 1.247 1.02-.95 3.776-9.486 11.887l-11.11 10.557 11.182 10.507c8.834 8.3 10.826 10.796 9.487 11.88-1.313 1.064-4.546-1.313-14.344-10.548zM235.258 29.485c-1.18-1.18 1.1-4.008 9.875-12.253l11.41-10.72L245.2-4.27c-8.49-8.07-10.97-11.15-9.86-12.258 1.107-1.108 4.69 1.484 14.26 10.314 7.03 6.486 12.78 12.17 12.78 12.63 0 .458-5.757 6.18-12.794 12.717-9.84 9.14-13.15 11.53-14.328 10.35z" fill="#0e0e0e"/><path d="M557.68 26.425c-.336-.335-.61-1.387-.61-2.336 0-2.624-6.01-4.905-8.877-3.37-1.83.98-2.403.924-3.683-.356-1.28-1.28-1.336-1.854-.356-3.683 1.622-3.03-.672-8.6-3.72-9.03-1.526-.217-2.218-.99-2.416-2.698-.23-1.99.16-2.482 2.31-2.913 1.948-.39 2.89-1.35 3.805-3.88.884-2.444.94-3.634.207-4.368-2.92-2.922.582-6.937 4.064-4.656 1.707 1.118 2.42 1.104 5.32-.106 2.58-1.078 3.346-1.92 3.346-3.676 0-1.898.44-2.277 2.633-2.277 2.14 0 2.727.47 3.137 2.52.7 3.504 5.306 5.282 8.887 3.43 2.257-1.167 2.675-1.133 3.987.317 1.325 1.464 1.33 1.815.055 3.636-2.098 2.993-.035 8.345 3.487 9.05 2.07.414 2.54.996 2.54 3.14 0 2.195-.38 2.634-2.277 2.634-1.756 0-2.598.767-3.676 3.347-1.23 2.944-1.237 3.594-.062 5.388 1.123 1.714 1.14 2.31.113 3.714-1.06 1.45-1.558 1.522-3.71.542-3.69-1.682-8.658.287-9.34 3.702-.372 1.856-1.054 2.54-2.532 2.54-1.112 0-2.297-.275-2.633-.61zm3.807-2.922c.408-2.778 7.807-6.345 9.775-4.712.744.62 2.02.868 2.838.555 1.316-.506 1.334-.802.16-2.62-1.175-1.817-1.14-2.473.305-5.716 1.036-2.328 2.4-3.846 3.74-4.162 3.06-.723 3.37-3.623.388-3.623-1.846 0-2.68-.798-4.076-3.893-1.572-3.49-1.614-4.115-.407-6.05 1.82-2.917.265-4.543-2.495-2.61-1.806 1.265-2.355 1.236-5.8-.307-2.445-1.093-3.987-2.458-4.307-3.81-.645-2.72-2.936-2.72-3.58 0-.32 1.342-1.853 2.712-4.226 3.774-3.18 1.422-3.974 1.484-5.42.427-2.61-1.908-4.523.033-2.73 2.77 1.196 1.824 1.145 2.438-.48 5.804-1.21 2.503-2.513 3.863-3.89 4.06-2.82.4-2.65 2.97.22 3.312 3.316.394 6.09 6.922 4.18 9.84-1.828 2.79-.14 4.478 2.65 2.65 1.766-1.157 2.464-1.123 5.82.288 2.734 1.15 3.818 2.144 3.824 3.51.018 3.69 2.98 4.122 3.51.513zm-7.382-8.89c-4.84-2.627-6.677-9.69-3.91-15.042 2.032-3.926 4.873-5.504 9.918-5.504 3.858 0 4.89.424 7.58 3.114 2.69 2.69 3.114 3.722 3.114 7.58 0 2.566-.608 5.336-1.43 6.508-3.143 4.49-10.282 6.052-15.272 3.345zm11-1.318c5.708-3.48 6.47-10.403 1.672-15.2-4.796-4.795-11.72-4.034-15.198 1.672-2.19 3.59-2.314 6.29-.452 9.89 2.706 5.232 8.773 6.81 13.978 3.638z" fill="#1d1d1d"/><path d="M804.706 16.634c0-6.87-1.27-9.835-4.214-9.835a4.227 4.227 0 0 1-4.215-4.216 4.227 4.227 0 0 1 4.215-4.215c2.572 0 4.214-2.62 4.214-6.725 0-6.503 4.613-10.135 12.875-10.135 2.192 0 3.986 1.897 3.986 4.215a4.227 4.227 0 0 1-4.215 4.215 4.227 4.227 0 0 0-4.214 4.215 4.227 4.227 0 0 0 4.215 4.214c2.32 0 4.216 1.304 4.216 2.898 0 1.593-1.897 3.625-4.215 4.515-2.6.998-4.214 5.27-4.214 11.15 0 6.603-1.296 9.535-4.215 9.535-2.943 0-4.214-2.966-4.214-9.834z" fill="#181818"/><path d="M596.78 8.776l.225-20.336h41.093l.225 20.336.224 20.336H596.557l.225-20.336zm9.03 17.4l1.97-2.096-1.97-2.096c-1.083-1.153-2.35-2.097-2.817-2.097-1.807 0-4.73 3.718-4.73 6.017 0 2.125.288 2.37 2.79 2.37 1.89 0 3.422-.676 4.758-2.097zm14.51-4.444l6.502-6.54-2.15-2.02-2.15-2.02-8.56 8.56-8.56 8.56h4.207c4.135 0 4.318-.11 10.71-6.54zm5.957 5.83c.242-.39-.606-1.71-1.883-2.934l-2.322-2.224-2.844 2.935-2.845 2.933h4.728c2.6 0 4.926-.32 5.167-.71zm10.562-3.482c0-2.306-.27-4.193-.598-4.193-.826 0-7.79 6.904-7.79 7.722 0 .365 1.888.663 4.194.663h4.193V24.08zm0-11.692v-4.62l-6.697 6.656-6.696 6.656 2.253 2.352 2.254 2.352 4.442-4.387c4.297-4.243 4.443-4.54 4.443-9.01zm-16.38-.86L631.31.652l-2.01-2.14c-1.104-1.175-2.288-2.036-2.63-1.912-.34.124-5.568 5.09-11.616 11.034l-10.996 10.808 1.86 1.98c1.025 1.09 2.274 1.98 2.776 1.98.503 0 5.798-4.893 11.766-10.874zm-6.235-9.64c-1.1-1.17-2.35-2.127-2.78-2.127-.43 0-3.572 2.706-6.982 6.013l-6.2 6.012v10.188l8.98-8.98 8.98-8.98-1.998-2.126zm18.602 8.177c3.83-3.772 4.012-4.162 4.012-8.59V-3.16L630.375 3.3l-6.463 6.464 1.997 2.125c1.098 1.17 2.2 2.127 2.45 2.127s2.26-1.778 4.467-3.952zM601.88 2.113C600.64.82 599.32-.24 598.945-.24s-.682 2.34-.682 5.197v5.196l2.935-2.844 2.935-2.846-2.253-2.35zm10.162-5.584c3.49-3.392 6.348-6.317 6.348-6.5 0-.183-2-.332-4.445-.332-4.163 0-4.752.273-9.275 4.304l-4.83 4.305 2.317 2.417c1.273 1.33 2.59 2.318 2.927 2.195.336-.124 3.467-3 6.958-6.39zm14.026-6.67c-4.544-.25-4.65-.203-9.064 4.157l-4.468 4.412L614.75.74l2.216 2.312 6.85-6.468 6.85-6.467-4.598-.256zm8.83 7.24c2.686-2.525 2.748-7.402.094-7.402-1.016 0-3.09 1.204-4.608 2.676l-2.76 2.676 1.818 1.936c2.253 2.398 3.007 2.414 5.456.113zm-32.022-3.21l4.13-4.192h-8.742v4.193c0 2.307.108 4.194.24 4.194.133 0 2.1-1.887 4.372-4.193z" fill="#232323"/><path d="M731.33 20.128c-2.563-3.088-2.5-4.255.392-7.146 3.07-3.07 3.434-2.865 3.26 1.845-.14 3.82 1.258 5.506 5.003 6.038 6.95.987 9.46-5.685 3.737-9.93-3.727-2.765-3.91-3.883-1.332-8.103 3.566-5.837 1.596-13.83-3.41-13.83-2.655 0-3.302 1.78-2.54 6.98 1.082 7.363-3.316 8.634-4.725 1.365-1.13-5.82 3.907-10.65 11.107-10.65 5.33 0 6.22.88 5.7 5.632-.34 3.097-1.36 6.827-2.262 8.288-.903 1.462-.27 5.22 1.405 8.35 2.204 4.12 2.375 6.77.616 9.58-3.273 5.23-13.156 6.15-16.95 1.58zm26.15-13.782c-1.8-1.927-1.614-3.876.663-6.99 2.647-3.62 3.157-3.72 3.157-.61 0 2.037.936 4.05 2.08 4.474 1.142.423.844 1.9-.663 3.283-1.983 1.82-3.43 1.776-5.236-.157z" fill="#2d2d2d"/><path d="M857.956 22.133c-.844-2.2-1.147-12.228-.673-22.283l.862-18.283H901.03V24.452l-20.77.84c-15.746.64-21.14-.126-22.304-3.16zm38.67-12.69l-.113-10.722-4.088 7.524c-7.293 13.422-18.382 13.422-25.675 0l-4.088-7.523-.114 10.722-.114 10.722h34.308l-.115-10.722zm-11.202-2.288c3.04-3.66 2.85-5.26-1.08-9.19-4.437-4.437-5.077-4.437-9.514 0-3.93 3.93-4.118 5.53-1.08 9.19 4.628 5.576 7.047 5.576 11.674 0zm11.317-17.01a4.3 4.3 0 0 0-4.287-4.29c-4.465 0-5.672 3.382-2.383 6.672 3.29 3.29 6.67 2.082 6.67-2.383z" fill="#0e0e0e"/><path d="M-58.92 144.26c5.212-5.77 5.347-6.443 1.703-8.483-5.5-3.077-5.215-14.776.432-17.798 2.415-1.294 10.587-2.35 18.16-2.35h13.768v11.498c0 12.047-2.94 20.28-7.24 20.28-1.434 0-.904-1.81 1.214-4.152 2.367-2.615 3.756-8.073 3.756-14.754V117.9h-13.165c-14.206 0-18.613 2.515-18.613 10.624 0 3.63 1.696 5.603 5.674 6.602 3.12.783 5.674 2.795 5.674 4.47 0 1.675 1.788 4.087 3.973 5.36 2.184 1.272 3.03 2.344 1.88 2.382-1.15.038-3.8-1.478-5.89-3.37-3.42-3.094-4.466-2.936-10.394 1.56l-6.593 5.002 5.66-6.27zm13.67-15.58c.025-3.762.552-4.29 2-2 1.083 1.707 3.366 3.99 5.073 5.07 2.288 1.45 1.76 1.978-2.002 2.003-3.802.026-5.097-1.27-5.07-5.072zm4.504-2.458c0-3.935 6.266-3.935 7.776 0 .725 1.89-.516 3.026-3.307 3.026-2.458 0-4.47-1.362-4.47-3.026z" fill="#262626"/><path d="M139.178 18.904c6.66-6.662 24.183-8.73 28.624-3.38 1.686 2.032 4.258 3.693 5.718 3.693s.205-2.605-2.786-5.79l-5.44-5.788 5.56-5.56c3.058-3.06 4.37-5.56 2.917-5.56-1.452 0-5.307 2.836-8.565 6.304-3.258 3.468-7.144 6.288-8.636 6.268-1.493-.02-7.254-3.95-12.802-8.733L133.68-8.337l21.787-.094 21.788-.095V24.26H133.82l5.358-5.356zm-6.76-11.12V-3.823l7.67 5.462c8.146 5.8 7.365 9.71-3.048 15.284-4.17 2.23-4.62 1.337-4.62-9.137z" fill="#080808"/><path d="M40.502-9.756c-1.314.01-3.22.12-5.72.332-10.604.9-13.148 1.503-12.28 2.906.93 1.507 6.892 1.256 13.797-.582 6.744-1.795 8.143-2.683 4.202-2.656zm-26.008 2.49c-2.894.095-5.762 1.743-7.21 5.24-1.7 4.103-.128 8.98 3.487 10.825 3.837 1.956 5.906 1.753 9.29-.908 2.257-1.776 2.952-3.317 2.952-6.55 0-5.566-4.287-8.746-8.518-8.608zm31.768.733c-1.286.09-3.62.636-6.996 1.634L33.66-3.24l6.08-.528c3.344-.29 6.596-1.045 7.23-1.677.814-.816.577-1.178-.708-1.086zM14.494-5.477c7.186 0 10.035 7.85 4.443 12.248-3.826 3.01-5.51 2.93-8.867-.426-4.894-4.894-2.3-11.82 4.424-11.82zm12.908 2.38a3.08 3.08 0 0 0-1.238.218c-.894.36-.628.623.678.677 1.18.048 1.843-.216 1.47-.588-.186-.187-.52-.29-.91-.306zm-12.92.423c-2.537 0-3.32.565-3.61 2.603-.202 1.43-.077 3.356.276 4.277.86 2.238 6.225 1.555 7.823-.996 1.802-2.876-.493-5.884-4.488-5.884zm34.065.256c-.144.003-.29.015-.436.035-1.79.246-20.617 2.43-21.456 2.49-.154.01-.28.777-.28 1.7 0 1.194 1.22 1.69 4.204 1.7 6.09.02 20.58-3.583 20.078-4.992-.204-.573-1.105-.954-2.11-.933zm-33.926.832c.896-.032 1.85.295 2.61 1.057 1.37 1.37 1.41 1.975.225 3.403-2.463 2.967-5.652 2.013-5.652-1.692 0-1.668 1.327-2.713 2.818-2.766zM49.44 2.79c-.738-.066-3.136.443-5.788 1.247-3.03.92-8.347 1.678-11.816 1.684-4.34.01-6.76.56-7.762 1.764-1.263 1.522-1.097 1.675 1.264 1.166 1.495-.322 7.4-1.184 13.12-1.916C47.72 5.55 51.157 4.36 49.65 2.854c-.033-.034-.105-.056-.21-.065zm3.275 6.347l-7.846.53c-4.316.293-9.233.537-10.93.542-1.694.003-3.083.51-3.083 1.128 0 1.646 12.152 1.207 17.375-.627l4.483-1.573zm-48.1 1.078c-5.662 0-10.258 7.444-7.414 12.007 1.02 1.636 1.122 1.34.558-1.607C-2.8 17.7-2.386 16.455-.1 14.17c3.414-3.414 6.64-3.612 9.66-.592 4.682 4.682 1.91 11.623-5.042 12.63-3.09.445-3.025.5.777.653 4.912.2 7.63-2.793 7.63-8.405 0-4.05-4.225-8.24-8.31-8.24zm19.78 1.066c-1.934.07-4.826 1.155-6.48 2.808C13.45 18.554 14.48 24.8 20.21 28.004c5.15 2.88 11.86-1.79 11.655-8.106l-.115-3.517-.863 3.635c-1.235 5.203-3.143 7.014-7.39 7.014-3.965 0-7.21-3.162-7.21-7.026 0-3.05 5.306-7.886 7.908-7.205 1.2.312 2.18.11 2.18-.45 0-.787-.817-1.11-1.98-1.07zm31.224.88c-1.026-.054-3.86.587-6.827 1.57l-6.166 2.043 5.605-.644c5.886-.676 9.374-1.988 7.71-2.902a.79.79 0 0 0-.323-.068zM5.8 14.834c-.312.013-.657.04-1.04.078-2.916.282-3.658.884-3.875 3.15-.265 2.762-.254 2.765.804.28 1.23-2.89 3.615-3.267 5.59-.89 1.618 1.95.69 3.775-2.596 5.1l-2.41.973 2.386.07c3.314.1 5.303-2.66 4.428-6.146-.54-2.15-1.1-2.71-3.287-2.616zm51.958.992c-.266.015-.808.162-1.68.478-1.233.45-6.085 1.21-10.783 1.692-8.732.895-11.074 1.635-11.074 3.496 0 1.948 10.176 1.078 16.046-1.37 4.63-1.933 8.644-4.36 7.492-4.296zm-34.426.064c-3.265-.093-5.314 3.608-3.684 6.655 1.548 2.89 6.277 2.936 7.81.074 1.418-2.653 1.457-3.437.17-3.437-.546 0-1.268 1.052-1.605 2.338-.812 3.107-4.575 2.396-5.052-.954-.253-1.78.404-2.823 2.243-3.56l2.6-1.043-2.48-.073zm33.043 4.454c-.576-.082-2.27.552-4.22 1.728l-2.8 1.688 2.8-.733c1.54-.403 3.28-1.18 3.866-1.728.644-.6.7-.908.355-.956zM37.21 24.787c-2.26 0-4.11.493-4.11 1.094 0 .63 1.55.798 3.642.4 5.108-.973 5.27-1.493.467-1.493z" fill="#1a1a1a"/><path d="M-50.165 272.168c-6.5-8.508-11.478-18.376-12.428-24.638-1.164-7.67 3.49-15.518 11.033-18.603 5.2-2.128 6.603-2.235 11.194-.86 6.622 1.984 10.63 5.963 12.587 12.493 1.292 4.31 1.194 6.153-.626 11.716-2.13 6.51-7.724 15.997-13.59 23.046l-3.003 3.61-5.165-6.764zm10.38-21.846c1.704-1.704 3.097-4 3.097-5.104 0-2.598-5.603-8.202-8.2-8.202-2.598 0-8.202 5.604-8.202 8.202 0 2.597 5.604 8.2 8.2 8.2 1.105 0 3.402-1.393 5.105-3.096z" fill="#050505"/><path d="M93.3 22.698C85.532 18.852 77.17 9.353 74.91 1.803c-1.536-5.122-1.372-5.982 1.77-9.327 1.904-2.026 3.86-3.684 4.348-3.684s2.134 2.316 3.66 5.147c2.32 4.31 2.453 5.53.82 7.5-1.677 2.018-1.11 3.193 4.024 8.327 5.227 5.227 6.34 5.75 8.868 4.17 2.344-1.462 3.786-1.342 7.615.638 5.74 2.968 5.864 4.218.82 8.186-4.85 3.815-5.71 3.81-13.535-.062z" fill="#0c0c0c"/><path d="M-56.032 186.432c0-11.034.274-20.06.61-20.06.334 0 7.296 4.466 15.47 9.925l14.862 9.926-6.93 4.403c-3.813 2.422-10.775 6.983-15.472 10.135l-8.54 5.733v-20.06z" fill="#030303"/><path d="M-41.22 102.086c-.623-.622-1.132-4.937-1.132-9.59V84.04l-9.29-.535c-11.982-.69-12.044-3.913-.088-4.604l9.2-.533.53-9.2c.69-11.91 3.914-11.91 4.602 0l.532 9.2 9.2.532c11.955.69 11.892 3.913-.09 4.603l-9.29.535v8.65c0 8.18-1.658 11.915-4.175 9.398z"/><path d="M268.47 19.644c0-6.734 2.92-8.407 3.803-2.18.512 3.6 1.6 3.967 13.204 4.437 12.52.51 12.647.47 12.647-3.924 0-2.44.784-4.437 1.744-4.437s1.744 2.747 1.744 6.104v6.106H268.47v-6.106zM281.787 9.29c-1.612-2.46-2.128-4.472-1.147-4.472.982 0 1.785-2.748 1.785-6.106 0-4.264.79-6.105 2.616-6.105 1.704 0 2.618 1.706 2.618 4.884 0 2.688.95 5.836 2.112 6.998 1.654 1.654 1.335 2.89-1.47 5.695l-3.582 3.582-2.93-4.474z" fill="#090909"/><path d="M319.682 33.534c-.392-.392-.713-6.11-.713-12.708 0-14.033-.455-13.526 11.853-13.2 4.485.117 8.672-.105 9.305-.497.633-.392 2.66-3.35 4.505-6.574 2.503-4.376 3.185-6.63 2.69-8.89-.818-3.72 1.3-5.803 5.408-5.315 3.752.446 6.208 6.748 5.237 13.435l-.66 4.54h8.017c4.72 0 8.318.49 8.75 1.187.402.652-.15 6.477-1.23 12.945-2.55 15.288-2.226 15.06-20.726 14.562-7.654-.208-13.915-.016-13.915.425 0 .99-17.535 1.075-18.52.09zm16.155-12.378l-.305-10.952-7.213-.316-7.214-.316V32.11h15.035l-.303-10.954zm32.276 8.296c.725-.875 1.045-2.302.71-3.172-.333-.87-.1-1.894.517-2.276.617-.382.9-1.85.63-3.265-.27-1.416-.036-2.855.52-3.198.557-.344.732-1.746.388-3.115-.344-1.37-.142-2.788.448-3.152.59-.365 1.072-1.597 1.072-2.737 0-1.883-.8-2.074-8.65-2.074H355.1l.73-5.306c.987-7.18-.935-13.106-4.105-12.654-1.87.267-2.406 1.24-2.862 5.203-.606 5.257-6.297 15.268-9.724 17.102-1.698.907-2.005 2.35-2.005 9.42 0 10.452.302 10.64 17.234 10.738 9.757.057 12.707-.268 13.743-1.516zM392.01 32.148c-1.802-.603-2.078-6.403-.304-6.403.727 0 1.22-4.66 1.22-11.542 0-10.438.24-11.67 2.533-12.897 1.393-.746 3.313-1.057 4.267-.69 1.983.76 2.34 5.1.514 6.228-.67.415-1.218 4.837-1.218 9.827v9.075h19.51V14.872c0-6.783-.5-11.04-1.333-11.318-.734-.244.123-1.224 1.903-2.177 2.57-1.374 3.722-1.43 5.585-.266 2.847 1.78 7.257 1.928 7.257.247 0-.67 2.744-1.22 6.097-1.22 5.423 0 6.097.29 6.097 2.618 0 2.52-.35 2.588-9.45 1.82-5.2-.44-9.634-1.342-9.858-2.008-.223-.666-1.488-1.21-2.81-1.21-2.29 0-2.388.76-2.033 15.547l.37 15.547H397.808l-.002-13.107c-.002-7.928.48-13.11 1.217-13.11.67 0 1.22-1.096 1.22-2.437 0-1.342-.686-2.43-1.525-2.42-3.906.047-4.497 2.074-4.838 16.594-.26 11.093-.718 14.564-1.87 14.178zm32.346-3.012l.465-4 18.806.363 18.804.364v5.978h-17.58c-9.67 0-18.343.29-19.27.647-1.28.49-1.576-.325-1.224-3.354z" fill="#111"/><path d="M667.323 29.137l-.207-5.854h-5.137c-3.64 0-4.99-.407-4.626-1.394.282-.768 2.68-7.92 5.328-15.893 4.73-14.243 4.84-14.438 6.247-11.15.787 1.84 1.454 3.97 1.482 4.738.102 2.847 2.057 1.27 2.764-2.23.403-1.994 1.392-5.13 2.198-6.97l1.466-3.346 1.64 3.903 1.638 3.903 2.51-7.528c1.383-4.14 2.933-7.527 3.446-7.527.514 0 2.064 3.388 3.445 7.528l2.51 7.528 1.64-3.903 1.64-3.904 1.465 3.345c.806 1.84 1.795 4.976 2.198 6.97.706 3.5 2.66 5.077 2.764 2.23.028-.767.695-2.9 1.482-4.74 1.406-3.286 1.515-3.09 6.246 11.152 2.65 7.974 5.046 15.125 5.328 15.892.363.985-.972 1.393-4.566 1.393h-5.08l-.41 5.854-.408 5.855-.207-5.855-.206-5.854H687.19V28.3c0 2.76-.502 5.02-1.116 5.02-.613 0-1.115-2.26-1.115-5.02v-5.017h-16.612l-.41 5.854-.41 5.855-.205-5.855zm-.028-10.594l.178-3.624.45 3.623c.596 4.805 3.142 4.652 4.772-.286 1.122-3.4.89-5.11-1.768-13.095l-3.06-9.184-3.716 11.088c-2.044 6.1-4.003 11.99-4.353 13.095-.532 1.677.018 2.007 3.34 2.007 3.71 0 3.99-.246 4.158-3.624zm17.664.452c0-1.757-.996-4.074-2.23-5.19-1.228-1.112-2.232-2.522-2.232-3.135s1.004-.207 2.23.903c2.186 1.978 2.23 1.948 2.23-1.5 0-1.935.503-3.518 1.116-3.518.614 0 1.115 1.583 1.115 3.518 0 3.448.044 3.478 2.23 1.5 1.227-1.11 2.23-1.516 2.23-.903s-1.003 2.023-2.23 3.134c-1.235 1.117-2.23 3.434-2.23 5.19 0 3.065.19 3.173 5.575 3.173 3.637 0 5.576-.472 5.576-1.357 0-2.073-11.57-36.558-12.266-36.558-.695 0-12.267 34.485-12.267 36.558 0 .885 1.94 1.357 5.576 1.357 5.385 0 5.576-.11 5.576-3.172zm19.136-.452l.178-3.624.45 3.623c.41 3.314.784 3.624 4.357 3.624 3.256 0 3.802-.335 3.272-2.006-.35-1.103-2.31-6.995-4.354-13.094L704.28-4.022l-3.058 9.184c-2.66 7.984-2.89 9.695-1.768 13.095 1.654 5.01 4.4 5.18 4.642.286zm-26.798-14.95c1.466-4.74 1.65-6.93.765-9.16-1.13-2.853-1.22-2.767-3.317 3.2-1.385 3.946-1.912 7.468-1.474 9.872.85 4.673 1.594 3.95 4.026-3.91zm20.19-5.57c-2.178-6.38-2.252-6.458-3.426-3.512-.916 2.3-.793 4.277.52 8.365 2.887 8.987 2.874 8.97 4.046 5.184.845-2.73.59-4.972-1.14-10.037zm-21.146 31.95c0-2.76.217-3.89.483-2.51.266 1.382.266 3.64 0 5.02-.266 1.38-.483.25-.483-2.51zm18.957 0c0-2.76.217-3.89.483-2.51.266 1.382.266 3.64 0 5.02-.266 1.38-.484.25-.484-2.51z" fill="#1a1a1a"/><path d="M929.424 20.66c0-1.654 1.52-3.008 3.377-3.008 2.313 0 2.18-1.443-.42-4.577-2.09-2.517-4.33-9.394-4.98-15.28-1.164-10.57-1.094-10.646 5.605-5.954 8.382 5.872 14.47 6.108 14.47.56 0-5.335 8.153-8.524 15.684-6.134 3.595 1.14 5.154 3.555 4.088 6.33-.947 2.47-1.722 6.513-1.722 8.987 0 8.203-16.874 22.086-26.845 22.086-5.09 0-9.256-1.355-9.256-3.01z" fill="#0c0c0c"/><path d="M488.473 28.263c-5.63-3.793-8.575-8.903-7.937-13.77.548-4.18 13.727-32.332 16.032-34.245.93-.772 2.8 1.56 7.074 8.822 12.19 20.71 14.14 27.283 10.083 33.94-4.49 7.36-17.964 10.165-25.252 5.253zm17.485-1.413c4.585-2.175 7.73-6.605 7.73-10.888 0-3.26-10.32-24.7-14.556-30.24l-1.92-2.514-3.85 6.882c-7.024 12.56-11.346 23.68-10.648 27.396.617 3.288 4.26 7.528 8.46 9.845 3.094 1.708 10.693 1.46 14.784-.48zM511.802.067c-.69-.69-1.256-2.328-1.256-3.637 0-3.124 4.27-11.86 5.797-11.86 1.19 0 6.77 10.018 6.77 12.156 0 3.647-8.495 6.156-11.31 3.34zm8.102-2.33c.973-1.17.744-2.457-1.07-6.01l-2.305-4.52-2.1 4.33c-1.153 2.384-1.807 5.09-1.453 6.013.8 2.08 5.256 2.202 6.927.188z" fill="#161616"/></g></svg>