<svg xmlns="http://www.w3.org/2000/svg" xmlns:xlink="http://www.w3.org/1999/xlink" preserveAspectRatio="xMidYMid" width="91" height="107" viewBox="0 0 91 107">
  <defs>
    <style>
      .cls-1 {
        fill: #fff;
        filter: url(#drop-shadow-1);
        fill-rule: evenodd;
      }
    </style>

    <filter id="drop-shadow-1" filterUnits="userSpaceOnUse">
      <feOffset in="SourceAlpha"/>
      <feGaussianBlur stdDeviation="5.477" result="dropBlur"/>
      <feFlood flood-opacity="0.2"/>
      <feComposite operator="in" in2="dropBlur" result="dropShadowComp"/>
      <feComposite in="SourceGraphic" result="shadowed"/>
    </filter>
  </defs>
  <path d="M57.500,57.500 C59.709,57.500 61.500,59.291 61.500,61.500 L61.500,73.500 C61.500,75.709 59.709,77.500 57.500,77.500 L29.500,77.500 L29.500,69.500 L53.500,69.500 L53.500,65.500 L33.500,65.500 C31.291,65.500 29.500,63.709 29.500,61.500 L29.500,49.500 C29.500,47.291 31.291,45.500 33.500,45.500 L61.500,45.500 L61.500,53.500 L37.500,53.500 L37.500,57.500 L57.500,57.500 ZM57.500,41.500 L33.500,41.500 C31.291,41.500 29.500,39.709 29.500,37.500 L29.500,33.500 L29.500,29.500 L35.500,29.500 L37.500,33.500 L39.500,33.500 L41.500,29.500 L49.500,29.500 L51.500,33.500 L53.500,33.500 L55.500,29.500 L61.500,29.500 L61.500,33.500 L61.500,37.500 C61.500,39.709 59.709,41.500 57.500,41.500 Z" class="cls-1"/>
</svg>
