<svg xmlns="http://www.w3.org/2000/svg" xmlns:xlink="http://www.w3.org/1999/xlink" preserveAspectRatio="xMidYMid" width="40" height="40" viewBox="0 0 40 40">
  <defs>
    <style>
      .cls-1 {
        fill: #ff7373;
        fill-rule: evenodd;
      }
    </style>
  </defs>
  <path d="M22.000,40.000 L22.000,20.000 L40.000,20.000 L40.000,40.000 L22.000,40.000 ZM-0.000,8.000 L4.369,8.000 C4.145,7.371 4.000,6.705 4.000,6.000 C4.000,2.692 6.691,0.000 10.000,0.000 L14.000,0.000 C17.309,0.000 20.000,2.692 20.000,6.000 C20.000,2.692 22.691,0.000 26.000,0.000 L30.000,0.000 C33.309,0.000 36.000,2.692 36.000,6.000 C36.000,6.705 35.855,7.371 35.631,8.000 L40.000,8.000 L40.000,16.000 L-0.000,16.000 L-0.000,8.000 ZM24.000,8.000 L30.000,8.000 C31.103,8.000 32.000,7.103 32.000,6.000 C32.000,4.898 31.103,4.000 30.000,4.000 L26.000,4.000 C24.896,4.000 24.000,4.898 24.000,6.000 L24.000,8.000 ZM10.000,8.000 L16.000,8.000 L16.000,6.000 C16.000,4.898 15.103,4.000 14.000,4.000 L10.000,4.000 C8.896,4.000 8.000,4.898 8.000,6.000 C8.000,7.103 8.896,8.000 10.000,8.000 ZM18.000,40.000 L-0.000,40.000 L-0.000,20.000 L18.000,20.000 L18.000,40.000 Z" class="cls-1"/>
</svg>
