<svg xmlns="http://www.w3.org/2000/svg" xmlns:xlink="http://www.w3.org/1999/xlink" preserveAspectRatio="xMidYMid" width="20" height="20" viewBox="0 0 20 20">
  <defs>
    <style>
      .cls-1 {
        fill: #fff;
        fill-rule: evenodd;
      }
    </style>
  </defs>
  <path d="M0.000,20.000 L3.000,10.998 L4.238,10.998 C4.617,11.675 5.031,12.347 5.459,12.998 L4.442,12.998 L2.775,17.999 L17.225,17.999 L15.558,12.998 L14.544,12.998 C14.972,12.348 15.388,11.675 15.768,10.998 L17.000,10.998 L20.000,20.000 L0.000,20.000 ZM10.005,16.593 L9.215,15.623 C8.685,14.953 4.005,9.022 4.005,6.001 C4.005,2.691 6.695,0.000 10.005,0.000 C13.305,0.000 16.005,2.691 16.005,6.001 C16.005,9.022 11.315,14.953 10.785,15.623 L10.005,16.593 ZM9.995,5.001 C9.445,5.001 8.995,5.441 8.995,6.001 C8.995,6.552 9.445,7.001 9.995,7.001 C10.555,7.001 10.995,6.552 10.995,6.001 C10.995,5.441 10.555,5.001 9.995,5.001 Z" class="cls-1"/>
</svg>
