<svg xmlns="http://www.w3.org/2000/svg" xmlns:xlink="http://www.w3.org/1999/xlink" preserveAspectRatio="xMidYMid" width="19.781" height="20" viewBox="0 0 19.781 20">
  <defs>
    <style>
      .cls-1 {
        fill: #fff;
        fill-rule: evenodd;
      }
    </style>
  </defs>
  <path d="M10.894,19.000 L10.894,17.000 C14.711,17.000 17.816,13.860 17.816,10.000 C17.816,6.140 14.711,3.000 10.894,3.000 L10.894,1.000 C15.801,1.000 19.794,5.038 19.794,10.000 C19.794,14.962 15.801,19.000 10.894,19.000 ZM6.938,20.000 L5.486,20.000 C3.185,20.000 1.154,18.351 0.658,16.079 C-0.228,12.027 -0.220,7.841 0.658,3.883 C1.158,1.633 3.185,0.000 5.478,0.000 L6.938,0.000 C8.029,0.000 8.916,0.897 8.916,2.000 L8.916,5.000 C8.916,6.103 8.029,7.000 6.938,7.000 L5.949,7.000 L5.949,13.000 L6.938,13.000 C8.029,13.000 8.916,13.897 8.916,15.000 L8.916,18.000 C8.916,19.103 8.029,20.000 6.938,20.000 ZM15.839,10.000 C15.839,12.757 13.620,15.000 10.894,15.000 L10.894,13.000 C12.530,13.000 13.861,11.654 13.861,10.000 C13.861,8.346 12.530,7.000 10.894,7.000 L10.894,5.000 C13.620,5.000 15.839,7.243 15.839,10.000 Z" class="cls-1"/>
</svg>
