<?xml version="1.0" standalone="no"?>
<!DOCTYPE svg PUBLIC "-//W3C//DTD SVG 1.1//EN" "http://www.w3.org/Graphics/SVG/1.1/DTD/svg11.dtd" >
<svg xmlns="http://www.w3.org/2000/svg" xmlns:xlink="http://www.w3.org/1999/xlink" version="1.1">
<metadata>
Created by FontForge 20150715 at Tue Dec 22 18:35:48 2015
 By Jimmy Wärting
Copyright (C) 1994; TypeMarket Ltd. Moscow, 119136, Box 20; phone:(095)2071022; Created by S.Shanovich
</metadata>
<defs>
<font id="Opium" horiz-adv-x="582" >
  <font-face 
    font-family="Opium"
    font-weight="400"
    font-stretch="normal"
    units-per-em="1000"
    panose-1="0 0 0 0 0 0 0 0 0 0"
    ascent="800"
    descent="-200"
    x-height="500"
    cap-height="725"
    bbox="-57 -294 1164 929"
    underline-thickness="47"
    underline-position="-159"
    unicode-range="U+0020-2122"
  />
<missing-glyph horiz-adv-x="706" 
d="M44 0v706h618v-706h-618zM618 44v618h-530v-618h530z" />
    <glyph glyph-name=".notdef" horiz-adv-x="706" 
d="M44 0v706h618v-706h-618zM618 44v618h-530v-618h530z" />
    <glyph glyph-name=".null" horiz-adv-x="0" 
 />
    <glyph glyph-name="nonmarkingreturn" horiz-adv-x="274" 
 />
    <glyph glyph-name="space" unicode=" " horiz-adv-x="274" 
 />
    <glyph glyph-name="exclam" unicode="!" horiz-adv-x="348" 
d="M116 50q0 25 17 42t42 17q24 0 41 -17t17 -42q0 -24 -17 -41t-41 -17q-25 0 -42 16t-17 42zM184 176h-21l-38 462l-2 44q0 56 50 56q51 0 51 -56l-3 -57z" />
    <glyph glyph-name="quotedbl" unicode="&#x22;" horiz-adv-x="294" 
d="M103 742v-286h-52v286h52zM244 742v-286h-52v286h52z" />
    <glyph glyph-name="numbersign" unicode="#" horiz-adv-x="815" 
d="M475 752l-87 -250h137l89 250h65l-88 -250h164l-19 -55h-165l-51 -144h176l-19 -55h-176l-88 -248h-66l89 248h-139l-89 -248h-66l88 248h-170l21 55h168l52 144h-182l18 55h183l89 250h66zM505 447h-138l-50 -144h138z" />
    <glyph glyph-name="dollar" unicode="$" horiz-adv-x="581" 
d="M264 -107l2 82v25q-106 0 -187 50q18 40 29 83q65 -93 156 -93l3 288q-98 24 -142 66t-44 113t48 120t133 61v20l-2 56q6 -3 21 -3l25 3l-2 -72q91 0 158 -46q-24 -33 -41 -67q-26 69 -117 78v-256l24 -5q174 -39 174 -183q0 -82 -50.5 -137.5t-143.5 -72.5v-26l2 -84
q-14 4 -23 4q-5 0 -12 -1.5t-11 -2.5zM267 412v242q-52 0 -85.5 -34.5t-33.5 -82.5q0 -91 119 -125zM304 43q56 7 89 45t33 97q0 54 -27.5 83.5t-94.5 50.5v-276z" />
    <glyph glyph-name="percent" unicode="%" horiz-adv-x="815" 
d="M201 689q69 0 114 -47t45 -124q0 -82 -47 -128t-123 -46q-69 0 -111 47t-42 126q0 75 46.5 123.5t117.5 48.5zM185 -99h-49l497 886h47zM622 339q69 0 114 -47t45 -124q0 -82 -47 -128t-123 -46q-69 0 -111 47t-42 126q0 75 46.5 123.5t117.5 48.5zM200 657
q-40 0 -62.5 -36.5t-22.5 -100.5q0 -77 20 -110.5t65 -33.5q82 0 82 136q0 77 -18.5 111t-63.5 34zM621 307q-40 0 -62.5 -36.5t-22.5 -100.5q0 -77 20 -110.5t65 -33.5q82 0 82 136q0 77 -18.5 111t-63.5 34z" />
    <glyph glyph-name="ampersand" unicode="&#x26;" horiz-adv-x="754" 
d="M478 120q-49 59 -97 120q-60 76 -102 132q-63 -36 -92.5 -79.5t-29.5 -100.5q0 -67 44.5 -113.5t110.5 -46.5q50 0 93 23t73 65zM569 0q-33 50 -70 91q-96 -105 -229 -105q-90 0 -143.5 48.5t-53.5 128.5q0 73 45 127t143 107q-72 87 -72 167q0 74 44 118t119 44
q62 0 98.5 -32.5t36.5 -89.5q0 -45 -36 -95.5t-103 -91.5q88 -124 188 -231q32 42 62 97t53 114l43 -41q-34 -56 -65.5 -101.5t-71.5 -94.5q60 -72 94 -109q24 -26 51 -51q-27 4 -67 4h-30t-36 -4zM331 441q102 74 102 160q0 43 -22 69t-59 26q-43 0 -68.5 -27.5
t-25.5 -74.5q0 -66 73 -153z" />
    <glyph glyph-name="quotesingle" unicode="'" horiz-adv-x="152" 
d="M103 742v-286h-52v286h52z" />
    <glyph glyph-name="parenleft" unicode="(" horiz-adv-x="291" 
d="M236 -135q-85 90 -125 196.5t-40 238.5q0 260 164 436l22 -19q-65 -88 -92.5 -186t-27.5 -227q0 -137 28 -237.5t91 -176.5z" />
    <glyph glyph-name="parenright" unicode=")" horiz-adv-x="291" 
d="M56 738q83 -87 125 -193t42 -233q0 -136 -41 -245.5t-124 -199.5l-22 19q64 85 92.5 184.5t28.5 228.5q0 137 -28 235.5t-93 178.5z" />
    <glyph glyph-name="asterisk" unicode="*" horiz-adv-x="524" 
d="M276 525q0 -41 7 -85q4 -24 16 -77q-16 4 -36 4q-18 0 -34 -4q9 52 13 86.5t4 75.5q-70 -48 -127 -99q-12 33 -34 58q39 17 74.5 32.5t72.5 34.5q-37 18 -76.5 34t-73.5 26q20 24 35 61l130 -96q0 39 -5 74.5t-17 87.5q16 -4 34 -4q19 0 34 4q-7 -50 -11 -86.5t-4 -75.5
q36 25 65.5 47.5t61.5 52.5q12 -29 34 -59q-34 -13 -75 -32q-32 -15 -72 -35q74 -33 150 -60q-23 -28 -35 -60z" />
    <glyph glyph-name="plus" unicode="+" horiz-adv-x="883" 
d="M467 632v-291h285v-50h-285v-291h-50v291h-286v50h286v291h50z" />
    <glyph glyph-name="comma" unicode="," horiz-adv-x="290" 
d="M63 -192l-17 8l75 253q15 49 48 49q39 0 39 -40q0 -17 -13 -41z" />
    <glyph glyph-name="hyphen" unicode="-" horiz-adv-x="883" 
d="M131 341h621v-50h-621v50z" />
    <glyph glyph-name="period" unicode="." horiz-adv-x="290" 
d="M86 49q0 25 17 42t42 17q24 0 41 -17t17 -42q0 -24 -17 -41t-41 -17q-25 0 -42 16t-17 42z" />
    <glyph glyph-name="slash" unicode="/" horiz-adv-x="298" 
d="M-23 -98l291 893h47l-291 -893h-47z" />
    <glyph glyph-name="zero" unicode="0" horiz-adv-x="581" 
d="M132 347q0 -170 36 -248.5t123 -78.5q91 0 126 83q32 75 32 257q0 161 -37.5 237.5t-120.5 76.5q-87 0 -123 -78t-36 -249zM43 346q0 362 247 362q248 0 248 -362q0 -178 -63 -269t-185 -91q-247 0 -247 360z" />
    <glyph glyph-name="one" unicode="1" 
d="M264 0q0 95 3.5 231.5t3.5 145.5q0 57 -1 129t-2 134l-161 -94q-8 18 -15 28t-19 21q65 24 135 57q56 26 154 77q0 -25 -3.5 -158.5t-3.5 -247.5q0 -10 5 -204q2 -77 2 -119q-10 2 -25 3t-28 1h-19t-26 -4z" />
    <glyph glyph-name="two" unicode="2" 
d="M50 0v18q122 120 183 188q82 92 116 156q40 76 40 150q0 73 -33.5 114.5t-90.5 41.5q-98 0 -136 -125q-21 34 -42 59q70 106 196 106q94 0 146.5 -51.5t52.5 -141.5q0 -51 -20 -96.5t-63 -95.5q-17 -20 -58 -62.5t-80 -83.5q-46 -48 -97 -105l104 -2q117 0 221 10l-2 -32
l3 -48q-35 0 -122.5 2t-95.5 2q-39 0 -117 -2t-105 -2z" />
    <glyph glyph-name="three" unicode="3" 
d="M130 578q-22 36 -42 59q35 34 79 52.5t96 18.5q87 0 137.5 -45.5t50.5 -123.5q0 -116 -147 -172q91 0 136.5 -43.5t45.5 -124.5q0 -96 -70.5 -154.5t-188.5 -58.5q-99 0 -161 36q6 19 11 42t5 43q22 -39 61.5 -61.5t89.5 -22.5q76 0 116.5 45.5t40.5 135.5
q0 68 -34.5 105.5t-97.5 37.5q-25 0 -60 -6l2 21l-2 23l23 -2q140 0 140 152q0 63 -30.5 99.5t-82.5 36.5q-40 0 -71.5 -24.5t-46.5 -68.5z" />
    <glyph glyph-name="four" unicode="4" 
d="M344 0q5 52 5 135q0 16 -0.5 31.5t-2.5 30.5l-157 2q-46 0 -88.5 -1t-80.5 -2v16q51 68 116 160t114 164q25 37 111 167h68q0 -27 -2.5 -138.5t-2.5 -173.5q0 -34 1 -67t2 -63l33 -2l61 2v-64l-95 2l-2 -70q0 -22 1 -62.5t4 -66.5q-18 3 -23.5 3.5t-18.5 0.5
q-23 0 -43 -4zM106 259h243v349q-29 -33 -87 -116q-63 -90 -156 -233z" />
    <glyph glyph-name="five" unicode="5" 
d="M141 339l-13 3q6 54 6 119q0 134 -9 227q32 -4 63 -5t77 -1q38 0 61 1q116 5 140 5l-3 -41l2 -32q-23 3 -61.5 4t-46.5 1h-174q-8 -90 -8 -198v-34q35 24 119 24q90 0 141.5 -51.5t51.5 -143.5q0 -105 -71 -168t-194 -63q-94 0 -156 38q12 42 19 88q48 -89 151 -89
q73 0 117 50t44 140q0 75 -38.5 116.5t-107.5 41.5q-62 0 -110 -32z" />
    <glyph glyph-name="six" unicode="6" 
d="M150 327q71 90 179 90q90 0 143 -53t53 -143q0 -107 -63 -171t-169 -64q-109 0 -170.5 77.5t-61.5 219.5q0 191 91 310q88 115 225 115q34 0 70 -10l-2 -26l3 -24q-32 23 -81 23q-89 0 -150 -87q-67 -96 -67 -257zM157 203q0 -82 39 -132.5t98 -50.5q64 0 102 48.5
t38 136.5q0 173 -134 173q-62 0 -102.5 -48t-40.5 -127z" />
    <glyph glyph-name="seven" unicode="7" 
d="M90 0q20 30 69 111q75 124 121 203q75 129 169 295h-196q-100 0 -160 -7l2 41l-3 45q24 0 127.5 -2.5t160.5 -2.5h20h17h15h13q21 0 43 1t42 4v-26q-149 -255 -247 -435q-90 -165 -116 -227q-8 2 -19.5 3t-19.5 1q-9 0 -17 -1t-21 -3z" />
    <glyph glyph-name="eight" unicode="8" horiz-adv-x="581" 
d="M219 391q-126 40 -126 145q0 78 54 125t144 47q95 0 146 -42t51 -117q0 -117 -124 -155q160 -40 160 -189q0 -101 -63 -160t-170 -59q-111 0 -172.5 53.5t-61.5 150.5q0 75 39 123t123 78zM151 191q0 -83 36.5 -125.5t103.5 -42.5q65 0 101 43t36 125q0 182 -132 182
q-145 0 -145 -182zM184 539q0 -133 107 -133q54 0 83.5 33.5t29.5 96.5q0 135 -110 135q-52 0 -81 -34t-29 -98z" />
    <glyph glyph-name="nine" unicode="9" 
d="M250 278q-88 0 -142 55t-54 148q0 100 65.5 163.5t170.5 63.5q109 0 169.5 -76.5t60.5 -219.5q0 -195 -85 -310.5t-221 -115.5q-27 0 -51.5 4t-50.5 14l2 23l-3 35q53 -41 111 -41q97 0 154 103q51 92 51 221l-2 27q-52 -94 -175 -94zM284 674q-64 0 -104.5 -53
t-40.5 -140q0 -75 38 -118t104 -43q67 0 104 46t37 133q0 85 -36 130t-102 45z" />
    <glyph glyph-name="colon" unicode=":" horiz-adv-x="346" 
d="M115 49q0 25 17 42t42 17q24 0 41 -17t17 -42q0 -24 -17 -41t-41 -17q-25 0 -42 16t-17 42zM115 417q0 25 17 42t42 17q24 0 41 -17t17 -42q0 -24 -17 -41t-41 -17q-25 0 -42 16t-17 42z" />
    <glyph glyph-name="semicolon" unicode=";" horiz-adv-x="346" 
d="M121 418q0 25 17 42t42 17q24 0 41 -17t17 -42q0 -24 -17 -41t-41 -17q-25 0 -42 16t-17 42zM88 -192l-17 8l75 253q15 49 48 49q39 0 39 -40q0 -17 -13 -41z" />
    <glyph glyph-name="less" unicode="&#x3c;" horiz-adv-x="883" 
d="M746 531l-529 -215l529 -214v-56l-609 249v42l609 250v-56z" />
    <glyph glyph-name="equal" unicode="=" horiz-adv-x="883" 
d="M752 438v-51h-621v51h621zM752 245v-51h-621v51h621z" />
    <glyph glyph-name="greater" unicode="&#x3e;" horiz-adv-x="883" 
d="M746 337v-42l-609 -249v56l529 214l-529 215v56z" />
    <glyph glyph-name="question" unicode="?" horiz-adv-x="408" 
d="M158 49q0 25 17 42t42 17q24 0 41 -17t17 -42q0 -24 -17 -41t-41 -17q-25 0 -42 16t-17 42zM277 221l-9 -31q-17 -5 -36 -5q-57 0 -89 34t-32 91q0 34 16 63t50 65l70 73q24 25 36 47t12 52q0 42 -24 67t-65 25q-74 0 -103 -67l-11 65q65 38 124 38q69 0 110.5 -40.5
t41.5 -110.5t-66 -139l-59 -63q-34 -37 -48 -58q-17 -26 -17 -51q0 -28 16.5 -44.5t45.5 -16.5q14 0 37 6z" />
    <glyph glyph-name="at" unicode="@" horiz-adv-x="1060" 
d="M626 243l32 128q-9 47 -39 75t-72 28q-80 0 -131.5 -69.5t-51.5 -174.5q0 -58 28 -90t79 -32q55 0 97.5 36.5t57.5 98.5zM672 432l31 65h49l-73 -290q-3 -12 -5.5 -27t-2.5 -21q0 -51 54 -51q93 0 156 93q60 88 60 205q0 130 -101 215t-264 85q-198 0 -327 -126
t-129 -315q0 -166 115 -267t294 -101q89 0 173.5 26t155.5 74l20 -29q-153 -114 -338 -114q-213 0 -344 112q-136 116 -136 312q0 200 150.5 337.5t366.5 137.5q180 0 301 -97.5t121 -252.5q0 -137 -78 -235q-82 -103 -208 -103q-99 0 -99 78l1 15q-53 -93 -153 -93
q-80 0 -121 43t-41 126q0 121 70 202t171 81q98 0 131 -85z" />
    <glyph glyph-name="A" unicode="A" horiz-adv-x="656" 
d="M-5 0q174 378 328 738h20q52 -129 103 -254q46 -111 103 -246q63 -150 102 -238q-23 4 -52 4h-22.5t-31.5 -4q-21 64 -40 114q-25 66 -51 127l-18 42l-130 2l-131 -2q-14 -31 -43 -104q-34 -86 -67 -179q-6 2 -15.5 3t-19.5 1q-15 0 -23.5 -2t-11.5 -2zM306 593
l-113 -261l80 -2l142 2l-18 44z" />
    <glyph glyph-name="B" unicode="B" horiz-adv-x="632" 
d="M187 361v-105q0 -72 1 -118t5 -89q41 -9 72 -9q94 0 147.5 44t53.5 122q0 83 -50 121t-155 38zM278 725q125 0 187.5 -38.5t62.5 -124.5q0 -69 -40.5 -113t-123.5 -60q198 -21 198 -175q0 -106 -72 -162t-214 -56q-24 0 -68 2t-57 2q-14 0 -26.5 -0.5t-26.5 -3.5
q3 35 5 150.5t2 218.5q0 81 -0.5 186.5t-6.5 173.5l52 -4q9 0 52 2t76 2zM187 407l3 -1q13 -2 29.5 -3t30.5 -1q95 0 138.5 38.5t43.5 115.5q0 67 -37 99q-40 35 -124 35q-31 0 -43 -1q-23 -4 -33 -5q-3 -15 -5.5 -67t-2.5 -69v-141z" />
    <glyph glyph-name="C" unicode="C" horiz-adv-x="695" 
d="M651 45q-81 -59 -238 -59q-176 0 -273 98t-97 277q0 171 106 274t288 103q124 0 228 -52q-17 -53 -17 -101q-74 113 -215 113q-132 0 -206 -88t-74 -250q0 -156 73.5 -245t199.5 -89q121 0 231 89z" />
    <glyph glyph-name="D" unicode="D" horiz-adv-x="800" 
d="M95 725q12 0 42 -2t37 -2q19 0 102 2t142 2q161 0 247.5 -89.5t86.5 -252.5q0 -188 -106.5 -287.5t-311.5 -99.5q-30 0 -91 2t-64 2h-39t-45 -4q3 35 5 150.5t2 218.5q0 81 -0.5 186.5t-6.5 173.5zM190 45q27 0 67.5 -2.5t43.5 -2.5q348 0 348 323q0 171 -70.5 246.5
t-229.5 75.5q-23 0 -78 -3t-82 -3q-2 -54 -2.5 -140t-0.5 -151q0 -66 1 -156.5t3 -186.5z" />
    <glyph glyph-name="E" unicode="E" horiz-adv-x="525" 
d="M189 362v-52q0 -35 3 -135t3 -126h22q44 0 117 3t138 9l-1 -32l1 -33q-20 2 -75.5 3t-106.5 1h-192q3 35 5 150t2 217q0 215 -1 259.5t-6 98.5q24 0 73 -2.5t67 -2.5q38 0 128.5 2.5t106.5 2.5l-2 -36l2 -34q-79 16 -256 16h-25q0 -25 -1 -60t-2 -66v-138h84q22 0 87 3
t94 3l-2 -30l2 -30q-94 9 -181 9h-84z" />
    <glyph glyph-name="F" unicode="F" horiz-adv-x="522" 
d="M190 362v-244q0 -51 1.5 -78t5.5 -40q-22 4 -49 4t-49 -4q3 35 5 149t2 216q0 81 -0.5 186.5t-6.5 173.5q24 0 73 -2.5t67 -2.5q38 0 128.5 2.5t106.5 2.5l-2 -36l2 -34q-79 16 -256 16h-25q0 -25 -1 -60t-2 -66v-138h84q22 0 87 3t94 3l-2 -30l2 -30q-94 9 -181 9h-84z
" />
    <glyph glyph-name="G" unicode="G" horiz-adv-x="774" 
d="M721 32q-78 -22 -148 -34t-134 -12q-182 0 -288 99t-106 266q0 176 113.5 281.5t305.5 105.5q155 0 261 -68q-9 -27 -14.5 -47.5t-10.5 -45.5q-83 121 -252 121q-134 0 -216 -91t-82 -246q0 -154 85.5 -244.5t224.5 -90.5q86 0 170 36q2 22 2.5 57.5t0.5 47.5
q0 33 -2.5 70t-4.5 65q9 -2 23.5 -3t25.5 -1h24q18 3 25 4q0 -21 -3.5 -83.5t-3.5 -82.5q0 -61 4 -104z" />
    <glyph glyph-name="H" unicode="H" horiz-adv-x="812" 
d="M195 725q-3 -22 -5 -102t-2 -169v-39q11 -1 70.5 -2t149.5 -1l218 2v40q0 45 -2 99q-5 134 -5 172q22 -4 49 -4t49 4q-3 -35 -5 -146.5t-2 -213.5q0 -82 0.5 -189.5t6.5 -175.5q-22 4 -49 4t-49 -4q3 98 5 168.5t2 147.5v50q-13 1 -86 2t-132 1q-62 0 -115 -1.5
t-105 -2.5v-48q0 -79 0.5 -175t6.5 -142q-22 4 -49 4t-49 -4q3 35 5 149t2 216q0 81 -0.5 186.5t-6.5 173.5q22 -4 49 -4t49 4z" />
    <glyph glyph-name="I" unicode="I" horiz-adv-x="291" 
d="M195 725q-3 -35 -5 -146.5t-2 -213.5q0 -82 0.5 -189.5t6.5 -175.5q-22 4 -49 4t-49 -4q3 35 5 149t2 216q0 81 -0.5 186.5t-6.5 173.5q22 -4 49 -4t49 4z" />
    <glyph glyph-name="J" unicode="J" horiz-adv-x="292" 
d="M201 725q-3 -35 -5 -146.5t-2 -213.5v-268q0 -121 -48 -177t-166 -68l-6 31q86 11 113 68q23 48 23 181v233q0 81 -0.5 186.5t-6.5 173.5q22 -4 49 -4t49 4z" />
    <glyph glyph-name="K" unicode="K" horiz-adv-x="634" 
d="M191 386q49 0 332 339q20 -4 47 -4q32 0 48 4q-35 -27 -100 -91l-79 -79l-155 -154q40 -51 100 -121q15 -18 116 -133q64 -74 128 -147q-28 4 -62 4h-26t-34 -4q-64 89 -124 164l-122 150q-42 52 -74 52v-126q0 -42 3.5 -126t3.5 -114q-22 4 -49 4t-49 -4q3 35 5 149
t2 216q0 81 -0.5 186.5t-6.5 173.5q22 -4 49 -4t49 4q-3 -34 -5 -77.5t-2 -95.5v-162q0 -2 5 -4z" />
    <glyph glyph-name="L" unicode="L" horiz-adv-x="520" 
d="M190 725q-3 -35 -5 -146.5t-2 -213.5q0 -32 4 -144t4 -170l72 -2q136 0 216 17l-2 -34l2 -32l-246 4q-37 0 -77 -1.5t-64 -2.5q3 35 5 149t2 216q0 81 -0.5 186.5t-6.5 173.5q22 -4 49 -4t49 4z" />
    <glyph glyph-name="M" unicode="M" horiz-adv-x="930" 
d="M37 0q20 86 49 284t61 454h18q75 -152 150 -298t147 -278q151 268 314 576h14q21 -202 24 -232q17 -149 28 -246l32 -260q-10 2 -23 3t-25 1q-27 0 -48 -4q0 129 -10 235t-24 189q-3 19 -21 105q-70 -117 -133 -235q-48 -90 -89 -178q-35 -76 -49 -116h-15
q-13 47 -40 104q-23 50 -61 119l-165 305q-24 -167 -38 -317t-14 -211q-17 4 -39 4h-26q-12 -3 -17 -4z" />
    <glyph glyph-name="N" unicode="N" horiz-adv-x="790" 
d="M93 0q3 31 5 232t2 393v113h20q94 -109 183 -206q67 -73 175 -185q95 -99 163 -167l2 93q0 109 -2.5 219.5t-4.5 232.5q15 -4 33 -4t31 4q0 -78 -3.5 -248.5t-3.5 -250.5l2 -240h-14q-48 61 -119 139q-63 70 -152 164l-257 270l-3 -138q0 -3 5 -231q2 -91 2 -190
q-16 4 -34 4q-17 0 -30 -4z" />
    <glyph glyph-name="O" unicode="O" horiz-adv-x="870" 
d="M435 -14q-182 0 -286.5 100.5t-104.5 274.5q0 171 107 274t284 103q181 0 285.5 -101.5t104.5 -275.5q0 -168 -107.5 -271.5t-282.5 -103.5zM435 26q136 0 210.5 87t74.5 249q0 165 -72.5 250.5t-212.5 85.5q-136 0 -211 -88t-75 -252q0 -160 74 -246t212 -86z" />
    <glyph glyph-name="P" unicode="P" horiz-adv-x="583" 
d="M184 328v-149q0 -5 5 -100q2 -38 2 -79q-22 4 -49 4t-49 -4q3 35 5 149t2 216q0 81 -0.5 186.5t-6.5 173.5l52 -4q27 0 95 2t81 2q115 0 177 -48t62 -136q0 -102 -76 -158.5t-218 -56.5zM184 368l48 -2q228 0 228 166q0 83 -49 118t-156 35l-66 -3q0 -44 -2.5 -122
t-2.5 -96v-96z" />
    <glyph glyph-name="Q" unicode="Q" horiz-adv-x="870" 
d="M480 -11l-62 -3q-166 0 -270 104t-104 271q0 171 107 274t284 103q181 0 285.5 -101.5t104.5 -275.5q0 -134 -68 -227t-197 -133q115 -88 258 -185q-22 -7 -40 -18t-40 -29q-128 122 -258 220zM435 26q136 0 210.5 87t74.5 249q0 165 -72.5 250.5t-212.5 85.5
q-136 0 -211 -88t-75 -252q0 -160 74 -246t212 -86z" />
    <glyph glyph-name="R" unicode="R" horiz-adv-x="630" 
d="M189 353v-194q0 -78 7 -159q-22 4 -49 4t-49 -4q3 35 5 149t2 216q0 81 -0.5 186.5t-6.5 173.5l47 -4q23 0 87.5 2t81.5 2q239 0 239 -172q0 -158 -212 -196q37 -50 91 -118q59 -74 102.5 -128.5t88.5 -110.5q-11 2 -29 3t-33 1l-62 -4q-56 81 -82.5 117t-49.5 66
l-115 148q-18 24 -43 24zM189 386l35 -2q237 0 237 156q0 145 -183 145l-82 -3q-4 -29 -5.5 -53t-1.5 -57v-186z" />
    <glyph glyph-name="S" unicode="S" horiz-adv-x="520" 
d="M45 42q13 41 16 54q7 29 7 58q24 -60 70 -93t105 -33q68 0 110 42t42 114q0 51 -25 80.5t-82 53.5l-86 36q-72 29 -106.5 71.5t-34.5 106.5q0 90 62 148t161 58q87 0 161 -39q-17 -37 -29 -82q-56 82 -146 82q-58 0 -92.5 -36.5t-34.5 -97.5q0 -47 24.5 -75.5t81.5 -53.5
l86 -37q76 -32 108.5 -72.5t32.5 -109.5q0 -103 -69 -167t-184 -64q-105 0 -178 56z" />
    <glyph glyph-name="T" unicode="T" horiz-adv-x="577" 
d="M331 675v-315q0 -81 0.5 -186.5t6.5 -173.5q-22 4 -49 4t-49 -4q3 35 5 146.5t2 213.5v315h-31q-122 0 -195 -13l2 30l-2 33q34 0 147 -2t120 -2q48 0 119 1t149 3l-3 -31q0 -20 3 -32q-36 7 -84.5 10t-102.5 3h-38z" />
    <glyph glyph-name="U" unicode="U" horiz-adv-x="795" 
d="M636 725q7 -2 17 -3t18 -1h19q13 3 18 4q0 -30 -2 -70q-5 -99 -5 -124v-127q0 -133 -12 -196q-20 -104 -80 -158q-71 -64 -210 -64q-158 0 -230 77t-72 242q3 72 5.5 145t2.5 114q0 38 -2.5 82t-4.5 79q9 -2 24 -3t25 -1q25 0 49 4q-3 -135 -5 -234t-2 -177
q0 -126 44 -194q55 -85 183 -85q112 0 167 65q60 71 60 225v203q0 73 -2 118.5t-5 78.5z" />
    <glyph glyph-name="V" unicode="V" horiz-adv-x="656" 
d="M295 0q-74 193 -146 375q-79 200 -142 350q10 -2 24 -3t27 -1q28 0 52 4q49 -138 76 -208q50 -132 80 -208q10 -26 84 -205q33 80 84 211q32 82 78.5 208.5t72.5 201.5q15 -4 35 -4q9 0 17 0.5t18 3.5q-50 -120 -100 -243q-22 -55 -96 -242q-69 -175 -94 -240
q-16 4 -35 4h-14.5t-20.5 -4z" />
    <glyph glyph-name="W" unicode="W" horiz-adv-x="1041" 
d="M245 0q-97 320 -227 725q23 -4 51 -4h31q14 3 20 4q43 -161 85.5 -306t98.5 -319q105 287 199 625q15 -4 34 -4h20q10 3 14 4q31 -101 63 -198q47 -144 68 -207q31 -91 73 -209q54 154 98 300.5t87 313.5q15 -4 34 -4h21q11 3 15 4l-242 -725q-17 4 -37 4q-24 0 -38 -6
q-86 291 -195 594q-58 -175 -90.5 -272.5l-65.5 -196.5q-23 -66 -43 -123q-16 4 -37 4h-15t-22 -4z" />
    <glyph glyph-name="X" unicode="X" horiz-adv-x="593" 
d="M22 0l213 321l26 38l-19 34q-48 84 -197 332q23 -4 56 -4q10 0 22 0.5t33 3.5q93 -181 136 -250l24 -38l25 37q55 81 146 251q16 -4 38 -4q6 0 15 0.5t24 3.5q-57 -82 -97 -141q-54 -72 -71 -105l-38 -58l-18 -27l23 -37l216 -357q-12 2 -27 3t-30 1h-25t-34 -4
q-41 83 -76 145q-31 55 -75 129l-26 42l-25 -37q-26 -37 -64 -102q-42 -72 -97 -177q-8 2 -18.5 3t-19.5 1q-23 0 -40 -4z" />
    <glyph glyph-name="Y" unicode="Y" horiz-adv-x="588" 
d="M252 0q0 27 3.5 80t3.5 71q0 31 -2.5 83.5t-2.5 61.5q-68 118 -85 147t-84 142.5t-82 139.5q10 -2 26 -3t32 -1h35q15 3 22 4q26 -60 58.5 -123t65.5 -119t75 -119q110 179 191 361q8 -2 19 -3t20 -1q21 0 40 4q-133 -215 -241 -412l-3 -111q0 -50 1.5 -94.5t4.5 -107.5
q-10 2 -22.5 3t-24.5 1h-31q-13 -3 -19 -4z" />
    <glyph glyph-name="Z" unicode="Z" horiz-adv-x="635" 
d="M9 0q114 160 233 337q115 171 221 336l-83 3q-45 0 -115 -4q-157 -9 -203 -9l2 31l-2 31q32 0 146.5 -2t133.5 -2q51 0 124 1t156 3q-258 -343 -466 -671l126 -2q59 0 170 5.5t151 5.5l-2 -32l2 -31q-10 0 -134 1.5t-205 2.5q-63 0 -137 -1.5t-118 -2.5z" />
    <glyph glyph-name="bracketleft" unicode="[" horiz-adv-x="292" 
d="M80 -116q0 14 2 81t2 120v437q0 49 -1.5 98t-2.5 103h157v-36q-19 4 -41 4h-49q0 -38 -2.5 -128t-2.5 -129v-332q0 -128 5 -186h49q7 0 17 0.5t24 3.5v-36h-157z" />
    <glyph glyph-name="backslash" unicode="\" horiz-adv-x="298" 
d="M-23 795h47l291 -893h-47z" />
    <glyph glyph-name="bracketright" unicode="]" horiz-adv-x="292" 
d="M236 -116q0 14 -2 81t-2 120v437q0 49 1 98t3 103h-157v-36q19 4 41 4h49q0 -38 2.5 -128t2.5 -129v-332q0 -128 -5 -186h-49h-24q-12 3 -17 4v-36h157z" />
    <glyph glyph-name="asciicircum" unicode="^" horiz-adv-x="1060" 
d="M566 755l275 -288h-75l-236 235l-237 -235h-75l276 288h72z" />
    <glyph glyph-name="underscore" unicode="_" horiz-adv-x="530" 
d="M530 -198v-52h-530v52h530z" />
    <glyph glyph-name="grave" unicode="`" horiz-adv-x="530" 
d="M356 568h-35l-171 106q-32 19 -32 42q0 16 10.5 26.5t27.5 10.5q12 0 23.5 -7.5t26.5 -22.5z" />
    <glyph glyph-name="a" unicode="a" horiz-adv-x="510" 
d="M341 61q-68 -71 -157 -71q-146 0 -146 132q0 110 122 137q69 13 138 27q30 8 45 21v23q0 73 -26 106.5t-90 33.5q-86 0 -137 -77h-8l2 56q72 61 171 61q89 0 127.5 -43.5t38.5 -135.5v-224q0 -42 7 -56t36 -14l18 2l5 -22q-9 -3 -35.5 -10t-51.5 -7q-49 0 -59 61z
M343 263q-125 -21 -167 -42q-52 -27 -52 -86q0 -49 25 -76t70 -27q39 0 79 26q45 30 45 68v137z" />
    <glyph glyph-name="b" unicode="b" 
d="M164 794q0 -61 -1 -100q-4 -156 -4 -179l2 -102q64 97 169 97q99 0 155.5 -64.5t56.5 -176.5q0 -126 -63.5 -202.5t-168.5 -76.5q-84 0 -157 66q-27 -21 -56 -56h-21q0 28 2.5 179t2.5 284q0 109 -2 189t-3 142q10 -2 19.5 -3t23.5 -1q11 0 20 1t25 3zM307 470
q-75 0 -115 -62t-40 -181q0 -200 145 -200q75 0 117 61.5t42 176.5q0 101 -38 153t-111 52z" />
    <glyph glyph-name="c" unicode="c" horiz-adv-x="490" 
d="M466 42q-36 -28 -79.5 -40t-101.5 -12q-111 0 -179.5 70.5t-68.5 188.5q0 119 72 190t191 71q90 0 172 -43q-18 -43 -28 -91q-45 100 -144 100q-84 0 -130.5 -59.5t-46.5 -166.5q0 -104 50.5 -163.5t134.5 -59.5t159 76l-3 -39z" />
    <glyph glyph-name="d" unicode="d" horiz-adv-x="594" 
d="M430 0q5 27 5 62l-3 41q-59 -113 -182 -113q-96 0 -154.5 68.5t-58.5 182.5q0 121 63.5 195t161.5 74q109 0 168 -98q3 27 4 103.5t1 88.5q0 45 -2.5 115t-2.5 75q10 -2 19.5 -3t23.5 -1q11 0 20 1t25 3q0 -61 -2.5 -177.5t-2.5 -148.5q0 -150 1.5 -263.5t3.5 -204.5
q-21 4 -45 4q-12 0 -21 -1t-22 -3zM283 470q-75 0 -115 -62t-40 -181q0 -200 145 -200q75 0 117 61.5t42 176.5q0 101 -38 153t-111 52z" />
    <glyph glyph-name="e" unicode="e" horiz-adv-x="536" 
d="M131 293h279v18q0 79 -35 122t-97 43t-104.5 -49.5t-42.5 -133.5zM468 51q-82 -61 -180 -61q-112 0 -181 72t-69 187q0 119 67 190t177 71q102 0 157 -59t55 -170v-25h-365q0 -110 46 -167t132 -57q91 0 164 72q-2 -12 -2.5 -30.5t-0.5 -22.5z" />
    <glyph glyph-name="f" unicode="f" horiz-adv-x="293" 
d="M318 792l-10 -81q-27 12 -61 12q-90 0 -90 -98q0 -66 9 -133h35l74 2v-44l-106 5v-192q0 -61 2.5 -155.5t2.5 -107.5q-8 2 -20.5 3t-24.5 1q-24 0 -43 -4q0 56 2.5 150t2.5 113v192l-71 -2v42q14 -1 37.5 -2t33.5 -1q0 135 58 218.5t148 83.5z" />
    <glyph glyph-name="g" unicode="g" horiz-adv-x="485" 
d="M150 192q-106 33 -106 142q0 81 56.5 128.5t154.5 47.5q28 0 69 -5t55 -5q24 0 48 2q34 5 55 7v-47l-66 3h-21q40 -54 40 -121q0 -79 -51 -124t-140 -45q-14 0 -33 2t-25 2q-50 0 -50 -50q0 -31 19.5 -44t63.5 -13h59q112 0 162.5 -30.5t50.5 -113.5q0 -97 -74 -158.5
t-196 -61.5q-89 0 -140.5 41.5t-51.5 111.5q0 105 118 143q-38 9 -59.5 32.5t-21.5 56.5q0 55 84 99zM218 0q-58 0 -92 -36t-34 -90q0 -60 40 -97t106 -37q80 0 130 42t50 106q0 70 -48 93q-39 19 -152 19zM356 342q0 138 -110 138q-54 0 -86 -37t-32 -101q0 -67 31 -103
t87 -36q110 0 110 139z" />
    <glyph glyph-name="h" unicode="h" horiz-adv-x="578" 
d="M167 794q0 -59 -2.5 -175t-2.5 -118q0 -32 1 -51t2 -37q34 50 73 73.5t91 23.5q90 0 125 -47q41 -55 41 -200q0 -61 2.5 -155.5t2.5 -107.5q-8 2 -20.5 3t-24.5 1q-24 0 -43 -4q0 56 2.5 150t2.5 113q0 101 -25 144q-28 48 -95 48q-70 0 -105 -59q-30 -51 -30 -133
q0 -69 1.5 -137.5t3.5 -125.5q-21 4 -45 4q-12 0 -21 -1t-22 -3q0 28 2.5 179t2.5 284q0 109 -2 189t-3 142q10 -2 19.5 -3t23.5 -1q11 0 20 1t25 3z" />
    <glyph glyph-name="i" unicode="i" horiz-adv-x="262" 
d="M77 685q0 23 15 38t38 15q22 0 38 -15t16 -38q0 -22 -16 -38t-38 -16q-23 0 -38 15t-15 39zM176 500q0 -50 -2.5 -134t-2.5 -103q0 -61 2.5 -155.5t2.5 -107.5q-8 2 -20.5 3t-24.5 1q-24 0 -43 -4q0 56 2.5 150t2.5 113q0 56 -1 90q-4 137 -4 147q19 -4 43 -4h23
q16 3 22 4z" />
    <glyph glyph-name="j" unicode="j" horiz-adv-x="262" 
d="M-13 -289l-7 22q75 9 96 75q16 50 16 205v250q0 56 -1 90q-4 137 -4 147q19 -4 43 -4h23q16 3 22 4q0 -50 -2.5 -134t-2.5 -103q0 -38 2.5 -164t2.5 -144q0 -122 -40.5 -177.5t-147.5 -66.5zM75 685q0 23 15 38t38 15q22 0 38 -15t16 -38q0 -22 -16 -38t-38 -16
q-23 0 -38 15t-15 39z" />
    <glyph glyph-name="k" unicode="k" horiz-adv-x="515" 
d="M170 794q0 -54 -2.5 -159.5t-2.5 -148.5v-184q0 -18 18 -18q51 0 221 216q20 -4 47 -4h26q14 3 20 4q-26 -18 -60 -48q-30 -26 -77 -71l-96 -90l249 -291q-12 2 -28.5 3t-30.5 1q-31 0 -55 -4q-194 262 -224 262q-10 0 -10 -14q0 -65 2.5 -150t2.5 -98q-21 4 -45 4
q-12 0 -21 -1t-22 -3q0 28 2.5 179t2.5 284q0 109 -2 189t-3 142q10 -2 19.5 -3t23.5 -1q11 0 20 1t25 3z" />
    <glyph glyph-name="l" unicode="l" horiz-adv-x="247" 
d="M167 794q0 -61 -2.5 -177.5t-2.5 -148.5q0 -150 1.5 -263.5t3.5 -204.5q-21 4 -45 4q-12 0 -21 -1t-22 -3q0 28 2.5 179t2.5 284q0 109 -2 189t-3 142q10 -2 19.5 -3t23.5 -1q11 0 20 1t25 3z" />
    <glyph glyph-name="m" unicode="m" horiz-adv-x="877" 
d="M170 500q-4 -42 -4.5 -58.5t-0.5 -26.5q38 50 78 72.5t88 22.5q50 0 85 -28t49 -78q30 51 75.5 78.5t98.5 27.5q98 0 129 -49.5t31 -197.5q0 -61 2.5 -155.5t2.5 -107.5q-8 2 -20.5 3t-24.5 1q-24 0 -43 -4q0 56 2.5 150t2.5 113q0 106 -27 149t-93 43q-71 0 -99 -63
q-20 -44 -20 -129q0 -61 2.5 -155.5t2.5 -107.5q-8 2 -20.5 3t-24.5 1q-24 0 -43 -4q0 56 2.5 150t2.5 113q0 104 -23.5 148t-83.5 44q-68 0 -100 -50t-32 -142q0 -61 2.5 -155.5t2.5 -107.5q-8 2 -20.5 3t-24.5 1q-24 0 -43 -4q0 56 2.5 150t2.5 113q0 56 -1 90
q-4 137 -4 147q19 -4 43 -4h23q16 3 22 4z" />
    <glyph glyph-name="n" unicode="n" horiz-adv-x="560" 
d="M170 500q-4 -42 -4.5 -58.5t-0.5 -26.5q38 50 78 72.5t88 22.5q64 0 101 -44q50 -60 50 -203q0 -61 2.5 -155.5t2.5 -107.5q-8 2 -20.5 3t-24.5 1q-24 0 -43 -4q0 56 2.5 150t2.5 113q0 104 -23.5 148t-83.5 44q-68 0 -100 -50t-32 -142q0 -61 2.5 -155.5t2.5 -107.5
q-8 2 -20.5 3t-24.5 1q-24 0 -43 -4q0 56 2.5 150t2.5 113q0 56 -1 90q-4 137 -4 147q19 -4 43 -4h23q16 3 22 4z" />
    <glyph glyph-name="o" unicode="o" horiz-adv-x="578" 
d="M289 -10q-110 0 -180.5 72.5t-70.5 187.5t71.5 187.5t179.5 72.5q111 0 181 -72t70 -188q0 -117 -70.5 -188.5t-180.5 -71.5zM289 24q78 0 119.5 55.5t41.5 164.5q0 114 -41 173t-121 59q-160 0 -160 -225q0 -227 161 -227z" />
    <glyph glyph-name="p" unicode="p" horiz-adv-x="592" 
d="M169 500q-4 -40 -4.5 -57.5t-0.5 -30.5q33 51 74 74.5t100 23.5q103 0 158.5 -66.5t55.5 -194.5q0 -121 -61 -190t-161 -69q-109 0 -166 87v-137q0 -28 2.5 -110.5t2.5 -123.5q-19 4 -44 4q-24 0 -44 -4q0 28 2.5 179t2.5 284q0 109 -2 189t-3 142q10 -2 19.5 -3t23.5 -1
q11 0 20 1t25 3zM313 470q-75 0 -115 -62t-40 -181q0 -200 145 -200q75 0 117 61.5t42 176.5q0 101 -38 153t-111 52z" />
    <glyph glyph-name="q" unicode="q" horiz-adv-x="592" 
d="M463 500q4 -40 4.5 -55t0.5 -33q-33 51 -74 74.5t-100 23.5q-103 0 -158.5 -66.5t-55.5 -194.5q0 -121 61 -190t161 -69q109 0 166 87v-137q0 -28 -2.5 -111t-2.5 -123q16 4 44 4h20t24 -4q0 28 -2.5 179t-2.5 284q0 108 1.5 177t3.5 154q-10 -2 -19.5 -3t-23.5 -1
q-11 0 -20 1t-25 3zM319 470q75 0 115 -62t40 -181q0 -200 -145 -200q-75 0 -117 61.5t-42 176.5q0 101 38 153t111 52z" />
    <glyph glyph-name="r" unicode="r" horiz-adv-x="348" 
d="M164 500q-3 -25 -4 -67t-1 -50q59 122 136 122q7 0 17.5 -1t22.5 -4q-3 -16 -4 -46t-1 -35l-9 -5q-25 14 -50 14q-52 0 -82 -45t-30 -120q0 -61 2.5 -155.5t2.5 -107.5q-4 1 -18.5 2.5t-26.5 1.5q-24 0 -43 -4q0 56 2.5 150t2.5 113q0 56 -1 90q-4 137 -4 147
q19 -4 43 -4h23q16 3 22 4z" />
    <glyph glyph-name="s" unicode="s" horiz-adv-x="378" 
d="M350 157q0 -72 -51.5 -119.5t-135.5 -47.5q-82 0 -137 38q7 19 14 41t11 41q52 -80 130 -80q47 0 74.5 25.5t27.5 70.5q0 36 -19.5 55t-63.5 32l-49 14q-61 17 -88 48.5t-27 87.5q0 64 44.5 105.5t118.5 41.5q37 0 70.5 -9t61.5 -26q-17 -39 -22 -67q-60 70 -123 70
q-40 0 -65 -24t-25 -65q0 -36 18.5 -56t61.5 -33l72 -21q54 -16 78 -44t24 -78z" />
    <glyph glyph-name="t" unicode="t" horiz-adv-x="307" 
d="M13 456l3 22l-2 22q9 -2 28.5 -3t37.5 -1v37l-3 88q52 8 88 27q-3 -19 -5 -58.5t-2 -64.5v-29q21 0 77.5 2t63.5 2q-3 -15 -3 -45q-13 2 -55 3t-80 1l-3 -53q0 -42 -2.5 -129.5t-2.5 -116.5q0 -71 20.5 -102t70.5 -31q29 0 73 22l8 -24q-53 -35 -116 -35q-72 0 -103 34
t-31 111q0 29 2.5 132t2.5 156v36h-12z" />
    <glyph glyph-name="u" unicode="u" 
d="M414 0q2 6 3.5 18.5t1.5 26.5v18q-3 17 -3 22q-52 -95 -170 -95q-167 0 -167 173v100q0 56 -1 90q-4 137 -4 147q19 -4 43 -4h23q16 3 22 4q0 -50 -2.5 -134t-2.5 -103q0 -138 26 -181t95 -43q90 0 121 74q20 47 20 150q0 62 -1 136.5t-4 100.5q19 -4 43 -4h23q16 3 22 4
q0 -50 -2.5 -134t-2.5 -103q0 -61 2.5 -155.5t2.5 -107.5q-8 2 -20.5 3t-24.5 1q-24 0 -43 -4z" />
    <glyph glyph-name="v" unicode="v" horiz-adv-x="485" 
d="M211 0q-16 50 -45.5 127t-67.5 165.5t-91 207.5q20 -4 47 -4h30q14 3 20 4q34 -128 156 -402q51 100 90 198t67 204q15 -4 34 -4t32 4q-53 -117 -106 -242q-41 -95 -67.5 -163t-35.5 -95l-33 4q-14 0 -20 -1q-7 -3 -10 -3z" />
    <glyph glyph-name="w" unicode="w" horiz-adv-x="783" 
d="M193 0q-30 124 -185 500q10 -2 22.5 -3t24.5 -1q27 0 48 4q32 -129 132 -388q79 175 139 388q7 -2 14 -3t18 -1l30 4q35 -130 73 -238q33 -95 60 -149q33 69 80 195q30 82 67 192q18 -4 33 -4q14 0 32 4q-82 -184 -130 -302q-54 -132 -72 -198q-13 4 -31 4q-19 0 -31 -4
q-9 60 -130 382q-48 -115 -82.5 -214.5t-51.5 -167.5q-13 4 -30 4q-19 0 -30 -4z" />
    <glyph glyph-name="x" unicode="x" horiz-adv-x="498" 
d="M232 210l-75 -95q-47 -59 -74 -115q-8 2 -18.5 3t-19.5 1q-21 0 -40 -4q42 44 76 85q18 22 55 71l70 91l-50 70q-31 43 -66 89t-73 94q24 -4 54 -4h33q15 3 21 4l47 -70l86 -123l63 82q30 38 49.5 65.5t28.5 45.5q10 -2 18 -3t20 -1q10 0 19 1t20 3q-80 -89 -130 -151
l-63 -78l99 -138q13 -18 29 -40q31 -41 74 -93q-27 4 -57 4h-22.5t-31.5 -4q-18 31 -46 73q-24 36 -57 83z" />
    <glyph glyph-name="y" unicode="y" horiz-adv-x="495" 
d="M220 3l-44 117q-20 50 -50 120q-35 81 -116 260q23 -4 52 -4h31q14 3 20 4q16 -57 40 -121.5t74 -185.5l37 -91l38 88q78 179 119 310q15 -4 36 -4h17q12 3 18 4q-24 -46 -48 -98.5t-53 -119.5l-142 -321q-42 -95 -59 -138q-26 -65 -38 -112q-15 3 -19.5 3.5t-16.5 0.5
l-37 -4q30 51 54 99q13 25 63 137z" />
    <glyph glyph-name="z" unicode="z" horiz-adv-x="477" 
d="M-2 0v22q110 136 190 239q92 118 145 195h-42q-107 0 -236 -14l2 27l-4 31q20 -2 75 -3t104 -1q39 0 125.5 2t89.5 2v-21q-76 -96 -121 -154q-36 -46 -109 -145q-61 -82 -98 -136q109 0 184.5 4.5t137.5 11.5l-2 -24l3 -36q-26 0 -109 1.5t-134 2.5q-36 0 -116.5 -2
t-84.5 -2z" />
    <glyph glyph-name="braceleft" unicode="{" horiz-adv-x="530" 
d="M442 710h-19q-71 0 -93 -27t-22 -105v-125q0 -82 -19 -118q-22 -43 -83 -60q60 -17 81 -57t21 -121v-125q0 -78 20.5 -105t90.5 -27h23v-54h-24q-107 0 -140.5 39t-33.5 152v126q0 79 -29.5 112.5t-101.5 33.5l-23 -2v58l23 -2q72 0 101.5 32.5t29.5 112.5v125
q0 112 33.5 152t140.5 40h24v-55z" />
    <glyph glyph-name="bar" unicode="|" horiz-adv-x="530" 
d="M293 810v-1060h-56v1060h56z" />
    <glyph glyph-name="braceright" unicode="}" horiz-adv-x="530" 
d="M90 710h19q71 0 93 -27t22 -105v-125q0 -82 20.5 -121.5t81.5 -56.5q-60 -17 -81 -57t-21 -121v-125q0 -78 -19 -103q-22 -29 -92 -29h-23v-54h24q107 0 142 41q32 37 32 150v126q0 79 29.5 112.5t101.5 33.5l23 -2v58l-23 -2q-72 0 -101.5 32.5t-29.5 112.5v125
q0 112 -32 150q-35 42 -142 42h-24v-55z" />
    <glyph glyph-name="asciitilde" unicode="~" horiz-adv-x="883" 
d="M792 330q-104 -74 -201 -74q-58 0 -153 35.5t-145 35.5q-47 0 -93.5 -20t-107.5 -63v58q108 75 201 75q57 0 153.5 -35.5t144.5 -35.5q46 0 95 20.5t106 61.5v-58z" />
    <glyph glyph-name="quotesinglbase" unicode="&#x201a;" horiz-adv-x="290" 
d="M63 -193l-17 8l75 253q15 49 48 49q39 0 39 -40q0 -17 -13 -41z" />
    <glyph glyph-name="florin" unicode="&#x192;" horiz-adv-x="581" 
d="M365 382l108 3l-5 -37l-108 2q-37 -228 -65 -333q-37 -139 -85 -201q-52 -67 -135 -67q-26 0 -44 11q14 31 27 76q34 -34 68 -34q57 0 100 238l57 311l-110 -3l8 38q17 0 59 -2t49 -2q17 140 67 225q59 99 149 99q25 0 44 -10q-15 -33 -24 -75q-17 17 -32.5 24t-29.5 7
q-57 0 -83 -168z" />
    <glyph glyph-name="quotedblbase" unicode="&#x201e;" horiz-adv-x="462" 
d="M61 -192l-17 8l75 253q15 49 48 49q39 0 39 -40q0 -17 -13 -41zM235 -192l-17 8l75 253q15 49 48 49q39 0 39 -40q0 -17 -13 -41z" />
    <glyph glyph-name="ellipsis" unicode="&#x2026;" horiz-adv-x="1060" 
d="M118 49q0 25 17 42t42 17q24 0 41 -17t17 -42q0 -24 -17 -41t-41 -17q-25 0 -42 16t-17 42zM471 49q0 25 17 42t42 17q24 0 41 -17t17 -42q0 -24 -17 -41t-41 -17q-25 0 -42 16t-17 42zM824 49q0 25 17 42t42 17q24 0 41 -17t17 -42q0 -24 -17 -41t-41 -17q-25 0 -42 16
t-17 42z" />
    <glyph glyph-name="dagger" unicode="&#x2020;" horiz-adv-x="524" 
d="M298 724q0 -8 -3.5 -100.5t-3.5 -148.5h34q86 0 148 7v-58q-41 6 -140 6h-40l-2 -114q0 -2 5 -177q2 -70 2 -139q-15 4 -34 4q-22 0 -38 -4q0 81 3.5 196.5t3.5 119.5l-2 114h-40q-99 0 -140 -6v58q66 -7 150 -7h32q0 87 -2 150t-5 99q13 -4 34 -4z" />
    <glyph glyph-name="daggerdbl" unicode="&#x2021;" 
d="M54 0l3 34l-3 35q91 0 123 38t32 138v13v12q0 21 -1 41.5t-4 39.5q-43 0 -106 -10v46q31 -4 77 -4h26l-6 94q0 110 54.5 169.5t155.5 59.5q83 0 131 -55l-51 -63q-14 83 -96 83q-117 0 -117 -155q0 -54 9 -133h33h12q20 0 41 1t43 4v-43q-39 4 -60 5t-46 1h-18v-24
q0 -88 -24.5 -152.5t-77.5 -105.5q48 0 225 10q88 5 141 5l-2 -41l2 -43q-47 0 -132 3t-121 3q-37 0 -118 -3t-125 -3z" />
    <glyph glyph-name="perthousand" unicode="&#x2030;" horiz-adv-x="1198" 
d="M202 689q69 0 114 -47t45 -124q0 -82 -47 -128t-123 -46q-69 0 -111 47t-42 126q0 75 46.5 123.5t117.5 48.5zM186 -99h-50l497 886h48zM623 339q69 0 114 -47t45 -124q0 -82 -47 -128t-123 -46q-69 0 -111 47t-42 126q0 75 46.5 123.5t117.5 48.5zM201 657
q-40 0 -62.5 -36.5t-22.5 -100.5q0 -77 20 -110.5t65 -33.5q82 0 82 136q0 77 -18.5 111t-63.5 34zM622 307q-40 0 -62.5 -36.5t-22.5 -100.5q0 -77 20 -110.5t65 -33.5q82 0 82 136q0 77 -18.5 111t-63.5 34zM1005 339q69 0 114 -47t45 -124q0 -82 -47 -128t-123 -46
q-69 0 -111 47t-42 126q0 75 46.5 123.5t117.5 48.5zM1004 307q-40 0 -62.5 -36.5t-22.5 -100.5q0 -77 20 -110.5t65 -33.5q82 0 82 136q0 77 -18.5 111t-63.5 34z" />
    <glyph glyph-name="guilsinglleft" unicode="&#x2039;" horiz-adv-x="251" 
d="M231 28l-22 -28l-170 250l170 250l22 -28l-125 -222z" />
    <glyph glyph-name="c141" horiz-adv-x="909" 
d="M164 303q0 40 5 173q2 53 2 96l-2 89l-102 -53q-7 17 -21 27q79 28 183 76q0 -49 -2.5 -158t-2.5 -148l1 -102q-7 2 -16 2h-14q-20 0 -31 -2zM668 787h52l-481 -886h-49zM759 0q2 25 3 38t1 42l-1 30l-98 1l-107 -1v8q52 61 109 135q41 52 106 140l21 -1l21 1
q0 -38 -1 -84.5t-2 -89.5l1 -74l21 -1l39 2v-36l-60 2l-1 -66l2 -46l-26 1zM611 145h153v195q-34 -33 -153 -195z" />
    <glyph glyph-name="c141" unicode="&#x40c;" horiz-adv-x="909" 
d="M164 303q0 40 5 173q2 53 2 96l-2 89l-102 -53q-7 17 -21 27q79 28 183 76q0 -49 -2.5 -158t-2.5 -148l1 -102q-7 2 -16 2h-14q-20 0 -31 -2zM668 787h52l-481 -886h-49zM759 0q2 25 3 38t1 42l-1 30l-98 1l-107 -1v8q52 61 109 135q41 52 106 140l21 -1l21 1
q0 -38 -1 -84.5t-2 -89.5l1 -74l21 -1l39 2v-36l-60 2l-1 -66l2 -46l-26 1zM611 145h153v195q-34 -33 -153 -195z" />
    <glyph glyph-name="c142" horiz-adv-x="909" 
d="M164 303q0 49 3 139t3 130l-2 89l-102 -53q-8 18 -21 27q39 14 85 33t99 43q0 -63 -1 -99q-5 -181 -5 -207l1 -102q-7 2 -16 2h-13q-21 0 -31 -2zM667 787h52l-481 -886h-49zM575 0v10q78 69 115 105q42 41 73 88q25 42 25 83q0 42 -21 65t-57 23q-60 0 -85 -70
q-5 6 -14 17.5t-13 15.5q44 58 123 58q60 0 93.5 -28.5t33.5 -78.5q0 -52 -52 -107q-11 -11 -62 -58q-42 -39 -88 -83l66 -1q29 0 79 2.5t61 2.5l-1 -18q0 -18 2 -26l-138 1z" />
    <glyph glyph-name="c142" unicode="&#x40b;" horiz-adv-x="909" 
d="M164 303q0 49 3 139t3 130l-2 89l-102 -53q-8 18 -21 27q39 14 85 33t99 43q0 -63 -1 -99q-5 -181 -5 -207l1 -102q-7 2 -16 2h-13q-21 0 -31 -2zM667 787h52l-481 -886h-49zM575 0v10q78 69 115 105q42 41 73 88q25 42 25 83q0 42 -21 65t-57 23q-60 0 -85 -70
q-5 6 -14 17.5t-13 15.5q44 58 123 58q60 0 93.5 -28.5t33.5 -78.5q0 -52 -52 -107q-11 -11 -62 -58q-42 -39 -88 -83l66 -1q29 0 79 2.5t61 2.5l-1 -18q0 -18 2 -26l-138 1z" />
    <glyph glyph-name="c143" horiz-adv-x="911" 
d="M41 313q4 10 6.5 22t4.5 26q28 -47 94 -47q100 0 100 103q0 38 -22.5 59.5t-61.5 21.5q-19 0 -38 -5l1 13l-1 12h15q88 0 88 85q0 36 -19 56t-52 20q-55 0 -74 -52q-6 9 -12.5 16.5t-14.5 16.5q44 38 111 38q56 0 87 -25t31 -68q0 -65 -93 -97q56 0 85.5 -24.5
t29.5 -69.5q0 -53 -44.5 -87t-118.5 -34q-32 0 -55.5 5t-46.5 15zM668 787h52l-481 -886h-49zM759 0q2 25 3 38t1 42l-1 30l-98 1l-107 -1v8q52 61 109 135q41 52 106 140l21 -1l21 1q0 -38 -1 -84.5t-2 -89.5l1 -74l21 -1l40 2v-36l-61 2l-1 -66l2 -46l-26 1zM611 145h153
v195q-34 -33 -153 -195z" />
    <glyph glyph-name="c143" unicode="&#x40f;" horiz-adv-x="911" 
d="M41 313q4 10 6.5 22t4.5 26q28 -47 94 -47q100 0 100 103q0 38 -22.5 59.5t-61.5 21.5q-19 0 -38 -5l1 13l-1 12h15q88 0 88 85q0 36 -19 56t-52 20q-55 0 -74 -52q-6 9 -12.5 16.5t-14.5 16.5q44 38 111 38q56 0 87 -25t31 -68q0 -65 -93 -97q56 0 85.5 -24.5
t29.5 -69.5q0 -53 -44.5 -87t-118.5 -34q-32 0 -55.5 5t-46.5 15zM668 787h52l-481 -886h-49zM759 0q2 25 3 38t1 42l-1 30l-98 1l-107 -1v8q52 61 109 135q41 52 106 140l21 -1l21 1q0 -38 -1 -84.5t-2 -89.5l1 -74l21 -1l40 2v-36l-61 2l-1 -66l2 -46l-26 1zM611 145h153
v195q-34 -33 -153 -195z" />
    <glyph glyph-name="quoteleft" unicode="&#x2018;" horiz-adv-x="290" 
d="M222 756l17 -8l-75 -253q-15 -49 -48 -49q-39 0 -39 40q0 17 13 41z" />
    <glyph glyph-name="quoteright" unicode="&#x2019;" horiz-adv-x="289" 
d="M96 448l-17 8l75 253q15 49 48 49q39 0 39 -40q0 -17 -13 -41z" />
    <glyph glyph-name="quotedblleft" unicode="&#x201c;" horiz-adv-x="463" 
d="M221 758l17 -8l-75 -253q-15 -49 -48 -49q-39 0 -39 40q0 17 13 41zM393 758l17 -8l-75 -253q-15 -49 -48 -49q-39 0 -39 40q0 17 13 41z" />
    <glyph glyph-name="quotedblright" unicode="&#x201d;" horiz-adv-x="462" 
d="M269 448l-17 8l75 253q15 49 48 49q39 0 39 -40q0 -17 -13 -41zM97 448l-17 8l75 253q15 49 48 49q39 0 39 -40q0 -17 -13 -41z" />
    <glyph glyph-name="bullet" unicode="&#x2022;" horiz-adv-x="626" 
d="M159 394q0 64 45 108t109 44q63 0 107.5 -44.5t44.5 -107.5t-44.5 -108.5t-108.5 -45.5q-63 0 -108 45t-45 109z" />
    <glyph glyph-name="endash" unicode="&#x2013;" horiz-adv-x="530" 
d="M0 229v50h530v-50h-530z" />
    <glyph glyph-name="emdash" unicode="&#x2014;" horiz-adv-x="1060" 
d="M0 229v50h1060v-50h-1060z" />
    <glyph glyph-name="tilde" unicode="&#x2dc;" horiz-adv-x="530" 
d="M413 722q-19 -106 -100 -106q-16 0 -38 5l-57 15l-25 3q-22 0 -32 -9.5t-18 -37.5h-26q18 110 101 110q15 0 33 -5l57 -15l29 -5q34 0 49 45h27z" />
    <glyph glyph-name="trademark" unicode="&#x2122;" horiz-adv-x="883" 
d="M359 753v-30h-89v-245h-42v245h-91v30h222zM485 753l86 -219l81 219h60v-275h-37v242l-91 -242h-25l-97 242v-242h-37v275h60z" />
    <glyph glyph-name="guilsinglright" unicode="&#x203a;" horiz-adv-x="250" 
d="M18 472l22 28l170 -250l-170 -250l-22 28l125 222z" />
    <glyph glyph-name="nonbreakingspace" unicode="&#xa0;" horiz-adv-x="500" 
 />
    <glyph glyph-name="exclamdown" unicode="&#xa1;" horiz-adv-x="709" 
d="M609 725q18 -4 37 -4l37 4q-17 -29 -101 -190q-97 -188 -159 -310q-83 -165 -110 -225l-38 4l-42 -4q39 62 70 115q11 19 25 45q-11 24 -76 152q-87 170 -130 250q-72 134 -95 163l63 -4l59 4q58 -128 74 -162q24 -50 65.5 -133.5t83.5 -167.5l8 -3q14 25 59 113
q64 126 95 189q51 106 75 164zM590 929q-26 -115 -130 -115q-28 0 -98 16q-35 8 -56 8q-28 0 -41.5 -11t-23.5 -40h-34q23 120 131 120q17 0 78 -14t75 -14q24 0 39 12t25 38h35z" />
    <glyph glyph-name="exclamdown" unicode="&#x40e;" horiz-adv-x="709" 
d="M609 725q18 -4 37 -4l37 4q-17 -29 -101 -190q-97 -188 -159 -310q-83 -165 -110 -225l-38 4l-42 -4q39 62 70 115q11 19 25 45q-11 24 -76 152q-87 170 -130 250q-72 134 -95 163l63 -4l59 4q58 -128 74 -162q24 -50 65.5 -133.5t83.5 -167.5l8 -3q14 25 59 113
q64 126 95 189q51 106 75 164zM590 929q-26 -115 -130 -115q-28 0 -98 16q-35 8 -56 8q-28 0 -41.5 -11t-23.5 -40h-34q23 120 131 120q17 0 78 -14t75 -14q24 0 39 12t25 38h35z" />
    <glyph glyph-name="cent" unicode="&#xa2;" horiz-adv-x="495" 
d="M220 3l-44 117q-20 50 -50 120q-35 81 -116 260q23 -4 52 -4h31q14 3 20 4q16 -57 40 -121.5t74 -185.5l37 -91l38 88q78 179 119 310q15 -4 36 -4h17q12 3 18 4q-24 -46 -48 -98.5t-53 -119.5l-142 -321q-42 -95 -59 -138q-26 -65 -38 -112q-15 3 -19.5 3.5t-16.5 0.5
l-37 -4q30 51 54 99q13 25 63 137zM128 558q19 106 100 106q22 0 49 -7q62 -16 71 -16q22 0 32 9.5t18 37.5h26q-18 -110 -101 -110q-18 0 -45 7q-69 18 -74 18q-34 0 -49 -45h-27z" />
    <glyph glyph-name="cent" unicode="&#x45e;" horiz-adv-x="495" 
d="M220 3l-44 117q-20 50 -50 120q-35 81 -116 260q23 -4 52 -4h31q14 3 20 4q16 -57 40 -121.5t74 -185.5l37 -91l38 88q78 179 119 310q15 -4 36 -4h17q12 3 18 4q-24 -46 -48 -98.5t-53 -119.5l-142 -321q-42 -95 -59 -138q-26 -65 -38 -112q-15 3 -19.5 3.5t-16.5 0.5
l-37 -4q30 51 54 99q13 25 63 137zM128 558q19 106 100 106q22 0 49 -7q62 -16 71 -16q22 0 32 9.5t18 37.5h26q-18 -110 -101 -110q-18 0 -45 7q-69 18 -74 18q-34 0 -49 -45h-27z" />
    <glyph glyph-name="sterling" unicode="&#xa3;" 
d="M54 0l3 34l-3 35q91 0 123 38t32 138v13v12q0 21 -1 41.5t-4 39.5q-43 0 -106 -10v46q31 -4 77 -4h26l-6 94q0 110 54.5 169.5t155.5 59.5q83 0 131 -55l-51 -63q-14 83 -96 83q-117 0 -117 -155q0 -54 9 -133h33h12q20 0 41 1t43 4v-43q-39 4 -60 5t-46 1h-18v-24
q0 -88 -24.5 -152.5t-77.5 -105.5q48 0 225 10q88 5 141 5l-2 -41l2 -43q-47 0 -132 3t-121 3q-37 0 -118 -3t-125 -3z" />
    <glyph glyph-name="sterling" unicode="&#x408;" 
d="M54 0l3 34l-3 35q91 0 123 38t32 138v13v12q0 21 -1 41.5t-4 39.5q-43 0 -106 -10v46q31 -4 77 -4h26l-6 94q0 110 54.5 169.5t155.5 59.5q83 0 131 -55l-51 -63q-14 83 -96 83q-117 0 -117 -155q0 -54 9 -133h33h12q20 0 41 1t43 4v-43q-39 4 -60 5t-46 1h-18v-24
q0 -88 -24.5 -152.5t-77.5 -105.5q48 0 225 10q88 5 141 5l-2 -41l2 -43q-47 0 -132 3t-121 3q-37 0 -118 -3t-125 -3z" />
    <glyph glyph-name="currency" unicode="&#xa4;" horiz-adv-x="642" 
d="M186 627q63 46 135 46q75 0 136 -46l106 106l34 -34l-106 -106q45 -64 45 -135q0 -38 -11 -69.5t-34 -64.5l106 -107l-34 -34l-106 106q-63 -46 -136 -46q-71 0 -135 46l-106 -106l-34 34l106 107q-22 31 -34 64t-12 70q0 36 12 69.5t34 65.5l-106 106l34 34zM488 459
q0 68 -48 117t-118 49q-68 0 -118 -49t-50 -117q0 -69 49.5 -118.5t118.5 -49.5t117.5 49.5t48.5 118.5z" />
    <glyph glyph-name="yen" unicode="&#xa5;" 
d="M323 331v-90h67q35 0 76 1.5t66 2.5v-46q-35 0 -94.5 1t-114.5 2v-35q0 -36 2.5 -96t2.5 -71q-23 4 -40 4h-22q-13 -3 -19 -4q0 27 2 103t2 99h-55q-41 0 -77.5 -1t-70.5 -2v46q25 0 90 -2t75 -2h38v90q-64 0 -113 -1t-90 -2v47q31 0 96 -2.5t81 -2.5q-29 49 -59 100.5
t-61 105.5l-70 114q23 -6 49 -6l49 4q33 -80 69 -146q41 -74 100 -161q50 81 95 167q40 78 68 142l36 -6q16 0 43 6q-113 -169 -200 -320q72 0 114.5 1.5t73.5 3.5v-47q-62 0 -115 1t-94 2z" />
    <glyph glyph-name="yen" unicode="&#x490;" 
d="M323 331v-90h67q35 0 76 1.5t66 2.5v-46q-35 0 -94.5 1t-114.5 2v-35q0 -36 2.5 -96t2.5 -71q-23 4 -40 4h-22q-13 -3 -19 -4q0 27 2 103t2 99h-55q-41 0 -77.5 -1t-70.5 -2v46q25 0 90 -2t75 -2h38v90q-64 0 -113 -1t-90 -2v47q31 0 96 -2.5t81 -2.5q-29 49 -59 100.5
t-61 105.5l-70 114q23 -6 49 -6l49 4q33 -80 69 -146q41 -74 100 -161q50 81 95 167q40 78 68 142l36 -6q16 0 43 6q-113 -169 -200 -320q72 0 114.5 1.5t73.5 3.5v-47q-62 0 -115 1t-94 2z" />
    <glyph glyph-name="brokenbar" unicode="&#xa6;" horiz-adv-x="530" 
d="M293 741v-392h-56v392h56zM293 211v-392h-56v392h56z" />
    <glyph glyph-name="section" unicode="&#xa7;" horiz-adv-x="524" 
d="M71 -88q5 19 9 41t8 52q63 -87 159 -87q61 0 100 35t39 87q0 40 -25.5 64t-82.5 46l-77 30q-80 30 -113 62q-36 35 -36 88q0 76 79 138q-31 37 -31 95q0 77 50.5 126.5t133.5 49.5q48 0 85.5 -13t63.5 -38q-11 -17 -20.5 -34.5t-16.5 -33.5q-40 85 -124 85q-53 0 -86 -32
t-33 -81q0 -38 25 -63q22 -22 79 -46l81 -34q72 -30 99 -57q33 -33 33 -87q0 -63 -69 -130q41 -33 41 -102q0 -87 -61.5 -142.5t-161.5 -55.5q-48 0 -86 9.5t-62 27.5zM384 190q15 22 23.5 42t8.5 36q0 35 -26 58q-20 18 -86 48l-75 35q-46 21 -79 43q-45 -31 -45 -82
q0 -61 135 -116l67 -27q48 -19 77 -37z" />
    <glyph glyph-name="dieresis" unicode="&#xa8;" horiz-adv-x="525" 
d="M189 362v-52q0 -35 3 -135t3 -126h22q44 0 117 3t138 9l-1 -32l1 -33q-20 2 -75.5 3t-106.5 1h-192q3 35 5 150t2 217q0 215 -1 259.5t-6 98.5q24 0 73 -2.5t67 -2.5q38 0 128.5 2.5t106.5 2.5l-2 -36l2 -34q-79 16 -256 16h-25q0 -25 -1 -60t-2 -66v-138h84q22 0 87 3
t94 3l-2 -30l2 -30q-94 9 -181 9h-84zM147 868q0 23 15 38t38 15q22 0 38 -15t16 -38q0 -22 -16 -38t-38 -16q-23 0 -38 15t-15 39zM309 868q0 23 15 38t38 15q22 0 38 -15t16 -38q0 -22 -16 -38t-38 -16q-23 0 -38 15t-15 39z" />
    <glyph glyph-name="dieresis" unicode="&#x401;" horiz-adv-x="525" 
d="M189 362v-52q0 -35 3 -135t3 -126h22q44 0 117 3t138 9l-1 -32l1 -33q-20 2 -75.5 3t-106.5 1h-192q3 35 5 150t2 217q0 215 -1 259.5t-6 98.5q24 0 73 -2.5t67 -2.5q38 0 128.5 2.5t106.5 2.5l-2 -36l2 -34q-79 16 -256 16h-25q0 -25 -1 -60t-2 -66v-138h84q22 0 87 3
t94 3l-2 -30l2 -30q-94 9 -181 9h-84zM147 868q0 23 15 38t38 15q22 0 38 -15t16 -38q0 -22 -16 -38t-38 -16q-23 0 -38 15t-15 39zM309 868q0 23 15 38t38 15q22 0 38 -15t16 -38q0 -22 -16 -38t-38 -16q-23 0 -38 15t-15 39z" />
    <glyph glyph-name="copyright" unicode="&#xa9;" horiz-adv-x="883" 
d="M441 753q165 0 272 -110.5t107 -268.5q0 -159 -112 -269t-267 -110q-154 0 -266 111t-112 268q0 153 106 264q110 115 272 115zM779 374q0 146 -102 244q-98 94 -236 94q-139 0 -238 -101t-99 -237t100.5 -236.5t236.5 -100.5q134 0 234 94q104 98 104 243zM555 474
q-9 41 -38 64t-74 23q-63 0 -98 -48t-35 -140q0 -87 36 -135t97 -48q46 0 78 26t41 71h59q0 -64 -52.5 -105.5t-128.5 -41.5q-90 0 -143.5 62.5t-53.5 173.5q0 106 55.5 169.5t146.5 63.5q70 0 117 -37t54 -98h-61z" />
    <glyph glyph-name="ordfeminine" unicode="&#xaa;" horiz-adv-x="709" 
d="M144 407q0 111 80 198q86 93 212 93q71 0 137 -38q44 -25 66 -53l7 1q8 46 22 82q-110 48 -228 48q-176 0 -285 -97q-115 -102 -115 -277t99.5 -276.5t273.5 -101.5q66 0 130 15t105 46q-4 15 -8.5 37.5t-6.5 36.5q-33 -36 -73 -59q-64 -36 -138 -36q-126 0 -202 90.5
t-76 243.5h231q37 0 80.5 -2t78.5 -3q-3 11 -3 29l3 28q-19 -2 -60 -3.5t-99 -1.5h-231z" />
    <glyph glyph-name="ordfeminine" unicode="&#x404;" horiz-adv-x="709" 
d="M144 407q0 111 80 198q86 93 212 93q71 0 137 -38q44 -25 66 -53l7 1q8 46 22 82q-110 48 -228 48q-176 0 -285 -97q-115 -102 -115 -277t99.5 -276.5t273.5 -101.5q66 0 130 15t105 46q-4 15 -8.5 37.5t-6.5 36.5q-33 -36 -73 -59q-64 -36 -138 -36q-126 0 -202 90.5
t-76 243.5h231q37 0 80.5 -2t78.5 -3q-3 11 -3 29l3 28q-19 -2 -60 -3.5t-99 -1.5h-231z" />
    <glyph glyph-name="guillemotleft" unicode="&#xab;" horiz-adv-x="449" 
d="M231 28l-22 -28l-171 250l171 250l22 -28l-125 -222zM429 28l-21 -28l-172 250l172 250l21 -28l-125 -222z" />
    <glyph glyph-name="logicalnot" unicode="&#xac;" horiz-adv-x="883" 
d="M752 444v-259h-50v207h-571v52h621z" />
    <glyph glyph-name="minus" unicode="&#xad;" horiz-adv-x="883" 
d="M752 341v-50h-621v50h621z" />
    <glyph glyph-name="registered" unicode="&#xae;" horiz-adv-x="883" 
d="M441 753q163 0 271 -111t108 -268q0 -158 -112.5 -268.5t-266.5 -110.5q-155 0 -266.5 110.5t-111.5 268.5q0 151 107 263q111 116 271 116zM779 373q0 145 -99 242t-239 97q-139 0 -238 -101t-99 -237t100.5 -236.5t236.5 -100.5q135 0 234 94q104 98 104 242zM453 599
q180 0 180 -121q0 -46 -27.5 -77t-75.5 -38l98 -201h-76l-92 192h-101v-192h-66v437h160zM359 554v-157h81q67 0 96 16.5t29 60.5q0 43 -29.5 61.5t-95.5 18.5h-81z" />
    <glyph glyph-name="macron" unicode="&#xaf;" horiz-adv-x="291" 
d="M195 725q-3 -35 -5 -146.5t-2 -213.5q0 -82 0.5 -189.5t6.5 -175.5q-22 4 -49 4t-49 -4q3 35 5 149t2 216q0 81 -0.5 186.5t-6.5 173.5q22 -4 49 -4t49 4zM9 868q0 23 15 38t38 15q22 0 38 -15t16 -38q0 -22 -16 -38t-38 -16q-23 0 -38 15t-15 39zM171 868q0 23 15 38
t38 15q22 0 38 -15t16 -38q0 -22 -16 -38t-38 -16q-23 0 -38 15t-15 39z" />
    <glyph glyph-name="macron" unicode="&#x407;" horiz-adv-x="291" 
d="M195 725q-3 -35 -5 -146.5t-2 -213.5q0 -82 0.5 -189.5t6.5 -175.5q-22 4 -49 4t-49 -4q3 35 5 149t2 216q0 81 -0.5 186.5t-6.5 173.5q22 -4 49 -4t49 4zM9 868q0 23 15 38t38 15q22 0 38 -15t16 -38q0 -22 -16 -38t-38 -16q-23 0 -38 15t-15 39zM171 868q0 23 15 38
t38 15q22 0 38 -15t16 -38q0 -22 -16 -38t-38 -16q-23 0 -38 15t-15 39z" />
    <glyph glyph-name="degree" unicode="&#xb0;" horiz-adv-x="349" 
d="M175 751q60 0 101.5 -42.5t41.5 -101.5t-41.5 -101.5t-102.5 -42.5t-102 41t-41 103q0 60 42 102t102 42zM282 607q0 44 -31 76t-76 32q-44 0 -76 -32t-32 -76q0 -45 32 -76t76 -31q45 0 76 31t31 76z" />
    <glyph glyph-name="plusminus" unicode="&#xb1;" horiz-adv-x="883" 
d="M467 605v-181h285v-50h-285v-180h-50v180h-286v50h286v181h50zM752 77v-50h-621v50h621z" />
    <glyph glyph-name="twosuperior" unicode="&#xb2;" horiz-adv-x="291" 
d="M195 725q-3 -35 -5 -146.5t-2 -213.5q0 -82 0.5 -189.5t6.5 -175.5q-22 4 -49 4t-49 -4q3 35 5 149t2 216q0 81 -0.5 186.5t-6.5 173.5q22 -4 49 -4t49 4z" />
    <glyph glyph-name="twosuperior" unicode="&#x406;" horiz-adv-x="291" 
d="M195 725q-3 -35 -5 -146.5t-2 -213.5q0 -82 0.5 -189.5t6.5 -175.5q-22 4 -49 4t-49 -4q3 35 5 149t2 216q0 81 -0.5 186.5t-6.5 173.5q22 -4 49 -4t49 4z" />
    <glyph glyph-name="threesuperior" unicode="&#xb3;" horiz-adv-x="262" 
d="M77 685q0 23 15 38t38 15q22 0 38 -15t16 -38q0 -22 -16 -38t-38 -16q-23 0 -38 15t-15 39zM176 500q0 -50 -2.5 -134t-2.5 -103q0 -61 2.5 -155.5t2.5 -107.5q-8 2 -20.5 3t-24.5 1q-24 0 -43 -4q0 56 2.5 150t2.5 113q0 56 -1 90q-4 137 -4 147q19 -4 43 -4h23
q16 3 22 4z" />
    <glyph glyph-name="threesuperior" unicode="&#x456;" horiz-adv-x="262" 
d="M77 685q0 23 15 38t38 15q22 0 38 -15t16 -38q0 -22 -16 -38t-38 -16q-23 0 -38 15t-15 39zM176 500q0 -50 -2.5 -134t-2.5 -103q0 -61 2.5 -155.5t2.5 -107.5q-8 2 -20.5 3t-24.5 1q-24 0 -43 -4q0 56 2.5 150t2.5 113q0 56 -1 90q-4 137 -4 147q19 -4 43 -4h23
q16 3 22 4z" />
    <glyph glyph-name="acute" unicode="&#xb4;" horiz-adv-x="530" 
d="M209 568h-35l150 155q15 15 26.5 22.5t23.5 7.5q18 0 28 -10t10 -27q0 -22 -32 -42z" />
    <glyph glyph-name="acute" unicode="&#x491;" horiz-adv-x="530" 
d="M209 568h-35l150 155q15 15 26.5 22.5t23.5 7.5q18 0 28 -10t10 -27q0 -22 -32 -42z" />
    <glyph glyph-name="mu" unicode="&#xb5;" horiz-adv-x="575" 
d="M106 550h73l-65 -307q-3 -14 -6 -38t-3 -34q0 -60 30 -93t87 -33q133 0 180 217l63 288h72l-85 -399q-12 -53 -12 -69q0 -18 7.5 -27.5t24.5 -9.5l22 5l-10 -58q-24 -6 -45 -6q-71 0 -71 76v8q-21 -40 -61 -62t-93 -22q-98 0 -139 80l-60 -288h-72z" />
    <glyph glyph-name="paragraph" unicode="&#xb6;" horiz-adv-x="530" 
d="M487 730h-67v-730h-42v730h-97v-730h-42v405q-90 0 -143 50t-53 130t55.5 130.5t148.5 50.5h240v-36z" />
    <glyph glyph-name="periodcentered" unicode="&#xb7;" horiz-adv-x="290" 
d="M91 352q0 23 15 38t38 15q22 0 38 -15t16 -38q0 -22 -16 -38t-38 -16q-23 0 -38 15t-15 39z" />
    <glyph glyph-name="periodcentered" unicode="&#x2219;" horiz-adv-x="290" 
d="M91 352q0 23 15 38t38 15q22 0 38 -15t16 -38q0 -22 -16 -38t-38 -16q-23 0 -38 15t-15 39z" />
    <glyph glyph-name="cedilla" unicode="&#xb8;" horiz-adv-x="536" 
d="M131 293h279v18q0 79 -35 122t-97 43t-104.5 -49.5t-42.5 -133.5zM468 51q-82 -61 -180 -61q-112 0 -181 72t-69 187q0 119 67 190t177 71q102 0 157 -59t55 -170v-25h-365q0 -110 46 -167t132 -57q91 0 164 72q-2 -12 -2.5 -30.5t-0.5 -22.5zM129 685q0 23 15 38t38 15
q22 0 38 -15t16 -38q0 -22 -16 -38t-38 -16q-23 0 -38 15t-15 39zM291 685q0 23 15 38t38 15q22 0 38 -15t16 -38q0 -22 -16 -38t-38 -16q-23 0 -38 15t-15 39z" />
    <glyph glyph-name="cedilla" unicode="&#x451;" horiz-adv-x="536" 
d="M131 293h279v18q0 79 -35 122t-97 43t-104.5 -49.5t-42.5 -133.5zM468 51q-82 -61 -180 -61q-112 0 -181 72t-69 187q0 119 67 190t177 71q102 0 157 -59t55 -170v-25h-365q0 -110 46 -167t132 -57q91 0 164 72q-2 -12 -2.5 -30.5t-0.5 -22.5zM129 685q0 23 15 38t38 15
q22 0 38 -15t16 -38q0 -22 -16 -38t-38 -16q-23 0 -38 15t-15 39zM291 685q0 23 15 38t38 15q22 0 38 -15t16 -38q0 -22 -16 -38t-38 -16q-23 0 -38 15t-15 39z" />
    <glyph glyph-name="onesuperior" unicode="&#xb9;" horiz-adv-x="1101" 
d="M63 0q3 31 5 232t2 393v113h20q94 -109 183 -206q67 -73 175 -185q95 -99 163 -167l2 93q0 109 -2.5 219.5t-4.5 232.5q15 -4 33 -4t31 4q0 -78 -3.5 -248.5t-3.5 -250.5l2 -240h-14q-48 60 -119 139q-63 70 -152 164l-257 270l-3 -138q0 -3 5 -231q2 -91 2 -190
q-16 4 -34 4q-17 0 -30 -4zM904 647q69 0 114 -47t45 -124q0 -82 -47 -128t-123 -46q-69 0 -111 47t-42 126q0 75 46.5 123.5t117.5 48.5zM903 615q-40 0 -62.5 -36.5t-22.5 -100.5q0 -77 20 -110.5t65 -33.5q82 0 82 136q0 77 -18.5 111t-63.5 34zM753 150v68h279v-68h-279
z" />
    <glyph glyph-name="onesuperior" unicode="&#x2116;" horiz-adv-x="1101" 
d="M63 0q3 31 5 232t2 393v113h20q94 -109 183 -206q67 -73 175 -185q95 -99 163 -167l2 93q0 109 -2.5 219.5t-4.5 232.5q15 -4 33 -4t31 4q0 -78 -3.5 -248.5t-3.5 -250.5l2 -240h-14q-48 60 -119 139q-63 70 -152 164l-257 270l-3 -138q0 -3 5 -231q2 -91 2 -190
q-16 4 -34 4q-17 0 -30 -4zM904 647q69 0 114 -47t45 -124q0 -82 -47 -128t-123 -46q-69 0 -111 47t-42 126q0 75 46.5 123.5t117.5 48.5zM903 615q-40 0 -62.5 -36.5t-22.5 -100.5q0 -77 20 -110.5t65 -33.5q82 0 82 136q0 77 -18.5 111t-63.5 34zM753 150v68h279v-68h-279
z" />
    <glyph glyph-name="ordmasculine" unicode="&#xba;" horiz-adv-x="490" 
d="M121 276q0 95 48.5 147.5t128.5 52.5q99 0 144 -100q10 48 28 91q-82 43 -172 43q-119 0 -191 -71t-72 -190t68 -189t180 -70q57 0 101.5 12.5t79.5 39.5l-2 22l3 39q-75 -76 -159 -76q-82 0 -133.5 56.5t-51.5 155.5h102q35 0 66 -2t60 -5v51q-28 -2 -66.5 -4.5
t-59.5 -2.5h-102z" />
    <glyph glyph-name="ordmasculine" unicode="&#x454;" horiz-adv-x="490" 
d="M121 276q0 95 48.5 147.5t128.5 52.5q99 0 144 -100q10 48 28 91q-82 43 -172 43q-119 0 -191 -71t-72 -190t68 -189t180 -70q57 0 101.5 12.5t79.5 39.5l-2 22l3 39q-75 -76 -159 -76q-82 0 -133.5 56.5t-51.5 155.5h102q35 0 66 -2t60 -5v51q-28 -2 -66.5 -4.5
t-59.5 -2.5h-102z" />
    <glyph glyph-name="guillemotright" unicode="&#xbb;" horiz-adv-x="449" 
d="M18 472l22 28l171 -250l-171 -250l-22 28l125 222zM217 472l21 28l172 -250l-172 -250l-21 28l125 222z" />
    <glyph glyph-name="onequarter" unicode="&#xbc;" horiz-adv-x="346" 
d="M115 49q0 25 17 42t42 17q24 0 41 -17t17 -42q0 -24 -17 -41t-41 -17q-25 0 -42 16t-17 42zM115 417q0 25 17 42t42 17q24 0 41 -17t17 -42q0 -24 -17 -41t-41 -17q-25 0 -42 16t-17 42zM28 202v63h297v-63h-297z" />
    <glyph glyph-name="onequarter" unicode="&#x458;" horiz-adv-x="346" 
d="M115 49q0 25 17 42t42 17q24 0 41 -17t17 -42q0 -24 -17 -41t-41 -17q-25 0 -42 16t-17 42zM115 417q0 25 17 42t42 17q24 0 41 -17t17 -42q0 -24 -17 -41t-41 -17q-25 0 -42 16t-17 42zM28 202v63h297v-63h-297z" />
    <glyph glyph-name="onehalf" unicode="&#xbd;" horiz-adv-x="883" 
d="M683 521l-206 -206l202 -201l-36 -36l-201 202l-206 -206l-35 36l205 205l-202 203l35 35l203 -202l205 205z" />
    <glyph glyph-name="onehalf" unicode="&#x405;" horiz-adv-x="883" 
d="M683 521l-206 -206l202 -201l-36 -36l-201 202l-206 -206l-35 36l205 205l-202 203l35 35l203 -202l205 205z" />
    <glyph glyph-name="questiondown" unicode="&#xbf;" horiz-adv-x="262" 
d="M176 500q0 -50 -2.5 -134t-2.5 -103q0 -61 2.5 -155.5t2.5 -107.5q-8 2 -20.5 3t-24.5 1q-24 0 -43 -4q0 56 2.5 150t2.5 113q0 56 -1 90q-4 137 -4 147q19 -4 43 -4h23q16 3 22 4zM-4 685q0 23 15 38t38 15q22 0 38 -15t16 -38q0 -22 -16 -38t-38 -16q-23 0 -38 15
t-15 39zM158 685q0 23 15 38t38 15q22 0 38 -15t16 -38q0 -22 -16 -38t-38 -16q-23 0 -38 15t-15 39z" />
    <glyph glyph-name="questiondown" unicode="&#x457;" horiz-adv-x="262" 
d="M176 500q0 -50 -2.5 -134t-2.5 -103q0 -61 2.5 -155.5t2.5 -107.5q-8 2 -20.5 3t-24.5 1q-24 0 -43 -4q0 56 2.5 150t2.5 113q0 56 -1 90q-4 137 -4 147q19 -4 43 -4h23q16 3 22 4zM-4 685q0 23 15 38t38 15q22 0 38 -15t16 -38q0 -22 -16 -38t-38 -16q-23 0 -38 15
t-15 39zM158 685q0 23 15 38t38 15q22 0 38 -15t16 -38q0 -22 -16 -38t-38 -16q-23 0 -38 15t-15 39z" />
    <glyph glyph-name="Agrave" unicode="&#xc0;" horiz-adv-x="656" 
d="M-5 0q174 378 328 738h20q52 -129 103 -254q46 -111 103 -246q63 -150 102 -238q-23 4 -52 4h-22.5t-31.5 -4q-21 64 -40 114q-25 66 -51 127l-18 42l-130 2l-131 -2q-14 -31 -43 -104q-34 -86 -67 -179q-6 2 -15.5 3t-19.5 1q-15 0 -23.5 -2t-11.5 -2zM306 593
l-113 -261l80 -2l142 2l-18 44z" />
    <glyph glyph-name="Agrave" unicode="&#x410;" horiz-adv-x="656" 
d="M-5 0q174 378 328 738h20q52 -129 103 -254q46 -111 103 -246q63 -150 102 -238q-23 4 -52 4h-22.5t-31.5 -4q-21 64 -40 114q-25 66 -51 127l-18 42l-130 2l-131 -2q-14 -31 -43 -104q-34 -86 -67 -179q-6 2 -15.5 3t-19.5 1q-15 0 -23.5 -2t-11.5 -2zM306 593
l-113 -261l80 -2l142 2l-18 44z" />
    <glyph glyph-name="Aacute" unicode="&#xc1;" horiz-adv-x="629" 
d="M186 363l-3 -104q0 -73 1 -120.5t5 -90.5q41 -9 72 -9q94 0 147.5 44t53.5 122q0 163 -205 163q-9 0 -35 -2.5t-36 -2.5zM183 401l77 2q155 0 231 -60q64 -51 64 -140q0 -207 -287 -207l-125 4q-16 0 -30.5 -0.5t-29.5 -3.5q3 35 5 150.5t2 218.5q0 81 -0.5 186.5
t-6.5 173.5q20 0 90 -3t95 -3q23 0 130 2t130 2l-3 -31l3 -31q-47 0 -96 3q-146 9 -164 9h-36.5t-41.5 -3q-4 -41 -5.5 -90t-1.5 -179z" />
    <glyph glyph-name="Aacute" unicode="&#x411;" horiz-adv-x="629" 
d="M186 363l-3 -104q0 -73 1 -120.5t5 -90.5q41 -9 72 -9q94 0 147.5 44t53.5 122q0 163 -205 163q-9 0 -35 -2.5t-36 -2.5zM183 401l77 2q155 0 231 -60q64 -51 64 -140q0 -207 -287 -207l-125 4q-16 0 -30.5 -0.5t-29.5 -3.5q3 35 5 150.5t2 218.5q0 81 -0.5 186.5
t-6.5 173.5q20 0 90 -3t95 -3q23 0 130 2t130 2l-3 -31l3 -31q-47 0 -96 3q-146 9 -164 9h-36.5t-41.5 -3q-4 -41 -5.5 -90t-1.5 -179z" />
    <glyph glyph-name="Acircumflex" unicode="&#xc2;" horiz-adv-x="632" 
d="M187 361v-105q0 -72 1 -118t5 -89q41 -9 72 -9q94 0 147.5 44t53.5 122q0 83 -50 121t-155 38zM278 725q125 0 187.5 -38.5t62.5 -124.5q0 -69 -40.5 -113t-123.5 -60q198 -21 198 -175q0 -106 -72 -162t-214 -56q-24 0 -68 2t-57 2q-14 0 -26.5 -0.5t-26.5 -3.5
q3 35 5 150.5t2 218.5q0 81 -0.5 186.5t-6.5 173.5l52 -4q9 0 52 2t76 2zM187 407l3 -1q13 -2 29.5 -3t30.5 -1q95 0 138.5 38.5t43.5 115.5q0 67 -37 99q-40 35 -124 35q-31 0 -43 -1q-23 -4 -33 -5q-3 -15 -5.5 -67t-2.5 -69v-141z" />
    <glyph glyph-name="Acircumflex" unicode="&#x412;" horiz-adv-x="632" 
d="M187 361v-105q0 -72 1 -118t5 -89q41 -9 72 -9q94 0 147.5 44t53.5 122q0 83 -50 121t-155 38zM278 725q125 0 187.5 -38.5t62.5 -124.5q0 -69 -40.5 -113t-123.5 -60q198 -21 198 -175q0 -106 -72 -162t-214 -56q-24 0 -68 2t-57 2q-14 0 -26.5 -0.5t-26.5 -3.5
q3 35 5 150.5t2 218.5q0 81 -0.5 186.5t-6.5 173.5l52 -4q9 0 52 2t76 2zM187 407l3 -1q13 -2 29.5 -3t30.5 -1q95 0 138.5 38.5t43.5 115.5q0 67 -37 99q-40 35 -124 35q-31 0 -43 -1q-23 -4 -33 -5q-3 -15 -5.5 -67t-2.5 -69v-141z" />
    <glyph glyph-name="Atilde" unicode="&#xc3;" horiz-adv-x="522" 
d="M193 671q0 -25 -1 -60t-2 -66v-427q0 -51 1.5 -78t5.5 -40q-22 4 -49 4t-49 -4q3 35 5 149t2 216q0 81 -0.5 186.5t-6.5 173.5q24 0 73 -2.5t67 -2.5q38 0 128.5 2.5t106.5 2.5l-2 -36l2 -34q-79 16 -256 16h-25z" />
    <glyph glyph-name="Atilde" unicode="&#x413;" horiz-adv-x="522" 
d="M193 671q0 -25 -1 -60t-2 -66v-427q0 -51 1.5 -78t5.5 -40q-22 4 -49 4t-49 -4q3 35 5 149t2 216q0 81 -0.5 186.5t-6.5 173.5q24 0 73 -2.5t67 -2.5q38 0 128.5 2.5t106.5 2.5l-2 -36l2 -34q-79 16 -256 16h-25z" />
    <glyph glyph-name="Adieresis" unicode="&#xc4;" horiz-adv-x="771" 
d="M71 50q30 65 100 226q79 181 119 275q62 146 77 187h38l288 -688h59q-3 -22 -5 -74.5t-2 -93.5h-9q-34 84 -63.5 101t-127.5 17h-325q-98 0 -129.5 -19.5t-63.5 -98.5h-9v22q0 31 -0.5 70.5t-5.5 75.5h59zM593 50l-225 560q-66 -141 -117 -264q-61 -146 -112 -296h454z
" />
    <glyph glyph-name="Adieresis" unicode="&#x414;" horiz-adv-x="771" 
d="M71 50q30 65 100 226q79 181 119 275q62 146 77 187h38l288 -688h59q-3 -22 -5 -74.5t-2 -93.5h-9q-34 84 -63.5 101t-127.5 17h-325q-98 0 -129.5 -19.5t-63.5 -98.5h-9v22q0 31 -0.5 70.5t-5.5 75.5h59zM593 50l-225 560q-66 -141 -117 -264q-61 -146 -112 -296h454z
" />
    <glyph glyph-name="Aring" unicode="&#xc5;" horiz-adv-x="525" 
d="M189 362v-52q0 -35 3 -135t3 -126h22q44 0 117 3t138 9l-1 -32l1 -33q-20 2 -75.5 3t-106.5 1h-192q3 35 5 150t2 217q0 215 -1 259.5t-6 98.5q24 0 73 -2.5t67 -2.5q38 0 128.5 2.5t106.5 2.5l-2 -36l2 -34q-79 16 -256 16h-25q0 -25 -1 -60t-2 -66v-138h84q22 0 87 3
t94 3l-2 -30l2 -30q-94 9 -181 9h-84z" />
    <glyph glyph-name="Aring" unicode="&#x415;" horiz-adv-x="525" 
d="M189 362v-52q0 -35 3 -135t3 -126h22q44 0 117 3t138 9l-1 -32l1 -33q-20 2 -75.5 3t-106.5 1h-192q3 35 5 150t2 217q0 215 -1 259.5t-6 98.5q24 0 73 -2.5t67 -2.5q38 0 128.5 2.5t106.5 2.5l-2 -36l2 -34q-79 16 -256 16h-25q0 -25 -1 -60t-2 -66v-138h84q22 0 87 3
t94 3l-2 -30l2 -30q-94 9 -181 9h-84z" />
    <glyph glyph-name="AE" unicode="&#xc6;" horiz-adv-x="980" 
d="M535 725q0 -11 -3.5 -88t-3.5 -121v-127l6 -4q39 0 322 340q10 -2 23 -3t25 -1q26 0 47 4q-33 -25 -101 -92q-15 -15 -80 -79l-155 -154q38 -48 103 -121q9 -10 121 -133q58 -63 131 -147q-35 5 -62 5q-19 0 -29 -1t-31 -4q-64 89 -124 164l-122 150q-20 25 -38.5 38.5
t-35.5 13.5v-93q0 -57 0.5 -130t6.5 -142q-10 2 -23 3t-25 1h-30q-14 -3 -20 -4q3 35 5 119t2 154v92q-16 0 -34.5 -14t-38.5 -38l-122 -150q-60 -75 -124 -164q-27 4 -40 4.5t-20 0.5q-27 0 -62 -5q51 59 131 146q110 121 121 133q57 64 103 122l-155 154q-40 39 -79 78
q-68 66 -103 93q10 -2 23 -3t25 -1q27 0 48 4q283 -340 322 -340l5 4q0 83 -3.5 201t-3.5 135q10 -2 24.5 -3t24.5 -1q27 0 49 4z" />
    <glyph glyph-name="AE" unicode="&#x416;" horiz-adv-x="980" 
d="M535 725q0 -11 -3.5 -88t-3.5 -121v-127l6 -4q39 0 322 340q10 -2 23 -3t25 -1q26 0 47 4q-33 -25 -101 -92q-15 -15 -80 -79l-155 -154q38 -48 103 -121q9 -10 121 -133q58 -63 131 -147q-35 5 -62 5q-19 0 -29 -1t-31 -4q-64 89 -124 164l-122 150q-20 25 -38.5 38.5
t-35.5 13.5v-93q0 -57 0.5 -130t6.5 -142q-10 2 -23 3t-25 1h-30q-14 -3 -20 -4q3 35 5 119t2 154v92q-16 0 -34.5 -14t-38.5 -38l-122 -150q-60 -75 -124 -164q-27 4 -40 4.5t-20 0.5q-27 0 -62 -5q51 59 131 146q110 121 121 133q57 64 103 122l-155 154q-40 39 -79 78
q-68 66 -103 93q10 -2 23 -3t25 -1q27 0 48 4q283 -340 322 -340l5 4q0 83 -3.5 201t-3.5 135q10 -2 24.5 -3t24.5 -1q27 0 49 4z" />
    <glyph glyph-name="Ccedilla" unicode="&#xc7;" horiz-adv-x="633" 
d="M280 362l-95 -3q4 8 4 23q0 14 -4 22l83 -2q79 0 119.5 42.5t40.5 109.5q0 61 -28 98q-35 46 -109 46q-64 0 -109 -22.5t-68 -63.5l-34 60q36 32 93 49t124 17q107 0 171.5 -47t64.5 -135q0 -130 -169 -170q90 0 149.5 -50.5t59.5 -131.5q0 -109 -74.5 -163.5
t-214.5 -54.5q-65 0 -129 15t-108 46q6 14 10.5 35t6.5 40q28 -38 90.5 -67t121.5 -29q90 0 138.5 46.5t48.5 130.5q0 72 -49 115.5t-134 43.5z" />
    <glyph glyph-name="Ccedilla" unicode="&#x417;" horiz-adv-x="633" 
d="M280 362l-95 -3q4 8 4 23q0 14 -4 22l83 -2q79 0 119.5 42.5t40.5 109.5q0 61 -28 98q-35 46 -109 46q-64 0 -109 -22.5t-68 -63.5l-34 60q36 32 93 49t124 17q107 0 171.5 -47t64.5 -135q0 -130 -169 -170q90 0 149.5 -50.5t59.5 -131.5q0 -109 -74.5 -163.5
t-214.5 -54.5q-65 0 -129 15t-108 46q6 14 10.5 35t6.5 40q28 -38 90.5 -67t121.5 -29q90 0 138.5 46.5t48.5 130.5q0 72 -49 115.5t-134 43.5z" />
    <glyph glyph-name="Egrave" unicode="&#xc8;" horiz-adv-x="826" 
d="M636 593l-495 -593q-6 4 -14 4l-15 -4q3 35 5 149t2 216q0 81 -0.5 186.5t-6.5 173.5q22 -4 49 -4t49 4q0 -11 -3.5 -88t-3.5 -121q0 -94 1.5 -167.5t4.5 -169.5l462 545l28 -3q19 0 32 4q-3 -35 -5 -146.5t-2 -213.5q0 -82 0.5 -189.5t6.5 -175.5q-22 4 -49 4t-49 -4
q3 98 5 168.5t2 147.5q0 60 -1.5 130.5t-2.5 146.5z" />
    <glyph glyph-name="Egrave" unicode="&#x418;" horiz-adv-x="826" 
d="M636 593l-495 -593q-6 4 -14 4l-15 -4q3 35 5 149t2 216q0 81 -0.5 186.5t-6.5 173.5q22 -4 49 -4t49 4q0 -11 -3.5 -88t-3.5 -121q0 -94 1.5 -167.5t4.5 -169.5l462 545l28 -3q19 0 32 4q-3 -35 -5 -146.5t-2 -213.5q0 -82 0.5 -189.5t6.5 -175.5q-22 4 -49 4t-49 -4
q3 98 5 168.5t2 147.5q0 60 -1.5 130.5t-2.5 146.5z" />
    <glyph glyph-name="Eacute" unicode="&#xc9;" horiz-adv-x="826" 
d="M636 593l-495 -593q-5 4 -14 4q-8 0 -15 -4q3 35 5 149t2 216q0 81 -0.5 186.5t-6.5 173.5q22 -4 49 -4t49 4q0 -11 -3.5 -88t-3.5 -121q0 -94 1.5 -167.5t4.5 -169.5l462 545l28 -3q19 0 32 4q-3 -35 -5 -146.5t-2 -213.5q0 -82 0.5 -189.5t6.5 -175.5q-22 4 -49 4
t-49 -4q3 98 5 168.5t2 147.5q0 60 -1.5 130.5t-2.5 146.5zM623 929q-26 -115 -130 -115q-28 0 -98 16q-35 8 -56 8q-28 0 -41.5 -11t-23.5 -40h-34q23 120 131 120q17 0 78 -14t75 -14q24 0 39 12t25 38h35z" />
    <glyph glyph-name="Eacute" unicode="&#x419;" horiz-adv-x="826" 
d="M636 593l-495 -593q-5 4 -14 4q-8 0 -15 -4q3 35 5 149t2 216q0 81 -0.5 186.5t-6.5 173.5q22 -4 49 -4t49 4q0 -11 -3.5 -88t-3.5 -121q0 -94 1.5 -167.5t4.5 -169.5l462 545l28 -3q19 0 32 4q-3 -35 -5 -146.5t-2 -213.5q0 -82 0.5 -189.5t6.5 -175.5q-22 4 -49 4
t-49 -4q3 98 5 168.5t2 147.5q0 60 -1.5 130.5t-2.5 146.5zM623 929q-26 -115 -130 -115q-28 0 -98 16q-35 8 -56 8q-28 0 -41.5 -11t-23.5 -40h-34q23 120 131 120q17 0 78 -14t75 -14q24 0 39 12t25 38h35z" />
    <glyph glyph-name="Ecircumflex" unicode="&#xca;" horiz-adv-x="634" 
d="M191 386q49 0 332 339q20 -4 47 -4q32 0 48 4q-35 -27 -100 -91l-79 -79l-155 -154q40 -51 100 -121q15 -18 116 -133q64 -74 128 -147q-28 4 -62 4h-26t-34 -4q-64 89 -124 164l-122 150q-42 52 -74 52v-126q0 -42 3.5 -126t3.5 -114q-22 4 -49 4t-49 -4q3 35 5 149
t2 216q0 81 -0.5 186.5t-6.5 173.5q22 -4 49 -4t49 4q-3 -34 -5 -77.5t-2 -95.5v-162q0 -2 5 -4z" />
    <glyph glyph-name="Ecircumflex" unicode="&#x41a;" horiz-adv-x="634" 
d="M191 386q49 0 332 339q20 -4 47 -4q32 0 48 4q-35 -27 -100 -91l-79 -79l-155 -154q40 -51 100 -121q15 -18 116 -133q64 -74 128 -147q-28 4 -62 4h-26t-34 -4q-64 89 -124 164l-122 150q-42 52 -74 52v-126q0 -42 3.5 -126t3.5 -114q-22 4 -49 4t-49 -4q3 35 5 149
t2 216q0 81 -0.5 186.5t-6.5 173.5q22 -4 49 -4t49 4q-3 -34 -5 -77.5t-2 -95.5v-162q0 -2 5 -4z" />
    <glyph glyph-name="Edieresis" unicode="&#xcb;" horiz-adv-x="688" 
d="M83 0q-17 4 -39 4l-39 -4q15 29 89 193q105 233 139 313q73 172 92 232h41q14 -35 75 -183q66 -159 138 -329q78 -185 100 -226q-20 2 -31 3t-20 1q-13 0 -24 -1t-28 -3l-241 610h-10q-70 -167 -136 -328.5t-106 -281.5z" />
    <glyph glyph-name="Edieresis" unicode="&#x41b;" horiz-adv-x="688" 
d="M83 0q-17 4 -39 4l-39 -4q15 29 89 193q105 233 139 313q73 172 92 232h41q14 -35 75 -183q66 -159 138 -329q78 -185 100 -226q-20 2 -31 3t-20 1q-13 0 -24 -1t-28 -3l-241 610h-10q-70 -167 -136 -328.5t-106 -281.5z" />
    <glyph glyph-name="Igrave" unicode="&#xcc;" horiz-adv-x="930" 
d="M37 0q20 86 49 284t61 454h18q75 -152 150 -298t147 -278q151 268 314 576h14q21 -202 24 -232q17 -149 28 -246l32 -260q-10 2 -23 3t-25 1q-27 0 -48 -4q0 129 -10 235t-24 189q-3 19 -21 105q-70 -117 -133 -235q-48 -90 -89 -178q-35 -76 -49 -116h-15
q-13 47 -40 104q-23 50 -61 119l-165 305q-24 -167 -38 -317t-14 -211q-17 4 -39 4h-26q-12 -3 -17 -4z" />
    <glyph glyph-name="Igrave" unicode="&#x41c;" horiz-adv-x="930" 
d="M37 0q20 86 49 284t61 454h18q75 -152 150 -298t147 -278q151 268 314 576h14q21 -202 24 -232q17 -149 28 -246l32 -260q-10 2 -23 3t-25 1q-27 0 -48 -4q0 129 -10 235t-24 189q-3 19 -21 105q-70 -117 -133 -235q-48 -90 -89 -178q-35 -76 -49 -116h-15
q-13 47 -40 104q-23 50 -61 119l-165 305q-24 -167 -38 -317t-14 -211q-17 4 -39 4h-26q-12 -3 -17 -4z" />
    <glyph glyph-name="Iacute" unicode="&#xcd;" horiz-adv-x="812" 
d="M195 725q-3 -22 -5 -102t-2 -169v-39q11 -1 70.5 -2t149.5 -1l218 2v40q0 45 -2 99q-5 134 -5 172q22 -4 49 -4t49 4q-3 -35 -5 -146.5t-2 -213.5q0 -82 0.5 -189.5t6.5 -175.5q-22 4 -49 4t-49 -4q3 98 5 168.5t2 147.5v50q-13 1 -86 2t-132 1q-62 0 -115 -1.5
t-105 -2.5v-48q0 -79 0.5 -175t6.5 -142q-22 4 -49 4t-49 -4q3 35 5 149t2 216q0 81 -0.5 186.5t-6.5 173.5q22 -4 49 -4t49 4z" />
    <glyph glyph-name="Iacute" unicode="&#x41d;" horiz-adv-x="812" 
d="M195 725q-3 -22 -5 -102t-2 -169v-39q11 -1 70.5 -2t149.5 -1l218 2v40q0 45 -2 99q-5 134 -5 172q22 -4 49 -4t49 4q-3 -35 -5 -146.5t-2 -213.5q0 -82 0.5 -189.5t6.5 -175.5q-22 4 -49 4t-49 -4q3 98 5 168.5t2 147.5v50q-13 1 -86 2t-132 1q-62 0 -115 -1.5
t-105 -2.5v-48q0 -79 0.5 -175t6.5 -142q-22 4 -49 4t-49 -4q3 35 5 149t2 216q0 81 -0.5 186.5t-6.5 173.5q22 -4 49 -4t49 4z" />
    <glyph glyph-name="Icircumflex" unicode="&#xce;" horiz-adv-x="870" 
d="M435 -14q-182 0 -286.5 100.5t-104.5 274.5q0 171 107 274t284 103q181 0 285.5 -101.5t104.5 -275.5q0 -168 -107.5 -271.5t-282.5 -103.5zM435 26q136 0 210.5 87t74.5 249q0 165 -72.5 250.5t-212.5 85.5q-136 0 -211 -88t-75 -252q0 -160 74 -246t212 -86z" />
    <glyph glyph-name="Icircumflex" unicode="&#x41e;" horiz-adv-x="870" 
d="M435 -14q-182 0 -286.5 100.5t-104.5 274.5q0 171 107 274t284 103q181 0 285.5 -101.5t104.5 -275.5q0 -168 -107.5 -271.5t-282.5 -103.5zM435 26q136 0 210.5 87t74.5 249q0 165 -72.5 250.5t-212.5 85.5q-136 0 -211 -88t-75 -252q0 -160 74 -246t212 -86z" />
    <glyph glyph-name="Idieresis" unicode="&#xcf;" horiz-adv-x="826" 
d="M190 656q0 -71 -1 -164.5t-2 -174.5q0 -69 2.5 -158t4.5 -159q-22 4 -49 4t-49 -4q3 35 5 149t2 216q0 81 -0.5 186.5t-6.5 173.5q17 -2 118.5 -3t186.5 -1q60 0 144.5 1t175.5 3q-3 -35 -5 -146.5t-2 -213.5q0 -82 0.5 -189.5t6.5 -175.5q-22 4 -49 4t-49 -4
q3 35 5 131.5t2 185.5v46v45v41v36v30v26v21v17v14v12q0 40 -3 51q-58 0 -112.5 1t-99.5 2q-64 0 -120.5 -1t-104.5 -2z" />
    <glyph glyph-name="Idieresis" unicode="&#x41f;" horiz-adv-x="826" 
d="M190 656q0 -71 -1 -164.5t-2 -174.5q0 -69 2.5 -158t4.5 -159q-22 4 -49 4t-49 -4q3 35 5 149t2 216q0 81 -0.5 186.5t-6.5 173.5q17 -2 118.5 -3t186.5 -1q60 0 144.5 1t175.5 3q-3 -35 -5 -146.5t-2 -213.5q0 -82 0.5 -189.5t6.5 -175.5q-22 4 -49 4t-49 -4
q3 35 5 131.5t2 185.5v46v45v41v36v30v26v21v17v14v12q0 40 -3 51q-58 0 -112.5 1t-99.5 2q-64 0 -120.5 -1t-104.5 -2z" />
    <glyph glyph-name="Eth" unicode="&#xd0;" horiz-adv-x="583" 
d="M184 328v-149q0 -5 5 -100q2 -38 2 -79q-22 4 -49 4t-49 -4q3 35 5 149t2 216q0 81 -0.5 186.5t-6.5 173.5l52 -4q27 0 95 2t81 2q115 0 177 -48t62 -136q0 -102 -76 -158.5t-218 -56.5zM184 368l48 -2q228 0 228 166q0 83 -49 118t-156 35l-66 -3q0 -44 -2.5 -122
t-2.5 -96v-96z" />
    <glyph glyph-name="Eth" unicode="&#x420;" horiz-adv-x="583" 
d="M184 328v-149q0 -5 5 -100q2 -38 2 -79q-22 4 -49 4t-49 -4q3 35 5 149t2 216q0 81 -0.5 186.5t-6.5 173.5l52 -4q27 0 95 2t81 2q115 0 177 -48t62 -136q0 -102 -76 -158.5t-218 -56.5zM184 368l48 -2q228 0 228 166q0 83 -49 118t-156 35l-66 -3q0 -44 -2.5 -122
t-2.5 -96v-96z" />
    <glyph glyph-name="Ntilde" unicode="&#xd1;" horiz-adv-x="695" 
d="M651 45q-81 -59 -238 -59q-176 0 -273 98t-97 277q0 171 106 274t288 103q124 0 228 -52q-17 -53 -17 -101q-74 113 -215 113q-132 0 -206 -88t-74 -250q0 -156 73.5 -245t199.5 -89q121 0 231 89z" />
    <glyph glyph-name="Ntilde" unicode="&#x421;" horiz-adv-x="695" 
d="M651 45q-81 -59 -238 -59q-176 0 -273 98t-97 277q0 171 106 274t288 103q124 0 228 -52q-17 -53 -17 -101q-74 113 -215 113q-132 0 -206 -88t-74 -250q0 -156 73.5 -245t199.5 -89q121 0 231 89z" />
    <glyph glyph-name="Ograve" unicode="&#xd2;" horiz-adv-x="577" 
d="M331 675v-315q0 -81 0.5 -186.5t6.5 -173.5q-22 4 -49 4t-49 -4q3 35 5 146.5t2 213.5v315h-31q-122 0 -195 -13l2 30l-2 33q34 0 147 -2t120 -2q48 0 119 1t149 3l-3 -31q0 -20 3 -32q-36 7 -84.5 10t-102.5 3h-38z" />
    <glyph glyph-name="Ograve" unicode="&#x422;" horiz-adv-x="577" 
d="M331 675v-315q0 -81 0.5 -186.5t6.5 -173.5q-22 4 -49 4t-49 -4q3 35 5 146.5t2 213.5v315h-31q-122 0 -195 -13l2 30l-2 33q34 0 147 -2t120 -2q48 0 119 1t149 3l-3 -31q0 -20 3 -32q-36 7 -84.5 10t-102.5 3h-38z" />
    <glyph glyph-name="Oacute" unicode="&#xd3;" horiz-adv-x="709" 
d="M609 725q18 -4 37 -4l37 4q-17 -29 -101 -190q-97 -188 -159 -310q-83 -165 -110 -225l-38 4l-42 -4q39 62 70 115q11 19 25 45q-11 24 -76 152q-87 170 -130 250q-72 134 -95 163l63 -4l59 4q58 -128 74 -162q24 -50 65.5 -133.5t83.5 -167.5l8 -3q14 25 59 113
q64 126 95 189q51 106 75 164z" />
    <glyph glyph-name="Oacute" unicode="&#x423;" horiz-adv-x="709" 
d="M609 725q18 -4 37 -4l37 4q-17 -29 -101 -190q-97 -188 -159 -310q-83 -165 -110 -225l-38 4l-42 -4q39 62 70 115q11 19 25 45q-11 24 -76 152q-87 170 -130 250q-72 134 -95 163l63 -4l59 4q58 -128 74 -162q24 -50 65.5 -133.5t83.5 -167.5l8 -3q14 25 59 113
q64 126 95 189q51 106 75 164z" />
    <glyph glyph-name="Ocircumflex" unicode="&#xd4;" horiz-adv-x="943" 
d="M516 639q0 -43 -1 -122.5t-2 -154.5q0 -74 1 -138t2 -119q120 0 198.5 77.5t78.5 188.5q0 110 -72 186q-78 82 -205 82zM426 639q-127 0 -204 -79q-73 -75 -73 -189q0 -112 78 -189t199 -77q0 60 1 128t2 129zM520 725l-3 -46q179 0 282 -87q99 -83 99 -219
q0 -132 -100 -218q-105 -90 -281 -90l3 -65q-9 2 -24 3t-25 1l-49 -4l3 65q-177 0 -282 90q-99 85 -99 216q0 136 99 220q104 88 282 88l-3 46q6 -2 20 -3t31 -1q13 0 26.5 1.5t20.5 2.5z" />
    <glyph glyph-name="Ocircumflex" unicode="&#x424;" horiz-adv-x="943" 
d="M516 639q0 -43 -1 -122.5t-2 -154.5q0 -74 1 -138t2 -119q120 0 198.5 77.5t78.5 188.5q0 110 -72 186q-78 82 -205 82zM426 639q-127 0 -204 -79q-73 -75 -73 -189q0 -112 78 -189t199 -77q0 60 1 128t2 129zM520 725l-3 -46q179 0 282 -87q99 -83 99 -219
q0 -132 -100 -218q-105 -90 -281 -90l3 -65q-9 2 -24 3t-25 1l-49 -4l3 65q-177 0 -282 90q-99 85 -99 216q0 136 99 220q104 88 282 88l-3 46q6 -2 20 -3t31 -1q13 0 26.5 1.5t20.5 2.5z" />
    <glyph glyph-name="Otilde" unicode="&#xd5;" horiz-adv-x="593" 
d="M22 0l213 321l26 38l-19 34q-48 84 -197 332q23 -4 56 -4q10 0 22 0.5t33 3.5q93 -181 136 -250l24 -38l25 37q55 81 146 251q16 -4 38 -4q6 0 15 0.5t24 3.5q-57 -82 -97 -141q-54 -72 -71 -105l-38 -58l-18 -27l23 -37l216 -357q-12 2 -27 3t-30 1h-25t-34 -4
q-41 83 -76 145q-31 55 -75 129l-26 42l-25 -37q-26 -37 -64 -102q-42 -72 -97 -177q-8 2 -18.5 3t-19.5 1q-23 0 -40 -4z" />
    <glyph glyph-name="Otilde" unicode="&#x425;" horiz-adv-x="593" 
d="M22 0l213 321l26 38l-19 34q-48 84 -197 332q23 -4 56 -4q10 0 22 0.5t33 3.5q93 -181 136 -250l24 -38l25 37q55 81 146 251q16 -4 38 -4q6 0 15 0.5t24 3.5q-57 -82 -97 -141q-54 -72 -71 -105l-38 -58l-18 -27l23 -37l216 -357q-12 2 -27 3t-30 1h-25t-34 -4
q-41 83 -76 145q-31 55 -75 129l-26 42l-25 -37q-26 -37 -64 -102q-42 -72 -97 -177q-8 2 -18.5 3t-19.5 1q-23 0 -40 -4z" />
    <glyph glyph-name="Odieresis" unicode="&#xd6;" horiz-adv-x="826" 
d="M726 725q0 -55 -2 -117q-5 -156 -5 -196q0 -61 2 -198t2 -161h59q-9 -50 -9 -101l3 -69h-10q-28 71 -55 94t-83 23q-26 0 -114 -2t-106 -2q-51 0 -109 1.5t-122 2.5q-45 0 -72 -4q3 35 5 150.5t2 218.5q0 81 -0.5 186.5t-6.5 173.5q9 -2 25 -3t24 -1q14 0 28.5 1.5
t20.5 2.5q0 -1 -3.5 -151.5t-3.5 -221.5q0 -57 1 -136t3 -163h431q0 38 2 200t2 164q0 55 -2 122q-5 168 -5 186q26 -4 49 -4q7 0 17 0.5t32 3.5z" />
    <glyph glyph-name="Odieresis" unicode="&#x426;" horiz-adv-x="826" 
d="M726 725q0 -55 -2 -117q-5 -156 -5 -196q0 -61 2 -198t2 -161h59q-9 -50 -9 -101l3 -69h-10q-28 71 -55 94t-83 23q-26 0 -114 -2t-106 -2q-51 0 -109 1.5t-122 2.5q-45 0 -72 -4q3 35 5 150.5t2 218.5q0 81 -0.5 186.5t-6.5 173.5q9 -2 25 -3t24 -1q14 0 28.5 1.5
t20.5 2.5q0 -1 -3.5 -151.5t-3.5 -221.5q0 -57 1 -136t3 -163h431q0 38 2 200t2 164q0 55 -2 122q-5 168 -5 186q26 -4 49 -4q7 0 17 0.5t32 3.5z" />
    <glyph glyph-name="multiply" unicode="&#xd7;" horiz-adv-x="765" 
d="M80 725q5 -1 21 -2.5t27 -1.5q7 0 18.5 0.5t30.5 3.5q0 -36 -1 -61q-5 -123 -5 -125q0 -107 58 -165q52 -52 138 -52q62 0 127 44q89 61 89 168q0 58 -1 99.5t-6 91.5q22 -4 49 -4t49 4q-3 -35 -5 -146.5t-2 -213.5q0 -82 0.5 -189.5t6.5 -175.5q-22 4 -49 4t-49 -4
q3 104 5 188.5t2 202.5q-34 -54 -101 -87.5t-155 -33.5q-122 0 -187 78q-53 64 -53 150q0 47 -3.5 118.5t-3.5 108.5z" />
    <glyph glyph-name="multiply" unicode="&#x427;" horiz-adv-x="765" 
d="M80 725q5 -1 21 -2.5t27 -1.5q7 0 18.5 0.5t30.5 3.5q0 -36 -1 -61q-5 -123 -5 -125q0 -107 58 -165q52 -52 138 -52q62 0 127 44q89 61 89 168q0 58 -1 99.5t-6 91.5q22 -4 49 -4t49 4q-3 -35 -5 -146.5t-2 -213.5q0 -82 0.5 -189.5t6.5 -175.5q-22 4 -49 4t-49 -4
q3 104 5 188.5t2 202.5q-34 -54 -101 -87.5t-155 -33.5q-122 0 -187 78q-53 64 -53 150q0 47 -3.5 118.5t-3.5 108.5z" />
    <glyph glyph-name="Oslash" unicode="&#xd8;" horiz-adv-x="1046" 
d="M971 725q0 -55 -2 -117q-5 -156 -5 -196q0 -77 2.5 -199t4.5 -217q-43 4 -98 4q-25 0 -95.5 -2t-93.5 -2q-122 4 -171 4q-44 0 -123.5 -2t-118.5 -2q-129 4 -178 4q-45 0 -72 -4q3 35 5 150.5t2 218.5q0 81 -0.5 186.5t-6.5 173.5q9 -2 25 -3t24 -1q14 0 28.5 1.5
t20.5 2.5q0 -1 -3.5 -151.5t-3.5 -221.5q0 -57 1 -136t3 -163h334q0 40 2 164.5t2 147.5q0 81 -0.5 186.5t-6.5 173.5q9 -2 25 -3t24 -1q14 0 28.5 1.5t20.5 2.5q0 -1 -3.5 -151.5t-3.5 -221.5q0 -57 1 -136t3 -163h334q0 38 2 200t2 164q0 55 -2 122q-5 168 -5 186
q26 -4 49 -4q7 0 17 0.5t32 3.5z" />
    <glyph glyph-name="Oslash" unicode="&#x428;" horiz-adv-x="1046" 
d="M971 725q0 -55 -2 -117q-5 -156 -5 -196q0 -77 2.5 -199t4.5 -217q-43 4 -98 4q-25 0 -95.5 -2t-93.5 -2q-122 4 -171 4q-44 0 -123.5 -2t-118.5 -2q-129 4 -178 4q-45 0 -72 -4q3 35 5 150.5t2 218.5q0 81 -0.5 186.5t-6.5 173.5q9 -2 25 -3t24 -1q14 0 28.5 1.5
t20.5 2.5q0 -1 -3.5 -151.5t-3.5 -221.5q0 -57 1 -136t3 -163h334q0 40 2 164.5t2 147.5q0 81 -0.5 186.5t-6.5 173.5q9 -2 25 -3t24 -1q14 0 28.5 1.5t20.5 2.5q0 -1 -3.5 -151.5t-3.5 -221.5q0 -57 1 -136t3 -163h334q0 38 2 200t2 164q0 55 -2 122q-5 168 -5 186
q26 -4 49 -4q7 0 17 0.5t32 3.5z" />
    <glyph glyph-name="Ugrave" unicode="&#xd9;" horiz-adv-x="1071" 
d="M971 725q0 -55 -2 -117q-5 -156 -5 -196q0 -61 2 -198t2 -161h59q-9 -50 -9 -101l3 -69h-10q-28 71 -55 94t-83 23q-25 0 -95.5 -2t-93.5 -2q-122 4 -171 4q-44 0 -123.5 -2t-118.5 -2q-129 4 -178 4q-45 0 -72 -4q3 35 5 150.5t2 218.5q0 81 -0.5 186.5t-6.5 173.5
q9 -2 25 -3t24 -1q14 0 28.5 1.5t20.5 2.5q0 -1 -3.5 -151.5t-3.5 -221.5q0 -57 1 -136t3 -163h334q0 40 2 164.5t2 147.5q0 81 -0.5 186.5t-6.5 173.5q9 -2 25 -3t24 -1q14 0 28.5 1.5t20.5 2.5q0 -1 -3.5 -151.5t-3.5 -221.5q0 -57 1 -136t3 -163h334q0 38 2 200t2 164
q0 55 -2 122q-5 168 -5 186q26 -4 49 -4q7 0 17 0.5t32 3.5z" />
    <glyph glyph-name="Ugrave" unicode="&#x429;" horiz-adv-x="1071" 
d="M971 725q0 -55 -2 -117q-5 -156 -5 -196q0 -61 2 -198t2 -161h59q-9 -50 -9 -101l3 -69h-10q-28 71 -55 94t-83 23q-25 0 -95.5 -2t-93.5 -2q-122 4 -171 4q-44 0 -123.5 -2t-118.5 -2q-129 4 -178 4q-45 0 -72 -4q3 35 5 150.5t2 218.5q0 81 -0.5 186.5t-6.5 173.5
q9 -2 25 -3t24 -1q14 0 28.5 1.5t20.5 2.5q0 -1 -3.5 -151.5t-3.5 -221.5q0 -57 1 -136t3 -163h334q0 40 2 164.5t2 147.5q0 81 -0.5 186.5t-6.5 173.5q9 -2 25 -3t24 -1q14 0 28.5 1.5t20.5 2.5q0 -1 -3.5 -151.5t-3.5 -221.5q0 -57 1 -136t3 -163h334q0 38 2 200t2 164
q0 55 -2 122q-5 168 -5 186q26 -4 49 -4q7 0 17 0.5t32 3.5z" />
    <glyph glyph-name="Uacute" unicode="&#xda;" horiz-adv-x="675" 
d="M232 364l-3 -104q0 -73 1 -120.5t5 -90.5q41 -9 72 -9q94 0 147.5 44t53.5 122q0 163 -205 163q-9 0 -35 -2.5t-36 -2.5zM236 725q-3 -36 -5 -130t-2 -194q18 3 35.5 4t41.5 1q121 0 190 -30q106 -46 106 -162q0 -106 -72 -162t-214 -56q-25 0 -57.5 1.5t-69.5 2.5h-25
t-26 -4q3 35 5 150.5t2 218.5q0 60 -1.5 139.5t-2.5 171.5q-64 0 -126 -14l2 30l-2 33q18 0 60 -2t63 -2q41 0 61.5 1t36.5 3z" />
    <glyph glyph-name="Uacute" unicode="&#x42a;" horiz-adv-x="675" 
d="M232 364l-3 -104q0 -73 1 -120.5t5 -90.5q41 -9 72 -9q94 0 147.5 44t53.5 122q0 163 -205 163q-9 0 -35 -2.5t-36 -2.5zM236 725q-3 -36 -5 -130t-2 -194q18 3 35.5 4t41.5 1q121 0 190 -30q106 -46 106 -162q0 -106 -72 -162t-214 -56q-25 0 -57.5 1.5t-69.5 2.5h-25
t-26 -4q3 35 5 150.5t2 218.5q0 60 -1.5 139.5t-2.5 171.5q-64 0 -126 -14l2 30l-2 33q18 0 60 -2t63 -2q41 0 61.5 1t36.5 3z" />
    <glyph glyph-name="Ucircumflex" unicode="&#xdb;" horiz-adv-x="846" 
d="M183 364l-3 -104q0 -73 1 -120.5t5 -90.5q41 -9 72 -9q94 0 147.5 44t53.5 122q0 163 -205 163q-9 0 -35 -2.5t-36 -2.5zM187 725q-3 -36 -5 -130t-2 -194q18 3 35.5 4t41.5 1q121 0 190 -30q106 -46 106 -162q0 -106 -72 -162t-214 -56q-25 0 -57.5 1.5t-69.5 2.5h-25
t-26 -4q3 35 5 150.5t2 218.5q0 81 -0.5 186.5t-6.5 173.5q22 -4 49 -4t49 4zM752 725q-3 -35 -5 -146.5t-2 -213.5q0 -82 0.5 -189.5t6.5 -175.5q-22 4 -49 4t-49 -4q3 35 5 149t2 216q0 81 -0.5 186.5t-6.5 173.5q22 -4 49 -4t49 4z" />
    <glyph glyph-name="Ucircumflex" unicode="&#x42b;" horiz-adv-x="846" 
d="M183 364l-3 -104q0 -73 1 -120.5t5 -90.5q41 -9 72 -9q94 0 147.5 44t53.5 122q0 163 -205 163q-9 0 -35 -2.5t-36 -2.5zM187 725q-3 -36 -5 -130t-2 -194q18 3 35.5 4t41.5 1q121 0 190 -30q106 -46 106 -162q0 -106 -72 -162t-214 -56q-25 0 -57.5 1.5t-69.5 2.5h-25
t-26 -4q3 35 5 150.5t2 218.5q0 81 -0.5 186.5t-6.5 173.5q22 -4 49 -4t49 4zM752 725q-3 -35 -5 -146.5t-2 -213.5q0 -82 0.5 -189.5t6.5 -175.5q-22 4 -49 4t-49 -4q3 35 5 149t2 216q0 81 -0.5 186.5t-6.5 173.5q22 -4 49 -4t49 4z" />
    <glyph glyph-name="Udieresis" unicode="&#xdc;" horiz-adv-x="629" 
d="M186 364l-3 -104q0 -73 1 -120.5t5 -90.5q41 -9 72 -9q94 0 147.5 44t53.5 122q0 163 -205 163q-9 0 -35 -2.5t-36 -2.5zM190 725q-4 -74 -5.5 -149t-1.5 -175q18 3 35.5 4t41.5 1q121 0 190 -30q106 -46 106 -162q0 -106 -72 -162t-214 -56q-25 0 -57.5 1.5t-69.5 2.5
h-25t-26 -4q3 35 5 150.5t2 218.5q0 81 -0.5 186.5t-6.5 173.5q22 -4 49 -4t49 4z" />
    <glyph glyph-name="Udieresis" unicode="&#x42c;" horiz-adv-x="629" 
d="M186 364l-3 -104q0 -73 1 -120.5t5 -90.5q41 -9 72 -9q94 0 147.5 44t53.5 122q0 163 -205 163q-9 0 -35 -2.5t-36 -2.5zM190 725q-4 -74 -5.5 -149t-1.5 -175q18 3 35.5 4t41.5 1q121 0 190 -30q106 -46 106 -162q0 -106 -72 -162t-214 -56q-25 0 -57.5 1.5t-69.5 2.5
h-25t-26 -4q3 35 5 150.5t2 218.5q0 81 -0.5 186.5t-6.5 173.5q22 -4 49 -4t49 4z" />
    <glyph glyph-name="Yacute" unicode="&#xdd;" horiz-adv-x="709" 
d="M564 407q0 111 -80 198q-86 93 -212 93q-71 0 -137 -38q-44 -25 -66 -53l-7 1q-8 46 -22 82q110 48 228 48q176 0 285 -97q115 -102 115 -277t-99.5 -276.5t-273.5 -101.5q-66 0 -130 15t-105 46q4 15 8.5 37.5t6.5 36.5q33 -36 73 -59q64 -36 138 -36q126 0 202 90.5
t76 243.5h-231q-37 0 -80.5 -2t-78.5 -3q3 11 3 29l-3 28q19 -2 60 -3.5t99 -1.5h231z" />
    <glyph glyph-name="Yacute" unicode="&#x42d;" horiz-adv-x="709" 
d="M564 407q0 111 -80 198q-86 93 -212 93q-71 0 -137 -38q-44 -25 -66 -53l-7 1q-8 46 -22 82q110 48 228 48q176 0 285 -97q115 -102 115 -277t-99.5 -276.5t-273.5 -101.5q-66 0 -130 15t-105 46q4 15 8.5 37.5t6.5 36.5q33 -36 73 -59q64 -36 138 -36q126 0 202 90.5
t76 243.5h-231q-37 0 -80.5 -2t-78.5 -3q3 11 3 29l-3 28q19 -2 60 -3.5t99 -1.5h231z" />
    <glyph glyph-name="Thorn" unicode="&#xde;" horiz-adv-x="1060" 
d="M236 329h-101q0 -75 0.5 -171t6.5 -158q-22 4 -49 4t-49 -4q3 35 5 149t2 216q0 81 -0.5 186.5t-6.5 173.5q22 -4 49 -4t49 4q-3 -33 -5 -137.5t-2 -201.5h100q0 160 108.5 256t281.5 96q181 0 285.5 -101.5t104.5 -275.5q0 -168 -107.5 -271.5t-282.5 -103.5
q-174 0 -281.5 92.5t-107.5 250.5zM625 26q136 0 210.5 87t74.5 249q0 165 -72.5 250.5t-212.5 85.5q-136 0 -211 -88t-75 -252q0 -160 74 -246t212 -86z" />
    <glyph glyph-name="Thorn" unicode="&#x42e;" horiz-adv-x="1060" 
d="M236 329h-101q0 -75 0.5 -171t6.5 -158q-22 4 -49 4t-49 -4q3 35 5 149t2 216q0 81 -0.5 186.5t-6.5 173.5q22 -4 49 -4t49 4q-3 -33 -5 -137.5t-2 -201.5h100q0 160 108.5 256t281.5 96q181 0 285.5 -101.5t104.5 -275.5q0 -168 -107.5 -271.5t-282.5 -103.5
q-174 0 -281.5 92.5t-107.5 250.5zM625 26q136 0 210.5 87t74.5 249q0 165 -72.5 250.5t-212.5 85.5q-136 0 -211 -88t-75 -252q0 -160 74 -246t212 -86z" />
    <glyph glyph-name="germandbls" unicode="&#xdf;" horiz-adv-x="630" 
d="M469 353v-194q0 -78 -7 -159q22 4 49 4t49 -4q-3 35 -5 149t-2 216q0 81 0.5 186.5t6.5 173.5l-47 -4q-23 0 -87.5 2t-81.5 2q-239 0 -239 -172q0 -158 212 -196q-37 -50 -91 -118q-59 -74 -102.5 -128.5t-88.5 -110.5q11 2 29 3t33 1l62 -4q56 81 82.5 117t49.5 66
l115 148q18 24 43 24zM469 386l-35 -2q-237 0 -237 156q0 145 183 145l82 -3q4 -29 5.5 -53t1.5 -57v-186z" />
    <glyph glyph-name="germandbls" unicode="&#x42f;" horiz-adv-x="630" 
d="M469 353v-194q0 -78 -7 -159q22 4 49 4t49 -4q-3 35 -5 149t-2 216q0 81 0.5 186.5t6.5 173.5l-47 -4q-23 0 -87.5 2t-81.5 2q-239 0 -239 -172q0 -158 212 -196q-37 -50 -91 -118q-59 -74 -102.5 -128.5t-88.5 -110.5q11 2 29 3t33 1l62 -4q56 81 82.5 117t49.5 66
l115 148q18 24 43 24zM469 386l-35 -2q-237 0 -237 156q0 145 183 145l82 -3q4 -29 5.5 -53t1.5 -57v-186z" />
    <glyph glyph-name="agrave" unicode="&#xe0;" horiz-adv-x="510" 
d="M78 394v60q39 27 81 41.5t88 14.5q85 0 129.5 -43.5t44.5 -132.5v-247q0 -23 4 -35t20 -12q14 0 24.5 3.5t19.5 8.5l8 -24q-24 -15 -42 -21.5t-32 -6.5q-34 0 -50 9q-28 15 -33 57l-37 -32q-21 -18 -49 -29q-38 -15 -82 -15q-58 0 -99 36t-41 94q0 77 55 112
q40 25 140 40q70 10 91.5 22.5t21.5 48.5q0 60 -32.5 93.5t-91.5 33.5q-52 0 -90 -29q-29 -22 -37 -47h-11zM340 263l-79 -16q-79 -16 -111 -41t-32 -72q0 -50 25 -76t69 -26q60 0 94 48.5t34 129.5v53z" />
    <glyph glyph-name="agrave" unicode="&#x430;" horiz-adv-x="510" 
d="M78 394v60q39 27 81 41.5t88 14.5q85 0 129.5 -43.5t44.5 -132.5v-247q0 -23 4 -35t20 -12q14 0 24.5 3.5t19.5 8.5l8 -24q-24 -15 -42 -21.5t-32 -6.5q-34 0 -50 9q-28 15 -33 57l-37 -32q-21 -18 -49 -29q-38 -15 -82 -15q-58 0 -99 36t-41 94q0 77 55 112
q40 25 140 40q70 10 91.5 22.5t21.5 48.5q0 60 -32.5 93.5t-91.5 33.5q-52 0 -90 -29q-29 -22 -37 -47h-11zM340 263l-79 -16q-79 -16 -111 -41t-32 -72q0 -50 25 -76t69 -26q60 0 94 48.5t34 129.5v53z" />
    <glyph glyph-name="aacute" unicode="&#xe1;" horiz-adv-x="544" 
d="M132 410q62 100 171 100q99 0 157 -65t58 -178q0 -124 -65 -200.5t-170 -76.5q-99 0 -162 51q-84 68 -84 214q0 289 95 381q87 85 353 85q-7 -16 -7 -61q-26 3 -51.5 6.5t-66.5 3.5q-122 0 -172 -53q-56 -59 -56 -207zM279 470q-75 0 -115 -62t-40 -181q0 -200 145 -200
q75 0 117 61.5t42 176.5q0 101 -38 153t-111 52z" />
    <glyph glyph-name="aacute" unicode="&#x431;" horiz-adv-x="544" 
d="M132 410q62 100 171 100q99 0 157 -65t58 -178q0 -124 -65 -200.5t-170 -76.5q-99 0 -162 51q-84 68 -84 214q0 289 95 381q87 85 353 85q-7 -16 -7 -61q-26 3 -51.5 6.5t-66.5 3.5q-122 0 -172 -53q-56 -59 -56 -207zM279 470q-75 0 -115 -62t-40 -181q0 -200 145 -200
q75 0 117 61.5t42 176.5q0 101 -38 153t-111 52z" />
    <glyph glyph-name="acircumflex" unicode="&#xe2;" horiz-adv-x="497" 
d="M26 0q2 17 3 101.5t1 160.5q0 73 -2 125.5t-4 122.5q36 -4 86 -4q30 0 67 1t79 3q96 0 147 -31t51 -89q0 -50 -40 -80q-33 -25 -85 -31v-4q89 -16 120 -48q27 -28 27 -75q0 -80 -72 -124q-62 -38 -145 -38q-84 0 -157 66q-27 -21 -56 -56h-20zM253 32q45 0 85 30
q45 34 45 83q0 46 -36.5 77.5t-87.5 31.5q-18 0 -37.5 -0.5t-35.5 -3.5l3 23l-3 23q9 -2 29 -3t33 -1q113 0 113 91q0 38 -30 61.5t-87 23.5q-34 0 -63.5 -4.5t-64.5 -14.5q-8 -72 -8 -125v-143q0 -76 45 -115q39 -34 100 -34z" />
    <glyph glyph-name="acircumflex" unicode="&#x432;" horiz-adv-x="497" 
d="M26 0q2 17 3 101.5t1 160.5q0 73 -2 125.5t-4 122.5q36 -4 86 -4q30 0 67 1t79 3q96 0 147 -31t51 -89q0 -50 -40 -80q-33 -25 -85 -31v-4q89 -16 120 -48q27 -28 27 -75q0 -80 -72 -124q-62 -38 -145 -38q-84 0 -157 66q-27 -21 -56 -56h-20zM253 32q45 0 85 30
q45 34 45 83q0 46 -36.5 77.5t-87.5 31.5q-18 0 -37.5 -0.5t-35.5 -3.5l3 23l-3 23q9 -2 29 -3t33 -1q113 0 113 91q0 38 -30 61.5t-87 23.5q-34 0 -63.5 -4.5t-64.5 -14.5q-8 -72 -8 -125v-143q0 -76 45 -115q39 -34 100 -34z" />
    <glyph glyph-name="atilde" unicode="&#xe3;" horiz-adv-x="438" 
d="M396 105l-2 -62q-38 -27 -81.5 -40t-111.5 -13q-76 0 -120 35t-44 94q0 79 60 112q25 14 127 39q51 12 73 43q18 25 18 62q0 34 -26 57q-31 28 -87 28q-52 0 -90 -29q-29 -22 -37 -47h-11v60q39 27 82 41.5t89 14.5q84 0 129 -43q35 -33 35 -76q0 -77 -62 -110
q-7 -4 -146 -48q-25 -8 -45.5 -33.5t-20.5 -54.5q0 -45 32 -75t80 -30q45 0 82.5 18.5t76.5 56.5z" />
    <glyph glyph-name="atilde" unicode="&#x433;" horiz-adv-x="438" 
d="M396 105l-2 -62q-38 -27 -81.5 -40t-111.5 -13q-76 0 -120 35t-44 94q0 79 60 112q25 14 127 39q51 12 73 43q18 25 18 62q0 34 -26 57q-31 28 -87 28q-52 0 -90 -29q-29 -22 -37 -47h-11v60q39 27 82 41.5t89 14.5q84 0 129 -43q35 -33 35 -76q0 -77 -62 -110
q-7 -4 -146 -48q-25 -8 -45.5 -33.5t-20.5 -54.5q0 -45 32 -75t80 -30q45 0 82.5 18.5t76.5 56.5z" />
    <glyph glyph-name="adieresis" unicode="&#xe4;" horiz-adv-x="581" 
d="M438 71v6q-56 -87 -169 -87q-102 0 -160.5 69t-58.5 196q0 122 57.5 188.5t161.5 66.5q112 0 175 -105q0 27 -1 48.5t-3 46.5q21 -4 45 -4q21 0 36 4q0 -30 -2.5 -118.5t-2.5 -118.5q0 -49 1.5 -106.5t3.5 -105.5q0 -142 -46 -226q-63 -115 -204 -115q-49 0 -83 8
q-53 13 -97 48q16 43 23 112q24 -62 67.5 -95t107.5 -33q65 0 100 35q49 49 49 172v114zM295 470q-75 0 -115 -62t-40 -181q0 -200 145 -200q75 0 117 61.5t42 176.5q0 101 -38 153t-111 52z" />
    <glyph glyph-name="adieresis" unicode="&#x434;" horiz-adv-x="581" 
d="M438 71v6q-56 -87 -169 -87q-102 0 -160.5 69t-58.5 196q0 122 57.5 188.5t161.5 66.5q112 0 175 -105q0 27 -1 48.5t-3 46.5q21 -4 45 -4q21 0 36 4q0 -30 -2.5 -118.5t-2.5 -118.5q0 -49 1.5 -106.5t3.5 -105.5q0 -142 -46 -226q-63 -115 -204 -115q-49 0 -83 8
q-53 13 -97 48q16 43 23 112q24 -62 67.5 -95t107.5 -33q65 0 100 35q49 49 49 172v114zM295 470q-75 0 -115 -62t-40 -181q0 -200 145 -200q75 0 117 61.5t42 176.5q0 101 -38 153t-111 52z" />
    <glyph glyph-name="aring" unicode="&#xe5;" horiz-adv-x="536" 
d="M131 293h279v18q0 79 -35 122t-97 43t-104.5 -49.5t-42.5 -133.5zM468 51q-82 -61 -180 -61q-112 0 -181 72t-69 187q0 119 67 190t177 71q102 0 157 -59t55 -170v-25h-365q0 -110 46 -167t132 -57q91 0 164 72q-2 -12 -2.5 -30.5t-0.5 -22.5z" />
    <glyph glyph-name="aring" unicode="&#x435;" horiz-adv-x="536" 
d="M131 293h279v18q0 79 -35 122t-97 43t-104.5 -49.5t-42.5 -133.5zM468 51q-82 -61 -180 -61q-112 0 -181 72t-69 187q0 119 67 190t177 71q102 0 157 -59t55 -170v-25h-365q0 -110 46 -167t132 -57q91 0 164 72q-2 -12 -2.5 -30.5t-0.5 -22.5z" />
    <glyph glyph-name="ae" unicode="&#xe6;" horiz-adv-x="790" 
d="M357 500q19 -4 43 -4h23q16 3 22 4v-4q-2 -24 -3.5 -56.5t-1.5 -64.5v-73q0 -18 18 -18q51 0 221 216q20 -4 47 -4h26q14 3 20 4q-26 -18 -60 -48q-30 -26 -77 -71l-96 -90l249 -291q-12 2 -28.5 3t-30.5 1q-31 0 -55 -4q-194 262 -224 262q-10 0 -10 -14
q0 -64 2.5 -147.5t2.5 -100.5q-8 2 -20.5 3t-24.5 1q-24 0 -43 -4q0 58 2.5 146t2.5 102t-10 14q-13 0 -69.5 -65t-154.5 -197q-24 4 -55 4h-24.5t-34.5 -4l249 291l-96 90q-45 43 -76 70q-35 31 -61 49q23 -4 46 -4q27 0 47 4q81 -103 147 -164q56 -52 74 -52t18 18
q0 43 -2.5 114t-2.5 84z" />
    <glyph glyph-name="ae" unicode="&#x436;" horiz-adv-x="790" 
d="M357 500q19 -4 43 -4h23q16 3 22 4v-4q-2 -24 -3.5 -56.5t-1.5 -64.5v-73q0 -18 18 -18q51 0 221 216q20 -4 47 -4h26q14 3 20 4q-26 -18 -60 -48q-30 -26 -77 -71l-96 -90l249 -291q-12 2 -28.5 3t-30.5 1q-31 0 -55 -4q-194 262 -224 262q-10 0 -10 -14
q0 -64 2.5 -147.5t2.5 -100.5q-8 2 -20.5 3t-24.5 1q-24 0 -43 -4q0 58 2.5 146t2.5 102t-10 14q-13 0 -69.5 -65t-154.5 -197q-24 4 -55 4h-24.5t-34.5 -4l249 291l-96 90q-45 43 -76 70q-35 31 -61 49q23 -4 46 -4q27 0 47 4q81 -103 147 -164q56 -52 74 -52t18 18
q0 43 -2.5 114t-2.5 84z" />
    <glyph glyph-name="ccedilla" unicode="&#xe7;" horiz-adv-x="460" 
d="M285 267q74 -13 111 -40.5t37 -82.5q0 -71 -69 -112.5t-169 -41.5q-52 0 -94 10.5t-73 27.5l27 81q28 -36 67.5 -59t83.5 -23q75 0 110 41q24 28 24 63q0 52 -36.5 83.5t-92.5 31.5l-69 -4l2 23l-2 23l69 -4q46 0 73 21q33 26 33 76q0 42 -30.5 68.5t-80.5 26.5
q-49 0 -85 -21q-29 -17 -48 -44l-9 1l-19 55q38 22 80 32.5t88 10.5q80 0 133 -28q64 -34 64 -100q0 -52 -39 -80q-30 -22 -86 -31v-4z" />
    <glyph glyph-name="ccedilla" unicode="&#x437;" horiz-adv-x="460" 
d="M285 267q74 -13 111 -40.5t37 -82.5q0 -71 -69 -112.5t-169 -41.5q-52 0 -94 10.5t-73 27.5l27 81q28 -36 67.5 -59t83.5 -23q75 0 110 41q24 28 24 63q0 52 -36.5 83.5t-92.5 31.5l-69 -4l2 23l-2 23l69 -4q46 0 73 21q33 26 33 76q0 42 -30.5 68.5t-80.5 26.5
q-49 0 -85 -21q-29 -17 -48 -44l-9 1l-19 55q38 22 80 32.5t88 10.5q80 0 133 -28q64 -34 64 -100q0 -52 -39 -80q-30 -22 -86 -31v-4z" />
    <glyph glyph-name="egrave" unicode="&#xe8;" 
d="M414 0q2 6 3.5 18.5t1.5 26.5v18q-3 17 -3 22q-52 -95 -170 -95q-167 0 -167 173v100q0 56 -1 90q-4 137 -4 147q19 -4 43 -4h23q16 3 22 4q0 -50 -2.5 -134t-2.5 -103q0 -138 26 -181t95 -43q90 0 121 74q20 47 20 150q0 62 -1 136.5t-4 100.5q19 -4 43 -4h23q16 3 22 4
q0 -50 -2.5 -134t-2.5 -103q0 -61 2.5 -155.5t2.5 -107.5q-8 2 -20.5 3t-24.5 1q-24 0 -43 -4z" />
    <glyph glyph-name="egrave" unicode="&#x438;" 
d="M414 0q2 6 3.5 18.5t1.5 26.5v18q-3 17 -3 22q-52 -95 -170 -95q-167 0 -167 173v100q0 56 -1 90q-4 137 -4 147q19 -4 43 -4h23q16 3 22 4q0 -50 -2.5 -134t-2.5 -103q0 -138 26 -181t95 -43q90 0 121 74q20 47 20 150q0 62 -1 136.5t-4 100.5q19 -4 43 -4h23q16 3 22 4
q0 -50 -2.5 -134t-2.5 -103q0 -61 2.5 -155.5t2.5 -107.5q-8 2 -20.5 3t-24.5 1q-24 0 -43 -4z" />
    <glyph glyph-name="eacute" unicode="&#xe9;" 
d="M414 0q2 6 3.5 18.5t1.5 26.5v18q-3 17 -3 22q-52 -95 -170 -95q-167 0 -167 173v100q0 56 -1 90q-4 137 -4 147q19 -4 43 -4h23q16 3 22 4q0 -50 -2.5 -134t-2.5 -103q0 -138 26 -181t95 -43q90 0 121 74q20 47 20 150q0 62 -1 136.5t-4 100.5q19 -4 43 -4h23q16 3 22 4
q0 -50 -2.5 -134t-2.5 -103q0 -61 2.5 -155.5t2.5 -107.5q-8 2 -20.5 3t-24.5 1q-24 0 -43 -4zM147 558q19 106 100 106q22 0 49 -7q62 -16 71 -16q22 0 32 9.5t18 37.5h26q-18 -110 -101 -110q-18 0 -45 7q-69 18 -74 18q-34 0 -49 -45h-27z" />
    <glyph glyph-name="eacute" unicode="&#x439;" 
d="M414 0q2 6 3.5 18.5t1.5 26.5v18q-3 17 -3 22q-52 -95 -170 -95q-167 0 -167 173v100q0 56 -1 90q-4 137 -4 147q19 -4 43 -4h23q16 3 22 4q0 -50 -2.5 -134t-2.5 -103q0 -138 26 -181t95 -43q90 0 121 74q20 47 20 150q0 62 -1 136.5t-4 100.5q19 -4 43 -4h23q16 3 22 4
q0 -50 -2.5 -134t-2.5 -103q0 -61 2.5 -155.5t2.5 -107.5q-8 2 -20.5 3t-24.5 1q-24 0 -43 -4zM147 558q19 106 100 106q22 0 49 -7q62 -16 71 -16q22 0 32 9.5t18 37.5h26q-18 -110 -101 -110q-18 0 -45 7q-69 18 -74 18q-34 0 -49 -45h-27z" />
    <glyph glyph-name="ecircumflex" unicode="&#xea;" horiz-adv-x="515" 
d="M170 500v-4q-2 -24 -3.5 -56.5t-1.5 -64.5v-73q0 -18 18 -18q51 0 221 216q20 -4 47 -4h26q14 3 20 4q-26 -18 -60 -48q-30 -26 -77 -71l-96 -90l249 -291q-12 2 -28.5 3t-30.5 1q-31 0 -55 -4q-194 262 -224 262q-10 0 -10 -14q0 -64 2.5 -147.5t2.5 -100.5
q-8 2 -20.5 3t-24.5 1q-24 0 -43 -4q0 56 2.5 150t2.5 113q0 56 -1 90q-4 137 -4 147q19 -4 43 -4h23q16 3 22 4z" />
    <glyph glyph-name="ecircumflex" unicode="&#x43a;" horiz-adv-x="515" 
d="M170 500v-4q-2 -24 -3.5 -56.5t-1.5 -64.5v-73q0 -18 18 -18q51 0 221 216q20 -4 47 -4h26q14 3 20 4q-26 -18 -60 -48q-30 -26 -77 -71l-96 -90l249 -291q-12 2 -28.5 3t-30.5 1q-31 0 -55 -4q-194 262 -224 262q-10 0 -10 -14q0 -64 2.5 -147.5t2.5 -100.5
q-8 2 -20.5 3t-24.5 1q-24 0 -43 -4q0 56 2.5 150t2.5 113q0 56 -1 90q-4 137 -4 147q19 -4 43 -4h23q16 3 22 4z" />
    <glyph glyph-name="edieresis" unicode="&#xeb;" horiz-adv-x="511" 
d="M15 0q24 51 68 148q40 89 78 180q45 109 67 172l32 -3l33 3q37 -102 90 -232q62 -153 114 -268q-12 2 -22 3t-26 1l-46 -4q-48 157 -154 401q-12 -11 -45 -87q-27 -63 -64 -160q-27 -70 -57 -154q-12 3 -17.5 3.5t-16.5 0.5q-18 0 -34 -4z" />
    <glyph glyph-name="edieresis" unicode="&#x43b;" horiz-adv-x="511" 
d="M15 0q24 51 68 148q40 89 78 180q45 109 67 172l32 -3l33 3q37 -102 90 -232q62 -153 114 -268q-12 2 -22 3t-26 1l-46 -4q-48 157 -154 401q-12 -11 -45 -87q-27 -63 -64 -160q-27 -70 -57 -154q-12 3 -17.5 3.5t-16.5 0.5q-18 0 -34 -4z" />
    <glyph glyph-name="igrave" unicode="&#xec;" horiz-adv-x="708" 
d="M36 0l72 500h29q64 -127 114 -216q59 -106 108 -179q36 62 102.5 186.5t108.5 208.5h29q8 -69 24 -204q35 -290 36 -296q-15 2 -23.5 3t-23.5 1l-46 -4q0 79 -9 172q-5 53 -20 167q-53 -86 -98 -165q-52 -92 -93 -174h-24q-45 88 -94 173q-44 77 -100 166
q-25 -185 -29 -225q-7 -66 -7 -114q-14 4 -28 4t-28 -4z" />
    <glyph glyph-name="igrave" unicode="&#x43c;" horiz-adv-x="708" 
d="M36 0l72 500h29q64 -127 114 -216q59 -106 108 -179q36 62 102.5 186.5t108.5 208.5h29q8 -69 24 -204q35 -290 36 -296q-15 2 -23.5 3t-23.5 1l-46 -4q0 79 -9 172q-5 53 -20 167q-53 -86 -98 -165q-52 -92 -93 -174h-24q-45 88 -94 173q-44 77 -100 166
q-25 -185 -29 -225q-7 -66 -7 -114q-14 4 -28 4t-28 -4z" />
    <glyph glyph-name="iacute" unicode="&#xed;" horiz-adv-x="590" 
d="M169 500q0 -33 -2.5 -112t-2.5 -97q30 -3 77.5 -4t53.5 -1q44 0 78 1.5t51 3.5q0 34 -2.5 113.5t-2.5 95.5q19 -4 43 -4h23q16 3 22 4q0 -50 -2.5 -134t-2.5 -103q0 -61 2.5 -155.5t2.5 -107.5q-8 2 -20.5 3t-24.5 1q-24 0 -43 -4q0 43 2.5 134.5t2.5 109.5
q-28 3 -59.5 4t-69.5 1q-43 0 -102 -3q-11 0 -29 -2q0 -57 2.5 -146.5t2.5 -97.5q-8 2 -20.5 3t-24.5 1q-24 0 -43 -4q0 56 2.5 150t2.5 113q0 56 -1 90q-4 137 -4 147q19 -4 43 -4h23q16 3 22 4z" />
    <glyph glyph-name="iacute" unicode="&#x43d;" horiz-adv-x="590" 
d="M169 500q0 -33 -2.5 -112t-2.5 -97q30 -3 77.5 -4t53.5 -1q44 0 78 1.5t51 3.5q0 34 -2.5 113.5t-2.5 95.5q19 -4 43 -4h23q16 3 22 4q0 -50 -2.5 -134t-2.5 -103q0 -61 2.5 -155.5t2.5 -107.5q-8 2 -20.5 3t-24.5 1q-24 0 -43 -4q0 43 2.5 134.5t2.5 109.5
q-28 3 -59.5 4t-69.5 1q-43 0 -102 -3q-11 0 -29 -2q0 -57 2.5 -146.5t2.5 -97.5q-8 2 -20.5 3t-24.5 1q-24 0 -43 -4q0 56 2.5 150t2.5 113q0 56 -1 90q-4 137 -4 147q19 -4 43 -4h23q16 3 22 4z" />
    <glyph glyph-name="icircumflex" unicode="&#xee;" horiz-adv-x="578" 
d="M289 -10q-110 0 -180.5 72.5t-70.5 187.5t71.5 187.5t179.5 72.5q111 0 181 -72t70 -188q0 -117 -70.5 -188.5t-180.5 -71.5zM289 24q78 0 119.5 55.5t41.5 164.5q0 114 -41 173t-121 59q-160 0 -160 -225q0 -227 161 -227z" />
    <glyph glyph-name="icircumflex" unicode="&#x43e;" horiz-adv-x="578" 
d="M289 -10q-110 0 -180.5 72.5t-70.5 187.5t71.5 187.5t179.5 72.5q111 0 181 -72t70 -188q0 -117 -70.5 -188.5t-180.5 -71.5zM289 24q78 0 119.5 55.5t41.5 164.5q0 114 -41 173t-121 59q-160 0 -160 -225q0 -227 161 -227z" />
    <glyph glyph-name="idieresis" unicode="&#xef;" horiz-adv-x="560" 
d="M170 500q-4 -42 -4.5 -58.5t-0.5 -26.5q38 50 78 72.5t88 22.5q64 0 101 -44q50 -60 50 -203q0 -61 2.5 -155.5t2.5 -107.5q-8 2 -20.5 3t-24.5 1q-24 0 -43 -4q0 56 2.5 150t2.5 113q0 104 -23.5 148t-83.5 44q-68 0 -100 -50t-32 -142q0 -61 2.5 -155.5t2.5 -107.5
q-8 2 -20.5 3t-24.5 1q-24 0 -43 -4q0 56 2.5 150t2.5 113q0 56 -1 90q-4 137 -4 147q19 -4 43 -4h23q16 3 22 4z" />
    <glyph glyph-name="idieresis" unicode="&#x43f;" horiz-adv-x="560" 
d="M170 500q-4 -42 -4.5 -58.5t-0.5 -26.5q38 50 78 72.5t88 22.5q64 0 101 -44q50 -60 50 -203q0 -61 2.5 -155.5t2.5 -107.5q-8 2 -20.5 3t-24.5 1q-24 0 -43 -4q0 56 2.5 150t2.5 113q0 104 -23.5 148t-83.5 44q-68 0 -100 -50t-32 -142q0 -61 2.5 -155.5t2.5 -107.5
q-8 2 -20.5 3t-24.5 1q-24 0 -43 -4q0 56 2.5 150t2.5 113q0 56 -1 90q-4 137 -4 147q19 -4 43 -4h23q16 3 22 4z" />
    <glyph glyph-name="eth" unicode="&#xf0;" horiz-adv-x="592" 
d="M169 500q-4 -40 -4.5 -57.5t-0.5 -30.5q33 51 74 74.5t100 23.5q103 0 158.5 -66.5t55.5 -194.5q0 -121 -61 -190t-161 -69q-109 0 -166 87v-137q0 -28 2.5 -110.5t2.5 -123.5q-19 4 -44 4q-24 0 -44 -4q0 28 2.5 179t2.5 284q0 109 -2 189t-3 142q10 -2 19.5 -3t23.5 -1
q11 0 20 1t25 3zM313 470q-75 0 -115 -62t-40 -181q0 -200 145 -200q75 0 117 61.5t42 176.5q0 101 -38 153t-111 52z" />
    <glyph glyph-name="eth" unicode="&#x440;" horiz-adv-x="592" 
d="M169 500q-4 -40 -4.5 -57.5t-0.5 -30.5q33 51 74 74.5t100 23.5q103 0 158.5 -66.5t55.5 -194.5q0 -121 -61 -190t-161 -69q-109 0 -166 87v-137q0 -28 2.5 -110.5t2.5 -123.5q-19 4 -44 4q-24 0 -44 -4q0 28 2.5 179t2.5 284q0 109 -2 189t-3 142q10 -2 19.5 -3t23.5 -1
q11 0 20 1t25 3zM313 470q-75 0 -115 -62t-40 -181q0 -200 145 -200q75 0 117 61.5t42 176.5q0 101 -38 153t-111 52z" />
    <glyph glyph-name="ntilde" unicode="&#xf1;" horiz-adv-x="490" 
d="M466 42q-36 -28 -79.5 -40t-101.5 -12q-111 0 -179.5 70.5t-68.5 188.5q0 119 72 190t191 71q90 0 172 -43q-18 -43 -28 -91q-45 100 -144 100q-84 0 -130.5 -59.5t-46.5 -166.5q0 -104 50.5 -163.5t134.5 -59.5t159 76l-3 -39z" />
    <glyph glyph-name="ntilde" unicode="&#x441;" horiz-adv-x="490" 
d="M466 42q-36 -28 -79.5 -40t-101.5 -12q-111 0 -179.5 70.5t-68.5 188.5q0 119 72 190t191 71q90 0 172 -43q-18 -43 -28 -91q-45 100 -144 100q-84 0 -130.5 -59.5t-46.5 -166.5q0 -104 50.5 -163.5t134.5 -59.5t159 76l-3 -39z" />
    <glyph glyph-name="ograve" unicode="&#xf2;" horiz-adv-x="486" 
d="M16 500q39 0 118 -2t105 -2q40 0 130.5 2t96.5 2l-2 -29l2 -29q-44 8 -77 11t-104 3q0 -27 -2 -105t-2 -88q0 -61 2.5 -155.5t2.5 -107.5q-8 2 -20.5 3t-24.5 1q-24 0 -43 -4q0 56 2.5 150t2.5 113q0 34 -2 100t-2 93q-57 0 -104.5 -4t-78.5 -10q3 11 3 29z" />
    <glyph glyph-name="ograve" unicode="&#x442;" horiz-adv-x="486" 
d="M16 500q39 0 118 -2t105 -2q40 0 130.5 2t96.5 2l-2 -29l2 -29q-44 8 -77 11t-104 3q0 -27 -2 -105t-2 -88q0 -61 2.5 -155.5t2.5 -107.5q-8 2 -20.5 3t-24.5 1q-24 0 -43 -4q0 56 2.5 150t2.5 113q0 34 -2 100t-2 93q-57 0 -104.5 -4t-78.5 -10q3 11 3 29z" />
    <glyph glyph-name="oacute" unicode="&#xf3;" horiz-adv-x="495" 
d="M220 3l-44 117q-20 50 -50 120q-35 81 -116 260q23 -4 52 -4h31q14 3 20 4q16 -57 40 -121.5t74 -185.5l37 -91l38 88q78 179 119 310q15 -4 36 -4h17q12 3 18 4q-24 -46 -48 -98.5t-53 -119.5l-142 -321q-42 -95 -59 -138q-26 -65 -38 -112q-15 3 -19.5 3.5t-16.5 0.5
l-37 -4q30 51 54 99q13 25 63 137z" />
    <glyph glyph-name="oacute" unicode="&#x443;" horiz-adv-x="495" 
d="M220 3l-44 117q-20 50 -50 120q-35 81 -116 260q23 -4 52 -4h31q14 3 20 4q16 -57 40 -121.5t74 -185.5l37 -91l38 88q78 179 119 310q15 -4 36 -4h17q12 3 18 4q-24 -46 -48 -98.5t-53 -119.5l-142 -321q-42 -95 -59 -138q-26 -65 -38 -112q-15 3 -19.5 3.5t-16.5 0.5
l-37 -4q30 51 54 99q13 25 63 137z" />
    <glyph glyph-name="ocircumflex" unicode="&#xf4;" horiz-adv-x="835" 
d="M374 257q0 99 -33 155t-96 56q-62 0 -97.5 -54.5t-35.5 -156.5q0 -87 29 -146q36 -73 107 -73q56 0 91 56t35 163zM452 83q0 -118 2 -200.5t9 -162.5q-8 2 -27 3t-21 1h-22.5t-28.5 -4q0 48 5 165t5 198q-22 -35 -55 -58q-42 -29 -92 -29q-76 0 -135 72q-66 80 -66 203
q0 103 51 167q57 72 163 72q45 0 84 -33q24 -20 50 -59q0 71 -1 115q-4 176 -4 187l44 -4h22q16 3 22 4q0 -60 -2.5 -169t-2.5 -133q19 32 51 57q44 35 89 35q110 0 163 -73q45 -62 45 -168q0 -123 -63 -202q-57 -71 -132 -71q-51 0 -95 28q-35 23 -58 59zM452 257
q0 -107 36 -165q33 -54 90 -54q71 0 107 73q29 59 29 146q0 102 -35 156.5t-98 54.5q-62 0 -95.5 -56.5t-33.5 -154.5z" />
    <glyph glyph-name="ocircumflex" unicode="&#x444;" horiz-adv-x="835" 
d="M374 257q0 99 -33 155t-96 56q-62 0 -97.5 -54.5t-35.5 -156.5q0 -87 29 -146q36 -73 107 -73q56 0 91 56t35 163zM452 83q0 -118 2 -200.5t9 -162.5q-8 2 -27 3t-21 1h-22.5t-28.5 -4q0 48 5 165t5 198q-22 -35 -55 -58q-42 -29 -92 -29q-76 0 -135 72q-66 80 -66 203
q0 103 51 167q57 72 163 72q45 0 84 -33q24 -20 50 -59q0 71 -1 115q-4 176 -4 187l44 -4h22q16 3 22 4q0 -60 -2.5 -169t-2.5 -133q19 32 51 57q44 35 89 35q110 0 163 -73q45 -62 45 -168q0 -123 -63 -202q-57 -71 -132 -71q-51 0 -95 28q-35 23 -58 59zM452 257
q0 -107 36 -165q33 -54 90 -54q71 0 107 73q29 59 29 146q0 102 -35 156.5t-98 54.5q-62 0 -95.5 -56.5t-33.5 -154.5z" />
    <glyph glyph-name="otilde" unicode="&#xf5;" horiz-adv-x="498" 
d="M232 210l-75 -95q-47 -59 -74 -115q-8 2 -18.5 3t-19.5 1q-21 0 -40 -4q42 44 76 85q18 22 55 71l70 91l-50 70q-31 43 -66 89t-73 94q24 -4 54 -4h33q15 3 21 4l47 -70l86 -123l63 82q30 38 49.5 65.5t28.5 45.5q10 -2 18 -3t20 -1q10 0 19 1t20 3q-80 -89 -130 -151
l-63 -78l99 -138q13 -18 29 -40q31 -41 74 -93q-27 4 -57 4h-22.5t-31.5 -4q-18 30 -46 73q-24 36 -57 83z" />
    <glyph glyph-name="otilde" unicode="&#x445;" horiz-adv-x="498" 
d="M232 210l-75 -95q-47 -59 -74 -115q-8 2 -18.5 3t-19.5 1q-21 0 -40 -4q42 44 76 85q18 22 55 71l70 91l-50 70q-31 43 -66 89t-73 94q24 -4 54 -4h33q15 3 21 4l47 -70l86 -123l63 82q30 38 49.5 65.5t28.5 45.5q10 -2 18 -3t20 -1q10 0 19 1t20 3q-80 -89 -130 -151
l-63 -78l99 -138q13 -18 29 -40q31 -41 74 -93q-27 4 -57 4h-22.5t-31.5 -4q-18 30 -46 73q-24 36 -57 83z" />
    <glyph glyph-name="odieresis" unicode="&#xf6;" horiz-adv-x="561" 
d="M373 85q-52 -95 -170 -95q-167 0 -167 173v100q0 56 -1 90q-4 137 -4 147q19 -4 43 -4h23q16 3 22 4q0 -50 -2.5 -134t-2.5 -103q0 -138 26 -181t95 -43q90 0 121 74q20 47 20 150q0 56 -1 90q-4 137 -4 147q19 -4 43 -4h23q16 3 22 4q0 -50 -2.5 -134t-2.5 -103
q0 -164 4 -198.5t24 -34.5q17 0 65 14l3 -4q0 -136 -30 -183q-34 -53 -140 -69l-9 21q65 11 85 47t20 144h-20q-43 0 -60 14q-23 19 -23 71z" />
    <glyph glyph-name="odieresis" unicode="&#x446;" horiz-adv-x="561" 
d="M373 85q-52 -95 -170 -95q-167 0 -167 173v100q0 56 -1 90q-4 137 -4 147q19 -4 43 -4h23q16 3 22 4q0 -50 -2.5 -134t-2.5 -103q0 -138 26 -181t95 -43q90 0 121 74q20 47 20 150q0 56 -1 90q-4 137 -4 147q19 -4 43 -4h23q16 3 22 4q0 -50 -2.5 -134t-2.5 -103
q0 -164 4 -198.5t24 -34.5q17 0 65 14l3 -4q0 -136 -30 -183q-34 -53 -140 -69l-9 21q65 11 85 47t20 144h-20q-43 0 -60 14q-23 19 -23 71z" />
    <glyph glyph-name="divide" unicode="&#xf7;" horiz-adv-x="482" 
d="M356 289q-27 -48 -57 -68q-43 -30 -116 -30q-51 0 -97 34q-60 45 -60 123q0 38 -1 82t-4 70q19 -4 46 -4h25q13 3 17 4q0 -37 -1.5 -71.5t-3.5 -76.5q0 -48 32.5 -78.5t84.5 -30.5q51 0 85 27q50 40 50 130q0 20 -1 47t-4 53q19 -4 43 -4h23q16 3 22 4q0 -50 -2.5 -134
t-2.5 -103q0 -61 2.5 -155.5t2.5 -107.5q-8 2 -20.5 3t-24.5 1q-24 0 -43 -4q0 59 2.5 163t2.5 126z" />
    <glyph glyph-name="divide" unicode="&#x447;" horiz-adv-x="482" 
d="M356 289q-27 -48 -57 -68q-43 -30 -116 -30q-51 0 -97 34q-60 45 -60 123q0 38 -1 82t-4 70q19 -4 46 -4h25q13 3 17 4q0 -37 -1.5 -71.5t-3.5 -76.5q0 -48 32.5 -78.5t84.5 -30.5q51 0 85 27q50 40 50 130q0 20 -1 47t-4 53q19 -4 43 -4h23q16 3 22 4q0 -50 -2.5 -134
t-2.5 -103q0 -61 2.5 -155.5t2.5 -107.5q-8 2 -20.5 3t-24.5 1q-24 0 -43 -4q0 59 2.5 163t2.5 126z" />
    <glyph glyph-name="oslash" unicode="&#xf8;" horiz-adv-x="810" 
d="M680 89q-39 -52 -76 -75.5t-83 -23.5q-51 0 -89.5 28.5t-52.5 77.5q-62 -106 -169 -106q-76 0 -117.5 44.5t-41.5 130.5l3 98q0 56 -1 90q-4 137 -4 147q19 -4 43 -4h23q16 3 22 4q0 -50 -2.5 -134t-2.5 -103q0 -132 20.5 -174t86.5 -42q75 0 105 65q23 50 23 151
q0 56 -1 90q-4 137 -4 147q19 -4 43 -4h23q16 3 22 4q0 -50 -2.5 -134t-2.5 -103q0 -132 19.5 -174t80.5 -42q81 0 112 65q23 48 23 151q0 49 -2 114.5t-3 122.5q19 -4 43 -4h23q16 3 22 4q0 -50 -2.5 -134t-2.5 -103q0 -61 2.5 -155.5t2.5 -107.5q-8 2 -20.5 3t-24.5 1
q-24 0 -43 -4q5 43 5 89z" />
    <glyph glyph-name="oslash" unicode="&#x448;" horiz-adv-x="810" 
d="M680 89q-39 -52 -76 -75.5t-83 -23.5q-51 0 -89.5 28.5t-52.5 77.5q-62 -106 -169 -106q-76 0 -117.5 44.5t-41.5 130.5l3 98q0 56 -1 90q-4 137 -4 147q19 -4 43 -4h23q16 3 22 4q0 -50 -2.5 -134t-2.5 -103q0 -132 20.5 -174t86.5 -42q75 0 105 65q23 50 23 151
q0 56 -1 90q-4 137 -4 147q19 -4 43 -4h23q16 3 22 4q0 -50 -2.5 -134t-2.5 -103q0 -132 19.5 -174t80.5 -42q81 0 112 65q23 48 23 151q0 49 -2 114.5t-3 122.5q19 -4 43 -4h23q16 3 22 4q0 -50 -2.5 -134t-2.5 -103q0 -61 2.5 -155.5t2.5 -107.5q-8 2 -20.5 3t-24.5 1
q-24 0 -43 -4q5 43 5 89z" />
    <glyph glyph-name="ugrave" unicode="&#xf9;" horiz-adv-x="865" 
d="M677 85q-38 -50 -74 -72.5t-82 -22.5q-51 0 -89.5 28.5t-52.5 77.5q-62 -106 -169 -106q-76 0 -117.5 44.5t-41.5 130.5l3 98q0 56 -1 90q-4 137 -4 147q19 -4 43 -4h23q16 3 22 4q0 -50 -2.5 -134t-2.5 -103q0 -132 20.5 -174t86.5 -42q75 0 105 65q23 50 23 151
q0 56 -1 90q-4 137 -4 147q19 -4 43 -4h23q16 3 22 4q0 -50 -2.5 -134t-2.5 -103q0 -132 19.5 -174t80.5 -42q81 0 112 65q23 48 23 151q0 56 -1 90q-4 137 -4 147q19 -4 43 -4h23q16 3 22 4q0 -50 -2.5 -134t-2.5 -103q0 -168 4 -200.5t24 -32.5q17 0 65 14l3 -4
q0 -136 -30 -183q-34 -53 -140 -69l-9 21q65 11 85 47t20 144h-20q-43 0 -60 14q-23 19 -23 71z" />
    <glyph glyph-name="ugrave" unicode="&#x449;" horiz-adv-x="865" 
d="M677 85q-38 -50 -74 -72.5t-82 -22.5q-51 0 -89.5 28.5t-52.5 77.5q-62 -106 -169 -106q-76 0 -117.5 44.5t-41.5 130.5l3 98q0 56 -1 90q-4 137 -4 147q19 -4 43 -4h23q16 3 22 4q0 -50 -2.5 -134t-2.5 -103q0 -132 20.5 -174t86.5 -42q75 0 105 65q23 50 23 151
q0 56 -1 90q-4 137 -4 147q19 -4 43 -4h23q16 3 22 4q0 -50 -2.5 -134t-2.5 -103q0 -132 19.5 -174t80.5 -42q81 0 112 65q23 48 23 151q0 56 -1 90q-4 137 -4 147q19 -4 43 -4h23q16 3 22 4q0 -50 -2.5 -134t-2.5 -103q0 -168 4 -200.5t24 -32.5q17 0 65 14l3 -4
q0 -136 -30 -183q-34 -53 -140 -69l-9 21q65 11 85 47t20 144h-20q-43 0 -60 14q-23 19 -23 71z" />
    <glyph glyph-name="uacute" unicode="&#xfa;" horiz-adv-x="553" 
d="M8 500q4 0 27 -2t45 -2q13 0 55 2t60 2q0 -38 -4 -117t-4 -120v-93q0 -70 39 -109q34 -34 84 -34q51 0 80.5 33t29.5 106q0 67 -27.5 103.5t-82.5 36.5q-11 0 -31 -5t-35 -14l-13 19q7 9 30 19q32 14 63 14q100 0 149 -54q40 -44 40 -111q0 -89 -52.5 -136.5
t-148.5 -47.5q-23 0 -54 11q-45 16 -75 49q-16 -13 -25.5 -21.5t-25.5 -28.5h-25q0 37 1.5 118.5t3.5 144.5q0 56 -1 104.5t-2 91.5q-29 0 -53.5 -3.5t-46.5 -8.5l2 23z" />
    <glyph glyph-name="uacute" unicode="&#x44a;" horiz-adv-x="553" 
d="M8 500q4 0 27 -2t45 -2q13 0 55 2t60 2q0 -38 -4 -117t-4 -120v-93q0 -70 39 -109q34 -34 84 -34q51 0 80.5 33t29.5 106q0 67 -27.5 103.5t-82.5 36.5q-11 0 -31 -5t-35 -14l-13 19q7 9 30 19q32 14 63 14q100 0 149 -54q40 -44 40 -111q0 -89 -52.5 -136.5
t-148.5 -47.5q-23 0 -54 11q-45 16 -75 49q-16 -13 -25.5 -21.5t-25.5 -28.5h-25q0 37 1.5 118.5t3.5 144.5q0 56 -1 104.5t-2 91.5q-29 0 -53.5 -3.5t-46.5 -8.5l2 23z" />
    <glyph glyph-name="ucircumflex" unicode="&#xfb;" horiz-adv-x="688" 
d="M646 500q0 -50 -2.5 -134t-2.5 -103q0 -61 2.5 -155.5t2.5 -107.5q-8 2 -20.5 3t-24.5 1q-24 0 -43 -4q0 56 2.5 150t2.5 113q0 56 -1 90q-4 137 -4 147q19 -4 43 -4h23q16 3 22 4zM59 0h-23q0 34 2.5 137t2.5 126q0 56 -1 90q-4 137 -4 147q19 -4 43 -4h23q16 3 22 4
q0 -50 -2.5 -134t-2.5 -103v-93q0 -70 38 -109q34 -34 84 -34q51 0 80.5 33t29.5 106q0 67 -27.5 103.5t-82.5 36.5q-11 0 -31 -5t-35 -14l-13 19q7 9 30 19q32 14 63 14q100 0 149 -54q40 -44 40 -111q0 -90 -52 -137t-149 -47q-23 0 -54 11q-45 16 -75 49
q-18 -12 -28.5 -21.5t-26.5 -28.5z" />
    <glyph glyph-name="ucircumflex" unicode="&#x44b;" horiz-adv-x="688" 
d="M646 500q0 -50 -2.5 -134t-2.5 -103q0 -61 2.5 -155.5t2.5 -107.5q-8 2 -20.5 3t-24.5 1q-24 0 -43 -4q0 56 2.5 150t2.5 113q0 56 -1 90q-4 137 -4 147q19 -4 43 -4h23q16 3 22 4zM59 0h-23q0 34 2.5 137t2.5 126q0 56 -1 90q-4 137 -4 147q19 -4 43 -4h23q16 3 22 4
q0 -50 -2.5 -134t-2.5 -103v-93q0 -70 38 -109q34 -34 84 -34q51 0 80.5 33t29.5 106q0 67 -27.5 103.5t-82.5 36.5q-11 0 -31 -5t-35 -14l-13 19q7 9 30 19q32 14 63 14q100 0 149 -54q40 -44 40 -111q0 -90 -52 -137t-149 -47q-23 0 -54 11q-45 16 -75 49
q-18 -12 -28.5 -21.5t-26.5 -28.5z" />
    <glyph glyph-name="udieresis" unicode="&#xfc;" horiz-adv-x="480" 
d="M57 0h-23q0 31 2.5 127.5t2.5 135.5q0 56 -1 90q-4 137 -4 147q19 -4 43 -4h23q16 3 22 4q0 -50 -2.5 -134t-2.5 -103v-93q0 -70 38 -109q34 -34 84 -34q51 0 80.5 33t29.5 106q0 67 -27.5 103.5t-82.5 36.5q-11 0 -31 -5t-35 -14l-13 19q7 9 30 19q32 14 63 14
q100 0 149 -54q40 -44 40 -111q0 -90 -52 -137t-149 -47q-23 0 -54 11q-45 16 -75 49q-18 -12 -28.5 -21.5t-26.5 -28.5z" />
    <glyph glyph-name="udieresis" unicode="&#x44c;" horiz-adv-x="480" 
d="M57 0h-23q0 31 2.5 127.5t2.5 135.5q0 56 -1 90q-4 137 -4 147q19 -4 43 -4h23q16 3 22 4q0 -50 -2.5 -134t-2.5 -103v-93q0 -70 38 -109q34 -34 84 -34q51 0 80.5 33t29.5 106q0 67 -27.5 103.5t-82.5 36.5q-11 0 -31 -5t-35 -14l-13 19q7 9 30 19q32 14 63 14
q100 0 149 -54q40 -44 40 -111q0 -90 -52 -137t-149 -47q-23 0 -54 11q-45 16 -75 49q-18 -12 -28.5 -21.5t-26.5 -28.5z" />
    <glyph glyph-name="yacute" unicode="&#xfd;" horiz-adv-x="490" 
d="M385 276q0 95 -48.5 147.5t-128.5 52.5q-99 0 -144 -100q-10 48 -28 91q82 43 172 43q119 0 191 -71t72 -190t-68 -189t-180 -70q-57 0 -101.5 12.5t-79.5 39.5l2 22l-3 39q75 -76 159 -76q82 0 133.5 56.5t51.5 155.5h-102q-35 0 -66 -2t-60 -5v51q28 -2 66.5 -4.5
t59.5 -2.5h102z" />
    <glyph glyph-name="yacute" unicode="&#x44d;" horiz-adv-x="490" 
d="M385 276q0 95 -48.5 147.5t-128.5 52.5q-99 0 -144 -100q-10 48 -28 91q82 43 172 43q119 0 191 -71t72 -190t-68 -189t-180 -70q-57 0 -101.5 12.5t-79.5 39.5l2 22l-3 39q75 -76 159 -76q82 0 133.5 56.5t51.5 155.5h-102q-35 0 -66 -2t-60 -5v51q28 -2 66.5 -4.5
t59.5 -2.5h102z" />
    <glyph glyph-name="thorn" unicode="&#xfe;" horiz-adv-x="731" 
d="M115 243q0 -56 2.5 -143t2.5 -100q-8 2 -20.5 3t-24.5 1q-24 0 -43 -4q0 56 2.5 150t2.5 113q0 56 -1 90q-4 137 -4 147q19 -4 43 -4h23q16 3 22 4q0 -48 -1 -78q-4 -120 -4 -132h76q13 99 82.5 159.5t168.5 60.5q111 0 181 -72t70 -188q0 -117 -70.5 -188.5
t-180.5 -71.5q-108 0 -179.5 70.5t-71.5 182.5h-76zM442 24q78 0 119.5 55.5t41.5 164.5q0 114 -41 173t-121 59q-160 0 -160 -225q0 -227 161 -227z" />
    <glyph glyph-name="thorn" unicode="&#x44e;" horiz-adv-x="731" 
d="M115 243q0 -56 2.5 -143t2.5 -100q-8 2 -20.5 3t-24.5 1q-24 0 -43 -4q0 56 2.5 150t2.5 113q0 56 -1 90q-4 137 -4 147q19 -4 43 -4h23q16 3 22 4q0 -48 -1 -78q-4 -120 -4 -132h76q13 99 82.5 159.5t168.5 60.5q111 0 181 -72t70 -188q0 -117 -70.5 -188.5
t-180.5 -71.5q-108 0 -179.5 70.5t-71.5 182.5h-76zM442 24q78 0 119.5 55.5t41.5 164.5q0 114 -41 173t-121 59q-160 0 -160 -225q0 -227 161 -227z" />
    <glyph glyph-name="ydieresis" unicode="&#xff;" horiz-adv-x="480" 
d="M454 502q0 -44 -2.5 -117.5t-2.5 -121.5q0 -61 2.5 -155.5t2.5 -107.5q-8 2 -20.5 3t-24.5 1q-24 0 -43 -4q0 56 2.5 150t2.5 113v83q0 66 -37 100q-30 28 -73 28q-47 0 -80 -30q-39 -35 -39 -96q0 -63 34 -97q30 -30 73 -30q17 0 26 3l6 2l5 -13q-26 -20 -63 -69
q-56 -78 -104 -144q-3 1 -18.5 2.5t-35.5 1.5q-18 0 -35 -1t-26 -3q44 43 97 103q35 39 86 100l-9 2q-50 11 -87 49q-42 44 -42 101q0 73 56 114.5t135 41.5q45 0 76 -11q42 -15 69 -49l49 51h20z" />
    <glyph glyph-name="ydieresis" unicode="&#x44f;" horiz-adv-x="480" 
d="M454 502q0 -44 -2.5 -117.5t-2.5 -121.5q0 -61 2.5 -155.5t2.5 -107.5q-8 2 -20.5 3t-24.5 1q-24 0 -43 -4q0 56 2.5 150t2.5 113v83q0 66 -37 100q-30 28 -73 28q-47 0 -80 -30q-39 -35 -39 -96q0 -63 34 -97q30 -30 73 -30q17 0 26 3l6 2l5 -13q-26 -20 -63 -69
q-56 -78 -104 -144q-3 1 -18.5 2.5t-35.5 1.5q-18 0 -35 -1t-26 -3q44 43 97 103q35 39 86 100l-9 2q-50 11 -87 49q-42 44 -42 101q0 73 56 114.5t135 41.5q45 0 76 -11q42 -15 69 -49l49 51h20z" />
    </font>
</defs>
</svg>
