<?xml version="1.0" standalone="no"?>
<!DOCTYPE svg PUBLIC "-//W3C//DTD SVG 1.1//EN" "http://www.w3.org/Graphics/SVG/1.1/DTD/svg11.dtd" >
<svg xmlns="http://www.w3.org/2000/svg" xmlns:xlink="http://www.w3.org/1999/xlink" version="1.1">
<metadata>
Created by FontForge 20141024 at Wed Dec 23 09:24:33 2015
 By Jimmy Warting
Copyright 1990, 1991, 1992, 1994, 1997, 1998, 2000, 2002, 2004 Adobe Systems Incorporated. All rights reserved. Minion is either a registered trademark or a trademark of Adobe Systems Incorporated in the United States and/or other countries.
</metadata>
<defs>
<font id="MinionPro-BoldIt" horiz-adv-x="400" >
  <font-face 
    font-family="Minion Pro"
    font-weight="700"
    font-style="italic"
    font-stretch="normal"
    units-per-em="1000"
    panose-1="2 4 7 3 6 2 1 9 2 3"
    ascent="727"
    descent="-273"
    x-height="453"
    cap-height="649"
    bbox="-230 -360 1684 1032"
    underline-thickness="50"
    underline-position="-50"
    slope="-12"
    stemh="43"
    stemv="122"
    unicode-range="U+0020-FB06"
  />
<missing-glyph horiz-adv-x="500" 
d="M0 0v700h500v-700h-500zM250 395l170 255h-340zM280 350l170 -255v510zM80 50h340l-170 255zM50 605v-510l170 255z" />
    <glyph glyph-name="T_h" unicode="Th" horiz-adv-x="1071" 
d="M1031 122l15 -30c-68 -69 -137 -104 -173 -104c-32 0 -48 27 -29 107l51 218c8 34 4 49 -8 49c-32 0 -110 -81 -155 -156c-13 -52 -30 -142 -39 -196c-40 -3 -81 -13 -119 -22l-6 9c42 191 83 395 120 601c-55 5 -110 8 -175 8h-39l-96 -477c-15 -80 -10 -87 77 -95
l-8 -34h-311l7 34c79 7 86 15 104 95l104 477h-51c-81 0 -104 -9 -124 -30c-17 -19 -36 -47 -57 -92h-38c22 65 40 137 51 190h28c10 -23 19 -25 46 -25h425c54 0 65 5 69 19l2 10c44 14 94 32 110 32c14 0 15 -8 10 -36c-26 -130 -53 -260 -79 -391h2
c52 68 112 118 150 141c29 18 58 29 82 29c29 0 63 -16 38 -128l-45 -200c-7 -32 -5 -39 2 -41c8 0 37 18 59 38z" />
    <glyph glyph-name="f_b" unicode="fb" horiz-adv-x="795" 
d="M361 436l-22 -40l-96 -9c-15 -91 -27 -174 -53 -288c-38 -164 -81 -233 -150 -290c-42 -35 -81 -53 -112 -53c-32 0 -64 21 -64 47c0 23 18 45 35 58c8 6 15 7 21 2c20 -19 54 -35 74 -35c15 0 24 6 31 22c6 13 19 52 44 206c23 141 35 235 51 331h-80l-4 10l33 39h62
c18 82 40 138 98 191c42 39 112 76 164 76c32 0 64 -11 81 -24c23 8 71 24 90 24c13 0 14 -13 8 -37c-27 -121 -49 -230 -74 -339h2c72 85 147 126 198 126c52 0 83 -47 83 -123c0 -107 -56 -221 -148 -284c-56 -39 -119 -58 -169 -58c-52 0 -85 22 -103 48
c-19 27 -19 69 -7 133c29 146 58 288 88 437c-23 28 -54 48 -88 48c-39 0 -70 -20 -101 -218h108zM621 374c-25 0 -64 -24 -132 -118c-5 -13 -12 -47 -18 -84c-20 -111 19 -133 48 -133c15 0 29 5 42 15c38 28 91 142 91 257c0 38 -14 63 -31 63z" />
    <glyph glyph-name="f_f" unicode="ff" horiz-adv-x="571" 
d="M65 436h64c14 61 37 117 88 163c42 39 117 80 186 80c55 0 93 -22 108 -41c43 34 97 65 145 65c45 0 72 -29 71 -50c-1 -17 -13 -40 -31 -53c-12 -9 -23 -12 -36 0c-25 26 -50 45 -69 45c-19 1 -36 -8 -66 -209h119l-22 -39l-105 -9c-10 -61 -22 -148 -45 -263
c-31 -158 -75 -228 -161 -292c-44 -33 -94 -53 -135 -53c-36 0 -82 11 -118 46c-20 -21 -83 -70 -132 -70c-30 0 -62 17 -61 43c0 16 17 42 28 52c9 8 20 16 29 10c24 -17 53 -33 70 -33c14 0 25 9 32 22c8 16 23 73 47 227c21 129 34 213 50 311h-83l-5 10zM251 436h150
c12 60 31 108 57 141c-26 36 -62 56 -102 56c-52 0 -78 -33 -105 -197zM394 388h-150c-15 -88 -29 -170 -50 -276c-20 -99 -43 -162 -84 -222c22 -26 71 -51 116 -51c38 0 66 16 81 58c14 28 24 72 42 195c23 149 33 222 45 296z" />
    <glyph glyph-name="f_f_b" unicode="ffb" horiz-adv-x="1068" 
d="M635 436l-21 -40l-95 -8c-9 -61 -23 -148 -43 -250c-32 -164 -83 -248 -166 -308c-43 -31 -90 -50 -132 -50c-36 0 -80 11 -115 50c-23 -24 -83 -74 -132 -74c-30 0 -62 17 -62 41c1 18 16 44 26 53c9 9 21 16 29 10c24 -17 51 -30 69 -30c14 0 26 8 33 22
c8 15 25 65 49 219c18 126 31 216 47 317h-83l-5 10l32 38h65c15 65 38 116 94 167c43 39 115 80 183 80c49 0 88 -20 107 -45c44 39 105 65 152 65c31 0 64 -11 80 -24c24 8 72 24 90 24c13 0 14 -13 8 -37c-27 -121 -49 -230 -74 -340h2c79 89 150 127 198 127
c51 0 83 -47 83 -122c0 -106 -57 -222 -149 -286c-56 -38 -118 -57 -168 -57c-51 0 -84 22 -102 48c-19 27 -19 69 -7 133c28 145 57 287 87 433c-23 32 -53 55 -86 55c-41 -2 -71 -23 -102 -221h108zM896 371c-24 0 -66 -22 -134 -118c-4 -13 -11 -45 -17 -81
c-20 -112 17 -134 46 -134c15 0 29 5 42 15c38 28 92 143 92 257c0 39 -11 61 -29 61zM253 436h151c14 66 28 104 56 141c-24 41 -62 57 -99 57c-48 0 -82 -32 -108 -198zM395 388h-150c-15 -92 -28 -174 -49 -279c-20 -98 -46 -162 -83 -220c22 -25 65 -53 110 -53
s70 21 87 72c12 34 25 82 40 174c24 159 34 238 45 306z" />
    <glyph glyph-name="f_f_h" unicode="ffh" horiz-adv-x="1096" 
d="M1057 122l16 -30c-68 -69 -138 -104 -173 -104c-32 0 -48 27 -29 107l50 217c8 34 5 49 -7 49c-35 0 -108 -79 -157 -156c-12 -52 -29 -141 -38 -195c-40 -3 -81 -13 -119 -22l-6 9c42 189 79 382 122 607c-23 30 -54 55 -88 55c-41 -2 -72 -24 -103 -223h109l-21 -39
l-95 -8c-10 -59 -24 -149 -44 -251c-32 -162 -82 -247 -163 -308c-42 -31 -89 -50 -133 -50c-35 0 -82 12 -117 50c-23 -24 -85 -74 -135 -74c-30 0 -61 17 -61 41c1 18 17 44 28 54c8 8 20 16 28 10c24 -17 53 -31 71 -31c14 0 26 8 33 22c8 15 24 67 47 224
c20 132 33 217 49 313h-83l-5 10l32 37h65c15 65 37 115 93 166c42 40 113 81 188 81c50 0 87 -20 108 -41c40 35 98 61 147 61c32 0 65 -11 82 -24c24 8 71 24 90 24c13 0 13 -12 9 -33l-79 -389h2c62 80 114 120 151 143c30 19 59 29 83 29c29 0 62 -16 37 -128l-45 -200
c-6 -31 -2 -35 1 -42c8 0 39 19 60 39zM252 436h150c14 66 30 104 61 145c-27 36 -62 54 -100 54c-50 0 -85 -33 -111 -199zM395 389h-151c-16 -92 -30 -175 -51 -279c-20 -97 -44 -161 -81 -220c22 -25 67 -53 116 -53c39 0 65 20 82 71c13 33 23 81 38 174
c24 159 36 239 47 307z" />
    <glyph glyph-name="f_f_i" unicode="ffi" horiz-adv-x="824" 
d="M792 127l15 -29c-68 -76 -146 -110 -175 -110c-32 0 -53 21 -32 112c17 73 34 146 50 219c15 63 7 69 -47 69h-85c-10 -59 -24 -148 -47 -262c-31 -159 -79 -234 -159 -294c-43 -32 -92 -52 -135 -52c-33 0 -81 11 -116 50c-25 -26 -83 -74 -133 -74c-31 0 -61 18 -61 41
c1 19 15 43 26 53c9 9 20 16 29 10c24 -17 51 -32 67 -32c14 0 27 8 34 22c7 15 20 46 47 227c19 130 35 213 51 311h-83l-5 10l32 38h65c14 63 36 112 90 162c40 37 114 81 185 81c52 0 89 -21 107 -41c39 36 102 65 159 65c93 0 117 -52 117 -79c0 -23 -16 -43 -55 -57
c-27 -12 -43 -8 -47 9c-11 51 -30 84 -59 84c-53 0 -81 -92 -101 -224h57c87 0 135 7 179 17c28 0 30 -36 19 -82c-19 -81 -38 -157 -59 -248c-6 -27 -6 -38 4 -38c9 0 40 18 66 42zM252 436h151c12 57 24 96 54 139c-27 38 -64 57 -100 57c-50 0 -78 -38 -105 -196z
M395 388h-152c-15 -88 -30 -172 -52 -278c-20 -99 -43 -163 -79 -220c23 -28 70 -54 116 -54c38 0 66 19 82 67c11 28 21 67 36 171c26 167 38 244 49 314z" />
    <glyph glyph-name="f_f_j" unicode="ffj" horiz-adv-x="815" 
d="M68 436h64c14 63 36 113 91 162c40 38 115 81 185 81c52 0 89 -20 108 -40c39 36 101 64 158 64c92 0 117 -52 117 -79c0 -23 -15 -45 -54 -58c-27 -10 -43 -7 -47 10c-11 51 -28 84 -57 84c-54 0 -85 -91 -103 -224h56c87 0 135 7 179 17c28 0 29 -29 20 -76
c-12 -59 -33 -178 -60 -306c-20 -98 -58 -178 -141 -237c-60 -44 -94 -54 -116 -54c-23 0 -48 12 -48 37c1 21 22 50 37 62c7 6 11 7 20 1c20 -16 43 -28 62 -28c16 0 26 11 39 67c24 105 41 210 77 402c11 60 5 67 -48 67h-86c-10 -59 -24 -148 -47 -262
c-33 -160 -80 -234 -159 -294c-43 -32 -93 -52 -136 -52c-33 0 -79 11 -117 49c-23 -24 -81 -73 -131 -73c-32 0 -61 18 -61 41c1 19 15 44 26 53c9 9 20 16 29 10c24 -17 53 -32 71 -32c12 0 22 8 29 22c8 15 20 47 49 227c21 131 34 215 50 311h-83l-5 10zM255 436h150
c10 55 26 97 56 140c-28 38 -64 55 -100 55c-51 0 -81 -36 -106 -195zM397 388h-151c-15 -88 -28 -172 -50 -278c-20 -103 -46 -169 -83 -221c25 -27 70 -53 116 -53c38 0 63 19 79 67c11 25 21 65 39 169c28 167 40 246 50 316z" />
    <glyph glyph-name="f_f_k" unicode="ffk" horiz-adv-x="1052" 
d="M758 254h2c28 36 51 62 78 87c57 58 111 112 164 112c29 0 52 -17 52 -39c0 -18 -11 -40 -25 -54c-6 -7 -14 -10 -19 -8c-11 6 -27 11 -50 11c-33 0 -71 -21 -94 -50c10 -34 23 -76 44 -125c32 -76 50 -113 67 -113c10 0 29 11 52 36l19 -26c-54 -76 -105 -97 -134 -97
c-28 0 -55 22 -76 71c-20 47 -42 108 -61 170c-15 -17 -25 -29 -32 -42c-16 -76 -25 -131 -32 -178c-39 -4 -82 -12 -114 -21l-8 6c41 191 79 378 123 607c-21 36 -52 57 -86 57c-41 -2 -71 -24 -102 -222h108l-21 -40l-95 -8c-10 -60 -24 -148 -45 -250
c-32 -164 -82 -247 -164 -308c-43 -31 -91 -51 -133 -51c-35 0 -80 11 -114 51c-24 -24 -86 -74 -135 -74c-30 0 -62 17 -62 41c1 18 18 43 29 53c8 9 20 16 29 10c24 -17 51 -32 69 -32c14 0 27 8 34 22c7 15 23 69 46 226c20 132 33 217 49 312h-84l-4 10l32 38h64
c16 65 40 115 95 167c45 43 118 80 188 80c50 0 85 -19 106 -40c39 34 103 60 148 60c32 0 65 -11 82 -24c23 8 71 24 91 24c12 0 12 -9 8 -29c-31 -143 -59 -277 -89 -420zM252 436h150c13 65 28 105 59 147c-24 36 -59 53 -95 53c-56 0 -87 -34 -114 -200zM394 388h-151
c-15 -92 -29 -174 -51 -278c-21 -99 -43 -164 -80 -221c22 -26 65 -53 111 -53c38 0 68 16 85 67c14 37 26 86 40 179c24 153 35 238 46 306z" />
    <glyph glyph-name="f_f_l" unicode="ffl" horiz-adv-x="833" 
d="M635 436l-22 -39l-95 -9c-11 -59 -22 -147 -46 -267c-31 -154 -79 -229 -158 -289c-43 -32 -89 -52 -133 -52c-37 0 -83 12 -118 52c-24 -27 -89 -76 -138 -76c-31 0 -62 17 -62 41c1 18 15 40 25 50c9 8 20 16 29 10c24 -17 54 -32 72 -32c14 0 27 8 35 23
c9 17 20 48 48 229c19 130 33 213 49 311h-84l-4 10l32 38h64c15 63 38 116 92 166c38 37 112 77 186 77c54 0 89 -25 105 -40c37 29 102 64 164 64c33 0 63 -12 77 -24c31 11 73 24 84 24c10 0 14 -13 7 -46c-37 -171 -70 -347 -105 -536c-6 -29 -4 -40 3 -40
c8 0 39 18 62 38l15 -25c-64 -73 -139 -106 -171 -106c-26 0 -50 20 -31 118c33 170 66 334 100 502c-13 22 -45 51 -83 51c-76 0 -95 -137 -108 -223h109zM251 436h154c13 63 27 102 53 137c-25 39 -67 60 -102 60c-44 0 -79 -33 -105 -197zM396 388h-154
c-14 -86 -28 -174 -50 -280c-19 -99 -45 -165 -78 -215c24 -28 74 -56 119 -56c37 0 61 18 77 63c11 24 22 69 39 176c25 167 36 242 47 312z" />
    <glyph glyph-name="f_f_t" unicode="fft" horiz-adv-x="867" 
d="M911 436l-28 -43l-96 -5l-49 -250c-7 -40 -5 -59 5 -59c14 0 57 29 82 52l16 -27c-39 -53 -130 -116 -185 -116c-37 0 -58 35 -36 141l53 259h-154c-10 -60 -25 -148 -46 -258c-32 -164 -82 -241 -162 -300c-43 -31 -88 -50 -132 -50c-34 0 -81 11 -115 50
c-24 -24 -84 -74 -133 -74c-30 0 -62 17 -62 41c1 18 16 44 26 53c9 9 21 16 29 10c24 -17 51 -30 69 -30c14 0 27 8 34 22c7 15 24 67 47 224c19 132 31 216 47 312h-83l-5 10l33 38h64c16 63 39 112 96 164c39 36 110 79 182 79c52 0 88 -20 107 -41c42 39 98 64 147 65
c50 0 78 -29 77 -56s-24 -50 -37 -58c-10 -6 -17 -6 -27 4c-27 31 -52 57 -72 57c-25 1 -50 -42 -75 -214h155l18 75l115 73l13 -11l-31 -137h113zM254 436h149c14 66 29 104 57 142c-26 35 -63 53 -95 53c-56 0 -84 -33 -111 -195zM395 388h-151c-14 -92 -28 -174 -48 -278
c-21 -99 -46 -164 -83 -221c22 -26 66 -53 115 -53c39 0 63 16 81 71c13 33 24 82 39 175c24 159 36 238 47 306z" />
    <glyph glyph-name="f_h" unicode="fh" horiz-adv-x="822" 
d="M783 122l16 -30c-68 -69 -138 -104 -173 -104c-32 0 -48 27 -29 107l50 217c8 34 5 49 -7 49c-35 0 -109 -83 -157 -160c-13 -52 -29 -137 -38 -191c-40 -3 -81 -13 -119 -22l-6 9c42 189 80 386 122 610c-22 30 -54 50 -88 50c-41 -2 -71 -23 -102 -221h108l-21 -41
l-95 -8c-16 -91 -28 -174 -55 -291c-37 -161 -81 -230 -151 -287c-41 -35 -80 -53 -111 -53c-32 0 -64 21 -64 47c0 23 19 46 36 59c8 6 14 7 21 2c20 -19 54 -37 74 -37c15 0 24 6 31 22c6 13 19 53 44 211c22 137 35 232 51 327h-80l-4 10l33 39h60c19 82 42 140 100 193
c41 39 112 76 165 76c32 0 65 -11 81 -24c24 8 71 24 91 24c12 0 12 -12 7 -34l-79 -389h2c63 81 114 120 151 143c30 18 58 28 82 28c29 0 63 -16 38 -128l-44 -200c-7 -32 -4 -36 0 -42c8 0 39 19 60 39z" />
    <glyph glyph-name="f_i" unicode="fi" horiz-adv-x="554" 
d="M521 128l17 -27c-66 -83 -147 -113 -177 -113c-31 0 -54 21 -32 112c16 73 34 146 51 219c15 63 6 70 -47 70h-89c-15 -86 -30 -177 -56 -288c-40 -166 -86 -233 -156 -291c-42 -35 -80 -54 -111 -54c-36 0 -67 20 -67 47c0 21 19 46 36 59c8 6 17 6 24 1
c21 -19 52 -35 74 -35c16 0 24 10 33 24c8 13 22 49 49 216c21 132 34 217 51 321h-77l-4 10l31 37h58c14 74 50 148 108 199c47 39 110 68 168 68c89 0 113 -48 113 -75c0 -23 -18 -49 -51 -59c-29 -11 -48 -7 -52 13c-10 51 -27 79 -56 79c-52 0 -85 -104 -105 -225h59
c86 0 134 7 178 16c29 1 33 -26 19 -82c-19 -80 -38 -157 -56 -237c-9 -37 -8 -49 3 -49c7 0 36 19 64 44z" />
    <glyph glyph-name="f_j" unicode="fj" horiz-adv-x="540" 
d="M71 436h58c14 74 50 148 109 199c46 39 104 68 165 68c90 0 115 -48 115 -75c0 -23 -15 -48 -50 -59c-30 -11 -48 -7 -52 13c-11 51 -27 79 -57 79c-51 0 -85 -104 -105 -225h56c86 0 135 7 178 16c29 2 32 -24 21 -80c-12 -64 -33 -172 -60 -300
c-20 -98 -59 -178 -142 -237c-60 -44 -89 -54 -112 -54s-51 14 -51 39c0 22 22 49 38 61c6 6 11 7 19 1c21 -16 44 -29 63 -29c17 0 26 12 39 68c24 103 42 212 77 402c11 59 4 65 -49 65h-87c-15 -86 -30 -175 -56 -288c-40 -171 -85 -231 -157 -290
c-41 -35 -79 -54 -111 -54c-35 0 -67 20 -66 47c0 21 18 44 35 57c8 6 15 7 21 2c21 -19 53 -36 75 -36c15 0 25 7 34 25c8 13 21 50 48 217c22 131 36 216 53 320h-77l-4 10z" />
    <glyph glyph-name="f_k" unicode="fk" horiz-adv-x="776" 
d="M484 254h2c29 36 51 62 78 88c56 54 112 111 165 111c29 0 52 -16 52 -38c0 -19 -12 -41 -25 -55c-6 -7 -14 -10 -20 -8c-10 6 -26 11 -49 11c-33 0 -71 -23 -94 -51c10 -35 23 -75 44 -124c32 -76 50 -112 67 -112c10 0 30 11 53 36l18 -27c-53 -76 -105 -97 -134 -97
s-55 22 -76 71c-20 47 -42 108 -61 169c-16 -16 -25 -28 -32 -41c-16 -76 -25 -131 -33 -178c-39 -4 -81 -12 -113 -21l-8 6c40 191 79 375 123 605c-21 35 -53 56 -85 56c-42 0 -72 -21 -103 -219h108l-21 -40l-95 -8c-16 -91 -29 -172 -55 -288
c-36 -165 -83 -234 -152 -291c-41 -35 -81 -53 -112 -53c-32 0 -64 21 -64 47c0 23 17 46 37 59c8 6 14 7 21 2c20 -19 52 -35 72 -35c15 0 26 7 33 23c6 13 19 50 44 208c22 137 35 230 51 327h-80l-4 10l33 39h61c18 82 41 138 100 191c43 39 110 76 168 76
c29 0 60 -11 77 -24c23 8 71 24 89 24c12 0 14 -10 10 -30c-31 -143 -59 -277 -90 -419z" />
    <glyph glyph-name="f_l" unicode="fl" horiz-adv-x="561" 
d="M362 436l-21 -40l-97 -9c-16 -86 -29 -181 -56 -294c-38 -165 -84 -225 -155 -283c-41 -35 -80 -54 -111 -54c-36 0 -69 20 -68 47c0 21 18 46 35 58c9 6 15 7 21 2c21 -19 55 -37 78 -37c16 0 26 10 33 24c7 13 25 66 50 218c21 133 32 214 50 319h-79l-5 10l34 39h58
c14 79 46 137 97 185c48 45 126 82 180 82c31 0 63 -11 77 -23c30 11 71 23 83 23c10 0 13 -15 6 -46c-38 -183 -72 -343 -104 -518c-8 -47 -3 -49 1 -58c9 0 42 19 64 39l16 -28c-58 -71 -136 -104 -173 -104c-27 0 -49 21 -28 129c32 165 65 328 98 491
c-13 21 -48 47 -86 47c-66 0 -90 -113 -108 -219h110z" />
    <glyph glyph-name="f_t" unicode="ft" horiz-adv-x="596" 
d="M640 436l-28 -43l-96 -5l-49 -251c-8 -39 -5 -58 5 -58c14 0 57 29 82 52l16 -27c-39 -52 -129 -116 -185 -116c-36 0 -58 35 -36 142l53 258h-157c-16 -87 -30 -176 -55 -287c-38 -166 -85 -234 -155 -292c-42 -35 -80 -53 -111 -53c-36 0 -67 20 -66 47
c0 21 18 45 35 58c8 6 14 7 21 1c20 -18 53 -34 74 -34c16 0 26 11 34 25c7 13 21 48 48 215c21 131 34 215 51 320h-77l-4 10l32 38h59c15 71 45 141 99 190c49 43 111 77 160 77c50 0 79 -30 78 -56c-2 -27 -25 -50 -38 -58c-10 -6 -17 -6 -27 4c-27 31 -51 56 -71 56
c-26 1 -51 -44 -78 -213h158l17 75l116 73l13 -11l-31 -137h113z" />
    <glyph glyph-name="longs_b" unicode="&#x17f;b" horiz-adv-x="774" 
d="M477 325h2c77 87 146 128 198 128s82 -46 82 -121c0 -106 -57 -223 -149 -286c-58 -40 -119 -58 -167 -58c-51 0 -84 22 -102 47c-19 28 -20 70 -9 126c28 147 58 291 88 442c-18 29 -53 49 -81 49c-40 1 -70 -18 -112 -281c-11 -69 -28 -173 -51 -278
c-37 -163 -87 -229 -157 -286c-41 -34 -79 -51 -109 -51c-32 0 -65 21 -65 48c0 23 20 48 37 60c8 6 14 7 20 2c20 -19 53 -38 74 -38c16 0 25 6 32 22c6 12 19 48 45 208c21 136 31 213 46 292c26 139 59 208 122 271c41 43 108 82 157 82c32 0 61 -12 77 -23
c37 10 78 23 87 23c12 0 15 -11 10 -31c-28 -124 -50 -235 -75 -347zM600 373c-33 0 -78 -39 -132 -117c-4 -13 -12 -49 -18 -85c-19 -106 10 -132 46 -132c15 0 29 5 41 15c38 28 93 139 93 254c0 42 -13 65 -30 65z" />
    <glyph glyph-name="longs_h" unicode="&#x17f;h" horiz-adv-x="800" 
d="M762 122l15 -30c-67 -69 -137 -104 -173 -104c-32 0 -48 27 -29 107l50 218c8 34 5 49 -7 49c-35 0 -107 -77 -156 -154c-12 -52 -30 -144 -39 -198c-40 -3 -82 -13 -119 -22l-6 9c42 189 80 377 122 606c-23 36 -57 50 -81 50c-38 1 -70 -20 -112 -282
c-11 -69 -27 -170 -51 -278c-35 -162 -85 -227 -155 -284c-40 -33 -82 -53 -113 -53c-32 0 -64 21 -64 48c0 23 21 48 37 60c8 6 15 7 21 2c22 -19 54 -38 75 -38c15 0 24 8 31 21c6 14 19 50 44 209c22 137 31 210 46 289c27 139 60 210 123 273c38 40 110 83 161 83
c31 0 57 -10 74 -23c35 10 77 23 87 23c12 0 13 -10 9 -29l-80 -390h2c56 73 114 118 152 141c29 18 57 28 81 28c29 0 63 -16 38 -128l-44 -201c-6 -31 -4 -39 3 -40c8 0 37 18 58 38z" />
    <glyph glyph-name="longs_i" unicode="&#x17f;i" horiz-adv-x="541" 
d="M376 703c85 0 104 -49 104 -75c0 -23 -19 -49 -50 -59c-30 -11 -48 -7 -52 15c-10 46 -27 70 -54 70c-32 0 -63 -27 -100 -273c-14 -89 -27 -184 -49 -280c-39 -170 -88 -235 -157 -292c-40 -34 -81 -53 -112 -53c-32 0 -65 21 -64 48c0 23 20 44 37 56c7 6 14 7 20 1
c21 -19 55 -33 75 -33c16 0 25 6 31 22c6 12 21 48 46 208c20 134 29 200 44 280c24 133 66 225 119 282c48 50 108 83 162 83zM502 123l18 -25c-72 -78 -147 -110 -176 -110c-30 0 -52 20 -31 108l53 223c5 26 3 30 0 36c-9 0 -37 -17 -61 -35l-14 27
c72 67 146 106 181 106c26 0 37 -35 21 -99l-57 -232c-7 -28 -5 -39 2 -39c9 0 35 15 64 40z" />
    <glyph glyph-name="longs_k" unicode="&#x17f;k" horiz-adv-x="756" 
d="M461 254h2c29 36 53 61 80 88c54 54 107 111 164 111c29 0 52 -16 52 -38c0 -19 -12 -41 -25 -55c-6 -7 -14 -10 -19 -8c-11 6 -27 11 -50 11c-33 0 -71 -19 -94 -48c10 -35 23 -78 44 -127c32 -76 50 -114 68 -114c10 0 29 12 52 37l18 -26c-54 -76 -105 -97 -134 -97
c-28 0 -55 22 -76 71c-20 46 -42 109 -61 171c-16 -17 -25 -30 -33 -43c-15 -76 -24 -132 -32 -178c-39 -4 -81 -12 -113 -21l-8 6c40 191 79 377 126 610c-24 35 -58 49 -83 49c-40 1 -70 -25 -112 -290c-10 -67 -26 -165 -51 -270c-36 -157 -80 -223 -155 -284
c-39 -33 -81 -53 -111 -53c-33 0 -65 21 -65 48c0 23 21 48 37 60c8 6 15 7 21 2c20 -19 53 -38 74 -38c15 0 25 6 31 22c7 13 21 62 44 208c21 136 30 203 45 281c27 140 61 218 124 281c46 48 111 83 156 83c36 0 62 -12 78 -23c37 10 78 23 88 23c12 0 14 -8 9 -27
c-31 -145 -60 -280 -91 -422z" />
    <glyph glyph-name="longs_l" unicode="&#x17f;l" horiz-adv-x="538" 
d="M506 121l16 -29c-65 -70 -139 -104 -174 -104c-27 0 -48 21 -25 131c32 161 64 321 96 482c-22 41 -54 52 -78 52c-38 1 -68 -19 -106 -265c-14 -85 -31 -194 -55 -295c-37 -162 -87 -227 -156 -284c-40 -33 -81 -53 -111 -53c-32 0 -65 21 -64 48c0 23 22 48 38 60
c8 6 14 7 20 2c20 -18 54 -39 75 -39c15 0 24 6 31 22c8 15 19 50 44 210c21 136 31 211 44 284c28 147 61 214 123 277c46 47 109 83 160 83c31 0 55 -12 70 -23c38 10 78 23 87 23c12 0 14 -8 9 -32c-36 -182 -73 -364 -110 -547c-7 -35 -4 -43 2 -43c11 0 39 17 64 40z
" />
    <glyph glyph-name="longs_longs" unicode="&#x17f;&#x17f;" horiz-adv-x="527" 
d="M639 705c44 0 72 -31 71 -52c-1 -17 -13 -39 -31 -52c-13 -9 -23 -12 -36 1c-25 24 -54 45 -73 45s-38 -17 -70 -235c-11 -79 -25 -179 -47 -288c-30 -155 -85 -236 -164 -294c-43 -31 -93 -50 -133 -50c-38 0 -81 10 -116 46c-23 -26 -79 -70 -127 -70
c-30 0 -61 17 -61 43c0 16 17 43 26 52c9 8 21 16 29 11c23 -18 46 -32 65 -32c14 0 27 7 35 21c9 17 20 42 47 226c16 108 24 169 38 246c25 144 65 225 140 290c33 29 99 67 156 67c55 0 87 -20 103 -40c45 37 100 65 148 65zM205 -162c40 0 64 13 81 67
c15 28 26 79 43 199c16 104 21 152 36 238c20 115 44 183 77 231c-28 44 -67 58 -99 58c-49 0 -84 -44 -122 -278c-15 -96 -25 -164 -43 -244c-22 -96 -47 -162 -84 -217c15 -21 68 -54 111 -54z" />
    <glyph glyph-name="longs_t" unicode="&#x17f;t" horiz-adv-x="569" 
d="M374 703c45 0 76 -32 74 -57c-1 -25 -22 -49 -38 -56c-11 -6 -19 -5 -29 4c-24 26 -46 48 -76 48c-22 0 -41 -20 -78 -252c-15 -97 -29 -195 -50 -292c-39 -169 -87 -233 -157 -290c-39 -33 -77 -52 -107 -52c-33 0 -67 19 -66 45c0 23 17 46 36 59c8 6 14 7 20 2
c20 -18 55 -33 75 -33c16 0 24 6 31 21c6 13 21 51 45 210c17 115 28 179 42 266c22 133 60 223 119 291c32 37 93 86 159 86zM613 436l-28 -42l-96 -5l-48 -251c-9 -44 -6 -59 5 -59c13 0 56 29 82 52l15 -27c-39 -52 -129 -116 -185 -116c-37 0 -58 35 -36 142l53 258h-69
l-6 10l29 38h56l15 62l115 69l13 -11l-27 -120h112z" />
    <glyph glyph-name="longs_longs_i" unicode="&#x17f;&#x17f;i" horiz-adv-x="809" 
d="M641 703c84 0 109 -48 109 -74c0 -23 -15 -48 -50 -60c-30 -11 -48 -7 -52 15c-10 46 -27 72 -54 72c-32 0 -60 -29 -98 -275c-12 -80 -22 -153 -43 -258c-31 -154 -86 -235 -165 -293c-43 -31 -91 -50 -129 -50s-83 10 -119 46c-23 -26 -77 -70 -125 -70
c-31 0 -62 17 -62 43c0 16 16 43 26 52c8 8 20 16 28 11c24 -18 46 -31 65 -31c14 0 28 8 35 21c10 17 21 41 48 225c16 108 24 170 38 246c25 144 64 226 139 292c33 29 96 64 148 64c56 0 95 -22 111 -43c43 37 99 67 150 67zM199 -164c40 0 66 13 84 67
c16 29 30 85 50 216c13 89 18 136 33 221c20 114 42 182 76 230c-28 45 -62 61 -94 61c-52 0 -88 -40 -127 -283c-13 -88 -24 -156 -44 -246c-20 -94 -48 -160 -82 -210c19 -28 64 -56 104 -56zM775 124l16 -26c-71 -78 -146 -110 -176 -110s-52 20 -31 108l54 223
c5 25 6 35 0 35c-9 0 -38 -18 -61 -35l-15 28c73 67 145 106 180 106c32 0 39 -29 24 -91l-59 -240c-6 -28 -5 -39 2 -39c9 0 36 16 66 41z" />
    <glyph glyph-name="longs_longs_l" unicode="&#x17f;&#x17f;l" horiz-adv-x="801" 
d="M767 120l17 -28c-66 -70 -139 -104 -174 -104c-27 0 -48 21 -25 131c32 160 64 320 95 480c-19 38 -51 58 -83 58c-36 -2 -64 -29 -97 -243c-16 -106 -26 -181 -48 -291c-30 -154 -84 -237 -164 -295c-43 -31 -91 -48 -129 -48s-83 10 -119 46c-23 -26 -78 -70 -125 -70
c-31 0 -62 17 -62 42c0 17 16 43 26 52c8 8 20 16 28 10c24 -17 46 -30 65 -30c14 0 27 8 34 21c10 17 22 42 49 226c15 108 25 177 39 254c25 143 61 221 138 287c34 28 98 61 150 61c55 0 93 -22 109 -43c42 37 100 67 144 67c31 0 62 -12 78 -25c23 9 72 25 91 25
c12 0 13 -10 9 -30c-37 -183 -75 -366 -113 -550c-7 -35 -5 -44 2 -44c8 0 40 18 65 41zM346 632c-50 0 -86 -34 -125 -285c-12 -72 -23 -145 -40 -222c-21 -101 -47 -176 -86 -234c19 -27 64 -56 105 -56c37 0 67 17 85 72c15 28 29 84 46 200c14 102 19 151 34 233
c19 109 44 184 77 232c-28 44 -62 60 -96 60z" />
    <glyph glyph-name="Tcommaaccent_h" unicode="&#x162;h" horiz-adv-x="1071" 
d="M1032 122l15 -30c-68 -69 -138 -104 -173 -104c-33 0 -49 27 -30 107l51 218c8 34 4 49 -8 49c-33 0 -110 -82 -156 -156c-13 -52 -29 -142 -39 -196c-40 -4 -81 -13 -118 -22l-6 9c42 191 83 395 119 601c-54 5 -110 8 -175 8h-38l-97 -477c-15 -80 -10 -87 77 -95
l-8 -34h-311l8 34c78 7 85 15 103 95l104 477h-51c-81 0 -104 -9 -124 -30c-17 -19 -36 -47 -57 -92h-37c21 65 39 137 50 190h28c10 -23 19 -25 46 -25h425c55 0 66 5 70 19l2 10c44 14 94 32 110 32c14 0 15 -8 10 -36c-26 -130 -53 -261 -79 -391h2
c52 68 112 118 150 141c29 18 58 29 82 29c29 0 63 -16 38 -128l-44 -200c-7 -32 -5 -39 2 -41c8 0 37 18 59 38zM318 -32c36 0 73 -29 73 -80c0 -67 -62 -113 -143 -132l-10 31c45 20 77 39 77 69c0 21 -14 36 -42 43c-6 2 -12 9 -12 24c0 23 21 45 57 45z" />
    <glyph glyph-name="Tcaron_h" unicode="&#x164;h" horiz-adv-x="1071" 
d="M1031 122l15 -30c-68 -69 -137 -104 -173 -104c-32 0 -48 27 -29 107l51 218c8 34 4 49 -8 49c-32 0 -110 -81 -155 -156c-13 -52 -30 -142 -39 -196c-40 -3 -81 -13 -119 -22l-6 9c42 191 83 395 120 601c-55 5 -110 8 -175 8h-39l-96 -477c-15 -80 -10 -87 77 -95
l-8 -34h-311l7 34c79 7 86 15 104 95l104 477h-51c-81 0 -104 -9 -124 -30c-17 -19 -36 -47 -57 -92h-38c22 65 40 137 51 190h28c10 -23 19 -25 46 -25h425c54 0 65 5 69 19l2 10c44 14 94 32 110 32c14 0 15 -8 10 -36c-26 -130 -53 -260 -79 -391h2
c52 68 112 118 150 141c29 18 58 29 82 29c29 0 63 -16 38 -128l-45 -200c-7 -32 -5 -39 2 -41c8 0 37 18 59 38zM569 826l18 -27c-46 -33 -98 -74 -148 -116h-33c-37 42 -75 83 -111 116l21 27c39 -15 79 -32 118 -55c45 21 90 40 135 55z" />
    <glyph glyph-name=".notdef" horiz-adv-x="500" 
d="M0 0v700h500v-700h-500zM250 395l170 255h-340zM280 350l170 -255v510zM80 50h340l-170 255zM50 605v-510l170 255z" />
    <glyph glyph-name="space" unicode=" " horiz-adv-x="219" 
 />
    <glyph glyph-name="exclam" unicode="!" horiz-adv-x="273" 
d="M302 620c-3 -15 -9 -34 -23 -74c-37 -109 -73 -218 -111 -327c-6 -12 -43 -12 -44 0c3 109 9 218 13 326c1 45 3 65 5 80c4 24 21 39 87 39h1c63 0 76 -22 72 -44zM193 72c0 -52 -41 -84 -82 -84h-1c-40 0 -69 32 -69 74c0 50 34 87 82 87c41 0 70 -31 70 -77z" />
    <glyph glyph-name="quotedbl" unicode="&#x22;" horiz-adv-x="390" 
d="M260 708l14 -12c-8 -37 -65 -177 -103 -245l-42 -17c13 95 22 227 22 241zM444 708l14 -12c-8 -35 -66 -177 -103 -245l-42 -17c12 95 23 227 22 241z" />
    <glyph glyph-name="numbersign" unicode="#" horiz-adv-x="495" 
d="M501 468l-17 -81h-91l-36 -120h79l-15 -80h-89l-50 -168h-50l50 168h-100l-50 -168h-52l50 168h-91l16 80h100l36 120h-87l16 81h95l44 144h53l-45 -144h99l45 144h50l-44 -144h84zM343 387h-100l-36 -120h99z" />
    <glyph glyph-name="dollar" unicode="$" horiz-adv-x="495" 
d="M470 447l-31 -4c-8 58 -33 119 -96 132l-39 -199l20 -12c72 -40 136 -82 136 -171c0 -119 -118 -179 -226 -184l-16 -81h-41l16 81c-92 8 -140 43 -157 56c-1 18 -2 88 -4 147l31 3c9 -52 45 -153 138 -167l41 219l-14 8c-75 38 -132 85 -132 163c0 110 94 175 213 177
l15 73h42l-15 -73c45 -5 82 -18 121 -35c0 -32 -1 -76 -2 -133zM266 395l36 183c-61 -1 -100 -46 -100 -97c0 -41 28 -65 64 -86zM280 249l-38 -203c67 7 102 49 102 110c0 43 -28 71 -64 93z" />
    <glyph glyph-name="percent" unicode="%" horiz-adv-x="809" 
d="M696 619l-518 -658l-31 29l516 658zM412 493c0 -110 -80 -217 -192 -217c-88 0 -128 67 -128 138c0 112 79 221 190 221c91 0 130 -69 130 -142zM318 526c0 35 -6 74 -39 74c-60 0 -93 -140 -93 -205c0 -29 4 -84 40 -84c66 0 92 161 92 215zM764 205
c0 -110 -80 -217 -191 -217c-89 0 -128 67 -128 138c0 112 79 221 189 221c91 0 130 -68 130 -142zM670 238c0 35 -6 74 -39 74c-59 0 -92 -138 -92 -206c0 -29 4 -83 39 -83c66 0 92 163 92 215z" />
    <glyph glyph-name="ampersand" unicode="&#x26;" horiz-adv-x="770" 
d="M723 429h35c2 -27 4 -53 4 -69c-1 -117 -43 -127 -58 -127c-11 0 -29 7 -46 19c-11 7 -33 23 -51 36c-19 -68 -58 -147 -106 -199c-51 -56 -124 -101 -220 -101c-121 0 -215 84 -215 227c0 76 28 145 83 203c38 42 96 73 134 73c49 0 72 -32 73 -78c0 -5 0 -10 -1 -15
l2 -3c44 45 100 110 100 184c1 18 -4 34 -8 45c-7 20 20 52 51 52c28 0 48 -23 48 -64c0 -71 -56 -142 -123 -206c-80 -79 -172 -147 -244 -193c18 -80 87 -122 152 -122c116 0 193 85 240 219c-31 23 -58 40 -83 40c-17 0 -27 -12 -27 -27c0 -14 7 -30 11 -37
c8 -12 14 -19 14 -26c0 -17 -30 -32 -46 -32c-23 0 -44 26 -44 56c0 40 33 78 61 100c32 27 64 39 81 39c47 0 105 -45 136 -66c10 -8 22 -15 29 -15c10 0 16 19 18 87zM236 439c-24 0 -65 -62 -65 -159c0 -12 1 -19 2 -28c23 15 51 35 91 69c5 11 9 22 9 45
c1 45 -21 73 -37 73z" />
    <glyph glyph-name="quoteright" unicode="&#x2019;" horiz-adv-x="236" 
d="M90 433l-12 34c57 23 100 57 101 105c1 28 -16 45 -46 55c-9 2 -13 11 -13 21c0 36 30 60 62 60c57 0 88 -53 88 -103c0 -99 -92 -151 -180 -172z" />
    <glyph glyph-name="parenleft" unicode="(" horiz-adv-x="368" 
d="M397 710l19 -28c-152 -111 -235 -322 -235 -523c0 -96 15 -221 75 -305l-29 -22c-96 83 -143 220 -143 349c0 244 138 448 313 529z" />
    <glyph glyph-name="parenright" unicode=")" horiz-adv-x="347" 
d="M150 688l30 22c96 -82 142 -221 141 -353c-1 -241 -138 -446 -312 -525l-19 28c152 111 234 321 235 519c0 98 -15 224 -75 309z" />
    <glyph glyph-name="asterisk" unicode="*" horiz-adv-x="426" 
d="M464 504l1 -30l-138 -28l33 -141l-28 -11l-72 133l-129 -74l-17 28l105 96l-105 111l19 25l126 -83l65 134l28 -8l-27 -144z" />
    <glyph glyph-name="plus" unicode="+" horiz-adv-x="607" 
d="M559 221h-204v-221h-74v221h-205v65h205v199h74v-199h204v-65z" />
    <glyph glyph-name="comma" unicode="," horiz-adv-x="263" 
d="M4 -123l-13 34c63 25 104 62 104 104c0 32 -16 50 -48 58c-9 3 -14 11 -14 20c0 40 32 65 64 65c56 0 88 -53 88 -105c-1 -98 -89 -156 -181 -176z" />
    <glyph glyph-name="hyphen" unicode="-" horiz-adv-x="340" 
d="M306 264l-17 -70h-248l17 70h248z" />
    <glyph glyph-name="period" unicode="." horiz-adv-x="263" 
d="M107 -12c-38 0 -66 31 -66 70c0 49 32 84 77 84c40 0 67 -31 67 -73c0 -50 -38 -81 -78 -81z" />
    <glyph glyph-name="slash" unicode="/" horiz-adv-x="319" 
d="M379 664l-308 -709h-67l308 709h67z" />
    <glyph glyph-name="zero" unicode="0" horiz-adv-x="495" 
d="M334 635c139 0 177 -138 163 -278c-13 -164 -101 -369 -277 -369c-145 0 -184 140 -169 287c12 151 102 360 283 360zM324 596c-80 0 -129 -223 -142 -353c-13 -110 -8 -215 43 -215c76 0 126 230 140 360c13 102 9 208 -41 208z" />
    <glyph glyph-name="one" unicode="1" horiz-adv-x="495" 
d="M401 635l-97 -504c-16 -80 -12 -90 76 -98l-8 -33h-306l7 33c81 8 88 18 104 98l68 343c13 64 4 72 -48 75l-31 2l9 32c64 8 147 25 226 52z" />
    <glyph glyph-name="two" unicode="2" horiz-adv-x="495" 
d="M99 489l67 88c40 37 86 58 148 58c98 0 170 -61 170 -163c0 -118 -103 -190 -246 -305l-73 -60h157c61 0 70 5 107 60l31 -13c-21 -50 -40 -106 -56 -154h-402l5 26c53 43 125 103 185 161c74 73 161 169 161 256c0 65 -31 103 -94 103c-55 0 -100 -40 -135 -83z" />
    <glyph glyph-name="three" unicode="3" horiz-adv-x="495" 
d="M116 507l55 69c35 34 83 59 147 59c71 0 148 -39 149 -126c0 -41 -22 -68 -43 -84c-28 -21 -52 -35 -88 -51v-3c63 -16 123 -63 123 -142c0 -76 -47 -134 -115 -178c-61 -40 -133 -63 -183 -63c-44 0 -86 14 -109 33c-21 18 -27 31 -26 47c1 18 18 41 35 51
c10 7 19 7 27 -1c24 -24 71 -74 140 -74c59 0 97 54 97 140c0 79 -49 126 -110 126c-18 0 -36 -2 -47 -6l-6 34c66 19 178 55 178 141c0 49 -32 75 -78 75c-51 0 -88 -35 -120 -72z" />
    <glyph glyph-name="four" unicode="4" horiz-adv-x="495" 
d="M488 229l-11 -55h-86l-10 -56c-12 -65 -8 -78 66 -84l-9 -34h-289l8 34c78 6 86 16 100 84l11 56h-250l7 38c125 147 253 294 381 417h73l-78 -400h87zM338 499h-4c-80 -84 -152 -174 -229 -270h174z" />
    <glyph glyph-name="five" unicode="5" horiz-adv-x="495" 
d="M490 623l-43 -106h-244l-49 -151c56 17 92 26 114 26c94 0 182 -57 182 -161c0 -78 -52 -145 -132 -193c-60 -36 -116 -50 -162 -50c-47 0 -90 17 -112 36c-17 13 -27 29 -26 46s20 42 36 51c10 6 18 5 26 -2c20 -19 67 -74 140 -74c72 0 100 57 100 128
c0 104 -60 150 -143 150c-32 0 -60 -6 -78 -11l-7 9l85 302h313z" />
    <glyph glyph-name="six" unicode="6" horiz-adv-x="495" 
d="M517 641l7 -37c-35 -6 -77 -20 -111 -34c-55 -25 -152 -79 -208 -206l1 -2l50 23c19 8 38 15 58 16c95 0 165 -63 165 -175c0 -124 -104 -238 -246 -238c-121 0 -194 89 -194 214c0 166 105 338 330 408c49 15 112 26 148 31zM247 335c-26 0 -40 -7 -56 -14
c-13 -34 -24 -78 -24 -143c0 -72 29 -151 86 -151c70 0 96 104 96 170c0 88 -36 138 -102 138z" />
    <glyph glyph-name="seven" unicode="7" horiz-adv-x="495" 
d="M553 623l7 -12c-117 -196 -249 -401 -378 -611l-112 -12l-6 14c143 168 284 350 385 514h-213c-61 0 -74 -7 -106 -65l-33 13c23 61 39 116 51 159h405z" />
    <glyph glyph-name="eight" unicode="8" horiz-adv-x="495" 
d="M320 635c88 0 169 -51 169 -147c0 -38 -22 -69 -50 -91c-15 -12 -30 -23 -80 -53c63 -45 110 -90 110 -164c0 -113 -120 -192 -240 -192c-110 0 -200 56 -200 160c0 42 23 77 57 102c28 20 73 47 103 64c-45 36 -80 76 -81 139c0 105 98 182 212 182zM303 595
c-45 0 -80 -41 -80 -92c0 -71 57 -107 100 -135c34 25 60 67 60 126c0 53 -29 101 -80 101zM249 29c54 0 94 46 94 110c0 65 -44 103 -119 152c-44 -31 -75 -83 -75 -144c0 -59 32 -118 100 -118z" />
    <glyph glyph-name="nine" unicode="9" horiz-adv-x="495" 
d="M315 635c122 0 191 -87 191 -222c0 -169 -110 -332 -293 -400c-43 -16 -120 -30 -162 -31l-7 34c130 29 255 125 304 264l-54 -25c-23 -11 -43 -16 -53 -16c-89 0 -166 58 -166 167c0 120 107 229 240 229zM301 595c-58 0 -95 -87 -95 -158c0 -76 34 -132 102 -132
c17 0 37 8 50 15c11 27 20 76 20 136c0 56 -16 139 -77 139z" />
    <glyph glyph-name="colon" unicode=":" horiz-adv-x="261" 
d="M147 271c-39 0 -66 31 -66 70c0 48 32 83 77 83c40 0 67 -30 67 -72c0 -50 -38 -81 -78 -81zM104 -12c-39 0 -66 31 -66 70c0 48 32 83 77 83c40 0 67 -30 67 -72c0 -50 -38 -81 -78 -81z" />
    <glyph glyph-name="semicolon" unicode=";" horiz-adv-x="263" 
d="M140 271c-38 0 -65 31 -65 70c0 48 32 83 77 83c39 0 67 -30 67 -72c0 -50 -39 -81 -79 -81zM4 -123l-12 32c62 25 103 62 103 104c0 33 -17 51 -48 60c-9 3 -14 11 -14 20c0 40 32 64 64 64c54 0 88 -49 88 -104c0 -96 -87 -155 -181 -176z" />
    <glyph glyph-name="less" unicode="&#x3c;" horiz-adv-x="597" 
d="M525 0l-454 219v68l454 219v-70l-381 -182v-2l381 -182v-70z" />
    <glyph glyph-name="equal" unicode="=" horiz-adv-x="607" 
d="M560 313h-484v65h484v-65zM560 130h-484v65h484v-65z" />
    <glyph glyph-name="greater" unicode="&#x3e;" horiz-adv-x="597" 
d="M558 219l-454 -219v70l381 182v2l-381 182v70l454 -219v-68z" />
    <glyph glyph-name="question" unicode="?" horiz-adv-x="375" 
d="M216 218l-27 -19c-40 18 -98 67 -98 125c0 63 62 101 120 132c63 35 129 65 129 91c0 13 -12 28 -37 28c-77 0 -118 -54 -140 -54c-18 0 -47 33 -47 67c0 16 13 28 29 40c33 24 71 36 101 36h1c79 0 152 -79 152 -157c0 -58 -25 -98 -76 -127c-70 -41 -127 -68 -127 -104
c0 -18 6 -37 20 -58zM142 -12c-41 0 -69 32 -69 74c0 50 34 87 81 87c42 0 71 -31 71 -75c0 -54 -40 -86 -83 -86z" />
    <glyph glyph-name="at" unicode="@" horiz-adv-x="756" 
d="M542 -25l12 -34c-65 -36 -132 -48 -195 -48c-164 0 -306 105 -306 302c0 239 199 381 393 381c186 0 284 -123 283 -256c-1 -142 -106 -252 -255 -252c-55 0 -59 27 -50 70l8 40l-2 1c-35 -45 -108 -111 -158 -111c-30 0 -53 36 -52 90c1 62 25 131 82 185
c39 37 107 72 176 72c14 0 40 -5 54 -9c11 -3 20 -4 38 -4c-10 -32 -33 -117 -54 -218c-11 -49 -8 -68 10 -68c62 1 148 62 149 200c1 137 -103 215 -235 215c-182 0 -308 -135 -308 -322c0 -124 64 -265 262 -265c62 0 119 17 148 31zM429 373c-23 0 -40 -12 -56 -29
c-26 -29 -54 -92 -54 -159c0 -33 7 -45 19 -45c16 0 62 35 106 109c14 37 29 84 35 114c-16 9 -31 10 -50 10z" />
    <glyph glyph-name="A" unicode="A" horiz-adv-x="672" 
d="M629 34l-9 -34h-271l9 34c63 7 67 20 60 69c-5 34 -10 70 -16 111h-191c-19 -37 -36 -75 -55 -113c-21 -44 -20 -57 57 -67l-8 -34h-225l9 34c60 10 72 17 128 114l288 502l52 13l18 -114c21 -137 47 -273 67 -408c13 -88 20 -99 87 -107zM395 265l-33 224h-2
c-39 -71 -82 -146 -122 -224h157z" />
    <glyph glyph-name="B" unicode="B" horiz-adv-x="622" 
d="M124 649h261c136 0 212 -42 212 -139s-81 -138 -172 -153v-2c86 -16 155 -63 155 -153c0 -76 -47 -131 -115 -165c-59 -29 -139 -37 -224 -37h-240l9 34c71 6 81 17 97 95l75 388c17 83 5 92 -68 98zM280 369h26c105 0 155 57 155 137c0 72 -42 102 -92 102
c-17 0 -31 -3 -39 -11c-7 -6 -12 -20 -17 -47zM272 327l-38 -196c-15 -76 17 -90 56 -90c71 0 146 57 146 164c0 90 -67 122 -138 122h-26z" />
    <glyph glyph-name="C" unicode="C" horiz-adv-x="651" 
d="M592 191l33 -15c-20 -52 -58 -127 -81 -165c-32 -9 -99 -26 -177 -26c-176 0 -304 99 -304 284c0 245 198 395 432 395c91 0 149 -20 174 -27c-2 -53 -6 -109 -10 -169l-35 -4c-19 122 -72 157 -149 157c-141 0 -264 -155 -264 -347c0 -153 67 -246 166 -246
c77 0 139 55 215 163z" />
    <glyph glyph-name="D" unicode="D" horiz-adv-x="732" 
d="M123 649h257c217 0 344 -88 344 -277c0 -123 -54 -234 -166 -301c-86 -53 -191 -71 -317 -71h-240l9 34c74 6 84 20 98 92l75 393c14 79 8 90 -69 96zM317 544l-76 -402c-9 -52 -6 -71 11 -85c14 -10 32 -13 51 -13c163 0 275 154 275 339c0 119 -58 225 -191 225
c-26 0 -44 -3 -52 -12c-7 -6 -12 -20 -18 -52z" />
    <glyph glyph-name="E" unicode="E" horiz-adv-x="570" 
d="M123 649h458c-4 -27 -12 -107 -18 -157l-36 -3c-3 42 -7 75 -21 93c-11 18 -31 25 -87 25h-49c-37 0 -43 -5 -50 -42l-39 -201h67c85 0 87 6 116 74h37l-41 -206h-36c1 77 1 83 -83 83h-69l-32 -169c-8 -44 -8 -70 2 -83c11 -16 37 -21 84 -21c61 0 93 9 117 33
c22 21 48 53 72 96l34 -13c-12 -36 -45 -123 -61 -158h-487l7 34c76 6 83 13 98 93l77 395c14 77 8 87 -69 93z" />
    <glyph glyph-name="F" unicode="F" horiz-adv-x="547" 
d="M124 649h465c-3 -27 -11 -107 -18 -157l-35 -3c-4 45 -9 77 -20 93c-12 18 -32 25 -96 25h-52c-34 0 -41 -8 -48 -42l-40 -214h85c85 0 90 9 118 74h35l-39 -205h-36c-1 76 -5 83 -90 83h-84l-33 -176c-14 -78 -6 -87 82 -93l-8 -34h-303l7 34c69 6 79 17 93 93l76 393
c15 80 10 89 -67 95z" />
    <glyph glyph-name="G" unicode="G" horiz-adv-x="698" 
d="M669 471l-36 -4c-13 125 -83 154 -155 154c-139 0 -266 -150 -266 -348c0 -152 70 -246 180 -246c34 0 64 8 74 66l16 86c14 74 4 79 -92 89l9 34h297l-9 -34c-53 -7 -61 -13 -74 -89l-15 -79c-5 -30 -7 -57 -5 -76c-58 -16 -136 -39 -216 -39c-191 0 -314 102 -314 287
c0 236 186 392 438 392c82 0 153 -18 180 -27c-3 -34 -8 -96 -12 -166z" />
    <glyph glyph-name="H" unicode="H" horiz-adv-x="763" 
d="M813 649l-8 -34c-75 -6 -81 -16 -96 -93l-77 -394c-15 -78 -8 -88 72 -94l-8 -34h-302l7 34c79 6 87 16 101 94l36 191h-265l-36 -191c-14 -77 -7 -88 71 -94l-8 -34h-297l8 34c74 6 80 16 96 94l77 394c15 79 4 87 -76 93l8 34h298l-9 -34c-70 -6 -77 -16 -92 -93
l-29 -152h264l29 152c16 77 9 87 -68 93l9 34h295z" />
    <glyph glyph-name="I" unicode="I" horiz-adv-x="366" 
d="M416 649l-8 -34c-73 -6 -79 -15 -94 -95l-76 -391c-16 -79 -9 -89 71 -95l-8 -34h-296l8 34c70 6 79 16 94 95l77 391c16 80 9 89 -72 95l9 34h295z" />
    <glyph glyph-name="J" unicode="J" horiz-adv-x="357" 
d="M416 649l-8 -34c-70 -8 -76 -13 -91 -95l-70 -384c-21 -117 -56 -192 -140 -240c-42 -28 -100 -41 -124 -42l-6 38c47 10 88 38 111 115c12 40 21 80 32 140l69 373c15 80 6 87 -72 95l8 34h291z" />
    <glyph glyph-name="K" unicode="K" horiz-adv-x="677" 
d="M749 649l-8 -32c-57 -6 -82 -13 -147 -67c-74 -59 -132 -111 -192 -166c47 -92 94 -182 150 -273c38 -61 55 -71 105 -77l-8 -34h-188c-50 86 -102 188 -153 289c-14 28 -27 32 -40 27l-35 -187c-14 -79 -9 -89 69 -95l-8 -34h-286l8 34c69 6 75 16 90 94l76 393
c15 78 8 88 -70 94l8 34h288l-8 -34c-72 -6 -77 -16 -93 -94l-32 -168c26 8 52 21 76 40c57 48 124 110 179 171c28 32 27 44 -13 49l-21 2l9 34h244z" />
    <glyph glyph-name="L" unicode="L" horiz-adv-x="547" 
d="M497 179l36 -13c-13 -34 -48 -130 -64 -166h-472l8 33c80 6 87 16 102 95l77 398c14 73 8 83 -70 89l7 34h298l-7 -34c-78 -6 -85 -16 -99 -89l-75 -393c-6 -37 -7 -56 3 -71c11 -14 37 -20 78 -20c47 0 80 8 105 33c22 20 48 56 73 104z" />
    <glyph glyph-name="M" unicode="M" horiz-adv-x="885" 
d="M909 649l-9 -34c-76 -8 -80 -12 -91 -84c-22 -148 -36 -260 -51 -391c-11 -92 -7 -99 70 -106l-8 -34h-283l8 34c62 7 70 14 84 106c21 141 42 261 61 391h-4l-299 -524h-31c-27 171 -55 327 -87 520h-4l-70 -247c-29 -101 -38 -147 -43 -180c-7 -46 9 -61 71 -66l-8 -34
h-230l8 34c52 4 73 19 92 67c13 29 29 74 58 169l73 234c26 88 21 104 -67 111l11 34h201c30 -146 60 -278 90 -429l261 429h197z" />
    <glyph glyph-name="N" unicode="N" horiz-adv-x="704" 
d="M773 649l-8 -34c-61 -2 -75 -21 -87 -62c-10 -31 -21 -72 -40 -172l-76 -391h-52l-284 508h-2l-45 -234c-17 -88 -21 -131 -23 -163c-2 -47 16 -63 87 -67l-8 -34h-241l9 34c50 3 71 18 85 63c10 31 22 72 42 167l43 202c16 75 10 98 -1 118c-12 22 -38 28 -79 31l8 34
h183l265 -461h3l35 190c19 103 23 142 25 170c3 49 -18 64 -88 67l8 34h241z" />
    <glyph glyph-name="O" unicode="O" horiz-adv-x="723" 
d="M436 664c168 0 276 -117 276 -286c0 -219 -152 -393 -373 -393c-165 0 -276 109 -276 282c0 212 153 397 373 397zM430 622c-121 0 -221 -188 -221 -380c0 -124 39 -215 137 -215c132 0 220 204 220 377c0 126 -38 218 -136 218z" />
    <glyph glyph-name="P" unicode="P" horiz-adv-x="594" 
d="M127 649h249c125 0 234 -39 234 -173c0 -130 -104 -209 -244 -220c-11 0 -21 0 -30 1l-73 18l-28 -146c-16 -82 -7 -87 80 -95l-7 -34h-303l8 34c71 6 78 14 94 95l76 386c16 85 9 94 -64 100zM316 547l-44 -234c13 -5 33 -11 57 -11c88 0 145 91 145 187
c0 82 -42 120 -100 120c-19 0 -31 -4 -38 -9c-10 -6 -15 -21 -20 -53z" />
    <glyph glyph-name="Q" unicode="Q" horiz-adv-x="723" 
d="M685 -134l-7 -25c-48 -9 -118 -2 -145 7c-28 8 -98 34 -224 131l-11 9c-142 15 -236 122 -236 279c0 211 154 397 376 397c164 0 274 -115 274 -288c0 -175 -98 -321 -260 -372l11 -8c69 -47 158 -102 222 -130zM305 31l83 22c8 -6 17 -12 26 -18c81 38 151 212 151 366
c0 128 -38 221 -138 221c-122 0 -218 -195 -218 -373c0 -109 33 -195 96 -218z" />
    <glyph glyph-name="R" unicode="R" horiz-adv-x="633" 
d="M619 23l-10 -31h-16c-134 1 -163 33 -194 96c-20 41 -42 99 -59 147c-11 33 -22 47 -52 47h-24l-29 -153c-14 -79 -6 -89 66 -95l-7 -34h-291l8 34c70 6 81 16 97 94l76 396c16 80 9 86 -67 91l8 34h253c60 0 117 -7 156 -32c39 -23 67 -64 67 -126
c0 -97 -73 -157 -155 -183c7 -19 32 -85 55 -133c27 -55 45 -89 60 -112c19 -25 35 -33 58 -40zM271 322h26c38 0 69 6 96 23c46 29 71 83 71 142c0 82 -43 121 -93 121c-18 0 -31 -3 -39 -11c-7 -6 -12 -19 -16 -41z" />
    <glyph glyph-name="S" unicode="S" horiz-adv-x="489" 
d="M35 206l34 4c10 -67 55 -184 160 -184c72 0 108 53 108 110c0 47 -27 88 -79 128l-30 22c-63 49 -120 105 -120 188c0 118 96 190 219 190c40 0 77 -6 113 -19c18 -6 31 -12 41 -16c-5 -40 -5 -90 -6 -153l-35 -3c-9 63 -33 152 -120 152c-66 0 -97 -56 -97 -103
c0 -49 28 -81 81 -119l31 -22c69 -50 126 -104 126 -195c0 -125 -109 -201 -243 -201c-84 0 -154 34 -182 62c0 22 1 78 -1 159z" />
    <glyph glyph-name="T" unicode="T" horiz-adv-x="623" 
d="M648 674h28c-8 -39 -19 -127 -27 -187l-37 -2c0 46 -3 77 -15 96c-15 21 -40 26 -91 26h-50l-91 -479c-15 -74 -11 -88 82 -94l-8 -34h-320l8 34c84 6 92 21 106 94l93 479h-42c-74 0 -92 -10 -112 -31c-17 -19 -31 -46 -52 -91h-37c21 64 40 136 51 189h26
c10 -23 19 -25 46 -25h392c25 0 31 6 50 25z" />
    <glyph glyph-name="U" unicode="U" horiz-adv-x="707" 
d="M785 649l-8 -34c-57 -2 -76 -18 -91 -64c-11 -31 -24 -80 -39 -161l-19 -97c-17 -89 -45 -178 -111 -240c-48 -46 -115 -68 -180 -68c-66 0 -124 15 -167 54c-47 43 -70 115 -46 241l44 236c16 81 9 93 -68 99l9 34h291l-8 -34c-67 -6 -77 -15 -93 -99l-45 -240
c-30 -158 25 -224 119 -224c110 0 177 87 207 254l16 84c14 81 21 129 22 163c3 44 -24 58 -91 62l9 34h249z" />
    <glyph glyph-name="V" unicode="V" horiz-adv-x="679" 
d="M756 650l-8 -34c-59 -7 -72 -17 -124 -101c-70 -113 -194 -332 -302 -525h-46c-32 189 -76 426 -97 534c-14 76 -26 86 -85 92l9 34h270l-9 -34l-20 -3c-38 -5 -44 -12 -39 -54c7 -59 41 -242 66 -392h2c68 120 159 283 200 369c28 59 21 74 -29 78l-19 2l9 34h222z" />
    <glyph glyph-name="W" unicode="W" horiz-adv-x="952" 
d="M1015 649l-9 -34c-62 -9 -69 -15 -112 -100c-51 -104 -123 -249 -250 -526h-49l-78 446h-2l-217 -446h-48l-64 531c-9 77 -17 88 -81 95l8 34h266l-8 -34l-22 -4c-35 -7 -42 -13 -37 -69l35 -354h2l215 455h44l79 -458h2c61 128 118 262 150 338c31 72 25 84 -34 90
l-17 2l8 34h219z" />
    <glyph glyph-name="X" unicode="X" horiz-adv-x="642" 
d="M685 649l-8 -34c-65 -7 -79 -16 -122 -60c-40 -41 -92 -103 -156 -180l107 -249c33 -78 44 -84 113 -92l-8 -34h-293l8 34l23 4c38 6 42 16 30 49c-11 29 -22 62 -73 184c-59 -76 -99 -130 -130 -178c-24 -36 -21 -46 18 -55l19 -4l-9 -34h-232l9 34c56 6 80 18 114 53
c34 34 120 136 191 226l-94 228c-24 59 -37 67 -100 74l9 34h267l-8 -34l-24 -5c-25 -7 -28 -13 -22 -31c13 -36 36 -95 67 -162c43 52 85 108 113 150c18 29 11 39 -20 44l-25 4l9 34h227z" />
    <glyph glyph-name="Y" unicode="Y" horiz-adv-x="634" 
d="M709 649l-10 -34c-65 -8 -77 -18 -131 -84c-37 -48 -86 -120 -146 -209c-12 -18 -23 -44 -27 -61l-26 -127c-17 -82 -7 -94 79 -100l-9 -34h-315l8 34c79 6 90 16 107 100l25 116c6 27 6 42 -4 69c-16 49 -38 114 -71 211c-25 71 -35 79 -94 85l10 34h262l-8 -34l-27 -6
c-29 -5 -31 -16 -21 -49c18 -60 45 -140 73 -219c44 65 104 157 137 215c21 36 17 47 -25 54l-22 4l11 35h224z" />
    <glyph glyph-name="Z" unicode="Z" horiz-adv-x="607" 
d="M627 649l9 -17c-151 -196 -300 -385 -452 -585c25 -3 61 -5 126 -5c82 0 137 7 169 34c25 21 51 55 80 111l36 -15c-12 -38 -49 -145 -62 -172h-524l-8 20c152 193 301 385 456 587h-116c-100 0 -120 -13 -139 -33c-16 -17 -34 -43 -54 -96l-37 5c16 61 32 140 42 191h26
c11 -23 21 -25 48 -25h400z" />
    <glyph glyph-name="bracketleft" unicode="[" horiz-adv-x="368" 
d="M401 704l-8 -36c-94 -10 -99 -11 -116 -97l-113 -600c-16 -85 -13 -86 85 -97l-9 -36h-189l165 866h185z" />
    <glyph glyph-name="backslash" unicode="\" horiz-adv-x="377" 
d="M335 -45h-65l-151 709h65z" />
    <glyph glyph-name="bracketright" unicode="]" horiz-adv-x="368" 
d="M352 704l-166 -866h-185l8 36c94 10 99 10 116 97l113 600c17 88 13 88 -85 97l9 36h190z" />
    <glyph glyph-name="asciicircum" unicode="^" horiz-adv-x="568" 
d="M519 213h-78l-150 335l-150 -335h-74l193 410h66z" />
    <glyph glyph-name="underscore" unicode="_" horiz-adv-x="500" 
d="M500 -125h-500v50h500v-50z" />
    <glyph glyph-name="quoteleft" unicode="&#x2018;" horiz-adv-x="249" 
d="M284 713l12 -33c-54 -23 -100 -54 -101 -106c-1 -27 17 -44 46 -54c10 -2 13 -11 13 -21c0 -37 -30 -60 -62 -60c-57 0 -89 52 -89 98c1 102 93 155 181 176z" />
    <glyph glyph-name="a" unicode="a" horiz-adv-x="519" 
d="M489 133l17 -26c-67 -82 -142 -119 -176 -119c-24 0 -47 14 -29 105l11 53h-2c-35 -48 -71 -83 -99 -107c-30 -25 -71 -51 -107 -51c-40 0 -70 44 -70 122c0 95 44 195 110 254c46 41 131 89 215 89c19 0 40 -3 64 -7c22 -5 40 -7 58 -7l5 -4c-21 -87 -44 -193 -65 -311
c-5 -30 -4 -39 2 -39c10 0 45 25 66 48zM186 78c34 0 121 111 138 147c13 51 32 134 36 164c-13 8 -38 14 -57 14c-18 0 -31 -4 -44 -13c-63 -46 -95 -170 -95 -256c0 -39 8 -56 22 -56z" />
    <glyph glyph-name="b" unicode="b" horiz-adv-x="506" 
d="M94 635l5 31c99 11 161 37 181 37c12 0 13 -13 8 -34c-27 -115 -52 -228 -79 -346h2c73 86 147 130 198 130c49 0 82 -49 82 -123c0 -107 -58 -222 -150 -285c-56 -38 -122 -57 -169 -57c-50 0 -83 22 -100 48c-19 27 -20 69 -9 127c27 136 55 264 87 417
c9 45 5 53 -31 54zM228 38c14 0 27 5 40 15c38 28 94 144 94 258c0 42 -13 62 -28 62c-26 0 -82 -40 -135 -118c-4 -13 -12 -47 -18 -83c-20 -111 19 -134 47 -134z" />
    <glyph glyph-name="c" unicode="c" horiz-adv-x="399" 
d="M353 131l19 -28c-69 -77 -146 -115 -210 -115c-80 0 -124 53 -124 150c0 84 36 178 109 241c44 39 115 74 172 74c48 0 90 -23 90 -58c0 -20 -12 -43 -44 -62c-10 -7 -21 -7 -28 5c-29 43 -56 62 -81 62c-18 0 -35 -14 -50 -46c-22 -42 -38 -111 -38 -185
c0 -73 24 -102 63 -102c43 0 100 43 122 64z" />
    <glyph glyph-name="d" unicode="d" horiz-adv-x="535" 
d="M501 128l17 -28c-67 -80 -141 -112 -173 -112c-25 0 -45 14 -29 96l13 65h-2c-38 -49 -78 -87 -116 -118c-33 -26 -65 -43 -98 -43c-43 0 -78 43 -78 127c0 95 44 199 115 259c49 41 138 79 181 79c19 0 31 0 55 -7l27 138c8 43 2 49 -45 49l-17 1l5 32
c101 9 165 37 185 37c11 0 13 -8 7 -36c-44 -192 -78 -364 -112 -542c-6 -31 -6 -41 2 -41c9 0 37 17 63 44zM193 78c40 0 118 99 149 155l29 144c-20 20 -49 29 -71 29c-18 0 -29 -3 -42 -13c-61 -44 -93 -182 -93 -256c0 -39 12 -59 28 -59z" />
    <glyph glyph-name="e" unicode="e" horiz-adv-x="418" 
d="M376 141l19 -28c-90 -94 -166 -125 -236 -125c-58 0 -123 32 -123 150c0 93 42 194 117 251c40 32 108 64 163 64c71 0 104 -40 104 -87c0 -102 -157 -151 -257 -178c-1 -11 -1 -19 -1 -26c0 -51 19 -94 70 -94c39 0 97 28 144 73zM272 407c-9 0 -21 -4 -30 -10
c-23 -15 -63 -71 -75 -171c107 33 143 74 143 128c0 39 -25 53 -38 53z" />
    <glyph glyph-name="f" unicode="f" horiz-adv-x="295" 
d="M70 436h60c20 82 43 138 92 186c56 54 122 81 162 81c49 0 73 -28 72 -53s-22 -49 -37 -57c-10 -5 -17 -6 -27 4c-27 33 -50 52 -68 53c-20 0 -38 -16 -70 -214h116l-21 -40l-104 -8c-17 -91 -30 -178 -57 -291c-39 -165 -84 -231 -154 -289c-42 -35 -80 -52 -110 -52
c-33 0 -67 22 -67 48c1 23 19 45 36 57c8 7 14 8 21 2c20 -18 58 -34 78 -34c16 0 26 7 33 24c5 14 16 49 42 207c23 137 37 229 54 328h-80l-5 10z" />
    <glyph glyph-name="g" unicode="g" horiz-adv-x="449" 
d="M505 449l11 -21c-36 -39 -64 -53 -85 -57c-5 -1 -9 -1 -16 -2c4 -15 6 -32 6 -47c0 -61 -35 -109 -69 -138c-30 -25 -80 -47 -150 -64c-5 -4 -10 -10 -11 -18c0 -12 19 -26 67 -49c108 -51 148 -91 148 -139c0 -89 -150 -158 -262 -158c-107 0 -188 49 -188 111
c0 49 67 89 160 132c-20 14 -36 33 -35 51c1 22 23 42 76 71c-71 14 -101 59 -101 120s29 121 87 162c42 30 99 50 145 50c42 0 69 -10 95 -27c66 1 106 14 122 23zM216 163c43 0 90 70 90 175c0 43 -11 77 -42 77c-27 0 -50 -32 -64 -64c-14 -35 -25 -77 -25 -121
c0 -40 14 -68 41 -67zM195 -195c64 0 102 28 102 62c0 22 -15 41 -58 66c-31 20 -63 34 -91 47c-36 -21 -69 -56 -69 -92c0 -47 56 -83 116 -83z" />
    <glyph glyph-name="h" unicode="h" horiz-adv-x="534" 
d="M493 121l16 -29c-70 -71 -134 -104 -172 -104c-32 0 -49 27 -29 112l49 210c9 38 3 53 -9 53c-32 0 -107 -73 -156 -149c-13 -52 -31 -150 -40 -204c-39 -4 -80 -13 -118 -22l-6 9c41 189 79 373 117 584c9 47 -1 51 -43 53l-20 1l7 31c102 9 165 37 182 37
c13 0 16 -8 10 -36l-79 -381h2c60 73 109 114 149 139c24 14 59 28 82 28c25 0 68 -14 37 -149l-40 -179c-7 -31 -4 -41 3 -41s37 17 58 37z" />
    <glyph glyph-name="i" unicode="i" horiz-adv-x="295" 
d="M231 652c38 0 57 -28 57 -60c0 -40 -33 -77 -76 -77c-36 0 -57 23 -56 61c0 32 25 76 75 76zM257 123l17 -25c-71 -78 -145 -110 -175 -110s-52 20 -31 108l52 223c6 25 7 35 0 35c-9 0 -37 -17 -60 -34l-15 27c73 67 146 106 182 106c30 0 35 -39 20 -99l-57 -231
c-7 -29 -4 -39 3 -39c9 0 35 14 64 39z" />
    <glyph glyph-name="j" unicode="j" horiz-adv-x="288" 
d="M228 656c38 0 56 -29 56 -60c0 -40 -29 -77 -73 -77c-36 0 -59 23 -59 61c0 32 26 76 76 76zM58 319l-14 27c62 60 144 107 185 107c31 0 34 -35 19 -117c-11 -66 -27 -144 -58 -292c-20 -97 -58 -177 -140 -237c-61 -44 -91 -53 -114 -53s-49 15 -49 39
c0 22 19 48 35 60c6 6 11 7 19 1c21 -16 45 -30 64 -30c15 0 24 8 37 64c30 130 50 247 82 423c7 34 7 45 -1 45c-10 0 -48 -22 -65 -37z" />
    <glyph glyph-name="k" unicode="k" horiz-adv-x="488" 
d="M465 111l19 -26c-55 -76 -109 -97 -138 -97c-28 0 -52 22 -73 71c-19 46 -41 107 -60 168c-13 -14 -24 -29 -31 -41c-16 -76 -26 -131 -34 -177c-40 -4 -82 -12 -115 -21l-7 6c42 191 83 374 125 587c9 42 7 49 -35 51l-26 2l8 32c95 9 164 37 182 37c12 0 13 -9 8 -31
c-32 -144 -61 -276 -93 -418h2c28 33 52 60 79 86c56 54 112 113 165 113c29 0 52 -17 52 -38c0 -19 -13 -42 -26 -55c-6 -7 -14 -11 -20 -8c-10 6 -27 11 -50 11c-33 0 -72 -22 -96 -52c10 -34 25 -75 45 -123c32 -77 49 -113 66 -113c10 0 30 11 53 36z" />
    <glyph glyph-name="l" unicode="l" horiz-adv-x="274" 
d="M239 120l16 -28c-66 -70 -140 -104 -174 -104c-27 0 -48 21 -25 131c30 150 61 300 91 450c10 54 6 61 -34 64l-28 3l6 30c97 7 166 37 183 37c13 0 15 -10 9 -39c-37 -181 -74 -363 -111 -545c-6 -28 -4 -39 2 -39c8 0 40 18 65 40z" />
    <glyph glyph-name="m" unicode="m" horiz-adv-x="802" 
d="M759 123l15 -29c-66 -73 -138 -106 -171 -106c-31 0 -49 21 -30 100l52 221c8 37 6 56 -4 56c-31 0 -121 -100 -156 -163c-14 -58 -29 -127 -41 -192c-42 -3 -86 -12 -117 -21l-8 9c24 99 48 196 69 286c12 58 11 81 -3 81c-32 0 -125 -107 -155 -163
c-16 -52 -31 -127 -45 -192c-38 -3 -83 -12 -114 -21l-8 10c29 107 52 209 78 325c6 24 5 33 -2 34c-10 0 -44 -22 -62 -40l-14 30c66 65 132 105 171 105c34 0 38 -37 19 -116l-14 -60h2c67 87 127 134 156 152c27 16 49 24 71 24c28 0 64 -15 36 -146l-5 -25h2
c66 86 122 130 156 149c26 15 47 22 67 22c27 0 65 -15 34 -151l-43 -189c-6 -23 -2 -31 4 -31c9 0 40 22 60 41z" />
    <glyph glyph-name="n" unicode="n" horiz-adv-x="549" 
d="M507 125l16 -30c-75 -79 -135 -107 -172 -107c-28 0 -49 20 -29 107c17 69 32 138 49 207c12 51 5 61 -5 62c-32 0 -124 -103 -158 -165c-14 -54 -30 -124 -42 -189c-38 -3 -84 -12 -114 -21l-8 9c25 101 51 208 75 324c7 30 6 39 0 39c-9 0 -44 -21 -64 -41l-14 30
c69 68 132 103 170 103c29 0 42 -30 20 -126l-11 -50h2c47 65 101 114 145 144c28 20 58 32 83 32c33 0 66 -19 35 -154c-14 -58 -28 -119 -42 -179c-6 -25 -5 -36 4 -36c8 0 38 20 60 41z" />
    <glyph glyph-name="o" unicode="o" horiz-adv-x="492" 
d="M191 -12c-120 0 -151 88 -151 165c0 130 74 224 149 263c41 22 88 37 131 37c98 0 148 -63 148 -159c0 -87 -34 -180 -106 -241c-44 -38 -109 -65 -171 -65zM230 33c11 0 16 2 25 5c39 15 84 120 84 261c0 78 -25 111 -58 111c-7 0 -16 -2 -24 -5
c-27 -13 -87 -98 -87 -262c0 -76 30 -110 60 -110z" />
    <glyph glyph-name="p" unicode="p" horiz-adv-x="513" 
d="M274 520l-19 -79c32 9 59 12 90 12c105 0 149 -54 149 -150c0 -61 -28 -138 -83 -200c-49 -54 -125 -99 -195 -115c-18 0 -31 2 -51 9l-24 -122c-9 -49 -1 -59 49 -65l22 -2l-7 -34l-272 -12l7 33c59 12 71 24 84 84c35 167 68 327 100 486c-30 -10 -55 -21 -77 -33
l-10 32c33 21 66 36 98 48l10 42c24 24 80 59 118 74zM245 393l-64 -327c9 -13 31 -33 49 -32c55 0 135 140 135 265c0 82 -38 101 -79 101c-16 0 -29 -3 -41 -7z" />
    <glyph glyph-name="q" unicode="q" horiz-adv-x="510" 
d="M451 -192l-4 -34l-265 -12l7 33l16 4c40 10 52 19 65 82l52 258h-2c-30 -37 -62 -70 -92 -96c-36 -30 -78 -55 -116 -55c-48 0 -78 52 -78 124c0 95 45 195 116 256c39 34 111 66 154 76c21 5 44 9 65 9c17 0 71 -8 107 -15l16 -4c-15 -60 -30 -138 -44 -218l-57 -329
c-11 -62 -3 -72 33 -76zM309 403c-24 0 -42 -7 -58 -21c-56 -51 -87 -160 -87 -240c0 -45 13 -65 30 -65c36 0 108 83 134 130c11 45 28 123 37 181c-12 8 -34 15 -56 15z" />
    <glyph glyph-name="r" unicode="r" horiz-adv-x="390" 
d="M216 293h4c48 88 99 160 142 160c20 0 38 -11 49 -26c13 -18 10 -41 -4 -63c-14 -20 -24 -32 -35 -41c-10 -8 -18 -8 -26 -2c-13 13 -28 19 -40 19c-10 0 -20 -3 -40 -30c-26 -36 -50 -83 -57 -109c-12 -53 -28 -137 -37 -191c-38 -3 -85 -12 -114 -21l-8 9
c25 103 47 206 66 312c7 33 7 47 -1 47s-43 -19 -61 -35l-15 28c59 58 127 103 165 103c30 0 39 -33 21 -116z" />
    <glyph glyph-name="s" unicode="s" horiz-adv-x="354" 
d="M122 -12c-57 0 -117 34 -118 81c-1 23 17 46 34 56c17 11 26 10 35 -1c37 -45 81 -74 115 -74c26 0 45 14 45 36c0 20 -13 38 -64 74c-44 33 -101 69 -101 131c0 36 14 73 63 111c37 29 84 51 123 51c54 0 92 -31 93 -66c0 -20 -14 -41 -35 -55c-13 -8 -22 -7 -29 3
c-21 28 -51 57 -90 57c-24 0 -38 -15 -38 -35c0 -26 32 -53 71 -78c57 -37 96 -73 96 -127c0 -91 -115 -164 -200 -164z" />
    <glyph glyph-name="t" unicode="t" horiz-adv-x="320" 
d="M364 436l-28 -44l-93 -4l-52 -252c-9 -43 -6 -58 5 -58c13 0 57 28 82 52l16 -26c-39 -53 -130 -116 -185 -116c-37 0 -60 35 -36 142l55 258h-71l-6 10l29 38h59l22 92l116 73l13 -10l-36 -155h110z" />
    <glyph glyph-name="u" unicode="u" horiz-adv-x="545" 
d="M508 128l17 -29c-74 -80 -137 -111 -172 -111c-34 0 -43 36 -28 102c4 19 9 43 14 62h-2c-66 -87 -125 -129 -152 -144c-22 -13 -47 -20 -69 -20c-31 0 -69 19 -40 145c14 60 29 120 43 182c8 33 6 40 1 46c-9 0 -37 -23 -61 -41l-13 30c65 61 134 103 174 103
c29 0 39 -25 21 -103c-16 -68 -32 -140 -49 -209c-10 -45 -6 -62 8 -62c46 0 130 114 150 151c15 64 30 132 43 196l111 27h13c-25 -101 -50 -206 -73 -324c-6 -34 -6 -44 1 -44c8 0 40 20 63 43z" />
    <glyph glyph-name="v" unicode="v" horiz-adv-x="467" 
d="M263 120h2c49 61 115 146 114 215c0 19 -5 36 -12 48c-3 7 -3 15 -1 23c7 25 29 47 61 47c29 0 52 -25 53 -65c0 -32 -15 -68 -65 -134c-61 -82 -159 -207 -213 -266h-41c-5 79 -19 244 -30 317c-7 42 -11 55 -18 55c-8 0 -30 -18 -54 -44l-19 27c48 64 107 110 147 110
c37 0 52 -41 60 -122c6 -71 14 -163 16 -211z" />
    <glyph glyph-name="w" unicode="w" horiz-adv-x="680" 
d="M490 123h2c37 50 105 147 105 209c0 21 -7 41 -12 52c-5 8 -4 21 0 31c9 20 30 38 54 38c29 0 54 -27 54 -66c0 -33 -16 -65 -39 -102c-31 -49 -164 -229 -218 -297h-41c-13 90 -26 183 -39 269h-3c-52 -86 -109 -185 -165 -269h-38c-5 86 -14 258 -21 321
c-4 31 -8 48 -16 48s-25 -11 -52 -41l-19 25c47 65 111 112 151 112c32 0 47 -34 51 -119c4 -75 3 -132 3 -180h2c50 88 106 184 160 284h35c18 -110 31 -212 46 -315z" />
    <glyph glyph-name="x" unicode="x" horiz-adv-x="487" 
d="M82 306l-22 25c53 77 108 122 146 122c32 0 48 -34 69 -97l15 -47c76 109 113 144 157 144c34 0 50 -26 49 -55c-2 -33 -30 -57 -52 -57c-8 0 -13 5 -19 11c-5 7 -14 12 -24 12s-22 -7 -40 -25c-16 -15 -35 -39 -57 -69l40 -128c12 -41 24 -62 37 -62c12 0 33 16 68 57
l21 -24c-59 -93 -116 -125 -153 -125c-34 0 -56 28 -77 97l-23 76c-77 -125 -114 -173 -166 -173c-30 0 -54 24 -53 57c1 37 29 60 50 60c7 0 13 -5 19 -10c7 -8 15 -11 24 -11c22 0 62 44 112 120l-26 89c-18 59 -27 66 -37 66c-9 0 -27 -13 -58 -53z" />
    <glyph glyph-name="y" unicode="y" horiz-adv-x="469" 
d="M276 95h2c52 78 107 166 107 236c-1 25 -10 40 -15 54c-4 11 -2 24 4 35c11 20 32 33 54 33c25 0 51 -22 53 -67c1 -29 -11 -66 -39 -112c-47 -77 -105 -160 -162 -241c-58 -83 -117 -165 -188 -246l-132 -31l-8 27c104 67 166 116 221 188c2 80 -17 248 -36 338
c-7 35 -14 45 -20 45c-7 0 -26 -14 -54 -51l-22 27c44 70 101 123 145 123c36 0 57 -36 70 -135c10 -81 15 -142 20 -223z" />
    <glyph glyph-name="z" unicode="z" horiz-adv-x="414" 
d="M436 468l23 -24c-19 -22 -44 -54 -74 -85c-80 -83 -195 -190 -245 -236c22 1 52 -5 81 -16c31 -11 55 -17 76 -17c25 0 54 16 101 81l28 -21c-61 -134 -109 -171 -156 -171c-34 0 -86 27 -128 47c-45 21 -60 18 -77 6c-12 -9 -21 -21 -29 -34c-4 -7 -10 -10 -15 -10
c-18 6 -34 45 38 116c57 56 178 163 265 248c-17 -4 -41 -6 -68 -4c-25 1 -52 4 -73 4c-55 1 -77 -25 -107 -72l-29 18c18 42 35 73 50 95c27 39 53 59 81 59c23 0 45 -2 88 -10c58 -11 82 -12 100 -12s45 15 70 38z" />
    <glyph glyph-name="braceleft" unicode="{" horiz-adv-x="368" 
d="M403 710l-5 -35c-63 -9 -80 -46 -89 -88c-6 -26 -9 -61 -11 -90c-1 -28 -5 -81 -11 -113c-10 -50 -42 -98 -110 -111v-4c52 -12 71 -47 70 -86c0 -47 -21 -93 -35 -138c-10 -33 -25 -81 -25 -115c0 -32 12 -56 61 -63l-10 -35c-67 0 -137 16 -138 97c-1 47 17 103 30 150
c7 24 25 86 25 114c1 29 -11 56 -71 60l9 36c83 6 94 54 100 85c4 20 6 45 10 89c6 61 11 93 17 123c22 105 103 124 183 124z" />
    <glyph glyph-name="bar" unicode="|" horiz-adv-x="273" 
d="M204 -250h-83v1000h83v-1000z" />
    <glyph glyph-name="braceright" unicode="}" horiz-adv-x="368" 
d="M320 288l-8 -35c-84 -6 -94 -55 -100 -85c-5 -20 -7 -45 -11 -89c-5 -61 -10 -93 -17 -123c-21 -105 -101 -124 -183 -124l4 35c63 9 82 50 90 85c6 28 10 64 12 93c1 28 3 79 10 111c10 56 50 100 111 113v4c-50 11 -75 52 -68 103c2 38 20 83 32 121c9 31 22 73 24 101
c3 31 -3 70 -60 78l10 34c68 0 143 -23 137 -114c-1 -35 -14 -81 -29 -133c-9 -34 -23 -76 -24 -101c-4 -28 -2 -69 70 -74z" />
    <glyph glyph-name="asciitilde" unicode="~" horiz-adv-x="577" 
d="M495 329l48 -30c-26 -77 -70 -116 -134 -116c-48 0 -87 23 -121 45c-35 23 -59 35 -88 35c-38 0 -68 -27 -91 -84l-44 34c44 99 101 113 140 113c40 0 70 -12 112 -39c36 -24 67 -40 98 -40c35 0 59 27 80 82z" />
    <glyph glyph-name="exclamdown" unicode="&#xa1;" horiz-adv-x="269" 
d="M245 381c0 -49 -34 -86 -82 -86c-41 0 -70 32 -70 76c0 54 40 86 82 86h1c40 0 69 -32 69 -76zM162 223c-4 -109 -9 -217 -13 -326c-1 -45 -3 -64 -5 -79c-5 -25 -21 -39 -87 -39h-1c-63 0 -76 21 -72 43c3 15 9 34 23 75c38 108 74 216 112 325c5 13 40 8 43 1z" />
    <glyph glyph-name="cent" unicode="&#xa2;" horiz-adv-x="495" 
d="M396 615l-14 -77c40 -1 74 -13 92 -26c15 -10 20 -19 20 -30c0 -32 -30 -53 -43 -53c-8 0 -12 4 -21 14c-16 20 -34 42 -58 48l-60 -317h11c40 1 82 15 122 48l17 -28c-47 -57 -107 -88 -164 -96l-19 -96h-42l19 96c-102 7 -183 71 -183 186c0 134 116 238 266 251l16 80
h41zM272 182l59 314c-84 -4 -135 -87 -135 -189c0 -67 29 -112 76 -125z" />
    <glyph glyph-name="sterling" unicode="&#xa3;" horiz-adv-x="495" 
d="M404 291h-144c-11 -78 -63 -130 -139 -169c42 1 71 -6 111 -22c38 -15 91 -39 127 -39c33 0 42 11 44 26c1 15 -2 30 -4 40c-3 7 0 16 7 24c16 18 31 28 44 28c17 0 24 -20 19 -50c-6 -42 -52 -92 -92 -119c-36 -25 -72 -37 -109 -37c-51 0 -100 35 -141 58
c-28 16 -39 22 -58 22c-14 0 -32 -17 -42 -39c-4 -11 -11 -17 -17 -17c-16 0 -32 18 -19 46c12 26 52 61 78 89c41 46 59 96 61 159h-95l9 43h85c1 33 2 51 5 76c9 68 42 130 110 179c33 24 78 46 122 46c51 0 78 -22 90 -38c10 -13 11 -30 -1 -45c-9 -13 -20 -22 -29 -28
c-12 -5 -23 -6 -33 3c-28 23 -50 53 -83 53c-29 0 -43 -21 -47 -60c-7 -50 -3 -117 -1 -186h151z" />
    <glyph glyph-name="fraction" unicode="&#x2044;" horiz-adv-x="165" 
d="M381 617l-530 -657l-33 32l528 656z" />
    <glyph glyph-name="yen" unicode="&#xa5;" horiz-adv-x="495" 
d="M573 623l-6 -33c-53 -5 -61 -16 -102 -69c-31 -40 -63 -89 -127 -185h123l-10 -41h-130l-15 -79h131l-8 -41h-131l-8 -41c-16 -85 -9 -96 68 -101l-7 -33h-288l8 33c68 4 78 17 95 100l8 42h-135l8 41h135l13 79h-133l9 41h122c-11 62 -29 133 -42 185
c-14 52 -25 63 -77 69l6 33h239l-7 -33l-22 -5c-19 -3 -26 -10 -23 -30c15 -75 26 -128 40 -197c37 59 81 131 105 175c20 39 16 50 -15 55l-20 2l5 33h191z" />
    <glyph glyph-name="florin" unicode="&#x192;" horiz-adv-x="495" 
d="M185 378l8 34c21 82 53 130 115 179c66 52 122 61 146 61c27 0 67 -21 67 -52c0 -18 -15 -39 -30 -49c-11 -8 -20 -7 -29 2c-16 18 -45 44 -68 44c-12 0 -21 -6 -28 -23c-9 -20 -20 -60 -46 -196h113l-14 -44h-109l-32 -147c-46 -211 -118 -259 -177 -294
c-35 -21 -67 -31 -90 -31c-31 0 -67 23 -66 49c0 19 18 41 34 51c8 6 14 7 21 0c20 -18 49 -42 67 -42c12 0 18 8 25 25c7 19 19 66 34 143l48 246h-90l13 44h88z" />
    <glyph glyph-name="section" unicode="&#xa7;" horiz-adv-x="501" 
d="M463 224c0 -109 -82 -193 -142 -243c-59 -49 -110 -74 -166 -84c-30 0 -63 9 -84 29c-11 10 -16 22 -15 33c1 13 19 37 35 46c11 6 15 6 24 -2c23 -19 64 -40 95 -40c40 0 65 22 65 48c1 34 -22 61 -51 90c-36 36 -72 75 -94 102c-40 46 -57 89 -57 143
c0 78 54 155 121 212c57 48 110 76 173 88c43 0 71 -16 84 -30c8 -9 10 -18 9 -29c-2 -16 -20 -37 -33 -44c-4 -1 -11 -3 -16 2c-10 9 -45 43 -95 43c-39 0 -57 -28 -57 -49c0 -17 9 -36 26 -55c28 -29 64 -64 85 -83c68 -64 93 -113 93 -177zM195 513h-2
c-32 -35 -46 -84 -46 -117v-1c0 -40 13 -77 56 -123l50 -50c37 -40 60 -72 70 -90c15 -25 17 -59 14 -87h3c36 37 49 85 49 122c0 33 -13 75 -61 127c-35 38 -75 82 -99 107c-25 26 -44 63 -34 112z" />
    <glyph glyph-name="currency" unicode="&#xa4;" horiz-adv-x="495" 
d="M491 135l-48 -48l-67 75c-31 -26 -71 -37 -110 -37c-40 0 -80 11 -111 37l-67 -75l-47 48l72 68c-30 32 -44 77 -44 122c0 44 14 90 44 122l-72 68l47 48l67 -76c33 26 72 38 111 38h1c38 0 78 -12 109 -38l67 76l48 -48l-72 -68c30 -32 44 -78 44 -122
c0 -45 -14 -90 -44 -122zM265 455c-64 0 -112 -56 -112 -130c0 -78 48 -131 113 -131c67 0 113 54 113 131c0 74 -46 130 -114 130z" />
    <glyph glyph-name="quotesingle" unicode="'" horiz-adv-x="206" 
d="M259 708l14 -12c-8 -37 -65 -174 -103 -245l-42 -17c12 78 22 225 22 241z" />
    <glyph glyph-name="quotedblleft" unicode="&#x201c;" horiz-adv-x="454" 
d="M283 713l12 -33c-54 -23 -100 -54 -101 -106c0 -27 17 -44 46 -54c10 -2 13 -11 13 -21c0 -37 -29 -60 -62 -60c-57 0 -88 52 -88 98c0 102 93 155 180 176zM490 713l11 -33c-57 -23 -100 -57 -101 -106c-1 -27 17 -44 47 -54c8 -3 12 -12 12 -21c0 -37 -29 -61 -61 -61
c-58 0 -89 53 -89 103c1 98 93 151 181 172z" />
    <glyph glyph-name="guillemotleft" unicode="&#xab;" horiz-adv-x="467" 
d="M257 393l-100 -167l59 -168l-33 -16c-45 67 -86 127 -131 184c59 57 119 122 175 185zM433 393l-99 -167l58 -168l-33 -16c-44 67 -86 128 -131 184c60 57 120 122 176 185z" />
    <glyph glyph-name="guilsinglleft" unicode="&#x2039;" horiz-adv-x="289" 
d="M256 394l-100 -168l59 -168l-34 -16c-44 67 -86 128 -131 184c60 58 120 123 176 186z" />
    <glyph glyph-name="guilsinglright" unicode="&#x203a;" horiz-adv-x="290" 
d="M85 393l33 16c44 -67 86 -128 131 -183c-59 -58 -119 -122 -176 -186l-29 18l100 168z" />
    <glyph glyph-name="fi" unicode="&#xfb01;" horiz-adv-x="554" 
d="M521 128l17 -27c-66 -83 -147 -113 -177 -113c-31 0 -54 21 -32 112c16 73 34 146 51 219c15 63 6 70 -47 70h-89c-15 -86 -30 -177 -56 -288c-40 -166 -86 -233 -156 -291c-42 -35 -80 -54 -111 -54c-36 0 -67 20 -67 47c0 21 19 46 36 59c8 6 17 6 24 1
c21 -19 52 -35 74 -35c16 0 24 10 33 24c8 13 22 49 49 216c21 132 34 217 51 321h-77l-4 10l31 37h58c14 74 50 148 108 199c47 39 110 68 168 68c89 0 113 -48 113 -75c0 -23 -18 -49 -51 -59c-29 -11 -48 -7 -52 13c-10 51 -27 79 -56 79c-52 0 -85 -104 -105 -225h59
c86 0 134 7 178 16c29 1 33 -26 19 -82c-19 -80 -38 -157 -56 -237c-9 -37 -8 -49 3 -49c7 0 36 19 64 44z" />
    <glyph glyph-name="fl" unicode="&#xfb02;" horiz-adv-x="561" 
d="M362 436l-21 -40l-97 -9c-16 -86 -29 -181 -56 -294c-38 -165 -84 -225 -155 -283c-41 -35 -80 -54 -111 -54c-36 0 -69 20 -68 47c0 21 18 46 35 58c9 6 15 7 21 2c21 -19 55 -37 78 -37c16 0 26 10 33 24c7 13 25 66 50 218c21 133 32 214 50 319h-79l-5 10l34 39h58
c14 79 46 137 97 185c48 45 126 82 180 82c31 0 63 -11 77 -23c30 11 71 23 83 23c10 0 13 -15 6 -46c-38 -183 -72 -343 -104 -518c-8 -47 -3 -49 1 -58c9 0 42 19 64 39l16 -28c-58 -71 -136 -104 -173 -104c-27 0 -49 21 -28 129c32 165 65 328 98 491
c-13 21 -48 47 -86 47c-66 0 -90 -113 -108 -219h110z" />
    <glyph glyph-name="endash" unicode="&#x2013;" horiz-adv-x="500" 
d="M463 262l-14 -64h-397l14 64h397z" />
    <glyph glyph-name="dagger" unicode="&#x2020;" horiz-adv-x="474" 
d="M204 -100h-54c9 36 15 66 24 112c23 122 23 224 15 263c31 41 56 82 65 122c-56 -2 -98 -17 -129 -41c-18 7 -43 33 -50 59c16 26 46 50 67 57c25 -20 60 -38 118 -40c8 65 -5 94 -24 136c15 30 44 54 78 68c28 -14 49 -38 59 -68c-37 -43 -58 -71 -71 -136
c55 2 97 20 128 40c17 -7 40 -33 47 -57c-16 -29 -46 -53 -65 -58c-22 20 -58 38 -118 40c-7 -40 4 -80 20 -122c-25 -39 -66 -141 -89 -263c-9 -46 -15 -76 -21 -112z" />
    <glyph glyph-name="daggerdbl" unicode="&#x2021;" horiz-adv-x="464" 
d="M471 425c-16 -25 -46 -51 -65 -57c-22 20 -58 39 -116 41c-10 -57 -4 -101 20 -130c-32 -25 -56 -67 -71 -129v-7c58 2 95 20 126 40c16 -6 39 -32 48 -57c-18 -26 -47 -52 -66 -59c-24 20 -58 41 -117 42c-11 -68 2 -94 23 -141c-16 -28 -47 -55 -78 -66
c-27 11 -50 37 -59 66c36 47 58 73 73 141c-59 -1 -98 -22 -129 -42c-16 7 -38 32 -47 59c18 26 43 51 64 57c23 -20 60 -38 120 -40c9 69 2 111 -22 136c34 29 61 70 73 130c-59 -2 -97 -21 -128 -41c-18 6 -39 32 -48 57c17 27 42 53 63 59c23 -20 60 -36 120 -40
c7 53 -4 79 -26 127c13 27 46 54 79 65c26 -11 48 -38 57 -65c-35 -48 -59 -74 -69 -127c59 4 97 20 127 40c17 -6 41 -32 48 -59z" />
    <glyph glyph-name="periodcentered" unicode="&#xb7;" horiz-adv-x="263" 
d="M135 152c-39 0 -67 31 -67 72c0 49 34 85 80 85c40 0 68 -31 68 -74c0 -52 -39 -83 -81 -83z" />
    <glyph glyph-name="paragraph" unicode="&#xb6;" horiz-adv-x="496" 
d="M535 543l-34 -29l-80 -9l-91 -472c-15 -81 -42 -135 -96 -183c-44 -38 -93 -57 -113 -57c-31 0 -55 15 -66 25c-12 12 -15 27 -8 39c6 12 19 26 28 32c7 5 14 4 21 -1c22 -17 52 -27 74 -27c34 0 70 14 97 156l25 130l-65 -27c-8 -4 -12 -5 -21 -5
c-72 0 -142 81 -142 184c0 147 132 258 279 258h188z" />
    <glyph glyph-name="bullet" unicode="&#x2022;" horiz-adv-x="378" 
d="M200 358h2c70 0 131 -59 131 -136c0 -78 -61 -136 -133 -136c-71 0 -131 58 -131 136c0 77 60 136 131 136z" />
    <glyph glyph-name="quotesinglbase" unicode="&#x201a;" horiz-adv-x="238" 
d="M-9 -126l-12 35c55 24 99 54 100 103c1 27 -16 48 -45 58c-9 2 -13 12 -13 21c0 37 30 62 62 62c58 0 90 -54 90 -103c0 -101 -92 -155 -182 -176z" />
    <glyph glyph-name="quotedblbase" unicode="&#x201e;" horiz-adv-x="438" 
d="M-9 -126l-12 35c55 24 99 54 100 103c1 27 -16 48 -45 58c-8 2 -13 12 -13 21c0 37 30 62 62 62c58 0 90 -54 90 -103c0 -101 -92 -155 -182 -176zM195 -126l-12 35c55 24 100 54 101 104c1 27 -17 47 -46 57c-9 2 -12 12 -12 21c0 37 30 62 63 62c57 0 89 -54 89 -103
c-1 -101 -93 -155 -183 -176z" />
    <glyph glyph-name="quotedblright" unicode="&#x201d;" horiz-adv-x="441" 
d="M90 433l-12 35c57 22 100 56 101 104c1 28 -16 45 -46 54c-9 3 -13 12 -13 22c0 36 30 60 62 60c57 0 88 -53 88 -103c0 -99 -92 -151 -180 -172zM295 433l-12 35c54 22 101 52 102 104c1 28 -16 45 -47 54c-8 3 -12 12 -12 22c0 36 29 60 62 60c57 0 89 -53 89 -100
c-1 -102 -94 -154 -182 -175z" />
    <glyph glyph-name="guillemotright" unicode="&#xbb;" horiz-adv-x="468" 
d="M86 393l33 16c44 -67 86 -128 131 -183c-59 -58 -119 -122 -176 -186l-29 18l99 168zM262 393l34 16c44 -67 85 -128 130 -183c-59 -58 -119 -122 -176 -186l-29 18l100 168z" />
    <glyph glyph-name="ellipsis" unicode="&#x2026;" horiz-adv-x="930" 
d="M119 -12c-39 0 -68 32 -68 73c0 49 33 85 80 85c41 0 69 -31 69 -74c0 -53 -40 -84 -81 -84zM429 -12c-39 0 -68 32 -68 73c0 49 34 85 80 85c41 0 69 -31 69 -74c0 -53 -40 -84 -81 -84zM733 -12c-40 0 -68 32 -68 73c0 49 33 85 80 85c41 0 69 -31 69 -74
c0 -53 -40 -84 -81 -84z" />
    <glyph glyph-name="perthousand" unicode="&#x2030;" horiz-adv-x="1117" 
d="M671 617l-516 -656l-34 31l515 656zM391 498c0 -104 -78 -212 -188 -212c-83 0 -126 59 -126 135c0 103 73 214 189 214c89 0 125 -65 125 -137zM297 527c0 33 -5 72 -36 72c-58 0 -90 -130 -90 -198c0 -38 10 -78 38 -78c57 0 88 138 88 204zM728 200
c0 -104 -78 -212 -188 -212c-83 0 -126 59 -126 135c0 103 73 214 189 214c89 0 125 -65 125 -137zM1073 200c0 -104 -78 -212 -189 -212c-83 0 -126 59 -126 135c0 103 74 213 190 213c89 0 125 -65 125 -136zM634 229c0 33 -5 72 -36 72c-56 0 -90 -135 -90 -198
c0 -40 9 -78 38 -78c62 0 88 152 88 204zM979 228c0 33 -4 73 -36 73c-58 0 -92 -137 -91 -200c0 -39 10 -76 38 -76c63 0 89 154 89 203z" />
    <glyph glyph-name="questiondown" unicode="&#xbf;" horiz-adv-x="375" 
d="M250 457c40 0 69 -32 69 -75c0 -50 -34 -87 -82 -87c-41 0 -70 32 -70 76c0 54 40 86 83 86zM176 224l25 20c39 -17 100 -67 100 -125c0 -65 -61 -101 -119 -132c-65 -34 -128 -63 -128 -90c0 -14 11 -28 39 -28c75 0 115 53 136 53c18 0 47 -32 47 -67
c0 -16 -12 -29 -29 -40c-37 -25 -78 -35 -100 -35h-1c-80 0 -153 78 -153 157c0 57 25 96 76 126c70 41 128 69 128 104c0 19 -7 36 -21 57z" />
    <glyph glyph-name="grave" unicode="`" 
d="M327 499l-38 -10c-36 62 -80 132 -102 166l4 15c14 5 80 17 104 15c11 -62 22 -124 32 -186z" />
    <glyph glyph-name="acute" unicode="&#xb4;" 
d="M412 660l-173 -171l-30 21c30 54 68 131 86 167c19 5 91 6 112 3z" />
    <glyph glyph-name="circumflex" unicode="&#x2c6;" 
d="M381 513l-30 -24c-28 26 -54 58 -77 85c-35 -28 -72 -60 -110 -85l-26 27c48 53 94 104 135 161h34c21 -57 46 -109 74 -164z" />
    <glyph glyph-name="tilde" unicode="&#x2dc;" 
d="M372 632l34 -15c-27 -84 -61 -104 -90 -104c-23 0 -45 12 -69 22c-20 10 -32 14 -48 14c-18 0 -33 -15 -49 -45l-31 22c22 65 58 98 90 98c17 0 31 -5 63 -20c21 -10 40 -18 54 -18c21 0 34 21 46 46z" />
    <glyph glyph-name="macron" unicode="&#xaf;" 
d="M386 604l-17 -70h-237l17 70h237z" />
    <glyph glyph-name="breve" unicode="&#x2d8;" 
d="M353 645h37c-18 -112 -78 -144 -141 -144c-59 0 -112 32 -93 144h37c0 -43 24 -67 68 -67c43 0 76 24 92 67z" />
    <glyph glyph-name="dotaccent" unicode="&#x2d9;" 
d="M286 650c38 0 57 -28 57 -60c0 -40 -30 -77 -73 -77c-36 0 -59 23 -59 61c0 32 26 76 75 76z" />
    <glyph glyph-name="dieresis" unicode="&#xa8;" 
d="M185 644c36 0 54 -27 54 -56c0 -39 -28 -74 -70 -74c-33 0 -55 22 -55 58c0 31 24 72 71 72zM380 644c36 0 54 -27 54 -56c0 -39 -28 -74 -70 -74c-33 0 -55 22 -55 58c0 31 24 72 71 72z" />
    <glyph glyph-name="ring" unicode="&#x2da;" 
d="M284 673c48 0 91 -35 89 -91c-2 -58 -54 -95 -107 -95c-51 0 -91 34 -89 89c2 59 52 97 107 97zM280 633c-25 0 -49 -25 -50 -56c-1 -29 15 -49 40 -49c28 0 48 24 50 55c1 27 -14 50 -40 50z" />
    <glyph glyph-name="cedilla" unicode="&#xb8;" 
d="M221 3l-23 -28c-12 -14 -11 -23 4 -44c19 -25 30 -43 28 -67c-3 -45 -61 -83 -137 -104l-12 32c38 17 67 34 68 55c1 16 -10 29 -17 40c-21 25 -22 42 1 69l39 47h49z" />
    <glyph glyph-name="hungarumlaut" unicode="&#x2dd;" 
d="M270 660l-134 -172l-30 17c20 52 55 150 61 166c16 5 78 7 98 3zM429 660l-134 -172l-30 17c20 50 56 152 61 166c18 5 78 7 98 3z" />
    <glyph glyph-name="ogonek" unicode="&#x2db;" 
d="M271 -151l7 -33l-55 -27c-14 -7 -31 -11 -42 -11c-43 0 -76 28 -76 70c0 66 82 124 135 156h47c-55 -45 -94 -93 -94 -128c0 -24 19 -34 40 -34c12 0 24 2 38 7z" />
    <glyph glyph-name="caron" unicode="&#x2c7;" 
d="M381 679l26 -25c-48 -54 -94 -106 -135 -163h-34c-21 57 -47 110 -74 165l31 23c27 -26 53 -58 76 -86c35 29 72 60 110 86z" />
    <glyph glyph-name="emdash" unicode="&#x2014;" horiz-adv-x="941" 
d="M907 262l-14 -64h-840l14 64h840z" />
    <glyph glyph-name="AE" unicode="&#xc6;" horiz-adv-x="859" 
d="M848 493l-36 -3c-4 40 -9 70 -22 90c-14 20 -36 27 -93 27h-47c-34 0 -39 -6 -45 -38l-43 -231h69c86 0 91 7 120 78h36l-39 -207h-37c1 77 -2 81 -88 81h-70l-28 -150c-7 -40 -5 -64 6 -78c12 -14 36 -20 85 -20c54 0 89 7 116 32c21 19 44 57 68 99l34 -14
c-12 -34 -44 -128 -59 -159h-486l6 35c68 6 84 11 99 91l31 164h-171c-64 -99 -99 -152 -117 -185c-25 -47 -23 -59 22 -65l28 -5l-8 -35h-237l7 35c65 7 78 15 122 77c104 145 194 276 307 443c30 44 26 49 -27 55l-54 5l11 34h557c-3 -27 -11 -107 -17 -156zM285 338h149
l53 265c-10 0 -20 -3 -36 -15c-29 -43 -104 -155 -166 -250z" />
    <glyph glyph-name="ordfeminine" unicode="&#xaa;" horiz-adv-x="367" 
d="M374 354l10 -21c-38 -37 -90 -62 -117 -62c-11 0 -32 7 -21 55l10 45h-1c-19 -25 -46 -51 -62 -64c-20 -15 -49 -36 -77 -36s-50 22 -50 77c0 52 25 116 69 155c31 28 87 55 147 55h1c9 0 23 -2 38 -5s34 -3 52 -4c-15 -65 -30 -132 -38 -185c-3 -21 -4 -29 1 -29
s23 9 38 19zM243 521c-8 0 -16 -3 -26 -10c-14 -8 -26 -23 -38 -48c-14 -29 -23 -68 -23 -100c0 -20 6 -29 15 -29c8 0 22 7 39 24c18 18 38 46 51 74c8 18 19 60 24 80c-10 6 -25 9 -42 9z" />
    <glyph glyph-name="Lslash" unicode="&#x141;" horiz-adv-x="560" 
d="M511 181l35 -13c-13 -35 -48 -136 -64 -168h-471l8 34c79 6 86 16 101 95l24 125l-105 -65l11 56l105 67l42 213c15 75 6 84 -71 90l8 34h298l-8 -34c-76 -6 -83 -15 -98 -90l-25 -129l141 90l-13 -58l-139 -89l-38 -202c-7 -36 -9 -62 2 -76c11 -15 35 -20 76 -20
c43 0 82 6 108 32c21 22 46 59 73 108z" />
    <glyph glyph-name="Oslash" unicode="&#xd8;" horiz-adv-x="721" 
d="M645 696l35 -28l-56 -72c54 -50 88 -126 88 -220c0 -220 -151 -391 -371 -391c-57 0 -116 14 -159 43l-57 -74l-32 30l55 70c-54 48 -85 131 -85 217c0 208 155 393 374 393c61 0 110 -14 152 -41zM222 143l314 410c-18 43 -58 69 -107 69c-127 0 -223 -185 -223 -371
c0 -44 7 -83 16 -108zM555 509l-313 -410c17 -45 53 -72 107 -72c132 0 220 196 220 369c0 38 -4 81 -14 113z" />
    <glyph glyph-name="OE" unicode="&#x152;" horiz-adv-x="969" 
d="M881 0h-308c-31 0 -71 -3 -99 -5c-27 -3 -55 -6 -87 -6c-256 0 -323 162 -323 288c0 225 177 382 438 383c72 0 136 -11 185 -11h287c-3 -27 -10 -104 -17 -155l-36 -3c-2 42 -8 71 -22 90c-13 20 -32 26 -94 26h-41c-39 0 -44 -8 -50 -43l-40 -202h64c85 0 92 9 120 76
h36l-40 -203h-35c-2 73 -4 80 -86 80h-68l-32 -168c-9 -49 -8 -72 2 -86c10 -13 36 -19 81 -19c58 0 95 10 120 34c22 21 47 53 71 96l35 -12c-12 -36 -45 -125 -61 -160zM500 117l79 410c8 45 4 64 -16 75c-20 12 -45 16 -79 16c-136 0 -276 -120 -276 -340
c0 -122 57 -252 199 -248c16 0 39 5 56 14c19 9 29 30 37 73z" />
    <glyph glyph-name="ordmasculine" unicode="&#xba;" horiz-adv-x="343" 
d="M248 556c68 0 113 -39 113 -111c0 -51 -24 -105 -69 -138c-29 -20 -70 -35 -108 -35c-74 0 -112 47 -113 107c-1 71 40 129 94 156c24 13 54 21 83 21zM232 523c-6 0 -12 -2 -20 -7c-18 -10 -51 -51 -51 -140c0 -49 20 -70 41 -70c7 0 13 2 24 7c18 11 48 74 47 149
c-1 39 -14 61 -41 61z" />
    <glyph glyph-name="ae" unicode="&#xe6;" horiz-adv-x="687" 
d="M646 140l19 -29c-95 -105 -179 -123 -238 -123c-53 0 -119 29 -120 132c0 11 0 12 1 24h-2c-26 -37 -62 -75 -91 -100c-32 -27 -73 -56 -115 -56c-37 0 -69 34 -69 115c0 101 46 205 109 262c44 41 133 88 205 88c14 0 33 -3 58 -11c12 2 30 4 44 8l5 -5l-13 -52l2 -1
c46 40 102 61 151 61c65 0 98 -38 98 -84c0 -104 -159 -153 -263 -181v-25c0 -55 19 -96 76 -96c43 0 93 23 143 73zM301 406c-15 0 -30 -3 -44 -13c-17 -12 -40 -38 -63 -98c-24 -60 -33 -123 -33 -169c0 -30 8 -48 21 -48c12 0 33 8 64 43c30 34 55 71 72 112
c11 24 35 131 38 155c-17 12 -39 18 -55 18zM542 404c-14 0 -27 -6 -39 -17c-26 -20 -59 -68 -71 -160c108 34 146 77 146 132c0 28 -15 45 -36 45z" />
    <glyph glyph-name="dotlessi" unicode="&#x131;" horiz-adv-x="297" 
d="M258 123l18 -25c-72 -78 -147 -110 -177 -110s-52 20 -31 108l53 223c5 25 3 30 0 35c-9 0 -37 -17 -61 -34l-14 27c73 67 146 106 182 106c25 0 36 -35 20 -99l-56 -231c-7 -29 -5 -39 2 -39c9 0 34 14 64 39z" />
    <glyph glyph-name="lslash" unicode="&#x142;" horiz-adv-x="292" 
d="M345 494l-12 -56l-92 -64l-49 -246c-8 -38 -4 -47 3 -47c9 0 40 19 64 41l16 -29c-69 -71 -137 -105 -171 -105c-28 0 -50 21 -27 132l38 180l-79 -58l14 57l76 56l42 218c9 45 6 57 -42 61l-20 1l7 31c86 7 160 37 180 37c12 0 16 -9 11 -33l-51 -240z" />
    <glyph glyph-name="oslash" unicode="&#xf8;" horiz-adv-x="493" 
d="M434 486l26 -22l-36 -48c30 -28 45 -71 45 -131c0 -83 -36 -174 -102 -230c-40 -35 -111 -67 -174 -67c-32 0 -59 5 -81 19l-39 -52l-24 25l36 47c-32 32 -44 82 -44 130c0 126 71 218 144 259c44 24 91 38 135 38c29 0 53 -5 77 -18zM164 129l174 231
c-10 33 -29 50 -52 50c-9 0 -18 -1 -28 -6c-30 -12 -97 -84 -97 -239c0 -15 1 -26 3 -36zM348 316l-174 -231c12 -34 32 -51 54 -51c10 0 17 1 25 4c36 13 97 111 96 254c0 8 0 15 -1 24z" />
    <glyph glyph-name="oe" unicode="&#x153;" horiz-adv-x="700" 
d="M703 364c-1 -99 -162 -152 -261 -179c-2 -12 -2 -18 -2 -24c0 -50 17 -94 74 -94c43 0 90 24 144 74l17 -30c-95 -106 -173 -123 -223 -123c-37 0 -83 17 -104 73c-45 -45 -102 -73 -162 -73c-115 0 -146 91 -146 164c1 130 70 223 146 264c39 22 84 37 123 37
c51 0 96 -24 120 -75h1c51 43 116 75 173 75c65 0 100 -39 100 -89zM590 355c0 36 -21 50 -35 50h-1c-9 0 -20 -4 -28 -10c-28 -16 -67 -69 -80 -171c106 35 144 74 144 131zM340 309c0 68 -19 102 -55 102h-1c-7 0 -16 -2 -25 -6c-30 -14 -88 -87 -89 -257
c-1 -68 26 -113 58 -113c11 0 17 2 26 6c34 15 86 114 86 268z" />
    <glyph glyph-name="germandbls" unicode="&#xdf;" horiz-adv-x="544" 
d="M72 436h58c14 81 48 156 119 212c39 32 98 61 158 61c96 0 144 -54 145 -129c0 -26 -8 -47 -16 -55c-96 -68 -105 -102 -104 -136c0 -26 14 -53 35 -91c27 -46 43 -79 43 -122c0 -112 -141 -188 -206 -188c-45 0 -87 24 -87 55c0 15 8 32 27 47c10 8 18 7 27 0
c31 -24 65 -41 93 -41c25 0 49 17 49 47c0 21 -11 50 -43 107c-23 40 -51 77 -51 126c0 38 28 85 117 160c8 15 13 39 13 62c0 73 -32 115 -72 115c-86 1 -109 -140 -130 -268c-15 -89 -26 -160 -41 -247c-27 -151 -74 -268 -158 -342c-41 -37 -84 -58 -114 -58
s-61 19 -61 46c0 17 17 40 28 51c10 8 18 13 27 6c22 -17 51 -29 69 -29c16 0 26 7 34 25c6 15 17 54 39 202c24 154 38 243 51 336h-77l-5 11z" />
    <glyph glyph-name="onesuperior" unicode="&#xb9;" horiz-adv-x="341" 
d="M305 424l-7 -27h-214l6 27c51 6 58 12 67 59l31 157c10 49 4 53 -29 57l-19 2l6 26c46 5 103 16 161 29l-53 -271c-9 -47 -1 -53 51 -59z" />
    <glyph glyph-name="logicalnot" unicode="&#xac;" horiz-adv-x="607" 
d="M553 101h-74v209h-410v65h484v-274z" />
    <glyph glyph-name="mu" unicode="&#xb5;" horiz-adv-x="532" 
d="M491 127l16 -28c-74 -80 -137 -111 -172 -111c-34 0 -44 34 -29 100c4 20 9 44 14 62h-2c-47 -66 -85 -110 -113 -132c-24 -19 -45 -30 -70 -30c-23 0 -39 18 -46 52h-2c-12 -31 -18 -98 -11 -150c5 -42 18 -75 34 -98l1 -8c-8 -12 -41 -34 -73 -34c-25 0 -43 23 -41 74
c2 40 22 125 36 192c38 171 75 334 92 413l118 24l7 -5c-25 -105 -49 -198 -67 -287c-16 -69 -4 -82 12 -82c39 0 118 116 137 151c16 66 30 132 44 196l110 27h13c-25 -99 -50 -207 -72 -325c-7 -34 -7 -44 1 -44c7 0 39 20 63 43z" />
    <glyph glyph-name="trademark" unicode="&#x2122;" horiz-adv-x="482" 
d="M271 587h-17c-4 13 -7 22 -12 25c-3 5 -12 6 -24 6h-11v-92c0 -27 1 -29 27 -30v-17h-98v17c26 1 27 3 27 30v92h-9c-14 0 -22 -2 -26 -7c-4 -3 -9 -12 -12 -24h-16c1 24 3 45 3 57h15c1 -3 3 -5 5 -5c2 -1 5 -1 8 -1h111c6 0 9 1 13 6h14c1 -13 1 -34 2 -57zM531 479
h-89v17c23 1 23 3 23 25v88h-1l-59 -128h-18l-49 123h-1l-4 -57c-2 -19 -2 -30 -1 -38c0 -9 6 -12 25 -13v-17h-75v17c15 0 21 4 22 13c2 8 4 16 6 42l3 39c2 25 0 28 -25 29v19h81l41 -86l43 86h75v-19c-20 -1 -21 -4 -21 -26l1 -68c0 -26 2 -28 23 -29v-17z" />
    <glyph glyph-name="Eth" unicode="&#xd0;" horiz-adv-x="738" 
d="M127 649h265c205 0 333 -87 333 -273c0 -127 -54 -238 -166 -306c-84 -51 -190 -70 -320 -70h-235l10 34c75 6 84 20 98 90l37 191h-99l11 50h97l31 160c14 77 7 84 -71 90zM276 315l-33 -186c-7 -35 -6 -62 13 -75c12 -8 35 -12 54 -12c155 0 271 155 271 342
c0 161 -82 224 -186 224c-27 0 -43 -4 -52 -10c-10 -6 -16 -19 -22 -53l-35 -180h141l-12 -50h-139z" />
    <glyph glyph-name="onehalf" unicode="&#xbd;" horiz-adv-x="780" 
d="M676 619l-531 -659l-31 29l530 659zM287 306l-7 -28h-214l7 28c50 5 57 12 66 59l32 156c9 49 3 53 -30 57l-18 2l6 26c46 5 102 15 161 29l-53 -270c-9 -48 -2 -54 50 -59zM691 106l25 -10c-18 -42 -28 -66 -40 -96h-256l6 26c22 19 68 49 112 87c58 50 84 90 84 129
c0 31 -21 50 -54 50c-27 0 -58 -22 -80 -47l-20 21l43 50c27 26 62 42 105 42c56 0 106 -35 106 -99c0 -74 -81 -117 -142 -160l-39 -28v-2h83c33 0 43 5 67 37z" />
    <glyph glyph-name="plusminus" unicode="&#xb1;" horiz-adv-x="607" 
d="M544 304h-204v-194h-74v194h-205v65h205v181h74v-181h204v-65zM544 0h-483v65h483v-65z" />
    <glyph glyph-name="Thorn" unicode="&#xde;" horiz-adv-x="585" 
d="M307 505h67c103 0 209 -29 209 -162c0 -117 -105 -193 -237 -199c-13 -1 -25 0 -36 3l-68 16l-10 -45c-15 -68 -7 -79 84 -84l-8 -34h-305l8 34c71 5 81 13 94 85l80 411c13 69 8 79 -66 85l8 34h285l-8 -34c-74 -6 -79 -14 -97 -110zM290 414l-40 -212
c12 -5 33 -11 59 -11c80 0 134 75 134 162c0 75 -39 111 -103 111c-16 0 -29 -3 -36 -8c-5 -5 -10 -22 -14 -42z" />
    <glyph glyph-name="onequarter" unicode="&#xbc;" horiz-adv-x="839" 
d="M686 619l-532 -659l-30 30l530 658zM294 305l-6 -27h-215l6 27c50 5 57 12 67 59l31 157c10 49 4 53 -29 57l-19 2l6 26c46 5 103 15 161 29l-53 -271c-9 -48 -2 -54 51 -59zM700 135l-9 -41h-54l-4 -23c-5 -32 0 -38 43 -45l-5 -26h-196l7 26c43 6 53 8 59 43l5 25h-156
l5 27c71 79 148 159 231 236h62l-42 -222h54zM584 274h-2c-42 -48 -84 -90 -123 -139h95z" />
    <glyph glyph-name="divide" unicode="&#xf7;" horiz-adv-x="607" 
d="M316 350c-29 0 -58 28 -58 60s29 61 59 61c34 0 61 -29 61 -61s-27 -60 -62 -60zM558 222h-484v65h484v-65zM317 159c29 0 59 -27 59 -60c0 -32 -30 -61 -60 -61c-34 0 -60 29 -60 61c0 33 26 60 61 60z" />
    <glyph glyph-name="brokenbar" unicode="&#xa6;" horiz-adv-x="273" 
d="M204 325h-83v350h83v-350zM204 -175h-83v350h83v-350z" />
    <glyph glyph-name="degree" unicode="&#xb0;" horiz-adv-x="363" 
d="M247 664c71 0 130 -45 130 -126c0 -83 -68 -139 -146 -139c-75 0 -131 48 -131 125c0 82 67 140 147 140zM243 619c-43 0 -79 -39 -79 -96c0 -45 29 -79 71 -79c47 0 79 42 79 92c0 48 -27 83 -71 83z" />
    <glyph glyph-name="thorn" unicode="&#xfe;" horiz-adv-x="508" 
d="M211 321h2c79 94 153 132 201 132c43 0 79 -40 79 -122c0 -109 -56 -226 -148 -289c-57 -39 -126 -54 -141 -54c-16 0 -32 2 -54 9c-6 -37 -12 -74 -19 -111c-10 -57 -4 -75 53 -80l20 -2l-1 -34l-282 -12l3 35c62 8 74 17 90 99c42 219 85 436 128 666
c12 68 7 76 -45 77l-17 1l6 33c90 9 173 40 191 40c10 0 12 -8 7 -34zM333 370c-22 0 -70 -27 -131 -119c-10 -46 -19 -92 -37 -188c15 -14 42 -26 61 -26c13 0 28 1 44 12c48 31 93 153 93 262c0 40 -14 59 -30 59z" />
    <glyph glyph-name="threequarters" unicode="&#xbe;" horiz-adv-x="780" 
d="M701 619l-531 -659l-31 29l530 659zM148 538l-20 19l39 44c21 18 57 34 91 34h1c50 0 99 -24 99 -72c0 -30 -19 -52 -75 -74v-2c39 -8 76 -32 76 -76c0 -52 -38 -87 -89 -112c-37 -18 -78 -27 -105 -27c-31 0 -63 13 -74 24c-10 9 -13 20 -9 29c3 10 14 26 26 32
c8 5 17 3 23 -3c15 -13 40 -41 75 -41c30 0 53 26 53 65c0 51 -32 69 -65 69c-11 0 -24 -2 -33 -5l-4 27c58 14 100 40 100 76c0 22 -13 36 -38 36c-29 0 -52 -21 -71 -43zM705 135l-9 -41h-54l-4 -23c-5 -32 0 -39 43 -45l-5 -26h-196l7 26c44 6 54 8 59 43l5 25h-155l5 27
c70 79 147 160 230 237h62l-43 -223h55zM589 275h-2c-43 -49 -83 -91 -122 -140h94z" />
    <glyph glyph-name="twosuperior" unicode="&#xb2;" horiz-adv-x="341" 
d="M318 503l25 -10c-18 -42 -28 -66 -40 -96h-255l6 26c22 19 68 49 111 86c59 51 85 91 85 129c0 31 -21 51 -54 51c-27 0 -58 -23 -80 -47l-20 21l44 52c26 27 61 40 103 40c57 0 106 -35 106 -99c0 -74 -80 -118 -142 -161l-40 -27v-2h85c33 0 43 5 66 37z" />
    <glyph glyph-name="registered" unicode="&#xae;" horiz-adv-x="312" 
d="M205 660c75 0 132 -60 132 -131c0 -69 -57 -131 -133 -131c-75 0 -132 58 -132 131c0 71 57 131 133 131zM204 637c-60 0 -103 -48 -103 -108c0 -61 45 -108 104 -108s103 47 103 108c0 60 -44 108 -104 108zM279 471l-3 -12c-23 0 -38 5 -50 21c-9 13 -15 24 -19 31
c-4 6 -7 7 -13 7h-4v-23c0 -19 2 -19 19 -20v-15h-69v15c19 1 20 1 20 20v70c0 19 -1 19 -19 20v15h69c24 0 50 -7 50 -37c0 -17 -12 -28 -28 -35c10 -19 19 -30 33 -46c5 -6 10 -9 14 -11zM190 572v-37h9c7 0 14 1 17 4c9 5 12 11 12 22c0 20 -16 24 -25 24
c-10 0 -13 -2 -13 -13z" />
    <glyph glyph-name="minus" unicode="&#x2212;" horiz-adv-x="607" 
d="M558 221h-484v65h484v-65z" />
    <glyph glyph-name="eth" unicode="&#xf0;" horiz-adv-x="489" 
d="M492 637l-109 -56c55 -66 86 -164 86 -243c0 -121 -39 -221 -107 -281c-45 -41 -109 -69 -170 -69c-114 0 -149 89 -149 167c0 129 72 221 146 261c44 24 82 35 118 35c12 0 25 -3 36 -5c-2 23 -14 63 -32 97l-138 -68l-14 37l126 63c-34 48 -93 85 -120 96
c4 12 9 22 18 32c46 -7 122 -48 169 -91l122 61zM228 33c13 0 20 2 27 5c37 16 90 119 89 296c0 25 -4 44 -14 57c-11 11 -25 19 -41 19c-12 0 -23 -4 -35 -10c-28 -14 -82 -96 -82 -251c0 -74 25 -116 56 -116z" />
    <glyph glyph-name="multiply" unicode="&#xd7;" horiz-adv-x="607" 
d="M537 61l-49 -51l-182 186l-182 -186l-48 51l181 185l-181 184l48 51l182 -185l182 187l49 -50l-182 -187z" />
    <glyph glyph-name="threesuperior" unicode="&#xb3;" horiz-adv-x="341" 
d="M264 608v-2c39 -8 76 -32 76 -76c0 -52 -38 -87 -90 -112c-36 -18 -77 -27 -104 -27c-31 0 -63 14 -74 24c-11 9 -13 20 -10 30c4 9 15 25 27 32c8 5 17 2 23 -3c15 -14 40 -42 75 -42c30 0 53 28 53 67c0 50 -32 67 -66 67c-10 0 -23 -2 -32 -5l-4 28
c58 13 100 39 100 75c0 22 -13 36 -38 36c-29 0 -52 -21 -71 -43l-20 19l39 44c21 18 57 34 91 34h1c50 0 99 -24 99 -72c0 -29 -19 -52 -75 -74z" />
    <glyph glyph-name="copyright" unicode="&#xa9;" horiz-adv-x="700" 
d="M379 631c177 0 308 -138 308 -307c0 -167 -131 -305 -309 -305c-181 0 -309 138 -309 305c0 169 130 307 310 307zM379 592c-149 0 -257 -117 -257 -267c0 -149 108 -267 258 -267c148 0 255 118 255 267c0 150 -107 267 -256 267zM505 261l26 -7c-9 -27 -17 -67 -25 -85
c-24 -8 -70 -20 -109 -20c-134 0 -192 89 -192 171c0 115 94 180 197 180c51 0 89 -11 107 -18c2 -27 5 -54 11 -89l-25 -6c-18 47 -42 81 -95 81c-65 0 -105 -60 -105 -139c0 -87 50 -146 108 -146c50 0 80 29 102 78z" />
    <glyph glyph-name="Aacute" unicode="&#xc1;" horiz-adv-x="672" 
d="M629 34l-9 -34h-271l9 34c63 7 67 20 60 69c-5 34 -10 70 -16 111h-191c-19 -37 -36 -75 -55 -113c-21 -44 -20 -57 57 -67l-8 -34h-225l9 34c60 10 72 17 128 114l288 502l52 13l18 -114c21 -137 47 -273 67 -408c13 -88 20 -99 87 -107zM395 265l-33 224h-2
c-39 -71 -82 -146 -122 -224h157zM601 752l-5 -12l-210 -58l-17 31c60 39 121 80 178 117c20 -5 50 -51 54 -78z" />
    <glyph glyph-name="Acircumflex" unicode="&#xc2;" horiz-adv-x="672" 
d="M629 34l-9 -34h-271l9 34c63 7 67 20 60 69c-5 34 -10 70 -16 111h-191c-19 -37 -36 -75 -55 -113c-21 -44 -20 -57 57 -67l-8 -34h-225l9 34c60 10 72 17 128 114l288 502l52 13l18 -114c21 -137 47 -273 67 -408c13 -88 20 -99 87 -107zM395 265l-33 224h-2
c-39 -71 -82 -146 -122 -224h157zM582 712l-22 -28c-38 15 -80 32 -120 55c-44 -21 -90 -40 -135 -55l-17 29c50 32 98 72 148 114h33c37 -42 77 -83 113 -115z" />
    <glyph glyph-name="Adieresis" unicode="&#xc4;" horiz-adv-x="672" 
d="M629 34l-9 -34h-271l9 34c63 7 67 20 60 69c-5 34 -10 70 -16 111h-191c-19 -37 -36 -75 -55 -113c-21 -44 -20 -57 57 -67l-8 -34h-225l9 34c60 10 72 17 128 114l288 502l52 13l18 -114c21 -137 47 -273 67 -408c13 -88 20 -99 87 -107zM395 265l-33 224h-2
c-39 -71 -82 -146 -122 -224h157zM345 822c36 0 54 -27 54 -56c0 -39 -27 -74 -69 -74c-33 0 -56 22 -56 58c0 31 25 72 71 72zM555 822c36 0 54 -27 54 -56c0 -39 -27 -74 -69 -74c-33 0 -56 22 -56 58c0 31 25 72 71 72z" />
    <glyph glyph-name="Agrave" unicode="&#xc0;" horiz-adv-x="672" 
d="M629 34l-9 -34h-271l9 34c63 7 67 20 60 69c-5 34 -10 70 -16 111h-191c-19 -37 -36 -75 -55 -113c-21 -44 -20 -57 57 -67l-8 -34h-225l9 34c60 10 72 17 128 114l288 502l52 13l18 -114c21 -137 47 -273 67 -408c13 -88 20 -99 87 -107zM395 265l-33 224h-2
c-39 -71 -82 -146 -122 -224h157zM499 714l-16 -31l-212 58l-3 12c5 23 33 69 53 78c60 -39 119 -78 178 -117z" />
    <glyph glyph-name="Aring" unicode="&#xc5;" horiz-adv-x="672" 
d="M630 34l-9 -34h-272l9 34c63 7 67 20 60 69c-5 34 -10 70 -16 111h-191c-19 -37 -36 -75 -55 -113c-20 -44 -20 -57 57 -67l-8 -34h-225l9 34c60 10 72 17 128 114l288 502l53 13l18 -114c21 -137 46 -273 67 -408c13 -88 19 -99 87 -107zM395 265l-33 224h-2
c-38 -71 -82 -146 -122 -224h157zM537 779c-2 -57 -53 -93 -104 -93c-49 0 -88 33 -86 87c1 58 51 95 103 95c48 0 88 -34 87 -89zM485 781c0 25 -13 47 -38 47c-29 0 -48 -24 -49 -54c-1 -27 14 -47 39 -47c27 0 46 23 48 54z" />
    <glyph glyph-name="Atilde" unicode="&#xc3;" horiz-adv-x="672" 
d="M629 34l-9 -34h-271l9 34c63 7 67 20 60 69c-5 34 -10 70 -16 111h-191c-19 -37 -36 -75 -55 -113c-21 -44 -20 -57 57 -67l-8 -34h-225l9 34c60 10 72 17 128 114l288 502l52 13l18 -114c21 -137 47 -273 67 -408c13 -88 20 -99 87 -107zM395 265l-33 224h-2
c-39 -71 -82 -146 -122 -224h157zM554 803l31 -19c-24 -70 -55 -95 -87 -95c-21 0 -49 11 -76 23c-17 8 -31 13 -49 13c-20 0 -36 -15 -50 -45l-32 25c24 66 58 91 90 92c20 0 36 -5 68 -21c23 -9 39 -16 55 -16c23 0 37 20 50 43z" />
    <glyph glyph-name="Ccedilla" unicode="&#xc7;" horiz-adv-x="651" 
d="M309 -47l29 34c-161 10 -274 107 -274 281c0 246 198 396 434 396c89 0 146 -20 171 -27c-2 -52 -6 -109 -10 -169l-35 -4c-19 123 -71 157 -149 157c-141 0 -263 -155 -263 -347c0 -155 62 -246 164 -246c81 0 140 56 216 163l33 -15c-21 -56 -56 -126 -81 -165
c-30 -8 -88 -23 -160 -25l-12 -13c-12 -15 -11 -24 5 -46c19 -25 30 -44 29 -69c-2 -45 -59 -84 -136 -106l-13 31c40 17 69 36 70 58c1 16 -10 30 -18 41c-22 26 -23 44 0 71z" />
    <glyph glyph-name="Eacute" unicode="&#xc9;" horiz-adv-x="570" 
d="M123 649h458c-4 -27 -12 -107 -18 -157l-36 -3c-3 42 -7 75 -21 93c-11 18 -31 25 -87 25h-49c-37 0 -43 -5 -50 -42l-38 -201h67c85 0 87 6 116 74h36l-40 -206h-37c1 77 2 83 -83 83h-68l-32 -169c-9 -44 -9 -70 1 -83c11 -16 37 -21 85 -21c60 0 92 9 117 33
c22 21 47 53 71 96l34 -13c-12 -36 -45 -123 -61 -158h-487l7 34c76 6 83 13 99 93l76 395c15 77 8 87 -69 93zM549 755l-5 -12l-210 -58l-17 31c60 39 121 80 178 117c20 -5 50 -51 54 -78z" />
    <glyph glyph-name="Ecircumflex" unicode="&#xca;" horiz-adv-x="570" 
d="M123 649h458c-4 -27 -12 -107 -18 -157l-36 -3c-3 42 -7 75 -21 93c-11 18 -31 25 -87 25h-49c-37 0 -43 -5 -50 -42l-38 -201h67c85 0 87 6 116 74h36l-40 -206h-37c1 77 2 83 -83 83h-68l-32 -169c-9 -44 -9 -70 1 -83c11 -16 37 -21 85 -21c60 0 92 9 117 33
c22 21 47 53 71 96l34 -13c-12 -36 -45 -123 -61 -158h-487l7 34c76 6 83 13 99 93l76 395c15 77 8 87 -69 93zM532 712l-21 -28c-40 16 -81 33 -120 56c-45 -22 -91 -40 -136 -56l-17 29c50 33 98 73 148 114h33c36 -41 77 -82 113 -115z" />
    <glyph glyph-name="Edieresis" unicode="&#xcb;" horiz-adv-x="570" 
d="M123 649h457c-3 -27 -11 -107 -17 -157l-36 -3c-3 42 -7 75 -21 93c-11 18 -31 25 -87 25h-49c-37 0 -43 -5 -50 -42l-39 -201h67c85 0 87 6 116 74h37l-41 -206h-36c1 77 1 83 -84 83h-68l-32 -169c-8 -44 -8 -70 2 -83c11 -16 36 -21 84 -21c60 0 93 9 117 33
c23 21 48 53 72 96l34 -13c-12 -36 -45 -123 -61 -158h-487l7 34c76 6 82 13 98 93l76 395c15 77 9 87 -69 93zM298 821c36 0 54 -27 54 -56c0 -39 -28 -74 -70 -74c-33 0 -55 22 -55 58c0 31 24 72 71 72zM508 821c37 0 54 -26 54 -56c0 -38 -27 -74 -70 -74
c-33 0 -55 22 -55 58c0 31 24 72 71 72z" />
    <glyph glyph-name="Egrave" unicode="&#xc8;" horiz-adv-x="570" 
d="M123 649h458c-4 -27 -12 -107 -18 -157l-36 -3c-3 42 -7 75 -21 93c-11 18 -31 25 -87 25h-49c-37 0 -43 -5 -50 -42l-38 -201h67c85 0 87 6 116 74h36l-40 -206h-37c1 77 2 83 -83 83h-68l-32 -169c-9 -44 -9 -70 1 -83c11 -16 37 -21 85 -21c60 0 92 9 117 33
c22 21 47 53 71 96l34 -13c-12 -36 -45 -123 -61 -158h-487l7 34c76 6 83 13 99 93l76 395c15 77 8 87 -69 93zM455 717l-16 -31l-212 58l-3 12c5 23 33 69 53 78c60 -39 119 -78 178 -117z" />
    <glyph glyph-name="Iacute" unicode="&#xcd;" horiz-adv-x="366" 
d="M416 649l-8 -34c-73 -6 -79 -15 -94 -95l-76 -391c-16 -79 -9 -89 71 -95l-8 -34h-296l8 34c70 6 79 16 94 95l77 391c16 80 9 89 -72 95l9 34h295zM437 752l-5 -12l-210 -58l-17 31c60 39 121 80 178 117c20 -5 50 -51 54 -78z" />
    <glyph glyph-name="Icircumflex" unicode="&#xce;" horiz-adv-x="366" 
d="M416 649l-8 -34c-73 -6 -79 -15 -94 -95l-76 -391c-16 -79 -9 -89 71 -95l-8 -34h-296l8 34c70 6 79 16 94 95l77 391c16 80 9 89 -72 95l9 34h295zM423 713l-22 -28c-38 15 -80 32 -120 55c-44 -21 -90 -40 -135 -55l-17 29c50 32 98 72 148 114h33
c37 -42 77 -83 113 -115z" />
    <glyph glyph-name="Idieresis" unicode="&#xcf;" horiz-adv-x="366" 
d="M416 649l-8 -34c-73 -6 -79 -15 -94 -95l-76 -391c-16 -79 -9 -89 71 -95l-8 -34h-296l8 34c70 6 79 16 94 95l77 391c16 80 9 89 -72 95l9 34h295zM192 822c36 0 54 -27 54 -56c0 -39 -27 -74 -69 -74c-33 0 -56 22 -56 58c0 31 25 72 71 72zM403 822
c36 0 54 -27 54 -56c0 -39 -27 -74 -69 -74c-33 0 -56 22 -56 58c0 31 25 72 71 72z" />
    <glyph glyph-name="Igrave" unicode="&#xcc;" horiz-adv-x="366" 
d="M416 649l-8 -34c-73 -6 -79 -15 -94 -95l-76 -391c-16 -79 -9 -89 71 -95l-8 -34h-296l8 34c70 6 79 16 94 95l77 391c16 80 9 89 -72 95l9 34h295zM355 714l-16 -31l-212 58l-3 12c5 23 33 69 53 78c60 -39 119 -78 178 -117z" />
    <glyph glyph-name="Ntilde" unicode="&#xd1;" horiz-adv-x="704" 
d="M773 649l-8 -34c-61 -2 -75 -21 -87 -62c-10 -31 -21 -72 -40 -173l-76 -390h-52l-284 508h-2l-45 -234c-17 -87 -21 -130 -23 -162c-2 -48 16 -64 87 -68l-8 -34h-241l9 34c50 3 71 18 85 63c10 32 22 72 42 167l43 202c16 75 10 98 -1 118c-12 22 -38 28 -79 31l8 34
h183l265 -460h3l35 190c19 102 23 141 25 169c3 49 -18 64 -88 67l8 34h241zM569 798l30 -19c-23 -70 -55 -95 -87 -95c-21 0 -49 11 -76 23c-17 8 -31 13 -49 13c-20 0 -36 -15 -50 -45l-31 24c23 67 58 92 89 92c21 0 36 -5 68 -20c24 -9 39 -16 56 -16c22 0 37 20 50 43z
" />
    <glyph glyph-name="Oacute" unicode="&#xd3;" horiz-adv-x="723" 
d="M436 664c168 0 276 -117 276 -286c0 -219 -152 -393 -373 -393c-165 0 -276 109 -276 282c0 212 153 397 373 397zM430 622c-121 0 -221 -188 -221 -380c0 -124 39 -215 137 -215c132 0 220 204 220 377c0 126 -38 218 -136 218zM597 761l-5 -12l-210 -58l-17 31
c60 39 121 80 178 117c20 -5 50 -51 54 -78z" />
    <glyph glyph-name="Ocircumflex" unicode="&#xd4;" horiz-adv-x="723" 
d="M436 664c168 0 276 -117 276 -286c0 -219 -152 -393 -373 -393c-165 0 -276 109 -276 282c0 212 153 397 373 397zM430 622c-121 0 -221 -188 -221 -380c0 -124 39 -215 137 -215c132 0 220 204 220 377c0 126 -38 218 -136 218zM594 718l-22 -28c-38 15 -80 32 -120 55
c-44 -21 -90 -40 -135 -55l-17 29c50 32 98 72 148 114h33c37 -42 77 -83 113 -115z" />
    <glyph glyph-name="Odieresis" unicode="&#xd6;" horiz-adv-x="723" 
d="M436 664c168 0 276 -117 276 -286c0 -219 -152 -393 -372 -393c-166 0 -277 109 -277 282c0 212 153 397 373 397zM431 622c-121 0 -222 -188 -222 -380c0 -124 39 -215 137 -215c132 0 220 204 220 377c0 126 -38 218 -135 218zM363 831c36 0 54 -27 54 -56
c0 -39 -27 -74 -69 -74c-33 0 -56 22 -56 58c0 31 25 72 71 72zM573 831c36 0 54 -27 54 -56c0 -39 -27 -74 -69 -74c-33 0 -56 22 -56 58c0 31 25 72 71 72z" />
    <glyph glyph-name="Ograve" unicode="&#xd2;" horiz-adv-x="723" 
d="M436 664c168 0 276 -117 276 -286c0 -219 -152 -393 -373 -393c-165 0 -276 109 -276 282c0 212 153 397 373 397zM430 622c-121 0 -221 -188 -221 -380c0 -124 39 -215 137 -215c132 0 220 204 220 377c0 126 -38 218 -136 218zM533 723l-16 -31l-212 58l-3 12
c5 23 33 69 53 78c60 -39 119 -78 178 -117z" />
    <glyph glyph-name="Otilde" unicode="&#xd5;" horiz-adv-x="723" 
d="M436 664c168 0 276 -117 276 -286c0 -219 -152 -393 -373 -393c-165 0 -276 109 -276 282c0 212 153 397 373 397zM430 622c-121 0 -221 -188 -221 -380c0 -124 39 -215 137 -215c132 0 220 204 220 377c0 126 -38 218 -136 218zM562 813l31 -19c-24 -70 -55 -95 -87 -95
c-21 0 -49 11 -76 23c-17 8 -32 13 -49 13c-20 0 -36 -15 -51 -44l-31 23c24 67 58 92 90 91c20 0 35 -5 67 -19c24 -9 40 -16 56 -16c23 0 37 20 50 43z" />
    <glyph glyph-name="Scaron" unicode="&#x160;" horiz-adv-x="489" 
d="M35 206l34 4c10 -67 55 -184 160 -184c72 0 108 53 108 110c0 47 -27 88 -79 128l-30 22c-63 49 -120 105 -120 188c0 118 96 190 219 190c40 0 77 -6 113 -19c18 -6 31 -13 41 -16c-4 -40 -4 -90 -6 -153l-35 -3c-9 63 -33 152 -121 152c-65 0 -96 -56 -96 -103
c0 -49 28 -81 80 -119l31 -22c69 -50 126 -104 126 -195c0 -125 -108 -201 -242 -201c-84 0 -154 34 -182 62c0 22 1 78 -1 159zM471 843l18 -27c-46 -33 -98 -74 -148 -116h-33c-37 41 -76 83 -111 116l21 27c39 -16 79 -33 118 -55c45 21 90 39 135 55z" />
    <glyph glyph-name="Uacute" unicode="&#xda;" horiz-adv-x="707" 
d="M785 649l-8 -34c-57 -2 -76 -18 -91 -64c-11 -31 -24 -80 -39 -161l-19 -97c-17 -89 -45 -178 -111 -240c-48 -46 -115 -68 -180 -68c-66 0 -124 15 -167 54c-47 43 -70 115 -46 241l44 236c16 81 9 93 -68 99l9 34h291l-8 -34c-67 -6 -77 -15 -93 -99l-45 -240
c-30 -158 25 -224 119 -224c110 0 177 87 207 254l16 84c14 81 21 129 22 163c3 44 -24 58 -91 62l9 34h249zM616 752l-5 -12l-210 -58l-17 31c60 39 121 80 178 117c20 -5 50 -51 54 -78z" />
    <glyph glyph-name="Ucircumflex" unicode="&#xdb;" horiz-adv-x="707" 
d="M785 649l-8 -34c-57 -2 -76 -18 -91 -64c-11 -31 -24 -80 -39 -161l-19 -97c-17 -89 -45 -178 -111 -240c-48 -46 -115 -68 -180 -68c-66 0 -124 15 -167 54c-47 43 -70 115 -46 241l44 236c16 81 9 93 -68 99l9 34h291l-8 -34c-67 -6 -77 -15 -93 -99l-45 -240
c-30 -158 25 -224 119 -224c110 0 177 87 207 254l16 84c14 81 21 129 22 163c3 44 -24 58 -91 62l9 34h249zM607 713l-22 -28c-38 15 -80 32 -120 55c-44 -21 -90 -40 -135 -55l-17 29c50 32 98 72 148 114h33c37 -42 77 -83 113 -115z" />
    <glyph glyph-name="Udieresis" unicode="&#xdc;" horiz-adv-x="707" 
d="M785 649l-8 -34c-57 -2 -76 -18 -91 -64c-11 -31 -24 -80 -39 -161l-19 -97c-17 -89 -45 -178 -111 -240c-48 -46 -115 -68 -180 -68c-66 0 -124 15 -167 54c-47 43 -70 115 -46 241l44 236c16 81 9 93 -68 99l9 34h291l-8 -34c-67 -6 -77 -15 -93 -99l-45 -240
c-30 -158 25 -224 119 -224c110 0 177 87 207 254l16 84c14 81 21 129 22 163c3 44 -24 58 -91 62l9 34h249zM369 822c36 0 54 -27 54 -56c0 -39 -27 -74 -69 -74c-33 0 -56 22 -56 58c0 31 25 72 71 72zM580 822c36 0 54 -27 54 -56c0 -39 -27 -74 -69 -74
c-33 0 -56 22 -56 58c0 31 25 72 71 72z" />
    <glyph glyph-name="Ugrave" unicode="&#xd9;" horiz-adv-x="707" 
d="M785 649l-8 -34c-57 -2 -76 -18 -91 -64c-11 -31 -24 -80 -39 -161l-19 -97c-17 -89 -45 -178 -111 -240c-48 -46 -115 -68 -180 -68c-66 0 -124 15 -167 54c-47 43 -70 115 -46 241l44 236c16 81 9 93 -68 99l9 34h291l-8 -34c-67 -6 -77 -15 -93 -99l-45 -240
c-30 -158 25 -224 119 -224c110 0 177 87 207 254l16 84c14 81 21 129 22 163c3 44 -24 58 -91 62l9 34h249zM536 714l-16 -31l-212 58l-3 12c5 23 33 69 53 78c60 -39 119 -78 178 -117z" />
    <glyph glyph-name="Yacute" unicode="&#xdd;" horiz-adv-x="634" 
d="M709 649l-10 -34c-64 -8 -77 -18 -131 -84c-37 -48 -86 -120 -146 -209c-12 -18 -23 -44 -27 -61l-26 -127c-17 -82 -7 -94 79 -100l-9 -34h-316l9 34c78 6 89 16 107 100l25 116c6 27 5 42 -4 69c-17 49 -38 114 -71 211c-25 71 -35 79 -94 85l10 34h262l-8 -34l-27 -6
c-29 -5 -31 -16 -21 -49c18 -60 45 -140 73 -219c44 65 104 157 137 215c21 36 17 47 -25 54l-22 4l11 35h224zM580 751l-5 -11l-211 -58l-16 31c60 39 121 80 178 117c20 -5 49 -51 54 -79z" />
    <glyph glyph-name="Ydieresis" unicode="&#x178;" horiz-adv-x="634" 
d="M709 649l-10 -34c-65 -8 -77 -18 -131 -84c-37 -48 -86 -120 -145 -209c-12 -18 -24 -44 -27 -61l-27 -127c-17 -82 -7 -94 79 -100l-8 -34h-316l8 34c79 6 90 16 108 100l25 116c6 27 5 42 -5 69c-16 49 -38 114 -71 211c-25 71 -35 79 -94 85l10 34h262l-8 -34l-26 -6
c-29 -5 -32 -16 -22 -49c19 -60 45 -140 73 -219c44 65 104 157 137 215c21 36 17 47 -25 54l-22 4l11 35h224zM328 825c36 0 54 -26 54 -56c0 -38 -27 -74 -69 -74c-34 0 -56 22 -56 58c0 31 25 72 71 72zM539 825c36 0 53 -26 53 -56c0 -38 -27 -74 -69 -74
c-33 0 -56 22 -56 58c0 31 25 72 72 72z" />
    <glyph glyph-name="Zcaron" unicode="&#x17d;" horiz-adv-x="607" 
d="M627 649l9 -17c-151 -195 -300 -385 -452 -585c25 -3 61 -5 126 -5c82 0 137 7 169 34c25 21 51 55 80 111l36 -15c-12 -38 -49 -145 -62 -172h-524l-8 20c152 193 301 385 456 587h-116c-100 0 -120 -13 -139 -33c-16 -18 -34 -43 -54 -96l-37 5c16 61 32 140 42 191h26
c11 -23 21 -25 48 -25h400zM535 832l18 -28c-46 -32 -98 -74 -148 -115h-33c-37 41 -75 83 -111 115l21 28c39 -16 79 -33 118 -56c45 21 90 40 135 56z" />
    <glyph glyph-name="aacute" unicode="&#xe1;" horiz-adv-x="519" 
d="M489 133l17 -26c-67 -82 -142 -119 -176 -119c-24 0 -47 14 -29 105l11 53h-2c-35 -48 -71 -83 -99 -107c-30 -25 -71 -51 -107 -51c-40 0 -70 44 -70 122c0 95 44 195 110 254c46 41 131 89 215 89c19 0 40 -3 64 -7c22 -5 40 -7 58 -7l5 -4c-21 -87 -44 -193 -65 -311
c-5 -30 -4 -39 2 -39c10 0 45 25 66 48zM186 78c34 0 121 111 138 147c13 51 32 134 36 164c-13 8 -38 14 -57 14c-18 0 -31 -4 -44 -13c-63 -46 -95 -170 -95 -256c0 -39 8 -56 22 -56zM488 660l-173 -172l-30 21c30 55 68 132 86 168c19 5 91 6 112 3z" />
    <glyph glyph-name="acircumflex" unicode="&#xe2;" horiz-adv-x="519" 
d="M489 133l17 -26c-67 -82 -142 -119 -176 -119c-24 0 -47 14 -29 105l11 53h-2c-35 -48 -71 -83 -99 -107c-30 -25 -71 -51 -107 -51c-40 0 -70 44 -70 122c0 95 44 195 110 254c46 41 131 89 215 89c19 0 40 -3 64 -7c22 -5 40 -7 58 -7l5 -4c-21 -87 -44 -193 -65 -311
c-5 -30 -4 -39 2 -39c10 0 45 25 66 48zM186 78c34 0 121 111 138 147c13 51 32 134 36 164c-13 8 -38 14 -57 14c-18 0 -31 -4 -44 -13c-63 -46 -95 -170 -95 -256c0 -39 8 -56 22 -56zM445 513l-30 -24c-28 26 -54 58 -77 85c-35 -28 -72 -60 -110 -85l-26 27
c48 53 94 104 135 161h34c21 -57 46 -109 74 -164z" />
    <glyph glyph-name="adieresis" unicode="&#xe4;" horiz-adv-x="519" 
d="M489 133l17 -26c-67 -82 -142 -119 -176 -119c-24 0 -47 14 -29 105l11 53h-2c-35 -48 -71 -83 -99 -107c-30 -25 -71 -51 -107 -51c-40 0 -70 44 -70 122c0 95 44 195 110 254c46 41 131 89 215 89c19 0 40 -3 64 -7c22 -5 40 -7 58 -7l5 -4c-21 -87 -44 -193 -65 -311
c-5 -30 -4 -39 2 -39c10 0 45 25 66 48zM186 78c34 0 121 111 138 147c13 51 32 134 36 164c-13 8 -38 14 -57 14c-18 0 -31 -4 -44 -13c-63 -46 -95 -170 -95 -256c0 -39 8 -56 22 -56zM252 644c36 0 54 -27 54 -57c0 -38 -28 -73 -69 -73c-33 0 -56 22 -56 58
c0 31 25 72 71 72zM447 644c36 0 54 -27 54 -57c0 -38 -28 -73 -70 -73c-33 0 -56 22 -56 58c0 31 25 72 72 72z" />
    <glyph glyph-name="agrave" unicode="&#xe0;" horiz-adv-x="519" 
d="M489 133l17 -26c-67 -82 -142 -119 -176 -119c-24 0 -47 14 -29 105l11 53h-2c-35 -48 -71 -83 -99 -107c-30 -25 -71 -51 -107 -51c-40 0 -70 44 -70 122c0 95 44 195 110 254c46 41 131 89 215 89c19 0 40 -3 64 -7c22 -5 40 -7 58 -7l5 -4c-21 -87 -44 -193 -65 -311
c-5 -30 -4 -39 2 -39c10 0 45 25 66 48zM186 78c34 0 121 111 138 147c13 51 32 134 36 164c-13 8 -38 14 -57 14c-18 0 -31 -4 -44 -13c-63 -46 -95 -170 -95 -256c0 -39 8 -56 22 -56zM381 499l-38 -11c-36 62 -80 133 -102 167l4 15c14 5 80 17 104 15
c11 -62 22 -124 32 -186z" />
    <glyph glyph-name="aring" unicode="&#xe5;" horiz-adv-x="519" 
d="M489 133l17 -26c-67 -82 -142 -119 -176 -119c-24 0 -47 14 -29 105l11 53h-2c-35 -48 -71 -83 -99 -107c-30 -25 -71 -51 -107 -51c-40 0 -70 44 -70 122c0 95 44 195 110 254c46 41 131 89 215 89c19 0 40 -3 64 -7c22 -5 40 -7 58 -7l5 -4c-21 -87 -44 -193 -65 -311
c-5 -30 -4 -39 2 -39c10 0 45 25 66 48zM186 78c34 0 121 111 138 147c13 51 32 134 36 164c-13 8 -38 14 -57 14c-18 0 -31 -4 -44 -13c-63 -46 -95 -170 -95 -256c0 -39 8 -56 22 -56zM348 673c49 0 91 -35 89 -91c-2 -58 -54 -94 -107 -94c-51 0 -91 34 -89 88
c2 59 52 97 107 97zM344 633c-25 0 -49 -25 -50 -55c-1 -29 16 -50 40 -50c28 0 49 24 51 55c1 27 -14 50 -41 50z" />
    <glyph glyph-name="atilde" unicode="&#xe3;" horiz-adv-x="519" 
d="M489 133l17 -26c-67 -82 -142 -119 -176 -119c-24 0 -47 14 -29 105l11 53h-2c-35 -48 -71 -83 -99 -107c-30 -25 -71 -51 -107 -51c-40 0 -70 44 -70 122c0 95 44 195 110 254c46 41 131 89 215 89c19 0 40 -3 64 -7c22 -5 40 -7 58 -7l5 -4c-21 -87 -44 -193 -65 -311
c-5 -30 -4 -39 2 -39c10 0 45 25 66 48zM186 78c34 0 121 111 138 147c13 51 32 134 36 164c-13 8 -38 14 -57 14c-18 0 -31 -4 -44 -13c-63 -46 -95 -170 -95 -256c0 -39 8 -56 22 -56zM437 633l34 -16c-27 -84 -61 -104 -90 -104c-23 0 -45 11 -69 22
c-20 10 -32 14 -48 14c-18 0 -33 -15 -49 -45l-31 22c22 65 58 99 90 99c17 0 31 -5 63 -21c21 -10 40 -18 54 -18c21 0 34 22 46 47z" />
    <glyph glyph-name="ccedilla" unicode="&#xe7;" horiz-adv-x="396" 
d="M350 130l18 -26c-46 -54 -105 -93 -156 -107l-21 -24c-13 -15 -10 -24 5 -46c19 -25 30 -44 29 -69c-2 -45 -59 -84 -136 -106l-13 31c40 17 69 36 70 58c1 16 -10 30 -18 41c-22 25 -23 43 0 70l31 36v1c-80 -2 -123 53 -123 147c0 84 37 181 110 244
c46 39 118 73 175 73c46 0 90 -23 90 -57c0 -17 -13 -39 -38 -57c-17 -13 -28 -13 -37 1c-28 41 -54 60 -77 60c-19 0 -37 -12 -52 -43c-24 -47 -41 -124 -41 -189c0 -73 23 -102 63 -102c45 0 98 43 121 64z" />
    <glyph glyph-name="eacute" unicode="&#xe9;" horiz-adv-x="418" 
d="M376 141l19 -28c-90 -94 -166 -125 -236 -125c-58 0 -123 32 -123 150c0 93 42 194 117 251c40 32 108 64 163 64c71 0 104 -40 104 -87c0 -102 -157 -151 -257 -178c-1 -11 -1 -19 -1 -26c0 -51 19 -94 70 -94c39 0 97 28 144 73zM272 407c-9 0 -21 -4 -30 -10
c-23 -15 -63 -71 -75 -171c107 33 143 74 143 128c0 39 -25 53 -38 53zM439 660l-173 -171l-30 21c30 54 68 131 86 167c19 5 91 6 112 3z" />
    <glyph glyph-name="ecircumflex" unicode="&#xea;" horiz-adv-x="418" 
d="M376 141l19 -28c-90 -94 -166 -125 -236 -125c-58 0 -123 32 -123 150c0 93 42 194 117 251c40 32 108 64 163 64c71 0 104 -40 104 -87c0 -102 -157 -151 -257 -178c-1 -11 -1 -19 -1 -26c0 -51 19 -94 70 -94c39 0 97 28 144 73zM272 407c-9 0 -21 -4 -30 -10
c-23 -15 -63 -71 -75 -171c107 33 143 74 143 128c0 39 -25 53 -38 53zM398 513l-30 -24c-28 26 -54 58 -77 85c-35 -28 -72 -60 -110 -85l-26 27c48 53 94 104 135 161h34c21 -57 46 -109 74 -164z" />
    <glyph glyph-name="edieresis" unicode="&#xeb;" horiz-adv-x="418" 
d="M375 141l20 -28c-90 -94 -166 -125 -236 -125c-58 0 -123 32 -123 150c0 93 42 194 117 251c40 32 108 64 163 64c71 0 104 -40 104 -87c0 -102 -157 -151 -257 -178c-1 -11 -1 -19 -1 -26c0 -51 19 -94 70 -94c39 0 97 28 143 73zM272 407c-9 0 -21 -4 -30 -10
c-23 -15 -63 -71 -75 -171c107 33 143 74 143 128c0 39 -25 53 -38 53zM206 644c36 0 54 -27 54 -57c0 -38 -28 -73 -70 -73c-33 0 -55 22 -55 58c0 31 24 72 71 72zM401 644c36 0 54 -27 54 -57c0 -38 -27 -73 -69 -73c-33 0 -56 22 -56 58c0 31 25 72 71 72z" />
    <glyph glyph-name="egrave" unicode="&#xe8;" horiz-adv-x="418" 
d="M376 141l19 -28c-90 -94 -166 -125 -236 -125c-58 0 -123 32 -123 150c0 93 42 194 117 251c40 32 108 64 163 64c71 0 104 -40 104 -87c0 -102 -157 -151 -257 -178c-1 -11 -1 -19 -1 -26c0 -51 19 -94 70 -94c39 0 97 28 144 73zM272 407c-9 0 -21 -4 -30 -10
c-23 -15 -63 -71 -75 -171c107 33 143 74 143 128c0 39 -25 53 -38 53zM328 499l-38 -10c-36 62 -80 132 -102 166l4 15c14 5 80 17 104 15c11 -62 22 -124 32 -186z" />
    <glyph glyph-name="iacute" unicode="&#xed;" horiz-adv-x="297" 
d="M259 123l17 -25c-72 -78 -147 -110 -177 -110s-52 20 -31 108l52 223c6 25 4 30 0 35c-8 0 -36 -17 -60 -34l-15 27c73 67 147 106 183 106c25 0 36 -35 20 -99l-56 -231c-7 -29 -5 -39 2 -39c9 0 35 14 65 39zM369 659l-174 -171l-30 21c30 54 68 131 86 167
c19 5 91 7 113 3z" />
    <glyph glyph-name="icircumflex" unicode="&#xee;" horiz-adv-x="297" 
d="M259 123l17 -25c-72 -78 -147 -110 -177 -110s-52 20 -31 108l52 223c6 25 4 30 0 35c-8 0 -36 -17 -60 -34l-15 27c73 67 147 106 183 106c25 0 36 -35 20 -99l-56 -231c-7 -29 -5 -39 2 -39c9 0 35 14 65 39zM317 511l-30 -24c-28 26 -53 58 -77 86
c-34 -29 -72 -60 -110 -86l-26 27c48 54 94 105 135 162h34c21 -58 46 -109 74 -165z" />
    <glyph glyph-name="idieresis" unicode="&#xef;" horiz-adv-x="297" 
d="M259 123l17 -25c-71 -78 -146 -110 -176 -110s-52 20 -31 108l51 223c6 25 4 30 0 35c-8 0 -36 -17 -60 -34l-15 27c73 67 147 106 183 106c25 0 36 -35 20 -99l-56 -231c-7 -29 -5 -39 2 -39c9 0 35 14 65 39zM134 643c36 0 54 -27 54 -56c0 -39 -28 -74 -70 -74
c-33 0 -56 22 -56 58c0 31 25 72 72 72zM329 643c36 0 54 -27 54 -56c0 -39 -28 -74 -70 -74c-33 0 -56 22 -56 58c0 31 25 72 72 72z" />
    <glyph glyph-name="igrave" unicode="&#xec;" horiz-adv-x="297" 
d="M259 123l17 -25c-72 -78 -147 -110 -177 -110s-52 20 -31 108l52 223c6 25 4 30 0 35c-8 0 -36 -17 -60 -34l-15 27c73 67 147 106 183 106c25 0 36 -35 20 -99l-56 -231c-7 -29 -5 -39 2 -39c9 0 35 14 65 39zM249 499l-38 -11c-37 62 -81 132 -103 166l5 16
c13 5 80 16 103 14c11 -61 22 -123 33 -185z" />
    <glyph glyph-name="ntilde" unicode="&#xf1;" horiz-adv-x="549" 
d="M507 125l16 -30c-75 -79 -135 -107 -172 -107c-28 0 -49 20 -29 107c17 69 32 138 49 207c12 51 5 61 -5 62c-32 0 -124 -103 -158 -165c-14 -54 -30 -124 -42 -189c-38 -3 -84 -12 -114 -21l-8 9c25 101 51 208 75 324c7 30 6 39 0 39c-9 0 -44 -21 -64 -41l-14 30
c69 68 132 103 170 103c29 0 42 -30 20 -126l-11 -50h2c47 65 101 114 145 144c28 20 58 32 83 32c33 0 66 -19 35 -154c-14 -58 -28 -119 -42 -179c-6 -25 -5 -36 4 -36c8 0 38 20 60 41zM438 633l34 -17c-27 -84 -61 -104 -90 -104c-23 0 -45 12 -69 23
c-20 10 -32 14 -48 14c-18 0 -33 -15 -48 -45l-32 23c22 65 58 98 90 98c17 0 31 -5 63 -21c21 -9 40 -18 54 -18c21 0 34 22 46 47z" />
    <glyph glyph-name="oacute" unicode="&#xf3;" horiz-adv-x="492" 
d="M191 -12c-120 0 -151 88 -151 165c0 130 74 224 149 263c41 22 88 37 131 37c98 0 148 -63 148 -159c0 -87 -34 -180 -106 -241c-44 -38 -109 -65 -171 -65zM230 33c11 0 16 2 25 5c39 15 84 120 84 261c0 78 -25 111 -58 111c-7 0 -16 -2 -24 -5
c-27 -13 -87 -98 -87 -262c0 -76 30 -110 60 -110zM455 660l-173 -171l-30 21c30 54 68 131 86 167c19 5 91 6 112 3z" />
    <glyph glyph-name="ocircumflex" unicode="&#xf4;" horiz-adv-x="492" 
d="M191 -12c-120 0 -151 88 -151 165c0 130 74 224 149 263c41 22 88 37 131 37c98 0 148 -63 148 -159c0 -87 -34 -180 -106 -241c-44 -38 -109 -65 -171 -65zM230 33c11 0 16 2 25 5c39 15 84 120 84 261c0 78 -25 111 -58 111c-7 0 -16 -2 -24 -5
c-27 -13 -87 -98 -87 -262c0 -76 30 -110 60 -110zM427 513l-30 -24c-28 26 -54 58 -77 85c-35 -28 -72 -60 -110 -85l-26 27c48 53 94 104 135 161h34c21 -57 46 -109 74 -164z" />
    <glyph glyph-name="odieresis" unicode="&#xf6;" horiz-adv-x="492" 
d="M191 -12c-120 0 -151 88 -151 165c0 130 74 224 148 263c42 22 89 37 132 37c98 0 148 -63 148 -159c0 -87 -34 -180 -106 -241c-44 -38 -110 -65 -171 -65zM230 33c11 0 16 2 25 5c38 15 84 120 84 261c0 78 -25 111 -58 111c-7 0 -16 -2 -25 -5
c-26 -13 -86 -98 -86 -262c0 -76 30 -110 60 -110zM229 644c36 0 53 -27 53 -57c0 -38 -27 -73 -69 -73c-33 0 -56 22 -56 58c0 31 25 72 72 72zM424 644c36 0 53 -27 53 -57c0 -38 -27 -73 -69 -73c-33 0 -56 22 -56 58c0 31 25 72 72 72z" />
    <glyph glyph-name="ograve" unicode="&#xf2;" horiz-adv-x="492" 
d="M191 -12c-120 0 -151 88 -151 165c0 130 74 224 149 263c41 22 88 37 131 37c98 0 148 -63 148 -159c0 -87 -34 -180 -106 -241c-44 -38 -109 -65 -171 -65zM230 33c11 0 16 2 25 5c39 15 84 120 84 261c0 78 -25 111 -58 111c-7 0 -16 -2 -24 -5
c-27 -13 -87 -98 -87 -262c0 -76 30 -110 60 -110zM354 499l-38 -10c-36 62 -80 132 -102 166l4 15c14 5 80 17 104 15c11 -62 22 -124 32 -186z" />
    <glyph glyph-name="otilde" unicode="&#xf5;" horiz-adv-x="492" 
d="M191 -12c-120 0 -151 88 -151 165c0 130 74 224 149 263c41 22 88 37 131 37c98 0 148 -63 148 -159c0 -87 -34 -180 -106 -241c-44 -38 -109 -65 -171 -65zM230 33c11 0 16 2 25 5c39 15 84 120 84 261c0 78 -25 111 -58 111c-7 0 -16 -2 -24 -5
c-27 -13 -87 -98 -87 -262c0 -76 30 -110 60 -110zM421 633l34 -16c-27 -84 -61 -104 -90 -104c-23 0 -45 12 -70 21c-19 10 -31 14 -48 14c-18 0 -32 -15 -48 -45l-31 24c22 64 57 98 90 98c16 0 30 -5 63 -20c20 -10 39 -18 54 -18c20 0 34 21 46 46z" />
    <glyph glyph-name="scaron" unicode="&#x161;" horiz-adv-x="354" 
d="M122 -12c-57 0 -117 34 -118 81c-1 23 17 46 34 56c17 11 26 10 35 -1c37 -45 81 -74 115 -74c26 0 45 14 45 36c0 20 -13 38 -64 74c-44 33 -101 69 -101 131c0 36 14 73 63 111c37 29 84 51 123 51c54 0 92 -31 93 -66c0 -20 -14 -41 -35 -55c-13 -8 -22 -7 -29 3
c-21 28 -51 57 -90 57c-24 0 -38 -15 -38 -35c0 -26 32 -53 71 -78c57 -37 96 -73 96 -127c0 -91 -115 -164 -200 -164zM362 679l26 -25c-48 -54 -94 -106 -135 -163h-34c-21 57 -47 110 -74 165l31 23c27 -26 53 -58 76 -86c35 29 72 60 110 86z" />
    <glyph glyph-name="uacute" unicode="&#xfa;" horiz-adv-x="545" 
d="M508 128l17 -29c-74 -80 -137 -111 -172 -111c-34 0 -43 36 -28 102c4 19 9 43 14 62h-2c-66 -87 -125 -129 -152 -144c-22 -13 -47 -20 -69 -20c-31 0 -69 19 -40 145c14 60 29 120 43 182c7 33 6 40 1 46c-9 0 -37 -23 -61 -41l-13 30c64 61 134 103 173 103
c30 0 40 -25 22 -103c-16 -68 -32 -140 -48 -209c-11 -45 -7 -62 7 -62c46 0 130 114 150 151c15 64 30 132 43 196l111 27h13c-25 -101 -50 -206 -73 -324c-6 -34 -6 -44 1 -44c8 0 40 20 63 43zM491 659l-173 -171l-30 21c30 54 68 131 86 167c19 5 91 7 112 3z" />
    <glyph glyph-name="ucircumflex" unicode="&#xfb;" horiz-adv-x="545" 
d="M508 128l17 -29c-74 -80 -137 -111 -172 -111c-34 0 -43 36 -28 102c4 19 9 43 14 62h-2c-66 -87 -125 -129 -152 -144c-22 -13 -47 -20 -69 -20c-31 0 -69 19 -40 145c14 60 29 120 43 182c7 33 6 40 1 46c-9 0 -37 -23 -61 -41l-13 30c64 61 134 103 173 103
c30 0 40 -25 22 -103c-16 -68 -32 -140 -48 -209c-11 -45 -7 -62 7 -62c46 0 130 114 150 151c15 64 30 132 43 196l111 27h13c-25 -101 -50 -206 -73 -324c-6 -34 -6 -44 1 -44c8 0 40 20 63 43zM453 511l-30 -24c-28 26 -53 58 -77 86c-34 -29 -71 -60 -109 -86l-27 27
c48 54 95 105 135 162h34c21 -58 46 -109 74 -165z" />
    <glyph glyph-name="udieresis" unicode="&#xfc;" horiz-adv-x="545" 
d="M508 128l16 -29c-74 -80 -136 -111 -171 -111c-34 0 -44 36 -28 102c4 19 9 43 14 62h-2c-67 -87 -125 -129 -152 -144c-22 -13 -47 -20 -69 -20c-31 0 -69 19 -40 145c14 60 29 120 43 182c7 33 6 40 1 46c-9 0 -37 -23 -61 -41l-13 30c64 61 134 103 173 103
c29 0 39 -25 21 -103c-15 -68 -31 -140 -47 -209c-11 -45 -7 -62 7 -62c45 0 130 114 150 151c15 64 30 132 43 196l110 27h14c-26 -101 -51 -206 -73 -324c-6 -34 -6 -44 1 -44c8 0 40 20 63 43zM255 644c36 0 53 -27 53 -56c0 -39 -27 -74 -69 -74c-32 0 -55 22 -55 58
c0 31 25 72 71 72zM450 644c36 0 53 -27 53 -56c0 -39 -27 -74 -69 -74c-33 0 -55 22 -55 58c0 31 24 72 71 72z" />
    <glyph glyph-name="ugrave" unicode="&#xf9;" horiz-adv-x="545" 
d="M508 128l17 -29c-74 -80 -137 -111 -172 -111c-34 0 -43 36 -28 102c4 19 9 43 14 62h-2c-66 -87 -125 -129 -152 -144c-22 -13 -47 -20 -69 -20c-31 0 -69 19 -40 145c14 60 29 120 43 182c7 33 6 40 1 46c-9 0 -37 -23 -61 -41l-13 30c64 61 134 103 173 103
c30 0 40 -25 22 -103c-16 -68 -32 -140 -48 -209c-11 -45 -7 -62 7 -62c46 0 130 114 150 151c15 64 30 132 43 196l111 27h13c-25 -101 -50 -206 -73 -324c-6 -34 -6 -44 1 -44c8 0 40 20 63 43zM367 499l-37 -11c-37 62 -81 132 -103 166l4 16c14 5 80 16 104 14
c11 -61 22 -123 32 -185z" />
    <glyph glyph-name="yacute" unicode="&#xfd;" horiz-adv-x="469" 
d="M276 95h2c52 78 107 166 107 236c-1 25 -10 40 -15 54c-4 11 -2 24 4 35c11 20 32 33 54 33c25 0 51 -22 53 -67c1 -29 -11 -66 -39 -112c-47 -77 -105 -159 -162 -241c-58 -83 -117 -165 -188 -246l-132 -31l-8 27c104 67 166 116 221 188c2 80 -17 248 -36 338
c-7 35 -14 46 -20 46c-7 0 -26 -15 -54 -52l-22 27c44 70 101 123 145 123c36 0 57 -36 70 -135c10 -81 15 -142 20 -223zM463 659l-173 -171l-30 21c29 55 68 131 86 167c18 5 91 7 112 3z" />
    <glyph glyph-name="ydieresis" unicode="&#xff;" horiz-adv-x="469" 
d="M276 95h2c52 78 107 166 107 236c-1 25 -10 40 -15 54c-4 11 -2 24 4 35c11 20 32 33 54 33c25 0 51 -22 53 -67c1 -29 -11 -66 -39 -112c-47 -77 -105 -160 -162 -241c-58 -83 -117 -165 -188 -246l-132 -31l-8 27c104 67 166 116 221 188c2 80 -17 248 -36 338
c-7 35 -14 45 -20 45c-7 0 -26 -14 -54 -51l-22 27c44 70 101 123 145 123c36 0 57 -36 70 -135c10 -81 15 -142 20 -223zM223 644c35 0 53 -27 53 -57c0 -38 -27 -73 -69 -73c-33 0 -56 22 -56 58c0 31 25 72 72 72zM418 644c35 0 53 -27 53 -57c0 -38 -27 -73 -69 -73
c-33 0 -56 22 -56 58c0 31 25 72 72 72z" />
    <glyph glyph-name="zcaron" unicode="&#x17e;" horiz-adv-x="414" 
d="M436 468l23 -24c-19 -22 -44 -54 -74 -85c-80 -83 -195 -190 -245 -236c22 1 52 -5 81 -16c31 -11 55 -17 76 -17c25 0 54 16 101 81l28 -21c-61 -134 -109 -171 -156 -171c-34 0 -86 27 -128 47c-45 21 -60 18 -77 6c-12 -9 -21 -21 -29 -34c-4 -7 -10 -10 -15 -10
c-18 6 -34 45 38 116c57 56 178 163 265 248c-17 -4 -41 -6 -68 -4c-25 1 -52 4 -73 4c-55 1 -77 -25 -107 -72l-29 18c18 42 35 73 50 95c27 39 53 59 81 59c23 0 45 -2 88 -10c58 -11 82 -12 100 -12s45 15 70 38zM390 679l26 -26c-48 -54 -94 -106 -135 -162h-34
c-21 57 -47 109 -74 165l31 23c27 -26 53 -58 76 -87c35 30 72 61 110 87z" />
    <glyph glyph-name="twodotenleader" unicode="&#x2025;" horiz-adv-x="500" 
d="M89 -12c-40 0 -69 32 -69 73c0 51 34 87 82 87c41 0 69 -32 69 -75c0 -53 -40 -85 -82 -85zM338 -12c-40 0 -69 32 -69 73c0 51 34 87 82 87c41 0 69 -32 69 -75c0 -53 -40 -85 -82 -85z" />
    <glyph glyph-name="onedotenleader" unicode="&#x2024;" horiz-adv-x="500" 
d="M214 -12c-40 0 -69 32 -69 73c0 51 34 87 82 87c41 0 69 -32 69 -75c0 -53 -40 -85 -82 -85z" />
    <glyph glyph-name="colonmonetary" unicode="&#x20a1;" horiz-adv-x="495" 
d="M511 684l-26 -71c19 -6 40 -14 51 -17c-5 -49 -14 -103 -19 -133l-29 -1c0 41 -4 76 -21 97l-186 -519h11c53 4 88 44 132 116l27 -15c-17 -43 -41 -92 -58 -117c-22 -9 -61 -22 -116 -24h-10l-26 -72h-31l27 75c-18 1 -25 5 -40 10l-31 -85h-32l36 97
c-60 32 -111 104 -110 220c3 220 154 372 323 379l22 60h31l-21 -60c16 0 26 -1 42 -5l24 65h30zM250 43l192 533c-8 6 -22 11 -36 11h-5l-184 -522c10 -12 20 -17 33 -22zM196 94l172 489c-72 -11 -182 -148 -185 -398c0 -33 6 -71 13 -91z" />
    <glyph glyph-name="figuredash" unicode="&#x2012;" horiz-adv-x="497" 
d="M479 351l-13 -67h-408l14 67h407z" />
    <glyph glyph-name="oneeighth" unicode="&#x215b;" horiz-adv-x="780" 
d="M677 619l-530 -659l-30 29l529 659zM295 306l-6 -28h-215l7 28c50 5 57 12 66 59l32 156c9 49 4 54 -29 57l-20 2l7 26c46 5 102 15 161 29l-53 -270c-9 -48 -2 -54 50 -59zM562 -7c-56 0 -130 29 -131 95c0 20 9 39 37 58c15 10 39 22 51 29c-21 15 -43 39 -43 74
c0 61 58 108 137 108c44 0 109 -25 109 -88c0 -23 -14 -41 -30 -52c-11 -8 -23 -15 -41 -26c30 -17 62 -43 62 -84c0 -76 -82 -114 -151 -114zM600 325c-26 0 -46 -22 -46 -46c0 -34 43 -55 72 -72c14 15 25 38 25 62c0 33 -22 56 -51 56zM570 26c32 0 55 23 55 52
c0 30 -23 47 -83 80c-21 -17 -34 -42 -34 -67c0 -38 28 -65 62 -65z" />
    <glyph glyph-name="threeeighths" unicode="&#x215c;" horiz-adv-x="780" 
d="M676 619l-532 -659l-30 29l530 659zM140 539l-20 18l38 43c21 19 58 35 92 35h1c49 0 98 -24 98 -72c0 -30 -19 -52 -74 -74v-2c39 -8 76 -32 76 -76c0 -52 -38 -87 -89 -112c-37 -18 -79 -27 -105 -27c-32 0 -63 13 -75 24c-9 9 -11 20 -8 29c3 10 13 26 25 32
c9 5 18 3 24 -3c15 -13 40 -41 75 -41c30 0 53 28 53 67c0 50 -32 67 -66 67c-10 0 -23 -2 -32 -5l-4 28c57 13 100 39 100 75c0 22 -13 36 -39 36c-28 0 -51 -21 -70 -42zM559 -7c-56 0 -130 29 -130 94c0 21 8 39 36 59c15 10 38 22 50 29c-20 14 -42 38 -42 74
c0 61 57 108 136 108c45 0 110 -25 110 -88c0 -23 -15 -42 -28 -52c-12 -9 -24 -16 -42 -26c31 -17 62 -44 62 -84c0 -76 -82 -114 -152 -114zM597 325c-26 0 -46 -22 -46 -47c0 -33 43 -54 71 -71c15 15 26 38 26 61c0 34 -22 57 -51 57zM568 25c32 0 55 23 55 53
c0 29 -23 47 -84 80c-20 -18 -33 -42 -33 -68c0 -38 28 -65 62 -65z" />
    <glyph glyph-name="fiveeighths" unicode="&#x215d;" horiz-adv-x="780" 
d="M671 619l-531 -659l-30 29l529 659zM367 629l-26 -69h-154l-22 -71c24 8 51 14 74 15c46 0 110 -24 110 -93c0 -46 -29 -79 -74 -106c-41 -24 -91 -34 -123 -34c-29 0 -56 12 -69 23c-11 9 -15 19 -10 33c5 12 16 25 23 30c10 6 20 7 29 -2c18 -16 48 -40 75 -40
c25 0 50 20 50 65c0 47 -27 73 -73 73c-23 0 -45 -4 -68 -11l51 187h207zM555 -7c-56 0 -131 29 -131 95c0 20 8 38 37 58c15 10 39 22 51 29c-21 15 -43 39 -43 75c0 60 57 107 137 107c45 0 110 -25 110 -88c0 -23 -15 -41 -30 -52c-11 -8 -24 -15 -41 -26
c30 -17 62 -43 62 -84c0 -76 -83 -114 -152 -114zM593 325c-27 0 -46 -22 -46 -46c0 -34 42 -55 72 -72c15 15 26 38 26 62c0 33 -22 56 -52 56zM563 26c32 0 55 22 55 52c0 29 -23 47 -83 80c-21 -17 -34 -42 -34 -68c0 -37 28 -64 62 -64z" />
    <glyph glyph-name="seveneighths" unicode="&#x215e;" horiz-adv-x="780" 
d="M649 619l-530 -659l-31 29l530 659zM163 524h-29c16 45 24 81 31 105h256l5 -8c-73 -113 -152 -227 -225 -342l-68 -8l-6 11c80 96 155 188 218 278h-116c-36 0 -44 -1 -56 -21zM544 -7c-56 0 -130 29 -131 95c0 20 8 39 36 58c15 10 39 22 51 29c-21 15 -43 39 -43 74
c0 61 58 108 137 108c45 0 110 -25 110 -88c0 -23 -15 -41 -30 -52c-11 -8 -23 -15 -41 -26c30 -17 62 -43 62 -84c0 -76 -82 -114 -151 -114zM582 325c-27 0 -47 -22 -47 -46c0 -34 43 -55 73 -72c14 15 25 38 25 62c0 33 -22 56 -51 56zM552 26c32 0 55 23 55 52
c0 30 -23 47 -83 80c-21 -17 -34 -42 -34 -67c0 -38 28 -65 62 -65z" />
    <glyph glyph-name="onethird" unicode="&#x2153;" horiz-adv-x="781" 
d="M682 619l-531 -659l-30 29l529 659zM294 306l-7 -28h-214l7 28c50 5 57 12 66 59l32 156c9 49 3 54 -30 57l-19 2l7 26c46 5 102 15 161 29l-53 -270c-9 -48 -2 -54 50 -59zM503 260l-20 19l39 44c21 18 57 34 91 34h1c49 0 98 -23 98 -72c0 -30 -19 -52 -73 -74v-2
c38 -8 75 -33 75 -76c0 -53 -38 -87 -89 -113c-37 -18 -78 -27 -105 -27c-32 0 -63 13 -75 24c-9 9 -12 20 -8 30c3 9 13 25 25 32c9 5 18 2 24 -3c15 -14 40 -42 75 -42c31 0 53 28 53 67c0 51 -31 68 -66 68c-10 0 -23 -2 -32 -5l-5 27c58 14 101 40 101 76
c0 22 -14 36 -39 36c-29 0 -51 -21 -70 -43z" />
    <glyph glyph-name="twothirds" unicode="&#x2154;" horiz-adv-x="780" 
d="M702 619l-532 -659l-30 30l530 658zM332 384l25 -10c-18 -42 -28 -66 -40 -96h-256l6 26c22 19 68 49 111 86c58 50 85 91 85 129c0 30 -21 50 -54 50c-27 0 -58 -22 -80 -47l-20 21l45 52c26 27 60 40 103 40c56 0 106 -35 106 -98c0 -75 -82 -118 -143 -161l-40 -27v-2
h85c33 0 43 5 67 37zM510 260l-21 19l40 44c21 18 56 34 91 34h1c49 0 98 -23 98 -72c0 -30 -19 -52 -74 -75v-2c39 -8 76 -32 76 -75c0 -53 -38 -88 -89 -113c-37 -18 -79 -27 -105 -27c-32 0 -63 13 -75 24c-10 9 -12 20 -9 29c3 10 14 26 26 32c8 6 18 3 24 -2
c15 -14 40 -42 75 -42c30 0 53 28 53 67c0 51 -32 67 -66 68c-10 0 -24 -2 -32 -5l-5 27c58 14 101 40 101 76c0 22 -14 36 -39 36c-29 0 -52 -21 -70 -43z" />
    <glyph glyph-name="Aringacute" unicode="&#x1fa;" horiz-adv-x="672" 
d="M629 34l-9 -34h-271l9 34c63 7 67 20 60 69c-5 34 -10 70 -16 111h-191c-19 -37 -36 -75 -55 -113c-21 -44 -20 -57 57 -67l-8 -34h-225l9 34c60 10 72 17 128 114l288 502l52 13l18 -114c21 -137 47 -273 67 -408c13 -88 20 -99 87 -107zM395 265l-33 224h-2
c-39 -71 -82 -146 -122 -224h157zM537 774c-2 -58 -52 -94 -103 -94c-49 0 -89 33 -87 87c2 59 52 96 104 96c47 0 88 -34 86 -89zM485 775c1 25 -12 48 -37 48c-29 0 -48 -24 -49 -55c-1 -27 13 -47 39 -47s46 23 47 54zM616 954l-5 -12l-210 -58l-17 31
c60 39 121 80 178 117c20 -5 50 -51 54 -78z" />
    <glyph glyph-name="R_p" unicode="&#xf6dd;" horiz-adv-x="915" 
d="M719 501l-18 -78c18 7 44 11 63 11c96 0 125 -51 125 -137c0 -61 -27 -132 -80 -197c-43 -54 -109 -96 -174 -112c-12 0 -17 2 -27 9l-23 -114c-9 -44 -6 -58 31 -62l24 -2l-1 -30l-244 -12l1 31c53 8 62 18 72 64l26 120h-14c-97 0 -126 33 -147 93
c-14 38 -26 95 -38 145c-7 31 -12 43 -38 43h-11l-30 -153c-15 -72 -13 -82 48 -87l-7 -33h-244l8 33c56 5 61 15 76 88l78 370c19 88 13 94 -45 99l7 33h210c45 0 92 -6 127 -28c35 -21 58 -59 58 -120c0 -87 -64 -151 -132 -174c5 -23 23 -92 39 -144
c15 -51 28 -84 38 -105c11 -19 12 -18 24 -28l71 326c-19 -6 -40 -15 -59 -25l-7 32c29 18 56 29 76 39l9 39c29 24 81 57 118 71zM254 308h14c28 0 52 4 77 22c39 27 61 82 61 145c0 74 -23 109 -69 109c-13 0 -15 -2 -22 -7c-5 -5 -9 -15 -13 -37zM692 378l-69 -321
c5 -9 16 -22 30 -22c43 0 117 122 117 247c0 84 -31 100 -54 100c-9 0 -15 -1 -24 -4z" />
    <glyph glyph-name="K.alt" unicode="&#xe070;" horiz-adv-x="690" 
d="M750 649l-8 -34c-66 -6 -89 -19 -153 -70c-66 -53 -125 -107 -183 -158c46 -87 118 -204 157 -274c49 -85 77 -125 89 -144l-15 -14c-53 0 -134 21 -183 92c-33 48 -84 135 -140 243c-14 26 -24 33 -46 25l-33 -184c-15 -81 -7 -91 68 -97l-8 -34h-286l8 34
c66 6 76 16 91 96l74 389c16 80 8 90 -69 96l8 34h288l-8 -34c-72 -6 -78 -17 -93 -96l-33 -170c23 6 44 16 76 43c53 44 120 106 178 169c32 35 29 47 -14 52l-22 2l9 34h248z" />
    <glyph glyph-name="R.alt" unicode="&#xe0a7;" horiz-adv-x="647" 
d="M611 -33l-16 -13c-47 1 -126 15 -175 104c-36 66 -63 126 -84 174c-14 35 -26 47 -51 47h-22l-28 -150c-14 -79 -6 -89 66 -95l-7 -34h-291l8 34c70 6 81 15 96 95l77 391c16 79 10 90 -67 95l8 34h254c60 0 116 -7 156 -31c39 -25 66 -66 66 -127
c0 -96 -77 -154 -159 -183c36 -83 72 -157 118 -247c22 -44 37 -70 51 -94zM271 320h26c38 0 70 6 98 23c46 29 69 78 69 141c0 85 -43 125 -93 125c-19 0 -31 -3 -39 -12c-7 -5 -12 -20 -16 -42z" />
    <glyph glyph-name="Dcroat" unicode="&#x110;" horiz-adv-x="738" 
d="M127 649h265c205 0 333 -87 333 -273c0 -127 -54 -238 -166 -306c-84 -51 -190 -70 -320 -70h-235l10 34c75 6 84 20 98 90l37 191h-99l11 50h97l31 160c14 77 7 84 -71 90zM276 315l-33 -186c-7 -35 -6 -62 13 -75c12 -8 35 -12 54 -12c155 0 271 155 271 342
c0 161 -82 224 -186 224c-27 0 -43 -4 -52 -10c-10 -6 -16 -19 -22 -53l-35 -180h141l-12 -50h-139z" />
    <glyph glyph-name="Eng" unicode="&#x14a;" horiz-adv-x="704" 
d="M773 649l-7 -34c-60 -2 -76 -21 -88 -62c-9 -32 -20 -72 -39 -173l-66 -341c-17 -88 -37 -143 -68 -185c-27 -36 -63 -61 -100 -61c-33 0 -55 19 -55 39c0 26 25 61 38 61c17 0 26 -16 47 -16c32 0 62 52 74 116l-281 503h-2l-44 -233c-18 -95 -19 -130 -21 -162
c-3 -49 15 -63 86 -67l-8 -34h-243l9 34c49 3 71 17 85 62c11 32 22 72 41 166l42 204c16 75 11 98 0 118c-10 19 -28 27 -79 31l7 34h184l264 -459h3l35 189c18 102 21 141 23 168c3 50 -18 65 -88 68l8 34h243z" />
    <glyph glyph-name="Hbar" unicode="&#x126;" horiz-adv-x="762" 
d="M793 508l-13 -41h-81l-66 -338c-15 -78 -9 -89 71 -95l-7 -34h-303l8 34c78 6 86 16 101 95l34 183h-265l-34 -183c-15 -79 -7 -89 70 -95l-8 -34h-296l7 34c75 6 81 16 96 95l66 338h-91l13 41h87l3 16c15 78 0 86 -76 91l8 34h297l-9 -34c-68 -6 -79 -15 -92 -91
l-2 -16h264l3 16c14 75 7 85 -68 91l8 34h296l-8 -34c-72 -6 -81 -14 -96 -91l-3 -16h86zM567 467h-264l-20 -104h264z" />
    <glyph glyph-name="Tbar" unicode="&#x166;" horiz-adv-x="611" 
d="M645 674h26c-8 -39 -19 -127 -27 -186l-36 -3c0 47 -6 80 -19 98c-14 21 -42 24 -94 24h-41l-49 -255h139l-12 -45h-136l-34 -180c-14 -74 -9 -87 83 -93l-8 -34h-320l8 34c84 6 92 21 106 93l35 180h-125l12 45h122l49 255h-29c-74 0 -99 -11 -119 -32
c-17 -19 -35 -44 -56 -89h-36c21 64 39 135 51 188h24c9 -23 19 -25 45 -25h392c25 0 31 6 49 25z" />
    <glyph glyph-name="uni021C" unicode="&#x21c;" horiz-adv-x="526" 
d="M136 257l-10 37c144 48 244 123 244 226c0 61 -36 100 -87 100c-62 0 -107 -54 -151 -153l-34 11c17 50 28 103 38 147c56 13 116 39 190 39c116 0 181 -52 181 -127c0 -82 -73 -141 -172 -187v-3c91 -18 162 -78 162 -169c0 -160 -188 -278 -446 -304l-62 53l15 25
c26 -8 65 -20 116 -20c135 0 234 90 234 210c0 85 -59 133 -127 133c-33 0 -62 -8 -91 -18z" />
    <glyph glyph-name="a.end" unicode="&#xe0fe;" horiz-adv-x="657" 
d="M477 439l6 -4c-21 -87 -45 -195 -77 -362c-2 -11 -2 -16 7 -17c25 -3 60 -6 91 -6c68 0 77 23 77 50c0 12 -3 22 -6 33c-2 6 1 10 7 17c11 14 31 28 44 28c10 0 20 -13 20 -39c0 -32 -20 -68 -48 -94c-43 -40 -79 -50 -141 -50c-50 0 -79 1 -113 3c-25 2 -45 2 -58 2
c-6 -1 -7 1 -5 12l29 134h-2c-34 -47 -68 -80 -95 -104c-38 -32 -75 -54 -109 -54c-40 0 -71 44 -71 121c0 96 44 196 110 255c46 41 137 89 212 89h1c19 0 41 -3 64 -7c23 -5 40 -7 57 -7zM301 404c-18 0 -31 -4 -45 -14c-62 -45 -93 -169 -93 -255c0 -39 10 -57 21 -57
c35 0 117 106 135 142c15 55 34 140 38 171c-13 7 -36 13 -56 13z" />
    <glyph glyph-name="e.end" unicode="&#xe109;" horiz-adv-x="582" 
d="M371 138l19 -28c-84 -90 -158 -122 -231 -122c-58 0 -123 32 -123 155c0 88 42 188 117 247c47 35 107 63 162 63c59 0 91 -37 91 -77c0 -45 -31 -82 -90 -105c99 -1 111 -1 150 -1c78 0 89 19 89 54c0 20 -9 43 -12 52c3 10 41 37 58 37c14 0 28 -21 28 -48
c0 -18 -9 -49 -31 -77c-33 -41 -93 -73 -168 -73c-55 0 -120 3 -177 3c-46 0 -77 -6 -89 -10c-2 -10 -3 -25 -3 -44c0 -49 20 -96 68 -96c44 0 97 26 142 70zM272 410c-61 0 -98 -115 -104 -164c95 21 136 62 136 120c0 32 -20 44 -32 44z" />
    <glyph glyph-name="k.alt" unicode="&#xe11f;" horiz-adv-x="482" 
d="M192 251h2c31 36 54 62 80 89c63 64 112 113 164 113c28 0 51 -17 51 -38c0 -19 -12 -42 -25 -55c-6 -7 -14 -11 -19 -8c-11 5 -26 10 -50 10c-35 0 -68 -21 -99 -58c15 -37 34 -78 68 -150c51 -106 93 -184 101 -201l-5 -6c-36 0 -70 6 -98 16c-27 10 -56 41 -86 100
c-26 53 -48 104 -69 152c-10 -9 -19 -22 -27 -34c-15 -70 -24 -126 -32 -172c-39 -4 -81 -12 -114 -21l-7 6c40 191 79 374 117 579c9 48 7 58 -35 60l-26 2l5 32c97 9 168 36 186 36c12 0 13 -8 8 -30c-31 -144 -59 -278 -90 -422z" />
    <glyph glyph-name="m.end" unicode="&#xe12b;" horiz-adv-x="934" 
d="M478 281h2c70 88 125 132 158 150c27 16 49 22 70 22c37 0 58 -35 36 -129l-59 -251c-2 -11 -1 -16 8 -17c23 -3 61 -6 99 -6c66 0 71 20 71 41c0 18 -5 33 -8 41c-1 5 2 11 9 17c15 16 37 30 52 30c11 0 18 -12 18 -34c-1 -33 -21 -73 -50 -100
c-41 -40 -79 -49 -144 -49c-57 0 -85 0 -120 2c-23 2 -45 2 -57 2c-7 -1 -10 1 -8 12l72 305c7 29 7 47 -5 47c-36 0 -125 -99 -157 -162c-14 -58 -28 -127 -40 -192c-42 -3 -86 -12 -119 -21l-7 9c24 99 48 196 69 288c11 56 13 78 -3 78c-35 0 -125 -106 -152 -162
c-16 -52 -31 -127 -45 -192c-39 -3 -84 -12 -117 -21l-7 10c29 107 54 209 79 325c6 24 5 33 -2 34c-11 0 -45 -22 -64 -39l-14 28c67 66 134 106 173 106c33 0 38 -37 19 -116l-14 -59h2c69 91 128 135 156 152c26 16 48 23 68 23c29 0 67 -16 38 -144z" />
    <glyph glyph-name="n.end" unicode="&#xe12c;" horiz-adv-x="688" 
d="M221 273h2c57 75 107 122 146 149c30 21 60 31 85 31c30 0 61 -22 36 -129c-19 -81 -39 -164 -59 -251c-2 -11 -1 -16 8 -17c22 -3 61 -6 98 -6c67 0 73 22 73 44c0 18 -5 31 -8 39c-1 5 2 11 9 18c13 15 35 28 50 28c11 0 18 -12 18 -34c0 -33 -20 -70 -49 -97
c-41 -40 -78 -52 -142 -52c-58 0 -88 1 -122 3c-23 1 -46 1 -58 1c-6 -1 -10 1 -8 12c25 106 49 206 72 305c9 36 7 48 -5 48c-30 0 -120 -98 -159 -171c-14 -52 -28 -119 -41 -184c-38 -3 -84 -12 -115 -21l-8 9c26 101 52 208 76 324c7 30 5 39 -2 39
c-9 0 -44 -21 -64 -41l-14 30c66 64 134 103 171 103c41 0 35 -60 21 -131z" />
    <glyph glyph-name="r.end" unicode="&#xe154;" horiz-adv-x="467" 
d="M532 457l26 -18c-19 -46 -58 -116 -112 -115c-24 0 -42 10 -62 21c-20 13 -33 17 -44 17c-17 0 -42 -16 -66 -52c-25 -35 -44 -66 -67 -120c-10 -43 -26 -124 -34 -180c-38 -3 -85 -12 -114 -21l-8 9c25 105 47 210 65 306c7 39 7 53 -2 53s-41 -19 -59 -35l-14 28
c58 59 124 103 163 103c27 0 39 -32 20 -119l-11 -54h3c76 129 126 174 167 174c26 0 43 -13 68 -28c37 -24 50 -17 81 31z" />
    <glyph glyph-name="longs" unicode="&#x17f;" horiz-adv-x="255" 
d="M366 703c45 0 71 -30 70 -56c-1 -25 -22 -49 -35 -57c-10 -5 -18 -6 -28 3c-25 26 -57 48 -75 48c-20 0 -38 -18 -73 -252c-15 -97 -29 -194 -51 -291c-39 -169 -87 -234 -157 -291c-40 -33 -78 -51 -108 -51c-32 0 -66 19 -66 45c0 23 18 47 37 59c8 6 14 7 20 3
c20 -19 54 -35 75 -35c16 0 24 6 31 22c6 12 21 51 45 211c20 136 26 175 40 260c23 137 64 234 120 296c37 41 102 86 155 86z" />
    <glyph glyph-name="dcroat" unicode="&#x111;" horiz-adv-x="534" 
d="M609 563l-8 -42h-85c-30 -141 -53 -264 -79 -396c-6 -31 -4 -41 4 -41s39 20 62 44l15 -28c-64 -77 -135 -112 -169 -112c-24 0 -50 14 -32 96l13 66h-2c-40 -53 -76 -88 -113 -117c-36 -29 -66 -45 -102 -45c-43 0 -78 44 -78 126c0 96 43 200 113 260
c50 42 138 79 184 79c19 0 31 0 54 -7l15 75h-137l9 42h136l3 15c9 49 5 57 -45 57l-15 1l5 30c101 9 166 37 185 37c12 0 13 -8 7 -36c-8 -35 -16 -69 -23 -104h83zM299 405c-19 0 -30 -3 -43 -13c-61 -44 -91 -181 -91 -256c0 -40 10 -60 26 -60c40 0 121 97 151 154
l30 147c-20 19 -49 28 -73 28z" />
    <glyph glyph-name="eng" unicode="&#x14b;" horiz-adv-x="531" 
d="M56 321l-14 29c65 64 135 103 172 103c33 0 41 -36 18 -129l-11 -50h2c56 73 110 120 152 149c30 20 58 30 83 30c28 0 51 -22 34 -110c-14 -74 -29 -154 -43 -225c-31 -154 -70 -220 -147 -277c-58 -43 -94 -53 -119 -53c-22 0 -45 11 -45 36c0 21 20 49 35 62
c6 6 11 7 20 1c19 -15 41 -25 60 -25c17 0 32 3 54 116l67 340c7 33 4 45 -5 45c-32 0 -127 -103 -160 -167c-14 -53 -29 -121 -42 -186c-38 -3 -84 -12 -114 -21l-7 9c24 101 50 208 75 324c6 30 5 40 -1 40c-9 0 -45 -22 -64 -41z" />
    <glyph glyph-name="hbar" unicode="&#x127;" horiz-adv-x="535" 
d="M491 121l16 -29c-60 -62 -128 -104 -173 -104c-32 0 -48 27 -29 107c17 73 34 146 50 218c8 35 3 49 -9 49c-35 0 -105 -74 -153 -150c-13 -52 -30 -148 -40 -202c-39 -4 -81 -13 -118 -22l-6 9c38 179 74 353 107 520h-84l12 39h80c16 76 12 80 -15 83l-32 4l7 28
c79 8 153 33 168 33c13 0 14 -15 8 -41c-9 -41 -16 -74 -22 -107h134l-11 -39h-132c-15 -75 -27 -138 -46 -232l2 -1c62 80 112 117 149 140c30 19 59 29 83 29c29 0 63 -18 38 -128c-14 -67 -29 -134 -44 -201c-7 -31 -4 -35 0 -41c8 0 39 18 60 38z" />
    <glyph glyph-name="kgreenlandic" unicode="&#x138;" horiz-adv-x="532" 
d="M212 228l3 -1c34 36 73 78 117 122c63 65 108 104 149 104c29 0 51 -17 51 -39c0 -18 -13 -42 -25 -56c-7 -7 -15 -10 -20 -8c-10 6 -26 11 -48 11c-33 0 -70 -24 -112 -71c21 -55 46 -113 68 -156c25 -51 37 -59 52 -59c12 0 33 11 58 36l18 -26
c-57 -76 -109 -97 -142 -97c-31 0 -54 23 -75 64c-19 38 -41 95 -66 158c-12 -10 -26 -29 -37 -40c-10 -42 -23 -95 -35 -160c-39 -3 -85 -12 -115 -21l-7 9c24 101 50 208 75 324c6 30 6 40 -1 40c-8 0 -44 -22 -64 -42l-14 30c65 64 135 103 173 103c34 0 39 -34 23 -109z
" />
    <glyph glyph-name="napostrophe" unicode="&#x149;" horiz-adv-x="555" 
d="M74 479l-12 32c49 19 86 46 87 88c1 24 -16 40 -46 48c-9 2 -13 9 -13 18c0 33 30 54 62 54c57 0 88 -46 88 -95c0 -87 -92 -130 -166 -145zM507 125l16 -30c-75 -79 -138 -107 -173 -107c-28 0 -48 20 -29 99c17 75 34 150 52 224c10 42 5 53 -5 53
c-34 0 -126 -109 -159 -172c-15 -53 -29 -117 -41 -182c-39 -3 -85 -12 -115 -21l-7 9c24 101 50 208 75 324c6 30 5 38 -1 38c-9 0 -44 -20 -64 -40l-14 30c69 68 133 103 171 103c29 0 41 -30 20 -126l-11 -51h2c47 65 102 116 145 146c30 20 62 31 88 31
c30 0 58 -19 30 -140c-15 -63 -30 -128 -45 -193c-6 -25 -4 -35 4 -35s38 19 61 40z" />
    <glyph glyph-name="tbar" unicode="&#x167;" horiz-adv-x="337" 
d="M369 436l-28 -44l-93 -4l-24 -119h93l-14 -43h-89l-17 -88c-9 -44 -6 -59 5 -59c13 0 57 29 82 52l15 -26c-39 -53 -129 -117 -184 -117c-37 0 -58 36 -36 142l19 96h-75l15 43h70l25 119h-70l-5 10l27 38h59l21 92l118 73l13 -11l-37 -154h110z" />
    <glyph glyph-name="uni021D" unicode="&#x21d;" horiz-adv-x="394" 
d="M57 106l-6 32c122 47 176 104 176 169c0 42 -22 66 -60 66c-32 0 -63 -17 -109 -52l-17 26c62 65 124 107 197 107c72 0 118 -44 118 -105c0 -59 -51 -110 -124 -151v-3c71 -14 116 -63 116 -128c0 -138 -168 -268 -361 -291l-49 42l13 23c19 -5 41 -10 68 -10
c105 0 197 66 197 187c0 65 -35 102 -86 102c-19 0 -40 -3 -73 -14z" />
    <glyph glyph-name="IJ" unicode="&#x132;" horiz-adv-x="724" 
d="M416 649l-8 -34c-73 -6 -79 -15 -94 -95l-76 -391c-16 -79 -9 -89 71 -95l-8 -34h-296l8 34c70 6 79 16 94 95l77 391c16 80 9 89 -72 95l9 34h295zM782 649l-8 -34c-70 -8 -76 -13 -91 -95l-70 -384c-21 -117 -56 -192 -140 -240c-42 -28 -100 -41 -124 -42l-6 38
c47 10 88 38 111 115c12 40 21 80 32 140l69 373c15 80 6 87 -72 95l8 34h291z" />
    <glyph glyph-name="c_h" unicode="&#xe0ff;" horiz-adv-x="888" 
d="M851 121l15 -29c-69 -71 -134 -104 -173 -104c-31 0 -47 27 -29 107l51 222c8 31 4 46 -9 46c-32 0 -109 -76 -157 -152c-12 -52 -30 -147 -39 -201c-40 -4 -81 -13 -119 -22l-6 9c41 189 79 374 117 584c9 47 -1 51 -43 53l-20 1l7 31c102 9 165 37 182 37
c14 0 15 -8 10 -36l-78 -381h2c58 73 112 113 150 137c26 15 63 30 87 30s62 -14 35 -134l-43 -194c-8 -32 -6 -41 1 -41c8 0 37 17 59 37zM350 131l18 -28c-70 -76 -147 -115 -212 -115c-79 0 -121 55 -121 148c0 83 37 181 110 244c45 39 118 73 175 73
c48 0 90 -23 90 -58c0 -19 -12 -43 -44 -61c-11 -8 -21 -8 -29 4c-29 44 -54 63 -79 63c-19 0 -36 -13 -53 -44c-25 -46 -40 -124 -40 -189c0 -73 23 -102 62 -102c43 0 100 44 123 65z" />
    <glyph glyph-name="c_k" unicode="&#xe100;" horiz-adv-x="846" 
d="M821 111l18 -26c-54 -76 -106 -97 -136 -97c-28 0 -53 22 -74 71c-20 46 -41 105 -60 166c-16 -16 -24 -27 -32 -39c-16 -76 -26 -131 -34 -177c-39 -4 -82 -12 -115 -21l-7 6c43 191 82 377 123 581c9 47 7 57 -35 59l-26 2l7 32c97 9 167 37 185 37c12 0 13 -9 8 -31
c-33 -144 -61 -278 -93 -420h2c29 36 52 62 79 88c56 54 113 111 166 111c29 0 51 -17 51 -38c0 -19 -12 -42 -25 -55c-7 -7 -14 -11 -20 -8c-10 5 -27 11 -50 11c-34 0 -70 -22 -95 -51c10 -35 24 -75 45 -124c31 -76 48 -114 65 -114c10 0 30 12 53 37zM350 131l18 -28
c-70 -77 -148 -115 -212 -115c-79 0 -121 55 -121 148c0 83 37 181 110 244c45 39 118 73 175 73c48 0 90 -23 90 -58c0 -19 -13 -43 -44 -62c-11 -7 -22 -7 -29 5c-29 43 -55 63 -79 63c-20 0 -37 -12 -53 -44c-25 -50 -40 -124 -40 -189c0 -73 23 -102 62 -102
c43 0 100 44 123 65z" />
    <glyph glyph-name="c_t" unicode="&#xe101;" horiz-adv-x="689" 
d="M733 437l-27 -43l-95 -5l-50 -252c-9 -41 -6 -58 5 -58c13 0 57 29 82 52l15 -27c-39 -53 -129 -116 -185 -116c-36 0 -58 35 -36 141l54 259h-64l-5 10l28 39h51c12 46 36 125 51 146c-15 -2 -46 1 -92 1c-81 0 -113 -37 -113 -101c0 -16 3 -30 10 -40
c4 -8 16 -18 16 -30c-1 -19 -10 -39 -30 -50c-10 -6 -16 -2 -25 7c-13 12 -41 26 -68 26c-23 0 -43 -18 -59 -59c-19 -43 -31 -105 -31 -166c0 -66 23 -103 64 -103c38 0 88 29 120 58l16 -28c-66 -71 -140 -110 -210 -110c-77 0 -118 62 -118 149c0 90 42 187 129 250
c37 27 77 51 121 62c-2 8 -3 14 -3 24c0 81 105 160 222 160c59 0 112 -3 166 2v-8c-14 -27 -32 -92 -51 -190h112z" />
    <glyph glyph-name="ij" unicode="&#x133;" horiz-adv-x="581" 
d="M231 652c38 0 57 -28 57 -60c0 -40 -33 -77 -76 -77c-36 0 -57 23 -56 61c0 32 25 76 75 76zM257 123l17 -25c-71 -78 -145 -110 -175 -110s-52 20 -31 108l52 223c6 25 7 35 0 35c-9 0 -37 -17 -60 -34l-15 27c73 67 146 106 182 106c30 0 35 -39 20 -99l-57 -231
c-7 -29 -4 -39 3 -39c9 0 35 14 64 39zM516 656c38 0 56 -29 56 -60c0 -40 -29 -77 -73 -77c-36 0 -59 23 -59 61c0 32 26 76 76 76zM346 319l-14 27c62 60 144 107 185 107c31 0 34 -35 19 -117c-11 -66 -27 -144 -58 -292c-20 -97 -58 -177 -140 -237
c-61 -44 -90 -53 -113 -53c-24 0 -50 15 -50 39c0 22 19 48 35 60c7 6 11 7 20 1c20 -16 45 -30 63 -30c16 0 25 8 37 64c30 130 50 247 82 423c7 34 7 45 -1 45c-10 0 -48 -22 -65 -37z" />
    <glyph glyph-name="s_p" unicode="&#xe155;" horiz-adv-x="824" 
d="M527 -196l-5 -30l-272 -12l6 29c59 12 69 24 84 91c34 162 67 325 100 486c-30 -9 -49 -18 -66 -27l-10 28c22 16 55 32 85 43l36 157c-20 0 -55 4 -87 4c-53 0 -85 -17 -85 -85c0 -31 8 -51 16 -64c2 -21 -10 -45 -30 -59c-10 -7 -20 -6 -27 2c-8 12 -40 31 -62 31
c-26 0 -46 -16 -46 -43c0 -29 28 -53 62 -84c50 -44 69 -79 69 -121c0 -89 -102 -162 -190 -162c-56 0 -104 38 -104 79c-1 25 17 49 35 60c14 9 23 8 32 -3c30 -44 73 -75 105 -75c23 0 39 12 39 31c0 17 -9 35 -58 79c-40 36 -78 77 -78 128c0 41 20 78 61 111
c22 19 58 41 109 52c-1 8 -1 14 -1 22c0 68 83 152 191 152c25 0 42 -2 60 -2l8 28l106 36l11 -6c-17 -79 -33 -159 -51 -238c30 7 57 11 83 11c109 0 155 -56 155 -152c0 -59 -28 -135 -86 -201c-48 -53 -121 -96 -191 -112c-18 0 -31 2 -52 9l-21 -111
c-11 -62 -5 -74 46 -80zM599 401c-14 0 -27 -2 -39 -5l-65 -332c9 -13 33 -31 51 -30c54 0 132 132 132 263c1 83 -38 104 -79 104z" />
    <glyph glyph-name="s_t" unicode="&#xfb06;" horiz-adv-x="644" 
d="M688 437l-28 -43l-95 -5l-49 -251c-9 -44 -6 -59 5 -59c13 0 57 29 82 52l15 -27c-39 -52 -129 -116 -185 -116c-36 0 -58 35 -36 142l54 258h-64l-5 10l28 39h51c13 53 39 125 53 145c-18 -2 -56 -1 -83 -1c-80 0 -115 -23 -115 -102c0 -23 9 -41 17 -55
c2 -20 -11 -46 -31 -61c-10 -7 -21 -6 -28 3c-8 11 -39 31 -64 31c-23 0 -43 -15 -43 -42c0 -25 23 -51 61 -83c51 -44 71 -80 71 -123c0 -90 -101 -161 -189 -161c-58 0 -106 39 -106 80c-1 25 17 48 35 60c14 9 23 8 32 -4c31 -43 72 -74 104 -74c23 0 39 13 39 32
c0 17 -7 34 -57 78c-41 37 -78 77 -78 129c0 40 19 76 60 109c27 21 63 43 111 53c-1 8 -1 13 -1 21c5 83 103 159 220 159c55 0 109 -1 160 2v-8c-15 -31 -33 -87 -53 -188h112z" />
    <glyph glyph-name="zero.slash" unicode="&#xf638;" horiz-adv-x="495" 
d="M475 667l30 -20l-45 -72c32 -43 45 -105 43 -177c-2 -165 -88 -410 -285 -410c-45 0 -77 11 -104 35l-45 -65l-29 24l48 69c-31 43 -43 102 -43 173c0 176 95 411 287 411c39 0 75 -11 101 -32zM169 171l209 346c-6 54 -26 81 -53 81c-85 0 -138 -215 -153 -377
c-2 -16 -3 -36 -3 -50zM381 453l-207 -343c5 -49 18 -83 52 -83c81 0 132 206 149 351c3 26 5 53 6 75z" />
    <glyph glyph-name="Euro" unicode="&#x20ac;" horiz-adv-x="495" 
d="M58 391h47c49 149 162 245 310 245c57 0 91 -17 114 -27c-2 -50 -6 -89 -10 -132l-33 -4c-14 95 -39 124 -81 124c-50 0 -119 -61 -159 -206h234l-18 -40h-225c-6 -19 -10 -43 -10 -63h213l-19 -39h-197c-3 -131 18 -219 84 -219c41 0 71 23 134 105l28 -18
c-14 -33 -49 -83 -69 -111c-31 -9 -56 -18 -107 -18c-155 0 -207 112 -211 261h-76l17 39h60c1 20 5 46 11 63h-54z" />
    <glyph glyph-name="franc" unicode="&#x20a3;" horiz-adv-x="495" 
d="M109 623h407c-2 -16 -11 -89 -17 -146l-35 -5c-3 32 -7 59 -16 77c-14 28 -37 33 -82 33h-24c-30 0 -38 -8 -43 -36l-36 -190c123 0 139 2 182 11l-14 -71c-44 8 -63 12 -177 12l-20 -105h134l-9 -42h-134l-7 -40c-13 -72 -8 -82 74 -88l-6 -33h-290l7 33
c66 6 77 15 90 88l8 40h-82l10 42h80l56 292c15 78 6 89 -63 95z" />
    <glyph glyph-name="lira" unicode="&#x20a4;" horiz-adv-x="495" 
d="M396 239h-144c-22 -44 -69 -86 -127 -115c37 3 61 -4 94 -18c48 -21 104 -47 141 -47c27 0 42 13 42 31c0 14 -3 26 -5 36c-2 7 2 17 8 24c17 18 34 29 47 29c16 0 23 -17 23 -37c0 -53 -50 -106 -96 -133c-41 -25 -75 -36 -114 -36c-48 0 -92 33 -134 60
c-28 19 -43 24 -59 24c-17 0 -34 -19 -46 -46c-5 -11 -13 -16 -20 -16c-14 0 -30 22 -15 52c11 22 45 55 79 87c33 32 50 68 57 105h-96l8 40h95c4 22 3 43 4 64h-87l8 40h82c7 95 55 161 128 209c41 27 76 43 113 43c48 0 72 -20 85 -37c9 -13 11 -29 0 -46
c-9 -13 -20 -21 -29 -27s-22 -7 -33 2c-30 30 -50 49 -80 49c-29 0 -43 -18 -50 -61c-6 -39 -5 -91 -4 -132h154l-8 -40h-146c0 -21 -2 -44 -6 -64h140z" />
    <glyph glyph-name="peseta" unicode="&#x20a7;" horiz-adv-x="495" 
d="M526 455l-10 -40h-44c-20 -112 -103 -160 -191 -171c-15 -2 -30 -2 -42 1l-40 14l-25 -132c-15 -76 -7 -87 70 -94l-7 -33h-286l7 33c67 6 76 14 92 94l57 288h-67l10 40h65l7 39c16 82 5 89 -60 96l9 33h216c126 0 186 -57 189 -168h50zM237 455h117
c4 89 -32 131 -69 131c-13 0 -9 -2 -17 -5c-7 -3 -10 -15 -14 -35zM350 415h-121l-22 -117c10 -4 16 -6 29 -6c41 0 98 34 114 123z" />
    <glyph glyph-name="peseta.alt" unicode="&#xe153;" horiz-adv-x="868" 
d="M570 96l9 -15c4 6 8 10 12 13c12 7 19 6 26 -3c27 -33 61 -56 86 -56c22 0 35 11 35 27c0 17 -10 29 -49 57c-33 23 -75 49 -75 96c0 28 10 58 54 89c26 19 58 35 91 35c47 0 80 -23 80 -49c0 -17 -11 -33 -27 -43c-9 -6 -16 -5 -21 2c-16 22 -40 46 -69 46
c-20 0 -29 -13 -29 -28c0 -21 24 -41 53 -60c43 -28 72 -54 72 -94c0 -71 -88 -125 -161 -125c-45 0 -89 26 -90 58c0 4 1 8 2 11c-32 -33 -92 -69 -137 -69c-31 0 -48 27 -31 107l45 211c-28 -11 -61 -17 -96 -20c-11 -1 -21 0 -30 2l-55 15l-33 -178
c-14 -75 -8 -86 72 -93l-8 -32h-285l8 32c65 5 74 18 89 93l71 368c16 80 9 92 -58 98l8 32h232c124 0 224 -37 224 -157c0 -23 -5 -45 -16 -65l-17 -76h80l-21 -36l-69 -4l-37 -182c-7 -34 -5 -45 4 -45c14 0 43 21 61 38zM311 530l-38 -191c12 -4 25 -7 46 -7
c90 0 141 70 141 145c0 74 -43 108 -98 108c-15 0 -24 -2 -32 -6c-9 -5 -13 -18 -19 -49z" />
    <glyph glyph-name="aringacute" unicode="&#x1fb;" horiz-adv-x="519" 
d="M489 133l17 -26c-67 -82 -142 -119 -176 -119c-24 0 -47 14 -29 105l11 53h-2c-35 -48 -71 -83 -99 -107c-30 -25 -71 -51 -107 -51c-40 0 -70 44 -70 122c0 95 44 195 110 254c46 41 131 89 215 89c19 0 40 -3 64 -7c22 -5 40 -7 58 -7l5 -4c-21 -87 -44 -193 -65 -311
c-5 -30 -4 -39 2 -39c10 0 45 25 66 48zM186 78c34 0 121 111 138 147c13 51 32 134 36 164c-13 8 -38 14 -57 14c-18 0 -31 -4 -44 -13c-63 -46 -95 -170 -95 -256c0 -39 8 -56 22 -56zM361 673c48 0 91 -35 89 -91c-2 -58 -54 -95 -107 -95c-50 0 -90 34 -88 89
c2 59 52 97 106 97zM357 633c-25 0 -48 -25 -49 -56c-1 -29 15 -49 39 -49c28 0 49 24 50 55c1 27 -14 50 -40 50zM537 866l-173 -170l-30 20c30 55 68 131 86 167c19 5 91 6 112 3z" />
    <glyph glyph-name="estimated" unicode="&#x212e;" horiz-adv-x="764" 
d="M771 303h-585c-3 0 -5 -1 -5 -4v-177c0 -8 3 -15 8 -20c56 -59 135 -96 222 -96c94 0 176 42 233 107h52c-65 -76 -169 -126 -286 -126c-200 0 -361 145 -361 325s161 325 361 325s361 -145 361 -325v-9zM639 326v178c0 9 -3 16 -9 22c-56 56 -133 92 -219 92
s-165 -37 -221 -95c-6 -6 -9 -14 -9 -22v-175c0 -2 2 -5 5 -5h449c3 0 4 3 4 5z" />
    <glyph glyph-name="a.sc" unicode="&#xf761;" horiz-adv-x="604" 
d="M553 34l-7 -34h-244l6 34l18 2c23 5 31 11 25 40l-13 65h-163c-11 -18 -20 -38 -34 -63c-14 -28 -6 -38 21 -41l26 -3l-7 -34h-192l9 34c47 6 64 15 98 72l231 375l54 8l95 -391c11 -46 21 -59 77 -64zM329 187l-33 165h-3l-96 -165h132z" />
    <glyph glyph-name="b.sc" unicode="&#xf762;" horiz-adv-x="561" 
d="M89 475h252c56 0 98 -5 129 -21c29 -15 48 -42 48 -78c0 -68 -57 -101 -135 -115v-2c76 -12 124 -48 124 -116c0 -51 -32 -89 -85 -113c-49 -21 -113 -30 -182 -30h-240l8 34c63 5 71 10 82 68l51 264c12 66 6 70 -60 76zM245 273h31c75 0 112 39 112 91
c0 54 -33 73 -75 73c-35 0 -39 -9 -44 -39zM237 235l-23 -133c-9 -51 9 -64 42 -64c62 0 116 42 116 111c0 71 -47 86 -105 86h-30z" />
    <glyph glyph-name="c.sc" unicode="&#xf763;" horiz-adv-x="545" 
d="M479 153l32 -15c-18 -46 -49 -109 -64 -130c-22 -6 -91 -20 -152 -20c-130 0 -247 71 -247 213c0 183 156 286 342 286c63 0 125 -16 144 -22c-4 -42 -7 -82 -10 -141l-33 -3c-6 89 -52 128 -114 128c-109 0 -185 -127 -185 -248c0 -105 48 -173 119 -173
c60 0 115 49 168 125z" />
    <glyph glyph-name="d.sc" unicode="&#xf764;" horiz-adv-x="616" 
d="M91 475h228c77 0 147 -12 192 -41c48 -33 80 -88 80 -162c0 -96 -51 -177 -138 -224c-63 -35 -142 -48 -231 -48h-218l7 34c58 4 65 9 77 70l52 267c12 60 3 66 -57 71zM268 384l-50 -264c-11 -58 7 -80 47 -80c103 0 185 99 185 243c0 107 -51 153 -124 153
c-19 0 -33 -4 -41 -11c-7 -5 -12 -15 -17 -41z" />
    <glyph glyph-name="e.sc" unicode="&#xf765;" horiz-adv-x="510" 
d="M93 475h394c-3 -20 -10 -74 -16 -127l-35 -2c-3 23 -7 45 -16 63c-8 19 -22 26 -66 26h-48c-26 -2 -28 -2 -32 -26l-26 -140h59c55 0 60 4 80 51h33l-31 -152h-32c0 51 -7 56 -60 56h-58l-19 -105c-7 -41 -4 -61 9 -69c12 -8 32 -10 67 -10c40 0 65 6 87 27
c17 15 38 43 55 74l32 -13c-11 -35 -42 -114 -52 -128h-419l8 34c65 4 72 9 84 74l50 256c13 69 6 74 -56 78z" />
    <glyph glyph-name="f.sc" unicode="&#xf766;" horiz-adv-x="487" 
d="M95 475h398c-3 -21 -11 -76 -16 -129l-35 -2c-3 26 -9 45 -15 61c-10 23 -26 30 -75 30h-43c-27 0 -31 -2 -36 -29l-28 -151h63c72 0 75 7 96 56h34l-31 -163h-35c1 56 -2 62 -74 62h-62l-19 -101c-12 -63 -4 -70 65 -75l-7 -34h-269l6 34c59 4 66 9 79 75l49 256
c13 67 8 72 -52 76z" />
    <glyph glyph-name="g.sc" unicode="&#xf767;" horiz-adv-x="591" 
d="M567 231l-7 -33c-41 -6 -47 -9 -58 -64l-9 -50c-5 -26 -7 -51 -6 -68c-55 -13 -128 -28 -181 -28c-140 0 -258 71 -258 217c0 172 143 282 336 282c69 0 136 -14 160 -22c-1 -24 -7 -73 -13 -145l-36 -2c-4 98 -50 131 -114 131c-110 0 -189 -114 -189 -245
c0 -114 51 -177 120 -177c30 0 46 9 54 50l11 57c11 54 5 58 -71 64l8 33h253z" />
    <glyph glyph-name="h.sc" unicode="&#xf768;" horiz-adv-x="650" 
d="M661 475l-6 -33c-56 -5 -63 -11 -74 -68l-53 -274c-11 -56 -5 -61 56 -66l-6 -34h-251l6 34c47 3 57 9 68 66l25 127h-186l-24 -127c-11 -57 -5 -62 49 -66l-7 -34h-252l8 34c54 4 64 9 75 66l54 274c11 57 6 63 -58 68l8 33h252l-8 -33c-47 -5 -57 -8 -68 -68l-19 -100
h185l19 100c11 59 5 63 -52 68l7 33h252z" />
    <glyph glyph-name="i.sc" unicode="&#xf769;" horiz-adv-x="338" 
d="M353 475l-9 -33c-55 -4 -63 -9 -74 -68l-53 -274c-11 -55 -3 -61 58 -66l-9 -34h-260l8 34c58 4 64 9 76 66l54 274c11 59 3 64 -58 68l7 33h260z" />
    <glyph glyph-name="j.sc" unicode="&#xf76a;" horiz-adv-x="342" 
d="M354 475l-8 -33c-57 -5 -64 -10 -75 -69l-52 -284c-18 -100 -55 -155 -109 -185c-38 -23 -88 -33 -115 -33l-7 36c45 9 66 32 81 85c14 50 21 89 34 157l42 224c11 60 5 64 -63 69l8 33h264z" />
    <glyph glyph-name="k.sc" unicode="&#xf76b;" horiz-adv-x="589" 
d="M613 475l-8 -33c-50 -4 -81 -14 -111 -37c-37 -28 -90 -76 -127 -112c40 -83 81 -165 109 -211c23 -37 42 -45 77 -48l-8 -34h-182c-14 34 -65 150 -88 198c-11 22 -23 27 -39 27l-23 -121c-11 -59 -7 -66 55 -70l-7 -34h-252l7 34c53 2 62 10 74 70l51 270
c11 57 6 64 -53 68l7 33h246l-7 -33c-54 -5 -58 -11 -70 -68l-23 -119c14 2 32 9 52 23c50 37 101 93 128 125c19 21 19 32 -12 36l-18 3l8 33h214z" />
    <glyph glyph-name="l.sc" unicode="&#xf76c;" horiz-adv-x="486" 
d="M427 150l33 -11c-9 -27 -42 -113 -54 -139h-405l6 34c62 4 70 10 83 81l46 245c14 72 9 78 -52 82l8 33h260l-7 -33c-60 -5 -68 -10 -82 -82l-46 -249c-6 -34 -4 -54 10 -62c13 -8 32 -10 63 -10c33 0 58 8 79 28c16 17 36 43 58 83z" />
    <glyph glyph-name="m.sc" unicode="&#xf76d;" horiz-adv-x="736" 
d="M731 475l-8 -33c-62 -7 -66 -10 -75 -83l-32 -256c-7 -59 -1 -63 64 -69l-8 -34h-265l6 34c60 6 68 8 78 69l51 297h-3l-229 -392h-30l-75 380h-2l-50 -200c-17 -66 -21 -85 -24 -109c-6 -31 8 -40 66 -45l-8 -34h-200l8 34c43 5 63 14 74 40c11 23 21 56 42 129l42 142
c24 82 18 90 -53 97l10 33h190l71 -277l172 277h188z" />
    <glyph glyph-name="n.sc" unicode="&#xf76e;" horiz-adv-x="589" 
d="M628 475l-7 -33c-45 -2 -66 -14 -76 -45c-8 -28 -17 -61 -28 -119l-55 -287h-47l-232 365h-2l-32 -159c-10 -53 -15 -89 -16 -113c-3 -37 17 -48 70 -50l-7 -34h-201l8 34c41 1 62 16 72 50c7 22 16 54 29 115l31 147c17 79 7 89 -66 96l8 33h172l201 -304h3l21 107
c9 50 15 90 17 118c2 32 -17 43 -74 46l7 33h204z" />
    <glyph glyph-name="o.sc" unicode="&#xf76f;" horiz-adv-x="606" 
d="M341 487c130 0 235 -76 235 -226c0 -156 -128 -273 -291 -273c-134 0 -237 76 -237 221c0 157 130 278 293 278zM342 447c-94 0 -151 -141 -151 -269c0 -80 29 -150 96 -150c95 0 150 153 150 267c0 95 -34 152 -95 152z" />
    <glyph glyph-name="p.sc" unicode="&#xf770;" horiz-adv-x="537" 
d="M97 475h231c57 0 106 -7 141 -28c34 -20 56 -56 56 -108c0 -93 -80 -158 -207 -165c-10 -1 -25 1 -43 4l-43 12l-17 -90c-11 -54 -6 -60 67 -66l-8 -34h-267l7 34c58 5 63 11 74 66l56 275c10 56 5 62 -56 67zM271 401l-32 -175c13 -5 24 -9 44 -9c63 0 110 54 110 128
c0 71 -39 93 -79 93c-30 0 -38 -6 -43 -37z" />
    <glyph glyph-name="q.sc" unicode="&#xf771;" horiz-adv-x="607" 
d="M559 -106l-8 -24c-55 -10 -117 0 -138 6c-32 9 -85 34 -178 119c-113 19 -186 93 -186 217c0 151 124 275 291 275c138 0 238 -81 238 -227c0 -133 -91 -222 -189 -255c33 -24 61 -46 90 -64c28 -18 52 -34 80 -47zM340 447c-92 0 -150 -148 -150 -260
c0 -71 25 -137 65 -154l70 25c7 -7 14 -13 22 -19c49 30 92 140 92 246c0 81 -26 162 -99 162z" />
    <glyph glyph-name="r.sc" unicode="&#xf772;" horiz-adv-x="569" 
d="M531 23l-7 -29h-26c-111 0 -140 24 -163 67c-17 32 -36 79 -46 104c-13 32 -22 38 -48 38h-10l-19 -102c-10 -55 -3 -63 57 -67l-7 -34h-256l7 34c57 4 64 12 75 67l52 265c13 65 7 71 -55 76l8 33h245c47 0 89 -5 123 -22c33 -17 56 -48 56 -94
c0 -75 -61 -114 -122 -131c12 -30 37 -83 56 -117c16 -31 27 -46 39 -60c11 -13 28 -23 41 -28zM238 240h21c31 0 54 4 79 18c31 17 49 49 49 90c0 66 -34 90 -75 90c-28 0 -38 -9 -44 -40z" />
    <glyph glyph-name="s.sc" unicode="&#xf773;" horiz-adv-x="438" 
d="M31 166l34 6c14 -54 60 -145 137 -145c41 0 71 23 71 67c0 42 -34 67 -80 96c-55 32 -108 73 -108 144c0 91 71 153 190 153c53 0 98 -17 133 -35c-3 -30 -7 -65 -10 -123l-35 -4c-9 84 -44 124 -99 124c-46 0 -71 -35 -71 -69c0 -35 34 -60 84 -89
c63 -34 116 -74 116 -150c0 -106 -102 -153 -204 -153c-68 0 -132 31 -146 46c-8 27 -11 84 -12 132z" />
    <glyph glyph-name="t.sc" unicode="&#xf774;" horiz-adv-x="545" 
d="M533 493h24c-7 -36 -17 -115 -23 -157l-36 -2c-1 44 -6 67 -16 81c-11 14 -31 19 -64 19h-34l-60 -322c-12 -66 -7 -74 62 -78l-7 -34h-276l7 34c66 4 74 12 87 78l61 322h-29c-48 0 -67 -9 -81 -23s-28 -42 -45 -77h-36c17 64 34 121 42 159h22c8 -16 17 -18 43 -18h315
c25 0 31 4 44 18z" />
    <glyph glyph-name="u.sc" unicode="&#xf775;" horiz-adv-x="588" 
d="M626 475l-8 -33c-43 -2 -61 -13 -69 -44c-8 -28 -16 -54 -31 -123l-14 -66c-14 -60 -39 -131 -90 -173c-36 -29 -89 -48 -138 -48c-54 0 -103 11 -138 40c-38 32 -61 83 -39 191l29 146c14 66 8 72 -55 77l8 33h257l-8 -33c-56 -5 -61 -11 -74 -77l-31 -152
c-23 -116 16 -164 92 -164c74 0 122 64 147 184l9 43c11 58 15 93 16 117c2 35 -12 46 -68 49l8 33h197z" />
    <glyph glyph-name="v.sc" unicode="&#xf776;" horiz-adv-x="595" 
d="M626 475l-8 -34c-51 -5 -66 -14 -106 -72c-45 -64 -144 -228 -235 -377h-40c-31 130 -62 256 -95 394c-11 45 -24 51 -69 55l8 34h245l-7 -34l-24 -3c-28 -3 -33 -10 -25 -46c18 -84 38 -162 57 -246c38 62 106 180 131 229c26 52 19 58 -13 63l-19 3l7 34h193z" />
    <glyph glyph-name="w.sc" unicode="&#xf777;" horiz-adv-x="799" 
d="M824 475l-8 -34c-47 -5 -58 -11 -86 -61c-75 -127 -142 -258 -212 -388h-37l-71 292h-2l-171 -292h-36l-57 378c-9 59 -16 67 -67 72l8 33h240l-7 -34l-21 -3c-28 -4 -35 -11 -31 -46l29 -228h2l160 299h37l70 -303h2c43 79 79 152 107 217c23 51 13 58 -15 62l-26 2
l7 34h185z" />
    <glyph glyph-name="x.sc" unicode="&#xf778;" horiz-adv-x="581" 
d="M589 475l-8 -33c-62 -8 -79 -15 -123 -55c-25 -23 -57 -58 -106 -110c31 -59 58 -110 88 -167c32 -61 47 -70 99 -76l-7 -34h-262l7 34l24 4c23 5 29 15 11 49l-49 100c0 -1 -2 0 -2 -2c-33 -35 -56 -63 -83 -99c-22 -29 -21 -43 9 -48l24 -4l-8 -34h-208l10 34
c53 7 76 18 119 63c36 37 76 77 118 125c-26 52 -49 100 -77 152c-27 55 -36 61 -88 68l7 33h246l-8 -33l-23 -4c-20 -4 -25 -12 -12 -36l45 -92l2 -1c28 31 54 63 79 97c15 21 13 29 -13 33l-20 3l8 33h201z" />
    <glyph glyph-name="y.sc" unicode="&#xf779;" horiz-adv-x="551" 
d="M583 475l-8 -34c-47 -5 -65 -11 -105 -58c-29 -35 -67 -80 -115 -148c-10 -14 -15 -24 -18 -45l-15 -80c-11 -63 -6 -70 64 -76l-6 -34h-278l8 34c68 6 73 15 85 76l14 77c5 21 2 31 -5 50c-20 51 -40 98 -61 146c-20 46 -27 53 -74 58l9 34h243l-8 -34l-26 -3
c-24 -3 -26 -12 -16 -41c18 -48 34 -91 53 -140c38 51 70 99 100 146c15 26 8 32 -16 35l-26 3l8 34h193z" />
    <glyph glyph-name="z.sc" unicode="&#xf77a;" horiz-adv-x="533" 
d="M535 459l-351 -415c17 -1 38 -3 86 -3c58 0 102 5 130 27c23 17 47 54 66 92l36 -8c-15 -47 -43 -127 -56 -152h-440l-6 16l355 417h-62c-79 0 -98 -8 -117 -26c-15 -14 -31 -40 -48 -81h-36c21 73 32 127 41 167h23c8 -16 16 -18 40 -18h333z" />
    <glyph glyph-name="dcroat.sc" unicode="&#xf676;" horiz-adv-x="642" 
d="M115 475h230c75 0 140 -11 189 -43c48 -31 81 -88 81 -164c0 -97 -52 -173 -138 -220c-64 -36 -146 -48 -231 -48h-219l8 34c58 4 66 14 78 75l21 116h-73l10 45h72l19 96c13 64 3 71 -55 76zM262 225l-20 -108c-10 -59 7 -77 49 -77c104 0 183 104 183 242
c0 91 -37 155 -129 155c-18 0 -30 -4 -36 -9c-6 -4 -11 -17 -16 -42l-22 -116h104l-10 -45h-103z" />
    <glyph glyph-name="hbar.sc" unicode="&#xf681;" horiz-adv-x="650" 
d="M661 475l-5 -32c-55 -5 -62 -7 -73 -58c0 -4 -1 -9 -2 -13h70l-12 -39h-66l-45 -233c-11 -56 -5 -62 57 -66l-6 -34h-252l7 34c47 3 56 8 67 66l23 118h-185l-22 -118c-11 -57 -6 -62 48 -66l-6 -34h-252l7 34c55 3 64 9 76 66l46 233h-71l12 39h67c0 4 1 9 2 13
c9 51 1 53 -60 58l7 32h252l-8 -32c-45 -5 -55 -5 -66 -58c0 -4 -1 -9 -2 -13h185c0 5 2 9 2 13c9 54 0 53 -53 58l7 32h251zM446 333h-185l-13 -68h186z" />
    <glyph glyph-name="dotlessi.sc" unicode="&#xe108;" horiz-adv-x="338" 
d="M353 475l-9 -33c-56 -4 -63 -9 -75 -68l-53 -274c-10 -55 -2 -61 58 -66l-8 -34h-260l8 34c57 4 64 9 75 66l55 274c12 59 3 64 -58 68l7 33h260z" />
    <glyph glyph-name="oslash.sc" unicode="&#xf7f8;" horiz-adv-x="607" 
d="M535 516l26 -24l-54 -62c45 -40 71 -97 71 -166c0 -161 -129 -276 -292 -276c-51 0 -98 11 -140 35l-57 -64l-25 27l52 58c-43 40 -67 94 -67 162c0 156 128 281 296 281c46 0 92 -11 133 -36zM190 125l232 266c-14 37 -43 57 -75 57c-101 0 -164 -145 -164 -264
c0 -22 2 -41 7 -59zM438 353l-234 -268c15 -36 38 -58 77 -58c104 0 164 160 164 268c0 22 -2 40 -7 58z" />
    <glyph glyph-name="tbar.sc" unicode="&#xf69c;" horiz-adv-x="545" 
d="M533 493h23c-7 -36 -17 -115 -23 -157l-35 -2c-1 44 -7 68 -17 82c-11 14 -30 19 -62 19h-36l-32 -173h104l-12 -41h-100l-20 -108c-12 -66 -5 -75 64 -79l-7 -34h-278l7 34c65 4 74 13 87 79l21 108h-93l11 41h89l34 173h-30c-48 0 -66 -10 -80 -23
c-15 -14 -29 -43 -46 -78h-36c17 64 34 121 42 159h21c9 -16 18 -18 43 -18h317c25 0 31 4 44 18z" />
    <glyph glyph-name="eng.sc" unicode="&#xf67b;" horiz-adv-x="584" 
d="M622 475l-7 -33c-45 -2 -65 -14 -75 -46c-8 -27 -18 -60 -29 -117l-45 -235c-16 -82 -28 -136 -58 -184c-26 -42 -64 -66 -99 -66c-31 0 -51 19 -51 40c0 26 24 57 37 57c14 0 20 -13 43 -13c32 0 58 51 71 115l-227 363h-2l-29 -159c-10 -53 -15 -89 -16 -114
c-3 -36 16 -47 70 -49l-8 -34h-202l8 34c43 1 64 16 74 50c7 21 17 52 29 113l29 145c16 81 5 95 -66 100l8 33h171l196 -303h3l21 107c12 57 14 89 16 117c2 32 -20 43 -77 46l7 33h208z" />
    <glyph glyph-name="eth.sc" unicode="&#xf7f0;" horiz-adv-x="642" 
d="M115 475h230c75 0 140 -11 189 -43c48 -31 81 -88 81 -164c0 -97 -52 -173 -138 -220c-64 -36 -146 -48 -231 -48h-219l8 34c58 4 66 14 78 75l21 116h-73l10 45h72l19 96c13 64 3 71 -55 76zM262 225l-20 -108c-10 -59 7 -77 49 -77c104 0 183 104 183 242
c0 91 -37 155 -129 155c-18 0 -30 -4 -36 -9c-6 -4 -11 -17 -16 -42l-22 -116h104l-10 -45h-103z" />
    <glyph glyph-name="thorn.sc" unicode="&#xf7fe;" horiz-adv-x="532" 
d="M265 375h73c101 0 170 -31 170 -121c0 -92 -88 -146 -203 -150c-14 -1 -26 0 -43 4l-44 12l-4 -17c-13 -64 -3 -64 63 -69l-8 -34h-260l8 34c55 5 61 10 74 77l50 258c13 68 3 67 -57 73l8 33h250l-7 -34c-53 -4 -60 -4 -70 -66zM249 296l-25 -139c12 -5 28 -9 47 -9
c60 0 104 47 104 110c0 59 -39 80 -78 80c-30 0 -42 -10 -48 -42z" />
    <glyph glyph-name="uni021D.sc" unicode="&#xe309;" horiz-adv-x="444" 
d="M107 163l-7 34c119 41 182 100 182 174c0 43 -25 72 -62 72c-44 0 -78 -41 -112 -116l-34 10c15 47 25 85 33 120c55 14 93 30 154 30c87 0 145 -39 145 -104c0 -55 -50 -100 -116 -134v-3c62 -21 109 -68 109 -136c0 -115 -143 -230 -364 -250l-49 42l12 20
c19 -4 46 -10 87 -10c103 0 179 67 179 166c0 66 -39 100 -84 100c-18 0 -37 -4 -73 -15z" />
    <glyph glyph-name="germandbls.sc" unicode="&#xe11e;" horiz-adv-x="876" 
d="M31 166l34 6c14 -54 60 -145 137 -145c41 0 71 23 71 67c0 42 -34 67 -80 96c-55 32 -108 73 -108 144c0 91 71 153 190 153c53 0 98 -17 133 -35c-3 -30 -7 -65 -10 -123l-35 -4c-9 84 -44 124 -99 124c-46 0 -71 -35 -71 -69c0 -35 34 -60 84 -89
c63 -34 116 -74 116 -150c0 -106 -102 -153 -204 -153c-68 0 -132 31 -146 46c-8 27 -11 84 -12 132zM469 166l33 6c15 -54 61 -145 138 -145c41 0 71 23 71 67c0 42 -34 67 -80 96c-55 32 -108 73 -108 144c0 91 71 153 191 153c53 0 98 -17 132 -35
c-3 -29 -7 -65 -10 -123l-35 -5c-9 85 -44 124 -99 124c-46 0 -71 -35 -71 -68c0 -36 34 -60 85 -89c62 -34 115 -74 115 -150c0 -106 -102 -153 -204 -153c-68 0 -132 31 -147 46c-8 27 -11 84 -11 132z" />
    <glyph glyph-name="ae.sc" unicode="&#xf7e6;" horiz-adv-x="764" 
d="M725 348l-33 -2c-3 23 -8 44 -17 63c-8 18 -23 26 -67 26h-48c-26 -2 -27 -2 -32 -26l-30 -162h61c55 0 60 3 80 50h33l-30 -149h-33c0 51 -6 56 -60 56h-60l-16 -87c-7 -41 -4 -60 9 -67c12 -8 35 -10 70 -10c37 0 62 5 85 25c17 16 36 40 54 72l32 -12
c-12 -35 -42 -111 -52 -125h-412l7 35c63 4 70 8 83 79l18 91h-137c-26 -36 -56 -83 -82 -123c-19 -29 -12 -38 16 -43l25 -4l-7 -35h-200l7 34c39 4 63 12 103 61c31 38 64 81 140 185l90 124c19 26 16 32 -21 36l-50 4l7 31h483c-3 -21 -9 -74 -16 -127zM259 247h117
l37 189c-7 -1 -15 -4 -25 -9c-33 -44 -81 -114 -129 -180z" />
    <glyph glyph-name="oe.sc" unicode="&#xf6fa;" horiz-adv-x="820" 
d="M728 0h-281c-24 0 -46 -1 -74 -5c-26 -2 -49 -4 -81 -4c-136 0 -242 77 -242 220c0 163 135 272 339 272c63 0 100 -8 138 -8h269c-3 -20 -9 -74 -16 -127l-34 -2c-3 23 -6 44 -15 63c-8 18 -22 26 -66 26h-49c-27 -2 -27 -2 -31 -26l-27 -140h59c55 0 60 5 81 52h33
l-31 -153h-32c1 51 -6 56 -61 56h-58l-21 -109c-8 -40 -4 -57 9 -64c13 -8 36 -11 71 -11c38 0 62 5 85 26c17 15 37 39 54 71l32 -12c-12 -35 -41 -111 -51 -125zM403 117l51 262c6 32 5 44 -4 51c-10 8 -27 14 -57 14c-133 0 -201 -132 -201 -246c0 -94 46 -168 124 -168
c21 0 42 4 57 13c13 7 23 37 30 74z" />
    <glyph glyph-name="i.dot" horiz-adv-x="295" 
d="M231 652c38 0 57 -28 57 -60c0 -40 -33 -77 -76 -77c-36 0 -57 23 -56 61c0 32 25 76 75 76zM257 123l17 -25c-71 -78 -145 -110 -175 -110s-52 20 -31 108l52 223c6 25 7 35 0 35c-9 0 -37 -17 -60 -34l-15 27c73 67 146 106 182 106c30 0 35 -39 20 -99l-57 -231
c-7 -29 -4 -39 3 -39c9 0 35 14 64 39z" />
    <glyph glyph-name="uni25B6" unicode="&#x25b6;" horiz-adv-x="606" 
d="M75 24c0 0 2 465 1 465h1l486 -230v-2l-486 -235z" />
    <glyph glyph-name="ij.sc" unicode="&#xf684;" horiz-adv-x="686" 
d="M353 475l-9 -33c-55 -4 -63 -9 -74 -68l-53 -274c-11 -55 -3 -61 58 -66l-9 -34h-260l8 34c58 4 64 9 76 66l54 274c11 59 3 64 -58 68l7 33h260zM693 475l-8 -33c-57 -5 -64 -10 -75 -69l-52 -284c-18 -100 -56 -154 -109 -185c-38 -23 -88 -33 -116 -33l-6 36
c45 10 66 32 80 85c14 50 22 89 35 157l42 224c11 60 4 64 -63 69l8 33h264z" />
    <glyph glyph-name="ampersand.sc" unicode="&#xf726;" horiz-adv-x="742" 
d="M337 373c23 22 50 54 68 89c14 29 17 65 15 92c0 11 -2 19 -2 25c-2 20 18 39 39 39c23 0 47 -17 47 -57c0 -58 -39 -121 -127 -203c-67 -62 -147 -118 -205 -157c21 -77 83 -119 150 -119c99 0 184 88 223 208c-30 21 -58 37 -77 37c-15 0 -27 -12 -28 -26
c0 -12 9 -29 16 -37c4 -6 6 -14 7 -19c0 -14 -25 -36 -46 -36c-18 0 -42 21 -42 52c0 38 28 71 61 97c26 21 69 40 91 40c49 0 104 -42 126 -56c13 -8 16 -9 23 -9c6 0 11 13 15 73h36c3 -22 5 -41 5 -71c0 -73 -29 -117 -53 -117c-10 0 -29 6 -47 17c-18 12 -39 24 -51 33
c-24 -69 -45 -124 -90 -175c-48 -57 -125 -105 -221 -105c-126 0 -217 79 -217 215c0 65 25 131 77 185c46 46 101 73 138 73c40 0 69 -34 68 -77c0 -3 0 -6 1 -11zM225 411c-32 0 -63 -56 -63 -141c0 -9 0 -17 2 -30c18 11 74 50 84 64c4 18 5 30 5 54c0 32 -14 53 -28 53z
" />
    <glyph glyph-name="exclam.sc" unicode="&#xf721;" horiz-adv-x="279" 
d="M270 440l-110 -249h-37l-13 248c-3 63 23 88 97 88h1c72 0 90 -24 62 -87zM116 -12c-36 0 -64 29 -64 68c0 47 32 79 76 79c38 0 64 -28 64 -68c0 -50 -37 -79 -76 -79z" />
    <glyph glyph-name="exclamdown.sc" unicode="&#xf7a1;" horiz-adv-x="279" 
d="M194 527c37 0 64 -29 64 -69c0 -46 -31 -79 -76 -79c-37 0 -63 28 -63 67c0 52 36 81 75 81zM103 -12c-74 0 -92 24 -64 87l110 257h38l14 -256c3 -63 -24 -88 -98 -88z" />
    <glyph glyph-name="question.sc" unicode="&#xf73f;" horiz-adv-x="396" 
d="M218 188l-29 -16c-34 15 -79 48 -80 97c0 47 43 77 110 101c77 29 106 48 106 65c0 19 -14 30 -30 30c-56 0 -92 -74 -131 -76c-34 0 -58 33 -58 58c0 19 12 36 35 51c27 18 72 29 99 29h1c69 0 147 -52 147 -141c0 -71 -51 -97 -115 -121c-38 -15 -61 -30 -61 -48
c0 -10 3 -20 6 -29zM156 -12c-37 0 -64 29 -64 69c0 46 32 78 75 78c38 0 64 -28 64 -69c0 -49 -36 -78 -75 -78z" />
    <glyph glyph-name="questiondown.sc" unicode="&#xf7bf;" horiz-adv-x="396" 
d="M277 523c37 0 64 -28 64 -68c0 -46 -31 -79 -75 -79c-38 0 -64 28 -64 69c0 49 36 78 75 78zM215 327l29 16c34 -14 79 -48 80 -97c0 -46 -43 -77 -110 -101c-77 -29 -106 -48 -106 -65c0 -19 14 -30 30 -30c56 0 92 74 131 76c34 0 58 -33 58 -58c0 -19 -12 -35 -35 -51
c-27 -18 -72 -29 -99 -29h-1c-69 0 -147 52 -147 141c0 71 51 97 115 121c38 15 61 30 61 48c0 11 -3 21 -6 29z" />
    <glyph glyph-name="A.swash" unicode="&#xe001;" horiz-adv-x="825" 
d="M620 606v2c-29 0 -56 -1 -73 -1c-102 0 -181 -25 -227 -63c-45 -37 -67 -83 -69 -138c-1 -17 0 -34 1 -48c0 -11 -10 -13 -21 -7c-32 18 -52 60 -52 96c2 119 126 202 338 202c33 0 61 0 94 -1c27 -1 52 0 74 0c32 13 75 25 112 31l10 -3c-22 -47 -53 -204 -80 -369
c-18 -102 -27 -166 -32 -205c-4 -39 3 -48 39 -52l38 -5l-13 -34c-100 -10 -192 -21 -246 -29l6 32c22 9 31 20 38 53c10 45 29 137 41 190c-36 -8 -95 -11 -151 -11c-44 -77 -85 -144 -131 -198c-85 -98 -159 -126 -220 -126c-35 0 -55 11 -70 25c-21 19 -33 76 -33 101
l12 9c22 -22 56 -46 114 -46c124 0 201 97 304 307c49 100 95 198 138 246c20 24 39 32 59 42zM680 603h-2c-80 -51 -146 -181 -205 -302h131l21 89c18 73 34 153 55 213z" />
    <glyph glyph-name="B.swash" unicode="&#xe017;" horiz-adv-x="836" 
d="M328 153l108 469c-170 -11 -269 -107 -269 -254c0 -26 3 -54 7 -73c2 -9 0 -15 -12 -14c-33 8 -89 45 -90 125c0 48 22 107 83 158c57 47 167 100 366 100c111 0 187 -15 228 -41c38 -24 62 -61 62 -105c0 -88 -59 -135 -174 -157v-3c115 -22 158 -81 158 -155
s-48 -127 -109 -158c-64 -33 -147 -45 -236 -45h-238l8 34c76 6 86 21 108 119zM558 622l-53 -251c104 6 172 37 172 133c0 83 -52 116 -119 118zM497 337l-45 -220c-14 -67 6 -76 44 -76c83 0 160 63 160 170c0 97 -61 127 -159 126z" />
    <glyph glyph-name="C.swash" unicode="&#xe019;" horiz-adv-x="562" 
d="M513 115l18 -32c-70 -85 -159 -133 -255 -133c-155 0 -221 118 -221 256c0 146 71 298 195 384c80 56 153 74 216 74c85 0 135 -42 135 -95c0 -27 -22 -68 -38 -87l-31 -1c-8 92 -61 131 -121 131c-131 -1 -218 -181 -218 -370c0 -148 61 -206 136 -206
c74 0 135 35 184 79z" />
    <glyph glyph-name="D.swash" unicode="&#xe025;" horiz-adv-x="938" 
d="M337 148l107 471c-176 -10 -274 -110 -275 -264c-1 -26 2 -48 6 -65c1 -7 1 -14 -10 -13c-38 8 -92 51 -92 117c0 48 19 103 83 159c68 61 183 111 392 111c130 0 228 -28 291 -79c59 -49 87 -125 87 -204c0 -131 -61 -235 -173 -307c-81 -52 -190 -74 -298 -74h-237
l8 34c75 6 89 20 111 114zM569 619l-107 -497c-10 -44 -8 -63 6 -69c14 -7 26 -9 44 -9c155 0 271 140 271 343c0 166 -103 225 -214 232z" />
    <glyph glyph-name="E.swash" unicode="&#xe02b;" horiz-adv-x="526" 
d="M491 148l23 -28c-84 -109 -191 -135 -268 -135c-113 0 -206 66 -207 176c0 92 68 148 181 181c-54 26 -73 74 -73 119c0 106 117 203 256 203c81 0 129 -34 129 -82c1 -25 -16 -67 -33 -88h-27c-6 88 -54 123 -115 123c-64 0 -97 -55 -97 -111c0 -80 56 -111 120 -111
c18 0 33 0 50 2l3 -15l-53 -62c-17 3 -35 5 -61 5c-99 0 -146 -57 -146 -123c0 -83 58 -131 144 -131c55 0 122 27 174 77z" />
    <glyph glyph-name="F.swash" unicode="&#xe045;" horiz-adv-x="726" 
d="M770 699l33 -9c-10 -42 -24 -70 -38 -82s-28 -16 -45 -16c-22 0 -52 1 -90 3c-45 3 -74 4 -90 5l-53 -253h20c80 0 178 8 216 10l5 -16l-54 -53c-39 0 -133 8 -183 8h-15l-30 -143c-20 -98 -13 -113 77 -119l-9 -34h-315l9 34c75 6 84 20 106 119l102 455
c-147 5 -242 -42 -245 -188c0 -19 2 -38 3 -50c1 -8 -2 -15 -14 -12c-37 13 -76 51 -76 106c0 37 17 78 55 113c47 43 134 77 291 77c54 0 92 -2 147 -3c59 -1 89 -1 116 -1c41 1 56 8 77 49z" />
    <glyph glyph-name="G.swash" unicode="&#xe047;" horiz-adv-x="679" 
d="M669 330l-38 -45c-8 -31 -21 -75 -42 -168c-38 -162 -97 -256 -194 -332c-43 -33 -83 -57 -115 -57c-39 0 -71 43 -74 96c2 9 8 14 14 15c22 -10 70 -25 111 -25c37 0 64 11 87 75c15 44 29 94 42 160l-3 1c-61 -48 -122 -67 -185 -67c-118 0 -205 93 -205 241
c0 139 58 244 139 320c77 73 182 120 289 120c99 0 157 -47 156 -100c-1 -34 -25 -71 -40 -92l-30 -2c-5 70 -46 140 -152 139c-132 -1 -224 -144 -224 -341c0 -148 67 -209 138 -209c38 0 81 10 124 40c16 76 27 143 34 178l-159 10l-3 10l41 34l287 10z" />
    <glyph glyph-name="H.swash" unicode="&#xe051;" horiz-adv-x="895" 
d="M479 362h197c34 164 80 246 150 317c58 58 92 73 115 73c16 0 30 -13 30 -30c0 -14 -9 -42 -25 -59c-7 -6 -13 -6 -21 -2c-14 6 -31 10 -41 10c-9 0 -16 -6 -22 -24c-28 -77 -54 -206 -75 -330c-14 -86 -27 -164 -33 -203c-7 -48 -1 -56 32 -61l47 -7l-11 -34
c-85 -5 -187 -21 -249 -30l8 34c20 9 29 22 38 62c10 45 22 111 49 239c-33 -11 -69 -15 -201 -16c-45 -201 -123 -292 -235 -361c-51 -32 -93 -42 -121 -42c-24 0 -45 16 -56 33c-13 17 -23 54 -26 83l14 13c38 -28 101 -47 136 -47c29 0 55 9 74 38c27 38 54 133 88 295
c29 142 53 253 73 289c-148 -2 -236 -88 -236 -226c0 -31 2 -55 5 -73c2 -9 0 -16 -12 -14c-34 6 -91 47 -90 121c1 68 41 131 110 174c63 39 157 61 246 63c20 12 76 33 105 37l6 -7c-16 -49 -49 -214 -69 -315z" />
    <glyph glyph-name="I.swash" unicode="&#xe057;" horiz-adv-x="507" 
d="M537 653l-7 -31c-41 -8 -46 -12 -52 -45l-90 -435c-18 -90 -14 -102 69 -108l-6 -34h-305l7 34c74 6 85 18 104 108l104 470c-122 -5 -194 -101 -193 -210c0 -19 1 -34 3 -46c0 -8 -3 -11 -10 -10c-33 4 -81 40 -81 97c0 50 23 99 85 146c57 44 151 69 283 69
c44 0 70 -2 89 -5z" />
    <glyph glyph-name="J.swash" unicode="&#xe06d;" horiz-adv-x="516" 
d="M544 654l-7 -30c-34 -8 -39 -10 -47 -48l-81 -403c-37 -184 -117 -277 -205 -331c-45 -28 -92 -43 -137 -43c-39 0 -63 19 -75 44c-11 24 -18 58 -18 82c1 13 10 11 13 13c37 -33 105 -69 158 -69c28 0 47 8 64 40c15 31 32 80 70 268l87 434
c-121 -5 -192 -105 -191 -221c0 -18 1 -33 2 -45c0 -7 -3 -10 -12 -8c-37 8 -79 42 -79 101c0 46 21 95 78 142c61 49 155 78 294 78c30 0 66 -1 86 -4z" />
    <glyph glyph-name="K.swash" unicode="&#xe072;" horiz-adv-x="908" 
d="M600 655l-8 -32c-42 -6 -48 -12 -55 -45l-52 -252l2 1c14 8 30 21 58 47c38 36 94 112 164 195c66 78 102 95 142 95c34 0 54 -23 54 -50c0 -24 -16 -50 -39 -59c-10 -4 -21 -4 -28 5c-7 8 -15 11 -30 11c-30 0 -60 -28 -99 -70c-42 -44 -77 -89 -91 -107
c47 -112 80 -182 121 -248c40 -65 75 -105 128 -108c6 -1 11 0 17 0l-3 -31c-25 -12 -69 -21 -112 -21c-77 0 -117 46 -155 119c-31 58 -57 115 -86 183c-5 10 -11 16 -15 15c-8 -3 -26 -12 -39 -24l-26 -129c-19 -100 -14 -108 66 -116l-7 -34h-300l7 34
c76 6 86 20 107 119l103 460c-144 0 -250 -76 -250 -230c0 -16 0 -35 2 -53c1 -7 -3 -10 -12 -9c-45 7 -86 47 -86 102c0 53 26 104 81 149c60 50 174 86 344 86c49 0 79 -1 97 -3z" />
    <glyph glyph-name="L.swash" unicode="&#xe076;" horiz-adv-x="776" 
d="M726 188l32 -17c-19 -51 -41 -96 -66 -132c-34 -46 -72 -62 -115 -62c-50 0 -117 5 -224 15c-86 8 -174 13 -194 15l-3 7c6 14 49 46 87 59c14 1 26 2 36 2c51 90 76 212 97 319l43 219c-151 0 -245 -106 -245 -241c0 -22 2 -39 3 -54c1 -7 0 -14 -11 -12
c-53 7 -88 53 -88 102c0 59 30 123 113 177c69 46 170 73 310 73c43 0 77 -1 102 -3l-6 -31c-43 -7 -47 -14 -53 -44l-41 -200c-25 -118 -66 -228 -146 -308v-2c48 -3 153 -7 202 -7c74 0 117 36 167 125z" />
    <glyph glyph-name="M.swash" unicode="&#xe081;" horiz-adv-x="1044" 
d="M990 45l-14 -34c-100 -7 -178 -17 -266 -29l5 33c26 12 34 22 43 56c8 28 15 60 34 141c21 86 49 204 75 311h-2c-105 -140 -231 -375 -320 -527l-33 -7c-9 146 -29 368 -41 562h-2c-86 -362 -139 -461 -185 -525c-59 -81 -132 -111 -186 -111c-24 0 -46 7 -59 20
c-20 18 -46 74 -47 108c5 4 8 7 12 10c23 -19 60 -37 108 -37c59 0 120 35 177 138c45 80 106 253 152 452c-123 2 -248 -59 -253 -231c0 -20 2 -40 3 -55c0 -8 -3 -13 -14 -11c-34 7 -81 38 -81 107c1 50 22 98 71 142c55 50 155 87 295 91c28 15 67 31 101 40h13
c7 -115 39 -355 48 -443h2c81 132 249 376 376 471c41 30 71 44 95 44c33 0 54 -43 55 -72c0 -7 -1 -9 -11 -9c-122 12 -134 -2 -147 -59c-17 -75 -39 -201 -65 -343c-11 -66 -20 -121 -27 -164c-6 -45 -1 -54 43 -62z" />
    <glyph glyph-name="N.swash" unicode="&#xe083;" horiz-adv-x="888" 
d="M957 656l-8 -32c-49 -9 -76 -22 -91 -74c-9 -33 -19 -60 -38 -165l-76 -400h-31c-65 152 -176 370 -256 472h-4c-38 -245 -77 -362 -141 -435c-45 -51 -100 -77 -153 -77c-33 0 -58 10 -72 26c-20 20 -36 66 -36 96c4 2 8 5 11 7c27 -18 63 -29 97 -29
c47 0 107 25 156 110c56 99 90 246 103 347c-43 59 -97 104 -153 104c-50 0 -97 -41 -97 -167c0 -18 2 -32 3 -43c1 -6 -3 -11 -10 -10c-30 3 -68 41 -68 86c0 41 21 82 62 118c53 48 117 74 182 74c106 0 183 -63 267 -197c67 -107 100 -178 135 -254h2l30 175
c15 87 24 132 26 166c2 44 -16 58 -87 58l9 32z" />
    <glyph glyph-name="O.swash" unicode="&#xe08d;" horiz-adv-x="673" 
d="M424 664c132 0 239 -103 239 -279c0 -227 -154 -400 -358 -400c-138 0 -241 111 -241 276c0 220 163 403 360 403zM415 623c-107 0 -205 -182 -205 -396c0 -131 44 -201 112 -201c109 0 197 190 197 397c0 118 -28 200 -104 200z" />
    <glyph glyph-name="P.swash" unicode="&#xe0a4;" horiz-adv-x="809" 
d="M345 155l103 467c-117 -3 -265 -77 -265 -261c0 -25 2 -45 4 -59c3 -10 -1 -14 -11 -14c-51 2 -98 47 -98 111c0 46 17 98 76 152c68 60 183 113 367 113c232 0 300 -82 300 -187c0 -133 -124 -204 -261 -212l-5 31c49 13 131 55 131 184c0 85 -32 125 -112 137l-97 -462
c-21 -104 -15 -115 78 -121l-8 -34h-315l7 34c75 6 84 18 106 121z" />
    <glyph glyph-name="Q.swash" unicode="&#xe0a6;" horiz-adv-x="666" 
d="M784 -103l18 -26c-67 -92 -162 -132 -217 -132c-45 0 -99 15 -153 48c-43 26 -109 67 -197 124c-26 17 -44 28 -57 34c-26 -6 -80 -12 -119 -14l-8 13c15 24 58 65 98 81c25 0 58 -10 91 -22c171 64 274 219 274 424c0 141 -51 196 -119 196c-104 0 -186 -142 -186 -287
c0 -94 42 -168 105 -168h14l1 -33c-16 -11 -47 -17 -72 -17c-100 0 -184 71 -184 213c0 154 133 333 350 333c137 0 238 -94 238 -261c0 -156 -89 -263 -187 -326c-69 -45 -120 -73 -188 -96v-2c41 -19 82 -38 132 -64c79 -41 156 -76 224 -76c57 0 101 23 142 58z" />
    <glyph glyph-name="R.swash" unicode="&#xe0a9;" horiz-adv-x="867" 
d="M855 33l-8 -33c-26 -9 -60 -14 -91 -14c-88 0 -122 37 -164 145c-22 49 -36 88 -49 119c-10 28 -26 40 -69 39l-30 -133c-21 -101 -12 -116 63 -122l-7 -34h-301l7 34c79 6 85 21 108 122l105 464c-200 -19 -249 -138 -249 -247c0 -17 1 -34 4 -54c2 -11 -2 -16 -15 -13
c-59 12 -87 61 -87 105c0 42 11 75 35 107c48 68 182 146 397 146c107 0 182 -15 225 -43c45 -29 67 -72 67 -123c0 -115 -107 -157 -147 -174c37 -92 65 -154 94 -207c34 -61 62 -83 112 -84zM544 617l-64 -296c126 12 180 59 180 163c0 96 -65 132 -116 133z" />
    <glyph glyph-name="S.swash" unicode="&#xe0b2;" horiz-adv-x="559" 
d="M523 492h-30c1 65 -41 115 -111 115c-52 0 -85 -41 -85 -90c0 -40 27 -83 103 -147c100 -82 117 -137 117 -184c0 -70 -46 -129 -115 -176c-47 -33 -111 -63 -183 -63c-127 0 -193 81 -193 160c0 44 26 91 75 127c9 2 16 -1 19 -8c-3 -12 -5 -29 -5 -44
c0 -80 58 -161 179 -161c70 0 118 32 118 91c0 46 -26 82 -94 143c-68 59 -120 108 -120 187c0 61 28 119 93 168c47 34 99 54 154 54c61 0 114 -32 114 -83c0 -25 -19 -67 -36 -89z" />
    <glyph glyph-name="T.swash" unicode="&#xe0ba;" horiz-adv-x="693" 
d="M748 709l34 -8c-10 -34 -23 -66 -35 -84c-11 -17 -35 -28 -64 -28c-32 0 -62 2 -136 5l-87 -441c-20 -101 -13 -111 81 -119l-8 -34h-331l9 34c83 8 91 17 113 119l98 448c-22 2 -58 2 -90 2c-109 -3 -173 -49 -173 -181c0 -20 2 -47 4 -63c2 -11 -2 -16 -12 -16
c-25 0 -74 31 -74 100c0 64 58 126 109 158c61 40 131 57 215 57c41 0 87 -2 158 -5c64 -2 93 -4 116 -4c31 0 50 12 73 60z" />
    <glyph glyph-name="U.swash" unicode="&#xe0c9;" horiz-adv-x="902" 
d="M913 664l4 -23c-31 -23 -49 -40 -51 -47c-46 -193 -77 -339 -98 -484c-7 -46 -2 -52 75 -54l-8 -32c-86 -6 -148 -20 -217 -39l-6 9l41 181l-2 2c-124 -158 -231 -192 -312 -192c-91 0 -109 72 -79 181c39 148 75 277 104 384c14 52 12 62 -16 62
c-100 0 -188 -87 -189 -225c0 -26 1 -39 2 -51c0 -6 -3 -12 -15 -11c-39 7 -75 49 -75 98c0 43 20 92 65 136c55 52 160 105 298 105c79 0 85 -33 68 -91c-34 -117 -67 -242 -97 -361c-23 -91 -27 -141 21 -141c62 0 145 43 224 172c12 19 20 38 26 61l76 329
c36 11 90 22 161 31z" />
    <glyph glyph-name="V.swash" unicode="&#xe0df;" horiz-adv-x="838" 
d="M470 -15h-37c-21 204 -40 534 -52 619c-128 -7 -207 -90 -207 -217c0 -25 1 -46 4 -65c2 -9 -1 -15 -11 -15c-39 0 -91 43 -91 110c0 44 19 90 65 133c52 50 145 88 247 99c37 12 75 23 110 33l11 -1c10 -185 26 -357 38 -528c48 54 118 153 171 238c44 72 65 130 65 174
c0 15 -3 31 -7 44c-4 11 -6 19 -4 29c6 26 40 64 70 64c18 0 40 -29 40 -77c0 -82 -52 -163 -101 -233c-54 -78 -155 -212 -311 -407z" />
    <glyph glyph-name="W.swash" unicode="&#xe0e1;" horiz-adv-x="1120" 
d="M777 629h42c12 -114 36 -362 50 -479c28 37 74 108 120 190c46 84 75 154 75 224c0 15 -4 31 -8 44c-4 11 -6 18 -4 29c6 26 41 64 68 64c19 0 40 -30 40 -78c0 -92 -40 -160 -100 -256c-58 -91 -123 -188 -258 -381h-41c-15 126 -33 295 -46 431h-2
c-42 -72 -129 -224 -263 -431h-40c-4 132 -13 581 -13 621c-140 -9 -227 -102 -227 -240c0 -16 1 -33 4 -48c2 -10 -2 -15 -13 -14c-31 4 -87 42 -87 110c0 37 11 77 48 119c50 56 134 102 282 116c35 10 73 20 109 30l14 -2c0 -148 1 -367 0 -493h3
c138 237 235 418 247 444z" />
    <glyph glyph-name="X.swash" unicode="&#xe0eb;" horiz-adv-x="695" 
d="M125 480l-20 30c101 119 177 153 214 153c47 0 66 -43 107 -189c2 -8 5 -19 8 -30c20 28 45 64 69 95c73 97 121 124 161 124c35 0 60 -25 60 -55c0 -36 -28 -63 -45 -66c-13 -2 -20 2 -27 11c-8 12 -19 19 -34 19c-17 0 -39 -13 -63 -39c-25 -29 -60 -66 -109 -137
c20 -73 41 -150 63 -222c25 -80 36 -95 48 -95c14 0 51 17 103 69l20 -29c-96 -120 -163 -134 -196 -134c-52 0 -74 63 -106 171c-15 53 -23 83 -31 115c-62 -96 -114 -170 -154 -216c-58 -65 -96 -70 -129 -70c-35 0 -66 31 -66 68c0 41 24 66 52 73c15 3 21 -7 22 -12
c5 -16 15 -29 35 -29c33 0 89 40 177 165c19 26 36 50 50 74c-12 46 -25 95 -54 187c-16 53 -26 56 -36 56c-15 0 -50 -23 -119 -87z" />
    <glyph glyph-name="Y.swash" unicode="&#xe0ed;" horiz-adv-x="670" 
d="M420 374h5c57 149 118 216 158 251c29 26 61 39 91 39c32 0 57 -22 57 -54c0 -37 -30 -60 -53 -63c-13 -2 -19 3 -27 13c-6 8 -14 14 -29 14c-50 0 -137 -134 -167 -226c-9 -25 -17 -43 -23 -75l-22 -118c-19 -106 -13 -113 79 -121l-9 -34h-320l8 34c82 8 92 15 111 121
l22 114c9 51 16 81 15 130c-3 140 -46 183 -108 184c-36 1 -75 -16 -118 -41l-14 30c79 64 153 92 209 92c138 0 146 -145 135 -290z" />
    <glyph glyph-name="Z.swash" unicode="&#xe0f7;" horiz-adv-x="626" 
d="M119 436l-31 20c57 116 119 207 167 207c33 0 92 -8 183 -20c59 -9 85 -12 103 -12c31 0 57 22 81 53c6 8 13 12 19 12c9 -7 25 -34 -15 -86c-106 -134 -345 -366 -464 -486v-1c28 4 73 -1 132 -20c55 -18 107 -31 142 -31c46 0 99 53 152 125l29 -22
c-97 -188 -150 -223 -200 -223c-48 0 -124 32 -198 65c-54 24 -78 33 -98 33c-23 0 -48 -19 -69 -47c-6 -8 -14 -12 -20 -12c-8 0 -16 6 -16 21c1 30 33 69 88 123c201 197 326 327 409 418c-33 -5 -51 -7 -91 -5c-50 2 -115 9 -152 8c-49 0 -82 -25 -151 -120z" />
    <glyph glyph-name="Dcroat.swash" unicode="&#xe029;" horiz-adv-x="938" 
d="M386 365l60 255c-178 -10 -277 -110 -279 -264c0 -26 2 -48 6 -65c2 -7 1 -14 -10 -13c-37 8 -90 51 -90 117c0 48 19 102 82 158c69 61 184 111 393 111c130 0 229 -29 291 -80c59 -48 87 -123 87 -202c0 -131 -61 -234 -173 -306c-81 -52 -190 -76 -298 -76h-237l8 34
c75 6 89 21 111 115l38 167h-98l14 49h95zM503 316l-41 -193c-10 -44 -8 -65 6 -71c15 -6 26 -8 44 -8c155 0 271 140 271 343c0 162 -103 226 -214 233l-55 -255h138l-14 -49h-135z" />
    <glyph glyph-name="Hbar.swash" unicode="&#xe053;" horiz-adv-x="895" 
d="M502 476h203c32 100 70 152 120 201c58 59 92 75 115 75c17 0 31 -13 31 -30c-1 -14 -9 -41 -26 -59c-7 -6 -13 -6 -20 -2c-14 6 -30 10 -40 10c-9 0 -17 -6 -24 -24c-15 -42 -30 -98 -44 -171h84l-13 -43h-80c-8 -37 -15 -76 -22 -116c-14 -85 -27 -162 -33 -201
c-6 -49 -1 -57 32 -62l47 -7l-11 -35c-85 -5 -186 -21 -249 -30l8 35c20 9 30 21 39 62c9 45 21 108 41 202c-35 -11 -65 -15 -202 -16c-40 -167 -115 -256 -226 -326c-51 -31 -94 -41 -122 -41c-24 0 -45 15 -56 33c-13 17 -22 54 -26 83l14 12c38 -29 102 -48 138 -48
c28 0 54 9 73 38c26 39 54 136 87 298c10 45 18 87 26 119h-85l13 43h82c14 70 25 106 37 127c-149 -2 -238 -95 -238 -231c0 -32 2 -50 5 -68c2 -9 0 -16 -12 -14c-34 6 -89 47 -88 121c1 67 41 130 111 173c63 39 156 61 245 63c20 12 76 34 106 37l5 -7
c-10 -31 -27 -107 -45 -201zM694 433h-201c-7 -36 -15 -73 -21 -107h196c9 40 17 76 26 107z" />
    <glyph glyph-name="Oslash.swash" unicode="&#xe09e;" horiz-adv-x="673" 
d="M620 695l35 -27l-61 -79c42 -47 69 -116 69 -204c0 -227 -153 -400 -357 -400c-54 0 -102 17 -140 46l-59 -76l-32 29l59 77c-44 47 -70 117 -70 200c0 220 163 403 359 403c52 0 97 -13 138 -45zM211 158l294 390c-14 43 -41 74 -88 74c-112 0 -212 -181 -212 -395
c0 -24 2 -49 6 -69zM519 493l-295 -389c17 -49 49 -77 95 -77c114 0 205 189 205 395c0 25 -1 48 -5 71z" />
    <glyph glyph-name="Tbar.swash" unicode="&#xe0c2;" horiz-adv-x="693" 
d="M749 709l32 -8c-9 -34 -22 -66 -34 -84c-12 -17 -36 -28 -64 -28c-33 0 -62 2 -136 5l-48 -240h114l-13 -45h-110l-31 -156c-19 -101 -13 -111 81 -119l-8 -34h-331l10 34c83 8 91 17 113 119l34 156h-109l13 45h106l54 247c-22 2 -59 2 -91 2
c-108 -3 -175 -49 -175 -181c0 -19 2 -47 4 -63c2 -11 0 -16 -10 -16c-25 0 -73 31 -73 100c0 65 58 126 108 158c61 41 133 57 216 57c42 0 86 -2 157 -5c64 -2 95 -4 119 -4c30 0 50 12 72 60z" />
    <glyph glyph-name="Eng.swash" unicode="&#xe03d;" horiz-adv-x="888" 
d="M956 656l-9 -34c-49 -8 -75 -23 -90 -74c-10 -34 -18 -58 -38 -163l-66 -346c-17 -88 -37 -143 -68 -185c-26 -36 -66 -61 -103 -61c-32 0 -51 19 -51 39c0 26 24 61 37 61c16 0 25 -15 47 -15c32 0 66 48 84 129c-48 131 -163 349 -243 451h-3
c-38 -245 -77 -361 -140 -434c-46 -52 -103 -79 -156 -79c-33 0 -56 10 -70 26c-20 20 -36 65 -36 94c4 3 8 6 11 9c27 -17 63 -29 96 -29c47 0 107 26 156 111c57 98 91 245 103 346c-43 59 -96 104 -152 104c-50 0 -96 -41 -96 -167c0 -18 2 -32 3 -43
c1 -6 -3 -11 -10 -10c-30 3 -69 41 -69 86c0 41 21 82 62 118c53 48 117 74 182 74c106 0 183 -63 266 -197c68 -107 100 -177 136 -253h1l30 171c19 105 23 133 25 168c2 43 -15 58 -85 57l9 34z" />
    <glyph glyph-name="Eth.swash" unicode="&#xe041;" horiz-adv-x="938" 
d="M386 365l60 255c-178 -10 -277 -110 -279 -264c0 -26 2 -48 6 -65c2 -7 1 -14 -10 -13c-37 8 -90 51 -90 117c0 48 19 102 82 158c69 61 184 111 393 111c130 0 229 -29 291 -80c59 -48 87 -123 87 -202c0 -131 -61 -234 -173 -306c-81 -52 -190 -76 -298 -76h-237l8 34
c75 6 89 21 111 115l38 167h-98l14 49h95zM503 316l-41 -193c-10 -44 -8 -65 6 -71c15 -6 26 -8 44 -8c155 0 271 140 271 343c0 162 -103 226 -214 233l-55 -255h138l-14 -49h-135z" />
    <glyph glyph-name="uni25B7" unicode="&#x25b7;" horiz-adv-x="606" 
d="M130 404l1 -295l311 150zM75 25c0 0 2 465 1 465h1l486 -230v-2l-486 -235z" />
    <glyph glyph-name="T_h.swash" unicode="&#xe0c0;" horiz-adv-x="1157" 
d="M1116 122l15 -30c-67 -69 -137 -104 -173 -104c-32 0 -48 27 -29 107l50 217c8 34 4 48 -8 48c-35 0 -105 -73 -154 -150c-13 -52 -32 -146 -41 -200c-40 -3 -81 -13 -118 -22l-6 9c41 188 81 389 120 597c-28 -4 -63 -5 -82 -5c-38 0 -75 2 -137 6l-93 -442
c-21 -101 -13 -111 80 -119l-7 -34h-331l8 34c86 8 93 17 117 119l103 451c-28 1 -62 5 -119 4c-84 -1 -150 -34 -150 -172c0 -38 9 -73 14 -89c4 -10 4 -16 -9 -16c-29 0 -87 30 -87 109c0 69 59 132 106 166c53 38 118 58 207 58c56 0 105 -4 183 -9c66 -5 106 -7 172 -7
c69 0 107 31 123 63h42c-28 -142 -57 -285 -86 -427h2c56 73 119 120 150 140c30 18 60 29 84 29c29 0 62 -16 37 -128l-44 -200c-6 -31 -4 -39 3 -40c8 0 31 13 58 37z" />
    <glyph glyph-name="zero.oldstyle" unicode="&#xf730;" horiz-adv-x="532" 
d="M231 -12c-129 0 -200 109 -170 249c30 138 139 220 254 220c135 0 203 -109 173 -255c-29 -136 -142 -214 -257 -214zM243 31c26 0 76 23 108 175c29 145 2 209 -41 209c-39 0 -87 -50 -111 -172c-26 -132 -10 -212 44 -212z" />
    <glyph glyph-name="one.oldstyle" unicode="&#xf731;" horiz-adv-x="369" 
d="M313 33l-9 -33h-296l8 33l40 6c39 6 46 21 54 66l44 224c8 41 1 47 -28 48l-46 3l6 30c65 10 136 25 217 47l-66 -352c-8 -45 -6 -62 31 -66z" />
    <glyph glyph-name="two.oldstyle" unicode="&#xf732;" horiz-adv-x="473" 
d="M440 132l-56 -132h-377l5 29c95 55 269 152 269 265c0 49 -24 77 -71 77c-51 0 -90 -41 -122 -80l-26 26l63 81c36 33 77 59 139 59c75 0 151 -43 151 -138c0 -44 -24 -86 -67 -119c-40 -32 -105 -73 -161 -106v-2h120c53 0 66 7 89 37l14 19z" />
    <glyph glyph-name="three.oldstyle" unicode="&#xf733;" horiz-adv-x="433" 
d="M63 335l55 69c30 29 71 53 122 53c98 0 134 -60 134 -117c0 -72 -66 -100 -109 -125v-5c69 -17 110 -69 111 -132c0 -77 -58 -141 -145 -192c-58 -33 -111 -49 -144 -49c-43 0 -76 16 -95 35c-13 15 -17 28 -12 42c3 19 21 37 34 44c11 5 19 4 27 -4
c23 -23 65 -54 110 -54c58 0 95 45 95 125c0 70 -34 115 -97 115c-16 0 -27 -2 -43 -6l-9 34c68 26 156 61 155 138c0 47 -27 70 -66 70c-36 0 -72 -30 -100 -66z" />
    <glyph glyph-name="four.oldstyle" unicode="&#xf734;" horiz-adv-x="515" 
d="M468 89l-18 -61h-81l-36 -188h-125l37 188h-243l7 42c114 123 273 290 383 387h58l-70 -368h88zM309 322h-3c-75 -78 -135 -146 -212 -233h163z" />
    <glyph glyph-name="five.oldstyle" unicode="&#xf735;" horiz-adv-x="419" 
d="M409 457l-33 -105l-221 -20l-27 -70c89 -21 228 -54 228 -195c0 -74 -51 -139 -133 -185c-56 -32 -108 -45 -143 -45c-37 0 -75 16 -96 38c-14 15 -17 28 -13 42c3 17 20 36 32 43c11 6 19 6 29 -4c30 -29 69 -56 119 -56c45 0 88 32 88 108c0 101 -78 139 -188 157
l82 266z" />
    <glyph glyph-name="six.oldstyle" unicode="&#xf736;" horiz-adv-x="520" 
d="M515 608l7 -38c-128 -28 -249 -104 -300 -221l4 -2c21 12 71 35 100 35c87 0 152 -63 152 -166c0 -128 -101 -228 -235 -228c-120 0 -186 82 -186 208c0 136 83 253 184 319c72 47 146 77 274 93zM259 319c-17 0 -29 -5 -49 -13c-13 -28 -24 -87 -24 -145
c0 -61 16 -133 69 -133c65 0 93 96 93 168c0 73 -24 123 -89 123z" />
    <glyph glyph-name="seven.oldstyle" unicode="&#xf737;" horiz-adv-x="460" 
d="M470 446l7 -15c-68 -105 -264 -397 -392 -579l-106 -17l-6 16c165 177 292 350 392 490h-311l16 105h400z" />
    <glyph glyph-name="eight.oldstyle" unicode="&#xf738;" horiz-adv-x="490" 
d="M315 609c76 0 152 -46 152 -139c0 -35 -21 -64 -42 -82c-17 -14 -35 -27 -78 -54c61 -46 100 -89 100 -163c0 -103 -108 -183 -226 -183c-100 0 -182 50 -182 151c0 43 21 75 60 104c30 22 61 40 90 58c-45 41 -72 77 -73 135c-1 100 86 173 199 173zM292 571
c-39 0 -70 -36 -70 -88c0 -61 45 -88 93 -127c29 24 54 63 54 116c0 65 -34 99 -77 99zM243 27c51 0 87 47 87 104c0 56 -38 95 -111 148c-44 -28 -70 -79 -70 -135c0 -68 42 -117 94 -117z" />
    <glyph glyph-name="nine.oldstyle" unicode="&#xf739;" horiz-adv-x="516" 
d="M472 234c0 -159 -104 -310 -320 -372c-48 -14 -112 -24 -143 -25l-6 34c135 28 260 106 311 226h-2c-45 -22 -70 -31 -96 -31c-85 0 -159 58 -159 166c0 120 98 225 231 225c108 0 184 -81 184 -223zM346 273c0 74 -24 144 -75 144h-1c-50 0 -83 -77 -83 -154
c0 -80 31 -135 96 -135c15 0 29 3 44 11c10 30 19 75 19 134z" />
    <glyph glyph-name="dollar.oldstyle" unicode="&#xf724;" horiz-adv-x="492" 
d="M433 315l-34 -6c-10 58 -29 110 -90 119l-28 -143l19 -7c73 -27 134 -58 134 -135c0 -109 -113 -152 -209 -153l-16 -81h-37l16 81c-73 3 -125 30 -143 42c-4 22 -8 73 -8 129l32 6c10 -54 54 -128 126 -141l29 154l-5 2c-70 23 -135 58 -135 129c0 106 98 152 196 154
l13 67h36l-13 -68c22 -1 46 -5 67 -11c19 -6 36 -11 49 -17c1 -31 2 -58 1 -121zM247 296l26 134c-51 0 -88 -30 -88 -72c0 -33 29 -51 62 -62zM259 169l-27 -143c44 0 98 25 98 72c0 36 -26 55 -71 71z" />
    <glyph glyph-name="cent.oldstyle" unicode="&#xf7a2;" horiz-adv-x="494" 
d="M381 538l-15 -77c38 -2 79 -10 99 -25c12 -10 16 -18 16 -29c0 -36 -30 -56 -42 -56c-9 0 -14 4 -24 14c-20 26 -41 42 -59 47l-62 -325c55 -2 97 19 135 52l18 -28c-43 -55 -103 -92 -166 -101l-19 -93h-39l19 94c-95 6 -182 65 -182 183c0 148 126 244 268 264l16 80
h37zM258 94l61 323c-83 -2 -137 -97 -137 -196c0 -64 28 -110 76 -127z" />
    <glyph glyph-name="Euro.oldstyle" unicode="&#xe043;" horiz-adv-x="545" 
d="M63 342h42c48 120 160 199 302 199c66 0 112 -16 132 -23c-2 -42 -4 -93 -8 -125l-33 -2c-13 81 -47 112 -94 112c-66 0 -136 -65 -165 -161h257l-20 -40h-247c-5 -20 -8 -41 -8 -62h233l-21 -40h-213c-1 -100 36 -173 102 -173c58 0 95 42 149 109l27 -17
c-14 -31 -40 -83 -60 -110c-25 -8 -75 -21 -129 -21c-133 0 -219 77 -225 212h-69l16 40h52c2 22 5 43 11 62h-49z" />
    <glyph glyph-name="florin.oldstyle" unicode="&#xe119;" horiz-adv-x="482" 
d="M173 302l6 25c19 75 56 123 108 164c61 49 105 58 134 58c25 0 59 -17 59 -44c0 -25 -27 -57 -48 -57c-17 0 -39 50 -66 50c-10 0 -16 -7 -22 -24c-5 -15 -12 -43 -36 -172h103l-13 -43h-100l-22 -105c-38 -183 -111 -236 -173 -276c-31 -20 -62 -29 -87 -29
c-27 0 -53 16 -53 42c0 29 33 59 48 59c19 0 39 -43 64 -43c10 0 19 11 22 24c6 19 13 49 27 123l40 205h-80l13 43h76z" />
    <glyph glyph-name="sterling.oldstyle" unicode="&#xe157;" horiz-adv-x="516" 
d="M66 283h73c5 96 39 170 124 220c32 20 67 34 104 34c50 0 72 -17 86 -35c9 -11 11 -28 1 -43c-7 -11 -18 -21 -29 -28c-11 -8 -24 -9 -34 2c-30 38 -52 52 -80 52c-25 0 -39 -23 -42 -66c-2 -31 3 -86 2 -136h130l-10 -40h-124c-20 -67 -56 -102 -124 -136
c43 4 69 1 121 -18c39 -14 76 -35 103 -35c23 0 36 10 36 28c0 12 -3 26 -5 35c-2 7 2 15 10 24c15 17 31 25 42 25c15 0 22 -19 22 -36c-2 -47 -52 -101 -92 -127c-33 -21 -57 -33 -95 -33c-47 0 -104 35 -140 56c-25 13 -39 19 -56 19c-16 0 -32 -17 -39 -36
c-4 -10 -10 -15 -17 -15c-14 0 -30 19 -18 43s46 54 67 75c34 36 50 80 56 131h-83z" />
    <glyph glyph-name="yen.oldstyle" unicode="&#xe17d;" horiz-adv-x="525" 
d="M561 529l-7 -33c-43 -5 -60 -18 -96 -59c-26 -31 -65 -83 -106 -142h114l-8 -39h-127l-14 -73h128l-9 -39h-127l-7 -39c-10 -55 -2 -68 69 -72l-7 -33h-281l7 33c68 4 78 17 89 74l7 37h-130l8 39h130l14 73h-130l7 39h119c-11 40 -28 91 -47 145c-18 44 -30 50 -71 56
l7 33h238l-7 -33l-21 -4c-25 -5 -28 -12 -24 -30c7 -34 26 -102 38 -154c36 51 75 109 92 136c15 25 22 45 -6 49l-24 3l7 33h175z" />
    <glyph glyph-name="colonmonetary.oldstyle" unicode="&#xe105;" horiz-adv-x="563" 
d="M537 594l-25 -64c20 -4 39 -10 53 -12c-3 -43 -7 -89 -11 -128l-31 -1c-2 35 -10 72 -28 92l-179 -457c6 0 8 0 11 1c57 6 109 51 157 115l28 -11c-15 -32 -44 -90 -63 -116c-21 -6 -74 -21 -134 -23h-12l-24 -64h-35l25 67c-21 1 -38 5 -53 10l-30 -77h-37l36 88
c-87 32 -131 111 -131 208c0 180 145 308 334 319l21 53h34l-19 -53c10 0 20 0 29 -1s21 -2 28 -3l22 57h34zM281 27l185 469c-17 8 -33 10 -51 10h-5l-176 -456c12 -12 30 -20 47 -23zM208 79l165 426c-100 -18 -186 -158 -186 -317c0 -42 7 -81 21 -109z" />
    <glyph glyph-name="franc.oldstyle" unicode="&#xe11b;" horiz-adv-x="513" 
d="M128 529h393c-2 -14 -9 -74 -15 -131l-34 -4c-3 32 -8 55 -19 71c-12 17 -30 23 -78 23h-30c-26 0 -34 -6 -38 -27l-29 -152c116 0 149 4 184 9l-12 -65c-35 6 -70 9 -182 9l-16 -85h134l-8 -40h-133l-6 -31c-13 -65 -5 -68 66 -74l-7 -32h-271l7 32c62 6 69 9 82 74
l6 31h-77l8 40h77l48 244c13 65 5 70 -56 76z" />
    <glyph glyph-name="lira.oldstyle" unicode="&#xe121;" horiz-adv-x="511" 
d="M390 200h-138c-16 -31 -46 -63 -102 -92c45 5 73 0 115 -19c33 -15 69 -35 96 -35c20 0 33 10 35 26c2 12 0 28 -3 37c-2 7 4 18 10 24c15 16 31 26 43 26c18 0 23 -17 22 -32c-3 -54 -56 -106 -97 -133c-32 -22 -62 -34 -93 -34c-36 0 -85 35 -117 54
c-27 16 -45 24 -61 24c-15 0 -32 -15 -41 -38c-4 -10 -11 -14 -19 -14c-14 0 -29 20 -15 48c11 23 41 50 62 72c26 27 40 59 45 86h-90l9 40h86c1 10 2 27 2 50h-83l9 40h77c6 75 51 136 120 177c28 18 71 34 103 34c42 0 73 -15 88 -34c12 -15 10 -34 -1 -49
c-7 -9 -18 -20 -29 -26c-11 -8 -22 -10 -32 -1c-28 31 -54 55 -83 55c-24 0 -37 -20 -40 -49c-4 -31 0 -79 3 -107h143l-9 -40h-133c0 -20 -3 -40 -5 -50h131z" />
    <glyph glyph-name="numbersign.oldstyle" unicode="&#xe12e;" horiz-adv-x="513" 
d="M501 398l-17 -82h-99l-37 -121h87l-18 -82h-94l-52 -169h-49l51 169h-96l-51 -169h-50l51 169h-100l17 82h108l37 121h-94l16 82h103l45 145h50l-44 -145h96l44 145h49l-44 -145h91zM336 316h-96l-37 -121h96z" />
    <glyph glyph-name="percent.oldstyle" unicode="&#xf642;" horiz-adv-x="757" 
d="M622 517l-437 -552l-28 30l434 551zM379 405c0 -89 -68 -173 -173 -173c-84 0 -123 57 -123 123c0 90 65 180 172 180c87 0 124 -59 124 -130zM287 440c0 32 -6 61 -34 61c-49 0 -78 -113 -78 -169c0 -29 6 -66 34 -66c54 0 78 127 78 174zM703 161
c0 -90 -68 -173 -172 -173c-85 0 -124 57 -124 123c0 89 67 180 173 180c88 0 123 -58 123 -130zM611 198c0 30 -5 59 -34 59c-47 0 -78 -112 -78 -170c0 -30 5 -65 34 -65c55 0 78 132 78 176z" />
    <glyph glyph-name="perthousand.oldstyle" unicode="&#xf628;" horiz-adv-x="1072" 
d="M622 517l-437 -553l-28 30l434 552zM379 405c0 -89 -68 -173 -173 -173c-84 0 -123 57 -123 123c0 90 67 180 173 180c87 0 123 -59 123 -130zM287 441c0 31 -6 60 -34 60c-49 0 -78 -113 -78 -169c0 -29 6 -66 34 -66c54 0 78 127 78 175zM703 161
c0 -90 -68 -173 -172 -173c-85 0 -124 57 -124 123c0 89 67 180 173 180c88 0 123 -58 123 -130zM1025 161c0 -90 -68 -173 -172 -173c-85 0 -124 57 -124 123c0 89 67 180 173 180c88 0 123 -58 123 -130zM611 198c0 30 -5 59 -34 59c-47 0 -78 -112 -78 -170
c0 -29 5 -64 34 -64c55 0 78 131 78 175zM933 198c0 30 -5 59 -34 59c-47 0 -78 -112 -78 -170c0 -29 5 -64 34 -64c55 0 78 131 78 175z" />
    <glyph glyph-name="estimated.oldstyle" unicode="&#xe10b;" horiz-adv-x="684" 
d="M667 257h-497c-2 0 -4 -1 -4 -3v-150c0 -6 3 -13 7 -17c48 -50 115 -81 189 -81c79 0 149 35 197 91h44c-55 -65 -144 -108 -242 -108c-170 0 -307 123 -307 276s137 276 307 276c169 0 306 -123 306 -276v-8zM555 277v151c0 8 -3 14 -8 19c-47 47 -113 77 -185 77
c-74 0 -140 -31 -188 -80c-5 -5 -8 -11 -8 -19v-148c0 -2 2 -4 4 -4h382c2 0 3 2 3 4z" />
    <glyph glyph-name="zero.fitted" unicode="&#xf639;" horiz-adv-x="526" 
d="M350 635c140 0 177 -139 163 -277c-13 -164 -101 -370 -280 -370c-143 0 -182 139 -167 287c12 151 102 360 284 360zM343 598c-85 0 -132 -226 -145 -353c-13 -111 -7 -218 45 -218c77 0 124 237 138 361c13 101 10 210 -38 210z" />
    <glyph glyph-name="one.fitted" unicode="&#xf6dc;" horiz-adv-x="362" 
d="M336 635l-96 -495c-17 -92 -13 -99 72 -107l-8 -33h-301l8 33c77 8 84 15 102 107l67 335c13 68 4 72 -49 76l-30 2l7 30c65 8 148 24 228 52z" />
    <glyph glyph-name="two.fitted" unicode="&#xf63a;" horiz-adv-x="490" 
d="M96 488l67 89c40 37 87 58 148 58c98 0 170 -60 170 -162c0 -119 -107 -190 -248 -306l-72 -60h156c60 0 71 2 109 57l31 -10c-21 -50 -40 -106 -56 -154h-402l5 26c53 43 124 103 184 161c75 73 162 167 162 255c0 66 -31 104 -96 104c-55 0 -97 -39 -133 -82z" />
    <glyph glyph-name="three.fitted" unicode="&#xf63b;" horiz-adv-x="481" 
d="M103 505l53 71c35 34 82 59 148 59c71 0 148 -40 148 -128c0 -36 -22 -65 -43 -81c-21 -17 -50 -35 -88 -52l-1 -2c67 -16 125 -65 125 -145c0 -75 -45 -133 -112 -177c-61 -40 -133 -62 -183 -62c-44 0 -87 14 -110 33c-21 19 -27 32 -27 48c1 18 17 37 34 48
c10 7 19 7 27 -1c24 -24 72 -73 140 -73c60 0 97 58 97 144c0 79 -48 126 -109 126c-18 0 -37 -3 -48 -7l-6 33c67 19 178 58 178 145c0 47 -34 74 -78 74c-52 0 -91 -36 -123 -74z" />
    <glyph glyph-name="four.fitted" unicode="&#xf63c;" horiz-adv-x="520" 
d="M498 229l-11 -55h-86l-10 -56c-13 -69 -8 -78 65 -85l-8 -33h-289l8 33c80 6 85 13 100 85l11 56h-250l7 38c130 153 253 294 382 417h72l-77 -400h86zM349 501h-5c-79 -84 -152 -176 -230 -272h175z" />
    <glyph glyph-name="five.fitted" unicode="&#xf63d;" horiz-adv-x="481" 
d="M483 623l-43 -106h-249l-47 -148c56 17 92 26 115 26c97 0 183 -59 183 -161c0 -81 -52 -148 -130 -195c-60 -36 -116 -51 -164 -51c-48 -1 -91 17 -113 36c-16 13 -27 29 -26 46s19 40 36 48c10 6 17 5 25 -2c20 -19 66 -74 139 -74c68 0 102 55 102 134
c0 106 -58 152 -142 152c-30 0 -59 -6 -77 -11l-7 9l86 297h312z" />
    <glyph glyph-name="six.fitted" unicode="&#xf63e;" horiz-adv-x="536" 
d="M537 641l5 -36c-34 -6 -72 -17 -111 -34c-54 -25 -153 -80 -209 -207l2 -2l50 23c19 8 38 15 58 16c95 0 165 -63 165 -175c0 -124 -104 -238 -246 -238c-121 0 -194 89 -194 213c0 167 105 339 330 409c49 15 114 26 150 31zM266 334c-25 0 -43 -7 -58 -14
c-13 -33 -23 -77 -23 -142c0 -71 26 -152 85 -152c71 0 97 105 97 171c0 88 -35 137 -101 137z" />
    <glyph glyph-name="seven.fitted" unicode="&#xf63f;" horiz-adv-x="492" 
d="M542 623l7 -12c-117 -196 -251 -402 -381 -611l-109 -12l-6 14c143 168 286 350 388 514h-216c-61 0 -75 -5 -106 -63l-33 11c23 61 39 116 51 159h405z" />
    <glyph glyph-name="eight.fitted" unicode="&#xf640;" horiz-adv-x="517" 
d="M329 635c88 0 169 -48 169 -146c0 -38 -22 -67 -50 -89c-15 -12 -32 -24 -83 -54c62 -45 110 -93 110 -167c0 -111 -121 -191 -242 -191c-109 0 -197 56 -197 160c0 42 22 77 56 102c28 21 76 48 107 65c-46 35 -82 74 -82 138c0 104 99 182 212 182zM312 596
c-46 0 -80 -42 -80 -92c0 -71 58 -108 100 -135c33 25 60 69 60 128c0 53 -28 99 -80 99zM254 28c55 0 95 48 95 113c0 62 -38 101 -116 151c-44 -29 -78 -83 -78 -144c0 -65 33 -120 99 -120z" />
    <glyph glyph-name="nine.fitted" unicode="&#xf641;" horiz-adv-x="527" 
d="M328 635c123 0 192 -87 192 -222c0 -169 -110 -332 -298 -400c-44 -16 -121 -30 -163 -31l-5 33c133 28 257 126 306 265l-54 -25c-23 -12 -41 -16 -52 -16c-88 0 -166 58 -166 167c0 120 106 229 240 229zM313 598c-60 0 -94 -89 -94 -160c0 -76 34 -132 102 -132
c16 -1 37 6 49 13c12 29 22 81 22 142c0 59 -17 137 -79 137z" />
    <glyph glyph-name="zero.slashfitted" unicode="&#xe307;" horiz-adv-x="526" 
d="M489 668l30 -22l-45 -71c32 -43 45 -105 43 -177c-2 -164 -88 -409 -284 -409c-45 0 -77 11 -104 34l-45 -64l-29 23l48 68c-31 43 -43 102 -43 173c0 176 95 412 286 412c39 0 75 -11 101 -32zM184 171l208 346c-6 54 -26 81 -52 81c-85 0 -138 -215 -153 -377
c-2 -16 -3 -36 -3 -50zM395 453l-206 -343c5 -49 18 -83 52 -83c80 0 131 206 148 351c3 26 5 53 6 75z" />
    <glyph glyph-name="dollar.fitted" unicode="&#xe107;" horiz-adv-x="495" 
d="M471 447l-31 -5c-8 58 -33 117 -96 130l-40 -197l20 -11c72 -40 136 -82 136 -171c0 -119 -118 -180 -226 -184l-16 -81h-41l16 81c-92 8 -140 43 -157 56c-1 17 -2 88 -4 147l30 3c10 -52 46 -152 139 -166l41 218l-14 8c-75 38 -132 85 -132 163c0 110 94 175 214 177
l15 72h41l-14 -73c44 -5 82 -18 121 -35c0 -32 -1 -76 -2 -132zM266 394l37 181c-62 -1 -101 -44 -101 -94c0 -42 29 -66 64 -87zM280 249l-38 -201c67 6 102 47 102 108c0 43 -28 71 -64 93z" />
    <glyph glyph-name="cent.fitted" unicode="&#xe103;" horiz-adv-x="495" 
d="M396 615l-14 -77c40 -1 74 -13 92 -25c15 -10 20 -19 20 -31c0 -31 -30 -52 -43 -53c-8 0 -12 4 -21 14c-16 19 -34 40 -58 46l-60 -315h11c40 1 82 15 122 48l17 -28c-47 -57 -107 -88 -164 -96l-19 -96h-42l19 96c-102 7 -183 71 -183 186c0 134 116 238 266 252l16 79
h41zM272 182l59 313c-85 -4 -135 -86 -135 -187c0 -68 29 -113 76 -126z" />
    <glyph glyph-name="Euro.fitted" unicode="&#xe042;" horiz-adv-x="604" 
d="M71 392h52c54 152 183 244 343 244c67 0 119 -18 143 -26c-2 -50 -6 -96 -10 -139l-33 -5c-15 97 -54 131 -110 131c-80 0 -159 -78 -196 -205h297l-17 -40h-290c-6 -20 -9 -44 -9 -64h277l-18 -40h-260c-1 -127 40 -219 119 -219c64 0 111 52 175 127l28 -17
c-14 -33 -51 -99 -73 -127c-30 -8 -84 -24 -141 -24c-145 0 -242 92 -248 260h-78l17 40h61c1 21 5 46 10 64h-55z" />
    <glyph glyph-name="florin.fitted" unicode="&#xe118;" horiz-adv-x="495" 
d="M182 378l8 34c20 82 51 131 112 179c66 52 122 61 145 61c27 0 68 -21 68 -52c0 -18 -15 -39 -30 -49c-10 -8 -20 -7 -28 2c-17 18 -46 42 -69 42c-12 0 -21 -7 -28 -24c-8 -20 -20 -57 -43 -193h113l-13 -44h-109l-30 -147c-44 -211 -115 -261 -173 -296
c-35 -21 -65 -29 -88 -29c-31 0 -66 23 -66 49c0 19 18 41 34 51c8 6 14 7 21 0c20 -18 46 -41 65 -41c11 0 18 8 24 26c7 19 18 66 32 143l44 244h-90l13 44h88z" />
    <glyph glyph-name="sterling.fitted" unicode="&#xe156;" horiz-adv-x="511" 
d="M411 291h-146c-11 -78 -63 -130 -138 -169c42 1 75 -5 118 -22c37 -15 90 -39 126 -39c32 0 42 11 44 26c1 15 -2 30 -4 40c-3 7 0 16 7 24c16 18 31 28 44 28c17 0 24 -20 19 -50c-6 -42 -52 -92 -92 -120c-36 -24 -72 -36 -109 -36c-51 0 -103 35 -144 58
c-28 16 -43 22 -62 22c-14 0 -32 -17 -42 -39c-4 -11 -11 -17 -17 -17c-16 0 -32 18 -19 46c12 26 52 61 78 89c41 46 59 96 61 159h-96l9 43h86c1 33 2 54 5 79c8 65 41 128 110 178c33 24 79 44 123 44c51 -1 82 -22 94 -38c10 -12 11 -29 -1 -45c-9 -12 -20 -22 -29 -27
c-12 -6 -23 -7 -33 2c-28 24 -55 53 -88 53c-29 0 -42 -23 -48 -61c-7 -48 -2 -116 0 -185h153z" />
    <glyph glyph-name="yen.fitted" unicode="&#xe17c;" horiz-adv-x="495" 
d="M574 623l-6 -33c-53 -6 -61 -16 -102 -69c-31 -40 -63 -89 -126 -185h122l-9 -41h-130l-15 -79h131l-8 -41h-132l-8 -41c-16 -85 -9 -96 69 -101l-8 -33h-287l8 33c68 4 78 17 95 100l8 42h-135l8 41h134l14 79h-133l9 41h121c-12 53 -31 121 -51 186
c-16 50 -25 62 -76 68l5 33h240l-7 -33l-23 -5c-19 -3 -27 -10 -23 -30c18 -71 33 -133 50 -198c36 59 80 132 104 177c21 38 17 49 -15 53l-20 3l5 33h191z" />
    <glyph glyph-name="colonmonetary.fitted" unicode="&#xe104;" horiz-adv-x="594" 
d="M588 684l-28 -72c23 -5 44 -11 58 -14c-3 -49 -9 -101 -14 -131l-32 -1c-2 33 -10 71 -32 92l-204 -520h12c66 7 120 49 174 120l29 -12c-19 -44 -45 -95 -65 -120c-26 -7 -83 -24 -152 -26h-13l-27 -72h-35l29 75c-22 1 -44 6 -63 12l-34 -87h-35l39 99
c-89 38 -135 123 -135 226c0 217 164 355 367 371l23 60h34l-21 -60c12 0 23 0 32 -1c11 -1 20 -2 34 -5l25 66h34zM302 40l210 535c-17 10 -39 12 -59 12h-6l-201 -519c15 -16 34 -24 56 -28zM221 94l189 488c-117 -23 -217 -179 -216 -357c0 -52 8 -97 27 -131z" />
    <glyph glyph-name="franc.fitted" unicode="&#xe11a;" horiz-adv-x="510" 
d="M116 623h421c-2 -16 -11 -89 -17 -146l-35 -5c-3 32 -9 57 -18 75c-14 28 -34 33 -80 33h-38c-30 0 -38 -6 -43 -35l-36 -189c123 0 154 2 196 11l-13 -71c-44 8 -78 12 -192 12l-20 -105h150l-9 -42h-150l-7 -40c-13 -73 -8 -82 74 -88l-6 -33h-290l7 33
c66 6 77 15 90 88l8 40h-82l10 42h80l56 292c15 78 6 88 -63 94z" />
    <glyph glyph-name="lira.fitted" unicode="&#xe120;" horiz-adv-x="519" 
d="M414 239h-150c-22 -44 -69 -86 -127 -115c37 3 67 -4 100 -18c48 -20 104 -46 142 -46c27 0 42 12 42 31c0 14 -3 25 -5 35c-2 8 2 18 8 25c17 17 34 28 47 28c16 0 23 -17 23 -36c0 -54 -50 -106 -96 -134c-41 -25 -75 -36 -115 -36c-47 0 -93 33 -134 60
c-28 19 -49 24 -65 24c-17 0 -34 -19 -46 -46c-5 -11 -13 -16 -20 -16c-14 0 -30 22 -15 52c11 22 45 55 79 87c33 32 50 68 57 105h-96l8 40h95c4 22 3 43 4 64h-87l8 40h82c7 95 55 162 128 210c41 27 78 41 115 42c48 0 76 -21 89 -38c9 -12 11 -28 0 -45
c-9 -13 -20 -22 -29 -27c-9 -6 -22 -7 -33 2c-30 29 -54 50 -84 50s-44 -21 -52 -64c-6 -39 -5 -88 -4 -130h159l-8 -40h-151c0 -21 -2 -44 -6 -64h145z" />
    <glyph glyph-name="numbersign.fitted" unicode="&#xe12d;" horiz-adv-x="492" 
d="M506 468l-17 -81h-96l-36 -120h84l-15 -80h-94l-50 -168h-50l50 168h-100l-50 -168h-52l50 168h-96l16 80h105l36 120h-92l16 81h100l44 144h53l-45 -144h99l45 144h50l-44 -144h89zM343 387h-100l-36 -120h99z" />
    <glyph glyph-name="zero.taboldstyle" unicode="&#xf643;" horiz-adv-x="511" 
d="M224 -12c-126 0 -202 107 -172 248c30 140 139 221 251 221c132 0 203 -108 173 -255c-28 -136 -138 -214 -252 -214zM235 31c28 0 73 21 104 175c30 146 0 208 -41 208c-40 0 -86 -50 -109 -171c-25 -133 -7 -212 46 -212z" />
    <glyph glyph-name="one.taboldstyle" unicode="&#xf644;" horiz-adv-x="511" 
d="M404 33l-9 -33h-337l8 33l54 7c46 6 52 21 61 65l44 223c8 41 2 47 -28 48l-61 3l6 31c80 10 151 25 233 47l-68 -352c-8 -44 -6 -60 39 -65z" />
    <glyph glyph-name="two.taboldstyle" unicode="&#xf645;" horiz-adv-x="511" 
d="M463 132l-56 -132h-392l6 28c94 54 284 153 284 266c0 50 -27 77 -77 76c-53 -1 -94 -42 -127 -80l-25 25l63 81c39 38 85 61 143 61c82 0 157 -46 157 -139c0 -41 -22 -83 -65 -117c-37 -30 -113 -77 -168 -107v-2h123c57 0 67 9 89 36l15 18z" />
    <glyph glyph-name="three.taboldstyle" unicode="&#xf646;" horiz-adv-x="511" 
d="M94 335l54 70c31 29 73 52 124 52c95 0 140 -55 140 -117c0 -67 -71 -94 -117 -120v-4c87 -20 119 -80 119 -139c0 -77 -56 -142 -139 -190c-59 -35 -121 -51 -154 -51c-43 0 -84 20 -103 39c-14 15 -17 27 -12 41c3 18 21 35 33 42c11 4 19 3 28 -4
c22 -24 70 -59 115 -59c67 0 101 47 101 129c0 78 -38 125 -100 125c-16 0 -32 -3 -47 -7l-9 28c69 27 161 61 161 138c0 44 -27 70 -68 70c-36 0 -77 -31 -105 -67z" />
    <glyph glyph-name="four.taboldstyle" unicode="&#xf647;" horiz-adv-x="511" 
d="M466 89l-18 -59h-78l-37 -191h-125l38 191h-248l7 40c133 140 257 271 388 387h58l-70 -368h85zM309 321h-2c-75 -71 -141 -146 -217 -232h167z" />
    <glyph glyph-name="five.taboldstyle" unicode="&#xf648;" horiz-adv-x="511" 
d="M456 457l-33 -104l-230 -19l-27 -72c89 -18 237 -52 237 -195c0 -76 -45 -137 -133 -186c-55 -31 -117 -45 -151 -45s-76 17 -96 38c-14 15 -17 28 -13 42c3 17 20 34 32 41c11 7 19 7 29 -4c30 -28 75 -58 124 -58c46 0 90 32 90 111c0 103 -82 141 -195 159l82 266z
" />
    <glyph glyph-name="six.taboldstyle" unicode="&#xf649;" horiz-adv-x="511" 
d="M515 608l4 -35c-115 -20 -253 -109 -303 -227h3c21 12 69 36 97 36c79 0 159 -51 159 -163c0 -131 -109 -231 -236 -231c-116 0 -190 82 -190 209s72 246 182 318c89 58 172 76 284 93zM254 322c-17 0 -31 -4 -51 -12c-15 -36 -25 -90 -25 -148c0 -68 24 -135 72 -135
c68 0 93 111 93 172c0 74 -28 123 -89 123z" />
    <glyph glyph-name="seven.taboldstyle" unicode="&#xf64a;" horiz-adv-x="511" 
d="M505 446l7 -15c-69 -104 -267 -392 -398 -580l-109 -17l-6 17c165 175 302 352 402 490h-324l16 105h412z" />
    <glyph glyph-name="eight.taboldstyle" unicode="&#xf64b;" horiz-adv-x="511" 
d="M323 609c75 0 157 -44 157 -137c0 -35 -19 -64 -40 -83c-15 -12 -40 -28 -85 -54c62 -45 105 -89 105 -162c0 -103 -109 -185 -227 -185c-99 0 -191 50 -191 151c0 42 22 76 61 106c29 22 69 41 95 56c-42 33 -78 73 -79 134c-1 101 88 174 204 174zM300 572
c-42 0 -74 -39 -74 -87c0 -65 57 -103 100 -131c31 22 56 67 56 118c0 59 -32 100 -82 100zM250 26c57 0 94 47 94 106c0 58 -44 99 -116 149c-44 -28 -77 -81 -77 -137c0 -63 37 -118 99 -118z" />
    <glyph glyph-name="nine.taboldstyle" unicode="&#xf64c;" horiz-adv-x="511" 
d="M471 235c0 -159 -95 -310 -313 -373c-49 -14 -127 -25 -153 -26l-6 33c141 30 269 112 317 231l-3 -1c-56 -26 -72 -32 -97 -32c-81 0 -164 56 -164 166c0 122 108 224 233 224c102 0 186 -74 186 -222zM345 273c0 77 -23 145 -79 145h-1c-51 0 -83 -79 -83 -153
c0 -87 39 -137 99 -137c14 0 29 2 44 10c11 30 20 75 20 135z" />
    <glyph glyph-name="dollar.taboldstyle" unicode="&#xf653;" horiz-adv-x="511" 
d="M441 315l-34 -6c-10 58 -29 111 -89 120l-27 -144l18 -7c74 -26 134 -58 134 -135c0 -109 -113 -152 -208 -153l-16 -81h-37l16 81c-73 3 -125 30 -143 42c-4 22 -8 73 -8 129l32 6c10 -54 53 -129 125 -141l30 154l-6 2c-70 24 -134 58 -134 129c0 106 98 152 195 154
l13 67h36l-13 -68c22 -1 45 -5 66 -11c19 -6 36 -11 49 -17c1 -31 2 -58 1 -121zM256 296l26 135c-51 0 -87 -31 -87 -72c0 -34 29 -52 61 -63zM269 169l-28 -143c44 0 98 25 98 72c0 36 -25 55 -70 71z" />
    <glyph glyph-name="cent.taboldstyle" unicode="&#xf654;" horiz-adv-x="511" 
d="M386 538l-15 -77c38 -2 79 -10 99 -26c12 -9 16 -18 16 -29c0 -35 -30 -56 -42 -56c-9 0 -14 4 -23 15c-21 26 -41 43 -60 48l-63 -326c56 -2 98 19 136 52l19 -28c-43 -56 -104 -92 -167 -101l-18 -93h-40l19 94c-95 6 -181 64 -181 182c0 147 125 245 267 265l16 80h37
zM262 94l62 324c-81 -1 -136 -99 -136 -199c0 -63 27 -108 74 -125z" />
    <glyph glyph-name="Euro.taboldstyle" unicode="&#xf64e;" horiz-adv-x="511" 
d="M76 340h40c49 130 150 201 285 201c66 0 92 -15 112 -23c-2 -41 -6 -89 -10 -121l-32 -3c-12 82 -32 110 -75 110c-53 0 -114 -59 -144 -164h213l-20 -39h-203c-6 -20 -9 -39 -10 -61h189l-20 -39h-170c-2 -90 20 -173 79 -173c45 0 74 35 126 100l28 -15
c-14 -32 -42 -80 -62 -107c-27 -8 -52 -18 -105 -18c-134 0 -197 84 -202 213h-69l16 39h53c2 22 4 41 10 61h-47z" />
    <glyph glyph-name="florin.taboldstyle" unicode="&#xf64f;" horiz-adv-x="511" 
d="M188 302l5 22c18 72 55 129 107 171c47 37 89 54 133 54c25 0 61 -17 61 -44c0 -25 -27 -57 -48 -57c-17 0 -38 53 -65 53c-10 0 -17 -7 -22 -23c-6 -16 -12 -47 -37 -176h103l-12 -43h-100l-22 -104c-39 -184 -109 -236 -171 -275c-31 -20 -66 -30 -91 -30
c-27 0 -53 16 -53 41c0 30 33 59 48 59c19 0 43 -43 68 -43c10 0 16 11 20 24c5 19 12 50 26 123l40 205h-80l13 43h77z" />
    <glyph glyph-name="sterling.taboldstyle" unicode="&#xf651;" horiz-adv-x="511" 
d="M61 283h73c5 96 41 167 125 219c32 20 67 35 104 35c50 0 70 -17 84 -35c9 -12 11 -28 1 -44c-7 -10 -18 -20 -29 -28c-11 -7 -24 -8 -34 3c-30 38 -51 52 -79 52c-25 0 -39 -22 -42 -65c-2 -31 3 -87 2 -137h129l-10 -40h-123c-20 -67 -56 -102 -125 -136
c43 4 70 1 122 -18c40 -14 75 -36 102 -36c23 0 36 11 36 28c0 13 -3 27 -5 36c-2 6 2 15 10 23c15 17 31 26 42 26c15 0 22 -19 22 -37c-2 -47 -56 -101 -95 -127c-33 -21 -57 -32 -95 -32c-47 0 -100 34 -136 56c-26 13 -39 19 -56 19c-16 0 -32 -17 -39 -36
c-4 -10 -10 -15 -17 -15c-14 0 -30 19 -18 43s46 54 67 75c34 36 50 80 56 131h-83z" />
    </font>
</defs>
</svg>
