<svg height="128" width="128" xmlns="http://www.w3.org/2000/svg"><path d="M80.748 80.578c-8.829 0-17.129-3.438-23.371-9.682-12.887-12.886-12.887-33.854 0-46.742 6.242-6.242 14.543-9.68 23.371-9.68 8.829 0 17.13 3.438 23.372 9.68 6.243 6.243 9.682 14.543 9.682 23.372s-3.438 17.128-9.682 23.37c-6.242 6.244-14.542 9.682-23.372 9.682zm0-62.103c-7.76 0-15.056 3.022-20.543 8.508-11.327 11.328-11.327 29.759 0 41.085 5.487 5.487 12.783 8.51 20.543 8.51 7.761 0 15.057-3.022 20.544-8.51s8.51-12.782 8.51-20.542-3.022-15.056-8.51-20.543c-5.487-5.486-12.783-8.508-20.544-8.508z" fill="#fefefe"/><path d="M53.88 76.396a2 2 0 0 1-1.415-3.413l3.834-3.837a2 2 0 1 1 2.83 2.827l-3.834 3.837a1.994 1.994 0 0 1-1.415.586z" fill="#fefefe"/><path d="M26.23 114.042a11.913 11.913 0 0 1-8.483-3.514c-4.677-4.677-4.677-12.288 0-16.966l19.065-19.064a11.913 11.913 0 0 1 8.484-3.516c3.204 0 6.217 1.248 8.483 3.516 4.676 4.676 4.676 12.285 0 16.963l-19.07 19.068a11.9 11.9 0 0 1-8.479 3.513zm19.067-39.06a7.94 7.94 0 0 0-5.656 2.344L20.575 96.391c-3.117 3.117-3.117 8.191 0 11.31 1.511 1.511 3.52 2.342 5.655 2.342s4.143-.831 5.65-2.341l19.071-19.068c3.116-3.117 3.116-8.189 0-11.307a7.934 7.934 0 0 0-5.654-2.345zm35.452-4.589a22.72 22.72 0 0 1-16.17-6.698c-8.913-8.916-8.912-23.421 0-32.334a22.716 22.716 0 0 1 16.17-6.699c6.107 0 11.85 2.379 16.168 6.699a22.715 22.715 0 0 1 6.697 16.167 22.718 22.718 0 0 1-6.698 16.168 22.714 22.714 0 0 1-16.167 6.697zm0-41.732c-5.04 0-9.778 1.963-13.342 5.527-7.353 7.354-7.353 19.322 0 26.678a18.746 18.746 0 0 0 13.342 5.526c5.039 0 9.776-1.963 13.339-5.526a18.747 18.747 0 0 0 5.526-13.34c0-5.039-1.963-9.775-5.526-13.338a18.738 18.738 0 0 0-13.339-5.527z" fill="#fefefe"/></svg>