<svg height="32" width="32" xmlns="http://www.w3.org/2000/svg"><g clip-rule="evenodd" fill="#fefefe" fill-rule="evenodd"><path d="M29.193 5.265c-3.629-3.596-9.432-3.671-13.191-.288-3.76-3.383-9.561-3.308-13.192.288a9.42 9.42 0 0 0 0 13.415l11.053 10.941a3.042 3.042 0 0 0 4.278 0L29.194 18.68a9.418 9.418 0 0 0-.001-13.415zm-1.425 12.003L16.715 28.209a1.012 1.012 0 0 1-1.425 0L4.237 17.268a7.443 7.443 0 0 1 0-10.591c2.844-2.815 7.416-2.914 10.409-.222l1.356 1.22 1.355-1.22c2.994-2.692 7.566-2.594 10.41.222a7.444 7.444 0 0 1 .001 10.591z"/><path d="M9.253 7.501l-.004.001a4.25 4.25 0 0 0-4.246 4.249.5.5 0 0 0 1 0v-.001a3.25 3.25 0 0 1 3.249-3.249h.001a.5.5 0 0 0 0-1z"/></g></svg>