<svg xmlns="http://www.w3.org/2000/svg" xmlns:xlink="http://www.w3.org/1999/xlink" preserveAspectRatio="xMidYMid" width="26.19" height="20.96" viewBox="0 0 26.19 20.96">
  <defs>
    <style>
      .cls-1 {
        fill: #fff;
        fill-rule: evenodd;
      }
    </style>
  </defs>
  <path d="M26.204,2.468 C25.240,2.889 24.203,3.174 23.116,3.302 C24.227,2.647 25.080,1.610 25.480,0.374 C24.441,0.980 23.291,1.420 22.065,1.657 C21.086,0.628 19.688,-0.014 18.141,-0.014 C15.173,-0.014 12.766,2.357 12.766,5.279 C12.766,5.695 12.812,6.098 12.905,6.485 C8.437,6.264 4.476,4.158 1.823,0.953 C1.360,1.738 1.095,2.647 1.095,3.617 C1.095,5.452 2.045,7.073 3.487,8.023 C2.606,7.997 1.776,7.756 1.051,7.362 L1.051,7.427 C1.051,9.993 2.904,12.133 5.365,12.618 C4.913,12.742 4.439,12.804 3.948,12.804 C3.601,12.804 3.263,12.773 2.937,12.710 C3.620,14.813 5.605,16.345 7.958,16.385 C6.118,17.806 3.800,18.652 1.282,18.652 C0.847,18.652 0.419,18.629 -0.001,18.579 C2.378,20.079 5.204,20.957 8.240,20.957 C18.130,20.957 23.536,12.891 23.536,5.894 C23.536,5.664 23.532,5.435 23.522,5.209 C24.573,4.462 25.485,3.530 26.204,2.468 " class="cls-1"/>
</svg>
