<svg xmlns="http://www.w3.org/2000/svg" xmlns:xlink="http://www.w3.org/1999/xlink" preserveAspectRatio="xMidYMid" width="40" height="28" viewBox="0 0 40 28">
  <defs>
    <style>
      .cls-1 {
        fill: #ff7373;
        fill-rule: evenodd;
      }
    </style>
  </defs>
  <path d="M33.631,24.000 C32.802,26.323 30.603,28.000 27.999,28.000 C25.395,28.000 23.196,26.323 22.368,24.000 L15.631,24.000 C14.802,26.323 12.603,28.000 9.999,28.000 C7.395,28.000 5.196,26.323 4.368,24.000 L0.000,24.000 L0.000,16.000 C0.000,12.691 2.691,10.000 6.000,10.000 C7.103,10.000 8.000,9.103 8.000,8.000 L8.000,6.000 C8.000,2.691 10.691,0.000 14.000,0.000 L15.999,0.000 L15.999,14.000 L40.000,14.000 L40.000,24.000 L33.631,24.000 ZM10.000,20.000 C8.897,20.000 8.000,20.898 8.000,22.000 L8.000,22.005 C8.003,23.105 8.898,24.000 9.999,24.000 C11.102,24.000 11.999,23.103 11.999,22.000 C11.999,20.898 11.102,20.000 10.000,20.000 ZM28.000,20.000 C26.897,20.000 26.000,20.898 26.000,22.000 L26.000,22.005 C26.003,23.105 26.898,24.000 27.999,24.000 C29.102,24.000 29.999,23.103 29.999,22.000 C29.999,20.898 29.102,20.000 28.000,20.000 ZM19.999,0.000 L40.000,0.000 L40.000,10.000 L19.999,10.000 L19.999,0.000 Z" class="cls-1"/>
</svg>
