<svg xmlns="http://www.w3.org/2000/svg" xmlns:xlink="http://www.w3.org/1999/xlink" preserveAspectRatio="xMidYMid" width="39.312" height="39.63" viewBox="0 0 39.312 39.63">
  <defs>
    <style>
      .cls-1 {
        fill: #ff7373;
        fill-rule: evenodd;
      }
    </style>
  </defs>
  <path d="M36.192,25.286 L33.399,22.475 C35.049,20.023 35.747,16.966 35.241,13.835 C34.434,8.837 30.397,4.837 25.422,4.107 C22.387,3.660 19.427,4.378 17.038,6.000 L14.240,3.184 C17.519,0.714 21.693,-0.434 25.987,0.194 C32.640,1.170 38.039,6.519 39.117,13.201 C39.832,17.628 38.702,21.924 36.192,25.286 ZM21.629,7.954 L25.556,7.954 L25.556,13.885 L29.483,13.885 L29.483,17.839 L21.629,17.839 L21.629,7.954 ZM15.492,15.627 L13.700,17.431 C13.696,18.035 14.379,20.099 16.880,22.617 C19.374,25.128 21.419,25.819 22.026,25.819 C22.027,25.819 22.028,25.819 22.030,25.819 L23.822,24.015 C25.356,22.471 27.842,22.471 29.376,24.015 L33.541,28.209 C35.075,29.753 35.075,32.256 33.541,33.800 L29.632,37.737 C28.372,39.005 26.643,39.612 24.624,39.612 C20.069,39.612 14.033,36.526 8.549,31.004 C0.634,23.036 -2.241,13.910 1.863,9.778 L5.772,5.841 C7.306,4.297 9.792,4.297 11.326,5.841 L15.492,10.035 C17.026,11.579 17.025,14.083 15.492,15.627 Z" class="cls-1"/>
</svg>
