<svg xmlns="http://www.w3.org/2000/svg" xmlns:xlink="http://www.w3.org/1999/xlink" preserveAspectRatio="xMidYMid" width="25.5" height="25.5" viewBox="0 0 25.5 25.5">
  <defs>
    <style>
      .cls-1 {
        fill: #fff;
        fill-rule: evenodd;
      }
    </style>
  </defs>
  <path d="M12.750,-0.002 C5.709,-0.002 -0.001,5.707 -0.001,12.749 C-0.001,17.970 3.139,22.455 7.633,24.427 C7.596,23.537 7.627,22.468 7.854,21.499 C8.099,20.465 9.494,14.551 9.494,14.551 C9.494,14.551 9.087,13.737 9.087,12.535 C9.087,10.644 10.183,9.233 11.546,9.233 C12.706,9.233 13.267,10.104 13.267,11.148 C13.267,12.314 12.523,14.057 12.141,15.672 C11.821,17.025 12.819,18.128 14.152,18.128 C16.568,18.128 18.195,15.026 18.195,11.349 C18.195,8.555 16.313,6.464 12.890,6.464 C9.023,6.464 6.613,9.347 6.613,12.569 C6.613,13.680 6.940,14.464 7.453,15.070 C7.689,15.349 7.722,15.461 7.637,15.781 C7.576,16.014 7.435,16.581 7.377,16.804 C7.292,17.127 7.031,17.243 6.739,17.123 C4.957,16.396 4.128,14.445 4.128,12.253 C4.128,8.631 7.181,4.286 13.240,4.286 C18.108,4.286 21.312,7.810 21.312,11.591 C21.312,16.593 18.531,20.329 14.431,20.329 C13.056,20.329 11.761,19.585 11.318,18.741 C11.318,18.741 10.577,21.678 10.420,22.245 C10.151,23.228 9.621,24.210 9.137,24.976 C10.283,25.315 11.495,25.500 12.750,25.500 C19.792,25.500 25.500,19.790 25.500,12.749 C25.500,5.707 19.792,-0.002 12.750,-0.002 " class="cls-1"/>
</svg>
