<svg xmlns="http://www.w3.org/2000/svg" xmlns:xlink="http://www.w3.org/1999/xlink" preserveAspectRatio="xMidYMid" width="60" height="42" viewBox="0 0 60 42">
  <defs>
    <style>
      .cls-1 {
        fill: #fff;
        fill-rule: evenodd;
      }
    </style>
  </defs>
  <path d="M-0.000,0.000 L-0.000,42.000 L60.000,42.000 L60.000,0.000 L-0.000,0.000 ZM53.989,9.694 L41.269,21.004 L53.989,32.314 L53.989,36.004 L49.099,36.004 L36.769,25.024 L31.999,29.253 C31.429,29.734 30.709,30.004 29.989,30.004 C29.299,30.004 28.579,29.734 28.009,29.253 L23.239,25.024 L10.879,36.004 L5.989,36.004 L5.989,32.314 L18.739,21.004 L5.989,9.694 L5.989,6.004 L10.909,6.004 L29.989,22.984 L49.099,6.004 L53.989,6.004 L53.989,9.694 Z" class="cls-1"/>
</svg>
