<svg xmlns="http://www.w3.org/2000/svg" xmlns:xlink="http://www.w3.org/1999/xlink" preserveAspectRatio="xMidYMid" width="20.03" height="20" viewBox="0 0 20.03 20">
  <defs>
    <style>
      .cls-1 {
        fill: #fff;
        fill-rule: evenodd;
      }
    </style>
  </defs>
  <path d="M14.977,6.000 L14.977,5.000 C14.977,2.243 12.751,0.000 10.016,0.000 C7.281,0.000 5.055,2.243 5.055,5.000 L5.055,6.000 L0.008,6.000 L1.166,20.000 L18.866,20.000 L20.024,6.000 L14.977,6.000 ZM7.040,5.000 C7.040,3.346 8.375,2.000 10.016,2.000 C11.657,2.000 12.993,3.346 12.993,5.000 L12.993,6.000 L7.040,6.000 L7.040,5.000 ZM8.032,11.000 L4.063,11.000 L4.063,9.000 L8.032,9.000 L8.032,11.000 ZM15.969,11.000 L12.000,11.000 L12.000,9.000 L15.969,9.000 L15.969,11.000 Z" class="cls-1"/>
</svg>
