<svg xmlns="http://www.w3.org/2000/svg" xmlns:xlink="http://www.w3.org/1999/xlink" preserveAspectRatio="xMidYMid" width="40" height="40" viewBox="0 0 40 40">
  <defs>
    <style>
      .cls-1 {
        fill: #ff7373;
        fill-rule: evenodd;
      }
    </style>
  </defs>
  <path d="M20.000,0.000 C8.972,0.000 0.000,8.972 0.000,20.000 C0.000,31.028 8.972,40.000 20.000,40.000 C31.028,40.000 40.000,31.028 40.000,20.000 C40.000,8.972 31.028,0.000 20.000,0.000 ZM20.000,18.000 C23.309,18.000 26.000,20.691 26.000,24.000 C26.000,26.604 24.323,28.803 22.000,29.632 L22.000,32.000 L18.000,32.000 L18.000,29.631 C15.677,28.803 14.000,26.604 14.000,24.000 L18.000,24.000 C18.000,25.103 18.898,26.000 20.000,26.000 C21.103,26.000 22.000,25.103 22.000,24.000 C22.000,22.898 21.103,22.000 20.000,22.000 C16.691,22.000 14.000,19.308 14.000,16.000 C14.000,13.396 15.677,11.197 18.000,10.369 L18.000,8.000 L22.000,8.000 L22.000,10.369 C24.323,11.197 26.000,13.396 26.000,16.000 L22.000,16.000 C22.000,14.898 21.103,14.000 20.000,14.000 C18.898,14.000 18.000,14.898 18.000,16.000 C18.000,17.103 18.898,18.000 20.000,18.000 Z" class="cls-1"/>
</svg>
