<svg xmlns="http://www.w3.org/2000/svg" xmlns:xlink="http://www.w3.org/1999/xlink" preserveAspectRatio="xMidYMid" width="20" height="14" viewBox="0 0 20 14">
  <defs>
    <style>
      .cls-1 {
        fill: #fff;
        fill-rule: evenodd;
      }
    </style>
  </defs>
  <path d="M-0.000,-0.000 L-0.000,14.000 L20.000,14.000 L20.000,-0.000 L-0.000,-0.000 ZM17.996,3.231 L13.756,7.001 L17.996,10.771 L17.996,12.001 L16.366,12.001 L12.256,8.341 L10.666,9.751 C10.476,9.911 10.236,10.001 9.996,10.001 C9.766,10.001 9.526,9.911 9.336,9.751 L7.746,8.341 L3.626,12.001 L1.996,12.001 L1.996,10.771 L6.246,7.001 L1.996,3.231 L1.996,2.001 L3.636,2.001 L9.996,7.661 L16.366,2.001 L17.996,2.001 L17.996,3.231 Z" class="cls-1"/>
</svg>
