<svg xmlns="http://www.w3.org/2000/svg" xmlns:xlink="http://www.w3.org/1999/xlink" preserveAspectRatio="xMidYMid" width="40" height="39.97" viewBox="0 0 40 39.97">
  <defs>
    <style>
      .cls-1 {
        fill: #ff7373;
        fill-rule: evenodd;
      }
    </style>
  </defs>
  <path d="M31.999,25.972 C31.999,24.868 32.894,23.973 33.999,23.973 L39.999,23.973 L39.999,27.971 L33.999,27.971 C32.894,27.971 31.999,27.076 31.999,25.972 ZM40.000,39.971 L-0.000,39.971 L-0.000,11.983 L40.000,11.983 L40.000,19.980 L34.000,19.980 C30.686,19.980 28.000,22.665 28.000,25.977 C28.000,29.289 30.686,31.975 34.000,31.975 L40.000,31.975 L40.000,39.971 ZM12.440,0.709 C12.820,0.269 13.360,-0.011 13.940,-0.011 C14.540,-0.031 15.100,0.209 15.480,0.649 L20.100,5.766 L23.580,2.528 C24.360,1.788 25.580,1.808 26.340,2.548 L31.980,7.985 L6.500,7.985 L12.440,0.709 Z" class="cls-1"/>
</svg>
