<?xml version="1.0" standalone="no"?>
<!DOCTYPE svg PUBLIC "-//W3C//DTD SVG 1.1//EN" "http://www.w3.org/Graphics/SVG/1.1/DTD/svg11.dtd" >
<svg xmlns="http://www.w3.org/2000/svg">
<metadata></metadata>
<defs>
<font id="svgfont_1regular" horiz-adv-x="2048" >
<font-face units-per-em="2048" ascent="1638" descent="-410" />
<missing-glyph horiz-adv-x="500" />
<glyph horiz-adv-x="0" />
<glyph unicode="&#xd;" />
<glyph unicode="a" d="M69 607q0 47 19 92q20 47 54 87t81 64t97 24q92 0 172 -79t80 -171q0 -126 -60 -192q-57 -62 -159 -62h-13q-84 4 -90 8l34 8q14 2 32 4q104 16 165 80q59 62 59 144v5q-2 85 -70 153q-65 65 -133 65q-77 0 -159 -83q-52 -52 -65 -90q-7 -20 -7 -47q0 -25 6 -57 q11 -52 11 -69q0 -9 -3 -9q-4 -2 -24 28q-27 44 -27 97zM202 580q0 10 6 56q2 36 13 55t34 28t69 13q22 2 40 2q38 0 54 -9q24 -13 38 -69q6 -25 6 -48q0 -25 -7 -48q-13 -44 -49 -68q-33 -22 -77 -22h-7l-72 2l72 28q50 20 76 45t26 53t-24 58q-38 47 -80 47q-6 0 -12 -1 q-48 -8 -76 -74q-22 -50 -26 -54t-4 6zM393 1055q-14 44 -14 86q0 52 21 103q26 62 73 102t99 51q26 6 53 5.5t54 -5.5q55 -11 98 -43t71 -88t28 -124q0 -50 -8 -83t-27 -60t-55 -55q-30 -24 -56 -39t-52 -22t-53 -5t-55 11t-64 27q-82 42 -113 139zM416 1109 q16 -65 68 -117q76 -76 129 -79h5q52 0 136 65q80 64 88 153q1 10 1 20q0 76 -56 133q-63 64 -169 64q-74 0 -127 -35t-72 -87q-10 -28 -10 -60q0 -27 7 -57zM510 1186q6 46 28 62t80 16q90 0 133 -56q22 -29 22 -61q0 -29 -19 -61q-36 -58 -127 -69q-16 -2 -30 -2 q-64 0 -80 41q-12 31 -12 73q0 26 5 57zM538 1148q0 -84 57 -102q12 -4 24 -4q45 0 89 54q28 32 26 52t-32 52q-30 28 -69 31h-9q-34 0 -58 -21q-28 -24 -28 -62zM642 610q14 80 80 146q38 40 100 64q57 22 102 22h7q47 -2 47 -32q0 -14 -19 -18t-47 4q-8 2 -18 2 q-33 0 -78 -27q-58 -35 -101 -92t-43 -101q0 -42 18 -82t47 -68t69 -45t84 -17q98 0 147 47t77 165l26 110l4 -106v-10q0 -51 -19 -98q-21 -52 -58 -87t-82 -57q-43 -21 -92 -21h-5q-52 1 -96 27q-86 48 -125 121q-29 54 -29 111q0 21 4 42zM774 502q-18 34 -18 67 q0 34 19 68q36 65 107 65h4l74 -2l-78 -32q-69 -27 -69 -89q0 -8 1 -17q4 -30 19 -52t35 -30t39 -7t36 17t25 42q6 30 21 50t27 20q38 0 22 -44q-8 -22 -28 -60q-33 -63 -114 -63h-3q-83 1 -119 67zM860 1380q-4 6 -4 12q0 22 52 36q72 18 324 40q120 10 180 10t59 -10 q0 -17 -171 -64l-22 -6q-156 -42 -276 -47q-15 -1 -29 -1q-94 0 -113 30zM887 916q-2 2 -2 5t3 8q6 9 21 27t45 30t77 18t113 6q50 0 117 7t131 19t108 24q70 22 123 32t59 4q10 -10 10 -19q0 -26 -78 -49q-86 -24 -270 -48q-130 -18 -247 -35t-151 -23q-28 -6 -41 -8t-18 2 zM956 1258q0 6 16 12q21 9 36 9q17 0 28 -11q12 -12 -16 -18h-28q-36 2 -36 8zM978 1128q0 14 1 26t3 19t4 7q20 2 314 36t336 40q16 2 33 -1t28 -10t15 -17q1 -1 1 -3q0 -20 -106 -54q-113 -37 -263 -66q-140 -27 -226 -27h-12q-128 0 -128 50zM1114 840q0 14 27 24t65 10 q94 0 332 16l236 16l-136 -46q-74 -28 -202 -42q-90 -10 -164 -10q-32 0 -61 2q-97 6 -97 30zM1182 400q0 14 36 24t88 10q105 0 105 -11q0 -5 -19 -11q-28 -10 -100 -24q-35 -6 -61 -6q-10 0 -18 1q-31 3 -31 17zM1198 1282l170 50q168 49 221 49q25 0 25 -10q0 -8 -14 -23 q-4 -6 -19 -12t-36 -12t-47 -11t-56 -9t-60 -6zM1216 534q0 28 29 46t99 31t206 27q106 12 202 27t124 25q57 20 57 12q0 -1 -1 -2q-10 -24 -172 -98l-60 -28q-86 -36 -202 -56q-101 -17 -177 -17h-22q-83 3 -83 33zM1470 706l186 62q76 26 140 39q44 9 63 9q9 0 13 -2 q14 -8 14 -16q0 -18 -68 -38q-68 -22 -180 -34zM1672 464l86 52q87 53 119 53q7 0 11 -3q3 -1 3 -4q0 -7 -17 -24q-32 -30 -116 -52z" />
<glyph unicode="b" d="M106 1441q14 73 128 195q34 36 69 70t64 58t50 38t31 14q18 0 70 -74t108 -178q86 -158 93 -226q1 -7 1 -14q0 -61 -54 -126q-20 -26 -31 -47t-9 -48t14 -53t43 -66t73 -84t108 -110q102 -102 159 -152t107 -74q39 -19 68 -19q8 0 16 2q34 7 84 39q77 47 144 47 q8 0 15 -1q73 -6 215 -78q210 -110 217 -183v-5q0 -73 -177 -214q-66 -52 -105 -78t-89 -44t-83 -18t-97 18t-123 46t-167 80q-296 148 -570 466q-250 292 -330 558q-45 150 -45 227q0 19 3 34z" />
<glyph unicode="c" d="M74 926v480l318 -226q172 -122 214 -221q14 -34 14 -67q0 -65 -53 -130q-81 -98 -301 -216q-70 -36 -103 -43q-5 -1 -9 -1q-27 0 -47 38q-23 44 -28 127t-5 259zM128 1594l902 2l902 4v-678v-680h-900h-900l222 222q134 134 384 208q203 60 395 60q44 0 87 -3 q232 -17 322 -125q52 -62 121 -107t115 -45q28 0 28 23q0 25 -34 79q-40 62 -110 138l-224 240l230 230q144 144 146 208q0 22 -26 22q-44 0 -149 -77t-206 -185t-206 -184q-104 -75 -150 -75h-1q-46 1 -202 107t-328 254z" />
<glyph unicode="d" d="M456 900l490 460q278 260 399 349q90 67 132 67q14 0 23 -8q11 -9 11 -26q0 -35 -53 -101q-78 -97 -326 -335l-430 -408l434 -408q256 -242 331 -336q50 -62 50 -97q0 -18 -13 -29q-12 -8 -28 -8t-39 9t-55 31t-72 54t-95 79t-120 107t-149 138z" />
<glyph unicode="e" d="M492 1786q10 8 26 8q11 0 26 -4q34 -10 100 -59t160 -130t234 -209q202 -188 346 -329t144 -155q0 -8 -66 -77t-179 -178t-245 -231q-146 -136 -239 -217t-160 -130t-98 -56q-11 -3 -21 -3q-17 0 -30 8q-10 10 -10 26q0 38 56 108q80 100 330 336l438 410l-434 412 q-62 60 -112 108t-91 90t-71 76t-53 62t-36 49t-19 37q-5 14 -5 24q0 15 9 24z" />
<glyph unicode="f" d="M112 10v328q0 236 70 310q19 19 36 19q30 0 56 -53q30 -54 44 -158q8 -54 18 -84t42 -58t71 -41t126 -26t185 -18t270 -13q244 -10 386 -10q126 0 172 8q94 18 114 82q10 34 10 132t28 169t66 71t66 -97t28 -233v-328h-894h-894zM744 1118q6 20 26 20q38 0 67 97t29 233 q0 172 33 250t107 78q142 0 142 -262q0 -110 33 -221t81 -157q53 -55 53 -106q0 -13 -3 -25q-16 -63 -130 -177l-192 -192l-160 240q-88 137 -88 203q0 10 2 19z" />
<glyph unicode="g" d="M100 560v48v107t4 84t5 68t14 47t19 37t33 22t42 15t60 4q30 3 53 3q11 0 21 -1q29 -2 93 -4h42q49 -2 94 -2q56 0 105 3q89 5 103 15q10 6 34 37t54 78t60 99q60 106 79 170q12 39 12 75q0 22 -5 43q-4 26 -4 49t5 42t16 34t26 25t35 17t45 8h17q17 0 36 -1 q92 -12 143 -143q35 -89 35 -193q0 -50 -8 -102l-20 -146h260q116 0 195 -11t89 -29q4 -10 4 -45v-26q-2 -57 -14 -151t-30 -198q0 -8 -4 -22q-18 -110 -25 -156t-30 -113t-31 -86t-53 -51t-70 -35t-107 -11q-66 -6 -115 -6h-23q-56 2 -188 6h-28q-101 3 -187 3 q-72 0 -132 -2q-133 -5 -133 -15q0 -26 -318 -26q-260 2 -284 24q-10 8 -17 130t-7 282zM170 194h244h246l-10 356l-10 356l-236 10l-234 10v-366v-366zM692 435q0 -45 24 -94t46 -63t102 -29t153 -16t235 -3q122 0 199 2t130 8t79 15t38 25q18 22 25 52t-1 52q-6 14 -5 28 t6 27t15 19q16 8 22 39q3 15 3 32t-3 35q-4 24 -4 45t6 37t14 22q14 8 18 38t-6 62q-4 18 -5 34t1 30t7 24t13 16q8 4 16 19t13 33t5 36q0 46 -45 57t-237 11h-280l24 172q9 66 9 125q0 97 -25 174q-37 114 -106 114q-6 0 -12 -1q-24 -4 -38 -12t-25 -28t-18 -50t-13 -80 q-8 -82 -63 -203t-127 -222t-126 -131q-40 -22 -52 -78t-12 -228v-145z" />
<glyph unicode="h" d="M107 588q1 22 9 37t20 15q4 0 8 7t7 20t5 32t4 44t4 53t2 62v70q0 196 11 248t53 76q26 14 57 19t49 -3q38 -14 43 -74q1 -8 1 -15q0 -48 -30 -67q-4 -2 -7 -10t-6 -21t-6 -30t-5 -38t-4 -44t-2 -49v-54v-226h244h244v272q0 272 -34 284q-24 8 26 40l22 14q48 26 76 27h2 q27 0 62 -21q34 -22 77 -31q24 -5 44 -5q16 0 29 3q30 7 30 27q0 4 4 7t12 6t18 6t24 5t29 3t32 2t35 1h58t41 -3t28 -7t15 -12t8 -18t2 -24q0 -48 -33 -54q-10 -2 -32 -2q-52 0 -171 10q-98 8 -171 23t-77 27q0 4 -5 9t-12 9t-15 6t-18 4t-20 2q-36 0 -44 -30 q-9 -28 -9 -165q0 -78 3 -193l8 -390h-282h-282v328q0 148 9 238t23 90q12 0 21 18t9 43t-11 43t-27 18q-32 0 -50 -10t-32 -32t-21 -72t-11 -118t-8 -184q-8 -344 -38 -354q-4 -2 -8 0q-14 4 -23 22t-12 41q-2 17 -2 34v11zM950 508q0 18 2 48l12 100l470 -10l472 -8v-76 v-74h-440q-440 0 -482 -16q-10 -3 -17 -3h-3q-8 1 -11 11t-3 28z" />
<glyph unicode="i" d="M260 566q16 110 258 629t304 569q6 5 13 5q8 0 18 -6q19 -11 49 -48t70 -100t96 -159q320 -544 390 -778q28 -93 28 -177q0 -127 -64 -233q-78 -124 -239 -198q-155 -71 -327 -71h-14q-180 3 -304 87q-148 98 -221 225q-60 104 -60 209q0 23 3 46zM336 462 q18 -86 102 -185t194 -159q73 -41 209 -41q18 0 37 1q164 6 272 56q78 38 140 99t96 135t34 148q0 54 -96 274t-219 455t-195 327l-66 88l-134 -240q-184 -330 -288 -595q-89 -226 -89 -330q0 -19 3 -33zM1310 1198q0 52 39 153t89 181t74 80q32 0 135 -184t103 -240 q0 -46 -49 -86t-113 -59q-49 -14 -99 -14q-16 0 -32 1q-67 6 -103 40q-8 10 -17 25t-15 32t-9 36t-3 35zM1394 1158q22 -54 111 -56h7q84 0 126 50q19 23 19 55q0 9 -2 19q-7 44 -55 136l-80 158l-74 -152q-30 -62 -45 -124q-10 -40 -10 -65q0 -13 3 -21z" />
<glyph unicode="j" d="M100 906q-2 15 -2 28q0 38 14 55q18 23 82 35q60 12 94 47t62 111t30 116v6q0 36 -22 58q-34 34 -42 74q-3 13 -3 25q0 25 12 46q17 31 46 52q28 20 67 20h4q42 -1 84 -27q22 -14 38 -22t33 -11t38 1t45 12t62 24q80 34 109 65t29 85q0 30 4 47t16 28t32 15t54 4 q66 0 91 -20t39 -84q14 -70 74 -117t136 -52q10 -1 19 -1l133 30q66 34 94 34h3q27 -2 67 -46q40 -46 40 -70t-38 -80q-26 -34 -33 -81q-3 -18 -3 -36q0 -29 7 -57q11 -46 34 -87t59 -70t78 -39q64 -12 84 -37t20 -91q0 -68 -17 -88t-75 -20q-54 0 -86 -29t-66 -107 q-37 -93 -37 -130t35 -90q35 -54 35 -83q0 -28 -31 -69q-32 -44 -58 -48h-7q-27 0 -85 26q-63 24 -126 24l-34 -2q-80 -8 -145 -57t-77 -117q-12 -56 -35 -80t-69 -24q-82 2 -108 26q-10 10 -17 38t-7 56q0 40 -41 77t-98 57t-119 25q-10 1 -20 1q-49 0 -86 -22 q-51 -27 -78 -27h-5q-27 3 -67 42q-42 41 -42 71q0 28 28 80q22 39 22 88q0 9 -1 19q-5 61 -26 117t-62 97t-85 47q-24 4 -41 12t-29 21t-19 32t-11 47zM176 858q24 -20 66 -24q40 -4 78 -36t64 -79t42 -99q13 -44 13 -87v-16q-3 -51 -25 -85q-33 -51 -33 -85q0 -24 16 -40 t40 -16q34 0 85 33q30 18 49 26t46 6t58 -12t85 -32q84 -36 120 -69t36 -75q0 -72 32 -105q19 -19 39 -19q14 0 28 9q35 23 45 93q4 34 40 71t85 66t104 50t100 23h9q39 0 62 -16q22 -20 56 -26t60 2q40 16 41 34v1q0 19 -35 73q-10 14 -16 25t-11 24t-6 23t-1 23t3 26 t10 31t14 37t19 45q32 70 72 115t82 55q82 20 98 74q3 10 3 19q0 35 -43 49q-18 6 -42 6q-40 0 -66 14t-49 47t-53 97q-48 108 -50 148v4q0 39 34 96q34 54 34 90q0 23 -15 38q-14 15 -36 15q-34 0 -85 -37q-30 -20 -48 -28t-46 -7t-57 12t-87 37q-74 34 -120 74t-56 82 q-12 52 -42 73q-15 11 -30 11l-30 -11q-30 -21 -44 -73q-20 -86 -172 -154q-98 -44 -138 -47h-7q-37 0 -77 29q-44 30 -79 30q-7 0 -14 -1q-41 -7 -46 -47q-1 -5 -1 -11q0 -37 28 -85q34 -51 34 -87v-8q-4 -39 -54 -141q-74 -154 -158 -166q-42 -6 -63 -27q-20 -20 -20 -41 q0 -23 25 -44zM562 776q-17 68 -17 132q0 114 53 218q62 120 157 172t249 52q118 0 173 -22t137 -105t104 -137t22 -172q0 -52 -7 -105t-20 -96t-31 -67q-96 -136 -283 -177q-62 -14 -121 -14q-117 0 -220 55q-148 80 -196 266zM584 877q4 -39 17 -79t35 -86 q84 -160 248 -203q50 -13 100 -13q113 0 224 68q174 106 195 290q3 23 3 45q0 157 -129 286t-287 129q-22 0 -44 -2q-184 -20 -292 -194q-26 -46 -43 -86t-24 -78q-4 -24 -4 -49q0 -14 1 -28z" />
<glyph unicode="k" d="M118 42l10 864l10 862h870h872l10 -862l10 -864h-892h-890zM190 178q0 -66 20 -83t100 -17q118 0 200 90l84 88l-84 90q-22 24 -46 44t-43 32t-29 12q-58 0 -130 -91t-72 -165zM190 346l382 380l380 382l-84 90q-18 18 -36 35t-34 29t-29 19t-19 7q-14 0 -101 -75 t-195 -181l-264 -254v-216v-216zM190 846l126 122l124 120l-96 100q-40 42 -76 71t-48 29q-8 0 -15 -30t-11 -81t-4 -109v-222zM190 1536q0 -178 11 -178t185 178l176 178h-186h-186v-178zM258 1350l98 -104q40 -42 77 -69t47 -23q26 10 295 271t269 275q0 6 -55 10t-133 4 q-132 0 -191 -27t-203 -155zM436 496l80 -84q20 -24 44 -43t43 -30t31 -11q16 0 162 135t336 325l460 462l-84 90q-36 38 -69 62t-43 20q-26 -10 -494 -468zM494 78h178q132 0 191 37t263 241l276 278l-92 84l-90 86l-364 -362zM796 1344l94 -98l94 -98l290 274l292 274 l-196 12q-44 2 -64 3t-51 -1t-42 -4t-37 -14t-37 -21t-41 -34t-50 -44t-62 -61zM960 78h200q82 0 147 9t72 21t-16 49t-63 75l-100 96l-120 -126zM1258 384l96 -100l96 -100l188 186q54 52 79 78t51 59t34 50t16 52t8 62v81v196l-284 -282zM1278 864l86 -90q84 -92 104 -92 q4 0 21 14t42 36t58 53t67 65q88 88 119 130t41 88t10 146v198l-274 -274zM1436 1488l78 -82q70 -76 111 -77h1q41 0 118 71q56 52 78 128q11 39 11 72q0 32 -10 59q-21 55 -75 55q-32 0 -89 -33t-105 -81zM1472 106q0 -6 14 -11t38 -9t57 -6t69 -2h176v178q0 48 -3 89 t-9 65t-12 24q-26 0 -178 -151t-152 -177z" />
<glyph unicode="l" d="M94 444q0 4 2 8q16 44 166 498q122 364 148 394q18 22 38 -20q4 -10 10 -26q44 -104 46 -148q2 -48 24 -46q32 4 56 86q4 14 8 30q22 114 68 218l46 104l50 -122l52 -122l78 236q34 98 65 167t43 69t44 -69t64 -167l78 -236l52 122l52 122l46 -104q12 -28 25 -67t25 -80 t18 -71q20 -94 56 -114q22 -10 28 26q2 8 2 18q2 18 15 62t31 86q24 56 36 56q24 0 90 -192l70 -212q150 -454 166 -498q2 -5 2 -9q0 -19 -36 -27q-34 -6 -108 -6h-158l-14 -184l-12 -182l-6 182l-8 184h-262h-260v-158q0 -64 -11 -110t-25 -46q-8 0 -17 21t-13 57t-4 78 v158h-260h-260l-12 -184l-14 -182l-6 182l-6 184h-162q-146 0 -146 34zM172 506q-4 -14 -4 -25q0 -18 12 -25q20 -12 98 -12q86 0 106 17t24 97l4 112l14 -112q14 -111 61 -111h2q49 3 87 119q19 59 19 114q0 19 -2 37q-9 71 -73 259l-96 288l-116 -348q-48 -142 -88 -263 t-48 -147zM594 902q16 -88 34 -90q14 -2 34 44q20 48 58 170q34 110 39 172q1 12 1 24q0 48 -16 90q-22 56 -34 56q-14 0 -64 -140l-6 -16q-32 -92 -44 -172q-7 -44 -7 -81q0 -31 5 -57zM610 486q0 -42 176 -42h71t47 5t32 9t15 18t8 27t1 41q0 40 -21 88t-49 74t-49 55 t-21 43q0 11 9 11q13 0 45 -25q8 -8 16 -14q18 -16 26 -23t17 -14t13 -4t8 4t4 16t1 28t1 39q0 22 3 43t7 36t11 23t13 8q14 0 25 -32t11 -78q0 -80 9 -86q1 -1 3 -1q12 0 58 41q42 33 59 33q7 0 9 -5q0 -8 -5 -19t-14 -24t-22 -28t-27 -27q-30 -26 -50 -74t-20 -88v-41 t8 -27t15 -18t31 -9t48 -5h72q42 0 75 3t55 8t33 13t11 18q0 50 -184 597t-200 547t-200 -547t-184 -597zM690 200q0 96 9 96h1q2 -2 6 -18q7 -39 7 -78t-7 -78q-5 -21 -8 -21q-4 0 -6 31q-2 26 -2 68zM1226 1200q4 -56 34 -152l2 -4q72 -224 88 -232q8 -6 18 16q6 14 18 56 l2 2q13 46 13 93q0 18 -2 36q-7 65 -47 185q-56 162 -70 168h-2q-9 0 -20 -22q-4 -10 -16 -36q-19 -46 -19 -93q0 -8 1 -17zM1284 200q0 96 7 96h1q4 -2 6 -18q8 -39 8 -78t-8 -78q-4 -21 -6 -21q-3 0 -6 31q-2 26 -2 68zM1396 717q-3 -20 -3 -40q0 -53 19 -111 q26 -76 59 -106q17 -16 33 -16q14 0 25 13q25 27 29 101l6 112l14 -112q6 -56 17 -77t35 -29t84 -8q76 0 95 12q12 7 12 24q0 11 -5 26q-20 64 -136 410l-116 348l-96 -288q-62 -188 -72 -259z" />
<glyph unicode="m" d="M167 257q-7 22 -7 44q0 28 12 56q22 49 96 123q34 34 57 54t43 34t30 12t19 -11t10 -35t3 -60q1 -11 1 -25q0 -27 -3 -61v-18q0 -126 52 -190q56 -68 194 -88q36 -5 69 -5q59 0 109 16q78 25 116 79t46 121q1 11 1 22q0 57 -34 120q-41 75 -123 135q-72 54 -106 90 t-42 82q-2 13 -2 27q0 33 14 68q20 49 70 131q64 104 82 227q8 53 8 101q0 64 -14 121q-24 99 -89 165t-153 66q-66 0 -99 -32t-40 -108q-2 -20 -2 -43q0 -66 15 -159q9 -64 9 -115q0 -116 -47 -167q-23 -26 -48 -26q-30 0 -62 36q-56 62 -84 204q-9 43 -9 83q0 93 45 178 q64 121 200 192t310 71q68 0 113 -4t82 -16t53 -31t29 -50q11 -25 11 -58q0 -8 -1 -16q-3 -43 -7 -101q-12 -116 -45 -235t-66 -173q-21 -34 -20 -93q0 -36 7 -82q20 -121 82 -237q34 -60 54 -113t29 -100q7 -35 6 -68v-22q-3 -43 -18 -84t-41 -83q-78 -126 -242 -185 q-111 -40 -224 -40q-54 0 -108 9q-168 28 -258 138q-66 78 -83 129zM1476 955q8 79 92 195q102 138 130 138h1q25 0 25 -108q0 -30 5 -60t14 -56t22 -47t28 -36t33 -21q34 -13 34 -47q0 -8 -2 -17q-10 -48 -66 -98q-70 -66 -128 -66h-3q-59 2 -126 73q-60 63 -60 133 q0 9 1 17z" />
<glyph unicode="n" d="M502 963q0 69 49 119t119 50q52 0 90 33t59 94t21 143q0 128 59 219t175 138t280 47q44 0 81 -22t58 -61t21 -85q0 -22 -6 -44t-17 -41t-27 -34t-34 -26t-40 -17t-44 -6q-20 0 -39 -5t-36 -13t-31 -20t-26 -26t-20 -31t-13 -36t-5 -39q0 -68 50 -118t119 -50t119 -34 t50 -82t-50 -101t-118 -79q-78 -30 -124 -150t-46 -296q0 -80 -6 -142t-19 -107t-33 -75t-47 -44t-63 -14q-88 0 -128 93t-40 300t-41 300t-129 93q-70 0 -119 50t-49 119z" />
<glyph unicode="o" d="M120 484q-3 88 -3 180q0 185 11 388l34 738h866h864v-864v-866l-838 -34q-181 -8 -324 -8q-352 0 -472 46q-80 32 -104 90q-26 66 -34 330zM334 232h694h692l-6 434l-4 432l-164 -304q-110 -200 -246 -303t-273 -103t-273 103t-244 303l-166 304l-4 -432zM713 886 q15 -52 79 -128q96 -116 166 -150q35 -17 69.5 -17t69.5 17q69 34 165 150q64 76 79 128q5 19 5 37q0 34 -17 69q-27 54 -109 136q-34 34 -56 54t-45 40t-40 26t-34 13t-35 0t-35 -13t-40 -26t-45 -40t-54 -54q-82 -82 -110 -136q-18 -35 -18 -69q0 -19 5 -37zM1381 1533 q-7 -20 -7 -41q0 -68 76 -144t144 -76q21 0 41 7q85 31 85 165q0 72 -51 123t-123 51q-134 0 -165 -85z" />
<glyph unicode="p" d="M114 1548q8 35 40 35q20 0 50 -15q44 -22 178 -116q184 -128 331 -177q81 -27 142 -27q51 0 88 18q83 40 83 162q0 86 62 157t161 107t224 43q18 1 36 1q107 0 213 -36q120 -38 169 -114q28 -44 28 -93q0 -36 -15 -75q-32 -82 -54 -199t-22 -201q0 -130 -125 -305 t-304 -322t-391 -250t-374 -103q-248 0 -364 72q-46 30 -46 62q0 36 20 66t54 48t76 18q71 0 71 45q0 44 -67 131l-24 28q-26 34 -55 89t-54 124t-47 146t-39 160t-25 161q-24 215 -24 306q0 38 4 54z" />
<glyph unicode="q" d="M125 906q-9 9 -9 18t9 18q19 18 61 33t122 27t186 18l386 24l22 386q6 104 19 184t28 123t33 62q9 9 17.5 9t17.5 -9q17 -19 33 -62t28 -123t18 -184l22 -386l388 -24q92 -4 165 -14t118 -23t69 -28t24 -31t-25 -31t-71 -28t-119 -23t-165 -16l-390 -22v-364 q0 -372 -92 -422q-12 -6 -24 -6q-28 0 -60 32q-14 14 -25 73t-17 147t-6 184v356l-390 22q-106 6 -186 19t-124 28t-63 33z" />
<glyph unicode="r" d="M84 102l262 288q64 74 100 116t62 83t30 62t-8 46t-36 41t-70 42q-74 42 -121 126t-57 184q-4 40 -4 80q0 60 9 120q15 100 66 184t127 124q40 22 128 42t200 35t245 23t261 8h632v-528q0 -206 -24 -379t-68 -295t-106 -190t-134 -68q-39 0 -39 30q0 20 17 52 q24 50 78 110q80 90 126 268t46 408v488h-606q-200 0 -340 -15t-242 -49t-160 -92t-85 -138t-27 -194q0 -126 62 -197t198 -107q108 -26 185 -87t77 -118t53 -130t129 -117q110 -63 110 -95q0 -13 -24 -13h-5q-25 0 -67 19q-46 21 -99 57t-99 78q-44 38 -72 59t-62 31t-62 6 t-73 -26t-90 -54t-119 -88zM974 1106q0 152 28 156h1q22 0 61 -64q20 -28 48 -62t59 -65t65 -59t62 -46q61 -39 61 -61q0 -14 -25 -21q-36 -10 -128 -10q-34 0 -61 2t-50 9t-40 16t-31 23t-24 32t-16 41t-9 50q-2 16 -2 34q0 12 1 25zM1180 1220q0 52 30 87t76 43 q23 4 46.5 4t48.5 -4q49 -8 93 -43t64 -87q9 -25 9 -46q0 -16 -5 -29q-12 -31 -53 -48t-103 -17q-86 0 -146 41t-60 99z" />
<glyph unicode="s" d="M312 12v888q0 366 8 627t20 261q26 0 684 -440l658 -438l-306 -196q-308 -196 -686 -448z" />
<glyph unicode="t" d="M406 1076q-7 43 -7 85q0 152 85 295q108 182 302 262q136 54 202 59q8 1 18 1q64 0 168 -30q114 -34 199 -92t143 -142t92 -198q30 -100 30 -170v-16q-4 -74 -52 -218q-22 -66 -57 -145t-81 -162t-99 -168t-113 -167t-120 -154l-102 -124l-180 234q-168 220 -286 454 t-142 396zM734 1155q0 -67 108 -175t176 -108q54 0 150 84q14 12 26 24q14 14 28 30t25 32t21 33t17 31t11 27t4 23q0 22 -15 52t-39 61t-54 62t-61 54t-62 38t-51 15q-68 0 -176 -108t-108 -175z" />
<glyph unicode="&#x2000;" horiz-adv-x="1024" />
<glyph unicode="&#x2001;" />
<glyph unicode="&#x2002;" horiz-adv-x="1024" />
<glyph unicode="&#x2003;" />
<glyph unicode="&#x2004;" horiz-adv-x="682" />
<glyph unicode="&#x2005;" horiz-adv-x="512" />
<glyph unicode="&#x2006;" horiz-adv-x="341" />
<glyph unicode="&#x2007;" horiz-adv-x="341" />
<glyph unicode="&#x2008;" horiz-adv-x="256" />
<glyph unicode="&#x2009;" horiz-adv-x="409" />
<glyph unicode="&#x200a;" horiz-adv-x="113" />
<glyph unicode="&#x202f;" horiz-adv-x="409" />
<glyph unicode="&#x205f;" horiz-adv-x="512" />
<glyph unicode="&#x25fc;" horiz-adv-x="1000" d="M0 0z" />
</font>
</defs>
</svg>
