<?xml version="1.0" standalone="no"?>
<!DOCTYPE svg PUBLIC "-//W3C//DTD SVG 1.1//EN" "http://www.w3.org/Graphics/SVG/1.1/DTD/svg11.dtd" >
<svg xmlns="http://www.w3.org/2000/svg" xmlns:xlink="http://www.w3.org/1999/xlink" version="1.1">
<metadata>
Created by FontForge 20160407 at Mon Oct 17 18:31:30 2016
 By Jimmy Wärting
(c) Copyright 2005, Arphic Technology Co., Ltd.Copyright \(c\) 1997 enStep Incorporated. All Rights Reserved.
</metadata>
<defs>
<font id="ARDECODE" horiz-adv-x="319" >
  <font-face 
    font-family="AR DECODE"
    font-weight="5"
    font-stretch="normal"
    units-per-em="1000"
    panose-1="2 0 0 0 0 0 0 0 0 0"
    ascent="800"
    descent="-200"
    x-height="273"
    cap-height="664"
    bbox="-356 -334 1387 877"
    underline-thickness="0"
    underline-position="0"
    unicode-range="U+0020-2122"
  />
<missing-glyph horiz-adv-x="500" 
 />
    <glyph glyph-name=".notdef" horiz-adv-x="500" 
 />
    <glyph glyph-name="quotesingle" unicode="'" horiz-adv-x="114" 
d="M45 394q5 13 11.5 28.5t19.5 15.5q8 0 15 -6t7 -15q0 -10 -34 -56q-16 -22 -37 -48l-11 6z" />
    <glyph glyph-name="parenleft" unicode="(" horiz-adv-x="333" 
d="M-22 -114l-1 24q0 212 110.5 440t276.5 365h25q-144 -144 -255 -385q-105 -228 -138 -444h-18z" />
    <glyph glyph-name="parenright" unicode=")" horiz-adv-x="362" 
d="M378 715l1 -24q0 -214 -109.5 -438t-278.5 -367h-25q147 145 257 385q103 223 137 444h18z" />
    <glyph glyph-name="asterisk" unicode="*" horiz-adv-x="311" 
d="M122 554q-1 -1 -1 -0.5t-1 -0.5q1 0 2 1zM153 556l2 -2zM175 474q0 -19 -20 -19q-7 0 -13.5 5.5t-6.5 13.5q0 12 3 27.5t6 31.5q1 5 0.5 2.5t0.5 2.5q-5 -5 -10 -9t-9 -6q-33 -28 -41 -28q-20 0 -20 22q0 14 44 31l4 2q2 1 3.5 1.5t3.5 1.5q1 0 3 1q2 0 8 2q-7 2 -12 3.5
t-9 3.5q-45 16 -45 32q0 21 20 21q5 0 15.5 -7.5t24.5 -18.5q5 -3 7 -5t13 -12q-6 32 -10 64q0 19 20 19t20 -18q0 -13 -3 -28t-6 -31q-1 -5 -0.5 -2.5t-0.5 -2.5q13 11 19 15q15 12 25.5 19.5t15.5 7.5q20 0 20 -21q0 -15 -44 -32q-7 -2 -8.5 -2.5t-14.5 -4.5
q8 -2 12.5 -3.5t9.5 -3.5q45 -17 45 -32q0 -8 -6 -15t-13 -7q-6 0 -20 10t-33 26q-6 4 -9 7q2 -17 5 -31.5t6 -31.5v-1z" />
    <glyph glyph-name="plus" unicode="+" horiz-adv-x="499" 
d="M32 219l14 14h186v180q0 15 16 15q14 0 14 -15v-180h188q14 0 14 -16q0 -14 -14 -14h-188v-199q0 -15 -16 -15q-14 0 -14 15v199h-188z" />
    <glyph glyph-name="comma" unicode="," horiz-adv-x="178" 
d="M14 -56q15 11 31 26q21 19 24 31h-4q-19 0 -19 21q0 14 9 26t24 12q23 0 23 -25q0 -24 -27 -55t-52 -44z" />
    <glyph glyph-name="hyphen" unicode="-" horiz-adv-x="255" 
d="M214 160v-36h-166v36h166z" />
    <glyph glyph-name="period" unicode="." horiz-adv-x="167" 
d="M91 60q21 0 21 -22q0 -16 -10.5 -29.5t-26.5 -13.5q-21 0 -21 22q0 15 11 29t26 14z" />
    <glyph glyph-name="slash" unicode="/" horiz-adv-x="387" 
d="M-25 -112h-38l497 827h37z" />
    <glyph glyph-name="zero" unicode="0" horiz-adv-x="394" 
d="M344 375l6 13l14 6q24 -6 36 -26.5t12 -47.5q0 -94 -96 -208q-100 -118 -191 -118q-45 0 -73.5 25.5t-28.5 70.5q0 110 121 229t231 119q29 0 50 -7q32 -11 32 -34l-5 -12l-11 -5q-9 2 -34 20t-54 18q-89 0 -183 -117q-90 -112 -90 -204q0 -35 15 -56.5t49 -21.5
q76 0 158 104q79 100 79 179q0 28 -16 45q-19 20 -21 28z" />
    <glyph glyph-name="one" unicode="1" horiz-adv-x="201" 
d="M-10 0q50 96 134 211l150 200q-42 -28 -90 -55t-93 -46l-7 23q50 16 114 53q90 52 110 61q10 0 10 -9q-2 -7 -36 -52q-22 -29 -43 -57q-51 -76 -99 -162q-41 -73 -88 -167h-62z" />
    <glyph glyph-name="two" unicode="2" horiz-adv-x="310" 
d="M271 84q-13 -35 -33 -59q-26 -31 -58 -31t-74 33t-57 33q-26 0 -30 -32t-19 -32q-22 0 -22 26q0 53 84 105q78 45 157 91q85 60 85 131q0 33 -21 56t-55 23q-38 0 -69.5 -26t-31.5 -63q0 -20 18 -26q18 -4 36 -7l7 -14q-6 -27 -32 -27q-23 0 -38 17t-15 41q0 55 47.5 92
t104.5 37q44 0 73.5 -24.5t29.5 -67.5q0 -70 -79 -128q-28 -21 -154 -86q-88 -46 -99 -78q23 15 49 15q31 0 70 -26.5t54 -26.5q22 0 38 20q11 13 21 39z" />
    <glyph glyph-name="three" unicode="3" 
d="M163 235q57 12 95 39q49 34 49 84q0 33 -21 52t-54 19q-30 0 -59.5 -20t-29.5 -50l5 -14q18 -6 31 -10.5t13 -17.5q0 -11 -9 -18t-20 -7q-19 0 -31.5 14.5t-12.5 34.5q0 49 43 79.5t94 30.5q41 0 70 -20.5t29 -60.5q0 -43 -39 -79q-32 -30 -79 -48q29 0 44.5 -20
t15.5 -51q0 -71 -74 -127q-68 -51 -142 -51q-39 0 -66 17q-32 20 -32 57q0 31 22.5 51.5t54.5 20.5q17 0 29.5 -8t12.5 -24l-8 -15l-17 -8l-44 12q-13 0 -20.5 -9.5t-7.5 -23.5q0 -25 22.5 -39t50.5 -14q62 0 111 43.5t49 105.5q0 33 -18 47t-50 14q-10 0 -16 -1z" />
    <glyph glyph-name="four" unicode="4" horiz-adv-x="321" 
d="M165 175q-27 8 -53 8q-28 0 -48 -25t-32 -25l-11 5l-4 9q74 66 123 123q54 62 54 110q0 12 -6 23q-15 27 -16 32l8 15l18 6q18 0 28.5 -17t10.5 -36q0 -35 -32 -82.5t-114 -127.5q37 19 79 19q14 0 21 -1q40 66 43 71q40 63 83 114l11 -8q-26 -44 -55 -96
q-46 -82 -46 -90l17 -6q16 -7 31 -7q13 0 22.5 15t17.5 18l6 -2l3 -7q0 -26 -27.5 -39t-62.5 -13q-15 0 -26 3q-19 -41 -39 -84t-32 -80h-58q25 54 43.5 89.5t45.5 81.5z" />
    <glyph glyph-name="five" unicode="5" horiz-adv-x="302" 
d="M215 432q20 -12 42 -19.5t43 -7.5q56 0 96 37l11 -8q-25 -34 -57.5 -52t-72.5 -18q-36 0 -73 16l-92 -139q22 13 40.5 19t40.5 6q37 0 61.5 -22.5t24.5 -58.5q0 -70 -63.5 -129.5t-133.5 -59.5q-40 0 -68 17q-33 20 -33 58q0 26 19 44t46 18q34 0 41 -29l-6 -17l-15 -7
q-5 0 -17 3t-18 3l-21 -7l-8 -17q0 -22 25 -36t49 -14q54 0 99.5 49.5t45.5 104.5q0 29 -18.5 46.5t-47.5 17.5q-17 0 -33.5 -5.5t-34.5 -16.5l-11 7z" />
    <glyph glyph-name="six" unicode="6" horiz-adv-x="346" 
d="M147 239q26 20 53.5 32t55.5 12q32 0 51 -21t19 -54q0 -74 -73 -144t-147 -70q-83 0 -83 85q0 111 117.5 236.5t227.5 125.5q24 0 47.5 -8.5t23.5 -28.5l-5 -13l-14 -6q-16 2 -43.5 16.5t-48.5 14.5q-79 0 -167 -120q-84 -115 -84 -198q0 -29 18 -51t46 -22q55 0 97 50
t42 106q0 28 -17.5 48.5t-44.5 20.5q-16 0 -33.5 -6.5t-34.5 -17.5z" />
    <glyph glyph-name="seven" unicode="7" horiz-adv-x="239" 
d="M226 213l-9 -16h-69q-71 -121 -86 -156q-24 -58 -24 -104q0 -20 5 -43q9 -41 9 -42l-9 -18q-6 -3 -12 -5t-9 -2q-21 0 -31.5 20t-10.5 43q0 76 51 162q45 72 91 145h-55l9 16h58q9 19 69 85q64 70 78 85q-20 -7 -38.5 -11t-38.5 -4q-27 0 -51 8t-35 27q3 11 11 22
q4 6 15 19h7q8 -24 40.5 -36t63.5 -12q36 0 61 22q18 17 35 25l11 -9q0 -15 -25 -27l-22 -10q-15 -9 -78.5 -85t-76.5 -99h66z" />
    <glyph glyph-name="eight" unicode="8" horiz-adv-x="330" 
d="M330 342q0 20 -21 24t-21 16l7 13l17 5q21 0 34 -13t13 -34q0 -40 -38 -70q-29 -23 -74 -37q20 -22 32.5 -47.5t12.5 -52.5q0 -64 -51 -109.5t-116 -45.5q-49 0 -83 24q-39 27 -39 74q0 48 36 85q44 45 141 72q-15 20 -23 36q-11 22 -11 42q0 55 45.5 91t102.5 36
q25 0 39 -4q27 -8 27 -25l-4 -10l-11 -4q-7 0 -46 13q-18 6 -32 6q-35 0 -61 -21.5t-26 -56.5q0 -27 26 -58q13 -16 27 -31q40 13 62 28q35 23 35 54zM45 105q0 -39 25.5 -65.5t63.5 -26.5q48 0 84 32t36 79q0 30 -19 60q-15 23 -42 47q-59 -14 -97 -40q-51 -35 -51 -86z
" />
    <glyph glyph-name="nine" unicode="9" horiz-adv-x="338" 
d="M145 151q-32 0 -53.5 20.5t-21.5 53.5q0 74 71.5 143.5t146.5 69.5q38 0 61 -23t23 -61q0 -111 -116.5 -235.5t-229.5 -124.5q-28 0 -46 6q-30 10 -30 31l6 13l13 7q13 -2 38.5 -18t51.5 -16q84 0 174 119q85 113 85 201q0 30 -16 52.5t-45 22.5q-54 0 -97.5 -53.5
t-43.5 -109.5q0 -26 15 -44t41 -18q22 0 41.5 11.5t38.5 30.5l8 -9q-24 -30 -50 -47q-33 -22 -65 -22z" />
    <glyph glyph-name="colon" unicode=":" horiz-adv-x="167" 
d="M97 187q20 0 20 -22q0 -15 -11 -29t-26 -14q-21 0 -21 22q0 16 10.5 29.5t27.5 13.5zM47 60q21 0 21 -22q0 -16 -10.5 -29.5t-26.5 -13.5q-21 0 -21 22q0 15 11 29t26 14z" />
    <glyph glyph-name="semicolon" unicode=";" horiz-adv-x="167" 
d="M90 187q21 0 21 -21q0 -16 -11 -30t-26 -14q-21 0 -21 22q0 16 10.5 29.5t26.5 13.5zM-27 -56q15 11 31 26q21 19 24 31h-4q-19 0 -19 21q0 14 9 26t24 12q23 0 23 -25q0 -24 -27 -55t-52 -44z" />
    <glyph glyph-name="less" unicode="&#x3c;" horiz-adv-x="479" 
d="M419 -1h-19l-354 88v20q5 0 15 2q1 0 2 0.5t2 0.5l24 6t25 6q12 3 24.5 6t23.5 6l18 4t17 4q15 4 29 6.5t27 6.5q35 10 65 15q2 1 5 1t5 1q37 8 59.5 12t31.5 4l17 -17q-3 -1 -10.5 -3t-14.5 -4q-14 -4 -34 -9.5t-43 -11.5q-36 -11 -75 -17q-22 -6 -47 -11
q-5 -2 -10.5 -2.5t-10.5 -2.5q-7 -2 -16 -3.5t-19 -3.5l-18 -3l-12 -3q-1 -1 -2 -1q2 0 2.5 -0.5t2.5 -0.5q10 -1 19 -5q6 -2 21 -4q5 -2 9 -2.5t10 -2.5q16 -4 33 -7.5t31 -7.5q16 -4 31 -7.5t26 -6.5l12 -3q10 -2 15 -4h-1q41 -11 64.5 -17.5t35.5 -11.5z" />
    <glyph glyph-name="equal" unicode="=" horiz-adv-x="499" 
d="M457 172q0 -14 -18 -14h-380q-18 0 -18 16q0 14 18 14h380q18 0 18 -16zM463 15q0 -15 -18 -15h-380q-18 0 -18 16q0 15 18 15h380q18 0 18 -16z" />
    <glyph glyph-name="greater" unicode="&#x3e;" horiz-adv-x="499" 
d="M46 16q14 6 37 12.5t62 16.5h-1q4 2 15 4l12 3l26 6.5t31 7.5q15 4 31 7.5t33 7.5h-1q5 2 10 2.5t10 2.5q9 1 12.5 1.5t4.5 1t1.5 0.5t2.5 1q9 4 19 5q3 0 4 1q-1 0 -1 1l-12 3q-4 1 -9 1.5t-9 1.5q-10 2 -19 3.5t-16 3.5q-5 2 -10 2.5t-11 2.5q-13 2 -24.5 5t-22.5 6
q-39 6 -75 17q-22 6 -42.5 11.5t-34.5 9.5q-8 2 -15 4t-10 3l17 17q9 0 31.5 -4t58.5 -12q3 -1 5.5 -1t5.5 -1q30 -5 65 -15q13 -4 26.5 -6.5t29.5 -6.5q8 -2 17 -4l18 -4q22 -6 48 -12q12 -3 24.5 -6t24.5 -6q1 0 2 -0.5t2 -0.5q10 -2 15 -2v-20l-354 -88h-20z" />
    <glyph glyph-name="question" unicode="?" horiz-adv-x="314" 
d="M90 86q-14 0 -23.5 10.5t-9.5 25.5q0 40 48 87l90 82q49 52 49 102q0 57 -55 57q-39 0 -68.5 -31.5t-29.5 -72.5q0 -15 8.5 -29t23.5 -14q28 0 41 30q9 21 9 54h14l1 -15q0 -33 -20 -61.5t-53 -28.5q-23 0 -39 17t-16 40q0 54 44 92t99 38q40 0 66.5 -21.5t26.5 -61.5
q0 -50 -54 -96l-102 -72q-55 -41 -55 -77q0 -20 17 -20q14 0 25 16.5t15 32.5l13 -3q-5 -29 -20 -52q-20 -29 -45 -29zM66 60q21 0 21 -22q0 -16 -10.5 -29.5t-27.5 -13.5q-20 0 -20 22q0 15 11 29t26 14z" />
    <glyph glyph-name="at" unicode="@" horiz-adv-x="523" 
d="M304 71q-19 -25 -44 -47q-30 -26 -66 -28q-21 -1 -35.5 9.5t-21.5 32.5q-9 73 59 148t146 87q8 2 18 2t19.5 -1.5t17.5 -5t12 -9.5q2 -3 1 -7t-3 -7.5t-5.5 -5t-7.5 -0.5l-40 9q-20 1 -36 -3q-54 -12 -98.5 -69t-34.5 -110q2 -14 9.5 -22t24.5 -8q47 7 89 81q25 49 46 92
l37 7q-17 -41 -30 -63q-34 -87 -31 -118q3 -32 21 -35q48 -5 95 73q21 53 24 113q0 66 -33 109q-35 50 -111 48q-82 1 -175.5 -79.5t-92.5 -192.5q1 -63 31 -101q31 -43 90 -45q35 -1 54 6.5t48 35.5l15 -7q-27 -32 -55.5 -42t-60.5 -10q-71 -1 -111 46.5t-39 117.5
q-4 121 88 210t209 85q89 -3 130 -59q38 -48 35 -122q-4 -65 -28 -117q-51 -103 -117 -90q-27 4 -38.5 27.5t-4.5 64.5z" />
    <glyph glyph-name="A" unicode="A" horiz-adv-x="864" 
d="M744 346h36q59 97 89 141q70 102 104 121l6 -5l-150 -254q77 9 92 43q10 22 31 31l16 -7q6 -12 6 -16q0 -39 -61 -56q-42 -12 -93 -12l-77 -148q29 -15 47.5 -37t18.5 -51q0 -49 -48 -77q-40 -23 -93 -23q-23 0 -35 4q-21 7 -21 25q0 22 46 108q27 48 32 57l-130 52
q-78 -121 -165 -186q-106 -79 -233 -79q-55 0 -96 15q-55 20 -66 64l7 18l18 7q15 -5 53 -50q31 -36 96 -36q76 0 143 41q56 35 110 101q38 47 86 125q-26 14 -33 20.5t-19 31.5l17 30q16 5 35.5 6.5t32.5 1.5h23q67 104 101 147q65 83 131 128q80 55 166 55q32 0 56.5 -5.5
t51.5 -20.5l16 -26l-7 -17l-16 -7q-18 4 -65 32q-38 22 -74 22q-93 0 -184 -115q-39 -49 -122 -196zM698 205l73 126h-159l-43 -75zM556 330h-10q-24 0 -35 -6t-11 -17q0 -7 4.5 -14t18.5 -15zM681 39q0 -9 8.5 -13.5t18.5 -4.5q32 0 58.5 22.5t26.5 54.5q0 24 -16 42
t-41 29q-16 -34 -31 -68q-24 -54 -24 -62z" />
    <glyph glyph-name="B" unicode="B" horiz-adv-x="828" 
d="M922 633q48 0 77 -11.5t49 -47.5l-6 -15l-14 -6q-34 24 -65 41q-35 20 -72 20q-11 0 -24 -1.5t-28 -5.5q54 -47 54 -123q0 -53 -29 -97.5t-76 -70.5q23 -41 23 -83q0 -95 -74.5 -166.5t-171.5 -71.5q-34 0 -59.5 12t-37.5 41q-34 -29 -79 -42.5t-95 -13.5q-28 0 -118 10
q-45 5 -71 5q-18 0 -42 -6.5t-45 -12.5l-13 5l-5 12l18 26q14 5 29 7t30 2q13 0 44.5 -2t34.5 -2q84 0 146 42q52 35 104 114q-122 44 -122 175t122 220q111 81 248 81q46 0 90 -11.5t80 -36.5q52 13 98 13zM208 25q27 -8 52 -11t57 -3q82 0 145 52l-2 21q0 19 8.5 33.5
t26.5 19.5l13 -6q2 -8 5 -15q0 -17 -8 -30.5t-24 -26.5q8 -24 31 -35t51 -11q82 0 139 67.5t57 151.5q0 35 -13 64q-33 -12 -67 -12q-28 0 -48 9q-27 12 -27 36q0 22 22 32.5t48 10.5q29 0 53.5 -10.5t48.5 -31.5q36 20 58 56t22 78q0 38 -16.5 71.5t-46.5 58.5
q-84 -27 -145 -96q-41 -47 -93 -144q-63 -119 -87 -153q23 0 42.5 6.5t51.5 21.5l6 -14q-53 -31 -112 -31q-49 -63 -109 -103q-66 -44 -139 -56zM778 606q-68 42 -148 42q-124 0 -218 -88t-94 -211q0 -52 24 -90t73 -51q72 131 92 163q54 85 109 136q68 62 162 99zM657 346
q-12 0 -21.5 -5t-9.5 -16q0 -15 16.5 -20t35.5 -5q33 0 59 11q-11 16 -34.5 25.5t-45.5 9.5z" />
    <glyph glyph-name="C" unicode="C" horiz-adv-x="738" 
d="M233 496q0 57 50 101q45 39 106 51l3 -12q-47 -21 -76 -57q-33 -41 -33 -88q0 -46 29 -75q25 -26 73 -39q92 110 205 186q139 94 255 94q47 0 78 -18q40 -23 40 -67q0 -54 -47 -92t-103 -38q-20 0 -38.5 5.5t-32.5 16.5q-50 -63 -144 -90q-72 -21 -173 -21
q-32 -47 -53 -99q-24 -60 -24 -110q0 -54 37 -84t92 -30q71 0 140 49q77 55 77 123q0 23 -15 39t-38 16q-28 0 -52 -19q-18 -14 -37 -42l-12 6q16 40 49 67q37 30 78 30q29 0 46.5 -18.5t17.5 -48.5q0 -85 -102 -164q-97 -75 -187 -75q-68 0 -113 37q-48 40 -48 107
q0 59 27 119q21 47 65 106q-55 10 -94 43q-46 39 -46 91zM470 368q77 0 145 26t115 81q-16 21 -16 43q0 14 7 24.5t20 10.5q12 0 18 -9.5t6 -23.5q0 -23 -14 -42q11 -10 26 -14.5t31 -4.5q44 0 79.5 29t35.5 72q0 37 -30 56.5t-69 19.5q-99 0 -219 -90q-107 -80 -168 -177z
" />
    <glyph glyph-name="D" unicode="D" horiz-adv-x="861" 
d="M293 344q0 135 118 229q110 88 249 88q111 0 186 -59q82 -65 82 -174q0 -183 -159 -312q-149 -121 -336 -121q-40 0 -121 8t-121 8q-29 0 -65 -10l-40 -12l-19 17q0 18 23 25t58 7q12 0 31.5 -1t23.5 -1q75 0 137 25q70 28 111 84q-69 19 -113.5 73.5t-44.5 125.5z
M289 28q24 0 104 -10q40 -5 64 -5q169 0 287.5 115.5t118.5 284.5q0 103 -61 164t-165 61q-125 0 -212.5 -81t-87.5 -205q0 -65 33 -119t94 -70q14 21 29 45q11 18 46 79q-23 12 -35.5 31t-12.5 44q0 56 63 83q47 20 113 20q26 24 46 36q28 17 55 17q4 0 10 -2.5t9 -3.5
l7 -14q0 -30 -48 -42q-28 -7 -72 -7q-24 -30 -45 -77q-6 -13 -34 -82l13 -1q25 0 52 14q20 10 46 32l5 -12q-49 -51 -123 -51q-14 -31 -33.5 -61t-44.5 -58l13 -1q24 0 49 6t53 18l3 -14q-29 -14 -61 -19.5t-71 -5.5q-86 -86 -207 -109zM527 356q0 -29 24 -48
q21 37 47.5 75.5t53.5 66.5q-53 -5 -83 -22q-42 -24 -42 -72z" />
    <glyph glyph-name="E" unicode="E" horiz-adv-x="711" 
d="M544 437l-3 25q0 82 93 142q83 53 170 53q50 0 86 -19q46 -24 46 -70q0 -48 -36 -76q-32 -25 -81 -25q-20 0 -36 4q-30 -81 -149 -132q-106 -45 -218 -45q-32 0 -62 5q-51 -62 -51 -140q0 -64 38.5 -101.5t103.5 -37.5q68 0 138 45q79 51 79 115q0 23 -17 39t-41 16
q-18 0 -39.5 -10t-48.5 -39l-8 10q22 32 52 50q34 21 69 21q28 0 47.5 -17.5t19.5 -46.5q0 -86 -106 -153q-94 -60 -187 -60q-68 0 -115.5 38t-47.5 105q0 47 19.5 92.5t52.5 84.5q-56 18 -88 49q-39 38 -39 91q0 73 61 118q56 41 132 41q53 0 98 -19l-6 -13q-39 14 -79 14
q-65 0 -114 -43t-49 -108q0 -43 27 -72.5t71 -43.5q41 42 99.5 72.5t118.5 40.5zM425 310q102 0 195 40q109 47 148 127q-33 19 -33 52l7 18l17 7q14 0 22.5 -8.5t8.5 -33.5q0 -16 -3 -27q10 -3 15 -4t15 -1q30 0 53.5 21.5t23.5 51.5q0 40 -34 61.5t-76 21.5
q-75 0 -139 -47q-70 -51 -70 -124l3 -26q21 0 39.5 -7.5t18.5 -25.5l-9 -15q-12 -6 -21 -6q-18 0 -33 10t-23 26q-56 -5 -102 -35q-31 -20 -82 -72q11 -2 27.5 -3t31.5 -1z" />
    <glyph glyph-name="F" unicode="F" horiz-adv-x="693" 
d="M892 592q21 0 34 -4.5t13 -20.5l-21 -19q-8 1 -33.5 6.5t-37.5 5.5q-56 0 -113 -78q-31 -42 -73 -129q20 6 45 9t46 3q25 0 41 -4.5t16 -22.5q-5 -10 -6 -14l-13 -5q-47 11 -93 22q-20 0 -28 -1t-17 -5l-31 -62q10 -26 10 -58q0 -72 -42 -113t-110 -41h-12q-9 2 -13 2
q-60 -32 -120 -63q-63 -28 -135 -28q-67 0 -117 27q-62 33 -62 96q0 37 26 63t63 26q10 0 17 -2.5t21 -8.5l15 -27l-8 -17l-20 -7q-7 1 -23 6t-24 5q-3 0 -17 -5.5t-16 -6.5l-13 -32q0 -48 54 -76q46 -24 98 -24q63 0 121 23t104 66q-24 15 -38 37.5t-14 49.5q0 35 22 61
t57 40l5 -13q-30 -13 -47 -33q-20 -24 -20 -54q0 -25 13 -45t35 -32q28 27 87 108q66 91 66 113l-4 5q-21 -7 -47 -7t-45 9t-26 31l10 19q21 8 28 8q22 0 45.5 -12.5t38.5 -31.5l13 2q42 70 74 112q50 67 98 102q61 45 123 45zM409 373q-27 0 -44.5 18.5t-17.5 44.5
q0 104 128 168q106 53 221 53q41 0 184 -16q71 -8 111 -8q23 0 49 6q38 9 77 18q16 -5 16 -17q0 -19 -23 -28.5t-70 -9.5q-56 0 -135 11q-180 25 -226 25q-101 0 -192 -45q-113 -56 -113 -146q0 -5 2.5 -14t3.5 -12l15 -11q5 2 18.5 10.5t21.5 10.5l15 -6l6 -16
q-9 -36 -47 -36zM487 75q57 0 93 42.5t36 101.5q0 16 -5 36q-31 -53 -64 -97q-50 -68 -77 -81zM515 355q-18 0 -18 -13q0 -12 10 -15.5t25 -3.5q9 0 19.5 1.5t16.5 2.5q-9 11 -24.5 19.5t-28.5 8.5z" />
    <glyph glyph-name="G" unicode="G" horiz-adv-x="805" 
d="M956 646q38 0 66 -16q35 -20 35 -56q0 -48 -42.5 -80t-91.5 -32q-37 0 -66 19l-2 -2q-47 -62 -115 -98.5t-149 -46.5q-3 -11 -6 -25t-3 -25q0 -22 13 -38.5t35 -16.5q41 0 125.5 68.5t128.5 68.5q3 0 9.5 -2t12.5 -4l8 -15l-14 -13q-8 1 -14.5 2.5t-17.5 1.5
q-43 0 -127.5 -68.5t-136.5 -68.5q-36 0 -57 23t-21 59q0 26 9 50q-72 0 -121 29q-60 35 -60 103q0 66 51 109t118 43q28 0 46.5 -3.5t39.5 -14.5l-6 -13q-34 14 -70 14q-57 0 -98 -40t-41 -98q0 -55 48 -85q42 -26 100 -26q45 102 171 197q134 100 243 100zM903 289l-9 -4
q-12 2 -23.5 4t-13.5 2q-44 0 -91 -86q-65 -118 -108 -160q-89 -87 -230 -87q-76 0 -129 30q-66 38 -66 109q0 50 33 85t84 35q31 0 57 -15q32 -19 32 -47l-7 -17l-16 -7q-14 4 -33 33.5t-48 29.5q-36 0 -60.5 -29.5t-24.5 -66.5q0 -64 59 -96q48 -26 119 -26q115 0 198 88
q60 82 120 165q65 89 134 89q12 0 19.5 -4t7.5 -15zM846 490q-17 17 -17 40q0 10 4 17.5t13 7.5q14 0 18 -12t4 -21q0 -14 -4 -26q26 -18 53 -18q41 0 72 23q35 26 35 66q0 31 -24.5 46t-57.5 15q-97 0 -204 -94q-95 -83 -140 -183q80 13 139 44q70 36 109 95z" />
    <glyph glyph-name="H" unicode="H" horiz-adv-x="894" 
d="M1192 681q9 0 27 -5t20 -5l18 -25l-6 -14l-15 -7q-28 11 -40 15q-25 9 -42 9q-75 0 -151 -107q-33 -46 -97 -173l-26 -51l-1 -3q31 0 60 20q36 25 41 26q5 0 11 -5t6 -11q-17 -34 -69.5 -40.5t-57.5 -8.5l-2 -2q-19 -32 -36 -60.5t-42 -65.5q33 -26 33 -67q0 -47 -34 -74
t-82 -27h-136q-11 5 -15 6l-6 14l24 19q59 6 103 43q36 30 72 91q-36 15 -94 33q-39 12 -58 18q-18 -32 -49 -66l-35 -35q10 -1 17.5 -1.5t11.5 -0.5q20 0 36.5 3t40.5 9l6 -14q-39 -13 -78 -13q-24 0 -48 3q-62 -62 -149.5 -95.5t-178.5 -33.5q-58 0 -101 15q-58 20 -70 66
l7 19l17 7l17 -6q37 -50 66.5 -66.5t90.5 -16.5q73 0 148.5 33t116.5 89q-56 23 -87.5 72.5t-31.5 112.5q0 156 151 269q140 105 301 105q52 0 80 -6q44 -10 67 -39q0 -6 -6 -12t-12 -6q-22 4 -73.5 23.5t-86.5 19.5q-150 0 -265 -117t-115 -268q0 -48 22 -87t66 -55
q11 9 39 51q37 55 40 59l-31 18l-6 12q-6 12 -6 13q0 23 22.5 30.5t54.5 7.5h16q85 140 114 177q86 110 161 110q7 0 13.5 -2t9.5 -3l8 -13l-15 -13q-13 2 -26.5 4t-15.5 2q-60 0 -146 -158q-5 -9 -54 -109q43 0 108 -3t66 -3q60 107 89 151q64 99 123 150q78 68 155 68z
M643 302l-18 -33q-10 -19 -19 -32q73 -20 77 -21q45 -14 74 -29q30 50 59 108q-30 0 -65 2q-87 5 -108 5zM591 306h-5q-18 0 -32 -5t-14 -21q0 -8 5.5 -13.5t15.5 -10.5q4 4 15 24q7 13 15 26zM630 33q13 0 43.5 -4t39.5 -4q37 0 64 21t27 57q0 30 -26 50q-43 -50 -66 -69
q-35 -30 -82 -51z" />
    <glyph glyph-name="I" unicode="I" horiz-adv-x="660" 
d="M165 -27q-63 0 -109 27q-56 33 -56 91q0 32 22 56t54 24q7 0 16.5 -3t18.5 -6l14 -25l-6 -14l-12 -7l-38 11l-31 -14q-5 -11 -7 -17q-6 -14 -6 -17q0 -45 50 -70q40 -20 91 -20q74 0 150 32q82 35 122 91q-49 26 -75.5 75t-26.5 107q0 158 154 269q140 101 304 101
q57 0 103 -10q71 -15 82 -47l-5 -11l-12 -5q-22 0 -119 35q-47 17 -82 17q-150 0 -267.5 -115.5t-117.5 -264.5q0 -45 18 -82.5t55 -55.5q49 42 123 176q83 150 128 202q83 97 183 97q13 0 26.5 -6t20.5 -17l-5 -11l-11 -4q-20 5 -34 8t-26 3q-60 0 -131 -96
q-36 -49 -121 -200q-73 -130 -109 -166l35 -3q73 0 136 40l4 -14q-65 -43 -139 -43q-25 0 -51 6q-76 -61 -145 -90q-80 -34 -168 -34z" />
    <glyph glyph-name="J" unicode="J" horiz-adv-x="790" 
d="M191 -149q-69 0 -123 29q-68 36 -68 99q0 38 28 65t66 27q11 0 24.5 -5t20.5 -14l7 -20l-6 -17l-16 -7l-44 9l-36 -14q-1 -3 -7 -17t-6 -17q0 -52 62 -79q47 -21 106 -21q104 0 199 64q88 59 145 155q-57 25 -86 77t-29 118q0 174 161 291q146 106 326 106q61 0 98 -9
q55 -14 83 -48q0 -16 -16 -16q-16 4 -99 32q-59 20 -105 20q-158 0 -279 -116t-121 -273q0 -55 18.5 -97.5t61.5 -66.5q21 28 117 196q82 143 145 212q92 100 186 100q29 0 44 -23l-16 -14l-32.5 6.5t-28.5 3.5q-54 0 -108 -61q-40 -46 -82 -129q-28 -58 -55 -116
q-59 -97 -118 -193l37 -4q43 0 84.5 14.5t80.5 41.5l8 -15q-80 -57 -175 -57q-27 0 -48 4q-77 -97 -178 -156q-112 -65 -226 -65z" />
    <glyph glyph-name="K" unicode="K" horiz-adv-x="942" 
d="M757 382q0 5 3 11.5t6 12.5l22 10l23 -8q24 -22 24 -58v-6q-2 -4 -2 -5q74 16 144 102q57 75 111 154q70 84 161 84q9 0 15.5 -1t25.5 -7l15 -20l-7 -16q-8 -7 -22 -7q-11 0 -21 2q-34 7 -35 7q-64 0 -132 -81q-49 -79 -116 -158q-71 -74 -144 -74q-22 -43 -63 -52
q31 -23 31 -59q0 -23 -10 -50q-25 -68 -25 -85q0 -20 13 -30.5t34 -10.5q23 0 44.5 13t39.5 33l13 -6q-25 -34 -62.5 -58.5t-74.5 -24.5q-23 0 -38 11t-15 34q0 19 29 89q14 34 14 55q0 44 -27 62.5t-74 22.5l8 17l52 -3q33 0 57 9t37 35q-22 5 -38 20t-16 36zM539 119h12
q29 0 62 12t61 30l8 -12q-27 -21 -65.5 -32.5t-76.5 -11.5q-20 0 -40 3q-63 -59 -150 -94t-174 -35q-82 0 -124 22.5t-52 58.5l7 18l18 7q36 -42 71 -65t105 -23q48 0 149 39q114 44 114 82l-6 3q-51 21 -82.5 71t-31.5 115q0 156 152 268q140 103 301 103q51 0 82 -6
q54 -11 65 -39l-6 -12l-12 -5q-12 3 -78 26q-46 16 -80 16q-149 0 -266 -117t-117 -267q0 -51 22 -88.5t68 -55.5l106 172q87 141 144 207q86 100 149 100q23 0 33 -18l-14 -13q-12 2 -24.5 4t-14.5 2q-41 0 -107 -97q-26 -37 -121 -201q-73 -126 -113 -165zM817 351
q0 13 -6 25t-18 12q-11 0 -11 -13q0 -16 15 -26q9 -6 18 -8z" />
    <glyph glyph-name="L" unicode="L" horiz-adv-x="777" 
d="M510 273q-54 -90 -126 -150q-83 -69 -176 -85q93 -17 121 -21q72 -11 123 -11q112 0 168 33q70 41 70 139q0 3 6 18l17 7l20 -10q3 -14 7 -28q0 -94 -120 -142q-89 -36 -200 -36q-41 0 -100 7q-135 16 -169 16q-29 0 -73 -12.5t-60 -14.5l-18 19q7 18 68 32q9 2 122 23
q76 14 101 29q47 29 88 82q29 37 67 101l2 2q-48 0 -88 11.5t-75 36.5q-28 20 -43.5 47.5t-15.5 61.5q0 76 67 122q59 41 139 41q50 0 97.5 -14.5t93.5 -42.5q56 56 121 89q73 37 144 37q59 0 95 -24q43 -29 43 -85q0 -57 -47 -96t-106 -39q-20 0 -37.5 4t-33.5 14
q-36 -73 -124 -116q-73 -36 -168 -45zM650 516q15 -12 22 -18q15 -12 22 -19l-11 -11q-8 10 -19 18l-22 16l-3 2l-2 -2q-22 -28 -43.5 -69.5t-40.5 -79.5q-8 -15 -15.5 -30.5t-16.5 -29.5l-1 -2q70 0 151.5 45.5t117.5 105.5q-23 21 -23 47q0 10 7 20t18 10q12 0 18.5 -11
t6.5 -24q0 -7 -1.5 -15t-5.5 -20q26 -17 62 -17q47 0 80.5 30.5t33.5 77.5t-33 73t-81 26q-58 0 -117.5 -29t-93.5 -76l-8.5 -8.5t-3.5 -7.5zM440 572q-70 0 -121.5 -38.5t-51.5 -106.5q0 -70 63 -108q53 -32 127 -32q47 82 70 122q43 72 84 113q-38 23 -83 36.5t-88 13.5z
" />
    <glyph glyph-name="M" unicode="M" horiz-adv-x="1124" 
d="M180 -21q-61 0 -106 16q-61 22 -74 69l7 18l17 7q9 -3 52 -53q35 -40 105 -40q66 0 131 35q54 29 108 84q-47 23 -74.5 71.5t-27.5 102.5q0 167 161 277q144 99 319 99q50 0 77 -5q48 -9 64 -36q0 -12 -13 -14q-54 16 -80 23q-49 14 -85 14q-149 0 -271 -110
q-126 -114 -126 -262q0 -46 17 -83.5t54 -58.5q12 15 112 178q82 133 144 200q89 96 167 96q6 0 14 -2l16 -4l12 -18l-12 -13l-22 6t-14 3q-66 0 -96 -151q-19 -165 -22 -189l-8 -70l-9 -54l-1 -6l3 4l37 58q68 106 136 213q90 131 176 200q110 89 227 89q27 0 43 -4l24 -6
l25 -29l-15 -17q-14 3 -46.5 15.5t-59.5 12.5q-141 0 -280 -170l-216 -318q-117 -171 -200 -171q-22 0 -33 20l6 14q7 4 17 4q3 0 26 -5q9 -2 18 -2q5 0 13.5 3.5t16.5 6.5q32 26 46 146q21 180 32 224q32 132 107 186q-55 -13 -127 -108q-43 -57 -124 -190
q-76 -126 -110 -163l42 -6q49 0 93 30l8 -11q-23 -19 -47 -26.5t-54 -7.5q-10 0 -18.5 0.5t-38.5 4.5q-45 -57 -117.5 -92t-145.5 -35zM1096 88q-26 -39 -64 -66q-44 -31 -86 -31q-62 0 -62 64q0 74 68 213.5t154 238.5q100 114 176 114q14 0 28 -6l11 -14l-4 -10l-10 -4
q-7 1 -22.5 7t-23.5 6q-53 0 -135 -110q-71 -95 -131.5 -225t-60.5 -187q0 -48 45 -48q30 0 59 21q21 15 46 45z" />
    <glyph glyph-name="N" unicode="N" horiz-adv-x="856" 
d="M175 -23q-57 0 -102 17q-59 22 -73 67l7 17l18 7q10 -3 50 -51q34 -40 107 -40q56 0 133 36q85 40 105 85q-49 22 -75.5 70t-26.5 104q0 162 160 274q145 101 314 101q54 0 80 -5q49 -9 66 -37q0 -14 -14 -14q-26 0 -57 10q-77 25 -101 25q-157 0 -278 -108
q-125 -112 -125 -268q0 -42 17.5 -78.5t52.5 -57.5q17 23 112 178q82 134 143 200q89 96 168 96q6 0 15 -2t17 -4l11 -18q0 -13 -14 -13q-6 0 -14 2q-20 5 -21 5q-50 0 -82 -103q-23 -73 -37 -206q-7 -79 -14 -157q19 27 131 224q91 161 164 236q106 110 222 110
q11 0 22 -2.5t28 -7.5l19 -24l-8 -18q-10 -7 -26 -7q-11 0 -34 4t-31 4q-127 0 -248 -167l-188 -310q-107 -167 -201 -167q-22 0 -32 20l6 13q8 5 19 5q5 0 28 -5q9 -2 17 -2q5 0 13.5 3.5t15.5 6.5q28 25 44 153q23 182 36 233q34 131 107 171q-54 -6 -127 -103
q-38 -51 -126 -198q-76 -127 -108 -162q7 0 20.5 -2.5t16.5 -2.5q21 0 41.5 5t52.5 26l10 -12q-25 -18 -48 -25.5t-50 -7.5q-22 0 -55 5q-60 -60 -124 -92q-72 -36 -149 -36z" />
    <glyph glyph-name="O" unicode="O" horiz-adv-x="832" 
d="M200 445q0 73 68 117q59 38 136 38q11 0 25.5 -0.5t36.5 -7.5l-7 -13q-17 3 -24 3.5t-20 0.5q-70 0 -120 -38q-55 -42 -55 -111q0 -42 25 -72t67 -43q74 125 215 226q154 110 286 110q51 0 85 -22q40 -26 40 -76q0 -33 -15.5 -62t-43.5 -51q0 -162 -148.5 -307.5
t-311.5 -145.5q-73 0 -118 41t-45 114q0 42 13 82q9 26 34 76q-52 17 -85 51q-38 39 -38 90zM758 390q-52 0 -92 25q-36 -63 -106 -95q-63 -29 -142 -29h-25q-11 2 -15 2q-14 -20 -26 -66.5t-12 -72.5q0 -63 38 -97t102 -34q142 0 263 128t121 270q-26 -16 -51 -23.5
t-55 -7.5zM418 308q77 0 135 26q65 29 100 91q-22 17 -22 46l7 19l15 8q13 -3 19 -13t6 -24q0 -13 -2 -19.5t-3 -9.5q16 -13 39 -19t45 -6q60 0 107 33q-6 37 -24 60q-22 27 -57 27q-14 0 -29.5 -6t-28.5 -14l-11 3q10 26 35 42t53 16q39 0 65 -29q23 -26 29 -67
q28 24 28 65q0 47 -33.5 71.5t-82.5 24.5q-117 0 -246 -110q-109 -93 -176 -214z" />
    <glyph glyph-name="P" unicode="P" horiz-adv-x="734" 
d="M423 129q20 -4 46 -4q10 0 30 1t30 1l4 -14q-18 -3 -26 -4t-25 -1q-15 0 -34 2t-41 5q-38 -31 -82 -54t-89 -31q40 -10 94.5 -15t101.5 -5q102 0 188 59l8 -12q-44 -34 -97 -50.5t-112 -16.5q-45 0 -109 6q-140 13 -182 13q-25 0 -62.5 -9.5t-47.5 -11.5l-18 17
q7 19 28 26t51 7q11 0 31.5 -1t27.5 -1q70 0 125 20q62 23 106 70q-66 27 -103 82t-37 127q0 146 124 239q113 85 263 85q103 0 176 -48q84 -55 84 -153q0 -99 -82 -168q-78 -66 -178 -66q-29 0 -54.5 5t-51.5 18q-34 -70 -87 -118zM605 244q91 0 155 61t64 151t-69 141
q-62 46 -155 46q-133 0 -229 -95t-96 -229q0 -69 25 -106q19 -28 81 -72q16 20 35 49q4 7 52 88q-18 19 -27.5 39.5t-9.5 44.5q0 63 66 98q54 29 123 29q20 18 47 34q33 19 54 19q11 0 17 -3.5t6 -13.5q0 -27 -45 -41q-32 -10 -68 -10q-40 -42 -65 -99.5t-49 -112.5
q42 -18 88 -18zM604 473q-52 0 -97.5 -40.5t-45.5 -90.5q0 -14 3.5 -23.5t13.5 -23.5q28 46 58.5 93.5t67.5 84.5zM712 515q0 6 -8 6q-13 0 -27.5 -9t-27.5 -21q20 0 36 4q27 7 27 20z" />
    <glyph glyph-name="Q" unicode="Q" horiz-adv-x="741" 
d="M618 -23q20 0 36.5 10t31.5 29l10 -9q-18 -28 -40 -45q-27 -21 -56 -21q-36 0 -66 29q-24 23 -44 62q-80 -39 -166 -39q-68 0 -112.5 40.5t-44.5 108.5q0 113 93 236q88 116 220 196t245 80q63 0 106 -30q49 -35 49 -96q0 -52 -29.5 -97.5t-76.5 -76.5q-23 -85 -96 -172
q-69 -82 -151 -129q23 -37 36 -50q26 -26 55 -26zM755 421q0 45 -19 75q-23 35 -66 35q-13 0 -25.5 -5.5t-26.5 -15.5l-11 6q14 24 36 38.5t49 14.5q52 0 77 -40q21 -33 21 -87q0 -12 -1.5 -26t-5.5 -35q57 48 57 126q0 58 -42.5 91.5t-102.5 33.5q-143 0 -303.5 -166.5
t-160.5 -312.5q0 -62 36.5 -93.5t100.5 -31.5q27 0 57 7q12 3 55 16q-28 57 -32 63q-20 35 -44 56q-2 -1 -18 -5t-21 -4q-6 0 -14.5 3t-11.5 4l-10 17q0 11 7.5 15t19.5 4t24 -4.5t27 -11.5q31 17 52.5 49t21.5 67v12q-17 8 -28 19t-15 28l5 13q6 2 13 5q13 0 23 -13
q7 -9 13 -24q53 -27 118 -27q33 0 67 9.5t68 26.5q4 15 7 33.5t3 34.5zM586 294q-43 0 -89 16q0 -40 -20 -75.5t-55 -54.5q28 -19 53 -51q15 -19 42 -61q79 48 135.5 113.5t85.5 149.5q-33 -17 -73.5 -27t-78.5 -10z" />
    <glyph glyph-name="R" unicode="R" horiz-adv-x="894" 
d="M737 89q0 -24 8 -48q1 0 10 -5q18 -9 20 -9q19 0 33.5 9t28.5 26l11 -10q-22 -26 -45 -42q-29 -20 -57 -20q-29 0 -43 18t-14 47q0 38 21 116q13 47 16 70q-5 -2 -15.5 -2h-14.5q-52 0 -96 19q-17 -34 -43 -67q-22 -28 -54 -60q27 -5 49 -5q37 0 72 12l6 -14
q-34 -15 -80 -15q-12 0 -26 1.5t-36 5.5q-86 -71 -128 -99q-78 -40 -170 -35q-65 0 -108 13q-64 19 -82 65l6 17l15 6q32 -33 69.5 -54.5t102.5 -22.5q85 -1 148.5 33.5t112.5 87.5q-66 27 -104 85t-38 130q0 143 128 235q115 83 264 83q98 0 169 -47q81 -54 81 -149
q0 -81 -61.5 -144.5t-144.5 -75.5q0 -24 -5.5 -80.5t-5.5 -74.5zM901 462q0 85 -62 135q-58 46 -146 46q-139 0 -236.5 -95.5t-97.5 -235.5q0 -55 28.5 -103t79.5 -67q24 32 47 69q29 49 44 73q-40 34 -40 86q0 68 65 98q48 22 124 22q22 20 47 35q31 18 55 18t24 -19
q0 -28 -47 -41q-32 -9 -70 -9q-30 -31 -59 -102.5t-50 -99.5q19 -9 39.5 -13t43.5 -4l38 3v6q1 12 -8 27l-20 9q-17 -3 -33 -6q-16 0 -16 17l9 17l22 6q29 0 45 -20.5t20 -51.5q67 16 110.5 72.5t43.5 127.5zM672 471q-50 0 -88 -33t-38 -83q0 -29 21 -55q18 32 43.5 69.5
t77.5 103.5q-11 -1 -16 -2zM806 517q0 8 -10 8q-15 0 -34 -12q-13 -8 -29 -23q18 0 45.5 7t27.5 20z" />
    <glyph glyph-name="S" unicode="S" horiz-adv-x="589" 
d="M452 437q44 0 80 -22.5t50 -63.5l-14 -5q-16 34 -47.5 54.5t-69.5 20.5l-22 -2q74 -78 86 -94q43 -58 43 -117q0 -98 -87 -161q-79 -57 -180 -57q-88 0 -151 41q-73 47 -73 131q0 61 42 103t103 42q45 0 87 -22q0 80 67 126q-22 37 -22 74q0 74 74 126q67 47 144 47
q55 0 96 -27q48 -31 48 -84q0 -46 -35.5 -73t-82.5 -27q-27 0 -51 9l4 13l32 -3q36 0 59.5 19.5t23.5 54.5q0 45 -37 70.5t-84 25.5q-56 0 -104.5 -37.5t-48.5 -92.5q0 -21 8.5 -39t25.5 -34q9 1 17 2.5t19 1.5zM314 275q17 -12 29 -27.5t12 -33.5l-6 -19l-16 -7
q-19 0 -28 24q-5 14 -8 40q-32 39 -89 39q-45 0 -74 -33t-29 -80q0 -76 58.5 -124t136.5 -48q82 0 143 45q68 50 68 129q0 49 -50 118q-28 38 -86 99q-32 -19 -46.5 -50.5t-14.5 -71.5z" />
    <glyph glyph-name="T" unicode="T" horiz-adv-x="826" 
d="M548 469q-19 -42 -58 -76q-44 -39 -86 -39q-28 0 -48 18t-20 47q0 109 139 179q116 58 237 58q33 0 143 -12q55 -6 87 -6q33 0 76 11q64 16 74 18l14 -5q2 -7 5 -14q0 -25 -40 -37q-27 -8 -61 -8q-50 0 -121 11q-162 25 -202 25q-94 0 -194 -50q-119 -60 -119 -145
q0 -22 14.5 -36.5t36.5 -14.5q31 0 64 27q25 21 47 55zM944 552l-14 -6q-22 6 -33 8q-21 5 -34 5q-72 0 -156 -152q-123 -223 -174 -282q-131 -153 -317 -153q-69 0 -119 26q-64 33 -64 97q0 37 26 62t64 25q5 0 16 -3.5t20 -6.5l15 -25l-8 -18l-18 -8l-52 12l-30 -12
q-6 -13 -9.5 -21t-3.5 -10q0 -50 55 -77q44 -22 100 -22q163 0 285 155q91 144 183 289q107 155 233 155q6 0 14 -2l16 -4l11 -18z" />
    <glyph glyph-name="U" unicode="U" horiz-adv-x="783" 
d="M720 381q-10 6 -20 8.5t-24 2.5q-16 0 -25.5 -2t-13.5 -2l-14 13l9 15q20 5 26 5q40 0 73 -25q93 118 138 162q100 98 177 98q7 0 14 -2.5t15 -4.5l11 -18l-7 -14l-16 -5q-8 0 -27.5 5.5t-26.5 5.5q-69 0 -174 -144l-78 -110q18 -27 18 -61q0 -58 -43.5 -98.5
t-103.5 -50.5q-19 -37 -26 -53q-15 -35 -15 -56q0 -24 27 -24q23 0 51 15q16 9 44 30l11 -9q-27 -27 -65.5 -48.5t-71.5 -21.5q-10 0 -17.5 2.5t-20.5 9.5q-4 10 -7 17q-6 14 -6 17q0 19 10 45q2 4 36 75q-25 3 -44 13q-12 -73 -72 -126t-133 -53q-57 0 -97.5 33t-40.5 89
q0 95 93 174q87 63 174 127q94 78 94 166q0 5 6 14l14 6l18 -9q3 -12 7 -24q0 -52 -90 -129q-84 -71 -167 -141q-91 -89 -91 -169q0 -45 29.5 -74.5t75.5 -29.5q61 0 108 47q42 42 57 106q-20 11 -31.5 24t-16.5 35l7 17l18 6q20 -6 30.5 -21.5t10.5 -36.5q0 -8 -1 -13
q10 -6 23 -9.5t27 -5.5q67 103 134 207zM335 401q-23 -24 -46 -37q-29 -17 -58 -17q-26 0 -45 21t-19 48q0 106 132 181q114 65 228 65q51 0 84 -6q62 -11 62 -40l-6 -14l-12 -6q-21 3 -83 24q-50 17 -88 17q-90 0 -177 -53q-100 -61 -100 -146q0 -22 15.5 -38.5t38.5 -16.5
q18 0 33.5 7.5t30.5 22.5zM756 312q0 17 -1 23.5t-8 17.5l-108 -176q52 18 82 48q35 36 35 87z" />
    <glyph glyph-name="V" unicode="V" horiz-adv-x="706" 
d="M220 32l33 -1q160 0 304 107q131 97 208 251q28 56 41 123t26 131l19 11l21 -12l4.5 -18t2.5 -15q0 -33 -15 -77q-9 -28 -31 -74q-92 -196 -252 -321q-177 -138 -378 -138q-68 0 -98.5 10.5t-37.5 34.5l6 14l13 5q45 -11 91 -21q42 0 75 21q41 26 83 99
q-75 8 -120.5 56.5t-45.5 124.5q0 143 130 236q118 84 267 84q45 0 69 -5q42 -9 55 -35l-4 -12l-11 -5q-78 15 -155 30q-121 0 -215 -79.5t-94 -199.5q0 -65 35.5 -116t98.5 -60q29 76 58 153q45 116 90 178q62 86 132 86q4 0 11 -2t10 -3l7 -13l-18 -16l-31 3
q-71 0 -129 -158q-41 -114 -82 -227q80 13 128 75t48 147l15 2l2 -28q0 -84 -62 -150t-145 -66q-23 -39 -69.5 -78t-89.5 -52z" />
    <glyph glyph-name="W" unicode="W" horiz-adv-x="983" 
d="M173 32l26 -2q116 0 245 67q100 52 213 146q37 153 70 219q65 129 172 129q29 0 44 -25l-5 -11q-5 -4 -14 -4t-29.5 5.5t-24.5 5.5q-41 0 -70 -31q-38 -40 -56 -123l-19 -90l-3 -11q30 -2 65 74q32 70 32 109l19 23l15 -7q2 -10 5 -20q0 -56 -58 -119q-79 -85 -87 -100
q-33 -68 -65 -136q-42 -72 -117 -96q11 -2 21 -3t23 -1q175 0 328.5 143t153.5 317q0 69 -33.5 107.5t-93.5 38.5q-24 0 -51 -6l-1 16q18 9 41 14t44 5q64 0 102 -45.5t38 -111.5q0 -187 -192 -352q-184 -158 -371 -158q-39 0 -58 4q-35 7 -47 31l6 11q7 4 15 4q6 0 18 -3
t19 -3q39 0 76 30q31 25 52 64q8 14 14 31t12 38l1 3l-26 -21q-104 -84 -217 -133q-127 -55 -247 -55q-49 0 -69 4q-42 8 -56 35l6 13l15 6q10 -2 35.5 -9.5t39.5 -7.5q70 0 131 56q15 14 61 65q-65 10 -109 64t-44 120q0 137 128 230q117 85 259 85q53 0 84 -6
q56 -11 67 -39l-19 -17q-14 1 -103 27q-38 11 -68 11q-125 0 -214 -82t-89 -206q0 -59 32.5 -106t87.5 -61q53 170 94 248q85 162 189 162q6 0 15.5 -2.5t15.5 -3.5l11 -16q-2 -15 -17 -15q-26 4 -52 9q-55 0 -97 -79q-26 -48 -61 -162.5t-55 -144.5q87 0 140 69
q49 64 49 153q0 18 -3 36l14 4q3 -13 4.5 -25.5t1.5 -24.5q0 -96 -62.5 -163t-157.5 -67q-36 -47 -83 -80q-52 -37 -106 -48z" />
    <glyph glyph-name="X" unicode="X" horiz-adv-x="834" 
d="M762 374l11 -5l5 -12l-14 -31q-21 -15 -44.5 -20.5t-50.5 -5.5h-28t-28 1l1 -3l7 -48q0 -10 6 -46q1 -7 4 -19q15 -14 63 -30q79 -26 79 -89q0 -37 -26.5 -55t-65.5 -18q-77 0 -86 106t-66 106q-29 -46 -54 -68q-28 -31 -61 -60q-55 -46 -117.5 -70.5t-132.5 -24.5
q-77 0 -123 28q-37 23 -41 59l6 19l15 8l15 -5q40 -56 56 -68q29 -22 87 -22q69 0 198 75q110 99 137 136l-3 2q-33 16 -52 32q-30 26 -30 53l3 6q8 16 9 19q14 4 23.5 5t22.5 1q7 0 50 -5q17 -2 36 -2q3 0 1.5 9.5t-1.5 12.5l-2 51q0 78 11 124q20 84 73 84q3 0 10.5 -2
t11.5 -3l8 -15q0 -13 -12 -13q-7 0 -19.5 4.5t-13.5 4.5q-20 0 -29.5 -31.5t-9.5 -93.5q0 -22 1 -34q5 -59 5 -61v-12q30 67 88 140q66 74 121 118q73 59 141 59q13 0 20 -1.5t26 -6.5l18 -22l-22 -20q-13 2 -37 7.5t-36 5.5q-73 -2 -188 -131.5t-128 -174.5q0 -3 19.5 -4
t30.5 -1q46 0 60 15q34 37 42 42zM457 438q0 -41 -31 -77t-72 -36q-35 0 -57 24t-22 60q0 115 124 191q107 66 230 66q49 0 77.5 -10t28.5 -27l-6 -13l-15 -5q-19 0 -47 8q-64 18 -84 18q-95 0 -180 -52q-98 -60 -98 -149q0 -31 18 -53t48 -22q31 0 51.5 26t20.5 57h14v-6z
M576 271q-10 -15 -17 -26q-14 -21 -19 -26l41 -18q0 21 -1 39t-4 31zM574 299v6q-3 1 -29 4t-36 3q-14 0 -26 -6.5t-12 -20.5q0 -16 20 -34q14 -12 34 -24q8 15 22 34.5t27 37.5zM675 35q9 -7 27 -7q22 0 38 12t16 34q0 34 -46 61q-25 15 -76 32q9 -48 15 -70q14 -52 26 -62
z" />
    <glyph glyph-name="Y" unicode="Y" horiz-adv-x="835" 
d="M1116 679q6 0 14 -3t15 -5l11 -19l-7 -16q-9 -6 -22 -6q-10 0 -29 4t-26 4q-75 0 -166 -126q-45 -63 -115 -195l34 3q8 0 21.5 -4t25.5 -7l17 -33l-6 -15l-13 -6l-18 14l-2 8l-39 24l-30 -2q-109 -196 -164 -274q-104 -148 -216 -224q-136 -92 -306 -92q-73 0 -127 29
q-68 37 -68 105q0 6 5.5 23t6.5 22l32 32l44 12q7 0 16 -3l18 -6l13 -24l-7 -16l-15 -6l-42 10l-35 -15q-2 -5 -8 -19.5t-6 -16.5q0 -58 62 -87q49 -23 113 -23q124 0 228 59q89 50 170 148q61 74 134 196l81 138q2 3 6 14t10 11l-6 -1l-39 -2l-37 3q0 -108 -58 -186
q-65 -87 -169 -87q-60 0 -100 32q-43 35 -43 94q0 98 90 171q84 58 169 116q91 72 91 166q0 5 6.5 10t11.5 5l13 -5q6 -5 9 -15t3 -19q0 -58 -87 -126q-81 -62 -162 -123q-88 -81 -88 -168q0 -44 31 -79t76 -35q83 0 139 78q51 71 51 157v15q-14 5 -25 17t-18 29q0 6 6 13
t13 7l24 -13l17 -38l32 -3q15 0 30.5 1t30.5 4q53 87 96 146q70 98 133 152q82 71 150 71zM397 436q-18 -31 -48 -52t-64 -21q-32 0 -52 20t-20 51q0 110 135 182q114 61 233 61q44 0 87 -9q66 -14 66 -41q0 -17 -17 -17q-50 16 -93 28.5t-76 12.5q-102 0 -190 -47
q-106 -57 -106 -151q0 -25 15.5 -42.5t39.5 -17.5t46 16q17 12 34 37z" />
    <glyph glyph-name="Z" unicode="Z" horiz-adv-x="718" 
d="M865 651q6 0 15 -3t18 -5l13 -21q0 -29 -34 -42q-26 -10 -72 -10q-23 0 -39 1.5t-35 5.5q-53 -40 -98 -118q-9 -15 -71 -138h6q85 0 109 23q37 36 50 41l13 -5l5 -13q-14 -31 -59 -50t-92 -19q-23 0 -40 6q-8 -18 -21 -38.5t-28 -40.5l-4 -4l7 -2l39 -9q65 -13 96 -40
q27 -24 27 -55q0 -62 -65 -96q-53 -28 -121 -28q-52 0 -117 8q-156 19 -195 19q-33 0 -68.5 -8t-69.5 -16q-14 0 -14 14q25 39 140 45.5t164 37.5q32 20 64 60l54 68q-32 7 -53 21q-29 19 -29 47l16 28q13 4 34.5 6t38.5 2q14 0 28.5 -0.5t28.5 -0.5q51 84 92 138
q54 71 113 121q-116 21 -137 24q-80 12 -139 12q-73 0 -127 -35q-64 -41 -64 -111q0 -32 23.5 -54.5t54.5 -22.5q44 0 77 33t39 78l14 -1q0 -56 -48 -100t-105 -44q-35 0 -59.5 23.5t-24.5 59.5q0 91 90 155q82 58 177 58q62 0 156 -30l92 -30q34 26 63 39q36 16 72 16z
M465 306q-26 0 -44.5 -5.5t-18.5 -25.5q0 -15 17 -27q9 -6 32 -16l45 74h-31zM256 43q123 -16 247 -32q56 0 98 22q52 27 52 79q0 54 -87 78q-55 13 -73 17q-46 -58 -108 -102.5t-129 -61.5zM805 583q22 0 39 5q26 8 26 24q0 10 -11 12.5t-16 2.5q-23 0 -46.5 -10t-45.5 -26
q27 -8 54 -8z" />
    <glyph glyph-name="bracketleft" unicode="[" horiz-adv-x="485" 
d="M34 -94h74l-8 -17h-129l394 826h129l-8 -16h-74z" />
    <glyph glyph-name="backslash" unicode="\" horiz-adv-x="283" 
d="M248 -112l-13 12l-225 788l18 27l17 -14q11 -36 30.5 -101.5t48.5 -161.5q23 -75 42.5 -141.5t35.5 -123.5q24 -81 40.5 -148t26.5 -123z" />
    <glyph glyph-name="bracketright" unicode="]" horiz-adv-x="500" 
d="M448 699h-73l8 16h128l-393 -826h-129l8 17h74z" />
    <glyph glyph-name="asciicircum" unicode="^" horiz-adv-x="441" 
d="M309 615v-1v1zM374 477q-11 7 -34.5 32.5t-52.5 61.5q-14 17 -26 33.5t-25 33.5q-6 8 -10.5 13.5t-11.5 13.5q-15 -20 -30 -42q-8 -12 -16.5 -23.5t-16.5 -22.5q-20 -27 -41.5 -52t-41.5 -48l-22 9l-1 16q17 26 42 62t51 71q8 10 17 21t17 22q7 9 14 19t14 18h26
q20 -26 37.5 -46t28.5 -34q2 -3 5 -6.5t8 -8.5l1 -1q1 -1 1 -2.5t2 -3.5v1q39 -50 59.5 -79t22.5 -42z" />
    <glyph glyph-name="underscore" unicode="_" horiz-adv-x="500" 
d="M501 -74v-40h-502v40h502z" />
    <glyph glyph-name="grave" unicode="`" horiz-adv-x="216" 
d="M91 652q-12 8 -18 14q-5 7 -8 12.5t-3 10.5q0 7 5.5 16t16.5 9q12 0 24 -14q10 -15 13 -17l34 -51l-14 -15z" />
    <glyph glyph-name="a" unicode="a" horiz-adv-x="339" 
d="M204 39q0 -11 9 -11t31 16q16 12 28 24l7 -12q-21 -21 -48 -39q-35 -23 -56 -23q-24 0 -24 20q0 10 4 20.5t11 25.5q-25 -25 -50 -42q-34 -23 -61 -23q-23 0 -36 14t-13 38q0 79 91 154.5t171 75.5q22 0 45 -6.5t23 -22.5l-6 -12l-13 -5q-2 0 -44 14q-21 7 -36 7
q-58 0 -119 -63t-61 -122q0 -14 7.5 -24t21.5 -10q43 0 101 70q39 47 74 109h39q-25 -40 -48 -80q-48 -81 -48 -93z" />
    <glyph glyph-name="b" unicode="b" horiz-adv-x="354" 
d="M199 233q26 19 43 28q27 14 49 14q23 0 38 -17t15 -41q0 -88 -97 -158q-90 -65 -183 -65q-36 0 -62 6q-45 10 -45 34l5 13l14 5q16 -4 31 -8q46 0 114 143q99 209 139 266q101 144 227 144q27 0 46 -7t27 -28l-6 -15l-14 -6q-10 3 -45 19q-26 12 -48 12q-67 0 -143 -119
q-67 -120 -133 -239q-81 -143 -144 -179q38 -18 81 -18q65 0 124.5 59.5t59.5 124.5q0 6 -2 11.5t-7 17.5l-25 11q-27 -6 -51 -18z" />
    <glyph glyph-name="c" unicode="c" horiz-adv-x="238" 
d="M191 75q-25 -31 -63.5 -55.5t-72.5 -24.5q-27 0 -42.5 17.5t-15.5 44.5q0 66 76.5 139.5t142.5 73.5q17 0 29.5 -6t12.5 -21q0 -21 -21 -21q-6 0 -29 15q-11 7 -23 7q-45 0 -92 -61.5t-47 -107.5q0 -17 12 -29t29 -12q23 0 52 17q22 13 44 35z" />
    <glyph glyph-name="d" unicode="d" horiz-adv-x="333" 
d="M283 56q-21 -19 -50 -38q-37 -24 -56 -24q-23 0 -23 23q0 9 4 19.5t11 25.5q-29 -29 -56 -45q-35 -21 -67 -21q-23 0 -38 15t-15 39q0 69 86 146t157 77q14 0 24 -4t10 -16l-5 -12l-13 -5q-24 5 -48 11q-48 0 -103.5 -63.5t-55.5 -111.5q0 -3 3.5 -12.5t6.5 -16.5
q11 -5 15 -7t9 -5q67 0 161 145q83 134 167 269q102 145 191 145q21 0 34 -6.5t18 -25.5l-6 -14l-14 -6q-10 2 -31 14.5t-35 12.5q-41 0 -133 -134q-72 -105 -151 -250q-69 -126 -73 -142l8 -9q14 6 30 15.5t32 21.5z" />
    <glyph glyph-name="e" unicode="e" horiz-adv-x="239" 
d="M191 71q-29 -29 -62 -50q-42 -27 -74 -27q-26 0 -42 18t-16 44q0 66 73.5 141.5t138.5 75.5q16 0 26 -6.5t10 -21.5q0 -38 -77 -81q-57 -32 -115 -48q-7 -21 -7 -36q0 -19 10.5 -32.5t28.5 -13.5q24 0 55 18q16 9 48 34zM198 232q0 16 -18 16q-30 0 -69 -42
q-31 -34 -50 -70q41 13 81 36q56 32 56 60z" />
    <glyph glyph-name="f" unicode="f" horiz-adv-x="342" 
d="M99 211q0 29 18.5 39.5t49.5 10.5q13 0 23 -0.5t17 -0.5l1 3l31 59q36 68 70 117q49 69 100 109q62 48 125 48q30 0 41.5 -7t11.5 -21q-1 -2 -1 -3q-3 -5 -5 -9l-15 -5q-11 1 -32.5 11t-33.5 10q-74 0 -152 -125q-10 -16 -97 -190q5 -2 12.5 -2h14.5q15 0 27.5 9t13.5 24
l18 16l17 -19l-17 -33q-14 -6 -29.5 -8t-31.5 -2h-32q-4 -9 -48 -93q-52 -100 -52 -164q0 -126 -59 -211q-68 -98 -189 -98q-26 0 -46 7t-28 27l5 12l13 5l42 -17q63 35 138 166q41 71 100 202q-9 44 -13 66q-8 42 -8 67zM200 245l-16 1q-30 0 -45.5 -18.5t-15.5 -49.5
q0 -17 2 -31t8 -43q34 78 67 141zM-89 -292l20 -1q97 0 151 98q44 80 44 186q-30 -69 -92 -152q-66 -88 -123 -131z" />
    <glyph glyph-name="g" unicode="g" horiz-adv-x="388" 
d="M124 -7q-23 0 -38.5 16.5t-15.5 40.5q0 77 95 153q90 72 171 72q38 0 56 -8.5t26 -24.5l-5 -14l-12 -5q-9 0 -26 9q-41 21 -71 21q-60 0 -122 -63t-62 -122q0 -3 3.5 -12.5t6.5 -16.5l27 -12q41 0 84 55q100 128 121 133l16 -14l-16 -15q-28 8 -65 -62q-4 -7 -41 -96
q-46 -108 -83 -169q-54 -89 -119 -135q-79 -56 -179 -56q-56 0 -95 27q-44 31 -44 86q0 46 34 79t81 33q31 0 52 -11q29 -15 29 -42q0 -4 -3 -9.5t-4 -7.5l-15 -7q-29 26 -44 37t-34 11q-32 0 -55 -25t-23 -57q0 -44 38 -72q34 -25 81 -25q95 0 161 58q47 41 97 135
q77 146 82 153q-30 -19 -42 -25q-25 -13 -47 -13z" />
    <glyph glyph-name="h" unicode="h" horiz-adv-x="361" 
d="M13 -7q-23 0 -40 6t-23 24l6 14q7 2 14 5q6 0 15.5 -4t15.5 -5q61 24 132 173q97 203 135 256q96 132 225 132q25 0 42.5 -7t25.5 -28l-7 -15l-14 -6q-10 2 -43 18q-25 12 -48 12q-57 0 -116 -76q-38 -49 -94.5 -159t-73.5 -133q31 32 66 52q43 25 80 25q22 0 37.5 -13.5
t15.5 -34.5q0 -29 -45 -68q-106 -93 -114 -124l15 -16l56 14q5 0 9.5 -2t6.5 -3l5 -12l-6 -13q-6 -2 -9.5 -3.5t-6.5 -1.5q-12 0 -35 1t-34 1l-35 -2l-14 17q0 29 78 95t78 103q0 31 -33 31q-46 0 -96 -47q-21 -19 -84 -97q-51 -62 -79 -78l23 -3q15 0 30.5 5.5t29.5 15.5
l7 -8q-23 -18 -47.5 -29.5t-50.5 -11.5z" />
    <glyph glyph-name="i" unicode="i" horiz-adv-x="160" 
d="M14 -4q-24 0 -24 22q0 18 32 73q43 72 87 144q-1 2 -3 3.5t-3 2.5q-11 0 -32.5 -14t-32.5 -24l-6 12q31 24 48 35q35 22 54 22q22 0 22 -21q0 -18 -58.5 -110t-58.5 -103q0 -7 8 -7q12 0 34 16q10 7 30 24l6 -12q-25 -23 -48 -39q-34 -24 -55 -24zM224 443q19 0 19 -20
q0 -13 -9.5 -24.5t-21.5 -11.5q-19 0 -19 20q0 14 8.5 25t22.5 11z" />
    <glyph glyph-name="j" unicode="j" horiz-adv-x="153" 
d="M228 443q18 0 18 -20q0 -13 -9.5 -24.5t-21.5 -11.5q-18 0 -18 20q0 14 8.5 25t22.5 11zM137 272q3 0 8.5 -2.5t7.5 -2.5l6 -15q-12 -51 -100 -187q-94 -146 -192 -254q-117 -128 -181 -128q-16 0 -30 8l-12 21l5 14l13 5q28 -8 56 -17q42 0 139 120q77 95 165 237
q80 129 90 163l-7 6q-15 -4 -33 -15q-9 -6 -30 -21l-7 11q23 21 47 36q34 21 55 21z" />
    <glyph glyph-name="k" unicode="k" horiz-adv-x="345" 
d="M192 -4q-6 0 -20 7l-8 18q2 11 16 41.5t14 48.5l-1 13q-14 0 -25.5 5t-11.5 17l16 12q19 0 29 -18q31 0 62 21q36 24 36 54q0 31 -33 31q-44 0 -98 -59q-144 -159 -149 -161l21 -3q36 0 64 23l6 -8q-23 -19 -49.5 -30.5t-55.5 -11.5q-31 0 -43 6.5t-12 21.5q0 4 6 13
q5 4 14 4q6 0 16 -3.5t14 -3.5q60 25 131 175q98 208 133 257q94 131 223 131q24 0 42.5 -7t25.5 -26l-6 -14l-15 -6q-3 1 -43 17q-28 11 -46 11q-54 0 -116 -77q-44 -55 -99 -160l-72 -138q27 31 64 56q45 30 78 30q18 0 31.5 -11.5t13.5 -30.5q0 -41 -49 -77
q-44 -32 -89 -38q4 -12 4 -27q0 -8 -2 -25t-2 -26q0 -12 16 -20q11 4 24 11.5t40 29.5l5 -10q-17 -21 -45 -40q-33 -23 -55 -23z" />
    <glyph glyph-name="l" unicode="l" horiz-adv-x="204" 
d="M124 31q-46 -37 -112 -37q-26 0 -37 4q-19 7 -25 26l6 13l12 5l31 -8q63 26 134 176q97 205 133 255q94 131 226 131q26 0 42.5 -7t23.5 -29l-6 -13l-13 -5q-8 1 -53 20q-19 8 -37 8q-84 0 -156 -119q-60 -121 -120 -241q-75 -144 -153 -182q19 -8 38 -8q31 0 60 19z" />
    <glyph glyph-name="m" unicode="m" horiz-adv-x="487" 
d="M-29 0q28 37 77 115q53 84 65 115l-8 7q-16 -4 -32 -15q-9 -6 -28 -22l-7 11q30 29 57 44.5t42 15.5l16 -5l6 -14q0 -13 -4.5 -23t-15.5 -27q31 25 65 44q47 26 73 26q32 0 32 -29q0 -9 -3 -19t-5 -15q38 29 62 43q39 22 71 22q22 0 37 -11.5t15 -33.5q0 -34 -79 -100
t-79 -94q0 -17 14 -17q9 0 35 9q14 5 21 5l17 -5l5 -12q0 -12 -37 -14.5t-57 -2.5h-28q-15 0 -15 16q0 33 76.5 96.5t76.5 100.5q0 14 -10 23t-25 9q-57 0 -134 -95q-59 -73 -94 -148h-50q24 32 74 113q56 90 63 116l-5 9l-11 3q-69 0 -160 -134q-34 -49 -62 -107h-51z" />
    <glyph glyph-name="n" unicode="n" horiz-adv-x="334" 
d="M-29 0q59 86 99 153q36 61 41 79l-6 7q-9 0 -22.5 -8.5t-39.5 -30.5l-7 11q21 20 47 37q35 23 54 23q21 0 21 -19q0 -15 -8 -31q-2 -4 -17 -28q38 36 68 55q43 27 82 27q21 0 35.5 -12.5t14.5 -33.5q0 -36 -78.5 -101.5t-78.5 -94.5q0 -14 13 -14q10 0 30 6t30 6
q5 0 15 -4l5 -12l-6 -14q-7 -5 -15 -5q-28 0 -70.5 1.5t-46.5 3.5l-4 12q0 28 77.5 96.5t77.5 103.5q0 13 -9.5 21.5t-23.5 8.5q-73 0 -163 -135q-10 -15 -65 -108h-50z" />
    <glyph glyph-name="o" unicode="o" horiz-adv-x="266" 
d="M63 -8q-33 0 -49.5 19.5t-16.5 53.5q0 73 79.5 142.5t154.5 69.5q15 0 27 -5.5t12 -17.5q0 -17 -21 -17q-10 0 -30 6t-31 6q-53 0 -98.5 -60.5t-45.5 -116.5q0 -24 9 -37.5t32 -13.5q44 0 82 45t38 90q0 7 -5 23t-5 24q0 7 5.5 12.5t12.5 5.5q14 0 19.5 -14.5t5.5 -30.5
q0 -58 -59 -121t-116 -63z" />
    <glyph glyph-name="p" unicode="p" horiz-adv-x="313" 
d="M-207 -329q-30 0 -43 3q-30 7 -30 27q0 3 2.5 7t4.5 8l16 6l33 -9q53 17 146 190q148 276 169 308q106 162 197 162q7 0 13 -2.5t12 -4.5l9 -17l-6 -15q-12 -6 -16 -6q-10 0 -27 4.5t-23 4.5q-46 0 -98 -75q-19 -27 -37 -65q32 34 58 51q38 25 73 25q25 0 39 -15t14 -41
q0 -71 -70.5 -147t-141.5 -76q-3 0 -15 4.5t-14 5.5l-12 23l6 15l15 6l13 -10q0 -11 5.5 -18.5t17.5 -7.5q48 0 98 70.5t50 120.5q0 3 -4.5 14t-4.5 12l-23 10q-70 0 -141 -117q-62 -119 -123 -237q-79 -142 -157 -181q18 -6 36 -6q22 0 45.5 6.5t44.5 18.5l7 -10
q-27 -20 -64.5 -31t-73.5 -11z" />
    <glyph glyph-name="q" unicode="q" horiz-adv-x="304" 
d="M-17 -316h-40l223 369q-30 -23 -55 -37q-35 -19 -63 -19q-25 0 -39 15t-14 41q0 76 81.5 148t157.5 72q22 0 41.5 -7.5t19.5 -25.5l-5 -12l-12 -5q-12 2 -29.5 16.5t-38.5 14.5q-57 0 -111 -59t-54 -116q0 -42 41 -42q50 0 102 53q42 42 69 99h32z" />
    <glyph glyph-name="r" unicode="r" horiz-adv-x="234" 
d="M-30 0q31 38 104 163q34 58 38 68l-6 5q-10 0 -33 -15q-13 -8 -31 -22l-6 11q22 20 50 38q36 23 55 23q3 0 13 -5l5 -12q0 -10 -2 -16t-16 -31q22 24 44 39q31 21 54 21q12 0 22 -5.5t10 -17.5q0 -20 -16 -20q-5 0 -16 5t-20 5q-50 0 -118 -95q-47 -66 -80 -139h-51z" />
    <glyph glyph-name="s" unicode="s" horiz-adv-x="227" 
d="M232 306l4 11l12 5q11 0 18 -10t7 -21q0 -26 -21 -43t-49 -17q-11 0 -33 4t-32 4q-27 0 -27 -24q0 -7 43 -69q21 -30 21 -57q0 -42 -33.5 -70.5t-76.5 -28.5q-34 0 -59.5 18t-25.5 52q0 27 17 44t44 17q17 0 29.5 -9.5t12.5 -26.5q0 -13 -7.5 -22t-20.5 -9l-13 6l-6 13
q0 4 2.5 10.5t2.5 8.5q-4 7 -10 7q-14 0 -24 -12t-10 -27q0 -24 20.5 -38t45.5 -14q30 0 50.5 18.5t20.5 47.5q0 22 -24 58t-24 58q0 32 24.5 54.5t58.5 22.5q13 0 34.5 -2.5t24.5 -2.5q25 0 29 22q-11 2 -18 7t-7 15z" />
    <glyph glyph-name="t" unicode="t" horiz-adv-x="240" 
d="M79 236q0 16 11.5 22.5t30.5 6.5q12 0 23 -1t21 -2q37 74 79 124q61 73 118 73q25 0 25 -13l-4 -9q-6 -3 -13 -3q-16 3 -24 3q-54 0 -92 -71q-27 -55 -54 -109l27 -3q37 0 43 25t16 25q18 0 18 -19q0 -24 -23 -34t-55 -10h-17q-10 2 -14 2q-13 -33 -18 -46
q-10 -26 -21 -45q16 -24 16 -52q0 -52 -45 -81q-39 -25 -94 -25q-24 0 -42 5q-28 8 -28 26q0 15 12 15q4 0 11 -2t10 -2q23 0 73.5 59.5t50.5 80.5q-14 13 -20 21q-21 25 -21 39zM157 249l-16 1q-14 0 -22.5 -6t-8.5 -19q0 -8 5 -18t12 -16q5 9 12.5 22t17.5 36zM12 27
q23 -9 48 -9q40 0 67 21q31 24 31 62q0 19 -10 37q-25 -43 -56 -70q-38 -33 -80 -41z" />
    <glyph glyph-name="u" unicode="u" horiz-adv-x="295" 
d="M149 -4q-21 0 -21 19q0 14 11 36q2 5 11 21q-31 -31 -55 -48q-38 -27 -67 -27q-35 0 -35 35q0 21 30 72q38 65 77 131l-7 7q-10 0 -20 -6t-38 -27l-5 12q19 17 44 33q32 20 50 20q9 0 16 -5t7 -14q0 -19 -56 -106t-56 -106l5 -11l12 -5q42 0 113 85q66 79 79 123l-6 8
q-7 0 -28 -14q-17 -11 -27 -19l-7 11q22 21 43 34q31 19 51 19q22 0 22 -19q0 -17 -58 -110t-58 -104q0 -10 9 -10q8 0 23 10q8 6 40 32l7 -12q-23 -23 -49 -41q-35 -24 -57 -24z" />
    <glyph glyph-name="v" unicode="v" horiz-adv-x="286" 
d="M-8 23q7 5 13 5q11 0 30 -2.5t23 -2.5q69 0 121 61.5t52 133.5l-2 38q0 20 20 20q15 0 21 -10.5t6 -28.5q0 -86 -86 -165t-174 -79q-12 0 -20.5 3.5t-8.5 14.5zM70 237q-4 -3 -7 -6q-11 -8 -17 -8q-14 0 -14 14t28 24t70 10q17 0 17 -8q-23 -30 -34 -49q-34 -59 -34 -109
q0 -10 2.5 -27.5t2.5 -21.5q0 -21 -17 -21q-15 0 -22 14.5t-7 31.5q0 48 27 97q23 41 64 80q-21 -3 -33.5 -7t-25.5 -14z" />
    <glyph glyph-name="w" unicode="w" horiz-adv-x="410" 
d="M24 -7q-14 0 -24 4t-10 16q0 16 19 16q8 0 25 -3t27 -3q32 0 61 14.5t52 39.5v13q0 48 22 108q27 75 65 75q11 0 16.5 -8.5t5.5 -21.5q0 -35 -31 -87q-24 -41 -57 -77q7 -20 18.5 -30.5t29.5 -10.5q51 0 85 51q31 46 31 100q0 13 -1 22q-4 34 -4 37q0 11 5.5 20t16.5 9
q14 0 19 -12t5 -29q0 -65 -52 -147q-58 -91 -118 -91q-23 0 -37 17.5t-17 43.5q-36 -31 -73 -48.5t-79 -17.5zM67 232q-11 -9 -16 -9q-14 0 -14 14q0 19 33.5 27.5t60.5 8.5q20 0 20 -11q-27 -31 -46 -70q-22 -44 -22 -83q0 -9 3 -25t3 -24q0 -23 -22 -23q-15 0 -20 13.5
t-5 32.5q0 47 27 96q24 45 63 79q-20 -3 -35 -8.5t-30 -17.5zM253 212q0 15 -10 15q-22 0 -39 -49q-13 -39 -13 -69v-13q29 36 47 71q15 29 15 45z" />
    <glyph glyph-name="x" unicode="x" horiz-adv-x="268" 
d="M55 130l7 18h47q4 11 7 24.5t3 26.5q0 37 -33 37q-7 0 -16 -3t-17 -5l-6 3l-3 6q4 17 20 26.5t35 9.5q23 0 33.5 -15t10.5 -37q0 -13 -3 -25q21 29 52 52q37 28 68 28q8 0 16 -4.5t8 -13.5t-25 -18q-38 -14 -76 -27q-13 -10 -21.5 -20.5t-29.5 -44.5h45l-8 -18h-45
q-8 -18 -13.5 -36t-5.5 -34q0 -20 12 -33t33 -13q14 0 26 7.5t12 20.5q0 16 -18 16q-8 -1 -12 -1q-15 0 -15 15q0 13 10 20t23 7q17 0 27.5 -11.5t10.5 -29.5q0 -27 -20 -45t-47 -18q-30 0 -45.5 19.5t-15.5 51.5q-25 -33 -51 -51q-33 -22 -68 -22q-10 0 -18.5 6.5
t-8.5 16.5q0 19 22 19q17 -2 23 -2q38 0 71 31q26 24 46 66h-47z" />
    <glyph glyph-name="y" unicode="y" horiz-adv-x="305" 
d="M134 271q21 0 21 -19t-31 -71q-79 -133 -83 -146q6 -13 17 -13q51 0 110 66l94 122q52 67 82 67q11 -3 15 -4l6 -13l-3 -12q-10 -8 -47 -19q-26 -8 -51 -43q-30 -41 -106 -202q-71 -149 -125 -212q-85 -99 -193 -99q-26 0 -43.5 7t-24.5 29l6 14l14 6q16 -3 40.5 -16
t49.5 -13q79 0 148 119q40 76 54 103q21 41 36 68q22 41 40 66l2 3q-26 -22 -42 -32q-50 -33 -82 -33q-38 0 -38 34q0 22 47 96q53 83 61 106l-6 6q-17 -4 -35 -15q-13 -8 -32 -23l-6 9q25 23 49 40q35 24 56 24z" />
    <glyph glyph-name="z" unicode="z" horiz-adv-x="228" 
d="M177 148l-9 -18h-55l-86 -88q35 15 68 15q25 0 47.5 -10.5t22.5 -32.5q0 -8 -5.5 -14.5t-13.5 -6.5q-6 0 -35 19.5t-55 19.5q-30 0 -49 -17q-24 -21 -34 -23l-12 4l-4 11q0 7 58 59l72 64h-47l8 18h57l75 80q-12 -3 -28.5 -6t-27.5 -3q-32 0 -47 9.5t-15 25.5t17 19
q29 -17 43.5 -23.5t35.5 -6.5q23 0 40 11q21 14 29 15l7 -4l4 -7q0 -10 -47 -54l-60 -56h46z" />
    <glyph glyph-name="braceleft" unicode="{" horiz-adv-x="393" 
d="M200 380q0 -24 -9.5 -45t-29.5 -35q12 -8 20 -17.5t14 -21.5q9 -26 9 -66v-15t-1 -18q0 -3 -0.5 -7.5t-0.5 -8.5v-10q0 -97 20 -145q29 -70 119 -70l19 -19l-17 -15q-109 0 -152 89q-12 27 -18 72t-6 105v62q0 42 -33 56q-21 9 -85 9v36l40 -1q45 0 66 30q15 25 15 78
q0 12 -0.5 24t-1.5 23l-5 70q0 88 42 130.5t136 42.5l19 -20l-17 -14q-92 0 -123 -49q-26 -38 -26 -117q0 -25 3 -68q3 -45 3 -65z" />
    <glyph glyph-name="bar" unicode="|" horiz-adv-x="130" 
d="M63 -114l-18 20v782l23 19l18 -19v-780z" />
    <glyph glyph-name="braceright" unicode="}" horiz-adv-x="384" 
d="M339 280l-48 1q-41 0 -60 -26q-12 -23 -12 -70v-32q1 -9 1 -17v-13q0 -54 -6.5 -93.5t-21.5 -66.5q-45 -76 -151 -76l-18 20l17 14q92 0 122 73q23 48 23 151q0 7 -0.5 12.5t-0.5 10.5v38q0 32 9.5 54.5t34.5 38.5q-24 20 -35 51.5t-11 75.5q0 10 1 27t3 41q0 2 0.5 5.5
t0.5 5.5v4q0 1 0.5 2t0.5 3q1 9 1 16.5v13.5q0 72 -34.5 103.5t-113.5 31.5l-18 20l17 14q54 0 92 -14.5t59 -39.5q28 -40 28 -129v-52q-1 -18 -1 -30.5v-21.5q0 -66 22 -88q25 -22 99 -22v-36z" />
    <glyph glyph-name="asciitilde" unicode="~" horiz-adv-x="499" 
d="M331 577q49 0 72 38q21 33 21 84q0 15 17 15q15 0 15 -15q0 -62 -32 -106q-17 -22 -42 -34.5t-55 -12.5q-65 0 -90 69q-26 64 -72 64q-30 0 -49 -13t-27 -35q-8 -39 -14.5 -60.5t-17.5 -21.5q-15 0 -15 16q0 63 31 101q34 45 96 45q67 0 94 -70q13 -32 29 -48t39 -16z
" />
    <glyph glyph-name="exclamdown" unicode="&#xa1;" horiz-adv-x="210" 
d="M-8 -78q0 15 16 41q12 20 14 23q36 59 65 120t49 125q3 12 8.5 26.5t15.5 14.5t10 -10q0 -3 -2 -9t-6 -16q-25 -58 -47 -129t-39 -140q-4 -15 -9 -31t-13 -27q-11 -16 -31 -16q-11 0 -21 8t-10 20zM179 303q-21 0 -21 22q0 14 11.5 28.5t25.5 14.5q21 0 21 -22
q0 -16 -10.5 -29.5t-26.5 -13.5z" />
    <glyph glyph-name="questiondown" unicode="&#xbf;" horiz-adv-x="332" 
d="M226 277q15 0 24 -10t9 -26q0 -40 -46.5 -84t-91.5 -85q-49 -52 -49 -102q0 -26 15 -42t41 -16q38 0 67.5 32.5t29.5 72.5q0 16 -8 29.5t-24 13.5q-27 0 -38.5 -26.5t-11.5 -57.5h-13l-1 14q0 35 19.5 63t52.5 28q24 0 40 -16t16 -41q0 -55 -44 -92.5t-100 -37.5
q-39 0 -66 22t-27 61q0 49 54 95q51 36 102 73q55 41 55 77q0 20 -16 20q-15 0 -25.5 -16t-15.5 -34l-12 4q6 29 20 51q19 30 44 30zM250 303q-20 0 -20 22q0 14 11.5 28.5t25.5 14.5q21 0 21 -22q0 -14 -11.5 -28.5t-26.5 -14.5z" />
    <glyph glyph-name="onehalf" unicode="&#xbd;" horiz-adv-x="747" 
d="M46 309q19 35 44 75t57 81q27 37 50.5 69t50.5 68q-62 -40 -126 -66l-6 21q20 7 41.5 16.5t44.5 23.5q34 18 54 29t26 14q10 0 10 -9q0 -1 -12 -19q-3 -3 -6 -8t-7 -10q-1 -2 -2 -3t-2 -3q-9 -13 -29 -36h1q-19 -29 -37.5 -58.5t-35.5 -61.5q-16 -26 -32 -57t-33 -66h-51
zM81 15l-31 2l530 665l29 -2zM629 102q-10 -26 -19 -38q-26 -28 -49 -28q-25 0 -55 24t-41 24q-14 0 -17 -22q-3 -25 -16 -25q-18 0 -18 21q0 37 61 76l56 32t57 33q30 21 44.5 44.5t14.5 46.5t-14 38.5t-38 15.5q-27 0 -48.5 -17.5t-21.5 -43.5q0 -13 12 -17h-1
q3 -1 6.5 -1.5t6.5 -1.5t7 -1t8 -1l4 -11q-5 -21 -24 -21t-29.5 12.5t-10.5 28.5q0 43 35 69t76 26q32 0 53.5 -18.5t21.5 -48.5q0 -26 -15 -49.5t-43 -43.5q-10 -8 -37.5 -23.5t-71.5 -38.5q-60 -28 -68 -49q6 5 14 7t16 2q22 0 52 -19q28 -19 38 -19q14 0 25 14q7 9 16 29
z" />
    <glyph glyph-name="onequarter" unicode="&#xbc;" horiz-adv-x="620" 
d="M11 309q19 35 44 75t57 81q27 37 50.5 69t50.5 68q-62 -40 -126 -66l-6 21q20 7 41.5 16.5t44.5 23.5q34 18 53.5 29t26.5 14q10 0 10 -9q-2 -4 -13 -19q-3 -3 -6 -8t-7 -10q-1 -2 -2 -3t-2 -3q-5 -8 -11.5 -16.5t-16.5 -19.5h1q-19 -29 -37.5 -58.5t-35.5 -61.5
q-16 -26 -32.5 -57t-33.5 -66h-50zM477 128v-1q-20 6 -38 6q-21 0 -33 -18q-14 -19 -25 -19l-9 4l-3 9q50 45 89 92q40 43 40 78q0 2 -1.5 7t-3.5 9q-1 2 -2.5 4t-2.5 4l-8 16l8 13l15 4q14 0 22.5 -13.5t8.5 -26.5t-5 -26.5t-16.5 -31t-31 -39t-48.5 -50.5q23 10 50 10h14
q25 44 31 50q15 24 29.5 45t29.5 39l14 -7q-5 -9 -11 -19t-12 -21q-5 -8 -9 -16.5t-9 -16.5q-33 -56 -34 -63l6 -2l6 -2q12 -5 20 -5q5 0 9.5 4.5t8.5 9.5q2 3 5 6t5 4l6 -2l5 -6q0 -20 -20.5 -30.5t-46.5 -10.5h-10t-9 2q-14 -29 -27.5 -59t-23.5 -59h-49q2 5 5 10.5t5 9.5
q14 30 27 54.5t31 52.5zM80 15l-31 2l530 665l29 -2z" />
    <glyph glyph-name="threequarters" unicode="&#xbe;" horiz-adv-x="694" 
d="M188 537q39 8 64 26q32 23 32 54q0 21 -13 33t-35 12q-19 0 -37 -12.5t-20 -31.5q1 -2 1.5 -4t1.5 -3q2 -1 2.5 -1t2.5 -1q10 -3 17 -7t7 -12t-6.5 -13.5t-14.5 -5.5q-14 0 -23 10.5t-9 24.5q0 16 8 30t21.5 24t30 15.5t33.5 5.5q29 0 49 -14.5t20 -41.5t-34 -61
q-7 -5 -16 -11t-22 -12q15 -4 24 -17t9 -32q0 -24 -13 -45t-37 -41q-46 -34 -96 -34q-26 0 -45 11q-23 14 -23 41q0 20 15.5 34.5t38.5 14.5q12 0 21 -6t9 -19l-5 -11l-14 -4q-3 1 -6.5 2t-6.5 2q-5 0 -9.5 1t-7.5 2q-8 -1 -12 -6t-4 -13q0 -17 14.5 -25.5t32.5 -8.5
q20 0 39 7.5t34 20.5q32 30 32 69q0 22 -11.5 30.5t-31.5 8.5h-15zM477 128v-1q-20 6 -38 6q-20 0 -32 -18q-14 -19 -26 -19l-9 4l-3 9q26 23 47.5 46t41.5 46q40 43 40 78q0 2 -1.5 7t-3.5 9q-1 2 -2.5 4t-2.5 4l-8 16l8 13l15 4q14 0 22.5 -13.5t8.5 -26.5t-5 -26.5
t-16.5 -31t-31 -39t-48.5 -50.5q23 10 50 10h14q25 44 31 50q15 24 29.5 45t30.5 39l13 -7q-5 -9 -10.5 -19t-11.5 -21q-5 -8 -9.5 -16.5t-9.5 -16.5q-33 -56 -34 -63l6 -2l6 -2q12 -5 20 -5q5 0 10 4.5t9 9.5q2 3 5 6t5 4l5 -2l5 -6q0 -20 -20.5 -30.5t-46.5 -10.5h-10
t-9 2q-14 -29 -27.5 -59t-23.5 -59h-48q2 5 4.5 10.5t4.5 9.5q14 30 27 54t31 52zM80 15l-30 2l530 665l28 -2z" />
    <glyph glyph-name="uni00B2" unicode="&#xb2;" horiz-adv-x="380" 
d="M266 450q-7 -21 -21 -38q-17 -20 -39 -20q-21 0 -48 21q-26 21 -35 21q-12 0 -15 -19q-3 -22 -14 -22q-16 0 -16 19q0 34 53 66l24 14t25 15q11 7 24.5 14.5t25.5 14.5q52 37 52 79q0 20 -12.5 34t-33.5 14q-23 0 -42 -15.5t-19 -37.5q0 -9 10 -14h-1q5 -2 10.5 -2.5
t14.5 -2.5l4 -10q-5 -20 -22 -20q-16 0 -25.5 11.5t-9.5 26.5q0 18 8.5 33t22 26.5t31 17.5t35.5 6q28 0 47 -16t19 -43q0 -43 -50 -82q-19 -14 -96 -55q-22 -11 -37 -21t-21 -19q10 5 25 5q10 0 22 -4.5t23 -11.5t20.5 -12t12.5 -5q14 0 18 7q6 6 10 13.5t8 17.5z" />
    <glyph glyph-name="uni00B3" unicode="&#xb3;" horiz-adv-x="372" 
d="M187 537q39 7 65 26q31 22 31 54q0 21 -12.5 33t-35.5 12q-19 0 -37 -12.5t-20 -31.5q1 -2 1.5 -4t1.5 -3q2 -1 2.5 -1t2.5 -1q10 -3 17 -7t7 -12t-6.5 -13.5t-14.5 -5.5q-14 0 -23 10.5t-9 24.5q0 16 8 30t21.5 24t30.5 15.5t34 5.5q28 0 48 -14.5t20 -41.5t-34 -61
q-14 -12 -37 -23q15 -4 23.5 -17t8.5 -32q0 -47 -50 -86q-46 -34 -96 -34q-25 0 -44 11q-23 14 -23 41q0 20 15.5 34.5t37.5 14.5q12 0 21 -6t9 -19l-5 -11l-14 -4q-3 1 -6.5 2t-6.5 2q-5 0 -9.5 1t-6.5 2q-8 -1 -12 -6t-4 -13q0 -17 14 -25.5t32 -8.5q20 0 39 7.5t34 20.5
q32 30 32 69q0 22 -11.5 30.5t-31.5 8.5h-15z" />
    <glyph glyph-name="Aacute" unicode="&#xc1;" horiz-adv-x="918" 
d="M704 346h36q59 97 89 141q70 102 104 121l6 -5l-150 -254q77 9 92 43q10 22 31 31l16 -7q6 -12 6 -16q0 -39 -61 -56q-42 -12 -93 -12l-77 -148q29 -15 47.5 -37t18.5 -51q0 -49 -48 -77q-40 -23 -93 -23q-23 0 -35 4q-21 7 -21 25q0 22 46 108q27 48 32 57l-130 52
q-78 -121 -165 -186q-106 -79 -233 -79q-55 0 -96 15q-55 20 -66 64l7 18l18 7q15 -5 53 -50q31 -36 96 -36q76 0 143 41q56 35 110 101q38 47 86 125q-26 14 -33 20.5t-19 31.5l17 30q16 5 35.5 6.5t32.5 1.5h23q67 104 101 147q65 83 131 128q80 55 166 55q32 0 56.5 -5.5
t51.5 -20.5l16 -26l-7 -17l-16 -7q-18 4 -65 32q-38 22 -74 22q-93 0 -184 -115q-39 -49 -122 -196zM658 205l73 126h-159l-43 -75zM516 330h-10q-24 0 -35 -6t-11 -17q0 -7 4.5 -14t18.5 -15zM641 39q0 -9 8.5 -13.5t18.5 -4.5q32 0 58.5 22.5t26.5 54.5q0 24 -16 42
t-41 29q-16 -34 -31 -68q-24 -54 -24 -62zM813 770q14 0 14 -19q0 -10 -8 -18q-4 -4 -32 -18l-65 -31l-8 8q25 23 46 41q43 37 53 37z" />
    <glyph glyph-name="Acircumflex" unicode="&#xc2;" horiz-adv-x="909" 
d="M704 346h36q59 97 89 141q70 102 104 121l6 -5l-150 -254q77 9 92 43q10 22 31 31l16 -7q6 -12 6 -16q0 -39 -61 -56q-42 -12 -93 -12l-77 -148q29 -15 47.5 -37t18.5 -51q0 -49 -48 -77q-40 -23 -93 -23q-23 0 -35 4q-21 7 -21 25q0 22 46 108q27 48 32 57l-130 52
q-78 -121 -165 -186q-106 -79 -233 -79q-55 0 -96 15q-55 20 -66 64l7 18l18 7q15 -5 53 -50q31 -36 96 -36q76 0 143 41q56 35 110 101q38 47 86 125q-26 14 -33 20.5t-19 31.5l17 30q16 5 35.5 6.5t32.5 1.5h23q67 104 101 147q65 83 131 128q80 55 166 55q32 0 56.5 -5.5
t51.5 -20.5l16 -26l-7 -17l-16 -7q-18 4 -65 32q-38 22 -74 22q-93 0 -184 -115q-39 -49 -122 -196zM658 205l73 126h-159l-43 -75zM516 330h-10q-24 0 -35 -6t-11 -17q0 -7 4.5 -14t18.5 -15zM641 39q0 -9 8.5 -13.5t18.5 -4.5q32 0 58.5 22.5t26.5 54.5q0 24 -16 42
t-41 29q-16 -34 -31 -68q-24 -54 -24 -62zM791 783q34 -36 69 -58l-2 -10q-44 12 -85 37q-24 -9 -50 -18.5t-48 -12.5l4 12q21 6 45 16.5t67 33.5z" />
    <glyph glyph-name="Agrave" unicode="&#xc0;" horiz-adv-x="898" 
d="M704 346h36q59 97 89 141q70 102 104 121l6 -5l-150 -254q77 9 92 43q10 22 31 31l16 -7q6 -12 6 -16q0 -39 -61 -56q-42 -12 -93 -12l-77 -148q29 -15 47.5 -37t18.5 -51q0 -49 -48 -77q-40 -23 -93 -23q-23 0 -35 4q-21 7 -21 25q0 22 46 108q27 48 32 57l-130 52
q-78 -121 -165 -186q-106 -79 -233 -79q-55 0 -96 15q-55 20 -66 64l7 18l18 7q15 -5 53 -50q31 -36 96 -36q76 0 143 41q56 35 110 101q38 47 86 125q-26 14 -33 20.5t-19 31.5l17 30q16 5 35.5 6.5t32.5 1.5h23q67 104 101 147q65 83 131 128q80 55 166 55q32 0 56.5 -5.5
t51.5 -20.5l16 -26l-7 -17l-16 -7q-18 4 -65 32q-38 22 -74 22q-93 0 -184 -115q-39 -49 -122 -196zM658 205l73 126h-159l-43 -75zM516 330h-10q-24 0 -35 -6t-11 -17q0 -7 4.5 -14t18.5 -15zM641 39q0 -9 8.5 -13.5t18.5 -4.5q32 0 58.5 22.5t26.5 54.5q0 24 -16 42
t-41 29q-16 -34 -31 -68q-24 -54 -24 -62zM746 719q-11 8 -17 14q-11 12 -11 20q0 5 4.5 12.5t13.5 7.5t20 -12q11 -16 15 -21l30 -44l-9 -9z" />
    <glyph glyph-name="Adieresis" unicode="&#xc4;" horiz-adv-x="890" 
d="M704 346h36q59 97 89 141q70 102 104 121l6 -5l-150 -254q77 9 92 43q10 22 31 31l16 -7q6 -12 6 -16q0 -39 -61 -56q-42 -12 -93 -12l-77 -148q29 -15 47.5 -37t18.5 -51q0 -49 -48 -77q-40 -23 -93 -23q-23 0 -35 4q-21 7 -21 25q0 22 46 108q27 48 32 57l-130 52
q-78 -121 -165 -186q-106 -79 -233 -79q-55 0 -96 15q-55 20 -66 64l7 18l18 7q15 -5 53 -50q31 -36 96 -36q76 0 143 41q56 35 110 101q38 47 86 125q-26 14 -33 20.5t-19 31.5l17 30q16 5 35.5 6.5t32.5 1.5h23q67 104 101 147q65 83 131 128q80 55 166 55q32 0 56.5 -5.5
t51.5 -20.5l16 -26l-7 -17l-16 -7q-18 4 -65 32q-38 22 -74 22q-93 0 -184 -115q-39 -49 -122 -196zM658 205l73 126h-159l-43 -75zM516 330h-10q-24 0 -35 -6t-11 -17q0 -7 4.5 -14t18.5 -15zM641 39q0 -9 8.5 -13.5t18.5 -4.5q32 0 58.5 22.5t26.5 54.5q0 24 -16 42
t-41 29q-16 -34 -31 -68q-24 -54 -24 -62zM720 738q-18 0 -18 20q0 16 11 31.5t26 15.5q11 0 13.5 -8t2.5 -15q0 -14 -10.5 -29t-24.5 -15zM810 738q-17 0 -17 20q0 15 11 31t25 16q16 0 16 -21q0 -16 -10 -31t-25 -15z" />
    <glyph glyph-name="Aring" unicode="&#xc5;" horiz-adv-x="929" 
d="M704 346h36q59 97 89 141q70 102 104 121l6 -5l-150 -254q77 9 92 43q10 22 31 31l16 -7q6 -12 6 -16q0 -39 -61 -56q-42 -12 -93 -12l-77 -148q29 -15 47.5 -37t18.5 -51q0 -49 -48 -77q-40 -23 -93 -23q-23 0 -35 4q-21 7 -21 25q0 22 46 108q27 48 32 57l-130 52
q-78 -121 -165 -186q-106 -79 -233 -79q-55 0 -96 15q-55 20 -66 64l7 18l18 7q15 -5 53 -50q31 -36 96 -36q76 0 143 41q56 35 110 101q38 47 86 125q-26 14 -33 20.5t-19 31.5l17 30q16 5 35.5 6.5t32.5 1.5h23q67 104 101 147q65 83 131 128q80 55 166 55q32 0 56.5 -5.5
t51.5 -20.5l16 -26l-7 -17l-16 -7q-18 4 -65 32q-38 22 -74 22q-93 0 -184 -115q-39 -49 -122 -196zM658 205l73 126h-159l-43 -75zM516 330h-10q-24 0 -35 -6t-11 -17q0 -7 4.5 -14t18.5 -15zM641 39q0 -9 8.5 -13.5t18.5 -4.5q32 0 58.5 22.5t26.5 54.5q0 24 -16 42
t-41 29q-16 -34 -31 -68q-24 -54 -24 -62zM831 808q36 0 36 -34q0 -27 -19.5 -47.5t-45.5 -20.5q-37 0 -37 36q0 26 20 46t46 20zM829 792q-17 0 -29 -15.5t-12 -33.5q0 -19 18 -19q14 0 26.5 16.5t12.5 31.5q0 20 -16 20z" />
    <glyph glyph-name="Atilde" unicode="&#xc3;" horiz-adv-x="876" 
d="M704 346h36q59 97 89 141q70 102 104 121l6 -5l-150 -254q77 9 92 43q10 22 31 31l16 -7q6 -12 6 -16q0 -39 -61 -56q-42 -12 -93 -12l-77 -148q29 -15 47.5 -37t18.5 -51q0 -49 -48 -77q-40 -23 -93 -23q-23 0 -35 4q-21 7 -21 25q0 22 46 108q27 48 32 57l-130 52
q-78 -121 -165 -186q-106 -79 -233 -79q-55 0 -96 15q-55 20 -66 64l7 18l18 7q15 -5 53 -50q31 -36 96 -36q76 0 143 41q56 35 110 101q38 47 86 125q-26 14 -33 20.5t-19 31.5l17 30q16 5 35.5 6.5t32.5 1.5h23q67 104 101 147q65 83 131 128q80 55 166 55q32 0 56.5 -5.5
t51.5 -20.5l16 -26l-7 -17l-16 -7q-18 4 -65 32q-38 22 -74 22q-93 0 -184 -115q-39 -49 -122 -196zM658 205l73 126h-159l-43 -75zM516 330h-10q-24 0 -35 -6t-11 -17q0 -7 4.5 -14t18.5 -15zM641 39q0 -9 8.5 -13.5t18.5 -4.5q32 0 58.5 22.5t26.5 54.5q0 24 -16 42
t-41 29q-16 -34 -31 -68q-24 -54 -24 -62zM816 754q-9 -21 -20 -32q-15 -15 -35 -15q-12 0 -30 8q-40 18 -47 18q-10 0 -19 -7q-5 -4 -14 -15l-9 5q13 19 23 28q15 14 33 14q12 0 30 -8q40 -18 49 -18t16.5 7.5t14.5 18.5z" />
    <glyph glyph-name="Ccedilla" unicode="&#xc7;" horiz-adv-x="819" 
d="M221 -28l8 1q6 0 11 -2t11 -5q4 -10 8 -21q0 -23 -25 -42.5t-80 -35.5l-3 11q32 10 42 16q23 13 30 34l-6 13l-15 5l-13 -3l-5 6l38 46q-60 9 -96 45.5t-36 96.5q0 57 26 118t66 107q-55 10 -94 43q-46 39 -46 91q0 57 50 101q45 39 106 51l3 -12q-47 -21 -76 -57
q-33 -41 -33 -88q0 -46 29 -75q25 -26 73 -39q90 109 205 186q140 94 255 94q47 0 78 -18q40 -23 40 -67q0 -54 -47 -92t-103 -38q-20 0 -38.5 5.5t-32.5 16.5q-50 -63 -144 -90q-72 -21 -173 -21q-32 -47 -53 -99q-24 -60 -24 -110q0 -54 37 -84t92 -30q71 0 140 49
q77 55 77 123q0 23 -15 39t-38 16q-28 0 -52 -19q-18 -14 -37 -42l-12 6q16 40 49 67q37 30 78 30q28 0 46 -19t18 -48q0 -90 -107 -167q-100 -72 -195 -72zM279 368q77 0 145 26t115 81q-16 21 -16 43q0 14 7 24.5t20 10.5q12 0 18 -9.5t6 -23.5q0 -23 -14 -42
q11 -10 26 -14.5t31 -4.5q44 0 79.5 29t35.5 72q0 37 -30 56.5t-69 19.5q-99 0 -219 -90q-107 -80 -168 -177z" />
    <glyph glyph-name="ae" unicode="&#xe6;" horiz-adv-x="396" 
d="M210 -5q-27 0 -39.5 16t-12.5 41q0 8 2 22q-36 -38 -39 -41q-40 -39 -82 -39q-25 0 -40.5 13.5t-15.5 37.5q0 67 78 90q27 8 130 17q9 16 13.5 31t4.5 31q0 20 -10 32t-29 12q-27 0 -56 -26q-15 -13 -22 -13q-14 0 -14 14q0 19 32 30.5t57 11.5q31 0 51 -13.5t20 -40.5
q0 -5 -2 -15q28 29 59 47q38 22 71 22q16 0 26.5 -7t10.5 -21q0 -46 -72 -81q-61 -30 -113 -30q-15 -32 -15 -61q0 -42 38 -42q24 0 53 16.5t51 37.5l3 -16q-25 -27 -66 -51.5t-72 -24.5zM174 134q-53 0 -88 -13q-52 -19 -52 -63q0 -14 8 -23t22 -9q29 0 68 41q30 31 49 67
h-7zM354 232q0 17 -18 17q-27 0 -62 -35q-28 -29 -46 -61q35 0 77 22q49 26 49 57z" />
    <glyph glyph-name="brokenbar" unicode="&#xa6;" horiz-adv-x="268" 
d="M134 351l-16 7v311l20 7l16 -7v-311zM134 -108l-16 7v310l20 8l16 -8v-310z" />
    <glyph glyph-name="paragraph" unicode="&#xb6;" horiz-adv-x="508" 
d="M75 -1h-41l227 427q-30 -25 -56 -43q-35 -21 -65 -21q-25 0 -39 17t-14 47q0 88 84 171.5t230 77.5q31 -5 50.5 -13.5t19.5 -29.5l-5 -14l-12 -5q-12 2 -49 16t-95 3t-107 -53.5t-66 -121.5q0 -50 43 -50q51 0 105 61q42 49 70 116h33zM444 584h36l-313 -585h-41z" />
    <glyph glyph-name="germandbls" unicode="&#xdf;" horiz-adv-x="380" 
d="M-74 1q-27 0 -42 5q-26 8 -26 28l5 15l13 6q24 -9 34 -9q38 0 103 103q53 88 69 142h-51l7 12q60 23 128 125q101 152 116 169q77 85 175 85q28 0 49.5 -17t21.5 -44q0 -61 -80 -133q-20 -18 -151 -113q-82 -60 -82 -88q0 -19 52 -105q26 -42 26 -67q0 -49 -40.5 -80.5
t-90.5 -31.5q-37 0 -64 20q-29 21 -29 58q0 28 20.5 50t49.5 22q41 0 50 -45l-9 -23l-22 -10l-18 6l-6 15l5 23l-12 10q-38 -9 -38 -48q0 -27 23 -42.5t52 -15.5q34 0 61 20t27 53q0 23 -52 106q-24 39 -24 65q0 40 80 102q74 54 150 109q80 66 80 119q0 24 -18 38t-41 14
q-89 0 -175 -133q-72 -135 -145 -270q-90 -163 -174 -210q21 -7 48 -7q24 0 50 11l5 -8q-51 -31 -110 -31z" />
    <glyph glyph-name="Eacute" unicode="&#xc9;" horiz-adv-x="768" 
d="M434 770q14 0 14 -19q0 -10 -8 -18q-4 -4 -32 -18l-65 -31l-8 8q25 23 46 41q43 37 53 37zM358 439l-3 26q0 81 93 141q84 54 170 54q50 0 86 -19q46 -24 46 -70q0 -48 -36 -76q-32 -25 -81 -25q-20 0 -36 4q-29 -81 -149 -132q-106 -45 -218 -45q-32 0 -62 5
q-51 -62 -51 -140q0 -64 39 -102t103 -38q67 0 138 46q79 51 79 115q0 23 -17 39t-41 16q-19 0 -39 -10t-49 -39l-8 10q22 30 54 50t68 20q27 0 46.5 -17.5t19.5 -45.5q0 -85 -106 -153q-94 -60 -187 -60q-67 0 -113 37q-50 40 -50 106q0 48 19.5 93t53.5 83q-56 19 -88 50
q-39 38 -39 91q0 73 61 118q55 41 131 41q52 0 99 -19l-7 -13q-21 7 -40 10.5t-38 3.5q-66 0 -115 -43t-49 -108q0 -43 27 -72.5t71 -43.5q42 43 100 73t118 39zM239 312q100 0 195 41q109 47 149 127q-15 8 -24.5 21.5t-9.5 30.5l7 18l17 7q17 0 24 -12.5t7 -31.5v-13
q-2 -9 -2 -12q15 -5 30 -5q30 0 53.5 21.5t23.5 51.5q0 41 -34 62t-77 21q-75 0 -139 -47q-70 -51 -70 -124l3 -26q21 0 39.5 -7.5t18.5 -25.5l-9 -15q-12 -6 -21 -6q-39 0 -56 36q-55 -5 -102 -36q-32 -21 -82 -71q33 -5 59 -5z" />
    <glyph glyph-name="Ntilde" unicode="&#xd1;" horiz-adv-x="992" 
d="M104 -23q-57 0 -102 17q-59 22 -73 67l7 17l18 7q10 -3 50 -51q34 -40 107 -40q56 0 133 36q85 40 105 85q-49 22 -75.5 70t-26.5 104q0 162 160 274q145 101 314 101q54 0 80 -5q49 -9 66 -37q0 -14 -14 -14q-26 0 -57 10q-77 25 -101 25q-157 0 -278 -108
q-125 -112 -125 -268q0 -42 17.5 -78.5t52.5 -57.5q17 23 112 178q82 134 143 200q89 96 168 96q6 0 15 -2t17 -4l11 -18q0 -13 -14 -13q-6 0 -14 2q-20 5 -21 5q-50 0 -82 -103q-23 -73 -37 -206q-7 -79 -14 -157q19 27 131 224q91 161 164 236q106 110 222 110
q11 0 22 -2.5t28 -7.5l19 -24l-8 -18q-10 -7 -26 -7q-11 0 -34 4t-31 4q-127 0 -248 -167l-188 -310q-107 -167 -201 -167q-22 0 -32 20l6 13q8 5 19 5q5 0 28 -5q9 -2 17 -2q5 0 13.5 3.5t15.5 6.5q28 25 44 153q23 182 36 233q34 131 107 171q-54 -6 -127 -103
q-38 -51 -126 -198q-76 -127 -108 -162q7 0 20.5 -2.5t16.5 -2.5q21 0 41.5 5t52.5 26l10 -12q-25 -18 -48 -25.5t-50 -7.5q-22 0 -55 5q-60 -60 -124 -92q-72 -36 -149 -36zM712 750q-9 -21 -20 -32q-15 -15 -35 -15q-12 0 -30 8q-40 18 -47 18q-10 0 -19 -7q-5 -4 -14 -15
l-9 5q13 19 23 28q15 14 33 14q12 0 30 -8q40 -18 49 -18t16.5 7.5t14.5 18.5z" />
    <glyph glyph-name="Odieresis" unicode="&#xd6;" horiz-adv-x="761" 
d="M3 447q0 74 68 118q59 38 136 38q32 0 62 -9l-7 -12l-45 3q-70 0 -122 -39.5t-52 -108.5q0 -41 25 -72t66 -44q76 127 215 227q153 110 286 110q53 0 86 -22q40 -26 40 -76q0 -34 -15.5 -63t-43.5 -51q0 -162 -148.5 -307.5t-311.5 -145.5q-73 0 -118 42t-45 114
q0 42 13 81q9 27 34 77q-51 16 -85 51q-38 39 -38 89zM561 393q-28 0 -49.5 5.5t-43.5 19.5q-36 -62 -105 -95q-63 -30 -140 -30q-21 0 -42 3q-15 -20 -26.5 -64.5t-11.5 -74.5q0 -63 38 -97t102 -34q141 0 262.5 128.5t121.5 269.5q-50 -31 -106 -31zM221 310q76 0 135 27
q66 30 100 91q-22 17 -22 45l7 20l15 8q25 -7 25 -38q0 -15 -5 -28q16 -13 39 -19.5t45 -6.5q27 0 55 9t52 25q-6 37 -24 60q-22 27 -57 27q-14 0 -29.5 -6t-28.5 -14l-11 2q9 25 34.5 41.5t53.5 16.5q39 0 65 -29q23 -26 29 -67q28 25 28 65q0 46 -34.5 71.5t-82.5 25.5
q-116 0 -245 -110q-109 -93 -176 -214zM361 692q-17 0 -17 20q0 15 10.5 31t25.5 16q7 0 11.5 -4.5t4.5 -17.5q0 -14 -10.5 -29.5t-24.5 -15.5zM452 692q-17 0 -17 21q0 15 11 30.5t25 15.5q16 0 16 -21q0 -14 -10.5 -30t-24.5 -16z" />
    <glyph glyph-name="ntilde" unicode="&#xf1;" horiz-adv-x="334" 
d="M-29 0q38 56 77 118q57 92 63 115l-6 6q-9 0 -22.5 -8.5t-39.5 -30.5l-7 11q21 20 47 37q35 23 54 23q21 0 21 -19q0 -15 -8 -31q-2 -4 -17 -28q38 36 68 55q43 27 82 27q21 0 35.5 -12.5t14.5 -33.5q0 -36 -78.5 -101.5t-78.5 -94.5q0 -14 13 -14q10 0 30 6t30 6
q5 0 15 -4l5 -12l-6 -14q-7 -5 -15 -5q-28 0 -70.5 1.5t-46.5 3.5l-4 12q0 28 77.5 96.5t77.5 103.5q0 13 -9.5 21.5t-23.5 8.5q-73 0 -163 -135q-10 -15 -65 -108h-50zM348 390q-10 -21 -21 -32q-15 -15 -35 -15q-13 0 -39 13t-37 13q-9 0 -17.5 -6t-16.5 -16l-9 5
q13 19 23 28q16 14 33 14q14 0 40 -13t39 -13q10 0 17.5 7.5t13.5 18.5z" />
    <glyph glyph-name="udieresis" unicode="&#xfc;" horiz-adv-x="295" 
d="M149 -4q-21 0 -21 19q0 14 11 36q2 5 11 21q-31 -31 -55 -48q-38 -27 -67 -27q-35 0 -35 35q0 21 30 72q38 65 77 131l-7 7q-11 0 -30 -12q-11 -7 -28 -20l-5 11q19 17 44 33q32 20 50 20q23 0 23 -19t-56 -106t-56 -106l5 -11l12 -5q42 0 114 85q66 78 78 123l-6 8
q-7 0 -28 -14q-17 -11 -27 -19l-7 11q22 21 43 34q31 19 51 19q22 0 22 -19q0 -17 -58 -110t-58 -104q0 -10 9 -10q10 0 33 17l30 25l7 -12q-21 -22 -49 -41q-35 -24 -57 -24zM181 335q-17 0 -17 20q0 15 10.5 31t25.5 16q7 0 11.5 -4.5t4.5 -17.5q0 -14 -10.5 -29.5
t-24.5 -15.5zM272 335q-18 0 -18 21q0 15 11 30.5t26 15.5q16 0 16 -21q0 -14 -10.5 -30t-24.5 -16z" />
    <glyph glyph-name="ucircumflex" unicode="&#xfb;" horiz-adv-x="295" 
d="M149 -4q-21 0 -21 19q0 14 11 36q2 5 11 21q-31 -31 -55 -48q-38 -27 -67 -27q-35 0 -35 35q0 21 30 72q38 65 77 131l-7 7q-11 0 -30 -12q-11 -7 -28 -20l-5 11q19 17 44 33q32 20 50 20q23 0 23 -19t-56 -106t-56 -106l5 -11l12 -5q42 0 114 85q66 78 78 123l-6 8
q-7 0 -28 -14q-17 -11 -27 -19l-7 11q22 21 43 34q31 19 51 19q22 0 22 -19q0 -17 -58 -110t-58 -104q0 -10 9 -10q10 0 33 17l30 25l7 -12q-21 -22 -49 -41q-35 -24 -57 -24zM243 403q33 -36 70 -59l-3 -9q-43 10 -85 36q-24 -9 -50 -18.5t-48 -12.5l4 12q26 9 55.5 22.5
t56.5 28.5z" />
    <glyph glyph-name="divide" unicode="&#xf7;" horiz-adv-x="488" 
d="M219 52v24q0 21 5.5 32t23.5 11q17 0 25 -20q5 -13 5 -35v-16q0 -23 -17 -33q-10 -5 -13 -5q-14 0 -21.5 13.5t-7.5 28.5zM219 339q0 21 5.5 33t23.5 12q15 0 22.5 -13t7.5 -45q0 -10 -0.5 -23t-16.5 -22q-10 -5 -13 -5q-14 0 -21.5 13.5t-7.5 28.5v21zM456 196
q0 -12 -16 -12h-382q-16 0 -16 14q0 12 16 12h382q16 0 16 -14z" />
    <glyph glyph-name="currency" unicode="&#xa4;" horiz-adv-x="517" 
d="M407 293q0 30 -10.5 55t-30.5 48q-38 42 -97 42q-31 0 -56 -9.5t-44 -32.5q-41 -43 -41 -106q0 -68 37 -117q37 -54 104 -54q66 0 102 56q36 51 36 118zM424 477l15 1l11 -17l-54 -54q20 -25 31.5 -56t11.5 -64q0 -68 -34 -125q5 -8 10 -13.5t10 -10.5l12 -12t11 -12
l-1 -22h-21l-42 47q-22 -22 -53 -37t-62 -15q-32 0 -60.5 12t-50.5 33q-1 -1 -1.5 -2.5t-1.5 -2.5q-5 -5 -8 -7.5t-4 -3.5q-10 -10 -18.5 -17.5t-16.5 -12.5l-15 10l1 15l43 45q-21 27 -31 62.5t-10 73.5q0 31 13.5 62.5t33.5 57.5q-4 3 -9.5 8.5l-12.5 12.5l-24 21v19l15 7
l52 -46q45 36 105 36t105 -39z" />
    <glyph glyph-name="Uacute" unicode="&#xda;" horiz-adv-x="783" 
d="M554 381q-10 6 -20 8.5t-24 2.5q-16 0 -25.5 -2t-13.5 -2l-15 13l10 15q20 5 26 5q41 0 73 -24q94 118 138 161q100 98 176 98q8 0 15 -2.5t15 -4.5l11 -18l-7 -14q-9 -3 -17 -5q-8 0 -27.5 5.5t-26.5 5.5q-59 0 -141 -102l-110 -152q8 -13 12.5 -28t4.5 -33
q0 -57 -45 -100q-41 -39 -101 -49q-19 -37 -26 -53q-15 -35 -15 -56q0 -24 26 -24q23 0 51 15q16 9 45 30l10 -9q-26 -27 -64.5 -48.5t-71.5 -21.5q-10 0 -17.5 2.5t-20.5 9.5q-4 11 -7 17q-7 16 -7 17q0 20 10 46q6 15 37 74q-10 1 -21.5 4.5t-23.5 8.5
q-12 -72 -71.5 -125.5t-132.5 -53.5q-57 0 -97.5 33t-40.5 89q0 95 93 174q87 63 174 127q94 78 94 166q4 11 5 15l14 5l19 -9q3 -12 7 -24q0 -52 -90 -129q-84 -71 -167 -141q-91 -89 -91 -169q0 -46 29.5 -74.5t75.5 -28.5q61 0 108 46q42 42 57 106q-20 10 -32 24t-16 35
l7 17l17 6q22 -6 31.5 -21t9.5 -38v-12q10 -6 23 -9.5t27 -5.5q42 71 63 105q36 59 71 102zM169 401q-23 -24 -46 -37q-30 -17 -58 -17q-27 0 -46 21t-19 48q0 106 133 181q115 65 228 65q50 0 83 -6q62 -11 62 -40l-5 -14l-13 -6q-69 20 -105 30.5t-65 10.5q-90 0 -177 -53
q-100 -61 -100 -145q0 -23 15.5 -39.5t37.5 -16.5q18 0 33.5 7.5t31.5 22.5zM590 313q0 23 -10 40l-108 -176q54 18 83 48q35 36 35 88zM511 775q13 0 13 -18q0 -11 -8 -19q-4 -4 -32 -17l-65 -32l-7 9q30 26 61 53q30 24 38 24z" />
    <glyph glyph-name="Ucircumflex" unicode="&#xdb;" horiz-adv-x="773" 
d="M553 381q-10 6 -20 8.5t-24 2.5q-16 0 -25.5 -2t-13.5 -2l-14 13l9 15q20 5 26 5q40 0 73 -25q99 124 138 162q100 98 177 98q7 0 14 -2.5t15 -4.5l11 -18l-7 -14l-16 -5q-8 0 -27.5 5.5t-26.5 5.5q-69 0 -174 -144l-78 -110q18 -27 18 -61q0 -57 -45 -100
q-41 -39 -101 -49q-19 -34 -27 -53q-15 -34 -15 -56q0 -24 27 -24q29 0 63 21q3 2 33 24l10 -10q-27 -26 -66 -47.5t-71 -21.5q-10 0 -16.5 2t-20.5 10q-4 11 -7 17q-7 16 -7 17q0 19 10 45q2 4 36 75q-25 3 -44 13q-12 -73 -72 -126t-133 -53q-56 0 -95 32q-42 35 -42 90
q0 95 93 174q86 63 173 127q94 78 94 166q0 5 6 14l14 6l18 -9q3 -12 7 -24q0 -52 -90 -129q-84 -71 -167 -141q-91 -89 -91 -169q0 -45 29.5 -74.5t75.5 -29.5q61 0 108 47q43 43 57 106q-20 11 -31.5 24t-16.5 35l7 17l18 6q20 -6 30.5 -21.5t10.5 -36.5q0 -8 -1 -13
q9 -6 23 -9.5t28 -5.5q66 103 133 207zM169 401q-23 -23 -49.5 -38.5t-54.5 -15.5q-27 0 -46 21t-19 48q0 106 132 181q114 65 228 65q51 0 84 -6q62 -11 62 -40l-6 -14l-12 -6q-21 3 -83 24q-50 17 -88 17q-90 0 -177 -53q-100 -61 -100 -146q0 -22 15.5 -38.5t38.5 -16.5
q19 0 34 7.5t30 22.5zM589 312q0 16 -1.5 23t-7.5 18l-108 -176q52 17 82 48q35 36 35 87zM450 774q14 -15 32.5 -30.5t37.5 -27.5l-3 -10q-22 6 -41.5 14.5t-43.5 22.5q-34 -13 -48 -18q-28 -10 -50 -13l4 11q28 9 44 16t68 35z" />
    <glyph glyph-name="Ugrave" unicode="&#xd9;" horiz-adv-x="783" 
d="M554 384q-10 6 -25 8t-18 2q-9 0 -22 -1.5t-18 -1.5l-15 13l10 15q13 2 26 5q39 0 72 -25q101 124 138 161q101 99 177 99q8 0 15 -2.5t14 -4.5l11 -18l-6 -14q-9 -3 -17 -5q-8 0 -27.5 5.5t-26.5 5.5q-59 0 -141 -102l-110 -152q8 -13 12.5 -28t4.5 -33q0 -57 -45 -100
q-41 -39 -101 -49q-19 -37 -26 -53q-15 -35 -15 -56q0 -24 26 -24q23 0 51 15q16 9 45 30l10 -10q-26 -26 -65 -47.5t-71 -21.5q-19 0 -38 12l-14 33q0 20 10 46q4 12 37 75q-25 3 -45 13q-12 -72 -71.5 -125.5t-132.5 -53.5q-57 0 -97.5 33t-40.5 89q0 95 93 174
q87 63 174 127q94 78 94 166q4 11 5 14l14 6l19 -9q3 -12 7 -24q0 -52 -90 -129q-84 -71 -167 -141q-91 -89 -91 -169q0 -46 29 -75t76 -29q61 0 108 47q42 42 57 106q-20 10 -32 24t-16 35l7 16l17 7q22 -6 31.5 -21t9.5 -38v-12q9 -6 22.5 -9.5t27.5 -5.5q42 71 63 105
q35 57 71 102zM169 404q-24 -25 -46 -38q-29 -17 -58 -17q-27 0 -46 21t-19 49q0 106 133 181q115 65 228 65q50 0 83 -6q62 -11 62 -40l-5 -14l-13 -6q-69 20 -105 30.5t-65 10.5q-91 0 -177 -53q-100 -61 -100 -146q0 -22 15.5 -38.5t37.5 -16.5q18 0 33.5 7t31.5 22z
M590 315q0 24 -10 41l-108 -176q53 18 83 48q35 36 35 87zM446 731q-8 5 -18 15t-10 18q0 5 4.5 12.5t14.5 7.5q8 0 19 -12q11 -15 15 -20l31 -45l-10 -9z" />
    <glyph glyph-name="registered" unicode="&#xae;" horiz-adv-x="738" 
d="M464 538q5 2 5 3zM425 455q-9 0 -11 5q-2 -2 -2.5 -3.5t-2.5 -3.5q4 -2 9 -3t8 -2h4q1 0 2 0.5t2 0.5t1 1q5 0 7 1q0 1 -2 3q-3 0 -5 2q-1 0 -1.5 -0.5t-1.5 -0.5h-7zM384 482q0 -5 3 -11q5 9 11.5 19t18.5 26l4 6q-17 -2 -27 -13t-10 -27zM505 523q0 13 -6 25.5
t-14 20.5v-1q-12 7 -25 12t-26 5q-52 0 -86 -34t-34 -85q0 -20 8 -34.5t25 -20.5q2 2 5 6l5.5 5.5t2.5 1.5q1 1 1 2.5t1 3.5q0 1 1 2.5t1 2.5q4 8 12 16l2 4q-6 7 -10 15.5t-4 18.5q0 29 27 40q8 3 21 4.5t24 2.5q4 2 7 4v-1q1 2 2 2.5t3 2.5q5 5 5 6q11 7 23 7q14 0 14 -11
q0 -16 -20 -22q-5 -1 -14 -1.5t-14 -0.5q-10 -11 -17 -36q-3 -4 -4 -8l4 1q2 0 3 1q11 0 19 -8t10 -19q22 8 35 26.5t13 43.5zM454 384q0 -6 4 -16l6 -3q5 1 11 4.5t11 13.5l10 -13q-6 -9 -10.5 -13t-10.5 -8q-12 -7 -23 -7q-26 0 -26 30q0 16 9 43l3 9q2 5 2 7t1 4h-7
q-9 0 -17.5 1t-15.5 3q-2 -5 -6 -9.5t-10 -12.5q-1 -1 -2.5 -4t-8.5 -8l-3 -3h10q6 0 12.5 1t17.5 6l7 -15q-11 -5 -20 -5.5t-17 -0.5h-9.5t-12.5 1l-12 -9q-12 -9 -21.5 -16.5t-16.5 -9.5q-12 -7 -28 -11t-33 -4q-31 0 -43 4h1q-16 3 -22.5 10.5t-10.5 19.5l2 9l8 5
q13 -13 27.5 -23t37.5 -10q53 0 89 41q-49 24 -49 83q0 55 49 92q21 14 46.5 22.5t53.5 8.5q37 0 65 -17q17 -13 24 -28t7 -32q0 -31 -24 -58q-13 -13 -25 -20.5t-26 -9.5q0 -4 -0.5 -11t-1.5 -14q0 -1 -0.5 -2.5t-0.5 -3.5v-7q-1 -6 -1 -9v-5zM148 452q0 -88 60 -150
q30 -29 66.5 -44t81.5 -15t81 15t66 44q60 62 60 150q0 46 -15.5 83t-44.5 67q-61 59 -149 59q-43 0 -80 -16t-67 -45q-29 -30 -44 -67.5t-15 -80.5zM584 452q0 -88 -68 -161q-36 -32 -75.5 -49t-84.5 -17q-89 0 -161 66q-67 73 -67 161q0 93 67 160q36 34 76 51t88 17
q91 0 157 -68q34 -36 51 -74t17 -86z" />
    <glyph glyph-name="copyright" unicode="&#xa9;" horiz-adv-x="719" 
d="M291 463q32 0 63 12t51 32q-3 5 -5.5 10t-2.5 10q0 7 4 12.5t11 5.5q6 0 9 -5.5t3 -11.5q0 -8 -5 -18q10 -7 22 -7q19 0 34 12.5t15 30.5q0 15 -13 23.5t-30 8.5q-20 0 -44.5 -10.5t-50.5 -30.5q-21 -17 -39.5 -36t-31.5 -38h10zM185 517q0 26 24 47v-1q19 18 50 24l1 -8
q-8 -5 -18 -12.5t-16 -13.5q-6 -8 -10 -18.5t-4 -20.5q0 -20 12 -32q10 -10 29 -15q20 24 43.5 44.5t47.5 37.5q62 41 113 41q23 0 36 -7q18 -11 18 -32q0 -25 -21 -42t-47 -17q-16 0 -30 8q-24 -27 -64 -39q-14 -4 -35 -6t-41 -3q-6 -11 -11.5 -21.5t-10.5 -21.5
q-11 -27 -11 -47q0 -23 16 -36t39 -13q28 0 61 22q33 25 33 53q0 9 -6.5 15.5t-14.5 6.5q-13 0 -23 -7v1q-3 -3 -6.5 -7t-9.5 -15l-8 6q7 17 22 32q8 6 16.5 9.5t19.5 3.5q14 0 22 -9t8 -23q0 -38 -46 -75q-44 -33 -84 -33q-31 0 -50 16q-22 19 -22 50q0 13 3.5 27t8.5 27
q4 10 11.5 21.5t15.5 22.5q-21 4 -39 19v-1q-22 16 -22 42zM148 452q0 -88 60 -150q30 -29 66.5 -44t81.5 -15t81 15t66 44q60 62 60 150q0 46 -15.5 83t-44.5 67q-61 59 -149 59q-43 0 -80 -16t-67 -45q-29 -30 -44 -67.5t-15 -80.5zM584 452q0 -88 -68 -161
q-36 -32 -75.5 -49t-84.5 -17q-89 0 -161 66q-67 73 -67 161q0 93 67 160q36 34 76 51t88 17q91 0 157 -68q34 -36 51 -74t17 -86z" />
    <glyph glyph-name="ydieresis" unicode="&#xff;" horiz-adv-x="305" 
d="M134 272q21 0 21 -20q0 -19 -31 -71q-79 -133 -83 -146q6 -13 17 -13q51 0 110 66q47 61 94 123q51 67 82 67q11 -4 15 -5l6 -13l-3 -12q-13 -11 -36 -16q-36 -9 -62 -46q-30 -41 -106 -202q-71 -149 -125 -212q-85 -99 -193 -99q-26 0 -43.5 7t-24.5 29l6 14l14 6
q16 -3 40.5 -16t49.5 -13q79 0 148 119q40 76 54 103q21 41 36 68q22 41 40 66l2 3q-26 -22 -42 -32q-50 -33 -82 -33q-38 0 -38 34q0 23 65 126q36 57 43 77l-6 5q-17 -4 -35 -15q-13 -8 -32 -23l-6 9q23 22 49 40q36 25 56 25zM197 335q-18 0 -18 20q0 15 11 31t25 16
q17 0 17 -22q0 -14 -10.5 -29.5t-24.5 -15.5zM287 335q-17 0 -17 21q0 15 11 30.5t25 15.5q16 0 16 -21q0 -16 -10 -31t-25 -15z" />
    <glyph glyph-name="yacute" unicode="&#xfd;" horiz-adv-x="330" 
d="M134 271q21 0 21 -19t-31 -71q-79 -133 -83 -146q6 -13 17 -13q51 0 110 66l94 122q52 67 82 67q11 -3 15 -4l6 -13l-3 -12q-10 -8 -47 -19q-26 -8 -51 -43q-30 -41 -106 -202q-71 -149 -125 -212q-85 -99 -193 -99q-26 0 -43.5 7t-24.5 29l6 14l14 6q16 -3 40.5 -16
t49.5 -13q79 0 148 119q40 76 54 103q21 41 36 68q22 41 40 66l2 3q-26 -22 -42 -32q-50 -33 -82 -33q-38 0 -38 34q0 22 47 96q53 83 61 106l-6 6q-17 -4 -35 -15q-13 -8 -32 -23l-6 9q25 23 49 40q35 24 56 24zM239 412q13 0 13 -19q0 -10 -8 -18q-4 -4 -32 -18l-65 -31
l-7 8q30 27 61 55q28 23 38 23z" />
    <glyph glyph-name="Yacute" unicode="&#xdd;" horiz-adv-x="869" 
d="M1019 676q6 0 14 -3t16 -5l10 -19l-7 -16q-9 -6 -22 -6q-10 0 -29 4t-26 4q-75 0 -166 -126q-42 -59 -115 -195l34 3q7 0 23.5 -5t23.5 -7l17 -32l-5 -15l-14 -6l-18 13l-2 9l-39 24l-30 -2q-107 -193 -164 -275q-103 -147 -216 -223q-137 -92 -306 -92q-73 0 -127 29
q-68 37 -68 105q0 6 5.5 23t6.5 22l32 32l44 12q7 0 16.5 -3t17.5 -6l13 -24l-6 -16l-16 -6l-42 10l-34 -15q-5 -11 -8 -18q-6 -14 -6 -18q0 -57 62 -87q48 -23 112 -23q124 0 228 59q89 50 170 148q62 74 134 196l82 137q4 11 6 18.5t9 7.5l-3 -1l-42 -2l-37 2
q0 -108 -58 -186q-64 -87 -169 -87q-61 0 -100 32q-42 35 -42 95q0 98 90 171l168 116q91 72 91 166q0 5 6.5 10t11.5 5l13 -5q12 -11 12 -34q0 -58 -87 -126q-81 -62 -162 -123q-88 -81 -88 -168q0 -45 31.5 -79.5t76.5 -34.5q83 0 139 78q51 71 51 157l-1 15q-14 5 -25 17
t-18 29q1 7 6.5 13t12.5 7l25 -13l16 -39l33 -2h37q16 3 23 4q54 88 96 147q70 97 133 152q82 71 150 71zM300 433q-18 -31 -48 -52t-64 -21q-32 0 -51.5 19.5t-19.5 51.5q0 110 134 182q113 61 233 61q44 0 88 -9q66 -14 66 -41q0 -17 -18 -17q-50 16 -93 28.5t-76 12.5
q-103 0 -189 -47q-106 -58 -106 -152q0 -24 15.5 -41.5t38.5 -17.5q24 0 44 14.5t36 38.5zM710 817q14 0 14 -19q0 -10 -8 -18q-4 -4 -32 -18l-65 -31l-7 8q30 27 61 55q28 23 37 23z" />
    <glyph glyph-name="aacute" unicode="&#xe1;" 
d="M194 39q0 -11 10 -11t31 16q23 20 28 24l6 -12q-19 -20 -48 -39q-35 -23 -56 -23q-23 0 -23 20q0 12 3 21t11 25q-25 -25 -50 -42q-34 -23 -60 -23q-49 0 -49 52q0 80 90.5 155.5t171.5 75.5q23 0 45 -6.5t22 -23.5l-5 -12l-13 -4q-2 0 -44 14q-21 7 -36 7
q-58 0 -119 -64t-61 -122q0 -14 7.5 -24t21.5 -10q42 0 100 70q39 46 75 109h39q-7 -10 -49 -80q-48 -81 -48 -93zM339 412q14 0 14 -19q0 -10 -8 -18q-4 -4 -32 -18l-65 -31l-7 8q30 27 61 55q28 23 37 23z" />
    <glyph glyph-name="agrave" unicode="&#xe0;" 
d="M194 39q0 -11 10 -11t31 16q23 20 28 24l6 -12q-19 -20 -48 -39q-35 -23 -56 -23q-23 0 -23 20q0 12 3 21t11 25q-25 -25 -50 -42q-34 -23 -60 -23q-49 0 -49 52q0 80 90.5 155.5t171.5 75.5q23 0 45 -6.5t22 -23.5l-5 -12l-13 -4q-2 0 -44 14q-21 7 -36 7
q-58 0 -119 -64t-61 -122q0 -14 7.5 -24t21.5 -10q42 0 100 70q39 46 75 109h39q-7 -10 -49 -80q-48 -81 -48 -93zM231 359q-8 5 -18 15t-10 18q0 5 4.5 12.5t13.5 7.5t20 -12l14 -20l31 -45l-9 -9z" />
    <glyph glyph-name="cent" unicode="&#xa2;" horiz-adv-x="283" 
d="M233 425q18 0 31.5 -6t13.5 -22l-6 -14l-17 -6q-11 0 -27 11t-30 11l-11 -1l-81 -210q27 3 50.5 16.5t46.5 36.5l8 -11q-23 -29 -54 -50.5t-66 -28.5l-34 -88h-23l34 86q-28 0 -45.5 17.5t-17.5 45.5q0 62 53 123q49 56 112 78l35 89h23l-32 -82l21 3.5t16 1.5zM161 389
q-41 -21 -72 -62q-34 -45 -34 -88q0 -18 6.5 -30.5t22.5 -17.5z" />
    <glyph glyph-name="sterling" unicode="&#xa3;" horiz-adv-x="454" 
d="M120 292l8 16h73q28 98 58 140q47 67 129 67q37 0 65.5 -20t28.5 -57q0 -26 -18.5 -47.5t-43.5 -21.5q-16 5 -21 6l-9 16l5 12l12 5l26 -4q13 0 21.5 11.5t8.5 25.5q0 26 -22 42t-50 16q-74 0 -111 -97q-13 -35 -26 -94h113l-8 -16h-111q-19 -65 -76 -114
q-51 -44 -122 -67l19 1q31 0 128 -29q47 -14 76 -14q22 0 39.5 11t17.5 32q0 9 -6 17q-16 23 -17 28l6 13l13 5q16 -4 22.5 -15.5t6.5 -28.5q0 -35 -23.5 -56.5t-60.5 -21.5q-28 0 -68 10q-88 22 -114 22q-18 0 -66 -15q-26 -8 -39 -8q-21 0 -21 20l9 17l138 66
q63 41 87 127h-77z" />
    <glyph glyph-name="section" unicode="&#xa7;" horiz-adv-x="569" 
d="M506 675l1 1q1 0 1 -1h-2zM220 237q8 -36 44 -81q14 4 28.5 12t24.5 18q16 17 25 39t9 48v9t-1 8l-1 7q-12 1 -22.5 2t-21.5 4q-2 0 -4.5 0.5t-4.5 0.5q-6 1 -11 1t-10 1q-4 0 -5 1q-1 0 -2 0.5t-2 0.5zM226 114q-22 32 -33.5 58.5t-15.5 47.5q4 34 24.5 63t46.5 48
q11 5 26 9t27 4q6 0 12 -0.5t22 -4.5q-8 8 -12.5 16.5t-7.5 16.5q-19 29 -28 54t-9 42q0 51 34 85q36 36 90 36q10 0 22.5 -1.5t28.5 -3.5t25 -3t12 -1q41 0 51 52q-36 5 -39 26q0 2 1 4q0 1 2 5q0 1 0.5 1.5t0.5 1.5t1 2.5t1 2.5q1 1 7 3q2 1 4.5 2t4.5 2q14 -2 23 -16
t9 -30q0 -21 -8.5 -38.5t-23 -29.5t-33.5 -19t-39 -7q-15 0 -49 6q-5 1 -9.5 1.5t-9.5 1.5q-23 3 -33 3q-46 0 -46 -46q0 -12 67 -121q8 -11 14 -23.5t11 -24.5q1 -2 1 -3t1 -3q3 -8 3 -12v-4.5t1 -4.5q0 -4 2 -8q-2 -36 -15 -69t-36 -55v1q-19 -13 -38.5 -24.5t-41.5 -17.5
q16 -26 23 -49t7 -40q0 -34 -13 -62.5t-35 -51.5v1q-25 -23 -55.5 -35t-59.5 -12q-25 0 -47.5 7.5t-40 21.5t-28 35t-10.5 48q0 43 24.5 70t65.5 27q23 0 39.5 -14.5t16.5 -40.5q0 -19 -9 -32t-24 -15q-2 2 -6 3.5t-3 0.5v1l-6 3v-1q-1 0 -1 1l-1 1l-3 8q-2 2 -3.5 6.5
t-2.5 6.5q0 -1 2 7l2 4l2 6q1 3 2 6.5t1 9.5q-8 14 -22 14q-23 0 -40.5 -21.5t-17.5 -50.5q0 -44 34 -69q16 -11 33.5 -17.5t39.5 -6.5q51 0 83 32t32 85q0 38 -27 88z" />
    <glyph glyph-name="ordfeminine" unicode="&#xaa;" horiz-adv-x="487" 
d="M273 458q0 -13 11 -13q9 0 32 15q5 4 10 8.5t13 12.5q0 -1 3 -4h-1l3 -3q-8 -8 -19.5 -17t-25.5 -17q-16 -10 -29 -15.5t-21 -5.5q-20 0 -20 16q0 8 3.5 16.5t9.5 22.5v2l-1 3q-12 -10 -24 -19.5t-25 -17.5q-17 -11 -31 -16.5t-25 -5.5q-43 0 -43 46q0 73 83 142
q85 72 161 72q19 0 40 -6q20 -6 20 -17l-5 -10h-1q-2 -1 -11 -6l-10 5q-5 2 -12 4.5t-15 5.5q-20 6 -37 6q-53 0 -112 -61q-59 -60 -59 -117q0 -14 7.5 -24.5t22.5 -10.5q22 0 46 17.5t52 49.5q18 22 35 48t33 54h30q-10 -15 -18 -29l-16 -28q-2 -3 -4 -6.5t-4 -7.5
q-20 -35 -33 -59t-13 -30z" />
    <glyph glyph-name="ordmasculine" unicode="&#xba;" horiz-adv-x="389" 
d="M249 649l8 3q14 -4 20.5 -18t6.5 -32q0 -32 -13 -67t-36 -71q-26 -38 -51 -59t-48 -21q-22 0 -37.5 17t-15.5 48q0 74 60 154q63 79 121 79q14 0 26 -5q17 -9 17 -26l-2 -5l-8 -7q-1 0 -3 2q-8 8 -19.5 16t-22.5 8q-43 0 -90 -76q-46 -74 -46 -135q0 -23 6.5 -36
t23.5 -13t37.5 17.5t41.5 49.5q20 32 30.5 62.5t10.5 56.5q0 18 -12 30q-6 10 -8 19z" />
    <glyph glyph-name="uni00B9" unicode="&#xb9;" horiz-adv-x="332" 
d="M61 384q33 63 90 140q3 5 6.5 9t6.5 9q21 29 37.5 52t38.5 50q-26 -17 -54.5 -32t-56.5 -26l-5 20q36 9 76 34q60 34 71 40q10 0 10 -9q-1 -2 -23 -34q-7 -10 -14 -19t-14 -17q-17 -24 -33.5 -52.5t-31.5 -55.5q-13 -21 -27 -48.5t-31 -60.5h-46z" />
    <glyph glyph-name="periodcentered" unicode="&#xb7;" horiz-adv-x="158" 
d="M114 254q21 0 21 -22q0 -14 -11.5 -28.5t-25.5 -14.5q-21 0 -21 22q0 16 10.5 29.5t26.5 13.5z" />
    <glyph glyph-name="adieresis" unicode="&#xe4;" 
d="M194 39q0 -11 10 -11t31 16q23 20 28 24l6 -12q-19 -20 -48 -39q-35 -23 -56 -23q-23 0 -23 20q0 12 3 21t11 25q-25 -25 -50 -42q-34 -23 -60 -23q-49 0 -49 52q0 80 90.5 155.5t171.5 75.5q23 0 45 -6.5t22 -23.5l-5 -12l-13 -4q-2 0 -44 14q-21 7 -36 7
q-58 0 -119 -64t-61 -122q0 -14 7.5 -24t21.5 -10q42 0 100 70q39 46 75 109h39q-7 -10 -49 -80q-48 -81 -48 -93zM214 335q-18 0 -18 20q0 15 11 31t25 16q17 0 17 -22q0 -14 -10.5 -29.5t-24.5 -15.5zM304 335q-17 0 -17 21q0 15 11 30.5t25 15.5q16 0 16 -21
q0 -16 -10 -31t-25 -15z" />
    <glyph glyph-name="aring" unicode="&#xe5;" 
d="M194 39q0 -11 10 -11t31 16q23 20 28 24l6 -12q-19 -20 -48 -39q-35 -23 -56 -23q-23 0 -23 20q0 12 3 21t11 25q-25 -25 -50 -42q-34 -23 -60 -23q-49 0 -49 52q0 80 90.5 155.5t171.5 75.5q23 0 45 -6.5t22 -23.5l-5 -12l-13 -4q-2 0 -44 14q-21 7 -36 7
q-58 0 -119 -64t-61 -122q0 -14 7.5 -24t21.5 -10q42 0 100 70q39 46 75 109h39q-7 -10 -49 -80q-48 -81 -48 -93zM289 420q36 0 36 -35q0 -25 -20 -46t-46 -21q-36 0 -36 35q0 25 20 46t46 21zM287 403q-17 0 -29 -15.5t-12 -33.5t18 -18q15 0 27 16t12 32q0 19 -16 19z
" />
    <glyph glyph-name="acircumflex" unicode="&#xe2;" 
d="M194 39q0 -11 10 -11t31 16q23 20 28 24l6 -12q-19 -20 -48 -39q-35 -23 -56 -23q-23 0 -23 20q0 12 3 21t11 25q-25 -25 -50 -42q-34 -23 -60 -23q-49 0 -49 52q0 80 90.5 155.5t171.5 75.5q23 0 45 -6.5t22 -23.5l-5 -12l-13 -4q-2 0 -44 14q-21 7 -36 7
q-58 0 -119 -64t-61 -122q0 -14 7.5 -24t21.5 -10q42 0 100 70q39 46 75 109h39q-7 -10 -49 -80q-48 -81 -48 -93zM273 403q33 -36 69 -59l-3 -9q-42 10 -84 36q-24 -9 -50 -18.5t-48 -12.5l4 12q27 9 55.5 22t56.5 29z" />
    <glyph glyph-name="atilde" unicode="&#xe3;" 
d="M194 39q0 -11 10 -11t31 16q23 20 28 24l6 -12q-19 -20 -48 -39q-35 -23 -56 -23q-23 0 -23 20q0 12 3 21t11 25q-25 -25 -50 -42q-34 -23 -60 -23q-49 0 -49 52q0 80 90.5 155.5t171.5 75.5q23 0 45 -6.5t22 -23.5l-5 -12l-13 -4q-2 0 -44 14q-21 7 -36 7
q-58 0 -119 -64t-61 -122q0 -14 7.5 -24t21.5 -10q42 0 100 70q39 46 75 109h39q-7 -10 -49 -80q-48 -81 -48 -93zM365 390q-10 -21 -21 -32q-15 -15 -35 -15q-13 0 -39 13t-37 13q-9 0 -17.5 -6t-16.5 -16l-9 5q13 19 23 28q16 14 33 14q14 0 40 -13t39 -13q10 0 17.5 7.5
t14.5 18.5z" />
    <glyph glyph-name="ccedilla" unicode="&#xe7;" horiz-adv-x="238" 
d="M43 -25l8 1q13 0 22 -7.5t9 -20.5q0 -29 -40 -52q-26 -14 -66 -26l-3 11q38 11 55 23.5t17 26.5l-6 13l-15 5l-13 -3l-4 6l36 44q-22 3 -34 20.5t-12 40.5q0 66 76.5 139.5t142.5 73.5q17 0 29.5 -6t12.5 -21l-6 -15l-15 -6q-10 1 -24.5 11.5t-27.5 10.5q-45 0 -92 -61.5
t-47 -107.5q0 -17 12 -29t29 -12q23 0 52 17q22 13 44 35l8 -11q-27 -33 -58 -54q-38 -26 -74 -26z" />
    <glyph glyph-name="egrave" unicode="&#xe8;" horiz-adv-x="239" 
d="M192 71q-30 -29 -63 -50q-43 -27 -74 -27q-26 0 -42 18t-16 44q0 65 74 141t139 76q15 0 25 -6.5t10 -21.5q0 -38 -77 -81q-57 -32 -115 -48q-7 -21 -7 -36q0 -19 10.5 -32.5t28.5 -13.5q24 0 55 18q16 9 49 34zM198 232q0 16 -18 16q-30 0 -69 -42q-29 -32 -50 -70
q41 13 81 36q56 32 56 60zM209 359q-8 5 -18 15t-10 18q0 5 4.5 12.5t13.5 7.5t20 -12l14 -20l31 -45l-9 -9z" />
    <glyph glyph-name="eacute" unicode="&#xe9;" horiz-adv-x="239" 
d="M192 71q-30 -29 -63 -50q-43 -27 -74 -27q-26 0 -42 18t-16 44q0 65 74 141t139 76q15 0 25 -6.5t10 -21.5q0 -38 -77 -81q-57 -32 -115 -48q-7 -21 -7 -36q0 -19 10.5 -32.5t28.5 -13.5q24 0 55 18q16 9 49 34zM198 232q0 16 -18 16q-30 0 -69 -42q-29 -32 -50 -70
q41 13 81 36q56 32 56 60zM290 412q13 0 13 -19q0 -14 -13 -23q-1 -1 -27 -13l-65 -31l-7 8q30 27 61 55q28 23 38 23z" />
    <glyph glyph-name="macron" unicode="&#xaf;" horiz-adv-x="360" 
d="M316 781q-51 -12 -114.5 -14.5t-152.5 -2.5q-13 0 -13 14q0 13 12 13q66 4 133.5 8t133.5 8q13 0 13 -14q0 -11 -12 -12z" />
    <glyph glyph-name="yen" unicode="&#xa5;" horiz-adv-x="429" 
d="M80 466l-9 5l-39 -21l-7 8q19 18 37 30q25 17 42 17q27 0 48 -104q8 -56 17 -111q30 51 66 98q93 120 163 120q14 0 23 -5.5t9 -19.5l-6 -16l-13 -6q-6 1 -21.5 6.5t-21.5 5.5q-42 0 -110 -92q-58 -78 -79 -134h136l-9 -17h-136q-17 -28 -40 -85.5t-29 -88.5h-62
q20 51 53 110q10 17 38 64h-133l8 17h126q-15 74 -23 110q-14 62 -28 109z" />
    <glyph glyph-name="dieresis" unicode="&#xa8;" horiz-adv-x="276" 
d="M84 613q-18 0 -18 20q0 16 11 31.5t26 15.5q11 0 13.5 -8t2.5 -15q0 -14 -10.5 -29t-24.5 -15zM174 613q-17 0 -17 20q0 15 11 31t25 16q16 0 16 -21q0 -16 -10 -31t-25 -15z" />
    <glyph glyph-name="logicalnot" unicode="&#xac;" horiz-adv-x="484" 
d="M452 335v-161q0 -16 -18 -16q-11 7 -14 26.5t-3 48.5v38.5t2 44.5h-370q-16 0 -16 17q0 15 16 15h390z" />
    <glyph glyph-name="Udieresis" unicode="&#xdc;" horiz-adv-x="774" 
d="M554 384q-10 6 -20 8.5t-24 2.5q-16 0 -25.5 -2t-13.5 -2l-14 13l9 15q20 5 26 5q40 0 73 -25q93 118 138 162q100 98 177 98q7 0 14 -2.5t15 -4.5l11 -18l-7 -14q-9 -3 -17 -5q-9 0 -27.5 5.5t-25.5 5.5q-69 0 -174 -144l-78 -110q18 -27 18 -61q0 -58 -43.5 -98.5
t-103.5 -50.5q-19 -37 -26 -53q-15 -35 -15 -56q0 -24 27 -24q23 0 51 15q16 9 44 30l11 -9q-27 -27 -65.5 -48.5t-71.5 -21.5q-10 0 -17.5 2.5t-20.5 9.5q-5 11 -9 22t-4 12q0 19 10 45q2 4 36 75q-25 3 -44 13q-12 -73 -72 -126t-133 -53q-57 0 -97.5 33t-40.5 89
q0 95 93 174q87 63 174 127q94 78 94 166q0 5 6 14l14 6l18 -9q3 -12 7 -24q0 -52 -90 -129q-84 -71 -167 -141q-91 -89 -91 -169q0 -45 29.5 -74.5t75.5 -29.5q61 0 108 47q42 42 57 106q-20 11 -31.5 24t-16.5 35l7 17l18 6q21 -6 30.5 -21.5t9.5 -37.5v-12q10 -6 23 -9.5
t27 -5.5q67 103 134 207zM169 404q-23 -24 -46 -37q-29 -17 -58 -17q-27 0 -46 21t-19 48q0 106 133 181q115 65 228 65q51 0 84 -6q62 -11 62 -40l-6 -14l-12 -6q-21 3 -83 24q-50 17 -88 17q-90 0 -177 -53q-100 -61 -100 -146q0 -22 15.5 -38.5t38.5 -16.5q18 0 33 7.5
t31 22.5zM590 316q0 16 -1.5 22.5t-7.5 17.5l-108 -176q53 18 82 48q35 36 35 88zM407 724q-18 0 -18 20q0 15 11 31t25 16q17 0 17 -23q0 -14 -10.5 -29t-24.5 -15zM497 724q-17 0 -17 21q0 15 11 30.5t25 15.5q16 0 16 -21q0 -16 -10 -31t-25 -15z" />
    <glyph glyph-name="oacute" unicode="&#xf3;" horiz-adv-x="266" 
d="M64 -8q-34 0 -50.5 19.5t-16.5 53.5q0 73 79.5 142.5t154.5 69.5q15 0 27 -5.5t12 -17.5q0 -17 -21 -17q-10 0 -30 6t-31 6q-53 0 -98.5 -60.5t-45.5 -116.5q0 -24 9 -37.5t32 -13.5q44 0 82 45t38 90q0 9 -5 24t-5 23q0 7 5.5 12.5t12.5 5.5q14 0 19.5 -14.5t5.5 -30.5
q0 -57 -58.5 -120.5t-115.5 -63.5zM292 412q14 0 14 -19q0 -10 -8 -18q-4 -4 -32 -18l-65 -31l-8 8q25 23 46 41q43 37 53 37z" />
    <glyph glyph-name="ograve" unicode="&#xf2;" horiz-adv-x="266" 
d="M64 -8q-34 0 -50.5 19.5t-16.5 53.5q0 73 79.5 142.5t154.5 69.5q15 0 27 -5.5t12 -17.5q0 -17 -21 -17q-10 0 -30 6t-31 6q-53 0 -98.5 -60.5t-45.5 -116.5q0 -24 9 -37.5t32 -13.5q44 0 82 45t38 90q0 9 -5 24t-5 23q0 7 5.5 12.5t12.5 5.5q14 0 19.5 -14.5t5.5 -30.5
q0 -57 -58.5 -120.5t-115.5 -63.5zM199 359q-10 6 -18.5 15t-8.5 18q0 20 18 20q9 0 20 -12l14 -20l31 -45l-9 -9z" />
    <glyph glyph-name="ocircumflex" unicode="&#xf4;" horiz-adv-x="266" 
d="M64 -8q-34 0 -50.5 19.5t-16.5 53.5q0 73 79.5 142.5t154.5 69.5q15 0 27 -5.5t12 -17.5q0 -17 -21 -17q-10 0 -30 6t-31 6q-53 0 -98.5 -60.5t-45.5 -116.5q0 -24 9 -37.5t32 -13.5q44 0 82 45t38 90q0 9 -5 24t-5 23q0 7 5.5 12.5t12.5 5.5q14 0 19.5 -14.5t5.5 -30.5
q0 -57 -58.5 -120.5t-115.5 -63.5zM256 403q33 -36 70 -59l-3 -9q-23 5 -42 13.5t-43 22.5q-34 -13 -48 -18q-28 -10 -50 -13l4 12q26 9 55.5 22.5t56.5 28.5z" />
    <glyph glyph-name="odieresis" unicode="&#xf6;" horiz-adv-x="266" 
d="M64 -8q-34 0 -50.5 19.5t-16.5 53.5q0 73 79.5 142.5t154.5 69.5q15 0 27 -5.5t12 -17.5q0 -17 -21 -17q-10 0 -30 6t-31 6q-53 0 -98.5 -60.5t-45.5 -116.5q0 -24 9 -37.5t32 -13.5q44 0 82 45t38 90q0 9 -5 24t-5 23q0 7 5.5 12.5t12.5 5.5q14 0 19.5 -14.5t5.5 -30.5
q0 -57 -58.5 -120.5t-115.5 -63.5zM170 335q-17 0 -17 20q0 15 10.5 31t25.5 16q16 0 16 -22q0 -16 -10 -30.5t-25 -14.5zM261 335q-17 0 -17 21q0 15 11 30.5t25 15.5q16 0 16 -21q0 -16 -10 -31t-25 -15z" />
    <glyph glyph-name="otilde" unicode="&#xf5;" horiz-adv-x="266" 
d="M64 -8q-34 0 -50.5 19.5t-16.5 53.5q0 73 79.5 142.5t154.5 69.5q15 0 27 -5.5t12 -17.5q0 -17 -21 -17q-10 0 -30 6t-31 6q-53 0 -98.5 -60.5t-45.5 -116.5q0 -24 9 -37.5t32 -13.5q44 0 82 45t38 90q0 9 -5 24t-5 23q0 7 5.5 12.5t12.5 5.5q14 0 19.5 -14.5t5.5 -30.5
q0 -57 -58.5 -120.5t-115.5 -63.5zM328 390q-10 -21 -21 -32q-15 -15 -35 -15q-13 0 -39 13t-37 13q-9 0 -17.5 -6t-16.5 -16l-9 5q13 19 23 28q16 14 33 14q14 0 40 -13t39 -13q10 0 17.5 7.5t13.5 18.5z" />
    <glyph glyph-name="oslash" unicode="&#xf8;" horiz-adv-x="266" 
d="M95 20q55 0 87 61q26 50 26 109l5 13l13 6q19 -4 19 -28q0 -59 -59 -124t-116 -65q-29 0 -47 15l-41 -47l-10 10l41 47q-13 20 -13 46q0 53 46 111q42 53 95 79q4 2 70 20q23 6 39 16q5 3 11.5 9.5t13.5 14.5l12 -9l-235 -264q16 -20 43 -20zM195 252q-57 0 -104.5 -61
t-47.5 -119l2 -18l173 196q-4 1 -10 1.5t-13 0.5z" />
    <glyph glyph-name="ugrave" unicode="&#xf9;" horiz-adv-x="295" 
d="M149 -4q-21 0 -21 19q0 14 11 36q2 5 11 21q-31 -31 -55 -48q-38 -27 -67 -27q-35 0 -35 35q0 21 30 72q38 65 77 131l-7 7q-11 0 -30 -12q-11 -7 -28 -20l-5 11q19 17 44 33q32 20 50 20q23 0 23 -19t-56 -106t-56 -106l5 -11l12 -5q42 0 114 85q66 78 78 123l-6 8
q-7 0 -28 -14q-17 -11 -27 -19l-7 11q22 21 43 34q31 19 51 19q22 0 22 -19q0 -17 -58 -110t-58 -104q0 -10 9 -10q10 0 33 17l30 25l7 -12q-21 -22 -49 -41q-35 -24 -57 -24zM167 359q-9 5 -18 15t-9 18q0 20 18 20q9 0 20 -12l14 -20l31 -45l-10 -9z" />
    <glyph glyph-name="uacute" unicode="&#xfa;" horiz-adv-x="295" 
d="M149 -4q-21 0 -21 19q0 14 11 36q2 5 11 21q-31 -31 -55 -48q-38 -27 -67 -27q-35 0 -35 35q0 21 30 72q38 65 77 131l-7 7q-11 0 -30 -12q-11 -7 -28 -20l-5 11q19 17 44 33q32 20 50 20q23 0 23 -19t-56 -106t-56 -106l5 -11l12 -5q42 0 114 85q66 78 78 123l-6 8
q-7 0 -28 -14q-17 -11 -27 -19l-7 11q22 21 43 34q31 19 51 19q22 0 22 -19q0 -17 -58 -110t-58 -104q0 -10 9 -10q10 0 33 17l30 25l7 -12q-21 -22 -49 -41q-35 -24 -57 -24zM297 412q14 0 14 -19q0 -10 -8 -18q-4 -4 -32 -18l-65 -31l-7 8q30 27 61 55q28 23 37 23z" />
    <glyph glyph-name="edieresis" unicode="&#xeb;" horiz-adv-x="239" 
d="M192 71q-30 -29 -63 -50q-43 -27 -74 -27q-26 0 -42 18t-16 44q0 65 74 141t139 76q15 0 25 -6.5t10 -21.5q0 -38 -77 -81q-57 -32 -115 -48q-7 -21 -7 -36q0 -19 10.5 -32.5t28.5 -13.5q24 0 55 18q16 9 49 34zM198 232q0 16 -18 16q-30 0 -69 -42q-29 -32 -50 -70
q41 13 81 36q56 32 56 60zM170 335q-17 0 -17 20q0 15 10.5 31t25.5 16q16 0 16 -22q0 -16 -10 -30.5t-25 -14.5zM261 335q-17 0 -17 21q0 15 11 30.5t25 15.5q16 0 16 -21q0 -16 -10 -31t-25 -15z" />
    <glyph glyph-name="ecircumflex" unicode="&#xea;" horiz-adv-x="239" 
d="M192 71q-30 -29 -63 -50q-43 -27 -74 -27q-26 0 -42 18t-16 44q0 65 74 141t139 76q15 0 25 -6.5t10 -21.5q0 -38 -77 -81q-57 -32 -115 -48q-7 -21 -7 -36q0 -19 10.5 -32.5t28.5 -13.5q24 0 55 18q16 9 49 34zM198 232q0 16 -18 16q-30 0 -69 -42q-29 -32 -50 -70
q41 13 81 36q56 32 56 60zM236 403q33 -36 70 -59l-3 -9q-23 5 -42 13.5t-43 22.5q-34 -13 -48 -18q-28 -10 -50 -13l4 12q26 9 55.5 22.5t56.5 28.5z" />
    <glyph glyph-name="Oacute" unicode="&#xd3;" horiz-adv-x="759" 
d="M0 439q0 74 68 118q59 38 136 38q32 0 62 -9l-6 -12l-45 3q-70 0 -120 -38q-55 -42 -55 -110q0 -41 25 -72t67 -44q75 126 215 227q153 110 286 110q52 0 86 -22q40 -26 40 -76q0 -34 -15.5 -63t-44.5 -51q0 -161 -148 -307t-311 -146q-73 0 -118.5 41.5t-45.5 114.5
q0 42 13 81q9 27 34 77q-51 16 -85 51q-38 39 -38 89zM558 385q-28 0 -49.5 5.5t-42.5 19.5q-37 -63 -102.5 -94t-143.5 -31q-21 0 -42 3q-14 -20 -26 -66.5t-12 -72.5q0 -63 38 -97t103 -34q141 0 262 128t121 270q-50 -31 -106 -31zM219 302q75 0 134 27q66 30 100 91
q-22 17 -22 45l7 20l15 8q25 -7 25 -38q0 -15 -5 -28q16 -13 39 -19.5t45 -6.5q27 0 55.5 9t51.5 25q-5 38 -23 60q-22 27 -58 27q-14 0 -28.5 -5.5t-29.5 -14.5l-11 2q10 26 35 42t53 16q39 0 64 -27.5t31 -68.5q27 26 27 65q0 46 -34.5 71.5t-81.5 25.5q-117 0 -246 -110
q-109 -93 -176 -214zM468 767q13 0 13 -19q0 -14 -13 -23q-1 -1 -27 -13l-65 -31l-7 8q30 27 61 55q28 23 38 23z" />
    <glyph glyph-name="Ograve" unicode="&#xd2;" horiz-adv-x="767" 
d="M9 439q0 74 68 117q60 38 136 38q11 0 25.5 -0.5t36.5 -7.5l-7 -13q-11 2 -21 3t-24 1q-70 0 -120 -38q-55 -42 -55 -111q0 -41 25.5 -71.5t66.5 -43.5q75 127 215 227q153 110 286 110q53 0 86 -22q40 -26 40 -77q0 -33 -15.5 -62t-43.5 -51q0 -162 -148.5 -307.5
t-311.5 -145.5q-73 0 -118 42t-45 114q0 41 13 81q8 26 33 77q-51 16 -84 51q-38 39 -38 89zM567 384q-52 0 -93 25q-36 -63 -106 -95q-63 -29 -142 -29h-24q-11 2 -15 2q-14 -20 -26.5 -65t-12.5 -73q0 -64 38.5 -97.5t102.5 -33.5q141 0 262.5 128.5t121.5 269.5
q-24 -15 -51.5 -23.5t-54.5 -8.5zM227 302q75 0 134 27q66 30 101 91q-22 17 -22 45l6 20l15 7q26 -7 26 -38q0 -15 -5 -28q15 -13 38 -19t46 -6q27 0 55 9t51 25q-5 37 -23 60q-21 27 -57 27q-14 0 -29.5 -6t-28.5 -14l-11 2q10 25 34.5 41.5t52.5 16.5q40 0 66 -29
q23 -26 29 -67q28 25 28 65q0 46 -34.5 71.5t-82.5 25.5q-118 0 -246 -110q-107 -92 -175 -215zM354 703q-14 11 -17 14q-10 10 -10 20q0 19 18 19q9 0 20 -12q5 -5 14 -20l31 -44l-9 -9z" />
    <glyph glyph-name="Idieresis" unicode="&#xcf;" horiz-adv-x="752" 
d="M122 -27q-63 0 -109 27q-56 33 -56 91q0 32 22 56t54 24q7 0 16.5 -3t18.5 -6l14 -25l-6 -14l-12 -7l-38 11l-31 -14q-5 -11 -7 -17q-6 -14 -6 -17q0 -45 50 -70q40 -20 91 -20q74 0 150 32q82 35 122 91q-49 26 -75.5 75t-26.5 107q0 158 154 269q140 101 304 101
q57 0 103 -10q71 -15 82 -47l-5 -11l-12 -5q-22 0 -119 35q-47 17 -82 17q-150 0 -267.5 -115.5t-117.5 -264.5q0 -45 18 -82.5t55 -55.5q49 42 123 176q83 150 128 202q83 97 183 97q13 0 26.5 -6t20.5 -17l-5 -11l-11 -4q-20 5 -34 8t-26 3q-60 0 -131 -96
q-36 -49 -121 -200q-73 -130 -109 -166l35 -3q73 0 136 40l4 -14q-65 -43 -139 -43q-25 0 -51 6q-76 -61 -145 -90q-80 -34 -168 -34zM495 693q-18 0 -18 20q0 16 11 31.5t26 15.5q11 0 13.5 -8t2.5 -15q0 -14 -10.5 -29t-24.5 -15zM585 693q-17 0 -17 20q0 15 11 31t25 16
q16 0 16 -21q0 -16 -10 -31t-25 -15z" />
    <glyph glyph-name="Iacute" unicode="&#xcd;" horiz-adv-x="709" 
d="M122 -27q-63 0 -109 27q-56 33 -56 91q0 32 22 56t54 24q7 0 16.5 -3t18.5 -6l14 -25l-6 -14l-12 -7l-38 11l-31 -14q-5 -11 -7 -17q-6 -14 -6 -17q0 -45 50 -70q40 -20 91 -20q74 0 150 32q82 35 122 91q-49 26 -75.5 75t-26.5 107q0 158 154 269q140 101 304 101
q57 0 103 -10q71 -15 82 -47l-5 -11l-12 -5q-22 0 -119 35q-47 17 -82 17q-150 0 -267.5 -115.5t-117.5 -264.5q0 -45 18 -82.5t55 -55.5q49 42 123 176q83 150 128 202q83 97 183 97q13 0 26.5 -6t20.5 -17l-5 -11l-11 -4q-20 5 -34 8t-26 3q-60 0 -131 -96
q-36 -49 -121 -200q-73 -130 -109 -166l35 -3q73 0 136 40l4 -14q-65 -43 -139 -43q-25 0 -51 6q-76 -61 -145 -90q-80 -34 -168 -34zM566 770q14 0 14 -19q0 -10 -8 -18q-4 -4 -32 -18l-65 -31l-8 8q25 23 46 41q43 37 53 37z" />
    <glyph glyph-name="Icircumflex" unicode="&#xce;" horiz-adv-x="709" 
d="M122 -27q-63 0 -109 27q-56 33 -56 91q0 32 22 56t54 24q7 0 16.5 -3t18.5 -6l14 -25l-6 -14l-12 -7l-38 11l-31 -14q-5 -11 -7 -17q-6 -14 -6 -17q0 -45 50 -70q40 -20 91 -20q74 0 150 32q82 35 122 91q-49 26 -75.5 75t-26.5 107q0 158 154 269q140 101 304 101
q57 0 103 -10q71 -15 82 -47l-5 -11l-12 -5q-22 0 -119 35q-47 17 -82 17q-150 0 -267.5 -115.5t-117.5 -264.5q0 -45 18 -82.5t55 -55.5q49 42 123 176q83 150 128 202q83 97 183 97q13 0 26.5 -6t20.5 -17l-5 -11l-11 -4q-20 5 -34 8t-26 3q-60 0 -131 -96
q-36 -49 -121 -200q-73 -130 -109 -166l35 -3q73 0 136 40l4 -14q-65 -43 -139 -43q-25 0 -51 6q-76 -61 -145 -90q-80 -34 -168 -34zM509 742q34 -36 69 -58l-2 -10q-44 12 -85 37q-24 -9 -50 -18.5t-48 -12.5l4 12q21 6 45 16.5t67 33.5z" />
    <glyph glyph-name="Igrave" unicode="&#xcc;" horiz-adv-x="711" 
d="M121 -27q-63 0 -109 27q-56 33 -56 91q0 32 22 56t54 24q7 0 16.5 -3t18.5 -6l14 -25l-6 -14l-12 -7l-38 11l-31 -14q-5 -11 -7 -17q-6 -14 -6 -17q0 -45 50 -70q40 -20 91 -20q74 0 150 32q82 35 122 91q-49 26 -75.5 75t-26.5 107q0 158 154 269q140 101 304 101
q57 0 103 -10q71 -15 82 -47l-5 -11l-12 -5q-22 0 -119 35q-47 17 -82 17q-150 0 -267.5 -115.5t-117.5 -264.5q0 -45 18 -82.5t55 -55.5q49 42 123 176q83 150 128 202q83 97 183 97q13 0 26.5 -6t20.5 -17l-5 -11l-11 -4q-20 5 -34 8t-26 3q-60 0 -131 -96
q-36 -49 -121 -200q-73 -130 -109 -166l35 -3q73 0 136 40l4 -14q-65 -43 -139 -43q-25 0 -51 6q-76 -61 -145 -90q-80 -34 -168 -34zM499 705q-11 8 -17 14q-11 12 -11 20q0 5 4.5 12.5t13.5 7.5t20 -12q11 -16 15 -21l30 -44l-9 -9z" />
    <glyph glyph-name="Edieresis" unicode="&#xcb;" horiz-adv-x="765" 
d="M333 699q-18 0 -18 20q0 15 11 30.5t25 15.5q16 0 16 -22q0 -15 -10 -29.5t-24 -14.5zM423 699q-17 0 -17 20q0 16 10.5 31t25.5 15q16 0 16 -21q0 -16 -10 -30.5t-25 -14.5zM358 439l-3 26q0 81 93 141q84 54 170 54q50 0 86 -19q46 -24 46 -70q0 -48 -36 -76
q-32 -25 -81 -25q-20 0 -36 4q-29 -81 -149 -132q-106 -45 -218 -45q-32 0 -62 5q-51 -62 -51 -140q0 -64 39 -102t103 -38q67 0 138 46q79 51 79 115q0 23 -17 39t-41 16q-19 0 -39 -10t-49 -39l-8 10q22 30 54 50t68 20q27 0 46.5 -17.5t19.5 -45.5q0 -85 -106 -153
q-94 -60 -187 -60q-67 0 -113 37q-50 40 -50 106q0 48 19.5 93t53.5 83q-56 19 -88 50q-39 38 -39 91q0 73 61 118q55 41 131 41q52 0 99 -19l-7 -13q-21 7 -40 10.5t-38 3.5q-66 0 -115 -43t-49 -108q0 -43 27 -72.5t71 -43.5q42 43 100 73t118 39zM239 312q100 0 195 41
q109 47 149 127q-15 8 -24.5 21.5t-9.5 30.5l7 18l17 7q17 0 24 -12.5t7 -31.5v-13q-2 -9 -2 -12q15 -5 30 -5q30 0 53.5 21.5t23.5 51.5q0 41 -34 62t-77 21q-75 0 -139 -47q-70 -51 -70 -124l3 -26q21 0 39.5 -7.5t18.5 -25.5l-9 -15q-12 -6 -21 -6q-39 0 -56 36
q-55 -5 -102 -36q-32 -21 -82 -71q33 -5 59 -5z" />
    <glyph glyph-name="plusminus" unicode="&#xb1;" horiz-adv-x="483" 
d="M445 -3h-397v31h397v-31zM48 258h185v142h32v-142h180v-31h-180v-145h-32v145h-185v31z" />
    <glyph glyph-name="Ecircumflex" unicode="&#xca;" horiz-adv-x="765" 
d="M403 757q14 -15 32.5 -30.5t37.5 -27.5l-3 -9q-23 5 -42 13.5t-43 22.5q-34 -13 -48 -18q-28 -10 -50 -13l4 12q32 11 57 22q14 6 55 28zM358 439l-3 26q0 81 93 141q84 54 170 54q50 0 86 -19q46 -24 46 -70q0 -48 -36 -76q-32 -25 -81 -25q-20 0 -36 4
q-29 -81 -149 -132q-106 -45 -218 -45q-32 0 -62 5q-51 -62 -51 -140q0 -64 39 -102t103 -38q67 0 138 46q79 51 79 115q0 23 -17 39t-41 16q-19 0 -39 -10t-49 -39l-8 10q22 30 54 50t68 20q27 0 46.5 -17.5t19.5 -45.5q0 -85 -106 -153q-94 -60 -187 -60q-67 0 -113 37
q-50 40 -50 106q0 48 19.5 93t53.5 83q-56 19 -88 50q-39 38 -39 91q0 73 61 118q55 41 131 41q52 0 99 -19l-7 -13q-21 7 -40 10.5t-38 3.5q-66 0 -115 -43t-49 -108q0 -43 27 -72.5t71 -43.5q42 43 100 73t118 39zM239 312q100 0 195 41q109 47 149 127q-15 8 -24.5 21.5
t-9.5 30.5l7 18l17 7q17 0 24 -12.5t7 -31.5v-13q-2 -9 -2 -12q15 -5 30 -5q30 0 53.5 21.5t23.5 51.5q0 41 -34 62t-77 21q-75 0 -139 -47q-70 -51 -70 -124l3 -26q21 0 39.5 -7.5t18.5 -25.5l-9 -15q-12 -6 -21 -6q-39 0 -56 36q-55 -5 -102 -36q-32 -21 -82 -71
q33 -5 59 -5z" />
    <glyph glyph-name="Egrave" unicode="&#xc8;" horiz-adv-x="760" 
d="M358 439l-3 26q0 81 93 141q84 54 170 54q50 0 86 -19q46 -24 46 -70q0 -48 -36 -76q-32 -25 -81 -25q-20 0 -36 4q-29 -81 -149 -132q-106 -45 -218 -45q-32 0 -62 5q-51 -62 -51 -140q0 -64 39 -102t103 -38q67 0 138 46q79 51 79 115q0 23 -17 39t-41 16
q-19 0 -39 -10t-49 -39l-8 10q22 30 54 50t68 20q27 0 46.5 -17.5t19.5 -45.5q0 -85 -106 -153q-94 -60 -187 -60q-67 0 -113 37q-50 40 -50 106q0 48 19.5 93t53.5 83q-56 19 -88 50q-39 38 -39 91q0 73 61 118q55 41 131 41q52 0 99 -19l-7 -13q-21 7 -40 10.5t-38 3.5
q-66 0 -115 -43t-49 -108q0 -43 27 -72.5t71 -43.5q42 43 100 73t118 39zM239 312q100 0 195 41q109 47 149 127q-15 8 -24.5 21.5t-9.5 30.5l7 18l17 7q17 0 24 -12.5t7 -31.5v-13q-2 -9 -2 -12q15 -5 30 -5q30 0 53.5 21.5t23.5 51.5q0 41 -34 62t-77 21q-75 0 -139 -47
q-70 -51 -70 -124l3 -26q21 0 39.5 -7.5t18.5 -25.5l-9 -15q-12 -6 -21 -6q-39 0 -56 36q-55 -5 -102 -36q-32 -21 -82 -71q33 -5 59 -5zM346 703q-14 11 -17 14q-10 10 -10 20q0 19 18 19q9 0 20 -12q5 -5 14 -20l31 -44l-9 -9z" />
    <glyph glyph-name="Ocircumflex" unicode="&#xd4;" horiz-adv-x="767" 
d="M9 439q0 74 68 117q60 38 136 38q11 0 25.5 -0.5t36.5 -7.5l-7 -13q-11 2 -21 3t-24 1q-70 0 -120 -38q-55 -42 -55 -111q0 -41 25.5 -71.5t66.5 -43.5q75 127 215 227q153 110 286 110q53 0 86 -22q40 -26 40 -77q0 -33 -15.5 -62t-43.5 -51q0 -162 -148.5 -307.5
t-311.5 -145.5q-73 0 -118 42t-45 114q0 41 13 81q8 26 33 77q-51 16 -84 51q-38 39 -38 89zM567 384q-52 0 -93 25q-36 -63 -106 -95q-63 -29 -142 -29h-24q-11 2 -15 2q-14 -20 -26.5 -65t-12.5 -73q0 -64 38.5 -97.5t102.5 -33.5q141 0 262.5 128.5t121.5 269.5
q-24 -15 -51.5 -23.5t-54.5 -8.5zM227 302q75 0 134 27q66 30 101 91q-22 17 -22 45l6 20l15 7q26 -7 26 -38q0 -15 -5 -28q15 -13 38 -19t46 -6q27 0 55 9t51 25q-5 37 -23 60q-21 27 -57 27q-14 0 -29.5 -6t-28.5 -14l-11 2q10 25 34.5 41.5t52.5 16.5q40 0 66 -29
q23 -26 29 -67q28 25 28 65q0 46 -34.5 71.5t-82.5 25.5q-118 0 -246 -110q-107 -92 -175 -215zM453 755q19 -19 34.5 -33t34.5 -26l-2 -9q-18 4 -36 11t-49 25q-32 -12 -48 -17q-30 -10 -50 -14l4 12q28 9 44 16t68 35z" />
    <glyph glyph-name="Otilde" unicode="&#xd5;" horiz-adv-x="761" 
d="M3 445q0 73 68 117q59 38 136 38q11 0 25.5 -0.5t36.5 -7.5l-7 -13q-11 2 -21 3t-24 1q-70 0 -120 -38q-55 -42 -55 -111q0 -42 25.5 -72t66.5 -43q75 126 215 226q154 110 286 110q52 0 86 -22q40 -26 40 -76q0 -33 -15.5 -62t-43.5 -51q0 -162 -148.5 -307.5
t-311.5 -145.5q-73 0 -118 42t-45 114q0 41 13 81q8 26 33 76q-52 18 -84 51q-38 39 -38 90zM561 390q-52 0 -93 25q-36 -63 -106 -95q-63 -29 -142 -29h-24q-11 2 -15 2q-15 -20 -26.5 -64.5t-11.5 -74.5q0 -63 38 -97t102 -34q141 0 262.5 128.5t121.5 269.5
q-26 -16 -51 -23.5t-55 -7.5zM221 308q76 0 134 26q66 30 101 91q-22 17 -22 46l6 19l16 8q25 -7 25 -38q0 -15 -5 -28q15 -13 38 -19t46 -6q58 0 107 33q-6 39 -24 61q-21 26 -57 26q-14 0 -29.5 -6t-28.5 -14l-11 3q10 25 34.5 41.5t53.5 16.5q39 0 65 -29q23 -26 29 -67
q28 24 28 65q0 47 -33.5 71.5t-83.5 24.5q-117 0 -246 -110q-108 -92 -175 -214zM441 733q-10 -21 -21 -32q-15 -15 -35 -15q-13 0 -39 13t-37 13q-9 0 -17.5 -6t-16.5 -16l-9 5q13 19 23 28q16 14 33 14q14 0 40 -13t39 -13q10 0 17.5 7.5t13.5 18.5z" />
    <glyph glyph-name="exclam" unicode="!" horiz-adv-x="247" 
d="M247 440q0 -10 -31 -69q-83 -159 -84 -161q-12 -33 -23 -66q-20 -53 -30 -53t-10 10q0 4 22.5 61.5t24.5 62.5q28 104 43.5 158.5t26.5 70t30 15.5q12 0 21.5 -8.5t9.5 -20.5zM61 60q20 0 20 -22q0 -15 -11 -29t-26 -14q-21 0 -21 22q0 15 11 29t27 14z" />
    <glyph glyph-name="igrave" unicode="&#xec;" horiz-adv-x="181" 
d="M14 -4q-24 0 -24 22q0 18 32 73q43 72 87 144q-1 2 -3 3.5t-3 2.5q-11 0 -32.5 -14t-32.5 -24l-6 12q31 24 48 35q35 22 54 22q22 0 22 -21q0 -18 -58.5 -110t-58.5 -103q0 -7 8 -7q12 0 34 16q10 7 30 24l6 -12q-25 -23 -48 -39q-34 -24 -55 -24zM173 359q-8 5 -18 15
t-10 18q0 5 4.5 12.5t13.5 7.5t20 -12l14 -20l31 -45l-9 -9z" />
    <glyph glyph-name="iacute" unicode="&#xed;" horiz-adv-x="182" 
d="M14 -4q-24 0 -24 22q0 18 32 73q43 72 87 144q-1 2 -3 3.5t-3 2.5q-11 0 -32.5 -14t-32.5 -24l-6 12q31 24 48 35q35 22 54 22q22 0 22 -21q0 -18 -58.5 -110t-58.5 -103q0 -7 8 -7q12 0 34 16q10 7 30 24l6 -12q-25 -23 -48 -39q-34 -24 -55 -24zM251 412q13 0 13 -19
q0 -14 -13 -23q-1 -1 -27 -13l-65 -31l-7 8q30 27 61 55q28 23 38 23z" />
    <glyph glyph-name="icircumflex" unicode="&#xee;" horiz-adv-x="181" 
d="M14 -4q-24 0 -24 22q0 18 32 73q43 72 87 144q-1 2 -3 3.5t-3 2.5q-11 0 -32.5 -14t-32.5 -24l-6 12q31 24 48 35q35 22 54 22q22 0 22 -21q0 -18 -58.5 -110t-58.5 -103q0 -7 8 -7q12 0 34 16q10 7 30 24l6 -12q-25 -23 -48 -39q-34 -24 -55 -24zM184 403q33 -36 70 -59
l-3 -9q-23 5 -42 13.5t-43 22.5q-34 -13 -48 -18q-28 -10 -50 -13l4 12q26 9 55.5 22.5t56.5 28.5z" />
    <glyph glyph-name="idieresis" unicode="&#xef;" horiz-adv-x="181" 
d="M14 -4q-24 0 -24 22q0 18 32 73q43 72 87 144q-1 2 -3 3.5t-3 2.5q-11 0 -32.5 -14t-32.5 -24l-6 12q31 24 48 35q35 22 54 22q22 0 22 -21q0 -18 -58.5 -110t-58.5 -103q0 -7 8 -7q12 0 34 16q10 7 30 24l6 -12q-25 -23 -48 -39q-34 -24 -55 -24zM119 335q-17 0 -17 20
q0 15 10.5 31t25.5 16q16 0 16 -22q0 -16 -10 -30.5t-25 -14.5zM210 335q-17 0 -17 21q0 15 11 30.5t25 15.5q16 0 16 -21q0 -16 -10 -31t-25 -15z" />
    <glyph glyph-name="quotedbl" unicode="&#x22;" horiz-adv-x="176" 
d="M48 394q5 13 11.5 28.5t19.5 15.5q8 0 15 -6t7 -15q0 -10 -34 -56q-16 -22 -37 -48l-11 6zM110 394q5 13 11.5 28.5t19.5 15.5q8 0 15 -6t7 -15q0 -10 -35 -56t-36 -48l-11 6z" />
    <glyph glyph-name="dagger" unicode="&#x2020;" horiz-adv-x="422" 
d="M211 -14l-16 17v424h-154l-15 19l16 15h153v181l20 18l16 -17v-182h145l17 -19l-16 -15h-146v-422z" />
    <glyph glyph-name="trademark" unicode="&#x2122;" horiz-adv-x="809" 
d="M603 621h1h-1zM525 602q18 20 37 31.5t35 12.5q-1 0 -1.5 0.5t-1.5 0.5q-20 6 -35 6q-29 0 -58 -13t-53 -33q-52 -47 -52 -107q0 -19 4.5 -32.5t18.5 -21.5q1 2 2.5 4.5t2.5 4.5q6 8 16 24.5t24 39.5q17 27 32.5 48t28.5 35zM212 583q-9 -19 -22 -32q-27 -23 -45 -23
q-15 0 -25 9t-10 24q0 47 62 80q26 14 51 19.5t51 5.5q8 0 24.5 -1.5t37.5 -3.5q2 0 5 -0.5t5 -0.5q8 -1 14 -1h11q12 0 32 5q13 2 20 3q8 1 12 3l11 -2q0 -1 0.5 -3.5t0.5 -3.5q0 1 1 0q0 -17 -20 -23h1q-11 -4 -29 -4h-13t-15 1l8 -12l-6 -11l-9 -2q-4 1 -8 1.5t-6 1.5h-2
q-1 0 -1 1q-4 1 -9 1q-29 0 -62 -61q-27 -48 -45 -78t-29 -42q-58 -67 -138 -67q-30 0 -54 11q-29 14 -29 45q0 20 13 31t30 11h4q8 -4 14 -4l9 -14l-6 -11l-11 -6l-21 5q-2 -1 -4.5 -2t-4.5 -2l-5 -10q0 -18 10 -23q14 -8 26 -10.5t25 -2.5q32 0 62.5 17t54.5 47
q18 28 38.5 60t38.5 61q22 31 45.5 49t49.5 20h-1q-35 5 -56.5 7.5t-29.5 2.5q-36 0 -79 -21v1q-48 -23 -48 -57q0 -8 5 -13t12 -5q11 0 24 11q5 4 10 10t11 17zM313 370q-29 0 -47 7q-29 13 -33 33l2 10l12 6q6 -2 26 -24q13 -15 40 -15q26 0 54 13q8 5 17.5 12.5
t20.5 18.5q-17 12 -27.5 32t-10.5 43q0 73 70 121q31 22 65 32t73 10h20t13 -1q11 -2 19 -6.5t13 -12.5q0 -9 -12 -12q-4 1 -6.5 1.5t-5.5 1.5l8 -12l-9 -9q-5 1 -8 1.5t-4 0.5q-2 1 -3 2t-2 1h-1q-11 0 -19.5 -16t-15.5 -44q-5 -33 -7 -53.5t-2 -25.5l-4 -30v-1
q-1 -3 -0.5 -3t0.5 1q1 2 2 3t2 3q5 6 9 13t8 13q11 16 20.5 32.5t20.5 32.5q18 26 38 48.5t37 37.5q49 38 99 38h17q7 -4 9.5 -4.5t4.5 -0.5l15 -14l-11 -16l-12 4q-3 1 -5.5 2t-6.5 3l6 -9l-2 -9l-9 -2q-3 0 -7 2v-1q-10 4 -13 4q-19 0 -54 -44q-30 -41 -54 -95
q-25 -54 -25 -77q0 -15 14 -15q10 0 21 8q9 6 22 22l13 -9q-13 -21 -31 -34q-20 -13 -40 -13q-31 0 -31 32q0 16 7.5 40t21.5 53q14 28 30.5 54t35.5 46q46 51 79 51h2q-3 0 -5 0.5t-4 0.5q-58 0 -114 -70q-12 -17 -24 -33.5t-23 -33.5q-12 -17 -23 -34t-22 -33
q-25 -36 -47.5 -55.5t-41.5 -19.5q-12 0 -19 12l5 10q5 2 6.5 2.5t3.5 0.5h5.5t8.5 -1q3 -1 4 -1t7 2q2 0 2.5 0.5t2.5 0.5q10 11 16 58q4 38 7.5 61.5t5.5 33.5q4 15 9 29.5t12 24.5q-5 -5 -10.5 -11t-10.5 -13q-8 -13 -21.5 -33t-30.5 -48q-15 -24 -24 -38.5t-16 -23.5
q2 0 4 -1t4 -1q16 0 40 16l10 -12q-14 -12 -26 -16t-24 -4h-8.5t-14.5 2q-20 -23 -51.5 -38t-61.5 -15z" />
    <glyph glyph-name="florin" unicode="&#x192;" horiz-adv-x="551" 
d="M220 226l7 16h80q49 99 111 163q83 86 170 86q23 0 32 -3q20 -7 20 -24l-5 -13l-15 -5q-10 1 -30.5 11.5t-32.5 10.5q-57 0 -123 -86q-49 -64 -80 -140h90l-8 -16h-90q-57 -112 -77 -145q-52 -87 -105 -131q-70 -58 -152 -58q-26 0 -42 6q-22 9 -30 29l6 14l14 6
q12 -2 42 -17q24 -12 50 -12q85 0 178 172q51 104 68 136h-78z" />
    <glyph glyph-name="ellipsis" unicode="&#x2026;" horiz-adv-x="752" 
d="M80 60q21 0 21 -22q0 -16 -10.5 -29.5t-27.5 -13.5q-21 0 -21 22q0 14 11.5 28.5t26.5 14.5zM384 60q20 0 20 -22q0 -15 -11 -29t-26 -14q-21 0 -21 22q0 15 11 29t27 14zM687 60q20 0 20 -22q0 -16 -10.5 -29.5t-26.5 -13.5q-21 0 -21 22q0 15 11 29t27 14z" />
    <glyph glyph-name="OE" unicode="&#x152;" horiz-adv-x="1024" 
d="M899 477q-26 19 -26 52l5 18l14 7q11 0 18 -8.5t7 -33.5q0 -16 -2 -27q8 -3 12 -4t11 -1q25 0 44 21.5t19 51.5q0 40 -27.5 61.5t-61.5 21.5q-60 0 -112 -47q-57 -51 -57 -124l3 -26q16 0 31 -7.5t15 -25.5l-7 -15q-10 -6 -17 -6q-15 0 -27 10t-18 26q-46 -5 -83 -35
q-25 -20 -76 -87q-41 -62 -41 -140q0 -64 31 -101.5t84 -37.5q55 0 111 45q64 51 64 115q0 23 -13.5 39t-32.5 16q-15 0 -32.5 -10t-38.5 -39l-7 10q18 32 42 50q28 21 56 21q23 0 38.5 -17.5t15.5 -46.5q0 -86 -86 -153q-76 -60 -152 -60q-54 0 -92.5 38t-38.5 105
q0 28 6 56q-18 -27 -40 -53q-120 -145 -252 -145q-59 0 -95.5 41t-36.5 114q0 42 11 82q7 26 27 76q-42 17 -68 51q-31 39 -31 90q0 73 55 117q48 38 110 38q9 0 20.5 -0.5t29.5 -7.5l-5 -13q-14 3 -20 3.5t-16 0.5q-56 0 -97 -38q-45 -42 -45 -111q0 -42 20.5 -72t54.5 -43
q60 125 174 226q124 110 231 110q41 0 69 -22q32 -26 32 -76q0 -33 -12 -62t-35 -51q0 -62 -19 -121l1 1q33 42 80.5 72.5t95.5 40.5l-1 25q0 82 74 142q68 53 138 53q40 0 70 -19q37 -24 37 -70q0 -48 -29 -76q-26 -25 -66 -25q-15 0 -41 10zM445 390q-42 0 -75 25
q-29 -63 -86 -95q-51 -29 -115 -29h-20q-9 2 -12 2q-12 -20 -21.5 -66.5t-9.5 -72.5q0 -63 31 -97t82 -34q115 0 213 128t98 270q-21 -16 -41.5 -23.5t-43.5 -7.5zM169 308q63 0 110 26q53 29 81 91q-18 17 -18 46l5 19l13 8q10 -3 15 -13t5 -24q0 -13 -2 -19.5t-3 -9.5
q14 -13 32 -19t37 -6q48 0 86 33q-5 37 -20 60q-17 27 -45 27q-11 0 -24 -6t-24 -14l-8 3q8 26 28 42t43 16q31 0 52 -29q19 -26 24 -67q23 24 23 65q0 47 -27 71.5t-67 24.5q-95 0 -199 -110q-89 -93 -142 -214z" />
    <glyph glyph-name="oe" unicode="&#x153;" horiz-adv-x="410" 
d="M217 75q0 -19 9.5 -30.5t27.5 -11.5q24 0 53 16.5t52 37.5l3 -16q-26 -28 -63 -50q-44 -26 -76 -26q-26 0 -39 16t-13 42q-20 -25 -49.5 -43t-58.5 -18q-33 0 -49.5 18.5t-16.5 52.5q0 74 74 144t149 70q15 0 24.5 -5t13.5 -18l-6 -12l-15 -5q-10 0 -30 6t-30 6
q-50 0 -94 -65q-40 -59 -40 -113q0 -21 10 -36t30 -15q40 0 72.5 37.5t32.5 78.5q0 14 -6 33q-9 30 -10 33l5 11l12 6q13 0 17.5 -12t4.5 -33q0 -14 -2 -24q30 48 72 82q51 41 99 41q16 0 26.5 -7t10.5 -22q0 -46 -111 -96q-15 -7 -82 -33q-7 -18 -7 -40zM369 232
q0 16 -18 16q-23 0 -52 -25q-39 -34 -67 -87q43 13 82 36q55 32 55 60z" />
    <glyph glyph-name="endash" unicode="&#x2013;" horiz-adv-x="325" 
d="M281 160v-36h-234v36h234z" />
    <glyph glyph-name="emdash" unicode="&#x2014;" horiz-adv-x="1074" 
d="M1032 160v-36h-998v36h998z" />
    <glyph glyph-name="quotedblleft" unicode="&#x201c;" horiz-adv-x="232" 
d="M189 597q-16 -13 -27 -23q-19 -18 -21 -29q20 0 20 -19q0 -12 -8.5 -22.5t-21.5 -10.5q-20 0 -20 22q0 25 25 52q20 21 48 38zM127 597q-17 -13 -28 -23q-18 -17 -21 -29q21 0 21 -18q0 -13 -8.5 -24t-21.5 -11q-9 0 -15 7t-6 16q0 23 26 51q19 20 47 39z" />
    <glyph glyph-name="quotedblright" unicode="&#x201d;" horiz-adv-x="232" 
d="M47 492q19 13 28 22q17 16 21 29l-4 -1q-17 0 -17 20q0 13 8.5 23.5t21.5 10.5q20 0 20 -23q0 -25 -25 -52q-20 -21 -48 -38zM109 492q19 14 28 22q19 17 21 29l-3 -1q-17 0 -17 20q0 12 8.5 23t20.5 11q21 0 21 -23q0 -24 -26 -52q-20 -21 -47 -38z" />
    <glyph glyph-name="quoteleft" unicode="&#x2018;" horiz-adv-x="208" 
d="M165 597q-17 -13 -28 -23q-18 -17 -21 -29q21 0 21 -18q0 -13 -8.5 -24t-21.5 -11q-9 0 -15 7t-6 16q0 23 26 51q19 20 47 39z" />
    <glyph glyph-name="quoteright" unicode="&#x2019;" horiz-adv-x="167" 
d="M44 492q18 13 28 22q18 17 21 29l-3 -1q-18 0 -18 20q0 12 9 23t21 11q20 0 20 -23q0 -24 -25 -52q-19 -21 -47 -38z" />
    <glyph glyph-name="Ydieresis" unicode="&#x178;" horiz-adv-x="904" 
d="M1116 679q6 0 14 -3t15 -5l11 -19l-7 -16q-9 -6 -22 -6q-10 0 -29 4t-26 4q-75 0 -166 -126q-45 -63 -115 -195l34 3q8 0 21.5 -4t25.5 -7l17 -33l-6 -15l-13 -6l-18 14l-2 8l-39 24l-30 -2q-109 -196 -164 -274q-104 -148 -216 -224q-136 -92 -306 -92q-73 0 -127 29
q-68 37 -68 105q0 6 5.5 23t6.5 22l32 32l44 12q7 0 16 -3l18 -6l13 -24l-7 -16l-15 -6l-42 10l-35 -15q-2 -5 -8 -19.5t-6 -16.5q0 -58 62 -87q49 -23 113 -23q124 0 228 59q89 50 170 148q61 74 134 196l81 138q2 3 6 14t10 11l-6 -1l-39 -2l-37 3q0 -108 -58 -186
q-65 -87 -169 -87q-60 0 -100 32q-43 35 -43 94q0 98 90 171q84 58 169 116q91 72 91 166q0 5 6.5 10t11.5 5l13 -5q6 -5 9 -15t3 -19q0 -58 -87 -126q-81 -62 -162 -123q-88 -81 -88 -168q0 -44 31 -79t76 -35q83 0 139 78q51 71 51 157v15q-14 5 -25 17t-18 29q0 6 6 13
t13 7l24 -13l17 -38l32 -3q15 0 30.5 1t30.5 4q53 87 96 146q70 98 133 152q82 71 150 71zM397 436q-18 -31 -48 -52t-64 -21q-32 0 -52 20t-20 51q0 110 135 182q114 61 233 61q44 0 87 -9q66 -14 66 -41q0 -17 -17 -17q-50 16 -93 28.5t-76 12.5q-102 0 -190 -47
q-106 -57 -106 -151q0 -25 15.5 -42.5t39.5 -17.5t46 16q17 12 34 37zM685 712q-18 0 -18 20q0 16 11 31.5t26 15.5q11 0 13.5 -8t2.5 -15q0 -14 -10.5 -29t-24.5 -15zM775 712q-17 0 -17 20q0 15 11 31t25 16q16 0 16 -21q0 -16 -10 -31t-25 -15z" />
    <glyph glyph-name="guilsinglleft" unicode="&#x2039;" horiz-adv-x="196" 
d="M180 233q-20 -29 -46.5 -52t-57.5 -39v-14q0 -30 -9 -65t-25 -63h-19q1 2 2 5t2 5q4 14 7 31t3 37q0 10 -0.5 17l-1 14t-2.5 15.5t-5 22.5q16 7 34 17.5t35 21.5q12 8 28 20l36 27h19z" />
    <glyph glyph-name="guilsinglright" unicode="&#x203a;" horiz-adv-x="170" 
d="M104 233l-1 -16q0 -20 8 -37.5t24 -37.5q-28 -17 -51 -33t-40 -30q-43 -36 -76 -79h-18q18 33 63 81q21 20 38.5 36t34.5 29q-7 17 -7 37q0 30 10 50h15z" />
    <glyph glyph-name="perthousand" unicode="&#x2030;" horiz-adv-x="591" 
d="M219 -5q-58 0 -58 59q0 52 62 112q64 60 119 60q37 0 37 -24l-4 -10l-11 -4q-4 0 -9.5 1t-11.5 3q-7 2 -12.5 3t-10.5 1q-41 0 -79 -44q-37 -44 -37 -88q0 -17 8 -28t25 -11q18 0 33.5 9t27.5 25q12 17 19 35.5t7 36.5q-1 1 -1.5 7t-1.5 10v-1q-3 9 -3 17q0 13 13 13
q12 0 17.5 -10t5.5 -24q0 -50 -42 -98q-41 -50 -93 -50zM410 -5q-59 0 -59 59q0 53 63 113q63 59 119 59q14 0 24.5 -5t10.5 -19l-4 -10l-10 -4q-5 0 -10 1t-10 3h1q-7 2 -13 3t-11 1q-20 0 -41 -12.5t-39 -32.5q-18 -22 -28 -44.5t-10 -42.5q0 -17 9 -28t26 -11
q18 0 33.5 9t27.5 25q12 17 19 35.5t7 36.5q-1 1 -1.5 7t-1.5 10v-1q-3 9 -3 17q0 13 13 13q9 0 15.5 -8t6.5 -26q0 -50 -42 -98q-41 -50 -92 -50zM358 402q-8 -2 -16.5 -3t-16.5 -1q-14 0 -54 12q-20 6 -31 6q-47 0 -87 -45q-41 -46 -41 -92q0 -17 9 -29.5t27 -12.5
q35 0 59 32q24 34 24 71q0 10 -3 24t-5 20l4 9l10 4q16 -5 21 -16.5t5 -28.5q0 -48 -44 -97q-20 -23 -43.5 -35.5t-47.5 -12.5q-25 0 -40.5 15.5t-15.5 40.5q0 63 61 119q31 29 61.5 42t61.5 13q19 0 46 -7q30 -8 43 -8q37 0 64 32l15 -15q-18 -15 -46 -46t-63 -73
q-29 -37 -64 -82t-71 -95q-33 -45 -59.5 -82t-41.5 -61h-46z" />
    <glyph glyph-name="quotedblbase" unicode="&#x201e;" horiz-adv-x="232" 
d="M37 -44q16 11 28 23q19 17 21 28q-20 0 -20 19q0 13 8.5 23.5t20.5 10.5q21 0 21 -22q0 -24 -26 -53q-19 -21 -46 -38zM100 -44q17 12 28 23q18 17 21 28q-21 0 -21 19q0 13 8.5 23.5t21.5 10.5q20 0 20 -22q0 -24 -25 -52q-20 -23 -47 -39z" />
    <glyph glyph-name="quotesinglbase" unicode="&#x201a;" horiz-adv-x="167" 
d="M11 -56q15 11 31 26q21 19 24 31h-4q-19 0 -19 21q0 14 9 26t24 12q23 0 23 -25q0 -24 -27 -55t-52 -44z" />
    <glyph glyph-name="uni00AD" unicode="&#xad;" horiz-adv-x="255" 
d="M199 165v-42h-170v42h170z" />
    <glyph glyph-name="guillemotright" unicode="&#xbb;" horiz-adv-x="293" 
d="M117 230l-1 -14q0 -20 8 -37.5t24 -36.5q-54 -33 -90 -63q-43 -36 -76 -79h-14q19 35 61 78q38 39 75 66q-8 19 -8 38q0 27 10 48h11zM199 230l-2 -14q0 -20 8 -37.5t24 -36.5q-51 -31 -89 -63q-45 -37 -77 -79h-13q21 37 60 78q35 36 75 66q-8 18 -8 38q0 27 10 48h12z
" />
    <glyph glyph-name="guillemotleft" unicode="&#xab;" horiz-adv-x="249" 
d="M176 230q-39 -55 -102 -87v-16q0 -30 -9 -65t-24 -62h-14q4 15 8 33t4 43q0 20 -1.5 31t-7.5 38q36 17 68 38q24 16 64 47h14zM255 230q-16 -23 -45.5 -48t-56.5 -39v-16q0 -30 -9 -65t-24 -62h-15q13 39 13 75q0 21 -1.5 32t-7.5 38q33 16 68 39q9 6 64 46h14z" />
    <glyph glyph-name="ring" unicode="&#xb0;" horiz-adv-x="234" 
d="M137 680q47 0 47 -44q0 -36 -25.5 -62.5t-59.5 -26.5q-48 0 -48 47q0 34 26 60t60 26zM134 659q-22 0 -37.5 -20t-15.5 -44q0 -25 23 -25q19 0 35 21.5t16 41.5q0 26 -21 26z" />
    <glyph glyph-name="acute" unicode="&#xb4;" horiz-adv-x="246" 
d="M166 682q13 0 13 -19q0 -10 -8 -18q-4 -4 -32 -18l-65 -31l-7 8q30 27 61 55q28 23 38 23z" />
    <glyph glyph-name="Zcaron" unicode="&#x17d;" horiz-adv-x="760" 
d="M781 651q6 0 15 -3t18 -5l13 -21q0 -29 -34 -42q-26 -10 -72 -10q-23 0 -39 1.5t-35 5.5q-53 -40 -98 -118q-9 -15 -71 -138h6q85 0 109 23q37 36 50 41l13 -5l5 -13q-14 -31 -59 -50t-92 -19q-23 0 -40 6q-8 -18 -21 -38.5t-28 -40.5l-4 -4l7 -2l39 -9q65 -13 96 -40
q27 -24 27 -55q0 -62 -65 -96q-53 -28 -121 -28q-52 0 -117 8q-156 19 -195 19q-33 0 -68.5 -8t-69.5 -16q-14 0 -14 14q25 39 140 45.5t164 37.5q32 20 64 60l54 68q-32 7 -53 21q-29 19 -29 47l16 28q13 4 34.5 6t38.5 2q14 0 28.5 -0.5t28.5 -0.5q51 84 92 138
q54 71 113 121q-116 21 -137 24q-80 12 -139 12q-73 0 -127 -35q-64 -41 -64 -111q0 -32 23.5 -54.5t54.5 -22.5q44 0 77 33t39 78l14 -1q0 -56 -48 -100t-105 -44q-35 0 -59.5 23.5t-24.5 59.5q0 91 90 155q82 58 177 58q62 0 156 -30l92 -30q34 26 63 39q36 16 72 16z
M381 306q-26 0 -44.5 -5.5t-18.5 -25.5q0 -15 17 -27q9 -6 32 -16l45 74h-31zM172 43q123 -16 247 -32q56 0 98 22q52 27 52 79q0 54 -87 78q-55 13 -73 17q-46 -58 -108 -102.5t-129 -61.5zM721 583q22 0 39 5q26 8 26 24q0 10 -11 12.5t-16 2.5q-23 0 -46.5 -10t-45.5 -26
q27 -8 54 -8zM610 858q0 -9 -57 -72q-27 -30 -72 -77h-17q-61 61 -95 98q-38 41 -38 48q0 14 13 12q30 -25 66 -64q31 -35 63 -70q30 36 65 75q54 61 62 61q10 0 10 -11z" />
    <glyph glyph-name="zcaron" unicode="&#x17e;" horiz-adv-x="258" 
d="M192 148l-9 -18h-55l-86 -88q35 15 68 15q25 0 47.5 -10.5t22.5 -32.5q0 -8 -5.5 -14.5t-13.5 -6.5q-6 0 -35 19.5t-55 19.5q-30 0 -49 -17q-24 -21 -34 -23l-12 4l-4 11q0 7 58 59l72 64h-47l8 18h57l75 80q-12 -3 -28.5 -6t-27.5 -3q-32 0 -47 9.5t-15 25.5t17 19
q29 -17 43.5 -23.5t35.5 -6.5q23 0 40 11q21 14 29 15l7 -4l4 -7q0 -10 -47 -54l-60 -56h46zM282 470q0 -7 -46 -58q-22 -24 -58 -62h-14q-49 49 -76 79q-31 33 -31 39q0 11 10 9q25 -20 54 -51q25 -28 51 -57q24 29 52 61q43 49 50 49q8 0 8 -9z" />
    <glyph glyph-name="scaron" unicode="&#x161;" horiz-adv-x="308" 
d="M232 306l4 11l12 5q11 0 18 -10t7 -21q0 -26 -21 -43t-49 -17q-11 0 -33 4t-32 4q-27 0 -27 -24q0 -7 43 -69q21 -30 21 -57q0 -42 -33.5 -70.5t-76.5 -28.5q-34 0 -59.5 18t-25.5 52q0 27 17 44t44 17q17 0 29.5 -9.5t12.5 -26.5q0 -13 -7.5 -22t-20.5 -9l-13 6l-6 13
q0 4 2.5 10.5t2.5 8.5q-4 7 -10 7q-14 0 -24 -12t-10 -27q0 -24 20.5 -38t45.5 -14q30 0 50.5 18.5t20.5 47.5q0 22 -24 58t-24 58q0 32 24.5 54.5t58.5 22.5q13 0 34.5 -2.5t24.5 -2.5q25 0 29 22q-11 2 -18 7t-7 15zM282 470q0 -7 -46 -58q-22 -24 -58 -62h-14
q-49 49 -76 79q-31 33 -31 39q0 11 10 9q25 -20 54 -51q25 -28 51 -57q24 29 52 61q43 49 50 49q8 0 8 -9z" />
    <glyph glyph-name="Scaron" unicode="&#x160;" horiz-adv-x="640" 
d="M537 877q10 0 10 -11q0 -9 -57 -72q-27 -30 -72 -77h-17q-43 43 -73 75q-60 63 -60 71q0 14 13 12q31 -26 66 -64q31 -35 63 -70q30 36 65 75q54 61 62 61zM409 437q44 0 80 -22.5t50 -63.5l-14 -5q-16 34 -47.5 54.5t-69.5 20.5l-22 -2q74 -78 86 -94q43 -58 43 -117
q0 -98 -87 -161q-79 -57 -180 -57q-88 0 -151 41q-73 47 -73 131q0 61 42 103t103 42q45 0 87 -22q0 80 67 126q-22 37 -22 74q0 74 74 126q67 47 144 47q55 0 96 -27q48 -31 48 -84q0 -46 -35.5 -73t-82.5 -27q-27 0 -51 9l4 13l32 -3q36 0 59.5 19.5t23.5 54.5
q0 45 -37 70.5t-84 25.5q-56 0 -104.5 -37.5t-48.5 -92.5q0 -21 8.5 -39t25.5 -34q9 1 17 2.5t19 1.5zM271 275q17 -12 29 -27.5t12 -33.5l-6 -19l-16 -7q-19 0 -28 24q-5 14 -8 40q-32 39 -89 39q-45 0 -74 -33t-29 -80q0 -76 58.5 -124t136.5 -48q82 0 143 45
q68 50 68 129q0 49 -50 118q-28 38 -86 99q-32 -19 -46.5 -50.5t-14.5 -71.5z" />
    <glyph glyph-name="circumflex" unicode="&#x2c6;" 
d="M254 607l-2 -18q-22 8 -45.5 16.5t-44.5 19.5q-2 -1 -5.5 -2.5t-1.5 0.5q-20 -8 -42.5 -15t-48.5 -11l5 19q10 3 21 7t24 10t29.5 14t38.5 20z" />
    <glyph glyph-name="tilde" unicode="&#x2dc;" horiz-adv-x="263" 
d="M217 675q-7 -20 -21 -34q-16 -16 -36 -16q-12 0 -31 8q-41 18 -46 18q-10 0 -18 -7v1q-2 -2 -5.5 -7t-8.5 -10l-13 7q7 11 13 18t12 13v-1q18 15 34 15q12 0 31 -8q40 -18 48 -18t15.5 8t14.5 19z" />
    <glyph glyph-name="bullet" unicode="&#x2022;" horiz-adv-x="235" 
d="M185 333q0 -27 -18.5 -45.5t-45.5 -18.5q-26 0 -45 19t-19 45q0 27 19 46t45 19q27 0 45.5 -18.5t18.5 -46.5z" />
    <glyph glyph-name="daggerdbl" unicode="&#x2021;" horiz-adv-x="422" 
d="M377 237l16 -20l-16 -16h-146v-198l-20 -17l-16 17v198h-154l-15 20l16 16h153v190h-154l-15 19l16 15h153v181l20 18l16 -17v-182h145l17 -19l-16 -15h-146v-190h146z" />
    <glyph glyph-name="cedilla" unicode="&#xb8;" horiz-adv-x="324" 
d="M204 -1l-24 -31l11 2q8 0 15 -2.5t16 -6.5l10 -28q0 -32 -33.5 -58.5t-109.5 -49.5l-4 17q43 13 57 20q32 19 40 47l-7 18l-22 7l-16 -4l-7 8l51 62z" />
    <glyph glyph-name="numbersign" unicode="#" horiz-adv-x="462" 
d="M242 195q8 19 14.5 38t14.5 37q7 18 13.5 36.5t14.5 38.5h-89q-16 -39 -29 -75t-27 -75h88zM244 492l16 -16l-40 -104h89q4 9 5 16q4 11 7.5 21.5t8.5 20.5q2 5 4.5 11.5t5.5 14.5q2 7 5 14t5 12q1 1 2.5 2t2.5 2q5 5 10 6l7 -10q1 -2 2 -3t2 -3l-38 -104h93l8 -8
q1 -5 4 -7l-13 -12h-103q-14 -39 -27 -75t-29 -75h99l9 -9h-1q1 -1 2 -2.5t2 -2.5l-14 -14h-107q-4 -10 -8 -20.5t-8 -20.5q-5 -14 -9.5 -26.5t-9.5 -25.5t-10.5 -27t-10.5 -28q-4 -9 -7 -17.5t-6 -16.5l-10 -9q-4 0 -8 2q-2 1 -3.5 1t-3.5 1v13l66 174h-92q-4 -11 -8 -24.5
t-9 -27.5q-4 -11 -7.5 -21t-7.5 -20q-11 -26 -20 -52q-4 -11 -6.5 -19.5t-6.5 -17.5l-6 -6q-3 -1 -5 -5l-4 2t-4 1q-1 0 -0.5 -0.5t-5.5 5.5q0 2 -0.5 2.5t-0.5 2.5q-1 2 -1 6l66 174h-91q-7 7 -7 8h1q-8 8 -7 7t0 1q9 6 15 12h99q5 11 8.5 21.5t6.5 20.5q5 11 8.5 22
t8.5 22q6 15 12 31t12 33h-96l-9 9h1q-1 1 -2.5 3t-2.5 3l14 12h104q4 12 7.5 20.5t6.5 17.5l4 10l4 10q5 7 7 14.5t5 15.5q2 6 4 12.5t4 11.5z" />
    <glyph glyph-name="Eth" unicode="&#xd0;" horiz-adv-x="861" 
d="M222 344q2 135 120 229q110 88 249 88q111 0 186 -59q82 -65 82 -174q0 -183 -159 -312q-149 -121 -336 -121q-40 0 -121 8t-121 8q-29 0 -65 -10l-40 -12l-19 17q0 18 23 25t58 7q12 0 31.5 -1t23.5 -1q75 0 137 25q67 28 95 63q-65 19 -106.5 81t-37.5 139zM220 28
q24 0 104 -10q40 -5 64 -5q169 0 287.5 115.5t118.5 284.5q0 103 -61 164t-165 61q-125 0 -212.5 -81t-89.5 -205q-3 -65 27.5 -129.5t91.5 -80.5q14 21 39 66q3 5 10 19h-115v21h126q13 27 35 73q-21 7 -34.5 25t-12.5 45q5 33 52 57q47 17 113 17q26 24 46 36q28 17 55 17
q4 0 10 -2.5t9 -3.5l7 -14q0 -30 -48 -42q-28 -7 -72 -7q-22 -28 -35 -51q-11 -25 -34 -70l19 2q20 2 47 14q20 9 46 31l5 -12q-45 -52 -124 -53q-12 -35 -24 -62h153v-21h-163q-8 -15 -15 -27q-24 -40 -49 -68l13 -1q24 0 49 6t53 18l3 -14q-29 -14 -61 -19.5t-71 -5.5
q-76 -65 -197 -88zM468 382q0 -27 27 -38q23 38 42 59t46 47q-53 -5 -83 -18q-34 -25 -32 -50z" />
    <glyph glyph-name="eth" unicode="&#xf0;" horiz-adv-x="390" 
d="M250 128q0 20 -12.5 31.5t-34.5 11.5q-41 0 -74 -31q-15 -16 -22 -34t-7 -38q0 -46 49 -46q36 0 68 32q33 33 33 74zM203 193q13 0 23.5 -3t18.5 -7q-3 20 -11 43t-19 52l-52 -22t-49 -22l-13 22l102 45q-33 60 -60 94l18 16q14 -17 30 -41t36 -55q8 3 16.5 7t16.5 8
q2 1 3.5 1.5t3.5 1.5q8 5 22.5 12t22.5 11l12 -22l-84 -42q25 -44 36.5 -80.5t11.5 -71.5q0 -29 -10.5 -54t-28.5 -45q-44 -41 -100 -41q-42 0 -66 20.5t-24 55.5q0 46 44 82q44 35 100 35z" />
    <glyph glyph-name="Oslash" unicode="&#xd8;" horiz-adv-x="732" 
d="M120 -98h-27l57 95q-46 8 -77 38q-45 42 -45 114q0 42 13 81q9 27 34 77q84 141 223 241q131 94 248 108l45 75h26l-44 -73h11q53 0 86 -22q40 -26 42 -72q-2 -33 -9.5 -49.5t-25.5 -32.5l-12 12q12 12 11 45q0 46 -35 71q-34 25 -81 26l-45 -74q19 8 39 8q39 0 65 -29
q32 -28 31 -96q1 -161 -147.5 -306.5t-311.5 -145.5q-8 0 -16 1zM232 26q141 0 262.5 128.5t121.5 269.5q-6 56 -24 79q-22 27 -57 27q-14 0 -30 -6q-9 -4 -17 -8l-292 -487q17 -3 36 -3zM314 526q-109 -93 -184 -230q-15 -20 -26.5 -64.5t-11.5 -74.5q0 -63 38 -97
q18 -17 43 -26l360 601q-104 -11 -219 -109z" />
    <glyph glyph-name="AE" unicode="&#xc6;" horiz-adv-x="1323" 
d="M355 56q-106 -79 -233 -79q-55 0 -96 15q-55 20 -66 64l7 18l18 7q15 -5 53 -50q31 -36 96 -36q76 0 143 41q56 35 110 101q38 47 86 125q-26 14 -33 20.5t-19 31.5l17 30q16 5 35.5 6.5t32.5 1.5h23q67 104 101 147q65 83 131 128q80 55 166 55q32 0 56.5 -5.5
t51.5 -20.5l16 -26l-7 -17l-16 -7q-18 4 -65 32q-38 22 -74 22q-93 0 -184 -115q-39 -49 -122 -196l138 -19q78 113 108 157q70 102 104 121l6 -5q-66 -112 -135 -224q19 13 38 23q59 31 119 41l-3 25q0 82 93 142q83 53 170 53q50 0 86 -19q46 -24 46 -70q0 -48 -36 -76
q-32 -25 -81 -25q-20 0 -36 4q-30 -81 -149 -132q-106 -45 -218 -45q-32 0 -62 5q-51 -62 -51 -140q0 -64 38.5 -101.5t103.5 -37.5q68 0 138 45q79 51 79 115q0 23 -17 39t-41 16q-18 0 -39.5 -10t-48.5 -39l-8 10q22 32 52 50q34 21 69 21q28 0 47.5 -17.5t19.5 -46.5
q0 -86 -106 -153q-94 -60 -187 -60q-68 0 -115.5 38t-47.5 105q1 22 5 45l-142 55q-78 -118 -165 -183zM842 316q102 0 195 40q109 47 148 127q-33 19 -33 52l7 18l17 7q14 0 22.5 -8.5t8.5 -33.5q0 -16 -3 -27q10 -3 15 -4t15 -1q30 0 53.5 21.5t23.5 51.5q0 40 -34 61.5
t-76 21.5q-75 0 -139 -47q-70 -51 -70 -124l3 -26q21 0 39.5 -7.5t18.5 -25.5l-9 -15q-12 -6 -21 -6q-18 0 -33 10t-23 26q-56 -5 -102 -35q-31 -20 -82 -72q11 -2 27.5 -3t31.5 -1zM665 205l47 108l-140 18l-43 -75zM516 330h-10q-24 0 -35 -6t-11 -17q0 -7 4.5 -14
t18.5 -15z" />
    <glyph glyph-name="mu" unicode="&#xb5;" horiz-adv-x="295" 
d="M73 122q-18 -34 -36 -67q-3 -8 -2 -12l5 -11l12 -5q42 0 113 85q66 79 79 123l-6 8q-7 0 -28 -14q-17 -11 -27 -19l-7 11q22 21 43 34q31 19 51 19q22 0 22 -19q0 -17 -58 -110t-58 -104q0 -10 9 -10q8 0 23 10q8 6 40 32l7 -12q-23 -23 -49 -41q-35 -24 -57 -24
q-21 0 -21 19q0 14 11 36q2 5 11 21q-31 -31 -55 -48q-38 -27 -67 -27q-12 0 -20 3q-30 -57 -60 -115q-79 -142 -157 -181q18 -6 36 -6q22 0 45.5 6.5t44.5 18.5l7 -10q-27 -20 -64.5 -31t-73.5 -11q-30 0 -43 3q-30 7 -30 27q0 3 2.5 7t4.5 8l16 6l33 -9q53 17 146 190
q52 97 88 163q7 16 20 38q9 15 17 30q35 61 44 74l16 27l-7 7q-10 0 -20 -6t-38 -27l-5 12q19 17 44 33q32 20 50 20q9 0 16 -5t7 -14q0 -19 -57 -106l-18 -27h1z" />
    <glyph glyph-name="multiply" unicode="&#xd7;" horiz-adv-x="500" 
d="M92 53l1 20l134 131q-15 14 -31.5 31t-30.5 31q-11 14 -23.5 26.5l-26.5 26.5l-14 14q-2 2 -4 7t0 8q16 16 27 5l124 -127q15 14 32 30.5t35 34.5t37 36.5t33 32.5q6 6 14 -2q10 -11 9 -15t-6 -9l-132 -130l15.5 -15.5t15.5 -16.5q5 -5 17 -17.5t17 -16.5q7 -9 17 -19.5
t20.5 -21l20.5 -20.5t18 -17q8 -14 -5 -19v1q-10 -10 -20 0l-138 140q-27 -25 -55.5 -53t-55.5 -55l-23 -23z" />
    <glyph glyph-name="thorn" unicode="&#xfe;" horiz-adv-x="313" 
d="M-188 -304q11 -3 29 -3q22 0 45 6.5t44 18.5l7 -10q-27 -20 -64 -31t-73 -11q-30 0 -43 3q-30 7 -30 27q0 3 2.5 7t4.5 8l16 6l33 -9q43 26 105 124.5t157 308.5q37 72 119 218q2 2 3 5l7 14q1 4 0.5 6.5t-2.5 2.5q-5 3 -22 -4l-7 12q26 17 47 11q11 -3 14.5 -12.5
t0.5 -24.5l-4 -8t-3 -7l-41 -78q18 2 35.5 -0.5t30.5 -6.5q47 -14 69 -55t7 -87q-19 -65 -79 -103t-115 -20q-19 6 -31 23.5t-8 32.5q3 9 10 13t15 3q4 -2 6 -3.5t3 -7.5q-3 -3 -5.5 -7t-3.5 -7q-2 -9 4 -18.5t21 -13.5q41 -14 83.5 20t60.5 96q13 41 -1 75t-47 45
q-13 4 -29 5t-34 -1q-78 -150 -169 -323q-21 -39 -39 -73q-68 -119 -129 -167z" />
    <glyph glyph-name="Euro" unicode="&#x20ac;" horiz-adv-x="706" 
d="M360 288q0 -15 -16 -15h-164l-8 -19q-11 -28 -18 -54h136q16 0 16 -17q0 -16 -16 -16h-141q-1 -12 -1 -23q0 -54 37 -84t92 -30q71 0 140 49q77 55 77 123q0 23 -15 39t-38 16q-28 0 -52 -19q-18 -14 -37 -42l-12 6q16 40 49 67q37 30 78 30q29 0 46.5 -18.5t17.5 -48.5
q0 -85 -102 -164q-97 -75 -187 -75q-68 0 -113 37q-48 40 -48 107q0 15 2 30h-47q-16 0 -16 17q0 16 16 16h53q7 28 19 56l8 17h-81q-16 0 -16 17q0 15 16 15h99q16 27 39 57q-55 10 -94 43q-46 39 -46 91q0 57 50 101q45 39 106 51l3 -12q-47 -21 -76 -57q-33 -41 -33 -88
q0 -46 29 -75q25 -26 73 -39q92 110 205 186q139 94 255 94q47 0 78 -18q40 -23 40 -67q0 -54 -47 -92t-103 -38q-20 0 -38.5 5.5t-32.5 16.5q-50 -63 -144 -90q-72 -21 -173 -21q-16 -23 -29 -48h148q16 0 16 -17zM270 368q77 0 145 26t115 81q-16 21 -16 43q0 14 7 24.5
t20 10.5q12 0 18 -9.5t6 -23.5q0 -23 -14 -42q11 -10 26 -14.5t31 -4.5q44 0 79.5 29t35.5 72q0 37 -30 56.5t-69 19.5q-99 0 -219 -90q-107 -80 -168 -177z" />
    <glyph glyph-name="dollar" unicode="$" horiz-adv-x="322" 
d="M356 382l-5 -13l-14 -6q-14 3 -32.5 25.5t-35.5 28.5l-60 -151q33 -31 40 -39q34 -38 34 -82q0 -70 -56 -113q-52 -40 -124 -40l-19 -49h-23l20 52q-40 8 -69 27q-39 26 -39 60l7 17l17 7l15 -6q13 -26 27 -52q15 -22 50 -33l83 213q-26 25 -37 43q-16 26 -16 55
q0 51 41 83t95 32l18 46h23l-19 -49q27 -4 49 -17q30 -17 30 -39zM110 10l15 -1q49 0 84 31t35 80q0 28 -17 51q-8 12 -39 41zM248 423h-11q-33 0 -57 -22t-24 -54q0 -20 12 -35.5t25 -30.5z" />
    <glyph glyph-name="percent" unicode="%" horiz-adv-x="420" 
d="M382 406q-9 -2 -20 -4t-19 -2q-13 0 -53 12q-20 6 -32 6q-47 0 -89 -46t-42 -93q0 -19 9.5 -32t28.5 -13q36 0 61 34t25 72q0 10 -3.5 25t-4.5 18l4 8l8 4q14 -4 19 -15.5t5 -27.5q0 -49 -42.5 -96.5t-91.5 -47.5q-24 0 -39 15t-15 40q0 63 60 118t123 55q16 0 45 -8
t44 -8q39 0 66 32l11 -11q-34 -28 -109 -120q-60 -75 -136 -178q-69 -94 -100 -143h-42zM237 -5q-57 0 -57 57q0 54 62.5 112.5t117.5 58.5q18 0 26.5 -5.5t8.5 -15.5l-4 -9l-10 -4q-7 0 -21 4t-22 4q-43 0 -81 -45t-38 -90q0 -18 9.5 -29.5t26.5 -11.5q37 0 63 35.5
t26 74.5q0 5 -3 16t-3 16q0 11 11 11t16 -9.5t5 -22.5q0 -49 -42 -98t-91 -49z" />
    <glyph glyph-name="Thorn" unicode="&#xde;" horiz-adv-x="810" 
d="M446 184q17 -5 33 -7.5t36 -2.5q36 0 70 14.5t68 44.5q53 47 83.5 97t30.5 92q0 32 -16.5 57.5t-49.5 45.5q-52 -66 -136 -184.5t-119 -156.5zM183 18q40 -10 94.5 -15t101.5 -5q102 0 188 59l8 -12q-44 -34 -97 -50.5t-112 -16.5q-45 0 -109 6q-140 13 -182 13
q-25 0 -62.5 -9.5t-47.5 -11.5l-18 17q7 19 28 26t51 7q11 0 31.5 -1t27.5 -1q75 11 157 54.5t155 130.5q69 84 138.5 176t131.5 159q-27 12 -59 17t-72 5q-69 0 -138 -18t-136 -53q-87 -47 -136 -103t-49 -110q0 -32 25.5 -53.5t65.5 -21.5q54 0 117.5 40.5t117.5 110.5
q26 34 44.5 73t22.5 39q3 0 4.5 -3t1.5 -8q0 -20 -12.5 -54.5t-31.5 -62.5q-48 -76 -114.5 -115.5t-141.5 -39.5q-55 0 -88.5 26t-33.5 69q0 47 35 97t101 95q76 53 165 82.5t173 29.5q45 0 82.5 -6.5t69.5 -19.5q59 58 115.5 96.5t74.5 38.5q6 0 9 -2t3 -5q0 -8 -15 -14
q-9 -5 -14 -8q-29 -17 -64.5 -48.5t-75.5 -77.5q45 -22 67.5 -60.5t22.5 -91.5q0 -52 -25 -99t-73 -84q-36 -28 -78.5 -42t-91.5 -14q-34 0 -58.5 4t-45.5 15q-68 -75 -128.5 -106.5t-119.5 -43.5z" />
    <glyph glyph-name="ampersand" unicode="&#x26;" horiz-adv-x="584" 
d="M343 301q41 0 64 -24t23 -66q0 -39 -19 -77t-50 -70q15 -16 34.5 -27t39.5 -11q25 0 49 19.5t40 44.5l10 -8q-16 -36 -50.5 -63t-71.5 -27q-24 0 -43.5 11t-38.5 31l-2 2q-29 -18 -48 -27q-59 -28 -102 -28q-58 0 -97 35.5t-39 93.5q0 73 65 138q47 46 130 91
q11 73 42 119q41 61 106 61q21 0 35.5 -10t14.5 -30q0 -50 -87 -100l-72 -36l-1 -29l1 -28q32 15 67 15zM94 132q0 -50 35 -84t84 -34q55 0 104 33q-32 38 -52.5 87t-26.5 103q-38 -41 -38 -91q0 -27 13 -56l-12 -6q-16 26 -16 59q0 69 51 115q-1 4 -1 14.5v17.5v32
q-61 -35 -96 -77q-45 -54 -45 -113zM399 187q0 38 -20 63.5t-57 25.5q-21 0 -44 -10q10 -59 24 -100q18 -50 48 -90q21 22 35 53t14 58zM397 475q0 11 -9 18t-20 7q-39 0 -65 -51q-21 -41 -25 -87q46 23 73 45q46 36 46 68z" />
    <glyph glyph-name="space" unicode=" " horiz-adv-x="255" 
 />
    <glyph glyph-name="space" unicode="&#xa0;" horiz-adv-x="255" 
 />
  </font>
</defs>
</svg>
