<svg xmlns="http://www.w3.org/2000/svg" width="1000" height="1000" viewBox="0 0 1000 1000"><path d="M31.688-25.338V-36.96h-3.487c-3.293 0-3.487-.258-3.487-4.65 0-4.34.221-4.649 3.325-4.649 3.117 0 3.368-.359 4.003-5.723 1.13-9.545 4.66-12.874 13.65-12.874 4.475 0 4.594.105 4.594 4.068 0 3.68-.31 4.068-3.255 4.068-4.28 0-6.044 1.934-6.044 6.626 0 3.7.164 3.835 4.65 3.835 4.92 0 5.46.921 3.916 6.684-.552 2.058-1.538 2.615-4.633 2.615h-3.933v23.247h-9.299v-11.624z" fill="#cbcbcb"/><path d="M149.858-13.163c-3.054-1.117-6.572-5.072-6.572-7.39 0-5.192 6.937-10.459 13.775-10.459 2.186 0 2.729-.422 2.226-1.733-.366-.953-.665-2.678-.665-3.834 0-1.527-.77-2.101-2.823-2.101-3.74 0-9.227-5.52-9.227-9.281 0-8.396 7.396-13.026 19.755-12.367 6.306.336 6.688.479 3.484 1.298-3.486.893-3.538.988-1.668 3.055 3.043 3.363 2.533 10.002-1.056 13.749-1.644 1.715-2.988 3.776-2.988 4.579 0 .803 1.972 3.6 4.382 6.214 6.269 6.801 5.542 12.375-2.18 16.714-3.998 2.248-12.38 3.04-16.443 1.556zm16.188-3.123c5.884-4.121.696-13.63-7.436-13.63-8.713 0-13.1 8.236-6.96 13.065 3.492 2.747 10.868 3.037 14.396.565zm-2.855-25.302c4.08-3.693 1.352-15.011-3.94-16.34-4.495-1.128-7.202 1.2-7.202 6.196 0 9.325 6.005 14.792 11.142 10.144zm17.34 7.29c0-2.921-.366-3.287-3.287-3.287-1.807 0-3.286-.492-3.286-1.095 0-.602 1.479-1.095 3.286-1.095 2.921 0 3.287-.366 3.287-3.287 0-4.12 1.924-4.34 2.392-.274.272 2.367.993 3.087 3.359 3.36 1.657.19 3.012.774 3.012 1.296s-1.355 1.106-3.012 1.297c-2.366.272-3.087.993-3.36 3.359-.467 4.066-2.391 3.846-2.391-.274z" fill="#ccc"/><path d="M286.89-18.157c-.677-1.265-1.173-10.359-1.173-21.505 0-24.652-1.722-23.058 24.377-22.56 17.14.328 19.02.563 20.48 2.561 1.233 1.69 1.606 6.576 1.606 21.073 0 16.844-.223 19.074-2.073 20.748-1.763 1.596-5.051 1.875-22.058 1.875-18.6 0-20.067-.152-21.159-2.192zm39.624-13.106c0-8.814-.309-10.766-1.7-10.766-1.14 0-1.7 1.14-1.7 3.456 0 7.883-6.02 13.546-14.393 13.538-8.203-.008-13.938-5.632-13.938-13.668 0-2.57-.515-3.326-2.267-3.326-2.095 0-2.266.755-2.266 10.01 0 5.506.34 10.35.755 10.766.416.415 8.575.755 18.132.755h17.377v-10.765zm-11.246-1.613c4.088-4.088 4.274-8.295.531-12.038-5.863-5.863-16.483-1.814-16.483 6.285 0 8.363 9.806 11.9 15.952 5.753zm11.246-19.352c0-4.533 0-4.533-4.533-4.533s-4.533 0-4.533 4.533 0 4.533 4.533 4.533 4.533 0 4.533-4.533zM229.841-15.305c.01-.168.784-2.493 1.72-5.169 1.654-4.731 1.838-4.853 6.717-4.451 8.84.728 14.65-5.866 14.65-16.628 0-14.403-19.629-19.853-30.198-8.384-5.471 5.938-4.23 19.126 1.8 19.126 1.571 0 1.775-.765 1.053-3.952-1.193-5.271-1.018-8.241.67-11.397 2.89-5.4 12.149-7.022 17.116-3 5.756 4.66 2.462 19.565-4.323 19.565-3.716 0-4.44-2.08-2.826-8.125 1.557-5.833.638-8.9-2.668-8.9-3.072 0-5.011 3.563-4.76 8.746.234 4.854-2.83 20.44-4.018 20.44-2.177 0-8.905-7.094-10.907-11.502-8.854-19.492 8.839-40.075 29.24-34.017 8.304 2.466 14.07 8.366 16.565 16.95 1.756 6.04 1.764 7.293.081 13.082-3.127 10.757-12.887 17.92-24.419 17.92-3.031 0-5.503-.137-5.493-.304zM425.923-20.367c-2.49-2.49-2.53-3.017-.458-5.976 1.751-2.5 5.517-3.032 7.491-1.057 1.967 1.966 1.508 6.817-.759 8.03-2.842 1.522-3.927 1.35-6.274-.997zm16.085.776c-.219-.712-.705-2.679-1.08-4.373-.926-4.179-7.722-10.424-12.592-11.57-3.02-.711-4.046-1.508-4.31-3.345-.54-3.764 1.019-4.493 6.6-3.088 6.76 1.703 15.293 9.876 16.993 16.278.658 2.478.947 5.154.643 5.947-.688 1.793-5.71 1.913-6.254.15zm14.491.069c-.242-.75-1.158-3.952-2.035-7.117-2.841-10.247-11.513-19.354-20.692-21.73-8.567-2.218-9.387-2.588-9.734-4.39-.996-5.173 6.04-5.285 16.991-.27 10.759 4.925 20.62 18.6 21.315 29.56.28 4.395.137 4.671-2.554 4.981-1.69.194-3.03-.227-3.29-1.034zM354.678-19.837c-3.216-2.875-3.743-4.178-4.191-10.376l-.513-7.088h4.75c4.748 0 4.75.003 4.75 4.47 0 4.736 2.289 7.753 5.072 6.686 1.256-.483 1.734-3.738 2.032-13.846.432-14.678 1.394-16.853 8.846-20.006 7.44-3.148 15.98 2.33 17.143 10.996.573 4.271.377 4.73-2.317 5.405-4.527 1.137-7.53-.319-7.937-3.847-.257-2.227-1.017-3.115-2.665-3.115-2.128 0-2.355.98-2.942 12.68-.697 13.884-1.774 16.97-6.834 19.586-5.398 2.792-10.974 2.225-15.194-1.545zm33.975 1.037c-3.803-2.32-6.104-7.702-6.117-14.312-.006-2.795.369-3.207 2.423-2.67 1.336.35 3.643.174 5.127-.39 2.566-.976 2.714-.762 3.046 4.388.273 4.224.826 5.505 2.517 5.826 2.825.537 4.134-1.673 4.155-7.02.018-4.293.05-4.323 4.768-4.323h4.75l-.513 7.088c-.448 6.198-.975 7.501-4.192 10.376-4.45 3.976-10.5 4.369-15.964 1.037zM80.38-18.504c-6.194-2.21-6.846-3.089-2.29-3.089 4.004 0 9.955-2.21 9.955-3.699 0-.487-1.348-1.224-2.995-1.638-3.5-.878-6.706-5.57-3.807-5.57 1.144 0 .517-1.25-1.775-3.543-3.94-3.94-4.83-7.783-1.507-6.508 1.907.732 1.907.597 0-2.125-2.098-2.996-2.83-10.852-1.012-10.852.564 0 2.063 1.168 3.333 2.595 2.873 3.23 10.99 7.039 15.073 7.074 2.487.022 3.116-.606 3.32-3.306.511-6.806 9.936-11.134 15.456-7.098 1.58 1.155 3.185 1.356 5.08.636 3.003-1.142 3.637-.042 1.315 2.28-1.048 1.048-1.068 1.455-.072 1.455.949 0 .837 1.045-.357 3.333-.956 1.833-1.753 4.696-1.772 6.363-.019 1.666-1.045 5.255-2.28 7.976-6.139 13.515-22.107 20.551-35.665 15.716z" fill="#cbcbcb"/></svg>